M48
; DRILL file {KiCad 8.0.0} date 2024-08-25T22:12:24-0700
; FORMAT={-:-/ absolute / inch / decimal}
; #@! TF.CreationDate,2024-08-25T22:12:24-07:00
; #@! TF.GenerationSoftware,Kicad,Pcbnew,8.0.0
; #@! TF.FileFunction,Plated,1,2,PTH
FMAT,2
INCH
; #@! TA.AperFunction,Plated,PTH,ViaDrill
T1C0.0118
; #@! TA.AperFunction,Plated,PTH,ComponentDrill
T2C0.0295
; #@! TA.AperFunction,Plated,PTH,ComponentDrill
T3C0.0315
; #@! TA.AperFunction,Plated,PTH,ComponentDrill
T4C0.0354
; #@! TA.AperFunction,Plated,PTH,ComponentDrill
T5C0.0394
; #@! TA.AperFunction,Plated,PTH,ComponentDrill
T6C0.0433
; #@! TA.AperFunction,Plated,PTH,ComponentDrill
T7C0.0480
; #@! TA.AperFunction,Plated,PTH,ComponentDrill
T8C0.0559
; #@! TA.AperFunction,Plated,PTH,ComponentDrill
T9C0.0563
%
G90
G05
T1
X3.7165Y-4.4016
X3.7402Y-5.7874
X3.7849Y-4.6063
X3.8189Y-4.252
X3.8976Y-4.5669
X3.9439Y-4.6525
X3.9764Y-4.9803
X3.9961Y-5.1378
X4.0103Y-4.5276
X4.0551Y-4.9606
X4.1339Y-4.9409
T2
X3.622Y-5.0394
X3.622Y-5.0894
X3.622Y-5.1394
X3.8976Y-5.0394
X3.8976Y-5.0894
X3.8976Y-5.1394
X4.2126Y-5.0394
X4.2126Y-5.0894
X4.2126Y-5.1394
T3
X3.6597Y-4.3683
X3.6597Y-4.4471
X3.6597Y-4.7655
X3.6597Y-4.8443
T4
X3.9872Y-5.3041
X3.9872Y-5.4041
T5
X3.8386Y-2.3622
X3.8386Y-2.9528
X3.8386Y-3.5433
X3.8386Y-4.1339
X3.937Y-2.3622
X3.937Y-2.9528
X3.937Y-3.5433
X3.937Y-4.1339
X4.0354Y-2.3622
X4.0354Y-2.9528
X4.0354Y-3.5433
X4.0354Y-4.1339
X4.1628Y-4.4459
X4.1628Y-4.5459
X4.1628Y-4.6459
X4.1628Y-4.7459
X4.1628Y-4.8459
X4.2628Y-4.4459
X4.2628Y-4.5459
X4.2628Y-4.6459
X4.2628Y-4.7459
X4.2628Y-4.8459
T7
X3.7402Y-5.2598
X4.1339Y-5.3898
T8
X3.7402Y-5.3819
X4.1339Y-5.5118
T9
X3.7402Y-5.7087
X4.1339Y-5.8386
T6
G00X3.748Y-2.0807
M15
G01X3.748Y-2.0531
M16
G05
G00X3.748Y-2.6713
M15
G01X3.748Y-2.6437
M16
G05
G00X3.748Y-3.2618
M15
G01X3.748Y-3.2343
M16
G05
G00X3.748Y-3.8524
M15
G01X3.748Y-3.8248
M16
G05
G00X4.126Y-2.0807
M15
G01X4.126Y-2.0531
M16
G05
G00X4.126Y-2.6713
M15
G01X4.126Y-2.6437
M16
G05
G00X4.126Y-3.2618
M15
G01X4.126Y-3.2343
M16
G05
G00X4.126Y-3.8524
M15
G01X4.126Y-3.8248
M16
G05
M30
