%TF.GenerationSoftware,KiCad,Pcbnew,8.0.0*%
%TF.CreationDate,2024-08-25T22:12:22-07:00*%
%TF.ProjectId,adsr,61647372-2e6b-4696-9361-645f70636258,rev?*%
%TF.SameCoordinates,Original*%
%TF.FileFunction,Copper,L2,Bot*%
%TF.FilePolarity,Positive*%
%FSLAX46Y46*%
G04 Gerber Fmt 4.6, Leading zero omitted, Abs format (unit mm)*
G04 Created by KiCad (PCBNEW 8.0.0) date 2024-08-25 22:12:22*
%MOMM*%
%LPD*%
G01*
G04 APERTURE LIST*
G04 Aperture macros list*
%AMRoundRect*
0 Rectangle with rounded corners*
0 $1 Rounding radius*
0 $2 $3 $4 $5 $6 $7 $8 $9 X,Y pos of 4 corners*
0 Add a 4 corners polygon primitive as box body*
4,1,4,$2,$3,$4,$5,$6,$7,$8,$9,$2,$3,0*
0 Add four circle primitives for the rounded corners*
1,1,$1+$1,$2,$3*
1,1,$1+$1,$4,$5*
1,1,$1+$1,$6,$7*
1,1,$1+$1,$8,$9*
0 Add four rect primitives between the rounded corners*
20,1,$1+$1,$2,$3,$4,$5,0*
20,1,$1+$1,$4,$5,$6,$7,0*
20,1,$1+$1,$6,$7,$8,$9,0*
20,1,$1+$1,$8,$9,$2,$3,0*%
G04 Aperture macros list end*
%TA.AperFunction,ComponentPad*%
%ADD10R,1.930000X1.830000*%
%TD*%
%TA.AperFunction,ComponentPad*%
%ADD11C,2.130000*%
%TD*%
%TA.AperFunction,ComponentPad*%
%ADD12R,1.500000X1.050000*%
%TD*%
%TA.AperFunction,ComponentPad*%
%ADD13O,1.500000X1.050000*%
%TD*%
%TA.AperFunction,ComponentPad*%
%ADD14O,2.720000X3.240000*%
%TD*%
%TA.AperFunction,ComponentPad*%
%ADD15R,1.800000X1.800000*%
%TD*%
%TA.AperFunction,ComponentPad*%
%ADD16C,1.800000*%
%TD*%
%TA.AperFunction,ComponentPad*%
%ADD17R,1.600000X1.600000*%
%TD*%
%TA.AperFunction,ComponentPad*%
%ADD18C,1.600000*%
%TD*%
%TA.AperFunction,SMDPad,CuDef*%
%ADD19RoundRect,0.237500X-0.300000X-0.237500X0.300000X-0.237500X0.300000X0.237500X-0.300000X0.237500X0*%
%TD*%
%TA.AperFunction,ComponentPad*%
%ADD20R,1.700000X1.700000*%
%TD*%
%TA.AperFunction,ComponentPad*%
%ADD21O,1.700000X1.700000*%
%TD*%
%TA.AperFunction,SMDPad,CuDef*%
%ADD22RoundRect,0.237500X0.250000X0.237500X-0.250000X0.237500X-0.250000X-0.237500X0.250000X-0.237500X0*%
%TD*%
%TA.AperFunction,SMDPad,CuDef*%
%ADD23RoundRect,0.150000X0.825000X0.150000X-0.825000X0.150000X-0.825000X-0.150000X0.825000X-0.150000X0*%
%TD*%
%TA.AperFunction,SMDPad,CuDef*%
%ADD24RoundRect,0.225000X0.375000X-0.225000X0.375000X0.225000X-0.375000X0.225000X-0.375000X-0.225000X0*%
%TD*%
%TA.AperFunction,SMDPad,CuDef*%
%ADD25RoundRect,0.237500X0.237500X-0.300000X0.237500X0.300000X-0.237500X0.300000X-0.237500X-0.300000X0*%
%TD*%
%TA.AperFunction,SMDPad,CuDef*%
%ADD26RoundRect,0.237500X-0.250000X-0.237500X0.250000X-0.237500X0.250000X0.237500X-0.250000X0.237500X0*%
%TD*%
%TA.AperFunction,SMDPad,CuDef*%
%ADD27RoundRect,0.237500X-0.237500X0.250000X-0.237500X-0.250000X0.237500X-0.250000X0.237500X0.250000X0*%
%TD*%
%TA.AperFunction,SMDPad,CuDef*%
%ADD28RoundRect,0.237500X0.300000X0.237500X-0.300000X0.237500X-0.300000X-0.237500X0.300000X-0.237500X0*%
%TD*%
%TA.AperFunction,SMDPad,CuDef*%
%ADD29RoundRect,0.225000X-0.375000X0.225000X-0.375000X-0.225000X0.375000X-0.225000X0.375000X0.225000X0*%
%TD*%
%TA.AperFunction,SMDPad,CuDef*%
%ADD30RoundRect,0.237500X0.237500X-0.250000X0.237500X0.250000X-0.237500X0.250000X-0.237500X-0.250000X0*%
%TD*%
%TA.AperFunction,SMDPad,CuDef*%
%ADD31RoundRect,0.225000X0.225000X0.375000X-0.225000X0.375000X-0.225000X-0.375000X0.225000X-0.375000X0*%
%TD*%
%TA.AperFunction,ViaPad*%
%ADD32C,0.600000*%
%TD*%
%TA.AperFunction,Conductor*%
%ADD33C,0.200000*%
%TD*%
%TA.AperFunction,Conductor*%
%ADD34C,0.500000*%
%TD*%
G04 APERTURE END LIST*
D10*
%TO.P,J3,S*%
%TO.N,GND*%
X105000000Y-136900000D03*
D11*
%TO.P,J3,T*%
%TO.N,Net-(D6-A)*%
X105000000Y-148300000D03*
%TO.P,J3,TN*%
%TO.N,unconnected-(J3-PadTN)*%
X105000000Y-140000000D03*
%TD*%
D12*
%TO.P,Q3,1,C*%
%TO.N,Net-(Q3-C)*%
X107000000Y-128000000D03*
D13*
%TO.P,Q3,2,B*%
%TO.N,Net-(Q3-B)*%
X107000000Y-129270000D03*
%TO.P,Q3,3,E*%
%TO.N,GND*%
X107000000Y-130540000D03*
%TD*%
D14*
%TO.P,RV_REL1,*%
%TO.N,*%
X95200000Y-97500000D03*
X104800000Y-97500000D03*
D15*
%TO.P,RV_REL1,1,1*%
%TO.N,Net-(D3-K)*%
X97500000Y-105000000D03*
D16*
%TO.P,RV_REL1,2,2*%
%TO.N,Net-(R7-Pad2)*%
X100000000Y-105000000D03*
%TO.P,RV_REL1,3,3*%
X102500000Y-105000000D03*
%TD*%
D14*
%TO.P,RV_SUS1,*%
%TO.N,*%
X95200000Y-82500000D03*
X104800000Y-82500000D03*
D15*
%TO.P,RV_SUS1,1,1*%
%TO.N,Net-(U2-DIS)*%
X97500000Y-90000000D03*
D16*
%TO.P,RV_SUS1,2,2*%
%TO.N,Net-(U1A-+)*%
X100000000Y-90000000D03*
%TO.P,RV_SUS1,3,3*%
%TO.N,Net-(R9-Pad2)*%
X102500000Y-90000000D03*
%TD*%
D17*
%TO.P,C5,1*%
%TO.N,Net-(D3-A)*%
X92955112Y-112955112D03*
D18*
%TO.P,C5,2*%
%TO.N,GND*%
X92955112Y-110955112D03*
%TD*%
D15*
%TO.P,D6,1,K*%
%TO.N,Net-(D6-K)*%
X101275000Y-134725000D03*
D16*
%TO.P,D6,2,A*%
%TO.N,Net-(D6-A)*%
X101275000Y-137265000D03*
%TD*%
D17*
%TO.P,C4,1*%
%TO.N,Net-(U2-CV)*%
X92955112Y-121044886D03*
D18*
%TO.P,C4,2*%
%TO.N,GND*%
X92955112Y-123044886D03*
%TD*%
D14*
%TO.P,RV_DEC1,*%
%TO.N,*%
X95200000Y-67500000D03*
X104800000Y-67500000D03*
D15*
%TO.P,RV_DEC1,1,1*%
%TO.N,Net-(D5-K)*%
X97500000Y-75000000D03*
D16*
%TO.P,RV_DEC1,2,2*%
%TO.N,Net-(R10-Pad2)*%
X100000000Y-75000000D03*
%TO.P,RV_DEC1,3,3*%
X102500000Y-75000000D03*
%TD*%
D12*
%TO.P,Q2,1,C*%
%TO.N,Net-(Q2-C)*%
X99000000Y-128000000D03*
D13*
%TO.P,Q2,2,B*%
%TO.N,Net-(Q2-B)*%
X99000000Y-129270000D03*
%TO.P,Q2,3,E*%
%TO.N,GND*%
X99000000Y-130540000D03*
%TD*%
D12*
%TO.P,Q1,1,C*%
%TO.N,Net-(Q1-C)*%
X92000000Y-128000000D03*
D13*
%TO.P,Q1,2,B*%
%TO.N,Net-(D1-K)*%
X92000000Y-129270000D03*
%TO.P,Q1,3,E*%
%TO.N,GND*%
X92000000Y-130540000D03*
%TD*%
D10*
%TO.P,J1,S*%
%TO.N,GND*%
X95000000Y-133600000D03*
D11*
%TO.P,J1,T*%
%TO.N,Net-(J1-PadT)*%
X95000000Y-145000000D03*
%TO.P,J1,TN*%
%TO.N,GND*%
X95000000Y-136700000D03*
%TD*%
D14*
%TO.P,RV_ATT1,*%
%TO.N,*%
X95200000Y-52500000D03*
X104800000Y-52500000D03*
D15*
%TO.P,RV_ATT1,1,1*%
%TO.N,Net-(D4-A)*%
X97500000Y-60000000D03*
D16*
%TO.P,RV_ATT1,2,2*%
%TO.N,Net-(R8-Pad2)*%
X100000000Y-60000000D03*
%TO.P,RV_ATT1,3,3*%
X102500000Y-60000000D03*
%TD*%
D19*
%TO.P,C3,1*%
%TO.N,GND*%
X100137500Y-116000000D03*
%TO.P,C3,2*%
%TO.N,-12V*%
X101862500Y-116000000D03*
%TD*%
D20*
%TO.P,J2,1,Pin_1*%
%TO.N,-12V*%
X108275000Y-112925000D03*
D21*
%TO.P,J2,2,Pin_2*%
X105735000Y-112925000D03*
%TO.P,J2,3,Pin_3*%
%TO.N,GND*%
X108275000Y-115465000D03*
%TO.P,J2,4,Pin_4*%
X105735000Y-115465000D03*
%TO.P,J2,5,Pin_5*%
X108275000Y-118005000D03*
%TO.P,J2,6,Pin_6*%
X105735000Y-118005000D03*
%TO.P,J2,7,Pin_7*%
X108275000Y-120545000D03*
%TO.P,J2,8,Pin_8*%
X105735000Y-120545000D03*
%TO.P,J2,9,Pin_9*%
%TO.N,+12V*%
X108275000Y-123085000D03*
%TO.P,J2,10,Pin_10*%
X105735000Y-123085000D03*
%TD*%
D22*
%TO.P,R2,1*%
%TO.N,+12V*%
X96912500Y-127000000D03*
%TO.P,R2,2*%
%TO.N,Net-(Q1-C)*%
X95087500Y-127000000D03*
%TD*%
D23*
%TO.P,U1,1*%
%TO.N,Net-(U1A--)*%
X101475000Y-110095000D03*
%TO.P,U1,2,-*%
X101475000Y-111365000D03*
%TO.P,U1,3,+*%
%TO.N,Net-(U1A-+)*%
X101475000Y-112635000D03*
%TO.P,U1,4,V-*%
%TO.N,-12V*%
X101475000Y-113905000D03*
%TO.P,U1,5,+*%
%TO.N,Net-(D3-A)*%
X96525000Y-113905000D03*
%TO.P,U1,6,-*%
%TO.N,Net-(D6-A)*%
X96525000Y-112635000D03*
%TO.P,U1,7*%
X96525000Y-111365000D03*
%TO.P,U1,8,V+*%
%TO.N,+12V*%
X96525000Y-110095000D03*
%TD*%
D24*
%TO.P,D3,1,K*%
%TO.N,Net-(D3-K)*%
X94000000Y-104650000D03*
%TO.P,D3,2,A*%
%TO.N,Net-(D3-A)*%
X94000000Y-101350000D03*
%TD*%
D19*
%TO.P,C6,1*%
%TO.N,+12V*%
X96137500Y-116000000D03*
%TO.P,C6,2*%
%TO.N,GND*%
X97862500Y-116000000D03*
%TD*%
D22*
%TO.P,R8,1*%
%TO.N,Net-(U2-Q)*%
X106912500Y-60000000D03*
%TO.P,R8,2*%
%TO.N,Net-(R8-Pad2)*%
X105087500Y-60000000D03*
%TD*%
D25*
%TO.P,C1,1*%
%TO.N,Net-(Q2-C)*%
X103000000Y-128862500D03*
%TO.P,C1,2*%
%TO.N,Net-(D2-K)*%
X103000000Y-127137500D03*
%TD*%
D24*
%TO.P,D4,1,K*%
%TO.N,Net-(D3-A)*%
X94000000Y-61605000D03*
%TO.P,D4,2,A*%
%TO.N,Net-(D4-A)*%
X94000000Y-58305000D03*
%TD*%
D26*
%TO.P,R9,1*%
%TO.N,+12V*%
X98087500Y-108000000D03*
%TO.P,R9,2*%
%TO.N,Net-(R9-Pad2)*%
X99912500Y-108000000D03*
%TD*%
%TO.P,R11,1*%
%TO.N,Net-(D6-K)*%
X104087500Y-134000000D03*
%TO.P,R11,2*%
%TO.N,GND*%
X105912500Y-134000000D03*
%TD*%
D27*
%TO.P,R1,1*%
%TO.N,Net-(J1-PadT)*%
X92000000Y-141087500D03*
%TO.P,R1,2*%
%TO.N,Net-(D1-K)*%
X92000000Y-142912500D03*
%TD*%
D22*
%TO.P,R10,1*%
%TO.N,Net-(U1A--)*%
X106912500Y-75000000D03*
%TO.P,R10,2*%
%TO.N,Net-(R10-Pad2)*%
X105087500Y-75000000D03*
%TD*%
D24*
%TO.P,D5,1,K*%
%TO.N,Net-(D5-K)*%
X94022500Y-77627500D03*
%TO.P,D5,2,A*%
%TO.N,Net-(D3-A)*%
X94022500Y-74327500D03*
%TD*%
D28*
%TO.P,C2,1*%
%TO.N,+12V*%
X95862500Y-108000000D03*
%TO.P,C2,2*%
%TO.N,GND*%
X94137500Y-108000000D03*
%TD*%
D29*
%TO.P,D1,1,K*%
%TO.N,Net-(D1-K)*%
X92022500Y-145372500D03*
%TO.P,D1,2,A*%
%TO.N,GND*%
X92022500Y-148672500D03*
%TD*%
D30*
%TO.P,R5,1*%
%TO.N,Net-(D2-K)*%
X109000000Y-133912500D03*
%TO.P,R5,2*%
%TO.N,Net-(Q3-B)*%
X109000000Y-132087500D03*
%TD*%
D22*
%TO.P,R7,1*%
%TO.N,Net-(Q2-C)*%
X106912500Y-105000000D03*
%TO.P,R7,2*%
%TO.N,Net-(R7-Pad2)*%
X105087500Y-105000000D03*
%TD*%
D23*
%TO.P,U2,1,GND*%
%TO.N,GND*%
X101475000Y-118095000D03*
%TO.P,U2,2,TR*%
%TO.N,Net-(Q3-C)*%
X101475000Y-119365000D03*
%TO.P,U2,3,Q*%
%TO.N,Net-(U2-Q)*%
X101475000Y-120635000D03*
%TO.P,U2,4,R*%
%TO.N,Net-(Q2-C)*%
X101475000Y-121905000D03*
%TO.P,U2,5,CV*%
%TO.N,Net-(U2-CV)*%
X96525000Y-121905000D03*
%TO.P,U2,6,THR*%
%TO.N,Net-(D3-A)*%
X96525000Y-120635000D03*
%TO.P,U2,7,DIS*%
%TO.N,Net-(U2-DIS)*%
X96525000Y-119365000D03*
%TO.P,U2,8,VCC*%
%TO.N,+12V*%
X96525000Y-118095000D03*
%TD*%
D27*
%TO.P,R4,1*%
%TO.N,+12V*%
X105000000Y-127087500D03*
%TO.P,R4,2*%
%TO.N,Net-(Q2-C)*%
X105000000Y-128912500D03*
%TD*%
D31*
%TO.P,D2,1,K*%
%TO.N,Net-(D2-K)*%
X102650000Y-125000000D03*
%TO.P,D2,2,A*%
%TO.N,GND*%
X99350000Y-125000000D03*
%TD*%
D27*
%TO.P,R6,1*%
%TO.N,+12V*%
X109000000Y-127087500D03*
%TO.P,R6,2*%
%TO.N,Net-(Q3-C)*%
X109000000Y-128912500D03*
%TD*%
D26*
%TO.P,R3,1*%
%TO.N,Net-(Q1-C)*%
X95087500Y-129000000D03*
%TO.P,R3,2*%
%TO.N,Net-(Q2-B)*%
X96912500Y-129000000D03*
%TD*%
D32*
%TO.N,Net-(D2-K)*%
X103000000Y-126000000D03*
X101500000Y-130500000D03*
%TO.N,+12V*%
X97000000Y-108000000D03*
X105000000Y-125500000D03*
X101000000Y-126500000D03*
X96137500Y-117000000D03*
%TO.N,GND*%
X99000000Y-116000000D03*
X100174265Y-118174265D03*
X95000000Y-147000000D03*
%TO.N,-12V*%
X101862500Y-115000000D03*
%TO.N,Net-(D6-A)*%
X94400000Y-111800000D03*
%TD*%
D33*
%TO.N,Net-(U2-DIS)*%
X97500000Y-93220000D02*
X97500000Y-90000000D01*
X96860000Y-93860000D02*
X97500000Y-93220000D01*
%TO.N,Net-(R9-Pad2)*%
X100700000Y-88200000D02*
X102500000Y-90000000D01*
X99500000Y-88200000D02*
X100700000Y-88200000D01*
X99912500Y-107412500D02*
X98800000Y-106300000D01*
X99912500Y-108000000D02*
X99912500Y-107412500D01*
X98800000Y-106300000D02*
X98800000Y-88900000D01*
X98800000Y-88900000D02*
X99500000Y-88200000D01*
%TO.N,Net-(Q2-C)*%
X99500000Y-117500000D02*
X99500000Y-121500000D01*
X103000000Y-112500000D02*
X103000000Y-116500000D01*
X101500000Y-121930000D02*
X101500000Y-125651471D01*
X99000000Y-128000000D02*
X100000000Y-128000000D01*
X103000000Y-116500000D02*
X102500000Y-117000000D01*
X106912500Y-108587500D02*
X103000000Y-112500000D01*
X99905000Y-121905000D02*
X101475000Y-121905000D01*
X103000000Y-128862500D02*
X104950000Y-128862500D01*
X102000000Y-127862500D02*
X103000000Y-128862500D01*
X106912500Y-105000000D02*
X106912500Y-108587500D01*
X99500000Y-121500000D02*
X99905000Y-121905000D01*
X101500000Y-125651471D02*
X102000000Y-126151471D01*
X100862500Y-128862500D02*
X103000000Y-128862500D01*
X104950000Y-128862500D02*
X105000000Y-128912500D01*
X100000000Y-117000000D02*
X99500000Y-117500000D01*
X102000000Y-126151471D02*
X102000000Y-127862500D01*
X101475000Y-121905000D02*
X101500000Y-121930000D01*
X100000000Y-128000000D02*
X100862500Y-128862500D01*
X102500000Y-117000000D02*
X100000000Y-117000000D01*
%TO.N,Net-(D2-K)*%
X109000000Y-133912500D02*
X107912500Y-133912500D01*
X103000000Y-127137500D02*
X103000000Y-126000000D01*
X107500000Y-133500000D02*
X104500000Y-130500000D01*
X103000000Y-125350000D02*
X102650000Y-125000000D01*
X103000000Y-126000000D02*
X103000000Y-125350000D01*
X107912500Y-133912500D02*
X107500000Y-133500000D01*
X104500000Y-130500000D02*
X101500000Y-130500000D01*
D34*
%TO.N,+12V*%
X95862500Y-108762500D02*
X95862500Y-108000000D01*
X95862500Y-108000000D02*
X97000000Y-108000000D01*
D33*
X96525000Y-118095000D02*
X96137500Y-117707500D01*
D34*
X98000000Y-127000000D02*
X96912500Y-127000000D01*
X109000000Y-123810000D02*
X108275000Y-123085000D01*
D33*
X96137500Y-117707500D02*
X96137500Y-116000000D01*
D34*
X105000000Y-125500000D02*
X105000000Y-127087500D01*
X109000000Y-127087500D02*
X109000000Y-123810000D01*
X98087500Y-108000000D02*
X97000000Y-108000000D01*
X98500000Y-126500000D02*
X98000000Y-127000000D01*
X96525000Y-109425000D02*
X95862500Y-108762500D01*
X96525000Y-110095000D02*
X96525000Y-109425000D01*
X101000000Y-126500000D02*
X98500000Y-126500000D01*
D33*
%TO.N,GND*%
X93327500Y-148672500D02*
X95000000Y-147000000D01*
X100137500Y-116000000D02*
X99000000Y-116000000D01*
X97862500Y-116000000D02*
X99000000Y-116000000D01*
X100174265Y-118174265D02*
X100253530Y-118095000D01*
X94137500Y-109772724D02*
X92955112Y-110955112D01*
X105000000Y-136900000D02*
X105000000Y-134912500D01*
X100253530Y-118095000D02*
X101475000Y-118095000D01*
X94910226Y-125000000D02*
X92955112Y-123044886D01*
X94137500Y-108000000D02*
X94137500Y-109772724D01*
X92022500Y-148672500D02*
X93327500Y-148672500D01*
X99350000Y-125000000D02*
X94910226Y-125000000D01*
X105000000Y-134912500D02*
X105912500Y-134000000D01*
%TO.N,-12V*%
X101862500Y-116000000D02*
X101862500Y-114292500D01*
X101862500Y-114292500D02*
X101475000Y-113905000D01*
%TO.N,Net-(U2-CV)*%
X93955112Y-121044886D02*
X92955112Y-121044886D01*
X96525000Y-121905000D02*
X94905000Y-121905000D01*
X94000000Y-121000000D02*
X93955112Y-121044886D01*
X94905000Y-121905000D02*
X94000000Y-121000000D01*
%TO.N,Net-(D3-A)*%
X95135000Y-120635000D02*
X94500000Y-120000000D01*
X94022500Y-75477500D02*
X92500000Y-77000000D01*
X94000000Y-101500000D02*
X94000000Y-101350000D01*
X91855112Y-103644888D02*
X94000000Y-101500000D01*
X94000000Y-100500000D02*
X94000000Y-101350000D01*
X94022500Y-71022500D02*
X92500000Y-69500000D01*
X92955112Y-112955112D02*
X91855112Y-111855112D01*
X92955112Y-118455112D02*
X94500000Y-120000000D01*
X91855112Y-111855112D02*
X91855112Y-103644888D01*
X94022500Y-74327500D02*
X94022500Y-75477500D01*
X94000000Y-63500000D02*
X94000000Y-61605000D01*
X92500000Y-77000000D02*
X92500000Y-99000000D01*
X94022500Y-74327500D02*
X94022500Y-71022500D01*
X92500000Y-99000000D02*
X94000000Y-100500000D01*
X92955112Y-112955112D02*
X92955112Y-118455112D01*
X92500000Y-65000000D02*
X94000000Y-63500000D01*
X92500000Y-69500000D02*
X92500000Y-65000000D01*
X96525000Y-113905000D02*
X93905000Y-113905000D01*
X96525000Y-120635000D02*
X95135000Y-120635000D01*
X93905000Y-113905000D02*
X92955112Y-112955112D01*
%TO.N,Net-(D1-K)*%
X92000000Y-144000000D02*
X92022500Y-144022500D01*
X92022500Y-144022500D02*
X92022500Y-145372500D01*
X92000000Y-142912500D02*
X92000000Y-144000000D01*
X90600000Y-130170000D02*
X90600000Y-141512500D01*
X91500000Y-129270000D02*
X90600000Y-130170000D01*
X90600000Y-141512500D02*
X92000000Y-142912500D01*
X92000000Y-129270000D02*
X91500000Y-129270000D01*
%TO.N,Net-(D3-K)*%
X97150000Y-104650000D02*
X97500000Y-105000000D01*
X94000000Y-104650000D02*
X97150000Y-104650000D01*
%TO.N,Net-(D4-A)*%
X94000000Y-58305000D02*
X95805000Y-58305000D01*
X95805000Y-58305000D02*
X97500000Y-60000000D01*
%TO.N,Net-(D5-K)*%
X94022500Y-77627500D02*
X94872500Y-77627500D01*
X94872500Y-77627500D02*
X97500000Y-75000000D01*
%TO.N,Net-(D6-K)*%
X104087500Y-134000000D02*
X102000000Y-134000000D01*
X102000000Y-134000000D02*
X101275000Y-134725000D01*
%TO.N,Net-(D6-A)*%
X101275000Y-144575000D02*
X105000000Y-148300000D01*
X94835000Y-111365000D02*
X96525000Y-111365000D01*
X94400000Y-111800000D02*
X94835000Y-111365000D01*
X101275000Y-137265000D02*
X101275000Y-144575000D01*
X96525000Y-111365000D02*
X96525000Y-112635000D01*
%TO.N,Net-(J1-PadT)*%
X95000000Y-143000000D02*
X95000000Y-145000000D01*
X93087500Y-141087500D02*
X95000000Y-143000000D01*
X92000000Y-141087500D02*
X93087500Y-141087500D01*
%TO.N,Net-(Q1-C)*%
X94087500Y-128000000D02*
X92000000Y-128000000D01*
X95087500Y-129000000D02*
X94087500Y-128000000D01*
X95087500Y-129000000D02*
X95087500Y-127000000D01*
%TO.N,Net-(Q2-B)*%
X97182500Y-129270000D02*
X96912500Y-129000000D01*
X99000000Y-129270000D02*
X97182500Y-129270000D01*
%TO.N,Net-(Q3-C)*%
X107000000Y-126500000D02*
X107000000Y-128000000D01*
X103500000Y-122000000D02*
X103500000Y-123000000D01*
X100000000Y-119865001D02*
X100000000Y-120775552D01*
X100500001Y-119365000D02*
X100000000Y-119865001D01*
X101475000Y-119365000D02*
X100500001Y-119365000D01*
X100000000Y-120775552D02*
X100529448Y-121305000D01*
X102805000Y-121305000D02*
X103500000Y-122000000D01*
X108087500Y-128000000D02*
X107000000Y-128000000D01*
X109000000Y-128912500D02*
X108087500Y-128000000D01*
X100529448Y-121305000D02*
X102805000Y-121305000D01*
X103500000Y-123000000D02*
X107000000Y-126500000D01*
%TO.N,Net-(Q3-B)*%
X107770000Y-129270000D02*
X109000000Y-130500000D01*
X109000000Y-130500000D02*
X109000000Y-132087500D01*
X107000000Y-129270000D02*
X107770000Y-129270000D01*
%TO.N,Net-(R7-Pad2)*%
X102500000Y-105000000D02*
X105087500Y-105000000D01*
%TO.N,Net-(U2-Q)*%
X103500000Y-113000000D02*
X103500000Y-120042500D01*
X102907500Y-120635000D02*
X101475000Y-120635000D01*
X103500000Y-120042500D02*
X102907500Y-120635000D01*
X106912500Y-61412500D02*
X109000000Y-63500000D01*
X109000000Y-107500000D02*
X103500000Y-113000000D01*
X109000000Y-63500000D02*
X109000000Y-107500000D01*
X106912500Y-60000000D02*
X106912500Y-61412500D01*
%TO.N,Net-(R8-Pad2)*%
X100000000Y-60000000D02*
X102500000Y-60000000D01*
X102500000Y-60000000D02*
X105087500Y-60000000D01*
%TO.N,Net-(U1A--)*%
X106912500Y-75000000D02*
X106912500Y-76912500D01*
X108000000Y-78000000D02*
X108000000Y-100500000D01*
X101475000Y-111365000D02*
X101475000Y-110095000D01*
X108000000Y-100500000D02*
X106125000Y-102375000D01*
X106125000Y-102375000D02*
X106125000Y-108375000D01*
X106912500Y-76912500D02*
X108000000Y-78000000D01*
X104405000Y-110095000D02*
X101475000Y-110095000D01*
X106125000Y-108375000D02*
X104405000Y-110095000D01*
%TO.N,Net-(R10-Pad2)*%
X102500000Y-75000000D02*
X105087500Y-75000000D01*
X100000000Y-75000000D02*
X102500000Y-75000000D01*
%TO.N,Net-(U1A-+)*%
X101200000Y-91200000D02*
X100000000Y-90000000D01*
X99900000Y-109850000D02*
X101200000Y-108550000D01*
X100135000Y-112635000D02*
X99900000Y-112400000D01*
X101475000Y-112635000D02*
X100135000Y-112635000D01*
X101200000Y-108550000D02*
X101200000Y-91200000D01*
X99900000Y-112400000D02*
X99900000Y-109850000D01*
%TO.N,Net-(U2-DIS)*%
X95000000Y-118814999D02*
X95550001Y-119365000D01*
X93000000Y-106500000D02*
X98000000Y-106500000D01*
X92500000Y-106000000D02*
X93000000Y-106500000D01*
X95550001Y-119365000D02*
X96525000Y-119365000D01*
X92500000Y-104100000D02*
X92500000Y-106000000D01*
X95000000Y-115833278D02*
X95000000Y-118814999D01*
X93100000Y-103500000D02*
X92500000Y-104100000D01*
X96860000Y-102140000D02*
X95500000Y-103500000D01*
X97500000Y-115000000D02*
X95833278Y-115000000D01*
X99000000Y-107500000D02*
X99000000Y-113500000D01*
X98000000Y-106500000D02*
X99000000Y-107500000D01*
X96860000Y-93860000D02*
X96860000Y-102140000D01*
X95500000Y-103500000D02*
X93100000Y-103500000D01*
X99000000Y-113500000D02*
X97500000Y-115000000D01*
X95833278Y-115000000D02*
X95000000Y-115833278D01*
%TD*%
M02*
