%TF.GenerationSoftware,KiCad,Pcbnew,8.0.0*%
%TF.CreationDate,2024-08-25T22:12:22-07:00*%
%TF.ProjectId,adsr,61647372-2e6b-4696-9361-645f70636258,rev?*%
%TF.SameCoordinates,Original*%
%TF.FileFunction,Copper,L1,Top*%
%TF.FilePolarity,Positive*%
%FSLAX46Y46*%
G04 Gerber Fmt 4.6, Leading zero omitted, Abs format (unit mm)*
G04 Created by KiCad (PCBNEW 8.0.0) date 2024-08-25 22:12:22*
%MOMM*%
%LPD*%
G01*
G04 APERTURE LIST*
%TA.AperFunction,ComponentPad*%
%ADD10R,1.930000X1.830000*%
%TD*%
%TA.AperFunction,ComponentPad*%
%ADD11C,2.130000*%
%TD*%
%TA.AperFunction,ComponentPad*%
%ADD12R,1.500000X1.050000*%
%TD*%
%TA.AperFunction,ComponentPad*%
%ADD13O,1.500000X1.050000*%
%TD*%
%TA.AperFunction,ComponentPad*%
%ADD14O,2.720000X3.240000*%
%TD*%
%TA.AperFunction,ComponentPad*%
%ADD15R,1.800000X1.800000*%
%TD*%
%TA.AperFunction,ComponentPad*%
%ADD16C,1.800000*%
%TD*%
%TA.AperFunction,ComponentPad*%
%ADD17R,1.600000X1.600000*%
%TD*%
%TA.AperFunction,ComponentPad*%
%ADD18C,1.600000*%
%TD*%
%TA.AperFunction,ComponentPad*%
%ADD19R,1.700000X1.700000*%
%TD*%
%TA.AperFunction,ComponentPad*%
%ADD20O,1.700000X1.700000*%
%TD*%
%TA.AperFunction,ViaPad*%
%ADD21C,0.600000*%
%TD*%
%TA.AperFunction,Conductor*%
%ADD22C,0.200000*%
%TD*%
%TA.AperFunction,Conductor*%
%ADD23C,0.500000*%
%TD*%
G04 APERTURE END LIST*
D10*
%TO.P,J3,S*%
%TO.N,GND*%
X105000000Y-136900000D03*
D11*
%TO.P,J3,T*%
%TO.N,Net-(D6-A)*%
X105000000Y-148300000D03*
%TO.P,J3,TN*%
%TO.N,unconnected-(J3-PadTN)*%
X105000000Y-140000000D03*
%TD*%
D12*
%TO.P,Q3,1,C*%
%TO.N,Net-(Q3-C)*%
X107000000Y-128000000D03*
D13*
%TO.P,Q3,2,B*%
%TO.N,Net-(Q3-B)*%
X107000000Y-129270000D03*
%TO.P,Q3,3,E*%
%TO.N,GND*%
X107000000Y-130540000D03*
%TD*%
D14*
%TO.P,RV_REL1,*%
%TO.N,*%
X95200000Y-97500000D03*
X104800000Y-97500000D03*
D15*
%TO.P,RV_REL1,1,1*%
%TO.N,Net-(D3-K)*%
X97500000Y-105000000D03*
D16*
%TO.P,RV_REL1,2,2*%
%TO.N,Net-(R7-Pad2)*%
X100000000Y-105000000D03*
%TO.P,RV_REL1,3,3*%
X102500000Y-105000000D03*
%TD*%
D14*
%TO.P,RV_SUS1,*%
%TO.N,*%
X95200000Y-82500000D03*
X104800000Y-82500000D03*
D15*
%TO.P,RV_SUS1,1,1*%
%TO.N,Net-(U2-DIS)*%
X97500000Y-90000000D03*
D16*
%TO.P,RV_SUS1,2,2*%
%TO.N,Net-(U1A-+)*%
X100000000Y-90000000D03*
%TO.P,RV_SUS1,3,3*%
%TO.N,Net-(R9-Pad2)*%
X102500000Y-90000000D03*
%TD*%
D17*
%TO.P,C5,1*%
%TO.N,Net-(D3-A)*%
X92955112Y-112955112D03*
D18*
%TO.P,C5,2*%
%TO.N,GND*%
X92955112Y-110955112D03*
%TD*%
D15*
%TO.P,D6,1,K*%
%TO.N,Net-(D6-K)*%
X101275000Y-134725000D03*
D16*
%TO.P,D6,2,A*%
%TO.N,Net-(D6-A)*%
X101275000Y-137265000D03*
%TD*%
D17*
%TO.P,C4,1*%
%TO.N,Net-(U2-CV)*%
X92955112Y-121044886D03*
D18*
%TO.P,C4,2*%
%TO.N,GND*%
X92955112Y-123044886D03*
%TD*%
D14*
%TO.P,RV_DEC1,*%
%TO.N,*%
X95200000Y-67500000D03*
X104800000Y-67500000D03*
D15*
%TO.P,RV_DEC1,1,1*%
%TO.N,Net-(D5-K)*%
X97500000Y-75000000D03*
D16*
%TO.P,RV_DEC1,2,2*%
%TO.N,Net-(R10-Pad2)*%
X100000000Y-75000000D03*
%TO.P,RV_DEC1,3,3*%
X102500000Y-75000000D03*
%TD*%
D12*
%TO.P,Q2,1,C*%
%TO.N,Net-(Q2-C)*%
X99000000Y-128000000D03*
D13*
%TO.P,Q2,2,B*%
%TO.N,Net-(Q2-B)*%
X99000000Y-129270000D03*
%TO.P,Q2,3,E*%
%TO.N,GND*%
X99000000Y-130540000D03*
%TD*%
D12*
%TO.P,Q1,1,C*%
%TO.N,Net-(Q1-C)*%
X92000000Y-128000000D03*
D13*
%TO.P,Q1,2,B*%
%TO.N,Net-(D1-K)*%
X92000000Y-129270000D03*
%TO.P,Q1,3,E*%
%TO.N,GND*%
X92000000Y-130540000D03*
%TD*%
D10*
%TO.P,J1,S*%
%TO.N,GND*%
X95000000Y-133600000D03*
D11*
%TO.P,J1,T*%
%TO.N,Net-(J1-PadT)*%
X95000000Y-145000000D03*
%TO.P,J1,TN*%
%TO.N,GND*%
X95000000Y-136700000D03*
%TD*%
D14*
%TO.P,RV_ATT1,*%
%TO.N,*%
X95200000Y-52500000D03*
X104800000Y-52500000D03*
D15*
%TO.P,RV_ATT1,1,1*%
%TO.N,Net-(D4-A)*%
X97500000Y-60000000D03*
D16*
%TO.P,RV_ATT1,2,2*%
%TO.N,Net-(R8-Pad2)*%
X100000000Y-60000000D03*
%TO.P,RV_ATT1,3,3*%
X102500000Y-60000000D03*
%TD*%
D19*
%TO.P,J2,1,Pin_1*%
%TO.N,-12V*%
X108275000Y-112925000D03*
D20*
%TO.P,J2,2,Pin_2*%
X105735000Y-112925000D03*
%TO.P,J2,3,Pin_3*%
%TO.N,GND*%
X108275000Y-115465000D03*
%TO.P,J2,4,Pin_4*%
X105735000Y-115465000D03*
%TO.P,J2,5,Pin_5*%
X108275000Y-118005000D03*
%TO.P,J2,6,Pin_6*%
X105735000Y-118005000D03*
%TO.P,J2,7,Pin_7*%
X108275000Y-120545000D03*
%TO.P,J2,8,Pin_8*%
X105735000Y-120545000D03*
%TO.P,J2,9,Pin_9*%
%TO.N,+12V*%
X108275000Y-123085000D03*
%TO.P,J2,10,Pin_10*%
X105735000Y-123085000D03*
%TD*%
D21*
%TO.N,Net-(D2-K)*%
X103000000Y-126000000D03*
X101500000Y-130500000D03*
%TO.N,+12V*%
X97000000Y-108000000D03*
X105000000Y-125500000D03*
X101000000Y-126500000D03*
X96137500Y-117000000D03*
%TO.N,GND*%
X99000000Y-116000000D03*
X100174265Y-118174265D03*
X95000000Y-147000000D03*
%TO.N,-12V*%
X101862500Y-115000000D03*
%TO.N,Net-(D6-A)*%
X94400000Y-111800000D03*
%TD*%
D22*
%TO.N,Net-(D2-K)*%
X101500000Y-127500000D02*
X103000000Y-126000000D01*
X101500000Y-130500000D02*
X101500000Y-127500000D01*
D23*
%TO.N,+12V*%
X96137500Y-117000000D02*
X97500000Y-117000000D01*
X97000000Y-116137500D02*
X96137500Y-117000000D01*
X105735000Y-124765000D02*
X105735000Y-123085000D01*
X104415000Y-123085000D02*
X105735000Y-123085000D01*
X105000000Y-125500000D02*
X105735000Y-124765000D01*
X105735000Y-123085000D02*
X108275000Y-123085000D01*
X98500000Y-118000000D02*
X98500000Y-119500000D01*
X102085000Y-123085000D02*
X105735000Y-123085000D01*
X97000000Y-108000000D02*
X97000000Y-116137500D01*
X101000000Y-126500000D02*
X104415000Y-123085000D01*
X97500000Y-117000000D02*
X98500000Y-118000000D01*
X98500000Y-119500000D02*
X102085000Y-123085000D01*
D22*
%TO.N,-12V*%
X105735000Y-112925000D02*
X108275000Y-112925000D01*
X103937500Y-112925000D02*
X101862500Y-115000000D01*
X105735000Y-112925000D02*
X103937500Y-112925000D01*
%TO.N,Net-(D6-A)*%
X92500000Y-114500000D02*
X90600000Y-116400000D01*
X90600000Y-116400000D02*
X90600000Y-145600000D01*
X90600000Y-145600000D02*
X93300000Y-148300000D01*
X94400000Y-111800000D02*
X94400000Y-114100000D01*
X94400000Y-114100000D02*
X94000000Y-114500000D01*
X94000000Y-114500000D02*
X92500000Y-114500000D01*
X93300000Y-148300000D02*
X105000000Y-148300000D01*
%TO.N,Net-(R7-Pad2)*%
X100000000Y-105000000D02*
X102500000Y-105000000D01*
%TD*%
%TA.AperFunction,Conductor*%
%TO.N,GND*%
G36*
X94112502Y-50520185D02*
G01*
X94158257Y-50572989D01*
X94168201Y-50642147D01*
X94139176Y-50705703D01*
X94120949Y-50722876D01*
X93970656Y-50838199D01*
X93970649Y-50838205D01*
X93798205Y-51010649D01*
X93798199Y-51010656D01*
X93649738Y-51204135D01*
X93649727Y-51204151D01*
X93527791Y-51415348D01*
X93527786Y-51415359D01*
X93434459Y-51640669D01*
X93434456Y-51640679D01*
X93371335Y-51876253D01*
X93371333Y-51876264D01*
X93339500Y-52118048D01*
X93339500Y-52881951D01*
X93366013Y-53083333D01*
X93371334Y-53123744D01*
X93371335Y-53123746D01*
X93434456Y-53359320D01*
X93434459Y-53359330D01*
X93527786Y-53584640D01*
X93527791Y-53584651D01*
X93649727Y-53795848D01*
X93649738Y-53795864D01*
X93798199Y-53989343D01*
X93798205Y-53989350D01*
X93970649Y-54161794D01*
X93970655Y-54161799D01*
X94164144Y-54310268D01*
X94164151Y-54310272D01*
X94375348Y-54432208D01*
X94375353Y-54432210D01*
X94375356Y-54432212D01*
X94600679Y-54525544D01*
X94836256Y-54588666D01*
X95078056Y-54620500D01*
X95078063Y-54620500D01*
X95321937Y-54620500D01*
X95321944Y-54620500D01*
X95563744Y-54588666D01*
X95799321Y-54525544D01*
X96024644Y-54432212D01*
X96235856Y-54310268D01*
X96429345Y-54161799D01*
X96601799Y-53989345D01*
X96750268Y-53795856D01*
X96872212Y-53584644D01*
X96965544Y-53359321D01*
X97028666Y-53123744D01*
X97060500Y-52881944D01*
X97060500Y-52118056D01*
X97028666Y-51876256D01*
X96965544Y-51640679D01*
X96872212Y-51415356D01*
X96872210Y-51415353D01*
X96872208Y-51415348D01*
X96750272Y-51204151D01*
X96750268Y-51204144D01*
X96601799Y-51010655D01*
X96601794Y-51010649D01*
X96429350Y-50838205D01*
X96429343Y-50838199D01*
X96279051Y-50722876D01*
X96237848Y-50666448D01*
X96233693Y-50596702D01*
X96267905Y-50535782D01*
X96329623Y-50503029D01*
X96354537Y-50500500D01*
X103645463Y-50500500D01*
X103712502Y-50520185D01*
X103758257Y-50572989D01*
X103768201Y-50642147D01*
X103739176Y-50705703D01*
X103720949Y-50722876D01*
X103570656Y-50838199D01*
X103570649Y-50838205D01*
X103398205Y-51010649D01*
X103398199Y-51010656D01*
X103249738Y-51204135D01*
X103249727Y-51204151D01*
X103127791Y-51415348D01*
X103127786Y-51415359D01*
X103034459Y-51640669D01*
X103034456Y-51640679D01*
X102971335Y-51876253D01*
X102971333Y-51876264D01*
X102939500Y-52118048D01*
X102939500Y-52881951D01*
X102966013Y-53083333D01*
X102971334Y-53123744D01*
X102971335Y-53123746D01*
X103034456Y-53359320D01*
X103034459Y-53359330D01*
X103127786Y-53584640D01*
X103127791Y-53584651D01*
X103249727Y-53795848D01*
X103249738Y-53795864D01*
X103398199Y-53989343D01*
X103398205Y-53989350D01*
X103570649Y-54161794D01*
X103570655Y-54161799D01*
X103764144Y-54310268D01*
X103764151Y-54310272D01*
X103975348Y-54432208D01*
X103975353Y-54432210D01*
X103975356Y-54432212D01*
X104200679Y-54525544D01*
X104436256Y-54588666D01*
X104678056Y-54620500D01*
X104678063Y-54620500D01*
X104921937Y-54620500D01*
X104921944Y-54620500D01*
X105163744Y-54588666D01*
X105399321Y-54525544D01*
X105624644Y-54432212D01*
X105835856Y-54310268D01*
X106029345Y-54161799D01*
X106201799Y-53989345D01*
X106350268Y-53795856D01*
X106472212Y-53584644D01*
X106565544Y-53359321D01*
X106628666Y-53123744D01*
X106660500Y-52881944D01*
X106660500Y-52118056D01*
X106628666Y-51876256D01*
X106565544Y-51640679D01*
X106472212Y-51415356D01*
X106472210Y-51415353D01*
X106472208Y-51415348D01*
X106350272Y-51204151D01*
X106350268Y-51204144D01*
X106201799Y-51010655D01*
X106201794Y-51010649D01*
X106029350Y-50838205D01*
X106029343Y-50838199D01*
X105879051Y-50722876D01*
X105837848Y-50666448D01*
X105833693Y-50596702D01*
X105867905Y-50535782D01*
X105929623Y-50503029D01*
X105954537Y-50500500D01*
X109375500Y-50500500D01*
X109442539Y-50520185D01*
X109488294Y-50572989D01*
X109499500Y-50624500D01*
X109499500Y-111501906D01*
X109479815Y-111568945D01*
X109427011Y-111614700D01*
X109357853Y-111624644D01*
X109332167Y-111618088D01*
X109232482Y-111580908D01*
X109232483Y-111580908D01*
X109172883Y-111574501D01*
X109172881Y-111574500D01*
X109172873Y-111574500D01*
X109172864Y-111574500D01*
X107377129Y-111574500D01*
X107377123Y-111574501D01*
X107317516Y-111580908D01*
X107182671Y-111631202D01*
X107182664Y-111631206D01*
X107067455Y-111717452D01*
X107067452Y-111717455D01*
X106981206Y-111832664D01*
X106981203Y-111832669D01*
X106932189Y-111964083D01*
X106890317Y-112020016D01*
X106824853Y-112044433D01*
X106756580Y-112029581D01*
X106728326Y-112008430D01*
X106606402Y-111886506D01*
X106606395Y-111886501D01*
X106412834Y-111750967D01*
X106412830Y-111750965D01*
X106389532Y-111740101D01*
X106198663Y-111651097D01*
X106198659Y-111651096D01*
X106198655Y-111651094D01*
X105970413Y-111589938D01*
X105970403Y-111589936D01*
X105735001Y-111569341D01*
X105734999Y-111569341D01*
X105499596Y-111589936D01*
X105499586Y-111589938D01*
X105271344Y-111651094D01*
X105271335Y-111651098D01*
X105057171Y-111750964D01*
X105057169Y-111750965D01*
X104863597Y-111886505D01*
X104696506Y-112053596D01*
X104560965Y-112247170D01*
X104560962Y-112247175D01*
X104558289Y-112252909D01*
X104512115Y-112305346D01*
X104445909Y-112324500D01*
X103858443Y-112324500D01*
X103705713Y-112365423D01*
X103678602Y-112381077D01*
X103678601Y-112381077D01*
X103568787Y-112444477D01*
X103568782Y-112444481D01*
X103456978Y-112556286D01*
X101843965Y-114169298D01*
X101782642Y-114202783D01*
X101770168Y-114204837D01*
X101683250Y-114214630D01*
X101512978Y-114274210D01*
X101360237Y-114370184D01*
X101232684Y-114497737D01*
X101136711Y-114650476D01*
X101077131Y-114820745D01*
X101077130Y-114820750D01*
X101056935Y-114999996D01*
X101056935Y-115000003D01*
X101077130Y-115179249D01*
X101077131Y-115179254D01*
X101136711Y-115349523D01*
X101213711Y-115472067D01*
X101232684Y-115502262D01*
X101360238Y-115629816D01*
X101512978Y-115725789D01*
X101654384Y-115775269D01*
X101683245Y-115785368D01*
X101683250Y-115785369D01*
X101862496Y-115805565D01*
X101862500Y-115805565D01*
X101862504Y-115805565D01*
X102041749Y-115785369D01*
X102041752Y-115785368D01*
X102041755Y-115785368D01*
X102212022Y-115725789D01*
X102364762Y-115629816D01*
X102492316Y-115502262D01*
X102588289Y-115349522D01*
X102647868Y-115179255D01*
X102657661Y-115092329D01*
X102684726Y-115027918D01*
X102693190Y-115018543D01*
X104149916Y-113561819D01*
X104211239Y-113528334D01*
X104237597Y-113525500D01*
X104445909Y-113525500D01*
X104512948Y-113545185D01*
X104558292Y-113597097D01*
X104560965Y-113602830D01*
X104560966Y-113602831D01*
X104696501Y-113796395D01*
X104696506Y-113796402D01*
X104863597Y-113963493D01*
X104863603Y-113963498D01*
X105049594Y-114093730D01*
X105093219Y-114148307D01*
X105100413Y-114217805D01*
X105068890Y-114280160D01*
X105049595Y-114296880D01*
X104863922Y-114426890D01*
X104863920Y-114426891D01*
X104696891Y-114593920D01*
X104696886Y-114593926D01*
X104561400Y-114787420D01*
X104561399Y-114787422D01*
X104461570Y-115001507D01*
X104461567Y-115001513D01*
X104404364Y-115214999D01*
X104404364Y-115215000D01*
X105301988Y-115215000D01*
X105269075Y-115272007D01*
X105235000Y-115399174D01*
X105235000Y-115530826D01*
X105269075Y-115657993D01*
X105301988Y-115715000D01*
X104404364Y-115715000D01*
X104461567Y-115928486D01*
X104461570Y-115928492D01*
X104561399Y-116142578D01*
X104696894Y-116336082D01*
X104863917Y-116503105D01*
X105050031Y-116633425D01*
X105093656Y-116688003D01*
X105100848Y-116757501D01*
X105069326Y-116819856D01*
X105050031Y-116836575D01*
X104863922Y-116966890D01*
X104863920Y-116966891D01*
X104696891Y-117133920D01*
X104696886Y-117133926D01*
X104561400Y-117327420D01*
X104561399Y-117327422D01*
X104461570Y-117541507D01*
X104461567Y-117541513D01*
X104404364Y-117754999D01*
X104404364Y-117755000D01*
X105301988Y-117755000D01*
X105269075Y-117812007D01*
X105235000Y-117939174D01*
X105235000Y-118070826D01*
X105269075Y-118197993D01*
X105301988Y-118255000D01*
X104404364Y-118255000D01*
X104461567Y-118468486D01*
X104461570Y-118468492D01*
X104561399Y-118682578D01*
X104696894Y-118876082D01*
X104863917Y-119043105D01*
X105050031Y-119173425D01*
X105093656Y-119228003D01*
X105100848Y-119297501D01*
X105069326Y-119359856D01*
X105050031Y-119376575D01*
X104863922Y-119506890D01*
X104863920Y-119506891D01*
X104696891Y-119673920D01*
X104696886Y-119673926D01*
X104561400Y-119867420D01*
X104561399Y-119867422D01*
X104461570Y-120081507D01*
X104461567Y-120081513D01*
X104404364Y-120294999D01*
X104404364Y-120295000D01*
X105301988Y-120295000D01*
X105269075Y-120352007D01*
X105235000Y-120479174D01*
X105235000Y-120610826D01*
X105269075Y-120737993D01*
X105301988Y-120795000D01*
X104404364Y-120795000D01*
X104461567Y-121008486D01*
X104461570Y-121008492D01*
X104561399Y-121222578D01*
X104696894Y-121416082D01*
X104863917Y-121583105D01*
X105049595Y-121713119D01*
X105093219Y-121767696D01*
X105100412Y-121837195D01*
X105068890Y-121899549D01*
X105049595Y-121916269D01*
X104863594Y-122046508D01*
X104696506Y-122213596D01*
X104648874Y-122281623D01*
X104594297Y-122325248D01*
X104547299Y-122334500D01*
X102447229Y-122334500D01*
X102380190Y-122314815D01*
X102359548Y-122298181D01*
X99286819Y-119225451D01*
X99253334Y-119164128D01*
X99250500Y-119137770D01*
X99250500Y-117926081D01*
X99244763Y-117897242D01*
X99244763Y-117897240D01*
X99227809Y-117812007D01*
X99221659Y-117781088D01*
X99167408Y-117650117D01*
X99165764Y-117645522D01*
X99082954Y-117521588D01*
X99082953Y-117521587D01*
X99082951Y-117521584D01*
X98978416Y-117417049D01*
X98740616Y-117179249D01*
X97978421Y-116417052D01*
X97978414Y-116417046D01*
X97904729Y-116367812D01*
X97904728Y-116367812D01*
X97855501Y-116334919D01*
X97855491Y-116334914D01*
X97827047Y-116323132D01*
X97772643Y-116279290D01*
X97750579Y-116212996D01*
X97750500Y-116208571D01*
X97750500Y-108299972D01*
X97757458Y-108259017D01*
X97785368Y-108179254D01*
X97785369Y-108179249D01*
X97805565Y-108000003D01*
X97805565Y-107999996D01*
X97785369Y-107820750D01*
X97785368Y-107820745D01*
X97725788Y-107650476D01*
X97629815Y-107497737D01*
X97502262Y-107370184D01*
X97349523Y-107274211D01*
X97179254Y-107214631D01*
X97179249Y-107214630D01*
X97000004Y-107194435D01*
X96999996Y-107194435D01*
X96820750Y-107214630D01*
X96820745Y-107214631D01*
X96650476Y-107274211D01*
X96497737Y-107370184D01*
X96370184Y-107497737D01*
X96274211Y-107650476D01*
X96214631Y-107820745D01*
X96214630Y-107820750D01*
X96194435Y-107999996D01*
X96194435Y-108000003D01*
X96214630Y-108179249D01*
X96214631Y-108179254D01*
X96242542Y-108259017D01*
X96249500Y-108299972D01*
X96249500Y-115775269D01*
X96229815Y-115842308D01*
X96213181Y-115862950D01*
X95829437Y-116246693D01*
X95793373Y-116269370D01*
X95794250Y-116271191D01*
X95787975Y-116274212D01*
X95635237Y-116370184D01*
X95507684Y-116497737D01*
X95411711Y-116650476D01*
X95352131Y-116820745D01*
X95352130Y-116820750D01*
X95331935Y-116999996D01*
X95331935Y-117000003D01*
X95352130Y-117179249D01*
X95352131Y-117179254D01*
X95411711Y-117349523D01*
X95507684Y-117502262D01*
X95635238Y-117629816D01*
X95787978Y-117725789D01*
X95958245Y-117785368D01*
X95958250Y-117785369D01*
X96137496Y-117805565D01*
X96137500Y-117805565D01*
X96137504Y-117805565D01*
X96316749Y-117785369D01*
X96316752Y-117785368D01*
X96316755Y-117785368D01*
X96396517Y-117757457D01*
X96437472Y-117750500D01*
X97137770Y-117750500D01*
X97204809Y-117770185D01*
X97225451Y-117786819D01*
X97713181Y-118274548D01*
X97746666Y-118335871D01*
X97749500Y-118362229D01*
X97749500Y-119573918D01*
X97749500Y-119573920D01*
X97749499Y-119573920D01*
X97778340Y-119718907D01*
X97778343Y-119718917D01*
X97834914Y-119855492D01*
X97834915Y-119855494D01*
X97834916Y-119855495D01*
X97850839Y-119879326D01*
X97856193Y-119887338D01*
X97856194Y-119887341D01*
X97917046Y-119978414D01*
X97917052Y-119978421D01*
X101502049Y-123563416D01*
X101606584Y-123667951D01*
X101606587Y-123667953D01*
X101606588Y-123667954D01*
X101729494Y-123750077D01*
X101729496Y-123750078D01*
X101729505Y-123750084D01*
X101760275Y-123762829D01*
X101760276Y-123762830D01*
X101760277Y-123762830D01*
X101866088Y-123806659D01*
X101982241Y-123829763D01*
X102001468Y-123833587D01*
X102011081Y-123835500D01*
X102011082Y-123835500D01*
X102011083Y-123835500D01*
X102158918Y-123835500D01*
X102303771Y-123835500D01*
X102370810Y-123855185D01*
X102416565Y-123907989D01*
X102426509Y-123977147D01*
X102397484Y-124040703D01*
X102391454Y-124047177D01*
X102090978Y-124347653D01*
X100691937Y-125746693D01*
X100655873Y-125769370D01*
X100656750Y-125771191D01*
X100650475Y-125774212D01*
X100497737Y-125870184D01*
X100370184Y-125997737D01*
X100274211Y-126150476D01*
X100214631Y-126320745D01*
X100214630Y-126320750D01*
X100194435Y-126499996D01*
X100194435Y-126500003D01*
X100214630Y-126679249D01*
X100214631Y-126679254D01*
X100274211Y-126849523D01*
X100356766Y-126980908D01*
X100370184Y-127002262D01*
X100497738Y-127129816D01*
X100650478Y-127225789D01*
X100817951Y-127284390D01*
X100874727Y-127325112D01*
X100900475Y-127390064D01*
X100899937Y-127417609D01*
X100899499Y-127420937D01*
X100899499Y-127589046D01*
X100899500Y-127589059D01*
X100899500Y-129917587D01*
X100879815Y-129984626D01*
X100872450Y-129994896D01*
X100870186Y-129997734D01*
X100774211Y-130150476D01*
X100714631Y-130320745D01*
X100714630Y-130320750D01*
X100694435Y-130499996D01*
X100694435Y-130500003D01*
X100714630Y-130679249D01*
X100714631Y-130679254D01*
X100774211Y-130849523D01*
X100870184Y-131002262D01*
X100997738Y-131129816D01*
X101150478Y-131225789D01*
X101320745Y-131285368D01*
X101320750Y-131285369D01*
X101499996Y-131305565D01*
X101500000Y-131305565D01*
X101500004Y-131305565D01*
X101679249Y-131285369D01*
X101679252Y-131285368D01*
X101679255Y-131285368D01*
X101849522Y-131225789D01*
X102002262Y-131129816D01*
X102129816Y-131002262D01*
X102225789Y-130849522D01*
X102285368Y-130679255D01*
X102305565Y-130500000D01*
X102304509Y-130490630D01*
X102285369Y-130320750D01*
X102285368Y-130320745D01*
X102274610Y-130290000D01*
X102225789Y-130150478D01*
X102129816Y-129997738D01*
X102129814Y-129997736D01*
X102129813Y-129997734D01*
X102127550Y-129994896D01*
X102126659Y-129992715D01*
X102126111Y-129991842D01*
X102126264Y-129991745D01*
X102101144Y-129930209D01*
X102100500Y-129917587D01*
X102100500Y-129371007D01*
X105749500Y-129371007D01*
X105788907Y-129569119D01*
X105788909Y-129569127D01*
X105866212Y-129755754D01*
X105920204Y-129836558D01*
X105941081Y-129903235D01*
X105922596Y-129970615D01*
X105920204Y-129974337D01*
X105866655Y-130054479D01*
X105866654Y-130054481D01*
X105789390Y-130241016D01*
X105789387Y-130241025D01*
X105779647Y-130290000D01*
X106634134Y-130290000D01*
X106658326Y-130292383D01*
X106661123Y-130292939D01*
X106673995Y-130295499D01*
X106673996Y-130295500D01*
X106673997Y-130295500D01*
X106714170Y-130295500D01*
X106699925Y-130309745D01*
X106650556Y-130395255D01*
X106625000Y-130490630D01*
X106625000Y-130589370D01*
X106650556Y-130684745D01*
X106699925Y-130770255D01*
X106719670Y-130790000D01*
X105779647Y-130790000D01*
X105789387Y-130838974D01*
X105789390Y-130838983D01*
X105866652Y-131025513D01*
X105866659Y-131025526D01*
X105978829Y-131193399D01*
X105978832Y-131193403D01*
X106121596Y-131336167D01*
X106121600Y-131336170D01*
X106289473Y-131448340D01*
X106289486Y-131448347D01*
X106476016Y-131525609D01*
X106476025Y-131525612D01*
X106674041Y-131564999D01*
X106674045Y-131565000D01*
X106750000Y-131565000D01*
X106750000Y-130820330D01*
X106769745Y-130840075D01*
X106855255Y-130889444D01*
X106950630Y-130915000D01*
X107049370Y-130915000D01*
X107144745Y-130889444D01*
X107230255Y-130840075D01*
X107250000Y-130820330D01*
X107250000Y-131565000D01*
X107325955Y-131565000D01*
X107325958Y-131564999D01*
X107523974Y-131525612D01*
X107523983Y-131525609D01*
X107710513Y-131448347D01*
X107710526Y-131448340D01*
X107878399Y-131336170D01*
X107878403Y-131336167D01*
X108021167Y-131193403D01*
X108021170Y-131193399D01*
X108133340Y-131025526D01*
X108133347Y-131025513D01*
X108210609Y-130838983D01*
X108210612Y-130838974D01*
X108220353Y-130790000D01*
X107280330Y-130790000D01*
X107300075Y-130770255D01*
X107349444Y-130684745D01*
X107375000Y-130589370D01*
X107375000Y-130490630D01*
X107349444Y-130395255D01*
X107300075Y-130309745D01*
X107285830Y-130295500D01*
X107326004Y-130295500D01*
X107326004Y-130295499D01*
X107339473Y-130292820D01*
X107341674Y-130292383D01*
X107365866Y-130290000D01*
X108220353Y-130290000D01*
X108210612Y-130241025D01*
X108210609Y-130241016D01*
X108133347Y-130054486D01*
X108133343Y-130054479D01*
X108079795Y-129974340D01*
X108058917Y-129907662D01*
X108077401Y-129840282D01*
X108079733Y-129836652D01*
X108133786Y-129755756D01*
X108211091Y-129569127D01*
X108250500Y-129371003D01*
X108250500Y-129168997D01*
X108211091Y-128970873D01*
X108177673Y-128890198D01*
X108170205Y-128820730D01*
X108189964Y-128775340D01*
X108189547Y-128775112D01*
X108192095Y-128770444D01*
X108192972Y-128768431D01*
X108193796Y-128767331D01*
X108244091Y-128632483D01*
X108250500Y-128572873D01*
X108250499Y-127427128D01*
X108244091Y-127367517D01*
X108213451Y-127285368D01*
X108193797Y-127232671D01*
X108193793Y-127232664D01*
X108107547Y-127117455D01*
X108107544Y-127117452D01*
X107992335Y-127031206D01*
X107992328Y-127031202D01*
X107857482Y-126980908D01*
X107857483Y-126980908D01*
X107797883Y-126974501D01*
X107797881Y-126974500D01*
X107797873Y-126974500D01*
X107797864Y-126974500D01*
X106202129Y-126974500D01*
X106202123Y-126974501D01*
X106142516Y-126980908D01*
X106007671Y-127031202D01*
X106007664Y-127031206D01*
X105892455Y-127117452D01*
X105892452Y-127117455D01*
X105806206Y-127232664D01*
X105806202Y-127232671D01*
X105755908Y-127367517D01*
X105750165Y-127420943D01*
X105749501Y-127427123D01*
X105749500Y-127427135D01*
X105749500Y-128572870D01*
X105749501Y-128572876D01*
X105755908Y-128632483D01*
X105806202Y-128767328D01*
X105806203Y-128767330D01*
X105806204Y-128767331D01*
X105807028Y-128768432D01*
X105807509Y-128769721D01*
X105810454Y-128775114D01*
X105809678Y-128775537D01*
X105831448Y-128833895D01*
X105822325Y-128890198D01*
X105788910Y-128970868D01*
X105788907Y-128970880D01*
X105749500Y-129168992D01*
X105749500Y-129371007D01*
X102100500Y-129371007D01*
X102100500Y-127800096D01*
X102120185Y-127733057D01*
X102136815Y-127712419D01*
X103018535Y-126830698D01*
X103079856Y-126797215D01*
X103092311Y-126795163D01*
X103179255Y-126785368D01*
X103349522Y-126725789D01*
X103502262Y-126629816D01*
X103629816Y-126502262D01*
X103725789Y-126349522D01*
X103785368Y-126179255D01*
X103785369Y-126179249D01*
X103805565Y-126000003D01*
X103805565Y-125999996D01*
X103785369Y-125820750D01*
X103785368Y-125820745D01*
X103767391Y-125769370D01*
X103725789Y-125650478D01*
X103629816Y-125497738D01*
X103502262Y-125370184D01*
X103502260Y-125370182D01*
X103442878Y-125332870D01*
X103396588Y-125280536D01*
X103385940Y-125211482D01*
X103414315Y-125147634D01*
X103421159Y-125140207D01*
X104563055Y-123998310D01*
X104624376Y-123964827D01*
X104694068Y-123969811D01*
X104738415Y-123998312D01*
X104863595Y-124123492D01*
X104863598Y-124123494D01*
X104863599Y-124123495D01*
X104931623Y-124171125D01*
X104975248Y-124225701D01*
X104984500Y-124272700D01*
X104984500Y-124402769D01*
X104964815Y-124469808D01*
X104948181Y-124490450D01*
X104691937Y-124746693D01*
X104655876Y-124769362D01*
X104656756Y-124771188D01*
X104650478Y-124774211D01*
X104497737Y-124870184D01*
X104370184Y-124997737D01*
X104274211Y-125150476D01*
X104214631Y-125320745D01*
X104214630Y-125320750D01*
X104194435Y-125499996D01*
X104194435Y-125500003D01*
X104214630Y-125679249D01*
X104214631Y-125679254D01*
X104274211Y-125849523D01*
X104367341Y-125997737D01*
X104370184Y-126002262D01*
X104497738Y-126129816D01*
X104650478Y-126225789D01*
X104820745Y-126285368D01*
X104820750Y-126285369D01*
X104999996Y-126305565D01*
X105000000Y-126305565D01*
X105000004Y-126305565D01*
X105179249Y-126285369D01*
X105179252Y-126285368D01*
X105179255Y-126285368D01*
X105349522Y-126225789D01*
X105502262Y-126129816D01*
X105629816Y-126002262D01*
X105725789Y-125849522D01*
X105725790Y-125849518D01*
X105728811Y-125843246D01*
X105730655Y-125844134D01*
X105753305Y-125808061D01*
X106317952Y-125243416D01*
X106339289Y-125211482D01*
X106384040Y-125144508D01*
X106393216Y-125130772D01*
X106400084Y-125120495D01*
X106456658Y-124983913D01*
X106485500Y-124838918D01*
X106485500Y-124272700D01*
X106505185Y-124205661D01*
X106538375Y-124171126D01*
X106606401Y-124123495D01*
X106773495Y-123956401D01*
X106821127Y-123888376D01*
X106875704Y-123844751D01*
X106922701Y-123835500D01*
X107087299Y-123835500D01*
X107154338Y-123855185D01*
X107188873Y-123888376D01*
X107236505Y-123956401D01*
X107403599Y-124123495D01*
X107477187Y-124175022D01*
X107597165Y-124259032D01*
X107597167Y-124259033D01*
X107597170Y-124259035D01*
X107811337Y-124358903D01*
X108039592Y-124420063D01*
X108227918Y-124436539D01*
X108274999Y-124440659D01*
X108275000Y-124440659D01*
X108275001Y-124440659D01*
X108314234Y-124437226D01*
X108510408Y-124420063D01*
X108738663Y-124358903D01*
X108952830Y-124259035D01*
X109146401Y-124123495D01*
X109287819Y-123982077D01*
X109349142Y-123948592D01*
X109418834Y-123953576D01*
X109474767Y-123995448D01*
X109499184Y-124060912D01*
X109499500Y-124069758D01*
X109499500Y-149375500D01*
X109479815Y-149442539D01*
X109427011Y-149488294D01*
X109375500Y-149499500D01*
X106303276Y-149499500D01*
X106236237Y-149479815D01*
X106190482Y-149427011D01*
X106180538Y-149357853D01*
X106208986Y-149294969D01*
X106270430Y-149223026D01*
X106270433Y-149223023D01*
X106399184Y-149012920D01*
X106493483Y-148785262D01*
X106551007Y-148545655D01*
X106570341Y-148300000D01*
X106551007Y-148054345D01*
X106493483Y-147814738D01*
X106399184Y-147587080D01*
X106399184Y-147587079D01*
X106270436Y-147376981D01*
X106270435Y-147376979D01*
X106234280Y-147334648D01*
X106110399Y-147189601D01*
X105986516Y-147083795D01*
X105923020Y-147029564D01*
X105923018Y-147029563D01*
X105712920Y-146900815D01*
X105485264Y-146806517D01*
X105245658Y-146748993D01*
X105000000Y-146729659D01*
X104754341Y-146748993D01*
X104514735Y-146806517D01*
X104287079Y-146900815D01*
X104076981Y-147029563D01*
X104076979Y-147029564D01*
X103889601Y-147189601D01*
X103729564Y-147376979D01*
X103729563Y-147376981D01*
X103600817Y-147587076D01*
X103593647Y-147604387D01*
X103585956Y-147622953D01*
X103542117Y-147677355D01*
X103475823Y-147699421D01*
X103471396Y-147699500D01*
X93600098Y-147699500D01*
X93533059Y-147679815D01*
X93512417Y-147663181D01*
X91236819Y-145387583D01*
X91203334Y-145326260D01*
X91200500Y-145299902D01*
X91200500Y-145000000D01*
X93429659Y-145000000D01*
X93448993Y-145245658D01*
X93506517Y-145485264D01*
X93600815Y-145712920D01*
X93729563Y-145923018D01*
X93729564Y-145923020D01*
X93729567Y-145923023D01*
X93889601Y-146110399D01*
X94034648Y-146234280D01*
X94076979Y-146270435D01*
X94076981Y-146270436D01*
X94287079Y-146399184D01*
X94514735Y-146493482D01*
X94514736Y-146493482D01*
X94514738Y-146493483D01*
X94754345Y-146551007D01*
X95000000Y-146570341D01*
X95245655Y-146551007D01*
X95485262Y-146493483D01*
X95712920Y-146399184D01*
X95923023Y-146270433D01*
X96110399Y-146110399D01*
X96270433Y-145923023D01*
X96399184Y-145712920D01*
X96493483Y-145485262D01*
X96551007Y-145245655D01*
X96570341Y-145000000D01*
X96551007Y-144754345D01*
X96493483Y-144514738D01*
X96468896Y-144455380D01*
X96399184Y-144287079D01*
X96270436Y-144076981D01*
X96270435Y-144076979D01*
X96148388Y-143934081D01*
X96110399Y-143889601D01*
X95986516Y-143783795D01*
X95923020Y-143729564D01*
X95923018Y-143729563D01*
X95712920Y-143600815D01*
X95485264Y-143506517D01*
X95245658Y-143448993D01*
X95000000Y-143429659D01*
X94754341Y-143448993D01*
X94514735Y-143506517D01*
X94287079Y-143600815D01*
X94076981Y-143729563D01*
X94076979Y-143729564D01*
X93889601Y-143889601D01*
X93729564Y-144076979D01*
X93729563Y-144076981D01*
X93600815Y-144287079D01*
X93506517Y-144514735D01*
X93448993Y-144754341D01*
X93429659Y-145000000D01*
X91200500Y-145000000D01*
X91200500Y-143343225D01*
X103495307Y-143343225D01*
X103509507Y-143589474D01*
X103509507Y-143589479D01*
X103563731Y-143830092D01*
X103656533Y-144058636D01*
X103785412Y-144268947D01*
X103860393Y-144355507D01*
X103946908Y-144455382D01*
X104136687Y-144612939D01*
X104136690Y-144612941D01*
X104136696Y-144612945D01*
X104349650Y-144737385D01*
X104580072Y-144825375D01*
X104580075Y-144825375D01*
X104580079Y-144825377D01*
X104821785Y-144874553D01*
X105068278Y-144883592D01*
X105312936Y-144852250D01*
X105549191Y-144781370D01*
X105770697Y-144672856D01*
X105971505Y-144529621D01*
X106146223Y-144355512D01*
X106290158Y-144155205D01*
X106399445Y-143934079D01*
X106471149Y-143698074D01*
X106503344Y-143453526D01*
X106505141Y-143380000D01*
X106484930Y-143134171D01*
X106424841Y-142894945D01*
X106326486Y-142668744D01*
X106192508Y-142461645D01*
X106026504Y-142279210D01*
X105832932Y-142126336D01*
X105616991Y-142007130D01*
X105616982Y-142007126D01*
X105384491Y-141924796D01*
X105384471Y-141924791D01*
X105141644Y-141881538D01*
X105141652Y-141881538D01*
X104900496Y-141878592D01*
X104895007Y-141878525D01*
X104895006Y-141878525D01*
X104895005Y-141878525D01*
X104895004Y-141878525D01*
X104651190Y-141915834D01*
X104651180Y-141915837D01*
X104416732Y-141992466D01*
X104197951Y-142106356D01*
X104197948Y-142106358D01*
X104000698Y-142254456D01*
X103830289Y-142432779D01*
X103830279Y-142432792D01*
X103691287Y-142636547D01*
X103691285Y-142636552D01*
X103587439Y-142860268D01*
X103587436Y-142860276D01*
X103521520Y-143097960D01*
X103521519Y-143097967D01*
X103495307Y-143343225D01*
X91200500Y-143343225D01*
X91200500Y-140043225D01*
X93495307Y-140043225D01*
X93509507Y-140289474D01*
X93509507Y-140289479D01*
X93563731Y-140530092D01*
X93656533Y-140758636D01*
X93785412Y-140968947D01*
X93860393Y-141055507D01*
X93946908Y-141155382D01*
X94136687Y-141312939D01*
X94136690Y-141312941D01*
X94136696Y-141312945D01*
X94349650Y-141437385D01*
X94580072Y-141525375D01*
X94580075Y-141525375D01*
X94580079Y-141525377D01*
X94821785Y-141574553D01*
X95068278Y-141583592D01*
X95312936Y-141552250D01*
X95549191Y-141481370D01*
X95770697Y-141372856D01*
X95971505Y-141229621D01*
X96146223Y-141055512D01*
X96290158Y-140855205D01*
X96399445Y-140634079D01*
X96471149Y-140398074D01*
X96503344Y-140153526D01*
X96505141Y-140080000D01*
X96498564Y-140000000D01*
X103429659Y-140000000D01*
X103448993Y-140245658D01*
X103506517Y-140485264D01*
X103600815Y-140712920D01*
X103729563Y-140923018D01*
X103729564Y-140923020D01*
X103729567Y-140923023D01*
X103889601Y-141110399D01*
X104029190Y-141229619D01*
X104076979Y-141270435D01*
X104076981Y-141270436D01*
X104287079Y-141399184D01*
X104514735Y-141493482D01*
X104514736Y-141493482D01*
X104514738Y-141493483D01*
X104754345Y-141551007D01*
X105000000Y-141570341D01*
X105245655Y-141551007D01*
X105485262Y-141493483D01*
X105712920Y-141399184D01*
X105923023Y-141270433D01*
X106110399Y-141110399D01*
X106270433Y-140923023D01*
X106399184Y-140712920D01*
X106493483Y-140485262D01*
X106551007Y-140245655D01*
X106570341Y-140000000D01*
X106551007Y-139754345D01*
X106493483Y-139514738D01*
X106493482Y-139514735D01*
X106399184Y-139287079D01*
X106270436Y-139076981D01*
X106270435Y-139076979D01*
X106186932Y-138979210D01*
X106110399Y-138889601D01*
X105986516Y-138783795D01*
X105923020Y-138729564D01*
X105923018Y-138729563D01*
X105712919Y-138600815D01*
X105712920Y-138600815D01*
X105598838Y-138553561D01*
X105544435Y-138509720D01*
X105522370Y-138443426D01*
X105539649Y-138375726D01*
X105590787Y-138328116D01*
X105646291Y-138315000D01*
X106012828Y-138315000D01*
X106012844Y-138314999D01*
X106072372Y-138308598D01*
X106072379Y-138308596D01*
X106207086Y-138258354D01*
X106207093Y-138258350D01*
X106322187Y-138172190D01*
X106322190Y-138172187D01*
X106408350Y-138057093D01*
X106408354Y-138057086D01*
X106458596Y-137922379D01*
X106458598Y-137922372D01*
X106464999Y-137862844D01*
X106465000Y-137862827D01*
X106465000Y-137150000D01*
X105556706Y-137150000D01*
X105586558Y-137077931D01*
X105610000Y-136960080D01*
X105610000Y-136839920D01*
X105586558Y-136722069D01*
X105556706Y-136650000D01*
X106465000Y-136650000D01*
X106465000Y-135937172D01*
X106464999Y-135937155D01*
X106458598Y-135877627D01*
X106458596Y-135877620D01*
X106408354Y-135742913D01*
X106408350Y-135742906D01*
X106322190Y-135627812D01*
X106322187Y-135627809D01*
X106207093Y-135541649D01*
X106207086Y-135541645D01*
X106072379Y-135491403D01*
X106072372Y-135491401D01*
X106012844Y-135485000D01*
X105250000Y-135485000D01*
X105250000Y-136343293D01*
X105177931Y-136313442D01*
X105060080Y-136290000D01*
X104939920Y-136290000D01*
X104822069Y-136313442D01*
X104750000Y-136343293D01*
X104750000Y-135485000D01*
X103987155Y-135485000D01*
X103927627Y-135491401D01*
X103927620Y-135491403D01*
X103792913Y-135541645D01*
X103792906Y-135541649D01*
X103677812Y-135627809D01*
X103677809Y-135627812D01*
X103591649Y-135742906D01*
X103591645Y-135742913D01*
X103541403Y-135877620D01*
X103541401Y-135877627D01*
X103535000Y-135937155D01*
X103535000Y-136650000D01*
X104443294Y-136650000D01*
X104413442Y-136722069D01*
X104390000Y-136839920D01*
X104390000Y-136960080D01*
X104413442Y-137077931D01*
X104443294Y-137150000D01*
X103535000Y-137150000D01*
X103535000Y-137862844D01*
X103541401Y-137922372D01*
X103541403Y-137922379D01*
X103591645Y-138057086D01*
X103591649Y-138057093D01*
X103677809Y-138172187D01*
X103677812Y-138172190D01*
X103792906Y-138258350D01*
X103792913Y-138258354D01*
X103927620Y-138308596D01*
X103927627Y-138308598D01*
X103987155Y-138314999D01*
X103987172Y-138315000D01*
X104353709Y-138315000D01*
X104420748Y-138334685D01*
X104466503Y-138387489D01*
X104476447Y-138456647D01*
X104447422Y-138520203D01*
X104401162Y-138553561D01*
X104287079Y-138600815D01*
X104076981Y-138729563D01*
X104076979Y-138729564D01*
X103889601Y-138889601D01*
X103729564Y-139076979D01*
X103729563Y-139076981D01*
X103600815Y-139287079D01*
X103506517Y-139514735D01*
X103448993Y-139754341D01*
X103429659Y-140000000D01*
X96498564Y-140000000D01*
X96484930Y-139834171D01*
X96424841Y-139594945D01*
X96326486Y-139368744D01*
X96192508Y-139161645D01*
X96026504Y-138979210D01*
X95956276Y-138923747D01*
X95832935Y-138826338D01*
X95832932Y-138826336D01*
X95616991Y-138707130D01*
X95616982Y-138707126D01*
X95384491Y-138624796D01*
X95384471Y-138624791D01*
X95141644Y-138581538D01*
X95141652Y-138581538D01*
X94900496Y-138578592D01*
X94895007Y-138578525D01*
X94895006Y-138578525D01*
X94895005Y-138578525D01*
X94895004Y-138578525D01*
X94651190Y-138615834D01*
X94651180Y-138615837D01*
X94416732Y-138692466D01*
X94197951Y-138806356D01*
X94197948Y-138806358D01*
X94000698Y-138954456D01*
X93830289Y-139132779D01*
X93830279Y-139132792D01*
X93691287Y-139336547D01*
X93691285Y-139336552D01*
X93587439Y-139560268D01*
X93587436Y-139560276D01*
X93521520Y-139797960D01*
X93521519Y-139797967D01*
X93495307Y-140043225D01*
X91200500Y-140043225D01*
X91200500Y-136700000D01*
X93430161Y-136700000D01*
X93449487Y-136945574D01*
X93506992Y-137185102D01*
X93601262Y-137412692D01*
X93727597Y-137618849D01*
X94353036Y-136993410D01*
X94370807Y-137036311D01*
X94448507Y-137152598D01*
X94547402Y-137251493D01*
X94663689Y-137329193D01*
X94706589Y-137346962D01*
X94081149Y-137972401D01*
X94081149Y-137972402D01*
X94287307Y-138098737D01*
X94514897Y-138193007D01*
X94754426Y-138250512D01*
X94754425Y-138250512D01*
X95000000Y-138269838D01*
X95245574Y-138250512D01*
X95485102Y-138193007D01*
X95712689Y-138098738D01*
X95918849Y-137972401D01*
X95293410Y-137346963D01*
X95336311Y-137329193D01*
X95452598Y-137251493D01*
X95551493Y-137152598D01*
X95629193Y-137036311D01*
X95646962Y-136993410D01*
X96272401Y-137618849D01*
X96398738Y-137412689D01*
X96459910Y-137265006D01*
X99869700Y-137265006D01*
X99888864Y-137496297D01*
X99888866Y-137496308D01*
X99945842Y-137721300D01*
X100039075Y-137933848D01*
X100166016Y-138128147D01*
X100166019Y-138128151D01*
X100166021Y-138128153D01*
X100323216Y-138298913D01*
X100323219Y-138298915D01*
X100323222Y-138298918D01*
X100506365Y-138441464D01*
X100506371Y-138441468D01*
X100506374Y-138441470D01*
X100710497Y-138551936D01*
X100787948Y-138578525D01*
X100930015Y-138627297D01*
X100930017Y-138627297D01*
X100930019Y-138627298D01*
X101158951Y-138665500D01*
X101158952Y-138665500D01*
X101391048Y-138665500D01*
X101391049Y-138665500D01*
X101619981Y-138627298D01*
X101839503Y-138551936D01*
X102043626Y-138441470D01*
X102226784Y-138298913D01*
X102383979Y-138128153D01*
X102510924Y-137933849D01*
X102604157Y-137721300D01*
X102661134Y-137496305D01*
X102665752Y-137440575D01*
X102680300Y-137265006D01*
X102680300Y-137264993D01*
X102661135Y-137033702D01*
X102661133Y-137033691D01*
X102604157Y-136808699D01*
X102510924Y-136596151D01*
X102383983Y-136401852D01*
X102383980Y-136401849D01*
X102383979Y-136401847D01*
X102289195Y-136298884D01*
X102258275Y-136236232D01*
X102266135Y-136166806D01*
X102310283Y-136112651D01*
X102337095Y-136098722D01*
X102417326Y-136068798D01*
X102417326Y-136068797D01*
X102417331Y-136068796D01*
X102532546Y-135982546D01*
X102618796Y-135867331D01*
X102669091Y-135732483D01*
X102675500Y-135672873D01*
X102675499Y-133777128D01*
X102669091Y-133717517D01*
X102647668Y-133660080D01*
X102618797Y-133582671D01*
X102618793Y-133582664D01*
X102532547Y-133467455D01*
X102532544Y-133467452D01*
X102417335Y-133381206D01*
X102417328Y-133381202D01*
X102282482Y-133330908D01*
X102282483Y-133330908D01*
X102222883Y-133324501D01*
X102222881Y-133324500D01*
X102222873Y-133324500D01*
X102222864Y-133324500D01*
X100327129Y-133324500D01*
X100327123Y-133324501D01*
X100267516Y-133330908D01*
X100132671Y-133381202D01*
X100132664Y-133381206D01*
X100017455Y-133467452D01*
X100017452Y-133467455D01*
X99931206Y-133582664D01*
X99931202Y-133582671D01*
X99880908Y-133717517D01*
X99874501Y-133777116D01*
X99874501Y-133777123D01*
X99874500Y-133777135D01*
X99874500Y-135672870D01*
X99874501Y-135672876D01*
X99880908Y-135732483D01*
X99931202Y-135867328D01*
X99931206Y-135867335D01*
X100017452Y-135982544D01*
X100017455Y-135982547D01*
X100132664Y-136068793D01*
X100132673Y-136068798D01*
X100212904Y-136098722D01*
X100268838Y-136140593D01*
X100293256Y-136206057D01*
X100278405Y-136274330D01*
X100260802Y-136298886D01*
X100166019Y-136401849D01*
X100039075Y-136596151D01*
X99945842Y-136808699D01*
X99888866Y-137033691D01*
X99888864Y-137033702D01*
X99869700Y-137264993D01*
X99869700Y-137265006D01*
X96459910Y-137265006D01*
X96493007Y-137185102D01*
X96550512Y-136945574D01*
X96569838Y-136700000D01*
X96550512Y-136454425D01*
X96493007Y-136214897D01*
X96398737Y-135987307D01*
X96272401Y-135781149D01*
X95646962Y-136406588D01*
X95629193Y-136363689D01*
X95551493Y-136247402D01*
X95452598Y-136148507D01*
X95336311Y-136070807D01*
X95293410Y-136053036D01*
X95918849Y-135427597D01*
X95918849Y-135427596D01*
X95712691Y-135301262D01*
X95712688Y-135301260D01*
X95597530Y-135253561D01*
X95543126Y-135209720D01*
X95521061Y-135143426D01*
X95538340Y-135075727D01*
X95589477Y-135028116D01*
X95644982Y-135015000D01*
X96012828Y-135015000D01*
X96012844Y-135014999D01*
X96072372Y-135008598D01*
X96072379Y-135008596D01*
X96207086Y-134958354D01*
X96207093Y-134958350D01*
X96322187Y-134872190D01*
X96322190Y-134872187D01*
X96408350Y-134757093D01*
X96408354Y-134757086D01*
X96458596Y-134622379D01*
X96458598Y-134622372D01*
X96464999Y-134562844D01*
X96465000Y-134562827D01*
X96465000Y-133850000D01*
X95556706Y-133850000D01*
X95586558Y-133777931D01*
X95610000Y-133660080D01*
X95610000Y-133539920D01*
X95586558Y-133422069D01*
X95556706Y-133350000D01*
X96465000Y-133350000D01*
X96465000Y-132637172D01*
X96464999Y-132637155D01*
X96458598Y-132577627D01*
X96458596Y-132577620D01*
X96408354Y-132442913D01*
X96408350Y-132442906D01*
X96322190Y-132327812D01*
X96322187Y-132327809D01*
X96207093Y-132241649D01*
X96207086Y-132241645D01*
X96072379Y-132191403D01*
X96072372Y-132191401D01*
X96012844Y-132185000D01*
X95250000Y-132185000D01*
X95250000Y-133043293D01*
X95177931Y-133013442D01*
X95060080Y-132990000D01*
X94939920Y-132990000D01*
X94822069Y-133013442D01*
X94750000Y-133043293D01*
X94750000Y-132185000D01*
X93987155Y-132185000D01*
X93927627Y-132191401D01*
X93927620Y-132191403D01*
X93792913Y-132241645D01*
X93792906Y-132241649D01*
X93677812Y-132327809D01*
X93677809Y-132327812D01*
X93591649Y-132442906D01*
X93591645Y-132442913D01*
X93541403Y-132577620D01*
X93541401Y-132577627D01*
X93535000Y-132637155D01*
X93535000Y-133350000D01*
X94443294Y-133350000D01*
X94413442Y-133422069D01*
X94390000Y-133539920D01*
X94390000Y-133660080D01*
X94413442Y-133777931D01*
X94443294Y-133850000D01*
X93535000Y-133850000D01*
X93535000Y-134562844D01*
X93541401Y-134622372D01*
X93541403Y-134622379D01*
X93591645Y-134757086D01*
X93591649Y-134757093D01*
X93677809Y-134872187D01*
X93677812Y-134872190D01*
X93792906Y-134958350D01*
X93792913Y-134958354D01*
X93927620Y-135008596D01*
X93927627Y-135008598D01*
X93987155Y-135014999D01*
X93987172Y-135015000D01*
X94355018Y-135015000D01*
X94422057Y-135034685D01*
X94467812Y-135087489D01*
X94477756Y-135156647D01*
X94448731Y-135220203D01*
X94402470Y-135253561D01*
X94287311Y-135301260D01*
X94287308Y-135301262D01*
X94081149Y-135427597D01*
X94706589Y-136053036D01*
X94663689Y-136070807D01*
X94547402Y-136148507D01*
X94448507Y-136247402D01*
X94370807Y-136363689D01*
X94353037Y-136406589D01*
X93727597Y-135781149D01*
X93601262Y-135987307D01*
X93506992Y-136214897D01*
X93449487Y-136454425D01*
X93430161Y-136700000D01*
X91200500Y-136700000D01*
X91200500Y-131597066D01*
X91220185Y-131530027D01*
X91272989Y-131484272D01*
X91342147Y-131474328D01*
X91371952Y-131482505D01*
X91476016Y-131525609D01*
X91476025Y-131525612D01*
X91674041Y-131564999D01*
X91674045Y-131565000D01*
X91750000Y-131565000D01*
X91750000Y-130820330D01*
X91769745Y-130840075D01*
X91855255Y-130889444D01*
X91950630Y-130915000D01*
X92049370Y-130915000D01*
X92144745Y-130889444D01*
X92230255Y-130840075D01*
X92250000Y-130820330D01*
X92250000Y-131565000D01*
X92325955Y-131565000D01*
X92325958Y-131564999D01*
X92523974Y-131525612D01*
X92523983Y-131525609D01*
X92710513Y-131448347D01*
X92710526Y-131448340D01*
X92878399Y-131336170D01*
X92878403Y-131336167D01*
X93021167Y-131193403D01*
X93021170Y-131193399D01*
X93133340Y-131025526D01*
X93133347Y-131025513D01*
X93210609Y-130838983D01*
X93210612Y-130838974D01*
X93220353Y-130790000D01*
X92280330Y-130790000D01*
X92300075Y-130770255D01*
X92349444Y-130684745D01*
X92375000Y-130589370D01*
X92375000Y-130490630D01*
X92349444Y-130395255D01*
X92300075Y-130309745D01*
X92285830Y-130295500D01*
X92326004Y-130295500D01*
X92326004Y-130295499D01*
X92339473Y-130292820D01*
X92341674Y-130292383D01*
X92365866Y-130290000D01*
X93220353Y-130290000D01*
X93210612Y-130241025D01*
X93210609Y-130241016D01*
X93133347Y-130054486D01*
X93133343Y-130054479D01*
X93079795Y-129974340D01*
X93058917Y-129907662D01*
X93077401Y-129840282D01*
X93079733Y-129836652D01*
X93133786Y-129755756D01*
X93211091Y-129569127D01*
X93250499Y-129371007D01*
X97749500Y-129371007D01*
X97788907Y-129569119D01*
X97788909Y-129569127D01*
X97866212Y-129755754D01*
X97920204Y-129836558D01*
X97941081Y-129903235D01*
X97922596Y-129970615D01*
X97920204Y-129974337D01*
X97866655Y-130054479D01*
X97866654Y-130054481D01*
X97789390Y-130241016D01*
X97789387Y-130241025D01*
X97779647Y-130290000D01*
X98634134Y-130290000D01*
X98658326Y-130292383D01*
X98661123Y-130292939D01*
X98673995Y-130295499D01*
X98673996Y-130295500D01*
X98673997Y-130295500D01*
X98714170Y-130295500D01*
X98699925Y-130309745D01*
X98650556Y-130395255D01*
X98625000Y-130490630D01*
X98625000Y-130589370D01*
X98650556Y-130684745D01*
X98699925Y-130770255D01*
X98719670Y-130790000D01*
X97779647Y-130790000D01*
X97789387Y-130838974D01*
X97789390Y-130838983D01*
X97866652Y-131025513D01*
X97866659Y-131025526D01*
X97978829Y-131193399D01*
X97978832Y-131193403D01*
X98121596Y-131336167D01*
X98121600Y-131336170D01*
X98289473Y-131448340D01*
X98289486Y-131448347D01*
X98476016Y-131525609D01*
X98476025Y-131525612D01*
X98674041Y-131564999D01*
X98674045Y-131565000D01*
X98750000Y-131565000D01*
X98750000Y-130820330D01*
X98769745Y-130840075D01*
X98855255Y-130889444D01*
X98950630Y-130915000D01*
X99049370Y-130915000D01*
X99144745Y-130889444D01*
X99230255Y-130840075D01*
X99250000Y-130820330D01*
X99250000Y-131565000D01*
X99325955Y-131565000D01*
X99325958Y-131564999D01*
X99523974Y-131525612D01*
X99523983Y-131525609D01*
X99710513Y-131448347D01*
X99710526Y-131448340D01*
X99878399Y-131336170D01*
X99878403Y-131336167D01*
X100021167Y-131193403D01*
X100021170Y-131193399D01*
X100133340Y-131025526D01*
X100133347Y-131025513D01*
X100210609Y-130838983D01*
X100210612Y-130838974D01*
X100220353Y-130790000D01*
X99280330Y-130790000D01*
X99300075Y-130770255D01*
X99349444Y-130684745D01*
X99375000Y-130589370D01*
X99375000Y-130490630D01*
X99349444Y-130395255D01*
X99300075Y-130309745D01*
X99285830Y-130295500D01*
X99326004Y-130295500D01*
X99326004Y-130295499D01*
X99339473Y-130292820D01*
X99341674Y-130292383D01*
X99365866Y-130290000D01*
X100220353Y-130290000D01*
X100210612Y-130241025D01*
X100210609Y-130241016D01*
X100133347Y-130054486D01*
X100133343Y-130054479D01*
X100079795Y-129974340D01*
X100058917Y-129907662D01*
X100077401Y-129840282D01*
X100079733Y-129836652D01*
X100133786Y-129755756D01*
X100211091Y-129569127D01*
X100250500Y-129371003D01*
X100250500Y-129168997D01*
X100211091Y-128970873D01*
X100177673Y-128890198D01*
X100170205Y-128820730D01*
X100189964Y-128775340D01*
X100189547Y-128775112D01*
X100192095Y-128770444D01*
X100192972Y-128768431D01*
X100193796Y-128767331D01*
X100244091Y-128632483D01*
X100250500Y-128572873D01*
X100250499Y-127427128D01*
X100244091Y-127367517D01*
X100213451Y-127285368D01*
X100193797Y-127232671D01*
X100193793Y-127232664D01*
X100107547Y-127117455D01*
X100107544Y-127117452D01*
X99992335Y-127031206D01*
X99992328Y-127031202D01*
X99857482Y-126980908D01*
X99857483Y-126980908D01*
X99797883Y-126974501D01*
X99797881Y-126974500D01*
X99797873Y-126974500D01*
X99797864Y-126974500D01*
X98202129Y-126974500D01*
X98202123Y-126974501D01*
X98142516Y-126980908D01*
X98007671Y-127031202D01*
X98007664Y-127031206D01*
X97892455Y-127117452D01*
X97892452Y-127117455D01*
X97806206Y-127232664D01*
X97806202Y-127232671D01*
X97755908Y-127367517D01*
X97750165Y-127420943D01*
X97749501Y-127427123D01*
X97749500Y-127427135D01*
X97749500Y-128572870D01*
X97749501Y-128572876D01*
X97755908Y-128632483D01*
X97806202Y-128767328D01*
X97806203Y-128767330D01*
X97806204Y-128767331D01*
X97807028Y-128768432D01*
X97807509Y-128769721D01*
X97810454Y-128775114D01*
X97809678Y-128775537D01*
X97831448Y-128833895D01*
X97822325Y-128890198D01*
X97788910Y-128970868D01*
X97788907Y-128970880D01*
X97749500Y-129168992D01*
X97749500Y-129371007D01*
X93250499Y-129371007D01*
X93250500Y-129371003D01*
X93250500Y-129168997D01*
X93211091Y-128970873D01*
X93177673Y-128890198D01*
X93170205Y-128820730D01*
X93189964Y-128775340D01*
X93189547Y-128775112D01*
X93192095Y-128770444D01*
X93192972Y-128768431D01*
X93193796Y-128767331D01*
X93244091Y-128632483D01*
X93250500Y-128572873D01*
X93250499Y-127427128D01*
X93244091Y-127367517D01*
X93213451Y-127285368D01*
X93193797Y-127232671D01*
X93193793Y-127232664D01*
X93107547Y-127117455D01*
X93107544Y-127117452D01*
X92992335Y-127031206D01*
X92992328Y-127031202D01*
X92857482Y-126980908D01*
X92857483Y-126980908D01*
X92797883Y-126974501D01*
X92797881Y-126974500D01*
X92797873Y-126974500D01*
X92797865Y-126974500D01*
X91324500Y-126974500D01*
X91257461Y-126954815D01*
X91211706Y-126902011D01*
X91200500Y-126850500D01*
X91200500Y-123044888D01*
X91650146Y-123044888D01*
X91669970Y-123271485D01*
X91669972Y-123271496D01*
X91728842Y-123491203D01*
X91728847Y-123491217D01*
X91824975Y-123697364D01*
X91876086Y-123770358D01*
X92555112Y-123091332D01*
X92555112Y-123097547D01*
X92582371Y-123199280D01*
X92635032Y-123290492D01*
X92709506Y-123364966D01*
X92800718Y-123417627D01*
X92902451Y-123444886D01*
X92908665Y-123444886D01*
X92229638Y-124123911D01*
X92302625Y-124175018D01*
X92302633Y-124175022D01*
X92508780Y-124271150D01*
X92508794Y-124271155D01*
X92728501Y-124330025D01*
X92728512Y-124330027D01*
X92955110Y-124349852D01*
X92955114Y-124349852D01*
X93181711Y-124330027D01*
X93181722Y-124330025D01*
X93401429Y-124271155D01*
X93401443Y-124271150D01*
X93607590Y-124175022D01*
X93680583Y-124123910D01*
X93001559Y-123444886D01*
X93007773Y-123444886D01*
X93109506Y-123417627D01*
X93200718Y-123364966D01*
X93275192Y-123290492D01*
X93327853Y-123199280D01*
X93355112Y-123097547D01*
X93355112Y-123091333D01*
X94034136Y-123770357D01*
X94085248Y-123697364D01*
X94181376Y-123491217D01*
X94181381Y-123491203D01*
X94240251Y-123271496D01*
X94240253Y-123271485D01*
X94260078Y-123044888D01*
X94260078Y-123044883D01*
X94240253Y-122818286D01*
X94240251Y-122818275D01*
X94181381Y-122598568D01*
X94181377Y-122598559D01*
X94085246Y-122392404D01*
X94085242Y-122392398D01*
X94076300Y-122379626D01*
X94053973Y-122313420D01*
X94070985Y-122245653D01*
X94103566Y-122209237D01*
X94112658Y-122202432D01*
X94198908Y-122087217D01*
X94249203Y-121952369D01*
X94255612Y-121892759D01*
X94255611Y-120197014D01*
X94249203Y-120137403D01*
X94228357Y-120081513D01*
X94198909Y-120002557D01*
X94198905Y-120002550D01*
X94112658Y-119887340D01*
X94112656Y-119887338D01*
X93997447Y-119801092D01*
X93997440Y-119801088D01*
X93862594Y-119750794D01*
X93862595Y-119750794D01*
X93802995Y-119744387D01*
X93802993Y-119744386D01*
X93802985Y-119744386D01*
X93802976Y-119744386D01*
X92107241Y-119744386D01*
X92107235Y-119744387D01*
X92047628Y-119750794D01*
X91912783Y-119801088D01*
X91912776Y-119801092D01*
X91797567Y-119887338D01*
X91797566Y-119887340D01*
X91711318Y-120002550D01*
X91711314Y-120002557D01*
X91661020Y-120137403D01*
X91654613Y-120197002D01*
X91654613Y-120197009D01*
X91654612Y-120197021D01*
X91654612Y-121892756D01*
X91654613Y-121892762D01*
X91661020Y-121952369D01*
X91711314Y-122087214D01*
X91711318Y-122087221D01*
X91797564Y-122202430D01*
X91797565Y-122202430D01*
X91797566Y-122202432D01*
X91806657Y-122209237D01*
X91848528Y-122265168D01*
X91853514Y-122334860D01*
X91833925Y-122379622D01*
X91824983Y-122392393D01*
X91824980Y-122392398D01*
X91728846Y-122598559D01*
X91728842Y-122598568D01*
X91669972Y-122818275D01*
X91669970Y-122818286D01*
X91650146Y-123044883D01*
X91650146Y-123044888D01*
X91200500Y-123044888D01*
X91200500Y-116700097D01*
X91220185Y-116633058D01*
X91236819Y-116612416D01*
X92712417Y-115136819D01*
X92773740Y-115103334D01*
X92800098Y-115100500D01*
X93913331Y-115100500D01*
X93913347Y-115100501D01*
X93920943Y-115100501D01*
X94079054Y-115100501D01*
X94079057Y-115100501D01*
X94231785Y-115059577D01*
X94281904Y-115030639D01*
X94368716Y-114980520D01*
X94480520Y-114868716D01*
X94480520Y-114868714D01*
X94490728Y-114858507D01*
X94490730Y-114858504D01*
X94758506Y-114590728D01*
X94758511Y-114590724D01*
X94768714Y-114580520D01*
X94768716Y-114580520D01*
X94880520Y-114468716D01*
X94959577Y-114331784D01*
X94995182Y-114198903D01*
X95000500Y-114179058D01*
X95000500Y-114020943D01*
X95000500Y-112382412D01*
X95020185Y-112315373D01*
X95027555Y-112305097D01*
X95029810Y-112302267D01*
X95029816Y-112302262D01*
X95125789Y-112149522D01*
X95185368Y-111979255D01*
X95186691Y-111967517D01*
X95205565Y-111800003D01*
X95205565Y-111799996D01*
X95185369Y-111620750D01*
X95185368Y-111620745D01*
X95171428Y-111580908D01*
X95125789Y-111450478D01*
X95029816Y-111297738D01*
X94902262Y-111170184D01*
X94805694Y-111109506D01*
X94749523Y-111074211D01*
X94579254Y-111014631D01*
X94579249Y-111014630D01*
X94400004Y-110994435D01*
X94400003Y-110994435D01*
X94400001Y-110994435D01*
X94400000Y-110994435D01*
X94391178Y-110995428D01*
X94322357Y-110983372D01*
X94270979Y-110936022D01*
X94253770Y-110883015D01*
X94240253Y-110728512D01*
X94240251Y-110728501D01*
X94181381Y-110508794D01*
X94181376Y-110508780D01*
X94085248Y-110302633D01*
X94085244Y-110302625D01*
X94034137Y-110229638D01*
X93355112Y-110908663D01*
X93355112Y-110902451D01*
X93327853Y-110800718D01*
X93275192Y-110709506D01*
X93200718Y-110635032D01*
X93109506Y-110582371D01*
X93007773Y-110555112D01*
X93001560Y-110555112D01*
X93680584Y-109876086D01*
X93607590Y-109824975D01*
X93401443Y-109728847D01*
X93401429Y-109728842D01*
X93181722Y-109669972D01*
X93181711Y-109669970D01*
X92955114Y-109650146D01*
X92955110Y-109650146D01*
X92728512Y-109669970D01*
X92728501Y-109669972D01*
X92508794Y-109728842D01*
X92508785Y-109728846D01*
X92302628Y-109824978D01*
X92302624Y-109824980D01*
X92229638Y-109876085D01*
X92229638Y-109876086D01*
X92908665Y-110555112D01*
X92902451Y-110555112D01*
X92800718Y-110582371D01*
X92709506Y-110635032D01*
X92635032Y-110709506D01*
X92582371Y-110800718D01*
X92555112Y-110902451D01*
X92555112Y-110908664D01*
X91876086Y-110229638D01*
X91876085Y-110229638D01*
X91824980Y-110302624D01*
X91824978Y-110302628D01*
X91728846Y-110508785D01*
X91728842Y-110508794D01*
X91669972Y-110728501D01*
X91669970Y-110728512D01*
X91650146Y-110955109D01*
X91650146Y-110955114D01*
X91669970Y-111181711D01*
X91669972Y-111181722D01*
X91728842Y-111401429D01*
X91728846Y-111401438D01*
X91824977Y-111607593D01*
X91824980Y-111607597D01*
X91833924Y-111620372D01*
X91856250Y-111686579D01*
X91839237Y-111754346D01*
X91806661Y-111790757D01*
X91797568Y-111797564D01*
X91797563Y-111797569D01*
X91711318Y-111912776D01*
X91711314Y-111912783D01*
X91661020Y-112047629D01*
X91654613Y-112107228D01*
X91654612Y-112107247D01*
X91654612Y-113802982D01*
X91654613Y-113802988D01*
X91661020Y-113862595D01*
X91711314Y-113997440D01*
X91711318Y-113997447D01*
X91783396Y-114093730D01*
X91797566Y-114112658D01*
X91820569Y-114129878D01*
X91862438Y-114185809D01*
X91867423Y-114255500D01*
X91833939Y-114316824D01*
X91833938Y-114316824D01*
X90712181Y-115438582D01*
X90650858Y-115472067D01*
X90581166Y-115467083D01*
X90525233Y-115425211D01*
X90500816Y-115359747D01*
X90500500Y-115350901D01*
X90500500Y-105947870D01*
X96099500Y-105947870D01*
X96099501Y-105947876D01*
X96105908Y-106007483D01*
X96156202Y-106142328D01*
X96156206Y-106142335D01*
X96242452Y-106257544D01*
X96242455Y-106257547D01*
X96357664Y-106343793D01*
X96357671Y-106343797D01*
X96492517Y-106394091D01*
X96492516Y-106394091D01*
X96499444Y-106394835D01*
X96552127Y-106400500D01*
X98447872Y-106400499D01*
X98507483Y-106394091D01*
X98642331Y-106343796D01*
X98757546Y-106257546D01*
X98843796Y-106142331D01*
X98862092Y-106093274D01*
X98903961Y-106037342D01*
X98969425Y-106012924D01*
X99037699Y-106027775D01*
X99054436Y-106038755D01*
X99231365Y-106176464D01*
X99231371Y-106176468D01*
X99231374Y-106176470D01*
X99435497Y-106286936D01*
X99549487Y-106326068D01*
X99655015Y-106362297D01*
X99655017Y-106362297D01*
X99655019Y-106362298D01*
X99883951Y-106400500D01*
X99883952Y-106400500D01*
X100116048Y-106400500D01*
X100116049Y-106400500D01*
X100344981Y-106362298D01*
X100564503Y-106286936D01*
X100768626Y-106176470D01*
X100951784Y-106033913D01*
X101108979Y-105863153D01*
X101146191Y-105806196D01*
X101199337Y-105760839D01*
X101268569Y-105751415D01*
X101331904Y-105780917D01*
X101353809Y-105806196D01*
X101391016Y-105863147D01*
X101391019Y-105863151D01*
X101391021Y-105863153D01*
X101548216Y-106033913D01*
X101548219Y-106033915D01*
X101548222Y-106033918D01*
X101731365Y-106176464D01*
X101731371Y-106176468D01*
X101731374Y-106176470D01*
X101935497Y-106286936D01*
X102049487Y-106326068D01*
X102155015Y-106362297D01*
X102155017Y-106362297D01*
X102155019Y-106362298D01*
X102383951Y-106400500D01*
X102383952Y-106400500D01*
X102616048Y-106400500D01*
X102616049Y-106400500D01*
X102844981Y-106362298D01*
X103064503Y-106286936D01*
X103268626Y-106176470D01*
X103451784Y-106033913D01*
X103608979Y-105863153D01*
X103735924Y-105668849D01*
X103829157Y-105456300D01*
X103886134Y-105231305D01*
X103905300Y-105000000D01*
X103905300Y-104999993D01*
X103886135Y-104768702D01*
X103886133Y-104768691D01*
X103829157Y-104543699D01*
X103735924Y-104331151D01*
X103608983Y-104136852D01*
X103608980Y-104136849D01*
X103608979Y-104136847D01*
X103451784Y-103966087D01*
X103451779Y-103966083D01*
X103451777Y-103966081D01*
X103268634Y-103823535D01*
X103268628Y-103823531D01*
X103064504Y-103713064D01*
X103064495Y-103713061D01*
X102844984Y-103637702D01*
X102654450Y-103605908D01*
X102616049Y-103599500D01*
X102383951Y-103599500D01*
X102345550Y-103605908D01*
X102155015Y-103637702D01*
X101935504Y-103713061D01*
X101935495Y-103713064D01*
X101731371Y-103823531D01*
X101731365Y-103823535D01*
X101548222Y-103966081D01*
X101548219Y-103966084D01*
X101548216Y-103966086D01*
X101548216Y-103966087D01*
X101400500Y-104126551D01*
X101391015Y-104136854D01*
X101353808Y-104193804D01*
X101300662Y-104239161D01*
X101231430Y-104248584D01*
X101168095Y-104219082D01*
X101146192Y-104193804D01*
X101108984Y-104136854D01*
X101108982Y-104136852D01*
X101108979Y-104136847D01*
X100951784Y-103966087D01*
X100951779Y-103966083D01*
X100951777Y-103966081D01*
X100768634Y-103823535D01*
X100768628Y-103823531D01*
X100564504Y-103713064D01*
X100564495Y-103713061D01*
X100344984Y-103637702D01*
X100154450Y-103605908D01*
X100116049Y-103599500D01*
X99883951Y-103599500D01*
X99845550Y-103605908D01*
X99655015Y-103637702D01*
X99435504Y-103713061D01*
X99435495Y-103713064D01*
X99231372Y-103823531D01*
X99054436Y-103961245D01*
X98989442Y-103986887D01*
X98920902Y-103973320D01*
X98870577Y-103924852D01*
X98862092Y-103906723D01*
X98843798Y-103857673D01*
X98843793Y-103857664D01*
X98757547Y-103742455D01*
X98757544Y-103742452D01*
X98642335Y-103656206D01*
X98642328Y-103656202D01*
X98507482Y-103605908D01*
X98507483Y-103605908D01*
X98447883Y-103599501D01*
X98447881Y-103599500D01*
X98447873Y-103599500D01*
X98447864Y-103599500D01*
X96552129Y-103599500D01*
X96552123Y-103599501D01*
X96492516Y-103605908D01*
X96357671Y-103656202D01*
X96357664Y-103656206D01*
X96242455Y-103742452D01*
X96242452Y-103742455D01*
X96156206Y-103857664D01*
X96156202Y-103857671D01*
X96105908Y-103992517D01*
X96099501Y-104052116D01*
X96099500Y-104052135D01*
X96099500Y-105947870D01*
X90500500Y-105947870D01*
X90500500Y-97881951D01*
X93339500Y-97881951D01*
X93366013Y-98083333D01*
X93371334Y-98123744D01*
X93371335Y-98123746D01*
X93434456Y-98359320D01*
X93434459Y-98359330D01*
X93527786Y-98584640D01*
X93527791Y-98584651D01*
X93649727Y-98795848D01*
X93649738Y-98795864D01*
X93798199Y-98989343D01*
X93798205Y-98989350D01*
X93970649Y-99161794D01*
X93970655Y-99161799D01*
X94164144Y-99310268D01*
X94164151Y-99310272D01*
X94375348Y-99432208D01*
X94375353Y-99432210D01*
X94375356Y-99432212D01*
X94600679Y-99525544D01*
X94836256Y-99588666D01*
X95078056Y-99620500D01*
X95078063Y-99620500D01*
X95321937Y-99620500D01*
X95321944Y-99620500D01*
X95563744Y-99588666D01*
X95799321Y-99525544D01*
X96024644Y-99432212D01*
X96235856Y-99310268D01*
X96429345Y-99161799D01*
X96601799Y-98989345D01*
X96750268Y-98795856D01*
X96872212Y-98584644D01*
X96965544Y-98359321D01*
X97028666Y-98123744D01*
X97060499Y-97881951D01*
X102939500Y-97881951D01*
X102966013Y-98083333D01*
X102971334Y-98123744D01*
X102971335Y-98123746D01*
X103034456Y-98359320D01*
X103034459Y-98359330D01*
X103127786Y-98584640D01*
X103127791Y-98584651D01*
X103249727Y-98795848D01*
X103249738Y-98795864D01*
X103398199Y-98989343D01*
X103398205Y-98989350D01*
X103570649Y-99161794D01*
X103570655Y-99161799D01*
X103764144Y-99310268D01*
X103764151Y-99310272D01*
X103975348Y-99432208D01*
X103975353Y-99432210D01*
X103975356Y-99432212D01*
X104200679Y-99525544D01*
X104436256Y-99588666D01*
X104678056Y-99620500D01*
X104678063Y-99620500D01*
X104921937Y-99620500D01*
X104921944Y-99620500D01*
X105163744Y-99588666D01*
X105399321Y-99525544D01*
X105624644Y-99432212D01*
X105835856Y-99310268D01*
X106029345Y-99161799D01*
X106201799Y-98989345D01*
X106350268Y-98795856D01*
X106472212Y-98584644D01*
X106565544Y-98359321D01*
X106628666Y-98123744D01*
X106660500Y-97881944D01*
X106660500Y-97118056D01*
X106628666Y-96876256D01*
X106565544Y-96640679D01*
X106472212Y-96415356D01*
X106472210Y-96415353D01*
X106472208Y-96415348D01*
X106350272Y-96204151D01*
X106350268Y-96204144D01*
X106201799Y-96010655D01*
X106201794Y-96010649D01*
X106029350Y-95838205D01*
X106029343Y-95838199D01*
X105835864Y-95689738D01*
X105835862Y-95689736D01*
X105835856Y-95689732D01*
X105835851Y-95689729D01*
X105835848Y-95689727D01*
X105624651Y-95567791D01*
X105624640Y-95567786D01*
X105399330Y-95474459D01*
X105399323Y-95474457D01*
X105399321Y-95474456D01*
X105163744Y-95411334D01*
X105123333Y-95406013D01*
X104921951Y-95379500D01*
X104921944Y-95379500D01*
X104678056Y-95379500D01*
X104678048Y-95379500D01*
X104447896Y-95409801D01*
X104436256Y-95411334D01*
X104200679Y-95474456D01*
X104200669Y-95474459D01*
X103975359Y-95567786D01*
X103975348Y-95567791D01*
X103764151Y-95689727D01*
X103764135Y-95689738D01*
X103570656Y-95838199D01*
X103570649Y-95838205D01*
X103398205Y-96010649D01*
X103398199Y-96010656D01*
X103249738Y-96204135D01*
X103249727Y-96204151D01*
X103127791Y-96415348D01*
X103127786Y-96415359D01*
X103034459Y-96640669D01*
X103034456Y-96640679D01*
X102971335Y-96876253D01*
X102971333Y-96876264D01*
X102939500Y-97118048D01*
X102939500Y-97881951D01*
X97060499Y-97881951D01*
X97060500Y-97881944D01*
X97060500Y-97118056D01*
X97028666Y-96876256D01*
X96965544Y-96640679D01*
X96872212Y-96415356D01*
X96872210Y-96415353D01*
X96872208Y-96415348D01*
X96750272Y-96204151D01*
X96750268Y-96204144D01*
X96601799Y-96010655D01*
X96601794Y-96010649D01*
X96429350Y-95838205D01*
X96429343Y-95838199D01*
X96235864Y-95689738D01*
X96235862Y-95689736D01*
X96235856Y-95689732D01*
X96235851Y-95689729D01*
X96235848Y-95689727D01*
X96024651Y-95567791D01*
X96024640Y-95567786D01*
X95799330Y-95474459D01*
X95799323Y-95474457D01*
X95799321Y-95474456D01*
X95563744Y-95411334D01*
X95523333Y-95406013D01*
X95321951Y-95379500D01*
X95321944Y-95379500D01*
X95078056Y-95379500D01*
X95078048Y-95379500D01*
X94847896Y-95409801D01*
X94836256Y-95411334D01*
X94600679Y-95474456D01*
X94600669Y-95474459D01*
X94375359Y-95567786D01*
X94375348Y-95567791D01*
X94164151Y-95689727D01*
X94164135Y-95689738D01*
X93970656Y-95838199D01*
X93970649Y-95838205D01*
X93798205Y-96010649D01*
X93798199Y-96010656D01*
X93649738Y-96204135D01*
X93649727Y-96204151D01*
X93527791Y-96415348D01*
X93527786Y-96415359D01*
X93434459Y-96640669D01*
X93434456Y-96640679D01*
X93371335Y-96876253D01*
X93371333Y-96876264D01*
X93339500Y-97118048D01*
X93339500Y-97881951D01*
X90500500Y-97881951D01*
X90500500Y-90947870D01*
X96099500Y-90947870D01*
X96099501Y-90947876D01*
X96105908Y-91007483D01*
X96156202Y-91142328D01*
X96156206Y-91142335D01*
X96242452Y-91257544D01*
X96242455Y-91257547D01*
X96357664Y-91343793D01*
X96357671Y-91343797D01*
X96492517Y-91394091D01*
X96492516Y-91394091D01*
X96499444Y-91394835D01*
X96552127Y-91400500D01*
X98447872Y-91400499D01*
X98507483Y-91394091D01*
X98642331Y-91343796D01*
X98757546Y-91257546D01*
X98843796Y-91142331D01*
X98862092Y-91093274D01*
X98903961Y-91037342D01*
X98969425Y-91012924D01*
X99037699Y-91027775D01*
X99054436Y-91038755D01*
X99231365Y-91176464D01*
X99231371Y-91176468D01*
X99231374Y-91176470D01*
X99435497Y-91286936D01*
X99549487Y-91326068D01*
X99655015Y-91362297D01*
X99655017Y-91362297D01*
X99655019Y-91362298D01*
X99883951Y-91400500D01*
X99883952Y-91400500D01*
X100116048Y-91400500D01*
X100116049Y-91400500D01*
X100344981Y-91362298D01*
X100564503Y-91286936D01*
X100768626Y-91176470D01*
X100951784Y-91033913D01*
X101108979Y-90863153D01*
X101146191Y-90806196D01*
X101199337Y-90760839D01*
X101268569Y-90751415D01*
X101331904Y-90780917D01*
X101353809Y-90806196D01*
X101391016Y-90863147D01*
X101391019Y-90863151D01*
X101391021Y-90863153D01*
X101548216Y-91033913D01*
X101548219Y-91033915D01*
X101548222Y-91033918D01*
X101731365Y-91176464D01*
X101731371Y-91176468D01*
X101731374Y-91176470D01*
X101935497Y-91286936D01*
X102049487Y-91326068D01*
X102155015Y-91362297D01*
X102155017Y-91362297D01*
X102155019Y-91362298D01*
X102383951Y-91400500D01*
X102383952Y-91400500D01*
X102616048Y-91400500D01*
X102616049Y-91400500D01*
X102844981Y-91362298D01*
X103064503Y-91286936D01*
X103268626Y-91176470D01*
X103451784Y-91033913D01*
X103608979Y-90863153D01*
X103735924Y-90668849D01*
X103829157Y-90456300D01*
X103886134Y-90231305D01*
X103905300Y-90000000D01*
X103905300Y-89999993D01*
X103886135Y-89768702D01*
X103886133Y-89768691D01*
X103829157Y-89543699D01*
X103735924Y-89331151D01*
X103608983Y-89136852D01*
X103608980Y-89136849D01*
X103608979Y-89136847D01*
X103451784Y-88966087D01*
X103451779Y-88966083D01*
X103451777Y-88966081D01*
X103268634Y-88823535D01*
X103268628Y-88823531D01*
X103064504Y-88713064D01*
X103064495Y-88713061D01*
X102844984Y-88637702D01*
X102654450Y-88605908D01*
X102616049Y-88599500D01*
X102383951Y-88599500D01*
X102345550Y-88605908D01*
X102155015Y-88637702D01*
X101935504Y-88713061D01*
X101935495Y-88713064D01*
X101731371Y-88823531D01*
X101731365Y-88823535D01*
X101548222Y-88966081D01*
X101548219Y-88966084D01*
X101548216Y-88966086D01*
X101548216Y-88966087D01*
X101400500Y-89126551D01*
X101391015Y-89136854D01*
X101353808Y-89193804D01*
X101300662Y-89239161D01*
X101231430Y-89248584D01*
X101168095Y-89219082D01*
X101146192Y-89193804D01*
X101108984Y-89136854D01*
X101108982Y-89136852D01*
X101108979Y-89136847D01*
X100951784Y-88966087D01*
X100951779Y-88966083D01*
X100951777Y-88966081D01*
X100768634Y-88823535D01*
X100768628Y-88823531D01*
X100564504Y-88713064D01*
X100564495Y-88713061D01*
X100344984Y-88637702D01*
X100154450Y-88605908D01*
X100116049Y-88599500D01*
X99883951Y-88599500D01*
X99845550Y-88605908D01*
X99655015Y-88637702D01*
X99435504Y-88713061D01*
X99435495Y-88713064D01*
X99231372Y-88823531D01*
X99054436Y-88961245D01*
X98989442Y-88986887D01*
X98920902Y-88973320D01*
X98870577Y-88924852D01*
X98862092Y-88906723D01*
X98843798Y-88857673D01*
X98843793Y-88857664D01*
X98757547Y-88742455D01*
X98757544Y-88742452D01*
X98642335Y-88656206D01*
X98642328Y-88656202D01*
X98507482Y-88605908D01*
X98507483Y-88605908D01*
X98447883Y-88599501D01*
X98447881Y-88599500D01*
X98447873Y-88599500D01*
X98447864Y-88599500D01*
X96552129Y-88599500D01*
X96552123Y-88599501D01*
X96492516Y-88605908D01*
X96357671Y-88656202D01*
X96357664Y-88656206D01*
X96242455Y-88742452D01*
X96242452Y-88742455D01*
X96156206Y-88857664D01*
X96156202Y-88857671D01*
X96105908Y-88992517D01*
X96099501Y-89052116D01*
X96099500Y-89052135D01*
X96099500Y-90947870D01*
X90500500Y-90947870D01*
X90500500Y-82881951D01*
X93339500Y-82881951D01*
X93366013Y-83083333D01*
X93371334Y-83123744D01*
X93371335Y-83123746D01*
X93434456Y-83359320D01*
X93434459Y-83359330D01*
X93527786Y-83584640D01*
X93527791Y-83584651D01*
X93649727Y-83795848D01*
X93649738Y-83795864D01*
X93798199Y-83989343D01*
X93798205Y-83989350D01*
X93970649Y-84161794D01*
X93970655Y-84161799D01*
X94164144Y-84310268D01*
X94164151Y-84310272D01*
X94375348Y-84432208D01*
X94375353Y-84432210D01*
X94375356Y-84432212D01*
X94600679Y-84525544D01*
X94836256Y-84588666D01*
X95078056Y-84620500D01*
X95078063Y-84620500D01*
X95321937Y-84620500D01*
X95321944Y-84620500D01*
X95563744Y-84588666D01*
X95799321Y-84525544D01*
X96024644Y-84432212D01*
X96235856Y-84310268D01*
X96429345Y-84161799D01*
X96601799Y-83989345D01*
X96750268Y-83795856D01*
X96872212Y-83584644D01*
X96965544Y-83359321D01*
X97028666Y-83123744D01*
X97060499Y-82881951D01*
X102939500Y-82881951D01*
X102966013Y-83083333D01*
X102971334Y-83123744D01*
X102971335Y-83123746D01*
X103034456Y-83359320D01*
X103034459Y-83359330D01*
X103127786Y-83584640D01*
X103127791Y-83584651D01*
X103249727Y-83795848D01*
X103249738Y-83795864D01*
X103398199Y-83989343D01*
X103398205Y-83989350D01*
X103570649Y-84161794D01*
X103570655Y-84161799D01*
X103764144Y-84310268D01*
X103764151Y-84310272D01*
X103975348Y-84432208D01*
X103975353Y-84432210D01*
X103975356Y-84432212D01*
X104200679Y-84525544D01*
X104436256Y-84588666D01*
X104678056Y-84620500D01*
X104678063Y-84620500D01*
X104921937Y-84620500D01*
X104921944Y-84620500D01*
X105163744Y-84588666D01*
X105399321Y-84525544D01*
X105624644Y-84432212D01*
X105835856Y-84310268D01*
X106029345Y-84161799D01*
X106201799Y-83989345D01*
X106350268Y-83795856D01*
X106472212Y-83584644D01*
X106565544Y-83359321D01*
X106628666Y-83123744D01*
X106660500Y-82881944D01*
X106660500Y-82118056D01*
X106628666Y-81876256D01*
X106565544Y-81640679D01*
X106472212Y-81415356D01*
X106472210Y-81415353D01*
X106472208Y-81415348D01*
X106350272Y-81204151D01*
X106350268Y-81204144D01*
X106201799Y-81010655D01*
X106201794Y-81010649D01*
X106029350Y-80838205D01*
X106029343Y-80838199D01*
X105835864Y-80689738D01*
X105835862Y-80689736D01*
X105835856Y-80689732D01*
X105835851Y-80689729D01*
X105835848Y-80689727D01*
X105624651Y-80567791D01*
X105624640Y-80567786D01*
X105399330Y-80474459D01*
X105399323Y-80474457D01*
X105399321Y-80474456D01*
X105163744Y-80411334D01*
X105123333Y-80406013D01*
X104921951Y-80379500D01*
X104921944Y-80379500D01*
X104678056Y-80379500D01*
X104678048Y-80379500D01*
X104447896Y-80409801D01*
X104436256Y-80411334D01*
X104200679Y-80474456D01*
X104200669Y-80474459D01*
X103975359Y-80567786D01*
X103975348Y-80567791D01*
X103764151Y-80689727D01*
X103764135Y-80689738D01*
X103570656Y-80838199D01*
X103570649Y-80838205D01*
X103398205Y-81010649D01*
X103398199Y-81010656D01*
X103249738Y-81204135D01*
X103249727Y-81204151D01*
X103127791Y-81415348D01*
X103127786Y-81415359D01*
X103034459Y-81640669D01*
X103034456Y-81640679D01*
X102971335Y-81876253D01*
X102971333Y-81876264D01*
X102939500Y-82118048D01*
X102939500Y-82881951D01*
X97060499Y-82881951D01*
X97060500Y-82881944D01*
X97060500Y-82118056D01*
X97028666Y-81876256D01*
X96965544Y-81640679D01*
X96872212Y-81415356D01*
X96872210Y-81415353D01*
X96872208Y-81415348D01*
X96750272Y-81204151D01*
X96750268Y-81204144D01*
X96601799Y-81010655D01*
X96601794Y-81010649D01*
X96429350Y-80838205D01*
X96429343Y-80838199D01*
X96235864Y-80689738D01*
X96235862Y-80689736D01*
X96235856Y-80689732D01*
X96235851Y-80689729D01*
X96235848Y-80689727D01*
X96024651Y-80567791D01*
X96024640Y-80567786D01*
X95799330Y-80474459D01*
X95799323Y-80474457D01*
X95799321Y-80474456D01*
X95563744Y-80411334D01*
X95523333Y-80406013D01*
X95321951Y-80379500D01*
X95321944Y-80379500D01*
X95078056Y-80379500D01*
X95078048Y-80379500D01*
X94847896Y-80409801D01*
X94836256Y-80411334D01*
X94600679Y-80474456D01*
X94600669Y-80474459D01*
X94375359Y-80567786D01*
X94375348Y-80567791D01*
X94164151Y-80689727D01*
X94164135Y-80689738D01*
X93970656Y-80838199D01*
X93970649Y-80838205D01*
X93798205Y-81010649D01*
X93798199Y-81010656D01*
X93649738Y-81204135D01*
X93649727Y-81204151D01*
X93527791Y-81415348D01*
X93527786Y-81415359D01*
X93434459Y-81640669D01*
X93434456Y-81640679D01*
X93371335Y-81876253D01*
X93371333Y-81876264D01*
X93339500Y-82118048D01*
X93339500Y-82881951D01*
X90500500Y-82881951D01*
X90500500Y-75947870D01*
X96099500Y-75947870D01*
X96099501Y-75947876D01*
X96105908Y-76007483D01*
X96156202Y-76142328D01*
X96156206Y-76142335D01*
X96242452Y-76257544D01*
X96242455Y-76257547D01*
X96357664Y-76343793D01*
X96357671Y-76343797D01*
X96492517Y-76394091D01*
X96492516Y-76394091D01*
X96499444Y-76394835D01*
X96552127Y-76400500D01*
X98447872Y-76400499D01*
X98507483Y-76394091D01*
X98642331Y-76343796D01*
X98757546Y-76257546D01*
X98843796Y-76142331D01*
X98862092Y-76093274D01*
X98903961Y-76037342D01*
X98969425Y-76012924D01*
X99037699Y-76027775D01*
X99054436Y-76038755D01*
X99231365Y-76176464D01*
X99231371Y-76176468D01*
X99231374Y-76176470D01*
X99435497Y-76286936D01*
X99549487Y-76326068D01*
X99655015Y-76362297D01*
X99655017Y-76362297D01*
X99655019Y-76362298D01*
X99883951Y-76400500D01*
X99883952Y-76400500D01*
X100116048Y-76400500D01*
X100116049Y-76400500D01*
X100344981Y-76362298D01*
X100564503Y-76286936D01*
X100768626Y-76176470D01*
X100951784Y-76033913D01*
X101108979Y-75863153D01*
X101146191Y-75806196D01*
X101199337Y-75760839D01*
X101268569Y-75751415D01*
X101331904Y-75780917D01*
X101353809Y-75806196D01*
X101391016Y-75863147D01*
X101391019Y-75863151D01*
X101391021Y-75863153D01*
X101548216Y-76033913D01*
X101548219Y-76033915D01*
X101548222Y-76033918D01*
X101731365Y-76176464D01*
X101731371Y-76176468D01*
X101731374Y-76176470D01*
X101935497Y-76286936D01*
X102049487Y-76326068D01*
X102155015Y-76362297D01*
X102155017Y-76362297D01*
X102155019Y-76362298D01*
X102383951Y-76400500D01*
X102383952Y-76400500D01*
X102616048Y-76400500D01*
X102616049Y-76400500D01*
X102844981Y-76362298D01*
X103064503Y-76286936D01*
X103268626Y-76176470D01*
X103451784Y-76033913D01*
X103608979Y-75863153D01*
X103735924Y-75668849D01*
X103829157Y-75456300D01*
X103886134Y-75231305D01*
X103905300Y-75000000D01*
X103905300Y-74999993D01*
X103886135Y-74768702D01*
X103886133Y-74768691D01*
X103829157Y-74543699D01*
X103735924Y-74331151D01*
X103608983Y-74136852D01*
X103608980Y-74136849D01*
X103608979Y-74136847D01*
X103451784Y-73966087D01*
X103451779Y-73966083D01*
X103451777Y-73966081D01*
X103268634Y-73823535D01*
X103268628Y-73823531D01*
X103064504Y-73713064D01*
X103064495Y-73713061D01*
X102844984Y-73637702D01*
X102654450Y-73605908D01*
X102616049Y-73599500D01*
X102383951Y-73599500D01*
X102345550Y-73605908D01*
X102155015Y-73637702D01*
X101935504Y-73713061D01*
X101935495Y-73713064D01*
X101731371Y-73823531D01*
X101731365Y-73823535D01*
X101548222Y-73966081D01*
X101548219Y-73966084D01*
X101548216Y-73966086D01*
X101548216Y-73966087D01*
X101400500Y-74126551D01*
X101391015Y-74136854D01*
X101353808Y-74193804D01*
X101300662Y-74239161D01*
X101231430Y-74248584D01*
X101168095Y-74219082D01*
X101146192Y-74193804D01*
X101108984Y-74136854D01*
X101108982Y-74136852D01*
X101108979Y-74136847D01*
X100951784Y-73966087D01*
X100951779Y-73966083D01*
X100951777Y-73966081D01*
X100768634Y-73823535D01*
X100768628Y-73823531D01*
X100564504Y-73713064D01*
X100564495Y-73713061D01*
X100344984Y-73637702D01*
X100154450Y-73605908D01*
X100116049Y-73599500D01*
X99883951Y-73599500D01*
X99845550Y-73605908D01*
X99655015Y-73637702D01*
X99435504Y-73713061D01*
X99435495Y-73713064D01*
X99231372Y-73823531D01*
X99054436Y-73961245D01*
X98989442Y-73986887D01*
X98920902Y-73973320D01*
X98870577Y-73924852D01*
X98862092Y-73906723D01*
X98843798Y-73857673D01*
X98843793Y-73857664D01*
X98757547Y-73742455D01*
X98757544Y-73742452D01*
X98642335Y-73656206D01*
X98642328Y-73656202D01*
X98507482Y-73605908D01*
X98507483Y-73605908D01*
X98447883Y-73599501D01*
X98447881Y-73599500D01*
X98447873Y-73599500D01*
X98447864Y-73599500D01*
X96552129Y-73599500D01*
X96552123Y-73599501D01*
X96492516Y-73605908D01*
X96357671Y-73656202D01*
X96357664Y-73656206D01*
X96242455Y-73742452D01*
X96242452Y-73742455D01*
X96156206Y-73857664D01*
X96156202Y-73857671D01*
X96105908Y-73992517D01*
X96099501Y-74052116D01*
X96099500Y-74052135D01*
X96099500Y-75947870D01*
X90500500Y-75947870D01*
X90500500Y-67881951D01*
X93339500Y-67881951D01*
X93366013Y-68083333D01*
X93371334Y-68123744D01*
X93371335Y-68123746D01*
X93434456Y-68359320D01*
X93434459Y-68359330D01*
X93527786Y-68584640D01*
X93527791Y-68584651D01*
X93649727Y-68795848D01*
X93649738Y-68795864D01*
X93798199Y-68989343D01*
X93798205Y-68989350D01*
X93970649Y-69161794D01*
X93970655Y-69161799D01*
X94164144Y-69310268D01*
X94164151Y-69310272D01*
X94375348Y-69432208D01*
X94375353Y-69432210D01*
X94375356Y-69432212D01*
X94600679Y-69525544D01*
X94836256Y-69588666D01*
X95078056Y-69620500D01*
X95078063Y-69620500D01*
X95321937Y-69620500D01*
X95321944Y-69620500D01*
X95563744Y-69588666D01*
X95799321Y-69525544D01*
X96024644Y-69432212D01*
X96235856Y-69310268D01*
X96429345Y-69161799D01*
X96601799Y-68989345D01*
X96750268Y-68795856D01*
X96872212Y-68584644D01*
X96965544Y-68359321D01*
X97028666Y-68123744D01*
X97060499Y-67881951D01*
X102939500Y-67881951D01*
X102966013Y-68083333D01*
X102971334Y-68123744D01*
X102971335Y-68123746D01*
X103034456Y-68359320D01*
X103034459Y-68359330D01*
X103127786Y-68584640D01*
X103127791Y-68584651D01*
X103249727Y-68795848D01*
X103249738Y-68795864D01*
X103398199Y-68989343D01*
X103398205Y-68989350D01*
X103570649Y-69161794D01*
X103570655Y-69161799D01*
X103764144Y-69310268D01*
X103764151Y-69310272D01*
X103975348Y-69432208D01*
X103975353Y-69432210D01*
X103975356Y-69432212D01*
X104200679Y-69525544D01*
X104436256Y-69588666D01*
X104678056Y-69620500D01*
X104678063Y-69620500D01*
X104921937Y-69620500D01*
X104921944Y-69620500D01*
X105163744Y-69588666D01*
X105399321Y-69525544D01*
X105624644Y-69432212D01*
X105835856Y-69310268D01*
X106029345Y-69161799D01*
X106201799Y-68989345D01*
X106350268Y-68795856D01*
X106472212Y-68584644D01*
X106565544Y-68359321D01*
X106628666Y-68123744D01*
X106660500Y-67881944D01*
X106660500Y-67118056D01*
X106628666Y-66876256D01*
X106565544Y-66640679D01*
X106472212Y-66415356D01*
X106472210Y-66415353D01*
X106472208Y-66415348D01*
X106350272Y-66204151D01*
X106350268Y-66204144D01*
X106201799Y-66010655D01*
X106201794Y-66010649D01*
X106029350Y-65838205D01*
X106029343Y-65838199D01*
X105835864Y-65689738D01*
X105835862Y-65689736D01*
X105835856Y-65689732D01*
X105835851Y-65689729D01*
X105835848Y-65689727D01*
X105624651Y-65567791D01*
X105624640Y-65567786D01*
X105399330Y-65474459D01*
X105399323Y-65474457D01*
X105399321Y-65474456D01*
X105163744Y-65411334D01*
X105123333Y-65406013D01*
X104921951Y-65379500D01*
X104921944Y-65379500D01*
X104678056Y-65379500D01*
X104678048Y-65379500D01*
X104447896Y-65409801D01*
X104436256Y-65411334D01*
X104200679Y-65474456D01*
X104200669Y-65474459D01*
X103975359Y-65567786D01*
X103975348Y-65567791D01*
X103764151Y-65689727D01*
X103764135Y-65689738D01*
X103570656Y-65838199D01*
X103570649Y-65838205D01*
X103398205Y-66010649D01*
X103398199Y-66010656D01*
X103249738Y-66204135D01*
X103249727Y-66204151D01*
X103127791Y-66415348D01*
X103127786Y-66415359D01*
X103034459Y-66640669D01*
X103034456Y-66640679D01*
X102971335Y-66876253D01*
X102971333Y-66876264D01*
X102939500Y-67118048D01*
X102939500Y-67881951D01*
X97060499Y-67881951D01*
X97060500Y-67881944D01*
X97060500Y-67118056D01*
X97028666Y-66876256D01*
X96965544Y-66640679D01*
X96872212Y-66415356D01*
X96872210Y-66415353D01*
X96872208Y-66415348D01*
X96750272Y-66204151D01*
X96750268Y-66204144D01*
X96601799Y-66010655D01*
X96601794Y-66010649D01*
X96429350Y-65838205D01*
X96429343Y-65838199D01*
X96235864Y-65689738D01*
X96235862Y-65689736D01*
X96235856Y-65689732D01*
X96235851Y-65689729D01*
X96235848Y-65689727D01*
X96024651Y-65567791D01*
X96024640Y-65567786D01*
X95799330Y-65474459D01*
X95799323Y-65474457D01*
X95799321Y-65474456D01*
X95563744Y-65411334D01*
X95523333Y-65406013D01*
X95321951Y-65379500D01*
X95321944Y-65379500D01*
X95078056Y-65379500D01*
X95078048Y-65379500D01*
X94847896Y-65409801D01*
X94836256Y-65411334D01*
X94600679Y-65474456D01*
X94600669Y-65474459D01*
X94375359Y-65567786D01*
X94375348Y-65567791D01*
X94164151Y-65689727D01*
X94164135Y-65689738D01*
X93970656Y-65838199D01*
X93970649Y-65838205D01*
X93798205Y-66010649D01*
X93798199Y-66010656D01*
X93649738Y-66204135D01*
X93649727Y-66204151D01*
X93527791Y-66415348D01*
X93527786Y-66415359D01*
X93434459Y-66640669D01*
X93434456Y-66640679D01*
X93371335Y-66876253D01*
X93371333Y-66876264D01*
X93339500Y-67118048D01*
X93339500Y-67881951D01*
X90500500Y-67881951D01*
X90500500Y-60947870D01*
X96099500Y-60947870D01*
X96099501Y-60947876D01*
X96105908Y-61007483D01*
X96156202Y-61142328D01*
X96156206Y-61142335D01*
X96242452Y-61257544D01*
X96242455Y-61257547D01*
X96357664Y-61343793D01*
X96357671Y-61343797D01*
X96492517Y-61394091D01*
X96492516Y-61394091D01*
X96499444Y-61394835D01*
X96552127Y-61400500D01*
X98447872Y-61400499D01*
X98507483Y-61394091D01*
X98642331Y-61343796D01*
X98757546Y-61257546D01*
X98843796Y-61142331D01*
X98862092Y-61093274D01*
X98903961Y-61037342D01*
X98969425Y-61012924D01*
X99037699Y-61027775D01*
X99054436Y-61038755D01*
X99231365Y-61176464D01*
X99231371Y-61176468D01*
X99231374Y-61176470D01*
X99435497Y-61286936D01*
X99549487Y-61326068D01*
X99655015Y-61362297D01*
X99655017Y-61362297D01*
X99655019Y-61362298D01*
X99883951Y-61400500D01*
X99883952Y-61400500D01*
X100116048Y-61400500D01*
X100116049Y-61400500D01*
X100344981Y-61362298D01*
X100564503Y-61286936D01*
X100768626Y-61176470D01*
X100951784Y-61033913D01*
X101108979Y-60863153D01*
X101146191Y-60806196D01*
X101199337Y-60760839D01*
X101268569Y-60751415D01*
X101331904Y-60780917D01*
X101353809Y-60806196D01*
X101391016Y-60863147D01*
X101391019Y-60863151D01*
X101391021Y-60863153D01*
X101548216Y-61033913D01*
X101548219Y-61033915D01*
X101548222Y-61033918D01*
X101731365Y-61176464D01*
X101731371Y-61176468D01*
X101731374Y-61176470D01*
X101935497Y-61286936D01*
X102049487Y-61326068D01*
X102155015Y-61362297D01*
X102155017Y-61362297D01*
X102155019Y-61362298D01*
X102383951Y-61400500D01*
X102383952Y-61400500D01*
X102616048Y-61400500D01*
X102616049Y-61400500D01*
X102844981Y-61362298D01*
X103064503Y-61286936D01*
X103268626Y-61176470D01*
X103451784Y-61033913D01*
X103608979Y-60863153D01*
X103735924Y-60668849D01*
X103829157Y-60456300D01*
X103886134Y-60231305D01*
X103905300Y-60000000D01*
X103905300Y-59999993D01*
X103886135Y-59768702D01*
X103886133Y-59768691D01*
X103829157Y-59543699D01*
X103735924Y-59331151D01*
X103608983Y-59136852D01*
X103608980Y-59136849D01*
X103608979Y-59136847D01*
X103451784Y-58966087D01*
X103451779Y-58966083D01*
X103451777Y-58966081D01*
X103268634Y-58823535D01*
X103268628Y-58823531D01*
X103064504Y-58713064D01*
X103064495Y-58713061D01*
X102844984Y-58637702D01*
X102654450Y-58605908D01*
X102616049Y-58599500D01*
X102383951Y-58599500D01*
X102345550Y-58605908D01*
X102155015Y-58637702D01*
X101935504Y-58713061D01*
X101935495Y-58713064D01*
X101731371Y-58823531D01*
X101731365Y-58823535D01*
X101548222Y-58966081D01*
X101548219Y-58966084D01*
X101548216Y-58966086D01*
X101548216Y-58966087D01*
X101400500Y-59126551D01*
X101391015Y-59136854D01*
X101353808Y-59193804D01*
X101300662Y-59239161D01*
X101231430Y-59248584D01*
X101168095Y-59219082D01*
X101146192Y-59193804D01*
X101108984Y-59136854D01*
X101108982Y-59136852D01*
X101108979Y-59136847D01*
X100951784Y-58966087D01*
X100951779Y-58966083D01*
X100951777Y-58966081D01*
X100768634Y-58823535D01*
X100768628Y-58823531D01*
X100564504Y-58713064D01*
X100564495Y-58713061D01*
X100344984Y-58637702D01*
X100154450Y-58605908D01*
X100116049Y-58599500D01*
X99883951Y-58599500D01*
X99845550Y-58605908D01*
X99655015Y-58637702D01*
X99435504Y-58713061D01*
X99435495Y-58713064D01*
X99231372Y-58823531D01*
X99054436Y-58961245D01*
X98989442Y-58986887D01*
X98920902Y-58973320D01*
X98870577Y-58924852D01*
X98862092Y-58906723D01*
X98843798Y-58857673D01*
X98843793Y-58857664D01*
X98757547Y-58742455D01*
X98757544Y-58742452D01*
X98642335Y-58656206D01*
X98642328Y-58656202D01*
X98507482Y-58605908D01*
X98507483Y-58605908D01*
X98447883Y-58599501D01*
X98447881Y-58599500D01*
X98447873Y-58599500D01*
X98447864Y-58599500D01*
X96552129Y-58599500D01*
X96552123Y-58599501D01*
X96492516Y-58605908D01*
X96357671Y-58656202D01*
X96357664Y-58656206D01*
X96242455Y-58742452D01*
X96242452Y-58742455D01*
X96156206Y-58857664D01*
X96156202Y-58857671D01*
X96105908Y-58992517D01*
X96099501Y-59052116D01*
X96099500Y-59052135D01*
X96099500Y-60947870D01*
X90500500Y-60947870D01*
X90500500Y-50624500D01*
X90520185Y-50557461D01*
X90572989Y-50511706D01*
X90624500Y-50500500D01*
X94045463Y-50500500D01*
X94112502Y-50520185D01*
G37*
%TD.AperFunction*%
%TA.AperFunction,Conductor*%
G36*
X107809075Y-120352007D02*
G01*
X107775000Y-120479174D01*
X107775000Y-120610826D01*
X107809075Y-120737993D01*
X107841988Y-120795000D01*
X106168012Y-120795000D01*
X106200925Y-120737993D01*
X106235000Y-120610826D01*
X106235000Y-120479174D01*
X106200925Y-120352007D01*
X106168012Y-120295000D01*
X107841988Y-120295000D01*
X107809075Y-120352007D01*
G37*
%TD.AperFunction*%
%TA.AperFunction,Conductor*%
G36*
X105985000Y-120111988D02*
G01*
X105927993Y-120079075D01*
X105800826Y-120045000D01*
X105669174Y-120045000D01*
X105542007Y-120079075D01*
X105485000Y-120111988D01*
X105485000Y-118438012D01*
X105542007Y-118470925D01*
X105669174Y-118505000D01*
X105800826Y-118505000D01*
X105927993Y-118470925D01*
X105985000Y-118438012D01*
X105985000Y-120111988D01*
G37*
%TD.AperFunction*%
%TA.AperFunction,Conductor*%
G36*
X108525000Y-120111988D02*
G01*
X108467993Y-120079075D01*
X108340826Y-120045000D01*
X108209174Y-120045000D01*
X108082007Y-120079075D01*
X108025000Y-120111988D01*
X108025000Y-118438012D01*
X108082007Y-118470925D01*
X108209174Y-118505000D01*
X108340826Y-118505000D01*
X108467993Y-118470925D01*
X108525000Y-118438012D01*
X108525000Y-120111988D01*
G37*
%TD.AperFunction*%
%TA.AperFunction,Conductor*%
G36*
X107809075Y-117812007D02*
G01*
X107775000Y-117939174D01*
X107775000Y-118070826D01*
X107809075Y-118197993D01*
X107841988Y-118255000D01*
X106168012Y-118255000D01*
X106200925Y-118197993D01*
X106235000Y-118070826D01*
X106235000Y-117939174D01*
X106200925Y-117812007D01*
X106168012Y-117755000D01*
X107841988Y-117755000D01*
X107809075Y-117812007D01*
G37*
%TD.AperFunction*%
%TA.AperFunction,Conductor*%
G36*
X105985000Y-117571988D02*
G01*
X105927993Y-117539075D01*
X105800826Y-117505000D01*
X105669174Y-117505000D01*
X105542007Y-117539075D01*
X105485000Y-117571988D01*
X105485000Y-115898012D01*
X105542007Y-115930925D01*
X105669174Y-115965000D01*
X105800826Y-115965000D01*
X105927993Y-115930925D01*
X105985000Y-115898012D01*
X105985000Y-117571988D01*
G37*
%TD.AperFunction*%
%TA.AperFunction,Conductor*%
G36*
X108525000Y-117571988D02*
G01*
X108467993Y-117539075D01*
X108340826Y-117505000D01*
X108209174Y-117505000D01*
X108082007Y-117539075D01*
X108025000Y-117571988D01*
X108025000Y-115898012D01*
X108082007Y-115930925D01*
X108209174Y-115965000D01*
X108340826Y-115965000D01*
X108467993Y-115930925D01*
X108525000Y-115898012D01*
X108525000Y-117571988D01*
G37*
%TD.AperFunction*%
%TA.AperFunction,Conductor*%
G36*
X107809075Y-115272007D02*
G01*
X107775000Y-115399174D01*
X107775000Y-115530826D01*
X107809075Y-115657993D01*
X107841988Y-115715000D01*
X106168012Y-115715000D01*
X106200925Y-115657993D01*
X106235000Y-115530826D01*
X106235000Y-115399174D01*
X106200925Y-115272007D01*
X106168012Y-115215000D01*
X107841988Y-115215000D01*
X107809075Y-115272007D01*
G37*
%TD.AperFunction*%
%TD*%
M02*
