%TF.GenerationSoftware,KiCad,Pcbnew,8.0.0*%
%TF.CreationDate,2024-08-25T22:12:22-07:00*%
%TF.ProjectId,adsr,61647372-2e6b-4696-9361-645f70636258,rev?*%
%TF.SameCoordinates,Original*%
%TF.FileFunction,Legend,Bot*%
%TF.FilePolarity,Positive*%
%FSLAX46Y46*%
G04 Gerber Fmt 4.6, Leading zero omitted, Abs format (unit mm)*
G04 Created by KiCad (PCBNEW 8.0.0) date 2024-08-25 22:12:22*
%MOMM*%
%LPD*%
G01*
G04 APERTURE LIST*
%ADD10C,0.150000*%
%ADD11C,0.120000*%
G04 APERTURE END LIST*
D10*
X103759580Y-115733333D02*
X103807200Y-115685714D01*
X103807200Y-115685714D02*
X103854819Y-115542857D01*
X103854819Y-115542857D02*
X103854819Y-115447619D01*
X103854819Y-115447619D02*
X103807200Y-115304762D01*
X103807200Y-115304762D02*
X103711961Y-115209524D01*
X103711961Y-115209524D02*
X103616723Y-115161905D01*
X103616723Y-115161905D02*
X103426247Y-115114286D01*
X103426247Y-115114286D02*
X103283390Y-115114286D01*
X103283390Y-115114286D02*
X103092914Y-115161905D01*
X103092914Y-115161905D02*
X102997676Y-115209524D01*
X102997676Y-115209524D02*
X102902438Y-115304762D01*
X102902438Y-115304762D02*
X102854819Y-115447619D01*
X102854819Y-115447619D02*
X102854819Y-115542857D01*
X102854819Y-115542857D02*
X102902438Y-115685714D01*
X102902438Y-115685714D02*
X102950057Y-115733333D01*
X102854819Y-116066667D02*
X102854819Y-116685714D01*
X102854819Y-116685714D02*
X103235771Y-116352381D01*
X103235771Y-116352381D02*
X103235771Y-116495238D01*
X103235771Y-116495238D02*
X103283390Y-116590476D01*
X103283390Y-116590476D02*
X103331009Y-116638095D01*
X103331009Y-116638095D02*
X103426247Y-116685714D01*
X103426247Y-116685714D02*
X103664342Y-116685714D01*
X103664342Y-116685714D02*
X103759580Y-116638095D01*
X103759580Y-116638095D02*
X103807200Y-116590476D01*
X103807200Y-116590476D02*
X103854819Y-116495238D01*
X103854819Y-116495238D02*
X103854819Y-116209524D01*
X103854819Y-116209524D02*
X103807200Y-116114286D01*
X103807200Y-116114286D02*
X103759580Y-116066667D01*
X107338333Y-110049819D02*
X107338333Y-110764104D01*
X107338333Y-110764104D02*
X107385952Y-110906961D01*
X107385952Y-110906961D02*
X107481190Y-111002200D01*
X107481190Y-111002200D02*
X107624047Y-111049819D01*
X107624047Y-111049819D02*
X107719285Y-111049819D01*
X106909761Y-110145057D02*
X106862142Y-110097438D01*
X106862142Y-110097438D02*
X106766904Y-110049819D01*
X106766904Y-110049819D02*
X106528809Y-110049819D01*
X106528809Y-110049819D02*
X106433571Y-110097438D01*
X106433571Y-110097438D02*
X106385952Y-110145057D01*
X106385952Y-110145057D02*
X106338333Y-110240295D01*
X106338333Y-110240295D02*
X106338333Y-110335533D01*
X106338333Y-110335533D02*
X106385952Y-110478390D01*
X106385952Y-110478390D02*
X106957380Y-111049819D01*
X106957380Y-111049819D02*
X106338333Y-111049819D01*
X96166666Y-126024819D02*
X96499999Y-125548628D01*
X96738094Y-126024819D02*
X96738094Y-125024819D01*
X96738094Y-125024819D02*
X96357142Y-125024819D01*
X96357142Y-125024819D02*
X96261904Y-125072438D01*
X96261904Y-125072438D02*
X96214285Y-125120057D01*
X96214285Y-125120057D02*
X96166666Y-125215295D01*
X96166666Y-125215295D02*
X96166666Y-125358152D01*
X96166666Y-125358152D02*
X96214285Y-125453390D01*
X96214285Y-125453390D02*
X96261904Y-125501009D01*
X96261904Y-125501009D02*
X96357142Y-125548628D01*
X96357142Y-125548628D02*
X96738094Y-125548628D01*
X95785713Y-125120057D02*
X95738094Y-125072438D01*
X95738094Y-125072438D02*
X95642856Y-125024819D01*
X95642856Y-125024819D02*
X95404761Y-125024819D01*
X95404761Y-125024819D02*
X95309523Y-125072438D01*
X95309523Y-125072438D02*
X95261904Y-125120057D01*
X95261904Y-125120057D02*
X95214285Y-125215295D01*
X95214285Y-125215295D02*
X95214285Y-125310533D01*
X95214285Y-125310533D02*
X95261904Y-125453390D01*
X95261904Y-125453390D02*
X95833332Y-126024819D01*
X95833332Y-126024819D02*
X95214285Y-126024819D01*
X104361904Y-109454819D02*
X104361904Y-110264342D01*
X104361904Y-110264342D02*
X104314285Y-110359580D01*
X104314285Y-110359580D02*
X104266666Y-110407200D01*
X104266666Y-110407200D02*
X104171428Y-110454819D01*
X104171428Y-110454819D02*
X103980952Y-110454819D01*
X103980952Y-110454819D02*
X103885714Y-110407200D01*
X103885714Y-110407200D02*
X103838095Y-110359580D01*
X103838095Y-110359580D02*
X103790476Y-110264342D01*
X103790476Y-110264342D02*
X103790476Y-109454819D01*
X102790476Y-110454819D02*
X103361904Y-110454819D01*
X103076190Y-110454819D02*
X103076190Y-109454819D01*
X103076190Y-109454819D02*
X103171428Y-109597676D01*
X103171428Y-109597676D02*
X103266666Y-109692914D01*
X103266666Y-109692914D02*
X103361904Y-109740533D01*
X92554819Y-102261905D02*
X91554819Y-102261905D01*
X91554819Y-102261905D02*
X91554819Y-102500000D01*
X91554819Y-102500000D02*
X91602438Y-102642857D01*
X91602438Y-102642857D02*
X91697676Y-102738095D01*
X91697676Y-102738095D02*
X91792914Y-102785714D01*
X91792914Y-102785714D02*
X91983390Y-102833333D01*
X91983390Y-102833333D02*
X92126247Y-102833333D01*
X92126247Y-102833333D02*
X92316723Y-102785714D01*
X92316723Y-102785714D02*
X92411961Y-102738095D01*
X92411961Y-102738095D02*
X92507200Y-102642857D01*
X92507200Y-102642857D02*
X92554819Y-102500000D01*
X92554819Y-102500000D02*
X92554819Y-102261905D01*
X91554819Y-103166667D02*
X91554819Y-103785714D01*
X91554819Y-103785714D02*
X91935771Y-103452381D01*
X91935771Y-103452381D02*
X91935771Y-103595238D01*
X91935771Y-103595238D02*
X91983390Y-103690476D01*
X91983390Y-103690476D02*
X92031009Y-103738095D01*
X92031009Y-103738095D02*
X92126247Y-103785714D01*
X92126247Y-103785714D02*
X92364342Y-103785714D01*
X92364342Y-103785714D02*
X92459580Y-103738095D01*
X92459580Y-103738095D02*
X92507200Y-103690476D01*
X92507200Y-103690476D02*
X92554819Y-103595238D01*
X92554819Y-103595238D02*
X92554819Y-103309524D01*
X92554819Y-103309524D02*
X92507200Y-103214286D01*
X92507200Y-103214286D02*
X92459580Y-103166667D01*
X94959580Y-115633333D02*
X95007200Y-115585714D01*
X95007200Y-115585714D02*
X95054819Y-115442857D01*
X95054819Y-115442857D02*
X95054819Y-115347619D01*
X95054819Y-115347619D02*
X95007200Y-115204762D01*
X95007200Y-115204762D02*
X94911961Y-115109524D01*
X94911961Y-115109524D02*
X94816723Y-115061905D01*
X94816723Y-115061905D02*
X94626247Y-115014286D01*
X94626247Y-115014286D02*
X94483390Y-115014286D01*
X94483390Y-115014286D02*
X94292914Y-115061905D01*
X94292914Y-115061905D02*
X94197676Y-115109524D01*
X94197676Y-115109524D02*
X94102438Y-115204762D01*
X94102438Y-115204762D02*
X94054819Y-115347619D01*
X94054819Y-115347619D02*
X94054819Y-115442857D01*
X94054819Y-115442857D02*
X94102438Y-115585714D01*
X94102438Y-115585714D02*
X94150057Y-115633333D01*
X94054819Y-116490476D02*
X94054819Y-116300000D01*
X94054819Y-116300000D02*
X94102438Y-116204762D01*
X94102438Y-116204762D02*
X94150057Y-116157143D01*
X94150057Y-116157143D02*
X94292914Y-116061905D01*
X94292914Y-116061905D02*
X94483390Y-116014286D01*
X94483390Y-116014286D02*
X94864342Y-116014286D01*
X94864342Y-116014286D02*
X94959580Y-116061905D01*
X94959580Y-116061905D02*
X95007200Y-116109524D01*
X95007200Y-116109524D02*
X95054819Y-116204762D01*
X95054819Y-116204762D02*
X95054819Y-116395238D01*
X95054819Y-116395238D02*
X95007200Y-116490476D01*
X95007200Y-116490476D02*
X94959580Y-116538095D01*
X94959580Y-116538095D02*
X94864342Y-116585714D01*
X94864342Y-116585714D02*
X94626247Y-116585714D01*
X94626247Y-116585714D02*
X94531009Y-116538095D01*
X94531009Y-116538095D02*
X94483390Y-116490476D01*
X94483390Y-116490476D02*
X94435771Y-116395238D01*
X94435771Y-116395238D02*
X94435771Y-116204762D01*
X94435771Y-116204762D02*
X94483390Y-116109524D01*
X94483390Y-116109524D02*
X94531009Y-116061905D01*
X94531009Y-116061905D02*
X94626247Y-116014286D01*
X106166666Y-59024819D02*
X106499999Y-58548628D01*
X106738094Y-59024819D02*
X106738094Y-58024819D01*
X106738094Y-58024819D02*
X106357142Y-58024819D01*
X106357142Y-58024819D02*
X106261904Y-58072438D01*
X106261904Y-58072438D02*
X106214285Y-58120057D01*
X106214285Y-58120057D02*
X106166666Y-58215295D01*
X106166666Y-58215295D02*
X106166666Y-58358152D01*
X106166666Y-58358152D02*
X106214285Y-58453390D01*
X106214285Y-58453390D02*
X106261904Y-58501009D01*
X106261904Y-58501009D02*
X106357142Y-58548628D01*
X106357142Y-58548628D02*
X106738094Y-58548628D01*
X105595237Y-58453390D02*
X105690475Y-58405771D01*
X105690475Y-58405771D02*
X105738094Y-58358152D01*
X105738094Y-58358152D02*
X105785713Y-58262914D01*
X105785713Y-58262914D02*
X105785713Y-58215295D01*
X105785713Y-58215295D02*
X105738094Y-58120057D01*
X105738094Y-58120057D02*
X105690475Y-58072438D01*
X105690475Y-58072438D02*
X105595237Y-58024819D01*
X105595237Y-58024819D02*
X105404761Y-58024819D01*
X105404761Y-58024819D02*
X105309523Y-58072438D01*
X105309523Y-58072438D02*
X105261904Y-58120057D01*
X105261904Y-58120057D02*
X105214285Y-58215295D01*
X105214285Y-58215295D02*
X105214285Y-58262914D01*
X105214285Y-58262914D02*
X105261904Y-58358152D01*
X105261904Y-58358152D02*
X105309523Y-58405771D01*
X105309523Y-58405771D02*
X105404761Y-58453390D01*
X105404761Y-58453390D02*
X105595237Y-58453390D01*
X105595237Y-58453390D02*
X105690475Y-58501009D01*
X105690475Y-58501009D02*
X105738094Y-58548628D01*
X105738094Y-58548628D02*
X105785713Y-58643866D01*
X105785713Y-58643866D02*
X105785713Y-58834342D01*
X105785713Y-58834342D02*
X105738094Y-58929580D01*
X105738094Y-58929580D02*
X105690475Y-58977200D01*
X105690475Y-58977200D02*
X105595237Y-59024819D01*
X105595237Y-59024819D02*
X105404761Y-59024819D01*
X105404761Y-59024819D02*
X105309523Y-58977200D01*
X105309523Y-58977200D02*
X105261904Y-58929580D01*
X105261904Y-58929580D02*
X105214285Y-58834342D01*
X105214285Y-58834342D02*
X105214285Y-58643866D01*
X105214285Y-58643866D02*
X105261904Y-58548628D01*
X105261904Y-58548628D02*
X105309523Y-58501009D01*
X105309523Y-58501009D02*
X105404761Y-58453390D01*
X103359580Y-130633333D02*
X103407200Y-130585714D01*
X103407200Y-130585714D02*
X103454819Y-130442857D01*
X103454819Y-130442857D02*
X103454819Y-130347619D01*
X103454819Y-130347619D02*
X103407200Y-130204762D01*
X103407200Y-130204762D02*
X103311961Y-130109524D01*
X103311961Y-130109524D02*
X103216723Y-130061905D01*
X103216723Y-130061905D02*
X103026247Y-130014286D01*
X103026247Y-130014286D02*
X102883390Y-130014286D01*
X102883390Y-130014286D02*
X102692914Y-130061905D01*
X102692914Y-130061905D02*
X102597676Y-130109524D01*
X102597676Y-130109524D02*
X102502438Y-130204762D01*
X102502438Y-130204762D02*
X102454819Y-130347619D01*
X102454819Y-130347619D02*
X102454819Y-130442857D01*
X102454819Y-130442857D02*
X102502438Y-130585714D01*
X102502438Y-130585714D02*
X102550057Y-130633333D01*
X103454819Y-131585714D02*
X103454819Y-131014286D01*
X103454819Y-131300000D02*
X102454819Y-131300000D01*
X102454819Y-131300000D02*
X102597676Y-131204762D01*
X102597676Y-131204762D02*
X102692914Y-131109524D01*
X102692914Y-131109524D02*
X102740533Y-131014286D01*
X92554819Y-59361905D02*
X91554819Y-59361905D01*
X91554819Y-59361905D02*
X91554819Y-59600000D01*
X91554819Y-59600000D02*
X91602438Y-59742857D01*
X91602438Y-59742857D02*
X91697676Y-59838095D01*
X91697676Y-59838095D02*
X91792914Y-59885714D01*
X91792914Y-59885714D02*
X91983390Y-59933333D01*
X91983390Y-59933333D02*
X92126247Y-59933333D01*
X92126247Y-59933333D02*
X92316723Y-59885714D01*
X92316723Y-59885714D02*
X92411961Y-59838095D01*
X92411961Y-59838095D02*
X92507200Y-59742857D01*
X92507200Y-59742857D02*
X92554819Y-59600000D01*
X92554819Y-59600000D02*
X92554819Y-59361905D01*
X91888152Y-60790476D02*
X92554819Y-60790476D01*
X91507200Y-60552381D02*
X92221485Y-60314286D01*
X92221485Y-60314286D02*
X92221485Y-60933333D01*
X101766666Y-108554819D02*
X102099999Y-108078628D01*
X102338094Y-108554819D02*
X102338094Y-107554819D01*
X102338094Y-107554819D02*
X101957142Y-107554819D01*
X101957142Y-107554819D02*
X101861904Y-107602438D01*
X101861904Y-107602438D02*
X101814285Y-107650057D01*
X101814285Y-107650057D02*
X101766666Y-107745295D01*
X101766666Y-107745295D02*
X101766666Y-107888152D01*
X101766666Y-107888152D02*
X101814285Y-107983390D01*
X101814285Y-107983390D02*
X101861904Y-108031009D01*
X101861904Y-108031009D02*
X101957142Y-108078628D01*
X101957142Y-108078628D02*
X102338094Y-108078628D01*
X101290475Y-108554819D02*
X101099999Y-108554819D01*
X101099999Y-108554819D02*
X101004761Y-108507200D01*
X101004761Y-108507200D02*
X100957142Y-108459580D01*
X100957142Y-108459580D02*
X100861904Y-108316723D01*
X100861904Y-108316723D02*
X100814285Y-108126247D01*
X100814285Y-108126247D02*
X100814285Y-107745295D01*
X100814285Y-107745295D02*
X100861904Y-107650057D01*
X100861904Y-107650057D02*
X100909523Y-107602438D01*
X100909523Y-107602438D02*
X101004761Y-107554819D01*
X101004761Y-107554819D02*
X101195237Y-107554819D01*
X101195237Y-107554819D02*
X101290475Y-107602438D01*
X101290475Y-107602438D02*
X101338094Y-107650057D01*
X101338094Y-107650057D02*
X101385713Y-107745295D01*
X101385713Y-107745295D02*
X101385713Y-107983390D01*
X101385713Y-107983390D02*
X101338094Y-108078628D01*
X101338094Y-108078628D02*
X101290475Y-108126247D01*
X101290475Y-108126247D02*
X101195237Y-108173866D01*
X101195237Y-108173866D02*
X101004761Y-108173866D01*
X101004761Y-108173866D02*
X100909523Y-108126247D01*
X100909523Y-108126247D02*
X100861904Y-108078628D01*
X100861904Y-108078628D02*
X100814285Y-107983390D01*
X105742857Y-133154819D02*
X106076190Y-132678628D01*
X106314285Y-133154819D02*
X106314285Y-132154819D01*
X106314285Y-132154819D02*
X105933333Y-132154819D01*
X105933333Y-132154819D02*
X105838095Y-132202438D01*
X105838095Y-132202438D02*
X105790476Y-132250057D01*
X105790476Y-132250057D02*
X105742857Y-132345295D01*
X105742857Y-132345295D02*
X105742857Y-132488152D01*
X105742857Y-132488152D02*
X105790476Y-132583390D01*
X105790476Y-132583390D02*
X105838095Y-132631009D01*
X105838095Y-132631009D02*
X105933333Y-132678628D01*
X105933333Y-132678628D02*
X106314285Y-132678628D01*
X104790476Y-133154819D02*
X105361904Y-133154819D01*
X105076190Y-133154819D02*
X105076190Y-132154819D01*
X105076190Y-132154819D02*
X105171428Y-132297676D01*
X105171428Y-132297676D02*
X105266666Y-132392914D01*
X105266666Y-132392914D02*
X105361904Y-132440533D01*
X103838095Y-133154819D02*
X104409523Y-133154819D01*
X104123809Y-133154819D02*
X104123809Y-132154819D01*
X104123809Y-132154819D02*
X104219047Y-132297676D01*
X104219047Y-132297676D02*
X104314285Y-132392914D01*
X104314285Y-132392914D02*
X104409523Y-132440533D01*
X92454819Y-139233333D02*
X91978628Y-138900000D01*
X92454819Y-138661905D02*
X91454819Y-138661905D01*
X91454819Y-138661905D02*
X91454819Y-139042857D01*
X91454819Y-139042857D02*
X91502438Y-139138095D01*
X91502438Y-139138095D02*
X91550057Y-139185714D01*
X91550057Y-139185714D02*
X91645295Y-139233333D01*
X91645295Y-139233333D02*
X91788152Y-139233333D01*
X91788152Y-139233333D02*
X91883390Y-139185714D01*
X91883390Y-139185714D02*
X91931009Y-139138095D01*
X91931009Y-139138095D02*
X91978628Y-139042857D01*
X91978628Y-139042857D02*
X91978628Y-138661905D01*
X92454819Y-140185714D02*
X92454819Y-139614286D01*
X92454819Y-139900000D02*
X91454819Y-139900000D01*
X91454819Y-139900000D02*
X91597676Y-139804762D01*
X91597676Y-139804762D02*
X91692914Y-139709524D01*
X91692914Y-139709524D02*
X91740533Y-139614286D01*
X106642857Y-74024819D02*
X106976190Y-73548628D01*
X107214285Y-74024819D02*
X107214285Y-73024819D01*
X107214285Y-73024819D02*
X106833333Y-73024819D01*
X106833333Y-73024819D02*
X106738095Y-73072438D01*
X106738095Y-73072438D02*
X106690476Y-73120057D01*
X106690476Y-73120057D02*
X106642857Y-73215295D01*
X106642857Y-73215295D02*
X106642857Y-73358152D01*
X106642857Y-73358152D02*
X106690476Y-73453390D01*
X106690476Y-73453390D02*
X106738095Y-73501009D01*
X106738095Y-73501009D02*
X106833333Y-73548628D01*
X106833333Y-73548628D02*
X107214285Y-73548628D01*
X105690476Y-74024819D02*
X106261904Y-74024819D01*
X105976190Y-74024819D02*
X105976190Y-73024819D01*
X105976190Y-73024819D02*
X106071428Y-73167676D01*
X106071428Y-73167676D02*
X106166666Y-73262914D01*
X106166666Y-73262914D02*
X106261904Y-73310533D01*
X105071428Y-73024819D02*
X104976190Y-73024819D01*
X104976190Y-73024819D02*
X104880952Y-73072438D01*
X104880952Y-73072438D02*
X104833333Y-73120057D01*
X104833333Y-73120057D02*
X104785714Y-73215295D01*
X104785714Y-73215295D02*
X104738095Y-73405771D01*
X104738095Y-73405771D02*
X104738095Y-73643866D01*
X104738095Y-73643866D02*
X104785714Y-73834342D01*
X104785714Y-73834342D02*
X104833333Y-73929580D01*
X104833333Y-73929580D02*
X104880952Y-73977200D01*
X104880952Y-73977200D02*
X104976190Y-74024819D01*
X104976190Y-74024819D02*
X105071428Y-74024819D01*
X105071428Y-74024819D02*
X105166666Y-73977200D01*
X105166666Y-73977200D02*
X105214285Y-73929580D01*
X105214285Y-73929580D02*
X105261904Y-73834342D01*
X105261904Y-73834342D02*
X105309523Y-73643866D01*
X105309523Y-73643866D02*
X105309523Y-73405771D01*
X105309523Y-73405771D02*
X105261904Y-73215295D01*
X105261904Y-73215295D02*
X105214285Y-73120057D01*
X105214285Y-73120057D02*
X105166666Y-73072438D01*
X105166666Y-73072438D02*
X105071428Y-73024819D01*
X92654819Y-75061905D02*
X91654819Y-75061905D01*
X91654819Y-75061905D02*
X91654819Y-75300000D01*
X91654819Y-75300000D02*
X91702438Y-75442857D01*
X91702438Y-75442857D02*
X91797676Y-75538095D01*
X91797676Y-75538095D02*
X91892914Y-75585714D01*
X91892914Y-75585714D02*
X92083390Y-75633333D01*
X92083390Y-75633333D02*
X92226247Y-75633333D01*
X92226247Y-75633333D02*
X92416723Y-75585714D01*
X92416723Y-75585714D02*
X92511961Y-75538095D01*
X92511961Y-75538095D02*
X92607200Y-75442857D01*
X92607200Y-75442857D02*
X92654819Y-75300000D01*
X92654819Y-75300000D02*
X92654819Y-75061905D01*
X91654819Y-76538095D02*
X91654819Y-76061905D01*
X91654819Y-76061905D02*
X92131009Y-76014286D01*
X92131009Y-76014286D02*
X92083390Y-76061905D01*
X92083390Y-76061905D02*
X92035771Y-76157143D01*
X92035771Y-76157143D02*
X92035771Y-76395238D01*
X92035771Y-76395238D02*
X92083390Y-76490476D01*
X92083390Y-76490476D02*
X92131009Y-76538095D01*
X92131009Y-76538095D02*
X92226247Y-76585714D01*
X92226247Y-76585714D02*
X92464342Y-76585714D01*
X92464342Y-76585714D02*
X92559580Y-76538095D01*
X92559580Y-76538095D02*
X92607200Y-76490476D01*
X92607200Y-76490476D02*
X92654819Y-76395238D01*
X92654819Y-76395238D02*
X92654819Y-76157143D01*
X92654819Y-76157143D02*
X92607200Y-76061905D01*
X92607200Y-76061905D02*
X92559580Y-76014286D01*
X95166666Y-106929580D02*
X95214285Y-106977200D01*
X95214285Y-106977200D02*
X95357142Y-107024819D01*
X95357142Y-107024819D02*
X95452380Y-107024819D01*
X95452380Y-107024819D02*
X95595237Y-106977200D01*
X95595237Y-106977200D02*
X95690475Y-106881961D01*
X95690475Y-106881961D02*
X95738094Y-106786723D01*
X95738094Y-106786723D02*
X95785713Y-106596247D01*
X95785713Y-106596247D02*
X95785713Y-106453390D01*
X95785713Y-106453390D02*
X95738094Y-106262914D01*
X95738094Y-106262914D02*
X95690475Y-106167676D01*
X95690475Y-106167676D02*
X95595237Y-106072438D01*
X95595237Y-106072438D02*
X95452380Y-106024819D01*
X95452380Y-106024819D02*
X95357142Y-106024819D01*
X95357142Y-106024819D02*
X95214285Y-106072438D01*
X95214285Y-106072438D02*
X95166666Y-106120057D01*
X94785713Y-106120057D02*
X94738094Y-106072438D01*
X94738094Y-106072438D02*
X94642856Y-106024819D01*
X94642856Y-106024819D02*
X94404761Y-106024819D01*
X94404761Y-106024819D02*
X94309523Y-106072438D01*
X94309523Y-106072438D02*
X94261904Y-106120057D01*
X94261904Y-106120057D02*
X94214285Y-106215295D01*
X94214285Y-106215295D02*
X94214285Y-106310533D01*
X94214285Y-106310533D02*
X94261904Y-106453390D01*
X94261904Y-106453390D02*
X94833332Y-107024819D01*
X94833332Y-107024819D02*
X94214285Y-107024819D01*
X94354819Y-146861905D02*
X93354819Y-146861905D01*
X93354819Y-146861905D02*
X93354819Y-147100000D01*
X93354819Y-147100000D02*
X93402438Y-147242857D01*
X93402438Y-147242857D02*
X93497676Y-147338095D01*
X93497676Y-147338095D02*
X93592914Y-147385714D01*
X93592914Y-147385714D02*
X93783390Y-147433333D01*
X93783390Y-147433333D02*
X93926247Y-147433333D01*
X93926247Y-147433333D02*
X94116723Y-147385714D01*
X94116723Y-147385714D02*
X94211961Y-147338095D01*
X94211961Y-147338095D02*
X94307200Y-147242857D01*
X94307200Y-147242857D02*
X94354819Y-147100000D01*
X94354819Y-147100000D02*
X94354819Y-146861905D01*
X94354819Y-148385714D02*
X94354819Y-147814286D01*
X94354819Y-148100000D02*
X93354819Y-148100000D01*
X93354819Y-148100000D02*
X93497676Y-148004762D01*
X93497676Y-148004762D02*
X93592914Y-147909524D01*
X93592914Y-147909524D02*
X93640533Y-147814286D01*
X109454819Y-135533333D02*
X108978628Y-135200000D01*
X109454819Y-134961905D02*
X108454819Y-134961905D01*
X108454819Y-134961905D02*
X108454819Y-135342857D01*
X108454819Y-135342857D02*
X108502438Y-135438095D01*
X108502438Y-135438095D02*
X108550057Y-135485714D01*
X108550057Y-135485714D02*
X108645295Y-135533333D01*
X108645295Y-135533333D02*
X108788152Y-135533333D01*
X108788152Y-135533333D02*
X108883390Y-135485714D01*
X108883390Y-135485714D02*
X108931009Y-135438095D01*
X108931009Y-135438095D02*
X108978628Y-135342857D01*
X108978628Y-135342857D02*
X108978628Y-134961905D01*
X108454819Y-136438095D02*
X108454819Y-135961905D01*
X108454819Y-135961905D02*
X108931009Y-135914286D01*
X108931009Y-135914286D02*
X108883390Y-135961905D01*
X108883390Y-135961905D02*
X108835771Y-136057143D01*
X108835771Y-136057143D02*
X108835771Y-136295238D01*
X108835771Y-136295238D02*
X108883390Y-136390476D01*
X108883390Y-136390476D02*
X108931009Y-136438095D01*
X108931009Y-136438095D02*
X109026247Y-136485714D01*
X109026247Y-136485714D02*
X109264342Y-136485714D01*
X109264342Y-136485714D02*
X109359580Y-136438095D01*
X109359580Y-136438095D02*
X109407200Y-136390476D01*
X109407200Y-136390476D02*
X109454819Y-136295238D01*
X109454819Y-136295238D02*
X109454819Y-136057143D01*
X109454819Y-136057143D02*
X109407200Y-135961905D01*
X109407200Y-135961905D02*
X109359580Y-135914286D01*
X106166666Y-104024819D02*
X106499999Y-103548628D01*
X106738094Y-104024819D02*
X106738094Y-103024819D01*
X106738094Y-103024819D02*
X106357142Y-103024819D01*
X106357142Y-103024819D02*
X106261904Y-103072438D01*
X106261904Y-103072438D02*
X106214285Y-103120057D01*
X106214285Y-103120057D02*
X106166666Y-103215295D01*
X106166666Y-103215295D02*
X106166666Y-103358152D01*
X106166666Y-103358152D02*
X106214285Y-103453390D01*
X106214285Y-103453390D02*
X106261904Y-103501009D01*
X106261904Y-103501009D02*
X106357142Y-103548628D01*
X106357142Y-103548628D02*
X106738094Y-103548628D01*
X105833332Y-103024819D02*
X105166666Y-103024819D01*
X105166666Y-103024819D02*
X105595237Y-104024819D01*
X94861904Y-117854819D02*
X94861904Y-118664342D01*
X94861904Y-118664342D02*
X94814285Y-118759580D01*
X94814285Y-118759580D02*
X94766666Y-118807200D01*
X94766666Y-118807200D02*
X94671428Y-118854819D01*
X94671428Y-118854819D02*
X94480952Y-118854819D01*
X94480952Y-118854819D02*
X94385714Y-118807200D01*
X94385714Y-118807200D02*
X94338095Y-118759580D01*
X94338095Y-118759580D02*
X94290476Y-118664342D01*
X94290476Y-118664342D02*
X94290476Y-117854819D01*
X93861904Y-117950057D02*
X93814285Y-117902438D01*
X93814285Y-117902438D02*
X93719047Y-117854819D01*
X93719047Y-117854819D02*
X93480952Y-117854819D01*
X93480952Y-117854819D02*
X93385714Y-117902438D01*
X93385714Y-117902438D02*
X93338095Y-117950057D01*
X93338095Y-117950057D02*
X93290476Y-118045295D01*
X93290476Y-118045295D02*
X93290476Y-118140533D01*
X93290476Y-118140533D02*
X93338095Y-118283390D01*
X93338095Y-118283390D02*
X93909523Y-118854819D01*
X93909523Y-118854819D02*
X93290476Y-118854819D01*
X105454819Y-130533333D02*
X104978628Y-130200000D01*
X105454819Y-129961905D02*
X104454819Y-129961905D01*
X104454819Y-129961905D02*
X104454819Y-130342857D01*
X104454819Y-130342857D02*
X104502438Y-130438095D01*
X104502438Y-130438095D02*
X104550057Y-130485714D01*
X104550057Y-130485714D02*
X104645295Y-130533333D01*
X104645295Y-130533333D02*
X104788152Y-130533333D01*
X104788152Y-130533333D02*
X104883390Y-130485714D01*
X104883390Y-130485714D02*
X104931009Y-130438095D01*
X104931009Y-130438095D02*
X104978628Y-130342857D01*
X104978628Y-130342857D02*
X104978628Y-129961905D01*
X104788152Y-131390476D02*
X105454819Y-131390476D01*
X104407200Y-131152381D02*
X105121485Y-130914286D01*
X105121485Y-130914286D02*
X105121485Y-131533333D01*
X103338094Y-123654819D02*
X103338094Y-122654819D01*
X103338094Y-122654819D02*
X103099999Y-122654819D01*
X103099999Y-122654819D02*
X102957142Y-122702438D01*
X102957142Y-122702438D02*
X102861904Y-122797676D01*
X102861904Y-122797676D02*
X102814285Y-122892914D01*
X102814285Y-122892914D02*
X102766666Y-123083390D01*
X102766666Y-123083390D02*
X102766666Y-123226247D01*
X102766666Y-123226247D02*
X102814285Y-123416723D01*
X102814285Y-123416723D02*
X102861904Y-123511961D01*
X102861904Y-123511961D02*
X102957142Y-123607200D01*
X102957142Y-123607200D02*
X103099999Y-123654819D01*
X103099999Y-123654819D02*
X103338094Y-123654819D01*
X102385713Y-122750057D02*
X102338094Y-122702438D01*
X102338094Y-122702438D02*
X102242856Y-122654819D01*
X102242856Y-122654819D02*
X102004761Y-122654819D01*
X102004761Y-122654819D02*
X101909523Y-122702438D01*
X101909523Y-122702438D02*
X101861904Y-122750057D01*
X101861904Y-122750057D02*
X101814285Y-122845295D01*
X101814285Y-122845295D02*
X101814285Y-122940533D01*
X101814285Y-122940533D02*
X101861904Y-123083390D01*
X101861904Y-123083390D02*
X102433332Y-123654819D01*
X102433332Y-123654819D02*
X101814285Y-123654819D01*
X108154819Y-125733333D02*
X107678628Y-125400000D01*
X108154819Y-125161905D02*
X107154819Y-125161905D01*
X107154819Y-125161905D02*
X107154819Y-125542857D01*
X107154819Y-125542857D02*
X107202438Y-125638095D01*
X107202438Y-125638095D02*
X107250057Y-125685714D01*
X107250057Y-125685714D02*
X107345295Y-125733333D01*
X107345295Y-125733333D02*
X107488152Y-125733333D01*
X107488152Y-125733333D02*
X107583390Y-125685714D01*
X107583390Y-125685714D02*
X107631009Y-125638095D01*
X107631009Y-125638095D02*
X107678628Y-125542857D01*
X107678628Y-125542857D02*
X107678628Y-125161905D01*
X107154819Y-126590476D02*
X107154819Y-126400000D01*
X107154819Y-126400000D02*
X107202438Y-126304762D01*
X107202438Y-126304762D02*
X107250057Y-126257143D01*
X107250057Y-126257143D02*
X107392914Y-126161905D01*
X107392914Y-126161905D02*
X107583390Y-126114286D01*
X107583390Y-126114286D02*
X107964342Y-126114286D01*
X107964342Y-126114286D02*
X108059580Y-126161905D01*
X108059580Y-126161905D02*
X108107200Y-126209524D01*
X108107200Y-126209524D02*
X108154819Y-126304762D01*
X108154819Y-126304762D02*
X108154819Y-126495238D01*
X108154819Y-126495238D02*
X108107200Y-126590476D01*
X108107200Y-126590476D02*
X108059580Y-126638095D01*
X108059580Y-126638095D02*
X107964342Y-126685714D01*
X107964342Y-126685714D02*
X107726247Y-126685714D01*
X107726247Y-126685714D02*
X107631009Y-126638095D01*
X107631009Y-126638095D02*
X107583390Y-126590476D01*
X107583390Y-126590476D02*
X107535771Y-126495238D01*
X107535771Y-126495238D02*
X107535771Y-126304762D01*
X107535771Y-126304762D02*
X107583390Y-126209524D01*
X107583390Y-126209524D02*
X107631009Y-126161905D01*
X107631009Y-126161905D02*
X107726247Y-126114286D01*
X96166666Y-130884819D02*
X96499999Y-130408628D01*
X96738094Y-130884819D02*
X96738094Y-129884819D01*
X96738094Y-129884819D02*
X96357142Y-129884819D01*
X96357142Y-129884819D02*
X96261904Y-129932438D01*
X96261904Y-129932438D02*
X96214285Y-129980057D01*
X96214285Y-129980057D02*
X96166666Y-130075295D01*
X96166666Y-130075295D02*
X96166666Y-130218152D01*
X96166666Y-130218152D02*
X96214285Y-130313390D01*
X96214285Y-130313390D02*
X96261904Y-130361009D01*
X96261904Y-130361009D02*
X96357142Y-130408628D01*
X96357142Y-130408628D02*
X96738094Y-130408628D01*
X95833332Y-129884819D02*
X95214285Y-129884819D01*
X95214285Y-129884819D02*
X95547618Y-130265771D01*
X95547618Y-130265771D02*
X95404761Y-130265771D01*
X95404761Y-130265771D02*
X95309523Y-130313390D01*
X95309523Y-130313390D02*
X95261904Y-130361009D01*
X95261904Y-130361009D02*
X95214285Y-130456247D01*
X95214285Y-130456247D02*
X95214285Y-130694342D01*
X95214285Y-130694342D02*
X95261904Y-130789580D01*
X95261904Y-130789580D02*
X95309523Y-130837200D01*
X95309523Y-130837200D02*
X95404761Y-130884819D01*
X95404761Y-130884819D02*
X95690475Y-130884819D01*
X95690475Y-130884819D02*
X95785713Y-130837200D01*
X95785713Y-130837200D02*
X95833332Y-130789580D01*
D11*
%TO.C,C3*%
X101146267Y-115490000D02*
X100853733Y-115490000D01*
X101146267Y-116510000D02*
X100853733Y-116510000D01*
%TO.C,J2*%
X104405000Y-111595000D02*
X107005000Y-111595000D01*
X104405000Y-124415000D02*
X104405000Y-111595000D01*
X104405000Y-124415000D02*
X109605000Y-124415000D01*
X107005000Y-111595000D02*
X107005000Y-114195000D01*
X107005000Y-114195000D02*
X109605000Y-114195000D01*
X108275000Y-111595000D02*
X109605000Y-111595000D01*
X109605000Y-111595000D02*
X109605000Y-112925000D01*
X109605000Y-124415000D02*
X109605000Y-114195000D01*
%TO.C,R2*%
X95745276Y-126477500D02*
X96254724Y-126477500D01*
X95745276Y-127522500D02*
X96254724Y-127522500D01*
%TO.C,U1*%
X97050000Y-109440000D02*
X99000000Y-109440000D01*
X97050000Y-114560000D02*
X99000000Y-114560000D01*
X100950000Y-109440000D02*
X99000000Y-109440000D01*
X100950000Y-114560000D02*
X99000000Y-114560000D01*
X101700000Y-109535000D02*
X101460000Y-109205000D01*
X101940000Y-109205000D01*
X101700000Y-109535000D01*
G36*
X101700000Y-109535000D02*
G01*
X101460000Y-109205000D01*
X101940000Y-109205000D01*
X101700000Y-109535000D01*
G37*
%TO.C,D3*%
X93000000Y-101350000D02*
X93000000Y-105360000D01*
X93000000Y-105360000D02*
X95000000Y-105360000D01*
X95000000Y-101350000D02*
X95000000Y-105360000D01*
%TO.C,C6*%
X97146267Y-115490000D02*
X96853733Y-115490000D01*
X97146267Y-116510000D02*
X96853733Y-116510000D01*
%TO.C,R8*%
X105745276Y-59477500D02*
X106254724Y-59477500D01*
X105745276Y-60522500D02*
X106254724Y-60522500D01*
%TO.C,C1*%
X102490000Y-127853733D02*
X102490000Y-128146267D01*
X103510000Y-127853733D02*
X103510000Y-128146267D01*
%TO.C,D4*%
X93000000Y-58305000D02*
X93000000Y-62315000D01*
X93000000Y-62315000D02*
X95000000Y-62315000D01*
X95000000Y-58305000D02*
X95000000Y-62315000D01*
%TO.C,R9*%
X99254724Y-107477500D02*
X98745276Y-107477500D01*
X99254724Y-108522500D02*
X98745276Y-108522500D01*
%TO.C,R11*%
X105254724Y-133477500D02*
X104745276Y-133477500D01*
X105254724Y-134522500D02*
X104745276Y-134522500D01*
%TO.C,R1*%
X91477500Y-142254724D02*
X91477500Y-141745276D01*
X92522500Y-142254724D02*
X92522500Y-141745276D01*
%TO.C,R10*%
X105745276Y-74477500D02*
X106254724Y-74477500D01*
X105745276Y-75522500D02*
X106254724Y-75522500D01*
%TO.C,D5*%
X93022500Y-74327500D02*
X93022500Y-78337500D01*
X93022500Y-78337500D02*
X95022500Y-78337500D01*
X95022500Y-74327500D02*
X95022500Y-78337500D01*
%TO.C,C2*%
X94853733Y-107490000D02*
X95146267Y-107490000D01*
X94853733Y-108510000D02*
X95146267Y-108510000D01*
%TO.C,D1*%
X91022500Y-148672500D02*
X91022500Y-144662500D01*
X93022500Y-144662500D02*
X91022500Y-144662500D01*
X93022500Y-148672500D02*
X93022500Y-144662500D01*
%TO.C,R5*%
X108477500Y-132745276D02*
X108477500Y-133254724D01*
X109522500Y-132745276D02*
X109522500Y-133254724D01*
%TO.C,R7*%
X105745276Y-104477500D02*
X106254724Y-104477500D01*
X105745276Y-105522500D02*
X106254724Y-105522500D01*
%TO.C,U2*%
X97050000Y-117440000D02*
X99000000Y-117440000D01*
X97050000Y-122560000D02*
X99000000Y-122560000D01*
X100950000Y-117440000D02*
X99000000Y-117440000D01*
X100950000Y-122560000D02*
X99000000Y-122560000D01*
X101700000Y-117535000D02*
X101460000Y-117205000D01*
X101940000Y-117205000D01*
X101700000Y-117535000D01*
G36*
X101700000Y-117535000D02*
G01*
X101460000Y-117205000D01*
X101940000Y-117205000D01*
X101700000Y-117535000D01*
G37*
%TO.C,R4*%
X104477500Y-128254724D02*
X104477500Y-127745276D01*
X105522500Y-128254724D02*
X105522500Y-127745276D01*
%TO.C,D2*%
X99350000Y-124000000D02*
X103360000Y-124000000D01*
X99350000Y-126000000D02*
X103360000Y-126000000D01*
X103360000Y-126000000D02*
X103360000Y-124000000D01*
%TO.C,R6*%
X108477500Y-128254724D02*
X108477500Y-127745276D01*
X109522500Y-128254724D02*
X109522500Y-127745276D01*
%TO.C,R3*%
X96254724Y-128477500D02*
X95745276Y-128477500D01*
X96254724Y-129522500D02*
X95745276Y-129522500D01*
%TD*%
M02*
