  0
SECTION
  2
HEADER
  9
$ANGBASE
  50
0.0
  9
$ANGDIR
  70
1
  9
$MEASUREMENT
  70
1
  0
ENDSEC
  0
SECTION
  2
TABLES
  0
TABLE
  2
LTYPE
  70
4
  0
LTYPE
  5
40F
  2
CONTINUOUS
  70
0
  3
Solid line
  72
65
  73
0
  40
0.0
  0
LTYPE
  5
410
  2
DASHDOT
 70
0
  3
Dash Dot ____ _ ____ _
 72
65
 73
4
 40
2.0
 49
1.25
 49
-0.25
 49
0.25
 49
-0.25
  0
LTYPE
  5
411
  2
DASHED
 70
0
  3
Dashed __ __ __ __ __
 72
65
 73
2
 40
0.75
 49
0.5
 49
-0.25
  0
LTYPE
  5
43B
  2
DOTTED
 70
0
  3
Dotted .  .  .  .
 72
65
 73
2
 40
0.2
 49
0.0
 49
-0.2
  0
ENDTAB
  0
TABLE
  2
STYLE
  70
4
  0
STYLE
  2
KICAD
  70
0
  40
0
  41
1
  42
1
  50
0
  71
0
  3
isocp.shx
  0
STYLE
  2
KICADB
  70
0
  40
0
  41
1
  42
1
  50
0
  71
0
  3
isocp.shx
  0
STYLE
  2
KICADI
  70
0
  40
0
  41
1
  42
1
  50
15
  71
0
  3
isocp.shx
  0
STYLE
  2
KICADBI
  70
0
  40
0
  41
1
  42
1
  50
15
  71
0
  3
isocp.shx
  0
ENDTAB
  0
TABLE
  2
LAYER
  70
1
  0
LAYER
  2
BLACK
  70
0
  62
7
  6
CONTINUOUS
  0
ENDTAB
  0
ENDSEC
  0
SECTION
  2
ENTITIES
0
LINE
8
BLACK
6
CONTINUOUS
10
105.2077709999999939
20
-147.2554639999999893
11
105.4075579999999945
21
-147.3160680000000013
0
LINE
8
BLACK
6
CONTINUOUS
10
105.4075579999999945
20
-147.3160680000000013
11
105.5916819999999916
21
-147.4144849999999849
0
LINE
8
BLACK
6
CONTINUOUS
10
105.5916819999999916
20
-147.4144849999999849
11
105.7530689999999964
21
-147.5469310000000007
0
LINE
8
BLACK
6
CONTINUOUS
10
105.7530689999999964
20
-147.5469310000000007
11
105.8855149999999981
21
-147.7083179999999913
0
LINE
8
BLACK
6
CONTINUOUS
10
105.8855149999999981
20
-147.7083179999999913
11
105.9839319999999958
21
-147.8924419999999884
0
LINE
8
BLACK
6
CONTINUOUS
10
105.9839319999999958
20
-147.8924419999999884
11
106.0445359999999937
21
-148.0922290000000032
0
LINE
8
BLACK
6
CONTINUOUS
10
106.0445359999999937
20
-148.0922290000000032
11
106.0649999999999977
21
-148.2999999999999829
0
LINE
8
BLACK
6
CONTINUOUS
10
106.0649999999999977
20
-148.2999999999999829
11
106.0445359999999937
21
-148.5077709999999911
0
LINE
8
BLACK
6
CONTINUOUS
10
106.0445359999999937
20
-148.5077709999999911
11
105.9839319999999958
21
-148.7075580000000059
0
LINE
8
BLACK
6
CONTINUOUS
10
105.9839319999999958
20
-148.7075580000000059
11
105.8855149999999981
21
-148.891682000000003
0
LINE
8
BLACK
6
CONTINUOUS
10
105.8855149999999981
20
-148.891682000000003
11
105.7530689999999964
21
-149.0530689999999936
0
LINE
8
BLACK
6
CONTINUOUS
10
105.7530689999999964
20
-149.0530689999999936
11
105.5916819999999916
21
-149.185514999999981
0
LINE
8
BLACK
6
CONTINUOUS
10
105.5916819999999916
20
-149.185514999999981
11
105.4075579999999945
21
-149.283931999999993
0
LINE
8
BLACK
6
CONTINUOUS
10
105.4075579999999945
20
-149.283931999999993
11
105.2077709999999939
21
-149.3445360000000051
0
LINE
8
BLACK
6
CONTINUOUS
10
105.2077709999999939
20
-149.3445360000000051
11
105.
21
-149.3649999999999807
0
LINE
8
BLACK
6
CONTINUOUS
10
105.
20
-149.3649999999999807
11
104.7922289999999919
21
-149.3445360000000051
0
LINE
8
BLACK
6
CONTINUOUS
10
104.7922289999999919
20
-149.3445360000000051
11
104.5924419999999913
21
-149.283931999999993
0
LINE
8
BLACK
6
CONTINUOUS
10
104.5924419999999913
20
-149.283931999999993
11
104.4083179999999942
21
-149.185514999999981
0
LINE
8
BLACK
6
CONTINUOUS
10
104.4083179999999942
20
-149.185514999999981
11
104.2469309999999894
21
-149.0530689999999936
0
LINE
8
BLACK
6
CONTINUOUS
10
104.2469309999999894
20
-149.0530689999999936
11
104.1144850000000019
21
-148.891682000000003
0
LINE
8
BLACK
6
CONTINUOUS
10
104.1144850000000019
20
-148.891682000000003
11
104.01606799999999
21
-148.7075580000000059
0
LINE
8
BLACK
6
CONTINUOUS
10
104.01606799999999
20
-148.7075580000000059
11
103.9554639999999921
21
-148.5077709999999911
0
LINE
8
BLACK
6
CONTINUOUS
10
103.9554639999999921
20
-148.5077709999999911
11
103.9350000000000023
21
-148.2999999999999829
0
LINE
8
BLACK
6
CONTINUOUS
10
103.9350000000000023
20
-148.2999999999999829
11
103.9554639999999921
21
-148.0922290000000032
0
LINE
8
BLACK
6
CONTINUOUS
10
103.9554639999999921
20
-148.0922290000000032
11
104.01606799999999
21
-147.8924419999999884
0
LINE
8
BLACK
6
CONTINUOUS
10
104.01606799999999
20
-147.8924419999999884
11
104.1144850000000019
21
-147.7083179999999913
0
LINE
8
BLACK
6
CONTINUOUS
10
104.1144850000000019
20
-147.7083179999999913
11
104.2469309999999894
21
-147.5469310000000007
0
LINE
8
BLACK
6
CONTINUOUS
10
104.2469309999999894
20
-147.5469310000000007
11
104.4083179999999942
21
-147.4144849999999849
0
LINE
8
BLACK
6
CONTINUOUS
10
104.4083179999999942
20
-147.4144849999999849
11
104.5924419999999913
21
-147.3160680000000013
0
LINE
8
BLACK
6
CONTINUOUS
10
104.5924419999999913
20
-147.3160680000000013
11
104.7922289999999919
21
-147.2554639999999893
0
LINE
8
BLACK
6
CONTINUOUS
10
104.7922289999999919
20
-147.2554639999999893
11
105.
21
-147.2349999999999852
0
LINE
8
BLACK
6
CONTINUOUS
10
105.
20
-147.2349999999999852
11
105.2077709999999939
21
-147.2554639999999893
0
LINE
8
BLACK
6
CONTINUOUS
10
95.2077709999999939
20
-143.9554640000000063
11
95.4075579999999945
21
-144.01606799999999
0
LINE
8
BLACK
6
CONTINUOUS
10
95.4075579999999945
20
-144.01606799999999
11
95.5916819999999916
21
-144.1144850000000019
0
LINE
8
BLACK
6
CONTINUOUS
10
95.5916819999999916
20
-144.1144850000000019
11
95.7530689999999964
21
-144.2469309999999894
0
LINE
8
BLACK
6
CONTINUOUS
10
95.7530689999999964
20
-144.2469309999999894
11
95.8855149999999981
21
-144.40831799999998
0
LINE
8
BLACK
6
CONTINUOUS
10
95.8855149999999981
20
-144.40831799999998
11
95.9839319999999958
21
-144.5924420000000055
0
LINE
8
BLACK
6
CONTINUOUS
10
95.9839319999999958
20
-144.5924420000000055
11
96.0445359999999937
21
-144.7922289999999919
0
LINE
8
BLACK
6
CONTINUOUS
10
96.0445359999999937
20
-144.7922289999999919
11
96.0649999999999977
21
-145.
0
LINE
8
BLACK
6
CONTINUOUS
10
96.0649999999999977
20
-145.
11
96.0445359999999937
21
-145.2077709999999797
0
LINE
8
BLACK
6
CONTINUOUS
10
96.0445359999999937
20
-145.2077709999999797
11
95.9839319999999958
21
-145.4075579999999945
0
LINE
8
BLACK
6
CONTINUOUS
10
95.9839319999999958
20
-145.4075579999999945
11
95.8855149999999981
21
-145.5916819999999916
0
LINE
8
BLACK
6
CONTINUOUS
10
95.8855149999999981
20
-145.5916819999999916
11
95.7530689999999964
21
-145.7530689999999822
0
LINE
8
BLACK
6
CONTINUOUS
10
95.7530689999999964
20
-145.7530689999999822
11
95.5916819999999916
21
-145.8855149999999981
0
LINE
8
BLACK
6
CONTINUOUS
10
95.5916819999999916
20
-145.8855149999999981
11
95.4075579999999945
21
-145.9839319999999816
0
LINE
8
BLACK
6
CONTINUOUS
10
95.4075579999999945
20
-145.9839319999999816
11
95.2077709999999939
21
-146.0445359999999937
0
LINE
8
BLACK
6
CONTINUOUS
10
95.2077709999999939
20
-146.0445359999999937
11
95.
21
-146.0649999999999977
0
LINE
8
BLACK
6
CONTINUOUS
10
95.
20
-146.0649999999999977
11
94.7922289999999919
21
-146.0445359999999937
0
LINE
8
BLACK
6
CONTINUOUS
10
94.7922289999999919
20
-146.0445359999999937
11
94.5924419999999913
21
-145.9839319999999816
0
LINE
8
BLACK
6
CONTINUOUS
10
94.5924419999999913
20
-145.9839319999999816
11
94.4083179999999942
21
-145.8855149999999981
0
LINE
8
BLACK
6
CONTINUOUS
10
94.4083179999999942
20
-145.8855149999999981
11
94.2469309999999894
21
-145.7530689999999822
0
LINE
8
BLACK
6
CONTINUOUS
10
94.2469309999999894
20
-145.7530689999999822
11
94.1144850000000019
21
-145.5916819999999916
0
LINE
8
BLACK
6
CONTINUOUS
10
94.1144850000000019
20
-145.5916819999999916
11
94.01606799999999
21
-145.4075579999999945
0
LINE
8
BLACK
6
CONTINUOUS
10
94.01606799999999
20
-145.4075579999999945
11
93.9554639999999921
21
-145.2077709999999797
0
LINE
8
BLACK
6
CONTINUOUS
10
93.9554639999999921
20
-145.2077709999999797
11
93.9350000000000023
21
-145.
0
LINE
8
BLACK
6
CONTINUOUS
10
93.9350000000000023
20
-145.
11
93.9554639999999921
21
-144.7922289999999919
0
LINE
8
BLACK
6
CONTINUOUS
10
93.9554639999999921
20
-144.7922289999999919
11
94.01606799999999
21
-144.5924420000000055
0
LINE
8
BLACK
6
CONTINUOUS
10
94.01606799999999
20
-144.5924420000000055
11
94.1144850000000019
21
-144.40831799999998
0
LINE
8
BLACK
6
CONTINUOUS
10
94.1144850000000019
20
-144.40831799999998
11
94.2469309999999894
21
-144.2469309999999894
0
LINE
8
BLACK
6
CONTINUOUS
10
94.2469309999999894
20
-144.2469309999999894
11
94.4083179999999942
21
-144.1144850000000019
0
LINE
8
BLACK
6
CONTINUOUS
10
94.4083179999999942
20
-144.1144850000000019
11
94.5924419999999913
21
-144.01606799999999
0
LINE
8
BLACK
6
CONTINUOUS
10
94.5924419999999913
20
-144.01606799999999
11
94.7922289999999919
21
-143.9554640000000063
0
LINE
8
BLACK
6
CONTINUOUS
10
94.7922289999999919
20
-143.9554640000000063
11
95.
21
-143.9350000000000023
0
LINE
8
BLACK
6
CONTINUOUS
10
95.
20
-143.9350000000000023
11
95.2077709999999939
21
-143.9554640000000063
0
LINE
8
BLACK
6
CONTINUOUS
10
105.2077709999999939
20
-138.9554640000000063
11
105.4075579999999945
21
-139.01606799999999
0
LINE
8
BLACK
6
CONTINUOUS
10
105.4075579999999945
20
-139.01606799999999
11
105.5916819999999916
21
-139.1144850000000019
0
LINE
8
BLACK
6
CONTINUOUS
10
105.5916819999999916
20
-139.1144850000000019
11
105.7530689999999964
21
-139.2469309999999894
0
LINE
8
BLACK
6
CONTINUOUS
10
105.7530689999999964
20
-139.2469309999999894
11
105.8855149999999981
21
-139.40831799999998
0
LINE
8
BLACK
6
CONTINUOUS
10
105.8855149999999981
20
-139.40831799999998
11
105.9839319999999958
21
-139.5924420000000055
0
LINE
8
BLACK
6
CONTINUOUS
10
105.9839319999999958
20
-139.5924420000000055
11
106.0445359999999937
21
-139.7922289999999919
0
LINE
8
BLACK
6
CONTINUOUS
10
106.0445359999999937
20
-139.7922289999999919
11
106.0649999999999977
21
-140.
0
LINE
8
BLACK
6
CONTINUOUS
10
106.0649999999999977
20
-140.
11
106.0445359999999937
21
-140.2077709999999797
0
LINE
8
BLACK
6
CONTINUOUS
10
106.0445359999999937
20
-140.2077709999999797
11
105.9839319999999958
21
-140.4075579999999945
0
LINE
8
BLACK
6
CONTINUOUS
10
105.9839319999999958
20
-140.4075579999999945
11
105.8855149999999981
21
-140.5916819999999916
0
LINE
8
BLACK
6
CONTINUOUS
10
105.8855149999999981
20
-140.5916819999999916
11
105.7530689999999964
21
-140.7530689999999822
0
LINE
8
BLACK
6
CONTINUOUS
10
105.7530689999999964
20
-140.7530689999999822
11
105.5916819999999916
21
-140.8855149999999981
0
LINE
8
BLACK
6
CONTINUOUS
10
105.5916819999999916
20
-140.8855149999999981
11
105.4075579999999945
21
-140.9839319999999816
0
LINE
8
BLACK
6
CONTINUOUS
10
105.4075579999999945
20
-140.9839319999999816
11
105.2077709999999939
21
-141.0445359999999937
0
LINE
8
BLACK
6
CONTINUOUS
10
105.2077709999999939
20
-141.0445359999999937
11
105.
21
-141.0649999999999977
0
LINE
8
BLACK
6
CONTINUOUS
10
105.
20
-141.0649999999999977
11
104.7922289999999919
21
-141.0445359999999937
0
LINE
8
BLACK
6
CONTINUOUS
10
104.7922289999999919
20
-141.0445359999999937
11
104.5924419999999913
21
-140.9839319999999816
0
LINE
8
BLACK
6
CONTINUOUS
10
104.5924419999999913
20
-140.9839319999999816
11
104.4083179999999942
21
-140.8855149999999981
0
LINE
8
BLACK
6
CONTINUOUS
10
104.4083179999999942
20
-140.8855149999999981
11
104.2469309999999894
21
-140.7530689999999822
0
LINE
8
BLACK
6
CONTINUOUS
10
104.2469309999999894
20
-140.7530689999999822
11
104.1144850000000019
21
-140.5916819999999916
0
LINE
8
BLACK
6
CONTINUOUS
10
104.1144850000000019
20
-140.5916819999999916
11
104.01606799999999
21
-140.4075579999999945
0
LINE
8
BLACK
6
CONTINUOUS
10
104.01606799999999
20
-140.4075579999999945
11
103.9554639999999921
21
-140.2077709999999797
0
LINE
8
BLACK
6
CONTINUOUS
10
103.9554639999999921
20
-140.2077709999999797
11
103.9350000000000023
21
-140.
0
LINE
8
BLACK
6
CONTINUOUS
10
103.9350000000000023
20
-140.
11
103.9554639999999921
21
-139.7922289999999919
0
LINE
8
BLACK
6
CONTINUOUS
10
103.9554639999999921
20
-139.7922289999999919
11
104.01606799999999
21
-139.5924420000000055
0
LINE
8
BLACK
6
CONTINUOUS
10
104.01606799999999
20
-139.5924420000000055
11
104.1144850000000019
21
-139.40831799999998
0
LINE
8
BLACK
6
CONTINUOUS
10
104.1144850000000019
20
-139.40831799999998
11
104.2469309999999894
21
-139.2469309999999894
0
LINE
8
BLACK
6
CONTINUOUS
10
104.2469309999999894
20
-139.2469309999999894
11
104.4083179999999942
21
-139.1144850000000019
0
LINE
8
BLACK
6
CONTINUOUS
10
104.4083179999999942
20
-139.1144850000000019
11
104.5924419999999913
21
-139.01606799999999
0
LINE
8
BLACK
6
CONTINUOUS
10
104.5924419999999913
20
-139.01606799999999
11
104.7922289999999919
21
-138.9554640000000063
0
LINE
8
BLACK
6
CONTINUOUS
10
104.7922289999999919
20
-138.9554640000000063
11
105.
21
-138.9350000000000023
0
LINE
8
BLACK
6
CONTINUOUS
10
105.
20
-138.9350000000000023
11
105.2077709999999939
21
-138.9554640000000063
0
LINE
8
BLACK
6
CONTINUOUS
10
101.5531149999999911
20
-136.4090489999999818
11
101.7249999999999943
21
-136.4855770000000064
0
LINE
8
BLACK
6
CONTINUOUS
10
101.7249999999999943
20
-136.4855770000000064
11
101.8772179999999992
21
-136.5961700000000008
0
LINE
8
BLACK
6
CONTINUOUS
10
101.8772179999999992
20
-136.5961700000000008
11
102.003114999999994
21
-136.7359930000000077
0
LINE
8
BLACK
6
CONTINUOUS
10
102.003114999999994
20
-136.7359930000000077
11
102.0971909999999951
21
-136.8989369999999894
0
LINE
8
BLACK
6
CONTINUOUS
10
102.0971909999999951
20
-136.8989369999999894
11
102.1553329999999988
21
-137.0778789999999958
0
LINE
8
BLACK
6
CONTINUOUS
10
102.1553329999999988
20
-137.0778789999999958
11
102.1749999999999972
21
-137.2649999999999864
0
LINE
8
BLACK
6
CONTINUOUS
10
102.1749999999999972
20
-137.2649999999999864
11
102.1553329999999988
21
-137.4521210000000053
0
LINE
8
BLACK
6
CONTINUOUS
10
102.1553329999999988
20
-137.4521210000000053
11
102.0971909999999951
21
-137.6310629999999833
0
LINE
8
BLACK
6
CONTINUOUS
10
102.0971909999999951
20
-137.6310629999999833
11
102.003114999999994
21
-137.7940069999999935
0
LINE
8
BLACK
6
CONTINUOUS
10
102.003114999999994
20
-137.7940069999999935
11
101.8772179999999992
21
-137.9338300000000004
0
LINE
8
BLACK
6
CONTINUOUS
10
101.8772179999999992
20
-137.9338300000000004
11
101.7249999999999943
21
-138.0444229999999948
0
LINE
8
BLACK
6
CONTINUOUS
10
101.7249999999999943
20
-138.0444229999999948
11
101.5531149999999911
21
-138.1209509999999909
0
LINE
8
BLACK
6
CONTINUOUS
10
101.5531149999999911
20
-138.1209509999999909
11
101.3690759999999926
21
-138.1600699999999904
0
LINE
8
BLACK
6
CONTINUOUS
10
101.3690759999999926
20
-138.1600699999999904
11
101.1809239999999903
21
-138.1600699999999904
0
LINE
8
BLACK
6
CONTINUOUS
10
101.1809239999999903
20
-138.1600699999999904
11
100.9968849999999918
21
-138.1209509999999909
0
LINE
8
BLACK
6
CONTINUOUS
10
100.9968849999999918
20
-138.1209509999999909
11
100.8249999999999886
21
-138.0444229999999948
0
LINE
8
BLACK
6
CONTINUOUS
10
100.8249999999999886
20
-138.0444229999999948
11
100.672781999999998
21
-137.9338300000000004
0
LINE
8
BLACK
6
CONTINUOUS
10
100.672781999999998
20
-137.9338300000000004
11
100.546884999999989
21
-137.7940069999999935
0
LINE
8
BLACK
6
CONTINUOUS
10
100.546884999999989
20
-137.7940069999999935
11
100.452809000000002
21
-137.6310629999999833
0
LINE
8
BLACK
6
CONTINUOUS
10
100.452809000000002
20
-137.6310629999999833
11
100.3946669999999983
21
-137.4521210000000053
0
LINE
8
BLACK
6
CONTINUOUS
10
100.3946669999999983
20
-137.4521210000000053
11
100.375
21
-137.2649999999999864
0
LINE
8
BLACK
6
CONTINUOUS
10
100.375
20
-137.2649999999999864
11
100.3946669999999983
21
-137.0778789999999958
0
LINE
8
BLACK
6
CONTINUOUS
10
100.3946669999999983
20
-137.0778789999999958
11
100.452809000000002
21
-136.8989369999999894
0
LINE
8
BLACK
6
CONTINUOUS
10
100.452809000000002
20
-136.8989369999999894
11
100.546884999999989
21
-136.7359930000000077
0
LINE
8
BLACK
6
CONTINUOUS
10
100.546884999999989
20
-136.7359930000000077
11
100.672781999999998
21
-136.5961700000000008
0
LINE
8
BLACK
6
CONTINUOUS
10
100.672781999999998
20
-136.5961700000000008
11
100.8249999999999886
21
-136.4855770000000064
0
LINE
8
BLACK
6
CONTINUOUS
10
100.8249999999999886
20
-136.4855770000000064
11
100.9968849999999918
21
-136.4090489999999818
0
LINE
8
BLACK
6
CONTINUOUS
10
100.9968849999999918
20
-136.4090489999999818
11
101.1809239999999903
21
-136.3699299999999823
0
LINE
8
BLACK
6
CONTINUOUS
10
101.1809239999999903
20
-136.3699299999999823
11
101.3690759999999926
21
-136.3699299999999823
0
LINE
8
BLACK
6
CONTINUOUS
10
101.3690759999999926
20
-136.3699299999999823
11
101.5531149999999911
21
-136.4090489999999818
0
LINE
8
BLACK
6
CONTINUOUS
10
105.9649999999999892
20
-137.8149999999999977
11
104.0349999999999966
21
-137.8149999999999977
0
LINE
8
BLACK
6
CONTINUOUS
10
104.0349999999999966
20
-137.8149999999999977
11
104.0349999999999966
21
-135.9849999999999852
0
LINE
8
BLACK
6
CONTINUOUS
10
104.0349999999999966
20
-135.9849999999999852
11
105.9649999999999892
21
-135.9849999999999852
0
LINE
8
BLACK
6
CONTINUOUS
10
105.9649999999999892
20
-135.9849999999999852
11
105.9649999999999892
21
-137.8149999999999977
0
LINE
8
BLACK
6
CONTINUOUS
10
95.2077709999999939
20
-135.6554639999999949
11
95.4075579999999945
21
-135.716068000000007
0
LINE
8
BLACK
6
CONTINUOUS
10
95.4075579999999945
20
-135.716068000000007
11
95.5916819999999916
21
-135.8144849999999906
0
LINE
8
BLACK
6
CONTINUOUS
10
95.5916819999999916
20
-135.8144849999999906
11
95.7530689999999964
21
-135.9469310000000064
0
LINE
8
BLACK
6
CONTINUOUS
10
95.7530689999999964
20
-135.9469310000000064
11
95.8855149999999981
21
-136.108317999999997
0
LINE
8
BLACK
6
CONTINUOUS
10
95.8855149999999981
20
-136.108317999999997
11
95.9839319999999958
21
-136.2924419999999941
0
LINE
8
BLACK
6
CONTINUOUS
10
95.9839319999999958
20
-136.2924419999999941
11
96.0445359999999937
21
-136.4922289999999805
0
LINE
8
BLACK
6
CONTINUOUS
10
96.0445359999999937
20
-136.4922289999999805
11
96.0649999999999977
21
-136.6999999999999886
0
LINE
8
BLACK
6
CONTINUOUS
10
96.0649999999999977
20
-136.6999999999999886
11
96.0445359999999937
21
-136.9077709999999968
0
LINE
8
BLACK
6
CONTINUOUS
10
96.0445359999999937
20
-136.9077709999999968
11
95.9839319999999958
21
-137.1075579999999832
0
LINE
8
BLACK
6
CONTINUOUS
10
95.9839319999999958
20
-137.1075579999999832
11
95.8855149999999981
21
-137.2916819999999802
0
LINE
8
BLACK
6
CONTINUOUS
10
95.8855149999999981
20
-137.2916819999999802
11
95.7530689999999964
21
-137.4530689999999993
0
LINE
8
BLACK
6
CONTINUOUS
10
95.7530689999999964
20
-137.4530689999999993
11
95.5916819999999916
21
-137.5855149999999867
0
LINE
8
BLACK
6
CONTINUOUS
10
95.5916819999999916
20
-137.5855149999999867
11
95.4075579999999945
21
-137.6839319999999987
0
LINE
8
BLACK
6
CONTINUOUS
10
95.4075579999999945
20
-137.6839319999999987
11
95.2077709999999939
21
-137.7445359999999823
0
LINE
8
BLACK
6
CONTINUOUS
10
95.2077709999999939
20
-137.7445359999999823
11
95.
21
-137.7649999999999864
0
LINE
8
BLACK
6
CONTINUOUS
10
95.
20
-137.7649999999999864
11
94.7922289999999919
21
-137.7445359999999823
0
LINE
8
BLACK
6
CONTINUOUS
10
94.7922289999999919
20
-137.7445359999999823
11
94.5924419999999913
21
-137.6839319999999987
0
LINE
8
BLACK
6
CONTINUOUS
10
94.5924419999999913
20
-137.6839319999999987
11
94.4083179999999942
21
-137.5855149999999867
0
LINE
8
BLACK
6
CONTINUOUS
10
94.4083179999999942
20
-137.5855149999999867
11
94.2469309999999894
21
-137.4530689999999993
0
LINE
8
BLACK
6
CONTINUOUS
10
94.2469309999999894
20
-137.4530689999999993
11
94.1144850000000019
21
-137.2916819999999802
0
LINE
8
BLACK
6
CONTINUOUS
10
94.1144850000000019
20
-137.2916819999999802
11
94.01606799999999
21
-137.1075579999999832
0
LINE
8
BLACK
6
CONTINUOUS
10
94.01606799999999
20
-137.1075579999999832
11
93.9554639999999921
21
-136.9077709999999968
0
LINE
8
BLACK
6
CONTINUOUS
10
93.9554639999999921
20
-136.9077709999999968
11
93.9350000000000023
21
-136.6999999999999886
0
LINE
8
BLACK
6
CONTINUOUS
10
93.9350000000000023
20
-136.6999999999999886
11
93.9554639999999921
21
-136.4922289999999805
0
LINE
8
BLACK
6
CONTINUOUS
10
93.9554639999999921
20
-136.4922289999999805
11
94.01606799999999
21
-136.2924419999999941
0
LINE
8
BLACK
6
CONTINUOUS
10
94.01606799999999
20
-136.2924419999999941
11
94.1144850000000019
21
-136.108317999999997
0
LINE
8
BLACK
6
CONTINUOUS
10
94.1144850000000019
20
-136.108317999999997
11
94.2469309999999894
21
-135.9469310000000064
0
LINE
8
BLACK
6
CONTINUOUS
10
94.2469309999999894
20
-135.9469310000000064
11
94.4083179999999942
21
-135.8144849999999906
0
LINE
8
BLACK
6
CONTINUOUS
10
94.4083179999999942
20
-135.8144849999999906
11
94.5924419999999913
21
-135.716068000000007
0
LINE
8
BLACK
6
CONTINUOUS
10
94.5924419999999913
20
-135.716068000000007
11
94.7922289999999919
21
-135.6554639999999949
0
LINE
8
BLACK
6
CONTINUOUS
10
94.7922289999999919
20
-135.6554639999999949
11
95.
21
-135.6349999999999909
0
LINE
8
BLACK
6
CONTINUOUS
10
95.
20
-135.6349999999999909
11
95.2077709999999939
21
-135.6554639999999949
0
LINE
8
BLACK
6
CONTINUOUS
10
102.1749999999999972
20
-135.625
11
100.375
21
-135.625
0
LINE
8
BLACK
6
CONTINUOUS
10
100.375
20
-135.625
11
100.375
21
-133.8249999999999886
0
LINE
8
BLACK
6
CONTINUOUS
10
100.375
20
-133.8249999999999886
11
102.1749999999999972
21
-133.8249999999999886
0
LINE
8
BLACK
6
CONTINUOUS
10
102.1749999999999972
20
-133.8249999999999886
11
102.1749999999999972
21
-135.625
0
LINE
8
BLACK
6
CONTINUOUS
10
95.9649999999999892
20
-134.5149999999999864
11
94.0349999999999966
21
-134.5149999999999864
0
LINE
8
BLACK
6
CONTINUOUS
10
94.0349999999999966
20
-134.5149999999999864
11
94.0349999999999966
21
-132.6850000000000023
0
LINE
8
BLACK
6
CONTINUOUS
10
94.0349999999999966
20
-132.6850000000000023
11
95.9649999999999892
21
-132.6850000000000023
0
LINE
8
BLACK
6
CONTINUOUS
10
95.9649999999999892
20
-132.6850000000000023
11
95.9649999999999892
21
-134.5149999999999864
0
LINE
8
BLACK
6
CONTINUOUS
10
92.293526
20
-130.0194909999999879
11
92.4259089999999901
21
-130.0549629999999866
0
LINE
8
BLACK
6
CONTINUOUS
10
92.4259089999999901
20
-130.0549629999999866
11
92.5446000000000026
21
-130.1234890000000064
0
LINE
8
BLACK
6
CONTINUOUS
10
92.5446000000000026
20
-130.1234890000000064
11
92.6415109999999942
21
-130.2203999999999837
0
LINE
8
BLACK
6
CONTINUOUS
10
92.6415109999999942
20
-130.2203999999999837
11
92.7100369999999998
21
-130.3390909999999963
0
LINE
8
BLACK
6
CONTINUOUS
10
92.7100369999999998
20
-130.3390909999999963
11
92.7455089999999984
21
-130.4714740000000006
0
LINE
8
BLACK
6
CONTINUOUS
10
92.7455089999999984
20
-130.4714740000000006
11
92.7455089999999984
21
-130.6085259999999835
0
LINE
8
BLACK
6
CONTINUOUS
10
92.7455089999999984
20
-130.6085259999999835
11
92.7100369999999998
21
-130.7409089999999878
0
LINE
8
BLACK
6
CONTINUOUS
10
92.7100369999999998
20
-130.7409089999999878
11
92.6415109999999942
21
-130.8596000000000004
0
LINE
8
BLACK
6
CONTINUOUS
10
92.6415109999999942
20
-130.8596000000000004
11
92.5446000000000026
21
-130.9565110000000061
0
LINE
8
BLACK
6
CONTINUOUS
10
92.5446000000000026
20
-130.9565110000000061
11
92.4259089999999901
21
-131.0250369999999975
0
LINE
8
BLACK
6
CONTINUOUS
10
92.4259089999999901
20
-131.0250369999999975
11
92.293526
21
-131.0605089999999961
0
LINE
8
BLACK
6
CONTINUOUS
10
92.293526
20
-131.0605089999999961
11
91.7749999999999915
21
-131.0649999999999977
0
LINE
8
BLACK
6
CONTINUOUS
10
91.7749999999999915
20
-131.0649999999999977
11
91.706474
21
-131.0605089999999961
0
LINE
8
BLACK
6
CONTINUOUS
10
91.706474
20
-131.0605089999999961
11
91.5740909999999957
21
-131.0250369999999975
0
LINE
8
BLACK
6
CONTINUOUS
10
91.5740909999999957
20
-131.0250369999999975
11
91.4553999999999974
21
-130.9565110000000061
0
LINE
8
BLACK
6
CONTINUOUS
10
91.4553999999999974
20
-130.9565110000000061
11
91.3584889999999916
21
-130.8596000000000004
0
LINE
8
BLACK
6
CONTINUOUS
10
91.3584889999999916
20
-130.8596000000000004
11
91.2899630000000002
21
-130.7409089999999878
0
LINE
8
BLACK
6
CONTINUOUS
10
91.2899630000000002
20
-130.7409089999999878
11
91.2544910000000016
21
-130.6085259999999835
0
LINE
8
BLACK
6
CONTINUOUS
10
91.2544910000000016
20
-130.6085259999999835
11
91.2544910000000016
21
-130.4714740000000006
0
LINE
8
BLACK
6
CONTINUOUS
10
91.2544910000000016
20
-130.4714740000000006
11
91.2899630000000002
21
-130.3390909999999963
0
LINE
8
BLACK
6
CONTINUOUS
10
91.2899630000000002
20
-130.3390909999999963
11
91.3584889999999916
21
-130.2203999999999837
0
LINE
8
BLACK
6
CONTINUOUS
10
91.3584889999999916
20
-130.2203999999999837
11
91.4553999999999974
21
-130.1234890000000064
0
LINE
8
BLACK
6
CONTINUOUS
10
91.4553999999999974
20
-130.1234890000000064
11
91.5740909999999957
21
-130.0549629999999866
0
LINE
8
BLACK
6
CONTINUOUS
10
91.5740909999999957
20
-130.0549629999999866
11
91.706474
21
-130.0194909999999879
0
LINE
8
BLACK
6
CONTINUOUS
10
91.706474
20
-130.0194909999999879
11
92.2249999999999943
21
-130.0149999999999864
0
LINE
8
BLACK
6
CONTINUOUS
10
92.2249999999999943
20
-130.0149999999999864
11
92.293526
21
-130.0194909999999879
0
LINE
8
BLACK
6
CONTINUOUS
10
99.293526
20
-130.0194909999999879
11
99.4259089999999901
21
-130.0549629999999866
0
LINE
8
BLACK
6
CONTINUOUS
10
99.4259089999999901
20
-130.0549629999999866
11
99.5445999999999884
21
-130.1234890000000064
0
LINE
8
BLACK
6
CONTINUOUS
10
99.5445999999999884
20
-130.1234890000000064
11
99.6415109999999942
21
-130.2203999999999837
0
LINE
8
BLACK
6
CONTINUOUS
10
99.6415109999999942
20
-130.2203999999999837
11
99.7100369999999998
21
-130.3390909999999963
0
LINE
8
BLACK
6
CONTINUOUS
10
99.7100369999999998
20
-130.3390909999999963
11
99.7455089999999984
21
-130.4714740000000006
0
LINE
8
BLACK
6
CONTINUOUS
10
99.7455089999999984
20
-130.4714740000000006
11
99.7455089999999984
21
-130.6085259999999835
0
LINE
8
BLACK
6
CONTINUOUS
10
99.7455089999999984
20
-130.6085259999999835
11
99.7100369999999998
21
-130.7409089999999878
0
LINE
8
BLACK
6
CONTINUOUS
10
99.7100369999999998
20
-130.7409089999999878
11
99.6415109999999942
21
-130.8596000000000004
0
LINE
8
BLACK
6
CONTINUOUS
10
99.6415109999999942
20
-130.8596000000000004
11
99.5445999999999884
21
-130.9565110000000061
0
LINE
8
BLACK
6
CONTINUOUS
10
99.5445999999999884
20
-130.9565110000000061
11
99.4259089999999901
21
-131.0250369999999975
0
LINE
8
BLACK
6
CONTINUOUS
10
99.4259089999999901
20
-131.0250369999999975
11
99.293526
21
-131.0605089999999961
0
LINE
8
BLACK
6
CONTINUOUS
10
99.293526
20
-131.0605089999999961
11
98.7749999999999915
21
-131.0649999999999977
0
LINE
8
BLACK
6
CONTINUOUS
10
98.7749999999999915
20
-131.0649999999999977
11
98.706474
21
-131.0605089999999961
0
LINE
8
BLACK
6
CONTINUOUS
10
98.706474
20
-131.0605089999999961
11
98.5740909999999957
21
-131.0250369999999975
0
LINE
8
BLACK
6
CONTINUOUS
10
98.5740909999999957
20
-131.0250369999999975
11
98.4553999999999974
21
-130.9565110000000061
0
LINE
8
BLACK
6
CONTINUOUS
10
98.4553999999999974
20
-130.9565110000000061
11
98.3584889999999916
21
-130.8596000000000004
0
LINE
8
BLACK
6
CONTINUOUS
10
98.3584889999999916
20
-130.8596000000000004
11
98.2899630000000002
21
-130.7409089999999878
0
LINE
8
BLACK
6
CONTINUOUS
10
98.2899630000000002
20
-130.7409089999999878
11
98.2544910000000016
21
-130.6085259999999835
0
LINE
8
BLACK
6
CONTINUOUS
10
98.2544910000000016
20
-130.6085259999999835
11
98.2544910000000016
21
-130.4714740000000006
0
LINE
8
BLACK
6
CONTINUOUS
10
98.2544910000000016
20
-130.4714740000000006
11
98.2899630000000002
21
-130.3390909999999963
0
LINE
8
BLACK
6
CONTINUOUS
10
98.2899630000000002
20
-130.3390909999999963
11
98.3584889999999916
21
-130.2203999999999837
0
LINE
8
BLACK
6
CONTINUOUS
10
98.3584889999999916
20
-130.2203999999999837
11
98.4553999999999974
21
-130.1234890000000064
0
LINE
8
BLACK
6
CONTINUOUS
10
98.4553999999999974
20
-130.1234890000000064
11
98.5740909999999957
21
-130.0549629999999866
0
LINE
8
BLACK
6
CONTINUOUS
10
98.5740909999999957
20
-130.0549629999999866
11
98.706474
21
-130.0194909999999879
0
LINE
8
BLACK
6
CONTINUOUS
10
98.706474
20
-130.0194909999999879
11
99.2249999999999943
21
-130.0149999999999864
0
LINE
8
BLACK
6
CONTINUOUS
10
99.2249999999999943
20
-130.0149999999999864
11
99.293526
21
-130.0194909999999879
0
LINE
8
BLACK
6
CONTINUOUS
10
107.293526
20
-130.0194909999999879
11
107.4259089999999901
21
-130.0549629999999866
0
LINE
8
BLACK
6
CONTINUOUS
10
107.4259089999999901
20
-130.0549629999999866
11
107.5445999999999884
21
-130.1234890000000064
0
LINE
8
BLACK
6
CONTINUOUS
10
107.5445999999999884
20
-130.1234890000000064
11
107.6415109999999942
21
-130.2203999999999837
0
LINE
8
BLACK
6
CONTINUOUS
10
107.6415109999999942
20
-130.2203999999999837
11
107.7100369999999998
21
-130.3390909999999963
0
LINE
8
BLACK
6
CONTINUOUS
10
107.7100369999999998
20
-130.3390909999999963
11
107.7455089999999984
21
-130.4714740000000006
0
LINE
8
BLACK
6
CONTINUOUS
10
107.7455089999999984
20
-130.4714740000000006
11
107.7455089999999984
21
-130.6085259999999835
0
LINE
8
BLACK
6
CONTINUOUS
10
107.7455089999999984
20
-130.6085259999999835
11
107.7100369999999998
21
-130.7409089999999878
0
LINE
8
BLACK
6
CONTINUOUS
10
107.7100369999999998
20
-130.7409089999999878
11
107.6415109999999942
21
-130.8596000000000004
0
LINE
8
BLACK
6
CONTINUOUS
10
107.6415109999999942
20
-130.8596000000000004
11
107.5445999999999884
21
-130.9565110000000061
0
LINE
8
BLACK
6
CONTINUOUS
10
107.5445999999999884
20
-130.9565110000000061
11
107.4259089999999901
21
-131.0250369999999975
0
LINE
8
BLACK
6
CONTINUOUS
10
107.4259089999999901
20
-131.0250369999999975
11
107.293526
21
-131.0605089999999961
0
LINE
8
BLACK
6
CONTINUOUS
10
107.293526
20
-131.0605089999999961
11
106.7749999999999915
21
-131.0649999999999977
0
LINE
8
BLACK
6
CONTINUOUS
10
106.7749999999999915
20
-131.0649999999999977
11
106.706474
21
-131.0605089999999961
0
LINE
8
BLACK
6
CONTINUOUS
10
106.706474
20
-131.0605089999999961
11
106.5740909999999957
21
-131.0250369999999975
0
LINE
8
BLACK
6
CONTINUOUS
10
106.5740909999999957
20
-131.0250369999999975
11
106.4553999999999974
21
-130.9565110000000061
0
LINE
8
BLACK
6
CONTINUOUS
10
106.4553999999999974
20
-130.9565110000000061
11
106.3584889999999916
21
-130.8596000000000004
0
LINE
8
BLACK
6
CONTINUOUS
10
106.3584889999999916
20
-130.8596000000000004
11
106.2899630000000002
21
-130.7409089999999878
0
LINE
8
BLACK
6
CONTINUOUS
10
106.2899630000000002
20
-130.7409089999999878
11
106.2544910000000016
21
-130.6085259999999835
0
LINE
8
BLACK
6
CONTINUOUS
10
106.2544910000000016
20
-130.6085259999999835
11
106.2544910000000016
21
-130.4714740000000006
0
LINE
8
BLACK
6
CONTINUOUS
10
106.2544910000000016
20
-130.4714740000000006
11
106.2899630000000002
21
-130.3390909999999963
0
LINE
8
BLACK
6
CONTINUOUS
10
106.2899630000000002
20
-130.3390909999999963
11
106.3584889999999916
21
-130.2203999999999837
0
LINE
8
BLACK
6
CONTINUOUS
10
106.3584889999999916
20
-130.2203999999999837
11
106.4553999999999974
21
-130.1234890000000064
0
LINE
8
BLACK
6
CONTINUOUS
10
106.4553999999999974
20
-130.1234890000000064
11
106.5740909999999957
21
-130.0549629999999866
0
LINE
8
BLACK
6
CONTINUOUS
10
106.5740909999999957
20
-130.0549629999999866
11
106.706474
21
-130.0194909999999879
0
LINE
8
BLACK
6
CONTINUOUS
10
106.706474
20
-130.0194909999999879
11
107.2249999999999943
21
-130.0149999999999864
0
LINE
8
BLACK
6
CONTINUOUS
10
107.2249999999999943
20
-130.0149999999999864
11
107.293526
21
-130.0194909999999879
0
LINE
8
BLACK
6
CONTINUOUS
10
92.293526
20
-128.7494910000000061
11
92.4259089999999901
21
-128.7849630000000047
0
LINE
8
BLACK
6
CONTINUOUS
10
92.4259089999999901
20
-128.7849630000000047
11
92.5446000000000026
21
-128.8534889999999962
0
LINE
8
BLACK
6
CONTINUOUS
10
92.5446000000000026
20
-128.8534889999999962
11
92.6415109999999942
21
-128.9504000000000019
0
LINE
8
BLACK
6
CONTINUOUS
10
92.6415109999999942
20
-128.9504000000000019
11
92.7100369999999998
21
-129.069090999999986
0
LINE
8
BLACK
6
CONTINUOUS
10
92.7100369999999998
20
-129.069090999999986
11
92.7455089999999984
21
-129.2014739999999904
0
LINE
8
BLACK
6
CONTINUOUS
10
92.7455089999999984
20
-129.2014739999999904
11
92.7455089999999984
21
-129.3385260000000017
0
LINE
8
BLACK
6
CONTINUOUS
10
92.7455089999999984
20
-129.3385260000000017
11
92.7100369999999998
21
-129.470909000000006
0
LINE
8
BLACK
6
CONTINUOUS
10
92.7100369999999998
20
-129.470909000000006
11
92.6415109999999942
21
-129.5895999999999901
0
LINE
8
BLACK
6
CONTINUOUS
10
92.6415109999999942
20
-129.5895999999999901
11
92.5446000000000026
21
-129.6865109999999959
0
LINE
8
BLACK
6
CONTINUOUS
10
92.5446000000000026
20
-129.6865109999999959
11
92.4259089999999901
21
-129.7550369999999873
0
LINE
8
BLACK
6
CONTINUOUS
10
92.4259089999999901
20
-129.7550369999999873
11
92.293526
21
-129.7905089999999859
0
LINE
8
BLACK
6
CONTINUOUS
10
92.293526
20
-129.7905089999999859
11
91.7749999999999915
21
-129.7949999999999875
0
LINE
8
BLACK
6
CONTINUOUS
10
91.7749999999999915
20
-129.7949999999999875
11
91.706474
21
-129.7905089999999859
0
LINE
8
BLACK
6
CONTINUOUS
10
91.706474
20
-129.7905089999999859
11
91.5740909999999957
21
-129.7550369999999873
0
LINE
8
BLACK
6
CONTINUOUS
10
91.5740909999999957
20
-129.7550369999999873
11
91.4553999999999974
21
-129.6865109999999959
0
LINE
8
BLACK
6
CONTINUOUS
10
91.4553999999999974
20
-129.6865109999999959
11
91.3584889999999916
21
-129.5895999999999901
0
LINE
8
BLACK
6
CONTINUOUS
10
91.3584889999999916
20
-129.5895999999999901
11
91.2899630000000002
21
-129.470909000000006
0
LINE
8
BLACK
6
CONTINUOUS
10
91.2899630000000002
20
-129.470909000000006
11
91.2544910000000016
21
-129.3385260000000017
0
LINE
8
BLACK
6
CONTINUOUS
10
91.2544910000000016
20
-129.3385260000000017
11
91.2544910000000016
21
-129.2014739999999904
0
LINE
8
BLACK
6
CONTINUOUS
10
91.2544910000000016
20
-129.2014739999999904
11
91.2899630000000002
21
-129.069090999999986
0
LINE
8
BLACK
6
CONTINUOUS
10
91.2899630000000002
20
-129.069090999999986
11
91.3584889999999916
21
-128.9504000000000019
0
LINE
8
BLACK
6
CONTINUOUS
10
91.3584889999999916
20
-128.9504000000000019
11
91.4553999999999974
21
-128.8534889999999962
0
LINE
8
BLACK
6
CONTINUOUS
10
91.4553999999999974
20
-128.8534889999999962
11
91.5740909999999957
21
-128.7849630000000047
0
LINE
8
BLACK
6
CONTINUOUS
10
91.5740909999999957
20
-128.7849630000000047
11
91.706474
21
-128.7494910000000061
0
LINE
8
BLACK
6
CONTINUOUS
10
91.706474
20
-128.7494910000000061
11
92.2249999999999943
21
-128.7450000000000045
0
LINE
8
BLACK
6
CONTINUOUS
10
92.2249999999999943
20
-128.7450000000000045
11
92.293526
21
-128.7494910000000061
0
LINE
8
BLACK
6
CONTINUOUS
10
99.293526
20
-128.7494910000000061
11
99.4259089999999901
21
-128.7849630000000047
0
LINE
8
BLACK
6
CONTINUOUS
10
99.4259089999999901
20
-128.7849630000000047
11
99.5445999999999884
21
-128.8534889999999962
0
LINE
8
BLACK
6
CONTINUOUS
10
99.5445999999999884
20
-128.8534889999999962
11
99.6415109999999942
21
-128.9504000000000019
0
LINE
8
BLACK
6
CONTINUOUS
10
99.6415109999999942
20
-128.9504000000000019
11
99.7100369999999998
21
-129.069090999999986
0
LINE
8
BLACK
6
CONTINUOUS
10
99.7100369999999998
20
-129.069090999999986
11
99.7455089999999984
21
-129.2014739999999904
0
LINE
8
BLACK
6
CONTINUOUS
10
99.7455089999999984
20
-129.2014739999999904
11
99.7455089999999984
21
-129.3385260000000017
0
LINE
8
BLACK
6
CONTINUOUS
10
99.7455089999999984
20
-129.3385260000000017
11
99.7100369999999998
21
-129.470909000000006
0
LINE
8
BLACK
6
CONTINUOUS
10
99.7100369999999998
20
-129.470909000000006
11
99.6415109999999942
21
-129.5895999999999901
0
LINE
8
BLACK
6
CONTINUOUS
10
99.6415109999999942
20
-129.5895999999999901
11
99.5445999999999884
21
-129.6865109999999959
0
LINE
8
BLACK
6
CONTINUOUS
10
99.5445999999999884
20
-129.6865109999999959
11
99.4259089999999901
21
-129.7550369999999873
0
LINE
8
BLACK
6
CONTINUOUS
10
99.4259089999999901
20
-129.7550369999999873
11
99.293526
21
-129.7905089999999859
0
LINE
8
BLACK
6
CONTINUOUS
10
99.293526
20
-129.7905089999999859
11
98.7749999999999915
21
-129.7949999999999875
0
LINE
8
BLACK
6
CONTINUOUS
10
98.7749999999999915
20
-129.7949999999999875
11
98.706474
21
-129.7905089999999859
0
LINE
8
BLACK
6
CONTINUOUS
10
98.706474
20
-129.7905089999999859
11
98.5740909999999957
21
-129.7550369999999873
0
LINE
8
BLACK
6
CONTINUOUS
10
98.5740909999999957
20
-129.7550369999999873
11
98.4553999999999974
21
-129.6865109999999959
0
LINE
8
BLACK
6
CONTINUOUS
10
98.4553999999999974
20
-129.6865109999999959
11
98.3584889999999916
21
-129.5895999999999901
0
LINE
8
BLACK
6
CONTINUOUS
10
98.3584889999999916
20
-129.5895999999999901
11
98.2899630000000002
21
-129.470909000000006
0
LINE
8
BLACK
6
CONTINUOUS
10
98.2899630000000002
20
-129.470909000000006
11
98.2544910000000016
21
-129.3385260000000017
0
LINE
8
BLACK
6
CONTINUOUS
10
98.2544910000000016
20
-129.3385260000000017
11
98.2544910000000016
21
-129.2014739999999904
0
LINE
8
BLACK
6
CONTINUOUS
10
98.2544910000000016
20
-129.2014739999999904
11
98.2899630000000002
21
-129.069090999999986
0
LINE
8
BLACK
6
CONTINUOUS
10
98.2899630000000002
20
-129.069090999999986
11
98.3584889999999916
21
-128.9504000000000019
0
LINE
8
BLACK
6
CONTINUOUS
10
98.3584889999999916
20
-128.9504000000000019
11
98.4553999999999974
21
-128.8534889999999962
0
LINE
8
BLACK
6
CONTINUOUS
10
98.4553999999999974
20
-128.8534889999999962
11
98.5740909999999957
21
-128.7849630000000047
0
LINE
8
BLACK
6
CONTINUOUS
10
98.5740909999999957
20
-128.7849630000000047
11
98.706474
21
-128.7494910000000061
0
LINE
8
BLACK
6
CONTINUOUS
10
98.706474
20
-128.7494910000000061
11
99.2249999999999943
21
-128.7450000000000045
0
LINE
8
BLACK
6
CONTINUOUS
10
99.2249999999999943
20
-128.7450000000000045
11
99.293526
21
-128.7494910000000061
0
LINE
8
BLACK
6
CONTINUOUS
10
107.293526
20
-128.7494910000000061
11
107.4259089999999901
21
-128.7849630000000047
0
LINE
8
BLACK
6
CONTINUOUS
10
107.4259089999999901
20
-128.7849630000000047
11
107.5445999999999884
21
-128.8534889999999962
0
LINE
8
BLACK
6
CONTINUOUS
10
107.5445999999999884
20
-128.8534889999999962
11
107.6415109999999942
21
-128.9504000000000019
0
LINE
8
BLACK
6
CONTINUOUS
10
107.6415109999999942
20
-128.9504000000000019
11
107.7100369999999998
21
-129.069090999999986
0
LINE
8
BLACK
6
CONTINUOUS
10
107.7100369999999998
20
-129.069090999999986
11
107.7455089999999984
21
-129.2014739999999904
0
LINE
8
BLACK
6
CONTINUOUS
10
107.7455089999999984
20
-129.2014739999999904
11
107.7455089999999984
21
-129.3385260000000017
0
LINE
8
BLACK
6
CONTINUOUS
10
107.7455089999999984
20
-129.3385260000000017
11
107.7100369999999998
21
-129.470909000000006
0
LINE
8
BLACK
6
CONTINUOUS
10
107.7100369999999998
20
-129.470909000000006
11
107.6415109999999942
21
-129.5895999999999901
0
LINE
8
BLACK
6
CONTINUOUS
10
107.6415109999999942
20
-129.5895999999999901
11
107.5445999999999884
21
-129.6865109999999959
0
LINE
8
BLACK
6
CONTINUOUS
10
107.5445999999999884
20
-129.6865109999999959
11
107.4259089999999901
21
-129.7550369999999873
0
LINE
8
BLACK
6
CONTINUOUS
10
107.4259089999999901
20
-129.7550369999999873
11
107.293526
21
-129.7905089999999859
0
LINE
8
BLACK
6
CONTINUOUS
10
107.293526
20
-129.7905089999999859
11
106.7749999999999915
21
-129.7949999999999875
0
LINE
8
BLACK
6
CONTINUOUS
10
106.7749999999999915
20
-129.7949999999999875
11
106.706474
21
-129.7905089999999859
0
LINE
8
BLACK
6
CONTINUOUS
10
106.706474
20
-129.7905089999999859
11
106.5740909999999957
21
-129.7550369999999873
0
LINE
8
BLACK
6
CONTINUOUS
10
106.5740909999999957
20
-129.7550369999999873
11
106.4553999999999974
21
-129.6865109999999959
0
LINE
8
BLACK
6
CONTINUOUS
10
106.4553999999999974
20
-129.6865109999999959
11
106.3584889999999916
21
-129.5895999999999901
0
LINE
8
BLACK
6
CONTINUOUS
10
106.3584889999999916
20
-129.5895999999999901
11
106.2899630000000002
21
-129.470909000000006
0
LINE
8
BLACK
6
CONTINUOUS
10
106.2899630000000002
20
-129.470909000000006
11
106.2544910000000016
21
-129.3385260000000017
0
LINE
8
BLACK
6
CONTINUOUS
10
106.2544910000000016
20
-129.3385260000000017
11
106.2544910000000016
21
-129.2014739999999904
0
LINE
8
BLACK
6
CONTINUOUS
10
106.2544910000000016
20
-129.2014739999999904
11
106.2899630000000002
21
-129.069090999999986
0
LINE
8
BLACK
6
CONTINUOUS
10
106.2899630000000002
20
-129.069090999999986
11
106.3584889999999916
21
-128.9504000000000019
0
LINE
8
BLACK
6
CONTINUOUS
10
106.3584889999999916
20
-128.9504000000000019
11
106.4553999999999974
21
-128.8534889999999962
0
LINE
8
BLACK
6
CONTINUOUS
10
106.4553999999999974
20
-128.8534889999999962
11
106.5740909999999957
21
-128.7849630000000047
0
LINE
8
BLACK
6
CONTINUOUS
10
106.5740909999999957
20
-128.7849630000000047
11
106.706474
21
-128.7494910000000061
0
LINE
8
BLACK
6
CONTINUOUS
10
106.706474
20
-128.7494910000000061
11
107.2249999999999943
21
-128.7450000000000045
0
LINE
8
BLACK
6
CONTINUOUS
10
107.2249999999999943
20
-128.7450000000000045
11
107.293526
21
-128.7494910000000061
0
LINE
8
BLACK
6
CONTINUOUS
10
92.75
20
-128.5250000000000057
11
91.25
21
-128.5250000000000057
0
LINE
8
BLACK
6
CONTINUOUS
10
91.25
20
-128.5250000000000057
11
91.25
21
-127.4749999999999943
0
LINE
8
BLACK
6
CONTINUOUS
10
91.25
20
-127.4749999999999943
11
92.75
21
-127.4749999999999943
0
LINE
8
BLACK
6
CONTINUOUS
10
92.75
20
-127.4749999999999943
11
92.75
21
-128.5250000000000057
0
LINE
8
BLACK
6
CONTINUOUS
10
99.75
20
-128.5250000000000057
11
98.25
21
-128.5250000000000057
0
LINE
8
BLACK
6
CONTINUOUS
10
98.25
20
-128.5250000000000057
11
98.25
21
-127.4749999999999943
0
LINE
8
BLACK
6
CONTINUOUS
10
98.25
20
-127.4749999999999943
11
99.75
21
-127.4749999999999943
0
LINE
8
BLACK
6
CONTINUOUS
10
99.75
20
-127.4749999999999943
11
99.75
21
-128.5250000000000057
0
LINE
8
BLACK
6
CONTINUOUS
10
107.75
20
-128.5250000000000057
11
106.25
21
-128.5250000000000057
0
LINE
8
BLACK
6
CONTINUOUS
10
106.25
20
-128.5250000000000057
11
106.25
21
-127.4749999999999943
0
LINE
8
BLACK
6
CONTINUOUS
10
106.25
20
-127.4749999999999943
11
107.75
21
-127.4749999999999943
0
LINE
8
BLACK
6
CONTINUOUS
10
107.75
20
-127.4749999999999943
11
107.75
21
-128.5250000000000057
0
LINE
8
BLACK
6
CONTINUOUS
10
105.9976640000000003
20
-122.2766019999999969
11
106.1599999999999966
21
-122.3488779999999991
0
LINE
8
BLACK
6
CONTINUOUS
10
106.1599999999999966
20
-122.3488779999999991
11
106.3037609999999944
21
-122.4533269999999874
0
LINE
8
BLACK
6
CONTINUOUS
10
106.3037609999999944
20
-122.4533269999999874
11
106.4226639999999975
21
-122.5853829999999931
0
LINE
8
BLACK
6
CONTINUOUS
10
106.4226639999999975
20
-122.5853829999999931
11
106.5115139999999911
21
-122.7392739999999947
0
LINE
8
BLACK
6
CONTINUOUS
10
106.5115139999999911
20
-122.7392739999999947
11
106.5664249999999953
21
-122.9082749999999891
0
LINE
8
BLACK
6
CONTINUOUS
10
106.5664249999999953
20
-122.9082749999999891
11
106.5849999999999937
21
-123.0849999999999937
0
LINE
8
BLACK
6
CONTINUOUS
10
106.5849999999999937
20
-123.0849999999999937
11
106.5664249999999953
21
-123.2617249999999984
0
LINE
8
BLACK
6
CONTINUOUS
10
106.5664249999999953
20
-123.2617249999999984
11
106.5115139999999911
21
-123.4307259999999928
0
LINE
8
BLACK
6
CONTINUOUS
10
106.5115139999999911
20
-123.4307259999999928
11
106.4226639999999975
21
-123.5846169999999944
0
LINE
8
BLACK
6
CONTINUOUS
10
106.4226639999999975
20
-123.5846169999999944
11
106.3037609999999944
21
-123.7166730000000001
0
LINE
8
BLACK
6
CONTINUOUS
10
106.3037609999999944
20
-123.7166730000000001
11
106.1599999999999966
21
-123.8211219999999884
0
LINE
8
BLACK
6
CONTINUOUS
10
106.1599999999999966
20
-123.8211219999999884
11
105.9976640000000003
21
-123.8933979999999906
0
LINE
8
BLACK
6
CONTINUOUS
10
105.9976640000000003
20
-123.8933979999999906
11
105.8238489999999956
21
-123.930343999999991
0
LINE
8
BLACK
6
CONTINUOUS
10
105.8238489999999956
20
-123.930343999999991
11
105.646150999999989
21
-123.930343999999991
0
LINE
8
BLACK
6
CONTINUOUS
10
105.646150999999989
20
-123.930343999999991
11
105.4723359999999985
21
-123.8933979999999906
0
LINE
8
BLACK
6
CONTINUOUS
10
105.4723359999999985
20
-123.8933979999999906
11
105.3100000000000023
21
-123.8211219999999884
0
LINE
8
BLACK
6
CONTINUOUS
10
105.3100000000000023
20
-123.8211219999999884
11
105.1662389999999903
21
-123.7166730000000001
0
LINE
8
BLACK
6
CONTINUOUS
10
105.1662389999999903
20
-123.7166730000000001
11
105.0473360000000014
21
-123.5846169999999944
0
LINE
8
BLACK
6
CONTINUOUS
10
105.0473360000000014
20
-123.5846169999999944
11
104.9584859999999935
21
-123.4307259999999928
0
LINE
8
BLACK
6
CONTINUOUS
10
104.9584859999999935
20
-123.4307259999999928
11
104.9035749999999894
21
-123.2617249999999984
0
LINE
8
BLACK
6
CONTINUOUS
10
104.9035749999999894
20
-123.2617249999999984
11
104.8849999999999909
21
-123.0849999999999937
0
LINE
8
BLACK
6
CONTINUOUS
10
104.8849999999999909
20
-123.0849999999999937
11
104.9035749999999894
21
-122.9082749999999891
0
LINE
8
BLACK
6
CONTINUOUS
10
104.9035749999999894
20
-122.9082749999999891
11
104.9584859999999935
21
-122.7392739999999947
0
LINE
8
BLACK
6
CONTINUOUS
10
104.9584859999999935
20
-122.7392739999999947
11
105.0473360000000014
21
-122.5853829999999931
0
LINE
8
BLACK
6
CONTINUOUS
10
105.0473360000000014
20
-122.5853829999999931
11
105.1662389999999903
21
-122.4533269999999874
0
LINE
8
BLACK
6
CONTINUOUS
10
105.1662389999999903
20
-122.4533269999999874
11
105.3100000000000023
21
-122.3488779999999991
0
LINE
8
BLACK
6
CONTINUOUS
10
105.3100000000000023
20
-122.3488779999999991
11
105.4723359999999985
21
-122.2766019999999969
0
LINE
8
BLACK
6
CONTINUOUS
10
105.4723359999999985
20
-122.2766019999999969
11
105.646150999999989
21
-122.2396559999999965
0
LINE
8
BLACK
6
CONTINUOUS
10
105.646150999999989
20
-122.2396559999999965
11
105.8238489999999956
21
-122.2396559999999965
0
LINE
8
BLACK
6
CONTINUOUS
10
105.8238489999999956
20
-122.2396559999999965
11
105.9976640000000003
21
-122.2766019999999969
0
LINE
8
BLACK
6
CONTINUOUS
10
108.5376639999999924
20
-122.2766019999999969
11
108.6999999999999886
21
-122.3488779999999991
0
LINE
8
BLACK
6
CONTINUOUS
10
108.6999999999999886
20
-122.3488779999999991
11
108.8437610000000006
21
-122.4533269999999874
0
LINE
8
BLACK
6
CONTINUOUS
10
108.8437610000000006
20
-122.4533269999999874
11
108.9626639999999895
21
-122.5853829999999931
0
LINE
8
BLACK
6
CONTINUOUS
10
108.9626639999999895
20
-122.5853829999999931
11
109.0515139999999974
21
-122.7392739999999947
0
LINE
8
BLACK
6
CONTINUOUS
10
109.0515139999999974
20
-122.7392739999999947
11
109.1064250000000015
21
-122.9082749999999891
0
LINE
8
BLACK
6
CONTINUOUS
10
109.1064250000000015
20
-122.9082749999999891
11
109.125
21
-123.0849999999999937
0
LINE
8
BLACK
6
CONTINUOUS
10
109.125
20
-123.0849999999999937
11
109.1064250000000015
21
-123.2617249999999984
0
LINE
8
BLACK
6
CONTINUOUS
10
109.1064250000000015
20
-123.2617249999999984
11
109.0515139999999974
21
-123.4307259999999928
0
LINE
8
BLACK
6
CONTINUOUS
10
109.0515139999999974
20
-123.4307259999999928
11
108.9626639999999895
21
-123.5846169999999944
0
LINE
8
BLACK
6
CONTINUOUS
10
108.9626639999999895
20
-123.5846169999999944
11
108.8437610000000006
21
-123.7166730000000001
0
LINE
8
BLACK
6
CONTINUOUS
10
108.8437610000000006
20
-123.7166730000000001
11
108.6999999999999886
21
-123.8211219999999884
0
LINE
8
BLACK
6
CONTINUOUS
10
108.6999999999999886
20
-123.8211219999999884
11
108.5376639999999924
21
-123.8933979999999906
0
LINE
8
BLACK
6
CONTINUOUS
10
108.5376639999999924
20
-123.8933979999999906
11
108.3638490000000019
21
-123.930343999999991
0
LINE
8
BLACK
6
CONTINUOUS
10
108.3638490000000019
20
-123.930343999999991
11
108.1861509999999953
21
-123.930343999999991
0
LINE
8
BLACK
6
CONTINUOUS
10
108.1861509999999953
20
-123.930343999999991
11
108.0123359999999906
21
-123.8933979999999906
0
LINE
8
BLACK
6
CONTINUOUS
10
108.0123359999999906
20
-123.8933979999999906
11
107.8499999999999943
21
-123.8211219999999884
0
LINE
8
BLACK
6
CONTINUOUS
10
107.8499999999999943
20
-123.8211219999999884
11
107.7062389999999965
21
-123.7166730000000001
0
LINE
8
BLACK
6
CONTINUOUS
10
107.7062389999999965
20
-123.7166730000000001
11
107.5873359999999934
21
-123.5846169999999944
0
LINE
8
BLACK
6
CONTINUOUS
10
107.5873359999999934
20
-123.5846169999999944
11
107.4984859999999998
21
-123.4307259999999928
0
LINE
8
BLACK
6
CONTINUOUS
10
107.4984859999999998
20
-123.4307259999999928
11
107.4435749999999956
21
-123.2617249999999984
0
LINE
8
BLACK
6
CONTINUOUS
10
107.4435749999999956
20
-123.2617249999999984
11
107.4249999999999972
21
-123.0849999999999937
0
LINE
8
BLACK
6
CONTINUOUS
10
107.4249999999999972
20
-123.0849999999999937
11
107.4435749999999956
21
-122.9082749999999891
0
LINE
8
BLACK
6
CONTINUOUS
10
107.4435749999999956
20
-122.9082749999999891
11
107.4984859999999998
21
-122.7392739999999947
0
LINE
8
BLACK
6
CONTINUOUS
10
107.4984859999999998
20
-122.7392739999999947
11
107.5873359999999934
21
-122.5853829999999931
0
LINE
8
BLACK
6
CONTINUOUS
10
107.5873359999999934
20
-122.5853829999999931
11
107.7062389999999965
21
-122.4533269999999874
0
LINE
8
BLACK
6
CONTINUOUS
10
107.7062389999999965
20
-122.4533269999999874
11
107.8499999999999943
21
-122.3488779999999991
0
LINE
8
BLACK
6
CONTINUOUS
10
107.8499999999999943
20
-122.3488779999999991
11
108.0123359999999906
21
-122.2766019999999969
0
LINE
8
BLACK
6
CONTINUOUS
10
108.0123359999999906
20
-122.2766019999999969
11
108.1861509999999953
21
-122.2396559999999965
0
LINE
8
BLACK
6
CONTINUOUS
10
108.1861509999999953
20
-122.2396559999999965
11
108.3638490000000019
21
-122.2396559999999965
0
LINE
8
BLACK
6
CONTINUOUS
10
108.3638490000000019
20
-122.2396559999999965
11
108.5376639999999924
21
-122.2766019999999969
0
LINE
8
BLACK
6
CONTINUOUS
10
93.1331289999999967
20
-122.2649439999999998
11
93.3022189999999938
21
-122.3241109999999878
0
LINE
8
BLACK
6
CONTINUOUS
10
93.3022189999999938
20
-122.3241109999999878
11
93.4539039999999943
21
-122.4194209999999998
0
LINE
8
BLACK
6
CONTINUOUS
10
93.4539039999999943
20
-122.4194209999999998
11
93.580576999999991
21
-122.5460939999999965
0
LINE
8
BLACK
6
CONTINUOUS
10
93.580576999999991
20
-122.5460939999999965
11
93.6758869999999888
21
-122.697778999999997
0
LINE
8
BLACK
6
CONTINUOUS
10
93.6758869999999888
20
-122.697778999999997
11
93.735053999999991
21
-122.8668689999999941
0
LINE
8
BLACK
6
CONTINUOUS
10
93.735053999999991
20
-122.8668689999999941
11
93.7551119999999969
21
-123.0448859999999911
0
LINE
8
BLACK
6
CONTINUOUS
10
93.7551119999999969
20
-123.0448859999999911
11
93.735053999999991
21
-123.2229029999999881
0
LINE
8
BLACK
6
CONTINUOUS
10
93.735053999999991
20
-123.2229029999999881
11
93.6758869999999888
21
-123.3919929999999994
0
LINE
8
BLACK
6
CONTINUOUS
10
93.6758869999999888
20
-123.3919929999999994
11
93.580576999999991
21
-123.5436779999999999
0
LINE
8
BLACK
6
CONTINUOUS
10
93.580576999999991
20
-123.5436779999999999
11
93.4539039999999943
21
-123.6703509999999966
0
LINE
8
BLACK
6
CONTINUOUS
10
93.4539039999999943
20
-123.6703509999999966
11
93.3022189999999938
21
-123.7656609999999944
0
LINE
8
BLACK
6
CONTINUOUS
10
93.3022189999999938
20
-123.7656609999999944
11
93.1331289999999967
21
-123.8248279999999966
0
LINE
8
BLACK
6
CONTINUOUS
10
93.1331289999999967
20
-123.8248279999999966
11
92.9551119999999997
21
-123.8448859999999883
0
LINE
8
BLACK
6
CONTINUOUS
10
92.9551119999999997
20
-123.8448859999999883
11
92.7770950000000028
21
-123.8248279999999966
0
LINE
8
BLACK
6
CONTINUOUS
10
92.7770950000000028
20
-123.8248279999999966
11
92.6080049999999915
21
-123.7656609999999944
0
LINE
8
BLACK
6
CONTINUOUS
10
92.6080049999999915
20
-123.7656609999999944
11
92.456319999999991
21
-123.6703509999999966
0
LINE
8
BLACK
6
CONTINUOUS
10
92.456319999999991
20
-123.6703509999999966
11
92.3296469999999943
21
-123.5436779999999999
0
LINE
8
BLACK
6
CONTINUOUS
10
92.3296469999999943
20
-123.5436779999999999
11
92.2343369999999965
21
-123.3919929999999994
0
LINE
8
BLACK
6
CONTINUOUS
10
92.2343369999999965
20
-123.3919929999999994
11
92.1751699999999943
21
-123.2229029999999881
0
LINE
8
BLACK
6
CONTINUOUS
10
92.1751699999999943
20
-123.2229029999999881
11
92.1551120000000026
21
-123.0448859999999911
0
LINE
8
BLACK
6
CONTINUOUS
10
92.1551120000000026
20
-123.0448859999999911
11
92.1751699999999943
21
-122.8668689999999941
0
LINE
8
BLACK
6
CONTINUOUS
10
92.1751699999999943
20
-122.8668689999999941
11
92.2343369999999965
21
-122.697778999999997
0
LINE
8
BLACK
6
CONTINUOUS
10
92.2343369999999965
20
-122.697778999999997
11
92.3296469999999943
21
-122.5460939999999965
0
LINE
8
BLACK
6
CONTINUOUS
10
92.3296469999999943
20
-122.5460939999999965
11
92.456319999999991
21
-122.4194209999999998
0
LINE
8
BLACK
6
CONTINUOUS
10
92.456319999999991
20
-122.4194209999999998
11
92.6080049999999915
21
-122.3241109999999878
0
LINE
8
BLACK
6
CONTINUOUS
10
92.6080049999999915
20
-122.3241109999999878
11
92.7770950000000028
21
-122.2649439999999998
0
LINE
8
BLACK
6
CONTINUOUS
10
92.7770950000000028
20
-122.2649439999999998
11
92.9551119999999997
21
-122.2448859999999939
0
LINE
8
BLACK
6
CONTINUOUS
10
92.9551119999999997
20
-122.2448859999999939
11
93.1331289999999967
21
-122.2649439999999998
0
LINE
8
BLACK
6
CONTINUOUS
10
93.7551119999999969
20
-121.8448859999999883
11
92.1551120000000026
21
-121.8448859999999883
0
LINE
8
BLACK
6
CONTINUOUS
10
92.1551120000000026
20
-121.8448859999999883
11
92.1551120000000026
21
-120.2448859999999939
0
LINE
8
BLACK
6
CONTINUOUS
10
92.1551120000000026
20
-120.2448859999999939
11
93.7551119999999969
21
-120.2448859999999939
0
LINE
8
BLACK
6
CONTINUOUS
10
93.7551119999999969
20
-120.2448859999999939
11
93.7551119999999969
21
-121.8448859999999883
0
LINE
8
BLACK
6
CONTINUOUS
10
105.9976640000000003
20
-119.7366019999999907
11
106.1599999999999966
21
-119.8088779999999929
0
LINE
8
BLACK
6
CONTINUOUS
10
106.1599999999999966
20
-119.8088779999999929
11
106.3037609999999944
21
-119.9133269999999953
0
LINE
8
BLACK
6
CONTINUOUS
10
106.3037609999999944
20
-119.9133269999999953
11
106.4226639999999975
21
-120.0453830000000011
0
LINE
8
BLACK
6
CONTINUOUS
10
106.4226639999999975
20
-120.0453830000000011
11
106.5115139999999911
21
-120.1992739999999884
0
LINE
8
BLACK
6
CONTINUOUS
10
106.5115139999999911
20
-120.1992739999999884
11
106.5664249999999953
21
-120.368274999999997
0
LINE
8
BLACK
6
CONTINUOUS
10
106.5664249999999953
20
-120.368274999999997
11
106.5849999999999937
21
-120.5449999999999875
0
LINE
8
BLACK
6
CONTINUOUS
10
106.5849999999999937
20
-120.5449999999999875
11
106.5664249999999953
21
-120.7217249999999922
0
LINE
8
BLACK
6
CONTINUOUS
10
106.5664249999999953
20
-120.7217249999999922
11
106.5115139999999911
21
-120.8907260000000008
0
LINE
8
BLACK
6
CONTINUOUS
10
106.5115139999999911
20
-120.8907260000000008
11
106.4226639999999975
21
-121.0446169999999881
0
LINE
8
BLACK
6
CONTINUOUS
10
106.4226639999999975
20
-121.0446169999999881
11
106.3037609999999944
21
-121.1766729999999939
0
LINE
8
BLACK
6
CONTINUOUS
10
106.3037609999999944
20
-121.1766729999999939
11
106.1599999999999966
21
-121.2811219999999963
0
LINE
8
BLACK
6
CONTINUOUS
10
106.1599999999999966
20
-121.2811219999999963
11
105.9976640000000003
21
-121.3533979999999985
0
LINE
8
BLACK
6
CONTINUOUS
10
105.9976640000000003
20
-121.3533979999999985
11
105.8238489999999956
21
-121.3903439999999989
0
LINE
8
BLACK
6
CONTINUOUS
10
105.8238489999999956
20
-121.3903439999999989
11
105.646150999999989
21
-121.3903439999999989
0
LINE
8
BLACK
6
CONTINUOUS
10
105.646150999999989
20
-121.3903439999999989
11
105.4723359999999985
21
-121.3533979999999985
0
LINE
8
BLACK
6
CONTINUOUS
10
105.4723359999999985
20
-121.3533979999999985
11
105.3100000000000023
21
-121.2811219999999963
0
LINE
8
BLACK
6
CONTINUOUS
10
105.3100000000000023
20
-121.2811219999999963
11
105.1662389999999903
21
-121.1766729999999939
0
LINE
8
BLACK
6
CONTINUOUS
10
105.1662389999999903
20
-121.1766729999999939
11
105.0473360000000014
21
-121.0446169999999881
0
LINE
8
BLACK
6
CONTINUOUS
10
105.0473360000000014
20
-121.0446169999999881
11
104.9584859999999935
21
-120.8907260000000008
0
LINE
8
BLACK
6
CONTINUOUS
10
104.9584859999999935
20
-120.8907260000000008
11
104.9035749999999894
21
-120.7217249999999922
0
LINE
8
BLACK
6
CONTINUOUS
10
104.9035749999999894
20
-120.7217249999999922
11
104.8849999999999909
21
-120.5449999999999875
0
LINE
8
BLACK
6
CONTINUOUS
10
104.8849999999999909
20
-120.5449999999999875
11
104.9035749999999894
21
-120.368274999999997
0
LINE
8
BLACK
6
CONTINUOUS
10
104.9035749999999894
20
-120.368274999999997
11
104.9584859999999935
21
-120.1992739999999884
0
LINE
8
BLACK
6
CONTINUOUS
10
104.9584859999999935
20
-120.1992739999999884
11
105.0473360000000014
21
-120.0453830000000011
0
LINE
8
BLACK
6
CONTINUOUS
10
105.0473360000000014
20
-120.0453830000000011
11
105.1662389999999903
21
-119.9133269999999953
0
LINE
8
BLACK
6
CONTINUOUS
10
105.1662389999999903
20
-119.9133269999999953
11
105.3100000000000023
21
-119.8088779999999929
0
LINE
8
BLACK
6
CONTINUOUS
10
105.3100000000000023
20
-119.8088779999999929
11
105.4723359999999985
21
-119.7366019999999907
0
LINE
8
BLACK
6
CONTINUOUS
10
105.4723359999999985
20
-119.7366019999999907
11
105.646150999999989
21
-119.6996559999999903
0
LINE
8
BLACK
6
CONTINUOUS
10
105.646150999999989
20
-119.6996559999999903
11
105.8238489999999956
21
-119.6996559999999903
0
LINE
8
BLACK
6
CONTINUOUS
10
105.8238489999999956
20
-119.6996559999999903
11
105.9976640000000003
21
-119.7366019999999907
0
LINE
8
BLACK
6
CONTINUOUS
10
108.5376639999999924
20
-119.7366019999999907
11
108.6999999999999886
21
-119.8088779999999929
0
LINE
8
BLACK
6
CONTINUOUS
10
108.6999999999999886
20
-119.8088779999999929
11
108.8437610000000006
21
-119.9133269999999953
0
LINE
8
BLACK
6
CONTINUOUS
10
108.8437610000000006
20
-119.9133269999999953
11
108.9626639999999895
21
-120.0453830000000011
0
LINE
8
BLACK
6
CONTINUOUS
10
108.9626639999999895
20
-120.0453830000000011
11
109.0515139999999974
21
-120.1992739999999884
0
LINE
8
BLACK
6
CONTINUOUS
10
109.0515139999999974
20
-120.1992739999999884
11
109.1064250000000015
21
-120.368274999999997
0
LINE
8
BLACK
6
CONTINUOUS
10
109.1064250000000015
20
-120.368274999999997
11
109.125
21
-120.5449999999999875
0
LINE
8
BLACK
6
CONTINUOUS
10
109.125
20
-120.5449999999999875
11
109.1064250000000015
21
-120.7217249999999922
0
LINE
8
BLACK
6
CONTINUOUS
10
109.1064250000000015
20
-120.7217249999999922
11
109.0515139999999974
21
-120.8907260000000008
0
LINE
8
BLACK
6
CONTINUOUS
10
109.0515139999999974
20
-120.8907260000000008
11
108.9626639999999895
21
-121.0446169999999881
0
LINE
8
BLACK
6
CONTINUOUS
10
108.9626639999999895
20
-121.0446169999999881
11
108.8437610000000006
21
-121.1766729999999939
0
LINE
8
BLACK
6
CONTINUOUS
10
108.8437610000000006
20
-121.1766729999999939
11
108.6999999999999886
21
-121.2811219999999963
0
LINE
8
BLACK
6
CONTINUOUS
10
108.6999999999999886
20
-121.2811219999999963
11
108.5376639999999924
21
-121.3533979999999985
0
LINE
8
BLACK
6
CONTINUOUS
10
108.5376639999999924
20
-121.3533979999999985
11
108.3638490000000019
21
-121.3903439999999989
0
LINE
8
BLACK
6
CONTINUOUS
10
108.3638490000000019
20
-121.3903439999999989
11
108.1861509999999953
21
-121.3903439999999989
0
LINE
8
BLACK
6
CONTINUOUS
10
108.1861509999999953
20
-121.3903439999999989
11
108.0123359999999906
21
-121.3533979999999985
0
LINE
8
BLACK
6
CONTINUOUS
10
108.0123359999999906
20
-121.3533979999999985
11
107.8499999999999943
21
-121.2811219999999963
0
LINE
8
BLACK
6
CONTINUOUS
10
107.8499999999999943
20
-121.2811219999999963
11
107.7062389999999965
21
-121.1766729999999939
0
LINE
8
BLACK
6
CONTINUOUS
10
107.7062389999999965
20
-121.1766729999999939
11
107.5873359999999934
21
-121.0446169999999881
0
LINE
8
BLACK
6
CONTINUOUS
10
107.5873359999999934
20
-121.0446169999999881
11
107.4984859999999998
21
-120.8907260000000008
0
LINE
8
BLACK
6
CONTINUOUS
10
107.4984859999999998
20
-120.8907260000000008
11
107.4435749999999956
21
-120.7217249999999922
0
LINE
8
BLACK
6
CONTINUOUS
10
107.4435749999999956
20
-120.7217249999999922
11
107.4249999999999972
21
-120.5449999999999875
0
LINE
8
BLACK
6
CONTINUOUS
10
107.4249999999999972
20
-120.5449999999999875
11
107.4435749999999956
21
-120.368274999999997
0
LINE
8
BLACK
6
CONTINUOUS
10
107.4435749999999956
20
-120.368274999999997
11
107.4984859999999998
21
-120.1992739999999884
0
LINE
8
BLACK
6
CONTINUOUS
10
107.4984859999999998
20
-120.1992739999999884
11
107.5873359999999934
21
-120.0453830000000011
0
LINE
8
BLACK
6
CONTINUOUS
10
107.5873359999999934
20
-120.0453830000000011
11
107.7062389999999965
21
-119.9133269999999953
0
LINE
8
BLACK
6
CONTINUOUS
10
107.7062389999999965
20
-119.9133269999999953
11
107.8499999999999943
21
-119.8088779999999929
0
LINE
8
BLACK
6
CONTINUOUS
10
107.8499999999999943
20
-119.8088779999999929
11
108.0123359999999906
21
-119.7366019999999907
0
LINE
8
BLACK
6
CONTINUOUS
10
108.0123359999999906
20
-119.7366019999999907
11
108.1861509999999953
21
-119.6996559999999903
0
LINE
8
BLACK
6
CONTINUOUS
10
108.1861509999999953
20
-119.6996559999999903
11
108.3638490000000019
21
-119.6996559999999903
0
LINE
8
BLACK
6
CONTINUOUS
10
108.3638490000000019
20
-119.6996559999999903
11
108.5376639999999924
21
-119.7366019999999907
0
LINE
8
BLACK
6
CONTINUOUS
10
105.9976640000000003
20
-117.1966019999999986
11
106.1599999999999966
21
-117.2688780000000008
0
LINE
8
BLACK
6
CONTINUOUS
10
106.1599999999999966
20
-117.2688780000000008
11
106.3037609999999944
21
-117.3733269999999891
0
LINE
8
BLACK
6
CONTINUOUS
10
106.3037609999999944
20
-117.3733269999999891
11
106.4226639999999975
21
-117.5053829999999948
0
LINE
8
BLACK
6
CONTINUOUS
10
106.4226639999999975
20
-117.5053829999999948
11
106.5115139999999911
21
-117.6592739999999964
0
LINE
8
BLACK
6
CONTINUOUS
10
106.5115139999999911
20
-117.6592739999999964
11
106.5664249999999953
21
-117.8282749999999908
0
LINE
8
BLACK
6
CONTINUOUS
10
106.5664249999999953
20
-117.8282749999999908
11
106.5849999999999937
21
-118.0049999999999955
0
LINE
8
BLACK
6
CONTINUOUS
10
106.5849999999999937
20
-118.0049999999999955
11
106.5664249999999953
21
-118.1817250000000001
0
LINE
8
BLACK
6
CONTINUOUS
10
106.5664249999999953
20
-118.1817250000000001
11
106.5115139999999911
21
-118.3507259999999945
0
LINE
8
BLACK
6
CONTINUOUS
10
106.5115139999999911
20
-118.3507259999999945
11
106.4226639999999975
21
-118.5046169999999961
0
LINE
8
BLACK
6
CONTINUOUS
10
106.4226639999999975
20
-118.5046169999999961
11
106.3037609999999944
21
-118.6366729999999876
0
LINE
8
BLACK
6
CONTINUOUS
10
106.3037609999999944
20
-118.6366729999999876
11
106.1599999999999966
21
-118.7411219999999901
0
LINE
8
BLACK
6
CONTINUOUS
10
106.1599999999999966
20
-118.7411219999999901
11
105.9976640000000003
21
-118.8133979999999923
0
LINE
8
BLACK
6
CONTINUOUS
10
105.9976640000000003
20
-118.8133979999999923
11
105.8238489999999956
21
-118.8503439999999927
0
LINE
8
BLACK
6
CONTINUOUS
10
105.8238489999999956
20
-118.8503439999999927
11
105.646150999999989
21
-118.8503439999999927
0
LINE
8
BLACK
6
CONTINUOUS
10
105.646150999999989
20
-118.8503439999999927
11
105.4723359999999985
21
-118.8133979999999923
0
LINE
8
BLACK
6
CONTINUOUS
10
105.4723359999999985
20
-118.8133979999999923
11
105.3100000000000023
21
-118.7411219999999901
0
LINE
8
BLACK
6
CONTINUOUS
10
105.3100000000000023
20
-118.7411219999999901
11
105.1662389999999903
21
-118.6366729999999876
0
LINE
8
BLACK
6
CONTINUOUS
10
105.1662389999999903
20
-118.6366729999999876
11
105.0473360000000014
21
-118.5046169999999961
0
LINE
8
BLACK
6
CONTINUOUS
10
105.0473360000000014
20
-118.5046169999999961
11
104.9584859999999935
21
-118.3507259999999945
0
LINE
8
BLACK
6
CONTINUOUS
10
104.9584859999999935
20
-118.3507259999999945
11
104.9035749999999894
21
-118.1817250000000001
0
LINE
8
BLACK
6
CONTINUOUS
10
104.9035749999999894
20
-118.1817250000000001
11
104.8849999999999909
21
-118.0049999999999955
0
LINE
8
BLACK
6
CONTINUOUS
10
104.8849999999999909
20
-118.0049999999999955
11
104.9035749999999894
21
-117.8282749999999908
0
LINE
8
BLACK
6
CONTINUOUS
10
104.9035749999999894
20
-117.8282749999999908
11
104.9584859999999935
21
-117.6592739999999964
0
LINE
8
BLACK
6
CONTINUOUS
10
104.9584859999999935
20
-117.6592739999999964
11
105.0473360000000014
21
-117.5053829999999948
0
LINE
8
BLACK
6
CONTINUOUS
10
105.0473360000000014
20
-117.5053829999999948
11
105.1662389999999903
21
-117.3733269999999891
0
LINE
8
BLACK
6
CONTINUOUS
10
105.1662389999999903
20
-117.3733269999999891
11
105.3100000000000023
21
-117.2688780000000008
0
LINE
8
BLACK
6
CONTINUOUS
10
105.3100000000000023
20
-117.2688780000000008
11
105.4723359999999985
21
-117.1966019999999986
0
LINE
8
BLACK
6
CONTINUOUS
10
105.4723359999999985
20
-117.1966019999999986
11
105.646150999999989
21
-117.1596559999999982
0
LINE
8
BLACK
6
CONTINUOUS
10
105.646150999999989
20
-117.1596559999999982
11
105.8238489999999956
21
-117.1596559999999982
0
LINE
8
BLACK
6
CONTINUOUS
10
105.8238489999999956
20
-117.1596559999999982
11
105.9976640000000003
21
-117.1966019999999986
0
LINE
8
BLACK
6
CONTINUOUS
10
108.5376639999999924
20
-117.1966019999999986
11
108.6999999999999886
21
-117.2688780000000008
0
LINE
8
BLACK
6
CONTINUOUS
10
108.6999999999999886
20
-117.2688780000000008
11
108.8437610000000006
21
-117.3733269999999891
0
LINE
8
BLACK
6
CONTINUOUS
10
108.8437610000000006
20
-117.3733269999999891
11
108.9626639999999895
21
-117.5053829999999948
0
LINE
8
BLACK
6
CONTINUOUS
10
108.9626639999999895
20
-117.5053829999999948
11
109.0515139999999974
21
-117.6592739999999964
0
LINE
8
BLACK
6
CONTINUOUS
10
109.0515139999999974
20
-117.6592739999999964
11
109.1064250000000015
21
-117.8282749999999908
0
LINE
8
BLACK
6
CONTINUOUS
10
109.1064250000000015
20
-117.8282749999999908
11
109.125
21
-118.0049999999999955
0
LINE
8
BLACK
6
CONTINUOUS
10
109.125
20
-118.0049999999999955
11
109.1064250000000015
21
-118.1817250000000001
0
LINE
8
BLACK
6
CONTINUOUS
10
109.1064250000000015
20
-118.1817250000000001
11
109.0515139999999974
21
-118.3507259999999945
0
LINE
8
BLACK
6
CONTINUOUS
10
109.0515139999999974
20
-118.3507259999999945
11
108.9626639999999895
21
-118.5046169999999961
0
LINE
8
BLACK
6
CONTINUOUS
10
108.9626639999999895
20
-118.5046169999999961
11
108.8437610000000006
21
-118.6366729999999876
0
LINE
8
BLACK
6
CONTINUOUS
10
108.8437610000000006
20
-118.6366729999999876
11
108.6999999999999886
21
-118.7411219999999901
0
LINE
8
BLACK
6
CONTINUOUS
10
108.6999999999999886
20
-118.7411219999999901
11
108.5376639999999924
21
-118.8133979999999923
0
LINE
8
BLACK
6
CONTINUOUS
10
108.5376639999999924
20
-118.8133979999999923
11
108.3638490000000019
21
-118.8503439999999927
0
LINE
8
BLACK
6
CONTINUOUS
10
108.3638490000000019
20
-118.8503439999999927
11
108.1861509999999953
21
-118.8503439999999927
0
LINE
8
BLACK
6
CONTINUOUS
10
108.1861509999999953
20
-118.8503439999999927
11
108.0123359999999906
21
-118.8133979999999923
0
LINE
8
BLACK
6
CONTINUOUS
10
108.0123359999999906
20
-118.8133979999999923
11
107.8499999999999943
21
-118.7411219999999901
0
LINE
8
BLACK
6
CONTINUOUS
10
107.8499999999999943
20
-118.7411219999999901
11
107.7062389999999965
21
-118.6366729999999876
0
LINE
8
BLACK
6
CONTINUOUS
10
107.7062389999999965
20
-118.6366729999999876
11
107.5873359999999934
21
-118.5046169999999961
0
LINE
8
BLACK
6
CONTINUOUS
10
107.5873359999999934
20
-118.5046169999999961
11
107.4984859999999998
21
-118.3507259999999945
0
LINE
8
BLACK
6
CONTINUOUS
10
107.4984859999999998
20
-118.3507259999999945
11
107.4435749999999956
21
-118.1817250000000001
0
LINE
8
BLACK
6
CONTINUOUS
10
107.4435749999999956
20
-118.1817250000000001
11
107.4249999999999972
21
-118.0049999999999955
0
LINE
8
BLACK
6
CONTINUOUS
10
107.4249999999999972
20
-118.0049999999999955
11
107.4435749999999956
21
-117.8282749999999908
0
LINE
8
BLACK
6
CONTINUOUS
10
107.4435749999999956
20
-117.8282749999999908
11
107.4984859999999998
21
-117.6592739999999964
0
LINE
8
BLACK
6
CONTINUOUS
10
107.4984859999999998
20
-117.6592739999999964
11
107.5873359999999934
21
-117.5053829999999948
0
LINE
8
BLACK
6
CONTINUOUS
10
107.5873359999999934
20
-117.5053829999999948
11
107.7062389999999965
21
-117.3733269999999891
0
LINE
8
BLACK
6
CONTINUOUS
10
107.7062389999999965
20
-117.3733269999999891
11
107.8499999999999943
21
-117.2688780000000008
0
LINE
8
BLACK
6
CONTINUOUS
10
107.8499999999999943
20
-117.2688780000000008
11
108.0123359999999906
21
-117.1966019999999986
0
LINE
8
BLACK
6
CONTINUOUS
10
108.0123359999999906
20
-117.1966019999999986
11
108.1861509999999953
21
-117.1596559999999982
0
LINE
8
BLACK
6
CONTINUOUS
10
108.1861509999999953
20
-117.1596559999999982
11
108.3638490000000019
21
-117.1596559999999982
0
LINE
8
BLACK
6
CONTINUOUS
10
108.3638490000000019
20
-117.1596559999999982
11
108.5376639999999924
21
-117.1966019999999986
0
LINE
8
BLACK
6
CONTINUOUS
10
105.9976640000000003
20
-114.6566019999999924
11
106.1599999999999966
21
-114.7288779999999946
0
LINE
8
BLACK
6
CONTINUOUS
10
106.1599999999999966
20
-114.7288779999999946
11
106.3037609999999944
21
-114.833326999999997
0
LINE
8
BLACK
6
CONTINUOUS
10
106.3037609999999944
20
-114.833326999999997
11
106.4226639999999975
21
-114.9653829999999886
0
LINE
8
BLACK
6
CONTINUOUS
10
106.4226639999999975
20
-114.9653829999999886
11
106.5115139999999911
21
-115.1192739999999901
0
LINE
8
BLACK
6
CONTINUOUS
10
106.5115139999999911
20
-115.1192739999999901
11
106.5664249999999953
21
-115.2882749999999987
0
LINE
8
BLACK
6
CONTINUOUS
10
106.5664249999999953
20
-115.2882749999999987
11
106.5849999999999937
21
-115.4649999999999892
0
LINE
8
BLACK
6
CONTINUOUS
10
106.5849999999999937
20
-115.4649999999999892
11
106.5664249999999953
21
-115.6417249999999939
0
LINE
8
BLACK
6
CONTINUOUS
10
106.5664249999999953
20
-115.6417249999999939
11
106.5115139999999911
21
-115.8107259999999883
0
LINE
8
BLACK
6
CONTINUOUS
10
106.5115139999999911
20
-115.8107259999999883
11
106.4226639999999975
21
-115.9646169999999898
0
LINE
8
BLACK
6
CONTINUOUS
10
106.4226639999999975
20
-115.9646169999999898
11
106.3037609999999944
21
-116.0966729999999956
0
LINE
8
BLACK
6
CONTINUOUS
10
106.3037609999999944
20
-116.0966729999999956
11
106.1599999999999966
21
-116.201121999999998
0
LINE
8
BLACK
6
CONTINUOUS
10
106.1599999999999966
20
-116.201121999999998
11
105.9976640000000003
21
-116.2733980000000003
0
LINE
8
BLACK
6
CONTINUOUS
10
105.9976640000000003
20
-116.2733980000000003
11
105.8238489999999956
21
-116.3103440000000006
0
LINE
8
BLACK
6
CONTINUOUS
10
105.8238489999999956
20
-116.3103440000000006
11
105.646150999999989
21
-116.3103440000000006
0
LINE
8
BLACK
6
CONTINUOUS
10
105.646150999999989
20
-116.3103440000000006
11
105.4723359999999985
21
-116.2733980000000003
0
LINE
8
BLACK
6
CONTINUOUS
10
105.4723359999999985
20
-116.2733980000000003
11
105.3100000000000023
21
-116.201121999999998
0
LINE
8
BLACK
6
CONTINUOUS
10
105.3100000000000023
20
-116.201121999999998
11
105.1662389999999903
21
-116.0966729999999956
0
LINE
8
BLACK
6
CONTINUOUS
10
105.1662389999999903
20
-116.0966729999999956
11
105.0473360000000014
21
-115.9646169999999898
0
LINE
8
BLACK
6
CONTINUOUS
10
105.0473360000000014
20
-115.9646169999999898
11
104.9584859999999935
21
-115.8107259999999883
0
LINE
8
BLACK
6
CONTINUOUS
10
104.9584859999999935
20
-115.8107259999999883
11
104.9035749999999894
21
-115.6417249999999939
0
LINE
8
BLACK
6
CONTINUOUS
10
104.9035749999999894
20
-115.6417249999999939
11
104.8849999999999909
21
-115.4649999999999892
0
LINE
8
BLACK
6
CONTINUOUS
10
104.8849999999999909
20
-115.4649999999999892
11
104.9035749999999894
21
-115.2882749999999987
0
LINE
8
BLACK
6
CONTINUOUS
10
104.9035749999999894
20
-115.2882749999999987
11
104.9584859999999935
21
-115.1192739999999901
0
LINE
8
BLACK
6
CONTINUOUS
10
104.9584859999999935
20
-115.1192739999999901
11
105.0473360000000014
21
-114.9653829999999886
0
LINE
8
BLACK
6
CONTINUOUS
10
105.0473360000000014
20
-114.9653829999999886
11
105.1662389999999903
21
-114.833326999999997
0
LINE
8
BLACK
6
CONTINUOUS
10
105.1662389999999903
20
-114.833326999999997
11
105.3100000000000023
21
-114.7288779999999946
0
LINE
8
BLACK
6
CONTINUOUS
10
105.3100000000000023
20
-114.7288779999999946
11
105.4723359999999985
21
-114.6566019999999924
0
LINE
8
BLACK
6
CONTINUOUS
10
105.4723359999999985
20
-114.6566019999999924
11
105.646150999999989
21
-114.619655999999992
0
LINE
8
BLACK
6
CONTINUOUS
10
105.646150999999989
20
-114.619655999999992
11
105.8238489999999956
21
-114.619655999999992
0
LINE
8
BLACK
6
CONTINUOUS
10
105.8238489999999956
20
-114.619655999999992
11
105.9976640000000003
21
-114.6566019999999924
0
LINE
8
BLACK
6
CONTINUOUS
10
108.5376639999999924
20
-114.6566019999999924
11
108.6999999999999886
21
-114.7288779999999946
0
LINE
8
BLACK
6
CONTINUOUS
10
108.6999999999999886
20
-114.7288779999999946
11
108.8437610000000006
21
-114.833326999999997
0
LINE
8
BLACK
6
CONTINUOUS
10
108.8437610000000006
20
-114.833326999999997
11
108.9626639999999895
21
-114.9653829999999886
0
LINE
8
BLACK
6
CONTINUOUS
10
108.9626639999999895
20
-114.9653829999999886
11
109.0515139999999974
21
-115.1192739999999901
0
LINE
8
BLACK
6
CONTINUOUS
10
109.0515139999999974
20
-115.1192739999999901
11
109.1064250000000015
21
-115.2882749999999987
0
LINE
8
BLACK
6
CONTINUOUS
10
109.1064250000000015
20
-115.2882749999999987
11
109.125
21
-115.4649999999999892
0
LINE
8
BLACK
6
CONTINUOUS
10
109.125
20
-115.4649999999999892
11
109.1064250000000015
21
-115.6417249999999939
0
LINE
8
BLACK
6
CONTINUOUS
10
109.1064250000000015
20
-115.6417249999999939
11
109.0515139999999974
21
-115.8107259999999883
0
LINE
8
BLACK
6
CONTINUOUS
10
109.0515139999999974
20
-115.8107259999999883
11
108.9626639999999895
21
-115.9646169999999898
0
LINE
8
BLACK
6
CONTINUOUS
10
108.9626639999999895
20
-115.9646169999999898
11
108.8437610000000006
21
-116.0966729999999956
0
LINE
8
BLACK
6
CONTINUOUS
10
108.8437610000000006
20
-116.0966729999999956
11
108.6999999999999886
21
-116.201121999999998
0
LINE
8
BLACK
6
CONTINUOUS
10
108.6999999999999886
20
-116.201121999999998
11
108.5376639999999924
21
-116.2733980000000003
0
LINE
8
BLACK
6
CONTINUOUS
10
108.5376639999999924
20
-116.2733980000000003
11
108.3638490000000019
21
-116.3103440000000006
0
LINE
8
BLACK
6
CONTINUOUS
10
108.3638490000000019
20
-116.3103440000000006
11
108.1861509999999953
21
-116.3103440000000006
0
LINE
8
BLACK
6
CONTINUOUS
10
108.1861509999999953
20
-116.3103440000000006
11
108.0123359999999906
21
-116.2733980000000003
0
LINE
8
BLACK
6
CONTINUOUS
10
108.0123359999999906
20
-116.2733980000000003
11
107.8499999999999943
21
-116.201121999999998
0
LINE
8
BLACK
6
CONTINUOUS
10
107.8499999999999943
20
-116.201121999999998
11
107.7062389999999965
21
-116.0966729999999956
0
LINE
8
BLACK
6
CONTINUOUS
10
107.7062389999999965
20
-116.0966729999999956
11
107.5873359999999934
21
-115.9646169999999898
0
LINE
8
BLACK
6
CONTINUOUS
10
107.5873359999999934
20
-115.9646169999999898
11
107.4984859999999998
21
-115.8107259999999883
0
LINE
8
BLACK
6
CONTINUOUS
10
107.4984859999999998
20
-115.8107259999999883
11
107.4435749999999956
21
-115.6417249999999939
0
LINE
8
BLACK
6
CONTINUOUS
10
107.4435749999999956
20
-115.6417249999999939
11
107.4249999999999972
21
-115.4649999999999892
0
LINE
8
BLACK
6
CONTINUOUS
10
107.4249999999999972
20
-115.4649999999999892
11
107.4435749999999956
21
-115.2882749999999987
0
LINE
8
BLACK
6
CONTINUOUS
10
107.4435749999999956
20
-115.2882749999999987
11
107.4984859999999998
21
-115.1192739999999901
0
LINE
8
BLACK
6
CONTINUOUS
10
107.4984859999999998
20
-115.1192739999999901
11
107.5873359999999934
21
-114.9653829999999886
0
LINE
8
BLACK
6
CONTINUOUS
10
107.5873359999999934
20
-114.9653829999999886
11
107.7062389999999965
21
-114.833326999999997
0
LINE
8
BLACK
6
CONTINUOUS
10
107.7062389999999965
20
-114.833326999999997
11
107.8499999999999943
21
-114.7288779999999946
0
LINE
8
BLACK
6
CONTINUOUS
10
107.8499999999999943
20
-114.7288779999999946
11
108.0123359999999906
21
-114.6566019999999924
0
LINE
8
BLACK
6
CONTINUOUS
10
108.0123359999999906
20
-114.6566019999999924
11
108.1861509999999953
21
-114.619655999999992
0
LINE
8
BLACK
6
CONTINUOUS
10
108.1861509999999953
20
-114.619655999999992
11
108.3638490000000019
21
-114.619655999999992
0
LINE
8
BLACK
6
CONTINUOUS
10
108.3638490000000019
20
-114.619655999999992
11
108.5376639999999924
21
-114.6566019999999924
0
LINE
8
BLACK
6
CONTINUOUS
10
109.125
20
-113.7749999999999915
11
107.4249999999999972
21
-113.7749999999999915
0
LINE
8
BLACK
6
CONTINUOUS
10
107.4249999999999972
20
-113.7749999999999915
11
107.4249999999999972
21
-112.0749999999999886
0
LINE
8
BLACK
6
CONTINUOUS
10
107.4249999999999972
20
-112.0749999999999886
11
109.125
21
-112.0749999999999886
0
LINE
8
BLACK
6
CONTINUOUS
10
109.125
20
-112.0749999999999886
11
109.125
21
-113.7749999999999915
0
LINE
8
BLACK
6
CONTINUOUS
10
105.9976640000000003
20
-112.1166020000000003
11
106.1599999999999966
21
-112.1888779999999883
0
LINE
8
BLACK
6
CONTINUOUS
10
106.1599999999999966
20
-112.1888779999999883
11
106.3037609999999944
21
-112.2933269999999908
0
LINE
8
BLACK
6
CONTINUOUS
10
106.3037609999999944
20
-112.2933269999999908
11
106.4226639999999975
21
-112.4253829999999965
0
LINE
8
BLACK
6
CONTINUOUS
10
106.4226639999999975
20
-112.4253829999999965
11
106.5115139999999911
21
-112.5792739999999981
0
LINE
8
BLACK
6
CONTINUOUS
10
106.5115139999999911
20
-112.5792739999999981
11
106.5664249999999953
21
-112.7482749999999925
0
LINE
8
BLACK
6
CONTINUOUS
10
106.5664249999999953
20
-112.7482749999999925
11
106.5849999999999937
21
-112.9249999999999972
0
LINE
8
BLACK
6
CONTINUOUS
10
106.5849999999999937
20
-112.9249999999999972
11
106.5664249999999953
21
-113.1017250000000018
0
LINE
8
BLACK
6
CONTINUOUS
10
106.5664249999999953
20
-113.1017250000000018
11
106.5115139999999911
21
-113.2707259999999962
0
LINE
8
BLACK
6
CONTINUOUS
10
106.5115139999999911
20
-113.2707259999999962
11
106.4226639999999975
21
-113.4246169999999978
0
LINE
8
BLACK
6
CONTINUOUS
10
106.4226639999999975
20
-113.4246169999999978
11
106.3037609999999944
21
-113.5566729999999893
0
LINE
8
BLACK
6
CONTINUOUS
10
106.3037609999999944
20
-113.5566729999999893
11
106.1599999999999966
21
-113.6611219999999918
0
LINE
8
BLACK
6
CONTINUOUS
10
106.1599999999999966
20
-113.6611219999999918
11
105.9976640000000003
21
-113.733397999999994
0
LINE
8
BLACK
6
CONTINUOUS
10
105.9976640000000003
20
-113.733397999999994
11
105.8238489999999956
21
-113.7703439999999944
0
LINE
8
BLACK
6
CONTINUOUS
10
105.8238489999999956
20
-113.7703439999999944
11
105.646150999999989
21
-113.7703439999999944
0
LINE
8
BLACK
6
CONTINUOUS
10
105.646150999999989
20
-113.7703439999999944
11
105.4723359999999985
21
-113.733397999999994
0
LINE
8
BLACK
6
CONTINUOUS
10
105.4723359999999985
20
-113.733397999999994
11
105.3100000000000023
21
-113.6611219999999918
0
LINE
8
BLACK
6
CONTINUOUS
10
105.3100000000000023
20
-113.6611219999999918
11
105.1662389999999903
21
-113.5566729999999893
0
LINE
8
BLACK
6
CONTINUOUS
10
105.1662389999999903
20
-113.5566729999999893
11
105.0473360000000014
21
-113.4246169999999978
0
LINE
8
BLACK
6
CONTINUOUS
10
105.0473360000000014
20
-113.4246169999999978
11
104.9584859999999935
21
-113.2707259999999962
0
LINE
8
BLACK
6
CONTINUOUS
10
104.9584859999999935
20
-113.2707259999999962
11
104.9035749999999894
21
-113.1017250000000018
0
LINE
8
BLACK
6
CONTINUOUS
10
104.9035749999999894
20
-113.1017250000000018
11
104.8849999999999909
21
-112.9249999999999972
0
LINE
8
BLACK
6
CONTINUOUS
10
104.8849999999999909
20
-112.9249999999999972
11
104.9035749999999894
21
-112.7482749999999925
0
LINE
8
BLACK
6
CONTINUOUS
10
104.9035749999999894
20
-112.7482749999999925
11
104.9584859999999935
21
-112.5792739999999981
0
LINE
8
BLACK
6
CONTINUOUS
10
104.9584859999999935
20
-112.5792739999999981
11
105.0473360000000014
21
-112.4253829999999965
0
LINE
8
BLACK
6
CONTINUOUS
10
105.0473360000000014
20
-112.4253829999999965
11
105.1662389999999903
21
-112.2933269999999908
0
LINE
8
BLACK
6
CONTINUOUS
10
105.1662389999999903
20
-112.2933269999999908
11
105.3100000000000023
21
-112.1888779999999883
0
LINE
8
BLACK
6
CONTINUOUS
10
105.3100000000000023
20
-112.1888779999999883
11
105.4723359999999985
21
-112.1166020000000003
0
LINE
8
BLACK
6
CONTINUOUS
10
105.4723359999999985
20
-112.1166020000000003
11
105.646150999999989
21
-112.0796559999999999
0
LINE
8
BLACK
6
CONTINUOUS
10
105.646150999999989
20
-112.0796559999999999
11
105.8238489999999956
21
-112.0796559999999999
0
LINE
8
BLACK
6
CONTINUOUS
10
105.8238489999999956
20
-112.0796559999999999
11
105.9976640000000003
21
-112.1166020000000003
0
LINE
8
BLACK
6
CONTINUOUS
10
93.7551119999999969
20
-113.7551119999999969
11
92.1551120000000026
21
-113.7551119999999969
0
LINE
8
BLACK
6
CONTINUOUS
10
92.1551120000000026
20
-113.7551119999999969
11
92.1551120000000026
21
-112.1551119999999884
0
LINE
8
BLACK
6
CONTINUOUS
10
92.1551120000000026
20
-112.1551119999999884
11
93.7551119999999969
21
-112.1551119999999884
0
LINE
8
BLACK
6
CONTINUOUS
10
93.7551119999999969
20
-112.1551119999999884
11
93.7551119999999969
21
-113.7551119999999969
0
LINE
8
BLACK
6
CONTINUOUS
10
93.1331289999999967
20
-110.1751699999999943
11
93.3022189999999938
21
-110.2343369999999965
0
LINE
8
BLACK
6
CONTINUOUS
10
93.3022189999999938
20
-110.2343369999999965
11
93.4539039999999943
21
-110.3296469999999943
0
LINE
8
BLACK
6
CONTINUOUS
10
93.4539039999999943
20
-110.3296469999999943
11
93.580576999999991
21
-110.456319999999991
0
LINE
8
BLACK
6
CONTINUOUS
10
93.580576999999991
20
-110.456319999999991
11
93.6758869999999888
21
-110.6080049999999915
0
LINE
8
BLACK
6
CONTINUOUS
10
93.6758869999999888
20
-110.6080049999999915
11
93.735053999999991
21
-110.7770949999999885
0
LINE
8
BLACK
6
CONTINUOUS
10
93.735053999999991
20
-110.7770949999999885
11
93.7551119999999969
21
-110.9551119999999997
0
LINE
8
BLACK
6
CONTINUOUS
10
93.7551119999999969
20
-110.9551119999999997
11
93.735053999999991
21
-111.1331289999999967
0
LINE
8
BLACK
6
CONTINUOUS
10
93.735053999999991
20
-111.1331289999999967
11
93.6758869999999888
21
-111.3022189999999938
0
LINE
8
BLACK
6
CONTINUOUS
10
93.6758869999999888
20
-111.3022189999999938
11
93.580576999999991
21
-111.4539039999999943
0
LINE
8
BLACK
6
CONTINUOUS
10
93.580576999999991
20
-111.4539039999999943
11
93.4539039999999943
21
-111.580576999999991
0
LINE
8
BLACK
6
CONTINUOUS
10
93.4539039999999943
20
-111.580576999999991
11
93.3022189999999938
21
-111.6758869999999888
0
LINE
8
BLACK
6
CONTINUOUS
10
93.3022189999999938
20
-111.6758869999999888
11
93.1331289999999967
21
-111.735053999999991
0
LINE
8
BLACK
6
CONTINUOUS
10
93.1331289999999967
20
-111.735053999999991
11
92.9551119999999997
21
-111.7551119999999969
0
LINE
8
BLACK
6
CONTINUOUS
10
92.9551119999999997
20
-111.7551119999999969
11
92.7770950000000028
21
-111.735053999999991
0
LINE
8
BLACK
6
CONTINUOUS
10
92.7770950000000028
20
-111.735053999999991
11
92.6080049999999915
21
-111.6758869999999888
0
LINE
8
BLACK
6
CONTINUOUS
10
92.6080049999999915
20
-111.6758869999999888
11
92.456319999999991
21
-111.580576999999991
0
LINE
8
BLACK
6
CONTINUOUS
10
92.456319999999991
20
-111.580576999999991
11
92.3296469999999943
21
-111.4539039999999943
0
LINE
8
BLACK
6
CONTINUOUS
10
92.3296469999999943
20
-111.4539039999999943
11
92.2343369999999965
21
-111.3022189999999938
0
LINE
8
BLACK
6
CONTINUOUS
10
92.2343369999999965
20
-111.3022189999999938
11
92.1751699999999943
21
-111.1331289999999967
0
LINE
8
BLACK
6
CONTINUOUS
10
92.1751699999999943
20
-111.1331289999999967
11
92.1551120000000026
21
-110.9551119999999997
0
LINE
8
BLACK
6
CONTINUOUS
10
92.1551120000000026
20
-110.9551119999999997
11
92.1751699999999943
21
-110.7770949999999885
0
LINE
8
BLACK
6
CONTINUOUS
10
92.1751699999999943
20
-110.7770949999999885
11
92.2343369999999965
21
-110.6080049999999915
0
LINE
8
BLACK
6
CONTINUOUS
10
92.2343369999999965
20
-110.6080049999999915
11
92.3296469999999943
21
-110.456319999999991
0
LINE
8
BLACK
6
CONTINUOUS
10
92.3296469999999943
20
-110.456319999999991
11
92.456319999999991
21
-110.3296469999999943
0
LINE
8
BLACK
6
CONTINUOUS
10
92.456319999999991
20
-110.3296469999999943
11
92.6080049999999915
21
-110.2343369999999965
0
LINE
8
BLACK
6
CONTINUOUS
10
92.6080049999999915
20
-110.2343369999999965
11
92.7770950000000028
21
-110.1751699999999943
0
LINE
8
BLACK
6
CONTINUOUS
10
92.7770950000000028
20
-110.1751699999999943
11
92.9551119999999997
21
-110.1551119999999884
0
LINE
8
BLACK
6
CONTINUOUS
10
92.9551119999999997
20
-110.1551119999999884
11
93.1331289999999967
21
-110.1751699999999943
0
LINE
8
BLACK
6
CONTINUOUS
10
98.3999999999999915
20
-105.8999999999999915
11
96.5999999999999943
21
-105.8999999999999915
0
LINE
8
BLACK
6
CONTINUOUS
10
96.5999999999999943
20
-105.8999999999999915
11
96.5999999999999943
21
-104.0999999999999943
0
LINE
8
BLACK
6
CONTINUOUS
10
96.5999999999999943
20
-104.0999999999999943
11
98.3999999999999915
21
-104.0999999999999943
0
LINE
8
BLACK
6
CONTINUOUS
10
98.3999999999999915
20
-104.0999999999999943
11
98.3999999999999915
21
-105.8999999999999915
0
LINE
8
BLACK
6
CONTINUOUS
10
100.2781149999999997
20
-104.1440489999999954
11
100.4499999999999886
21
-104.2205769999999916
0
LINE
8
BLACK
6
CONTINUOUS
10
100.4499999999999886
20
-104.2205769999999916
11
100.6022179999999935
21
-104.3311700000000002
0
LINE
8
BLACK
6
CONTINUOUS
10
100.6022179999999935
20
-104.3311700000000002
11
100.7281150000000025
21
-104.4709929999999929
0
LINE
8
BLACK
6
CONTINUOUS
10
100.7281150000000025
20
-104.4709929999999929
11
100.8221909999999895
21
-104.6339369999999889
0
LINE
8
BLACK
6
CONTINUOUS
10
100.8221909999999895
20
-104.6339369999999889
11
100.8803329999999931
21
-104.8128789999999952
0
LINE
8
BLACK
6
CONTINUOUS
10
100.8803329999999931
20
-104.8128789999999952
11
100.8999999999999915
21
-105.
0
LINE
8
BLACK
6
CONTINUOUS
10
100.8999999999999915
20
-105.
11
100.8803329999999931
21
-105.1871209999999905
0
LINE
8
BLACK
6
CONTINUOUS
10
100.8803329999999931
20
-105.1871209999999905
11
100.8221909999999895
21
-105.3660629999999969
0
LINE
8
BLACK
6
CONTINUOUS
10
100.8221909999999895
20
-105.3660629999999969
11
100.7281150000000025
21
-105.5290069999999929
0
LINE
8
BLACK
6
CONTINUOUS
10
100.7281150000000025
20
-105.5290069999999929
11
100.6022179999999935
21
-105.6688299999999998
0
LINE
8
BLACK
6
CONTINUOUS
10
100.6022179999999935
20
-105.6688299999999998
11
100.4499999999999886
21
-105.7794229999999942
0
LINE
8
BLACK
6
CONTINUOUS
10
100.4499999999999886
20
-105.7794229999999942
11
100.2781149999999997
21
-105.8559509999999904
0
LINE
8
BLACK
6
CONTINUOUS
10
100.2781149999999997
20
-105.8559509999999904
11
100.0940760000000012
21
-105.8950699999999898
0
LINE
8
BLACK
6
CONTINUOUS
10
100.0940760000000012
20
-105.8950699999999898
11
99.9059239999999988
21
-105.8950699999999898
0
LINE
8
BLACK
6
CONTINUOUS
10
99.9059239999999988
20
-105.8950699999999898
11
99.7218850000000003
21
-105.8559509999999904
0
LINE
8
BLACK
6
CONTINUOUS
10
99.7218850000000003
20
-105.8559509999999904
11
99.5499999999999972
21
-105.7794229999999942
0
LINE
8
BLACK
6
CONTINUOUS
10
99.5499999999999972
20
-105.7794229999999942
11
99.3977819999999923
21
-105.6688299999999998
0
LINE
8
BLACK
6
CONTINUOUS
10
99.3977819999999923
20
-105.6688299999999998
11
99.2718849999999975
21
-105.5290069999999929
0
LINE
8
BLACK
6
CONTINUOUS
10
99.2718849999999975
20
-105.5290069999999929
11
99.1778089999999963
21
-105.3660629999999969
0
LINE
8
BLACK
6
CONTINUOUS
10
99.1778089999999963
20
-105.3660629999999969
11
99.1196669999999926
21
-105.1871209999999905
0
LINE
8
BLACK
6
CONTINUOUS
10
99.1196669999999926
20
-105.1871209999999905
11
99.0999999999999943
21
-105.
0
LINE
8
BLACK
6
CONTINUOUS
10
99.0999999999999943
20
-105.
11
99.1196669999999926
21
-104.8128789999999952
0
LINE
8
BLACK
6
CONTINUOUS
10
99.1196669999999926
20
-104.8128789999999952
11
99.1778089999999963
21
-104.6339369999999889
0
LINE
8
BLACK
6
CONTINUOUS
10
99.1778089999999963
20
-104.6339369999999889
11
99.2718849999999975
21
-104.4709929999999929
0
LINE
8
BLACK
6
CONTINUOUS
10
99.2718849999999975
20
-104.4709929999999929
11
99.3977819999999923
21
-104.3311700000000002
0
LINE
8
BLACK
6
CONTINUOUS
10
99.3977819999999923
20
-104.3311700000000002
11
99.5499999999999972
21
-104.2205769999999916
0
LINE
8
BLACK
6
CONTINUOUS
10
99.5499999999999972
20
-104.2205769999999916
11
99.7218850000000003
21
-104.1440489999999954
0
LINE
8
BLACK
6
CONTINUOUS
10
99.7218850000000003
20
-104.1440489999999954
11
99.9059239999999988
21
-104.104929999999996
0
LINE
8
BLACK
6
CONTINUOUS
10
99.9059239999999988
20
-104.104929999999996
11
100.0940760000000012
21
-104.104929999999996
0
LINE
8
BLACK
6
CONTINUOUS
10
100.0940760000000012
20
-104.104929999999996
11
100.2781149999999997
21
-104.1440489999999954
0
LINE
8
BLACK
6
CONTINUOUS
10
102.7781149999999997
20
-104.1440489999999954
11
102.9499999999999886
21
-104.2205769999999916
0
LINE
8
BLACK
6
CONTINUOUS
10
102.9499999999999886
20
-104.2205769999999916
11
103.1022179999999935
21
-104.3311700000000002
0
LINE
8
BLACK
6
CONTINUOUS
10
103.1022179999999935
20
-104.3311700000000002
11
103.2281149999999883
21
-104.4709929999999929
0
LINE
8
BLACK
6
CONTINUOUS
10
103.2281149999999883
20
-104.4709929999999929
11
103.3221909999999895
21
-104.6339369999999889
0
LINE
8
BLACK
6
CONTINUOUS
10
103.3221909999999895
20
-104.6339369999999889
11
103.3803329999999931
21
-104.8128789999999952
0
LINE
8
BLACK
6
CONTINUOUS
10
103.3803329999999931
20
-104.8128789999999952
11
103.3999999999999915
21
-105.
0
LINE
8
BLACK
6
CONTINUOUS
10
103.3999999999999915
20
-105.
11
103.3803329999999931
21
-105.1871209999999905
0
LINE
8
BLACK
6
CONTINUOUS
10
103.3803329999999931
20
-105.1871209999999905
11
103.3221909999999895
21
-105.3660629999999969
0
LINE
8
BLACK
6
CONTINUOUS
10
103.3221909999999895
20
-105.3660629999999969
11
103.2281149999999883
21
-105.5290069999999929
0
LINE
8
BLACK
6
CONTINUOUS
10
103.2281149999999883
20
-105.5290069999999929
11
103.1022179999999935
21
-105.6688299999999998
0
LINE
8
BLACK
6
CONTINUOUS
10
103.1022179999999935
20
-105.6688299999999998
11
102.9499999999999886
21
-105.7794229999999942
0
LINE
8
BLACK
6
CONTINUOUS
10
102.9499999999999886
20
-105.7794229999999942
11
102.7781149999999997
21
-105.8559509999999904
0
LINE
8
BLACK
6
CONTINUOUS
10
102.7781149999999997
20
-105.8559509999999904
11
102.5940760000000012
21
-105.8950699999999898
0
LINE
8
BLACK
6
CONTINUOUS
10
102.5940760000000012
20
-105.8950699999999898
11
102.4059239999999988
21
-105.8950699999999898
0
LINE
8
BLACK
6
CONTINUOUS
10
102.4059239999999988
20
-105.8950699999999898
11
102.2218850000000003
21
-105.8559509999999904
0
LINE
8
BLACK
6
CONTINUOUS
10
102.2218850000000003
20
-105.8559509999999904
11
102.0499999999999972
21
-105.7794229999999942
0
LINE
8
BLACK
6
CONTINUOUS
10
102.0499999999999972
20
-105.7794229999999942
11
101.8977819999999923
21
-105.6688299999999998
0
LINE
8
BLACK
6
CONTINUOUS
10
101.8977819999999923
20
-105.6688299999999998
11
101.7718849999999975
21
-105.5290069999999929
0
LINE
8
BLACK
6
CONTINUOUS
10
101.7718849999999975
20
-105.5290069999999929
11
101.6778089999999963
21
-105.3660629999999969
0
LINE
8
BLACK
6
CONTINUOUS
10
101.6778089999999963
20
-105.3660629999999969
11
101.6196669999999926
21
-105.1871209999999905
0
LINE
8
BLACK
6
CONTINUOUS
10
101.6196669999999926
20
-105.1871209999999905
11
101.5999999999999943
21
-105.
0
LINE
8
BLACK
6
CONTINUOUS
10
101.5999999999999943
20
-105.
11
101.6196669999999926
21
-104.8128789999999952
0
LINE
8
BLACK
6
CONTINUOUS
10
101.6196669999999926
20
-104.8128789999999952
11
101.6778089999999963
21
-104.6339369999999889
0
LINE
8
BLACK
6
CONTINUOUS
10
101.6778089999999963
20
-104.6339369999999889
11
101.7718849999999975
21
-104.4709929999999929
0
LINE
8
BLACK
6
CONTINUOUS
10
101.7718849999999975
20
-104.4709929999999929
11
101.8977819999999923
21
-104.3311700000000002
0
LINE
8
BLACK
6
CONTINUOUS
10
101.8977819999999923
20
-104.3311700000000002
11
102.0499999999999972
21
-104.2205769999999916
0
LINE
8
BLACK
6
CONTINUOUS
10
102.0499999999999972
20
-104.2205769999999916
11
102.2218850000000003
21
-104.1440489999999954
0
LINE
8
BLACK
6
CONTINUOUS
10
102.2218850000000003
20
-104.1440489999999954
11
102.4059239999999988
21
-104.104929999999996
0
LINE
8
BLACK
6
CONTINUOUS
10
102.4059239999999988
20
-104.104929999999996
11
102.5940760000000012
21
-104.104929999999996
0
LINE
8
BLACK
6
CONTINUOUS
10
102.5940760000000012
20
-104.104929999999996
11
102.7781149999999997
21
-104.1440489999999954
0
LINE
8
BLACK
6
CONTINUOUS
10
95.517485999999991
20
-95.9175769999999943
11
95.7204490000000021
21
-95.9835240000000027
0
LINE
8
BLACK
6
CONTINUOUS
10
95.7204490000000021
20
-95.9835240000000027
11
95.9105979999999931
21
-96.0804089999999889
0
LINE
8
BLACK
6
CONTINUOUS
10
95.9105979999999931
20
-96.0804089999999889
11
96.083248999999995
21
-96.2058479999999889
0
LINE
8
BLACK
6
CONTINUOUS
10
96.083248999999995
20
-96.2058479999999889
11
96.2341519999999946
21
-96.3567510000000027
0
LINE
8
BLACK
6
CONTINUOUS
10
96.2341519999999946
20
-96.3567510000000027
11
96.3595909999999947
21
-96.5294019999999904
0
LINE
8
BLACK
6
CONTINUOUS
10
96.3595909999999947
20
-96.5294019999999904
11
96.456475999999995
21
-96.7195509999999956
0
LINE
8
BLACK
6
CONTINUOUS
10
96.456475999999995
20
-96.7195509999999956
11
96.5224229999999892
21
-96.9225139999999925
0
LINE
8
BLACK
6
CONTINUOUS
10
96.5224229999999892
20
-96.9225139999999925
11
96.555807999999999
21
-97.1332960000000014
0
LINE
8
BLACK
6
CONTINUOUS
10
96.555807999999999
20
-97.1332960000000014
11
96.5600000000000023
21
-97.7599999999999909
0
LINE
8
BLACK
6
CONTINUOUS
10
96.5600000000000023
20
-97.7599999999999909
11
96.555807999999999
21
-97.8667039999999986
0
LINE
8
BLACK
6
CONTINUOUS
10
96.555807999999999
20
-97.8667039999999986
11
96.5224229999999892
21
-98.0774859999999933
0
LINE
8
BLACK
6
CONTINUOUS
10
96.5224229999999892
20
-98.0774859999999933
11
96.456475999999995
21
-98.2804489999999902
0
LINE
8
BLACK
6
CONTINUOUS
10
96.456475999999995
20
-98.2804489999999902
11
96.3595909999999947
21
-98.4705979999999954
0
LINE
8
BLACK
6
CONTINUOUS
10
96.3595909999999947
20
-98.4705979999999954
11
96.2341519999999946
21
-98.6432489999999973
0
LINE
8
BLACK
6
CONTINUOUS
10
96.2341519999999946
20
-98.6432489999999973
11
96.083248999999995
21
-98.7941519999999969
0
LINE
8
BLACK
6
CONTINUOUS
10
96.083248999999995
20
-98.7941519999999969
11
95.9105979999999931
21
-98.9195909999999969
0
LINE
8
BLACK
6
CONTINUOUS
10
95.9105979999999931
20
-98.9195909999999969
11
95.7204490000000021
21
-99.0164759999999973
0
LINE
8
BLACK
6
CONTINUOUS
10
95.7204490000000021
20
-99.0164759999999973
11
95.517485999999991
21
-99.0824229999999915
0
LINE
8
BLACK
6
CONTINUOUS
10
95.517485999999991
20
-99.0824229999999915
11
95.3067039999999963
21
-99.1158080000000012
0
LINE
8
BLACK
6
CONTINUOUS
10
95.3067039999999963
20
-99.1158080000000012
11
95.0932959999999952
21
-99.1158080000000012
0
LINE
8
BLACK
6
CONTINUOUS
10
95.0932959999999952
20
-99.1158080000000012
11
94.8825140000000005
21
-99.0824229999999915
0
LINE
8
BLACK
6
CONTINUOUS
10
94.8825140000000005
20
-99.0824229999999915
11
94.6795509999999894
21
-99.0164759999999973
0
LINE
8
BLACK
6
CONTINUOUS
10
94.6795509999999894
20
-99.0164759999999973
11
94.4894019999999983
21
-98.9195909999999969
0
LINE
8
BLACK
6
CONTINUOUS
10
94.4894019999999983
20
-98.9195909999999969
11
94.3167509999999965
21
-98.7941519999999969
0
LINE
8
BLACK
6
CONTINUOUS
10
94.3167509999999965
20
-98.7941519999999969
11
94.1658479999999969
21
-98.6432489999999973
0
LINE
8
BLACK
6
CONTINUOUS
10
94.1658479999999969
20
-98.6432489999999973
11
94.0404089999999968
21
-98.4705979999999954
0
LINE
8
BLACK
6
CONTINUOUS
10
94.0404089999999968
20
-98.4705979999999954
11
93.9435239999999965
21
-98.2804489999999902
0
LINE
8
BLACK
6
CONTINUOUS
10
93.9435239999999965
20
-98.2804489999999902
11
93.8775770000000023
21
-98.0774859999999933
0
LINE
8
BLACK
6
CONTINUOUS
10
93.8775770000000023
20
-98.0774859999999933
11
93.8441919999999925
21
-97.8667039999999986
0
LINE
8
BLACK
6
CONTINUOUS
10
93.8441919999999925
20
-97.8667039999999986
11
93.8399999999999892
21
-97.2399999999999949
0
LINE
8
BLACK
6
CONTINUOUS
10
93.8399999999999892
20
-97.2399999999999949
11
93.8441919999999925
21
-97.1332960000000014
0
LINE
8
BLACK
6
CONTINUOUS
10
93.8441919999999925
20
-97.1332960000000014
11
93.8775770000000023
21
-96.9225139999999925
0
LINE
8
BLACK
6
CONTINUOUS
10
93.8775770000000023
20
-96.9225139999999925
11
93.9435239999999965
21
-96.7195509999999956
0
LINE
8
BLACK
6
CONTINUOUS
10
93.9435239999999965
20
-96.7195509999999956
11
94.0404089999999968
21
-96.5294019999999904
0
LINE
8
BLACK
6
CONTINUOUS
10
94.0404089999999968
20
-96.5294019999999904
11
94.1658479999999969
21
-96.3567510000000027
0
LINE
8
BLACK
6
CONTINUOUS
10
94.1658479999999969
20
-96.3567510000000027
11
94.3167509999999965
21
-96.2058479999999889
0
LINE
8
BLACK
6
CONTINUOUS
10
94.3167509999999965
20
-96.2058479999999889
11
94.4894019999999983
21
-96.0804089999999889
0
LINE
8
BLACK
6
CONTINUOUS
10
94.4894019999999983
20
-96.0804089999999889
11
94.6795509999999894
21
-95.9835240000000027
0
LINE
8
BLACK
6
CONTINUOUS
10
94.6795509999999894
20
-95.9835240000000027
11
94.8825140000000005
21
-95.9175769999999943
0
LINE
8
BLACK
6
CONTINUOUS
10
94.8825140000000005
20
-95.9175769999999943
11
95.0932959999999952
21
-95.8841919999999988
0
LINE
8
BLACK
6
CONTINUOUS
10
95.0932959999999952
20
-95.8841919999999988
11
95.3067039999999963
21
-95.8841919999999988
0
LINE
8
BLACK
6
CONTINUOUS
10
95.3067039999999963
20
-95.8841919999999988
11
95.517485999999991
21
-95.9175769999999943
0
LINE
8
BLACK
6
CONTINUOUS
10
105.1174859999999995
20
-95.9175769999999943
11
105.3204489999999964
21
-95.9835240000000027
0
LINE
8
BLACK
6
CONTINUOUS
10
105.3204489999999964
20
-95.9835240000000027
11
105.5105980000000017
21
-96.0804089999999889
0
LINE
8
BLACK
6
CONTINUOUS
10
105.5105980000000017
20
-96.0804089999999889
11
105.6832489999999893
21
-96.2058479999999889
0
LINE
8
BLACK
6
CONTINUOUS
10
105.6832489999999893
20
-96.2058479999999889
11
105.8341519999999889
21
-96.3567510000000027
0
LINE
8
BLACK
6
CONTINUOUS
10
105.8341519999999889
20
-96.3567510000000027
11
105.959590999999989
21
-96.5294019999999904
0
LINE
8
BLACK
6
CONTINUOUS
10
105.959590999999989
20
-96.5294019999999904
11
106.0564759999999893
21
-96.7195509999999956
0
LINE
8
BLACK
6
CONTINUOUS
10
106.0564759999999893
20
-96.7195509999999956
11
106.1224229999999977
21
-96.9225139999999925
0
LINE
8
BLACK
6
CONTINUOUS
10
106.1224229999999977
20
-96.9225139999999925
11
106.1558079999999933
21
-97.1332960000000014
0
LINE
8
BLACK
6
CONTINUOUS
10
106.1558079999999933
20
-97.1332960000000014
11
106.1599999999999966
21
-97.7599999999999909
0
LINE
8
BLACK
6
CONTINUOUS
10
106.1599999999999966
20
-97.7599999999999909
11
106.1558079999999933
21
-97.8667039999999986
0
LINE
8
BLACK
6
CONTINUOUS
10
106.1558079999999933
20
-97.8667039999999986
11
106.1224229999999977
21
-98.0774859999999933
0
LINE
8
BLACK
6
CONTINUOUS
10
106.1224229999999977
20
-98.0774859999999933
11
106.0564759999999893
21
-98.2804489999999902
0
LINE
8
BLACK
6
CONTINUOUS
10
106.0564759999999893
20
-98.2804489999999902
11
105.959590999999989
21
-98.4705979999999954
0
LINE
8
BLACK
6
CONTINUOUS
10
105.959590999999989
20
-98.4705979999999954
11
105.8341519999999889
21
-98.6432489999999973
0
LINE
8
BLACK
6
CONTINUOUS
10
105.8341519999999889
20
-98.6432489999999973
11
105.6832489999999893
21
-98.7941519999999969
0
LINE
8
BLACK
6
CONTINUOUS
10
105.6832489999999893
20
-98.7941519999999969
11
105.5105980000000017
21
-98.9195909999999969
0
LINE
8
BLACK
6
CONTINUOUS
10
105.5105980000000017
20
-98.9195909999999969
11
105.3204489999999964
21
-99.0164759999999973
0
LINE
8
BLACK
6
CONTINUOUS
10
105.3204489999999964
20
-99.0164759999999973
11
105.1174859999999995
21
-99.0824229999999915
0
LINE
8
BLACK
6
CONTINUOUS
10
105.1174859999999995
20
-99.0824229999999915
11
104.9067039999999906
21
-99.1158080000000012
0
LINE
8
BLACK
6
CONTINUOUS
10
104.9067039999999906
20
-99.1158080000000012
11
104.6932959999999895
21
-99.1158080000000012
0
LINE
8
BLACK
6
CONTINUOUS
10
104.6932959999999895
20
-99.1158080000000012
11
104.4825139999999948
21
-99.0824229999999915
0
LINE
8
BLACK
6
CONTINUOUS
10
104.4825139999999948
20
-99.0824229999999915
11
104.2795509999999979
21
-99.0164759999999973
0
LINE
8
BLACK
6
CONTINUOUS
10
104.2795509999999979
20
-99.0164759999999973
11
104.0894019999999927
21
-98.9195909999999969
0
LINE
8
BLACK
6
CONTINUOUS
10
104.0894019999999927
20
-98.9195909999999969
11
103.9167509999999908
21
-98.7941519999999969
0
LINE
8
BLACK
6
CONTINUOUS
10
103.9167509999999908
20
-98.7941519999999969
11
103.7658479999999912
21
-98.6432489999999973
0
LINE
8
BLACK
6
CONTINUOUS
10
103.7658479999999912
20
-98.6432489999999973
11
103.6404089999999911
21
-98.4705979999999954
0
LINE
8
BLACK
6
CONTINUOUS
10
103.6404089999999911
20
-98.4705979999999954
11
103.5435239999999908
21
-98.2804489999999902
0
LINE
8
BLACK
6
CONTINUOUS
10
103.5435239999999908
20
-98.2804489999999902
11
103.4775769999999966
21
-98.0774859999999933
0
LINE
8
BLACK
6
CONTINUOUS
10
103.4775769999999966
20
-98.0774859999999933
11
103.444192000000001
21
-97.8667039999999986
0
LINE
8
BLACK
6
CONTINUOUS
10
103.444192000000001
20
-97.8667039999999986
11
103.4399999999999977
21
-97.2399999999999949
0
LINE
8
BLACK
6
CONTINUOUS
10
103.4399999999999977
20
-97.2399999999999949
11
103.444192000000001
21
-97.1332960000000014
0
LINE
8
BLACK
6
CONTINUOUS
10
103.444192000000001
20
-97.1332960000000014
11
103.4775769999999966
21
-96.9225139999999925
0
LINE
8
BLACK
6
CONTINUOUS
10
103.4775769999999966
20
-96.9225139999999925
11
103.5435239999999908
21
-96.7195509999999956
0
LINE
8
BLACK
6
CONTINUOUS
10
103.5435239999999908
20
-96.7195509999999956
11
103.6404089999999911
21
-96.5294019999999904
0
LINE
8
BLACK
6
CONTINUOUS
10
103.6404089999999911
20
-96.5294019999999904
11
103.7658479999999912
21
-96.3567510000000027
0
LINE
8
BLACK
6
CONTINUOUS
10
103.7658479999999912
20
-96.3567510000000027
11
103.9167509999999908
21
-96.2058479999999889
0
LINE
8
BLACK
6
CONTINUOUS
10
103.9167509999999908
20
-96.2058479999999889
11
104.0894019999999927
21
-96.0804089999999889
0
LINE
8
BLACK
6
CONTINUOUS
10
104.0894019999999927
20
-96.0804089999999889
11
104.2795509999999979
21
-95.9835240000000027
0
LINE
8
BLACK
6
CONTINUOUS
10
104.2795509999999979
20
-95.9835240000000027
11
104.4825139999999948
21
-95.9175769999999943
0
LINE
8
BLACK
6
CONTINUOUS
10
104.4825139999999948
20
-95.9175769999999943
11
104.6932959999999895
21
-95.8841919999999988
0
LINE
8
BLACK
6
CONTINUOUS
10
104.6932959999999895
20
-95.8841919999999988
11
104.9067039999999906
21
-95.8841919999999988
0
LINE
8
BLACK
6
CONTINUOUS
10
104.9067039999999906
20
-95.8841919999999988
11
105.1174859999999995
21
-95.9175769999999943
0
LINE
8
BLACK
6
CONTINUOUS
10
98.3999999999999915
20
-90.8999999999999915
11
96.5999999999999943
21
-90.8999999999999915
0
LINE
8
BLACK
6
CONTINUOUS
10
96.5999999999999943
20
-90.8999999999999915
11
96.5999999999999943
21
-89.0999999999999943
0
LINE
8
BLACK
6
CONTINUOUS
10
96.5999999999999943
20
-89.0999999999999943
11
98.3999999999999915
21
-89.0999999999999943
0
LINE
8
BLACK
6
CONTINUOUS
10
98.3999999999999915
20
-89.0999999999999943
11
98.3999999999999915
21
-90.8999999999999915
0
LINE
8
BLACK
6
CONTINUOUS
10
100.2781149999999997
20
-89.1440489999999954
11
100.4499999999999886
21
-89.2205769999999916
0
LINE
8
BLACK
6
CONTINUOUS
10
100.4499999999999886
20
-89.2205769999999916
11
100.6022179999999935
21
-89.3311700000000002
0
LINE
8
BLACK
6
CONTINUOUS
10
100.6022179999999935
20
-89.3311700000000002
11
100.7281150000000025
21
-89.4709929999999929
0
LINE
8
BLACK
6
CONTINUOUS
10
100.7281150000000025
20
-89.4709929999999929
11
100.8221909999999895
21
-89.6339369999999889
0
LINE
8
BLACK
6
CONTINUOUS
10
100.8221909999999895
20
-89.6339369999999889
11
100.8803329999999931
21
-89.8128789999999952
0
LINE
8
BLACK
6
CONTINUOUS
10
100.8803329999999931
20
-89.8128789999999952
11
100.8999999999999915
21
-90.
0
LINE
8
BLACK
6
CONTINUOUS
10
100.8999999999999915
20
-90.
11
100.8803329999999931
21
-90.1871209999999905
0
LINE
8
BLACK
6
CONTINUOUS
10
100.8803329999999931
20
-90.1871209999999905
11
100.8221909999999895
21
-90.3660629999999969
0
LINE
8
BLACK
6
CONTINUOUS
10
100.8221909999999895
20
-90.3660629999999969
11
100.7281150000000025
21
-90.5290069999999929
0
LINE
8
BLACK
6
CONTINUOUS
10
100.7281150000000025
20
-90.5290069999999929
11
100.6022179999999935
21
-90.6688299999999998
0
LINE
8
BLACK
6
CONTINUOUS
10
100.6022179999999935
20
-90.6688299999999998
11
100.4499999999999886
21
-90.7794229999999942
0
LINE
8
BLACK
6
CONTINUOUS
10
100.4499999999999886
20
-90.7794229999999942
11
100.2781149999999997
21
-90.8559509999999904
0
LINE
8
BLACK
6
CONTINUOUS
10
100.2781149999999997
20
-90.8559509999999904
11
100.0940760000000012
21
-90.8950699999999898
0
LINE
8
BLACK
6
CONTINUOUS
10
100.0940760000000012
20
-90.8950699999999898
11
99.9059239999999988
21
-90.8950699999999898
0
LINE
8
BLACK
6
CONTINUOUS
10
99.9059239999999988
20
-90.8950699999999898
11
99.7218850000000003
21
-90.8559509999999904
0
LINE
8
BLACK
6
CONTINUOUS
10
99.7218850000000003
20
-90.8559509999999904
11
99.5499999999999972
21
-90.7794229999999942
0
LINE
8
BLACK
6
CONTINUOUS
10
99.5499999999999972
20
-90.7794229999999942
11
99.3977819999999923
21
-90.6688299999999998
0
LINE
8
BLACK
6
CONTINUOUS
10
99.3977819999999923
20
-90.6688299999999998
11
99.2718849999999975
21
-90.5290069999999929
0
LINE
8
BLACK
6
CONTINUOUS
10
99.2718849999999975
20
-90.5290069999999929
11
99.1778089999999963
21
-90.3660629999999969
0
LINE
8
BLACK
6
CONTINUOUS
10
99.1778089999999963
20
-90.3660629999999969
11
99.1196669999999926
21
-90.1871209999999905
0
LINE
8
BLACK
6
CONTINUOUS
10
99.1196669999999926
20
-90.1871209999999905
11
99.0999999999999943
21
-90.
0
LINE
8
BLACK
6
CONTINUOUS
10
99.0999999999999943
20
-90.
11
99.1196669999999926
21
-89.8128789999999952
0
LINE
8
BLACK
6
CONTINUOUS
10
99.1196669999999926
20
-89.8128789999999952
11
99.1778089999999963
21
-89.6339369999999889
0
LINE
8
BLACK
6
CONTINUOUS
10
99.1778089999999963
20
-89.6339369999999889
11
99.2718849999999975
21
-89.4709929999999929
0
LINE
8
BLACK
6
CONTINUOUS
10
99.2718849999999975
20
-89.4709929999999929
11
99.3977819999999923
21
-89.3311700000000002
0
LINE
8
BLACK
6
CONTINUOUS
10
99.3977819999999923
20
-89.3311700000000002
11
99.5499999999999972
21
-89.2205769999999916
0
LINE
8
BLACK
6
CONTINUOUS
10
99.5499999999999972
20
-89.2205769999999916
11
99.7218850000000003
21
-89.1440489999999954
0
LINE
8
BLACK
6
CONTINUOUS
10
99.7218850000000003
20
-89.1440489999999954
11
99.9059239999999988
21
-89.104929999999996
0
LINE
8
BLACK
6
CONTINUOUS
10
99.9059239999999988
20
-89.104929999999996
11
100.0940760000000012
21
-89.104929999999996
0
LINE
8
BLACK
6
CONTINUOUS
10
100.0940760000000012
20
-89.104929999999996
11
100.2781149999999997
21
-89.1440489999999954
0
LINE
8
BLACK
6
CONTINUOUS
10
102.7781149999999997
20
-89.1440489999999954
11
102.9499999999999886
21
-89.2205769999999916
0
LINE
8
BLACK
6
CONTINUOUS
10
102.9499999999999886
20
-89.2205769999999916
11
103.1022179999999935
21
-89.3311700000000002
0
LINE
8
BLACK
6
CONTINUOUS
10
103.1022179999999935
20
-89.3311700000000002
11
103.2281149999999883
21
-89.4709929999999929
0
LINE
8
BLACK
6
CONTINUOUS
10
103.2281149999999883
20
-89.4709929999999929
11
103.3221909999999895
21
-89.6339369999999889
0
LINE
8
BLACK
6
CONTINUOUS
10
103.3221909999999895
20
-89.6339369999999889
11
103.3803329999999931
21
-89.8128789999999952
0
LINE
8
BLACK
6
CONTINUOUS
10
103.3803329999999931
20
-89.8128789999999952
11
103.3999999999999915
21
-90.
0
LINE
8
BLACK
6
CONTINUOUS
10
103.3999999999999915
20
-90.
11
103.3803329999999931
21
-90.1871209999999905
0
LINE
8
BLACK
6
CONTINUOUS
10
103.3803329999999931
20
-90.1871209999999905
11
103.3221909999999895
21
-90.3660629999999969
0
LINE
8
BLACK
6
CONTINUOUS
10
103.3221909999999895
20
-90.3660629999999969
11
103.2281149999999883
21
-90.5290069999999929
0
LINE
8
BLACK
6
CONTINUOUS
10
103.2281149999999883
20
-90.5290069999999929
11
103.1022179999999935
21
-90.6688299999999998
0
LINE
8
BLACK
6
CONTINUOUS
10
103.1022179999999935
20
-90.6688299999999998
11
102.9499999999999886
21
-90.7794229999999942
0
LINE
8
BLACK
6
CONTINUOUS
10
102.9499999999999886
20
-90.7794229999999942
11
102.7781149999999997
21
-90.8559509999999904
0
LINE
8
BLACK
6
CONTINUOUS
10
102.7781149999999997
20
-90.8559509999999904
11
102.5940760000000012
21
-90.8950699999999898
0
LINE
8
BLACK
6
CONTINUOUS
10
102.5940760000000012
20
-90.8950699999999898
11
102.4059239999999988
21
-90.8950699999999898
0
LINE
8
BLACK
6
CONTINUOUS
10
102.4059239999999988
20
-90.8950699999999898
11
102.2218850000000003
21
-90.8559509999999904
0
LINE
8
BLACK
6
CONTINUOUS
10
102.2218850000000003
20
-90.8559509999999904
11
102.0499999999999972
21
-90.7794229999999942
0
LINE
8
BLACK
6
CONTINUOUS
10
102.0499999999999972
20
-90.7794229999999942
11
101.8977819999999923
21
-90.6688299999999998
0
LINE
8
BLACK
6
CONTINUOUS
10
101.8977819999999923
20
-90.6688299999999998
11
101.7718849999999975
21
-90.5290069999999929
0
LINE
8
BLACK
6
CONTINUOUS
10
101.7718849999999975
20
-90.5290069999999929
11
101.6778089999999963
21
-90.3660629999999969
0
LINE
8
BLACK
6
CONTINUOUS
10
101.6778089999999963
20
-90.3660629999999969
11
101.6196669999999926
21
-90.1871209999999905
0
LINE
8
BLACK
6
CONTINUOUS
10
101.6196669999999926
20
-90.1871209999999905
11
101.5999999999999943
21
-90.
0
LINE
8
BLACK
6
CONTINUOUS
10
101.5999999999999943
20
-90.
11
101.6196669999999926
21
-89.8128789999999952
0
LINE
8
BLACK
6
CONTINUOUS
10
101.6196669999999926
20
-89.8128789999999952
11
101.6778089999999963
21
-89.6339369999999889
0
LINE
8
BLACK
6
CONTINUOUS
10
101.6778089999999963
20
-89.6339369999999889
11
101.7718849999999975
21
-89.4709929999999929
0
LINE
8
BLACK
6
CONTINUOUS
10
101.7718849999999975
20
-89.4709929999999929
11
101.8977819999999923
21
-89.3311700000000002
0
LINE
8
BLACK
6
CONTINUOUS
10
101.8977819999999923
20
-89.3311700000000002
11
102.0499999999999972
21
-89.2205769999999916
0
LINE
8
BLACK
6
CONTINUOUS
10
102.0499999999999972
20
-89.2205769999999916
11
102.2218850000000003
21
-89.1440489999999954
0
LINE
8
BLACK
6
CONTINUOUS
10
102.2218850000000003
20
-89.1440489999999954
11
102.4059239999999988
21
-89.104929999999996
0
LINE
8
BLACK
6
CONTINUOUS
10
102.4059239999999988
20
-89.104929999999996
11
102.5940760000000012
21
-89.104929999999996
0
LINE
8
BLACK
6
CONTINUOUS
10
102.5940760000000012
20
-89.104929999999996
11
102.7781149999999997
21
-89.1440489999999954
0
LINE
8
BLACK
6
CONTINUOUS
10
95.517485999999991
20
-80.9175769999999943
11
95.7204490000000021
21
-80.9835240000000027
0
LINE
8
BLACK
6
CONTINUOUS
10
95.7204490000000021
20
-80.9835240000000027
11
95.9105979999999931
21
-81.0804090000000031
0
LINE
8
BLACK
6
CONTINUOUS
10
95.9105979999999931
20
-81.0804090000000031
11
96.083248999999995
21
-81.2058480000000031
0
LINE
8
BLACK
6
CONTINUOUS
10
96.083248999999995
20
-81.2058480000000031
11
96.2341519999999946
21
-81.3567510000000027
0
LINE
8
BLACK
6
CONTINUOUS
10
96.2341519999999946
20
-81.3567510000000027
11
96.3595909999999947
21
-81.5294019999999904
0
LINE
8
BLACK
6
CONTINUOUS
10
96.3595909999999947
20
-81.5294019999999904
11
96.456475999999995
21
-81.7195509999999956
0
LINE
8
BLACK
6
CONTINUOUS
10
96.456475999999995
20
-81.7195509999999956
11
96.5224229999999892
21
-81.9225139999999925
0
LINE
8
BLACK
6
CONTINUOUS
10
96.5224229999999892
20
-81.9225139999999925
11
96.555807999999999
21
-82.1332960000000014
0
LINE
8
BLACK
6
CONTINUOUS
10
96.555807999999999
20
-82.1332960000000014
11
96.5600000000000023
21
-82.7599999999999909
0
LINE
8
BLACK
6
CONTINUOUS
10
96.5600000000000023
20
-82.7599999999999909
11
96.555807999999999
21
-82.8667039999999986
0
LINE
8
BLACK
6
CONTINUOUS
10
96.555807999999999
20
-82.8667039999999986
11
96.5224229999999892
21
-83.0774859999999933
0
LINE
8
BLACK
6
CONTINUOUS
10
96.5224229999999892
20
-83.0774859999999933
11
96.456475999999995
21
-83.2804489999999902
0
LINE
8
BLACK
6
CONTINUOUS
10
96.456475999999995
20
-83.2804489999999902
11
96.3595909999999947
21
-83.4705979999999954
0
LINE
8
BLACK
6
CONTINUOUS
10
96.3595909999999947
20
-83.4705979999999954
11
96.2341519999999946
21
-83.6432489999999973
0
LINE
8
BLACK
6
CONTINUOUS
10
96.2341519999999946
20
-83.6432489999999973
11
96.083248999999995
21
-83.7941519999999969
0
LINE
8
BLACK
6
CONTINUOUS
10
96.083248999999995
20
-83.7941519999999969
11
95.9105979999999931
21
-83.9195909999999969
0
LINE
8
BLACK
6
CONTINUOUS
10
95.9105979999999931
20
-83.9195909999999969
11
95.7204490000000021
21
-84.0164759999999973
0
LINE
8
BLACK
6
CONTINUOUS
10
95.7204490000000021
20
-84.0164759999999973
11
95.517485999999991
21
-84.0824229999999915
0
LINE
8
BLACK
6
CONTINUOUS
10
95.517485999999991
20
-84.0824229999999915
11
95.3067039999999963
21
-84.1158080000000012
0
LINE
8
BLACK
6
CONTINUOUS
10
95.3067039999999963
20
-84.1158080000000012
11
95.0932959999999952
21
-84.1158080000000012
0
LINE
8
BLACK
6
CONTINUOUS
10
95.0932959999999952
20
-84.1158080000000012
11
94.8825140000000005
21
-84.0824229999999915
0
LINE
8
BLACK
6
CONTINUOUS
10
94.8825140000000005
20
-84.0824229999999915
11
94.6795509999999894
21
-84.0164759999999973
0
LINE
8
BLACK
6
CONTINUOUS
10
94.6795509999999894
20
-84.0164759999999973
11
94.4894019999999983
21
-83.9195909999999969
0
LINE
8
BLACK
6
CONTINUOUS
10
94.4894019999999983
20
-83.9195909999999969
11
94.3167509999999965
21
-83.7941519999999969
0
LINE
8
BLACK
6
CONTINUOUS
10
94.3167509999999965
20
-83.7941519999999969
11
94.1658479999999969
21
-83.6432489999999973
0
LINE
8
BLACK
6
CONTINUOUS
10
94.1658479999999969
20
-83.6432489999999973
11
94.0404089999999968
21
-83.4705979999999954
0
LINE
8
BLACK
6
CONTINUOUS
10
94.0404089999999968
20
-83.4705979999999954
11
93.9435239999999965
21
-83.2804489999999902
0
LINE
8
BLACK
6
CONTINUOUS
10
93.9435239999999965
20
-83.2804489999999902
11
93.8775770000000023
21
-83.0774859999999933
0
LINE
8
BLACK
6
CONTINUOUS
10
93.8775770000000023
20
-83.0774859999999933
11
93.8441919999999925
21
-82.8667039999999986
0
LINE
8
BLACK
6
CONTINUOUS
10
93.8441919999999925
20
-82.8667039999999986
11
93.8399999999999892
21
-82.2399999999999949
0
LINE
8
BLACK
6
CONTINUOUS
10
93.8399999999999892
20
-82.2399999999999949
11
93.8441919999999925
21
-82.1332960000000014
0
LINE
8
BLACK
6
CONTINUOUS
10
93.8441919999999925
20
-82.1332960000000014
11
93.8775770000000023
21
-81.9225139999999925
0
LINE
8
BLACK
6
CONTINUOUS
10
93.8775770000000023
20
-81.9225139999999925
11
93.9435239999999965
21
-81.7195509999999956
0
LINE
8
BLACK
6
CONTINUOUS
10
93.9435239999999965
20
-81.7195509999999956
11
94.0404089999999968
21
-81.5294019999999904
0
LINE
8
BLACK
6
CONTINUOUS
10
94.0404089999999968
20
-81.5294019999999904
11
94.1658479999999969
21
-81.3567510000000027
0
LINE
8
BLACK
6
CONTINUOUS
10
94.1658479999999969
20
-81.3567510000000027
11
94.3167509999999965
21
-81.2058480000000031
0
LINE
8
BLACK
6
CONTINUOUS
10
94.3167509999999965
20
-81.2058480000000031
11
94.4894019999999983
21
-81.0804090000000031
0
LINE
8
BLACK
6
CONTINUOUS
10
94.4894019999999983
20
-81.0804090000000031
11
94.6795509999999894
21
-80.9835240000000027
0
LINE
8
BLACK
6
CONTINUOUS
10
94.6795509999999894
20
-80.9835240000000027
11
94.8825140000000005
21
-80.9175769999999943
0
LINE
8
BLACK
6
CONTINUOUS
10
94.8825140000000005
20
-80.9175769999999943
11
95.0932959999999952
21
-80.8841919999999988
0
LINE
8
BLACK
6
CONTINUOUS
10
95.0932959999999952
20
-80.8841919999999988
11
95.3067039999999963
21
-80.8841919999999988
0
LINE
8
BLACK
6
CONTINUOUS
10
95.3067039999999963
20
-80.8841919999999988
11
95.517485999999991
21
-80.9175769999999943
0
LINE
8
BLACK
6
CONTINUOUS
10
105.1174859999999995
20
-80.9175769999999943
11
105.3204489999999964
21
-80.9835240000000027
0
LINE
8
BLACK
6
CONTINUOUS
10
105.3204489999999964
20
-80.9835240000000027
11
105.5105980000000017
21
-81.0804090000000031
0
LINE
8
BLACK
6
CONTINUOUS
10
105.5105980000000017
20
-81.0804090000000031
11
105.6832489999999893
21
-81.2058480000000031
0
LINE
8
BLACK
6
CONTINUOUS
10
105.6832489999999893
20
-81.2058480000000031
11
105.8341519999999889
21
-81.3567510000000027
0
LINE
8
BLACK
6
CONTINUOUS
10
105.8341519999999889
20
-81.3567510000000027
11
105.959590999999989
21
-81.5294019999999904
0
LINE
8
BLACK
6
CONTINUOUS
10
105.959590999999989
20
-81.5294019999999904
11
106.0564759999999893
21
-81.7195509999999956
0
LINE
8
BLACK
6
CONTINUOUS
10
106.0564759999999893
20
-81.7195509999999956
11
106.1224229999999977
21
-81.9225139999999925
0
LINE
8
BLACK
6
CONTINUOUS
10
106.1224229999999977
20
-81.9225139999999925
11
106.1558079999999933
21
-82.1332960000000014
0
LINE
8
BLACK
6
CONTINUOUS
10
106.1558079999999933
20
-82.1332960000000014
11
106.1599999999999966
21
-82.7599999999999909
0
LINE
8
BLACK
6
CONTINUOUS
10
106.1599999999999966
20
-82.7599999999999909
11
106.1558079999999933
21
-82.8667039999999986
0
LINE
8
BLACK
6
CONTINUOUS
10
106.1558079999999933
20
-82.8667039999999986
11
106.1224229999999977
21
-83.0774859999999933
0
LINE
8
BLACK
6
CONTINUOUS
10
106.1224229999999977
20
-83.0774859999999933
11
106.0564759999999893
21
-83.2804489999999902
0
LINE
8
BLACK
6
CONTINUOUS
10
106.0564759999999893
20
-83.2804489999999902
11
105.959590999999989
21
-83.4705979999999954
0
LINE
8
BLACK
6
CONTINUOUS
10
105.959590999999989
20
-83.4705979999999954
11
105.8341519999999889
21
-83.6432489999999973
0
LINE
8
BLACK
6
CONTINUOUS
10
105.8341519999999889
20
-83.6432489999999973
11
105.6832489999999893
21
-83.7941519999999969
0
LINE
8
BLACK
6
CONTINUOUS
10
105.6832489999999893
20
-83.7941519999999969
11
105.5105980000000017
21
-83.9195909999999969
0
LINE
8
BLACK
6
CONTINUOUS
10
105.5105980000000017
20
-83.9195909999999969
11
105.3204489999999964
21
-84.0164759999999973
0
LINE
8
BLACK
6
CONTINUOUS
10
105.3204489999999964
20
-84.0164759999999973
11
105.1174859999999995
21
-84.0824229999999915
0
LINE
8
BLACK
6
CONTINUOUS
10
105.1174859999999995
20
-84.0824229999999915
11
104.9067039999999906
21
-84.1158080000000012
0
LINE
8
BLACK
6
CONTINUOUS
10
104.9067039999999906
20
-84.1158080000000012
11
104.6932959999999895
21
-84.1158080000000012
0
LINE
8
BLACK
6
CONTINUOUS
10
104.6932959999999895
20
-84.1158080000000012
11
104.4825139999999948
21
-84.0824229999999915
0
LINE
8
BLACK
6
CONTINUOUS
10
104.4825139999999948
20
-84.0824229999999915
11
104.2795509999999979
21
-84.0164759999999973
0
LINE
8
BLACK
6
CONTINUOUS
10
104.2795509999999979
20
-84.0164759999999973
11
104.0894019999999927
21
-83.9195909999999969
0
LINE
8
BLACK
6
CONTINUOUS
10
104.0894019999999927
20
-83.9195909999999969
11
103.9167509999999908
21
-83.7941519999999969
0
LINE
8
BLACK
6
CONTINUOUS
10
103.9167509999999908
20
-83.7941519999999969
11
103.7658479999999912
21
-83.6432489999999973
0
LINE
8
BLACK
6
CONTINUOUS
10
103.7658479999999912
20
-83.6432489999999973
11
103.6404089999999911
21
-83.4705979999999954
0
LINE
8
BLACK
6
CONTINUOUS
10
103.6404089999999911
20
-83.4705979999999954
11
103.5435239999999908
21
-83.2804489999999902
0
LINE
8
BLACK
6
CONTINUOUS
10
103.5435239999999908
20
-83.2804489999999902
11
103.4775769999999966
21
-83.0774859999999933
0
LINE
8
BLACK
6
CONTINUOUS
10
103.4775769999999966
20
-83.0774859999999933
11
103.444192000000001
21
-82.8667039999999986
0
LINE
8
BLACK
6
CONTINUOUS
10
103.444192000000001
20
-82.8667039999999986
11
103.4399999999999977
21
-82.2399999999999949
0
LINE
8
BLACK
6
CONTINUOUS
10
103.4399999999999977
20
-82.2399999999999949
11
103.444192000000001
21
-82.1332960000000014
0
LINE
8
BLACK
6
CONTINUOUS
10
103.444192000000001
20
-82.1332960000000014
11
103.4775769999999966
21
-81.9225139999999925
0
LINE
8
BLACK
6
CONTINUOUS
10
103.4775769999999966
20
-81.9225139999999925
11
103.5435239999999908
21
-81.7195509999999956
0
LINE
8
BLACK
6
CONTINUOUS
10
103.5435239999999908
20
-81.7195509999999956
11
103.6404089999999911
21
-81.5294019999999904
0
LINE
8
BLACK
6
CONTINUOUS
10
103.6404089999999911
20
-81.5294019999999904
11
103.7658479999999912
21
-81.3567510000000027
0
LINE
8
BLACK
6
CONTINUOUS
10
103.7658479999999912
20
-81.3567510000000027
11
103.9167509999999908
21
-81.2058480000000031
0
LINE
8
BLACK
6
CONTINUOUS
10
103.9167509999999908
20
-81.2058480000000031
11
104.0894019999999927
21
-81.0804090000000031
0
LINE
8
BLACK
6
CONTINUOUS
10
104.0894019999999927
20
-81.0804090000000031
11
104.2795509999999979
21
-80.9835240000000027
0
LINE
8
BLACK
6
CONTINUOUS
10
104.2795509999999979
20
-80.9835240000000027
11
104.4825139999999948
21
-80.9175769999999943
0
LINE
8
BLACK
6
CONTINUOUS
10
104.4825139999999948
20
-80.9175769999999943
11
104.6932959999999895
21
-80.8841919999999988
0
LINE
8
BLACK
6
CONTINUOUS
10
104.6932959999999895
20
-80.8841919999999988
11
104.9067039999999906
21
-80.8841919999999988
0
LINE
8
BLACK
6
CONTINUOUS
10
104.9067039999999906
20
-80.8841919999999988
11
105.1174859999999995
21
-80.9175769999999943
0
LINE
8
BLACK
6
CONTINUOUS
10
98.3999999999999915
20
-75.8999999999999915
11
96.5999999999999943
21
-75.8999999999999915
0
LINE
8
BLACK
6
CONTINUOUS
10
96.5999999999999943
20
-75.8999999999999915
11
96.5999999999999943
21
-74.0999999999999943
0
LINE
8
BLACK
6
CONTINUOUS
10
96.5999999999999943
20
-74.0999999999999943
11
98.3999999999999915
21
-74.0999999999999943
0
LINE
8
BLACK
6
CONTINUOUS
10
98.3999999999999915
20
-74.0999999999999943
11
98.3999999999999915
21
-75.8999999999999915
0
LINE
8
BLACK
6
CONTINUOUS
10
100.2781149999999997
20
-74.1440489999999954
11
100.4499999999999886
21
-74.2205769999999916
0
LINE
8
BLACK
6
CONTINUOUS
10
100.4499999999999886
20
-74.2205769999999916
11
100.6022179999999935
21
-74.3311700000000002
0
LINE
8
BLACK
6
CONTINUOUS
10
100.6022179999999935
20
-74.3311700000000002
11
100.7281150000000025
21
-74.4709929999999929
0
LINE
8
BLACK
6
CONTINUOUS
10
100.7281150000000025
20
-74.4709929999999929
11
100.8221909999999895
21
-74.6339370000000031
0
LINE
8
BLACK
6
CONTINUOUS
10
100.8221909999999895
20
-74.6339370000000031
11
100.8803329999999931
21
-74.8128789999999952
0
LINE
8
BLACK
6
CONTINUOUS
10
100.8803329999999931
20
-74.8128789999999952
11
100.8999999999999915
21
-75.
0
LINE
8
BLACK
6
CONTINUOUS
10
100.8999999999999915
20
-75.
11
100.8803329999999931
21
-75.1871209999999905
0
LINE
8
BLACK
6
CONTINUOUS
10
100.8803329999999931
20
-75.1871209999999905
11
100.8221909999999895
21
-75.3660629999999969
0
LINE
8
BLACK
6
CONTINUOUS
10
100.8221909999999895
20
-75.3660629999999969
11
100.7281150000000025
21
-75.5290069999999929
0
LINE
8
BLACK
6
CONTINUOUS
10
100.7281150000000025
20
-75.5290069999999929
11
100.6022179999999935
21
-75.6688299999999998
0
LINE
8
BLACK
6
CONTINUOUS
10
100.6022179999999935
20
-75.6688299999999998
11
100.4499999999999886
21
-75.7794229999999942
0
LINE
8
BLACK
6
CONTINUOUS
10
100.4499999999999886
20
-75.7794229999999942
11
100.2781149999999997
21
-75.8559509999999904
0
LINE
8
BLACK
6
CONTINUOUS
10
100.2781149999999997
20
-75.8559509999999904
11
100.0940760000000012
21
-75.8950699999999898
0
LINE
8
BLACK
6
CONTINUOUS
10
100.0940760000000012
20
-75.8950699999999898
11
99.9059239999999988
21
-75.8950699999999898
0
LINE
8
BLACK
6
CONTINUOUS
10
99.9059239999999988
20
-75.8950699999999898
11
99.7218850000000003
21
-75.8559509999999904
0
LINE
8
BLACK
6
CONTINUOUS
10
99.7218850000000003
20
-75.8559509999999904
11
99.5499999999999972
21
-75.7794229999999942
0
LINE
8
BLACK
6
CONTINUOUS
10
99.5499999999999972
20
-75.7794229999999942
11
99.3977819999999923
21
-75.6688299999999998
0
LINE
8
BLACK
6
CONTINUOUS
10
99.3977819999999923
20
-75.6688299999999998
11
99.2718849999999975
21
-75.5290069999999929
0
LINE
8
BLACK
6
CONTINUOUS
10
99.2718849999999975
20
-75.5290069999999929
11
99.1778089999999963
21
-75.3660629999999969
0
LINE
8
BLACK
6
CONTINUOUS
10
99.1778089999999963
20
-75.3660629999999969
11
99.1196669999999926
21
-75.1871209999999905
0
LINE
8
BLACK
6
CONTINUOUS
10
99.1196669999999926
20
-75.1871209999999905
11
99.0999999999999943
21
-75.
0
LINE
8
BLACK
6
CONTINUOUS
10
99.0999999999999943
20
-75.
11
99.1196669999999926
21
-74.8128789999999952
0
LINE
8
BLACK
6
CONTINUOUS
10
99.1196669999999926
20
-74.8128789999999952
11
99.1778089999999963
21
-74.6339370000000031
0
LINE
8
BLACK
6
CONTINUOUS
10
99.1778089999999963
20
-74.6339370000000031
11
99.2718849999999975
21
-74.4709929999999929
0
LINE
8
BLACK
6
CONTINUOUS
10
99.2718849999999975
20
-74.4709929999999929
11
99.3977819999999923
21
-74.3311700000000002
0
LINE
8
BLACK
6
CONTINUOUS
10
99.3977819999999923
20
-74.3311700000000002
11
99.5499999999999972
21
-74.2205769999999916
0
LINE
8
BLACK
6
CONTINUOUS
10
99.5499999999999972
20
-74.2205769999999916
11
99.7218850000000003
21
-74.1440489999999954
0
LINE
8
BLACK
6
CONTINUOUS
10
99.7218850000000003
20
-74.1440489999999954
11
99.9059239999999988
21
-74.104929999999996
0
LINE
8
BLACK
6
CONTINUOUS
10
99.9059239999999988
20
-74.104929999999996
11
100.0940760000000012
21
-74.104929999999996
0
LINE
8
BLACK
6
CONTINUOUS
10
100.0940760000000012
20
-74.104929999999996
11
100.2781149999999997
21
-74.1440489999999954
0
LINE
8
BLACK
6
CONTINUOUS
10
102.7781149999999997
20
-74.1440489999999954
11
102.9499999999999886
21
-74.2205769999999916
0
LINE
8
BLACK
6
CONTINUOUS
10
102.9499999999999886
20
-74.2205769999999916
11
103.1022179999999935
21
-74.3311700000000002
0
LINE
8
BLACK
6
CONTINUOUS
10
103.1022179999999935
20
-74.3311700000000002
11
103.2281149999999883
21
-74.4709929999999929
0
LINE
8
BLACK
6
CONTINUOUS
10
103.2281149999999883
20
-74.4709929999999929
11
103.3221909999999895
21
-74.6339370000000031
0
LINE
8
BLACK
6
CONTINUOUS
10
103.3221909999999895
20
-74.6339370000000031
11
103.3803329999999931
21
-74.8128789999999952
0
LINE
8
BLACK
6
CONTINUOUS
10
103.3803329999999931
20
-74.8128789999999952
11
103.3999999999999915
21
-75.
0
LINE
8
BLACK
6
CONTINUOUS
10
103.3999999999999915
20
-75.
11
103.3803329999999931
21
-75.1871209999999905
0
LINE
8
BLACK
6
CONTINUOUS
10
103.3803329999999931
20
-75.1871209999999905
11
103.3221909999999895
21
-75.3660629999999969
0
LINE
8
BLACK
6
CONTINUOUS
10
103.3221909999999895
20
-75.3660629999999969
11
103.2281149999999883
21
-75.5290069999999929
0
LINE
8
BLACK
6
CONTINUOUS
10
103.2281149999999883
20
-75.5290069999999929
11
103.1022179999999935
21
-75.6688299999999998
0
LINE
8
BLACK
6
CONTINUOUS
10
103.1022179999999935
20
-75.6688299999999998
11
102.9499999999999886
21
-75.7794229999999942
0
LINE
8
BLACK
6
CONTINUOUS
10
102.9499999999999886
20
-75.7794229999999942
11
102.7781149999999997
21
-75.8559509999999904
0
LINE
8
BLACK
6
CONTINUOUS
10
102.7781149999999997
20
-75.8559509999999904
11
102.5940760000000012
21
-75.8950699999999898
0
LINE
8
BLACK
6
CONTINUOUS
10
102.5940760000000012
20
-75.8950699999999898
11
102.4059239999999988
21
-75.8950699999999898
0
LINE
8
BLACK
6
CONTINUOUS
10
102.4059239999999988
20
-75.8950699999999898
11
102.2218850000000003
21
-75.8559509999999904
0
LINE
8
BLACK
6
CONTINUOUS
10
102.2218850000000003
20
-75.8559509999999904
11
102.0499999999999972
21
-75.7794229999999942
0
LINE
8
BLACK
6
CONTINUOUS
10
102.0499999999999972
20
-75.7794229999999942
11
101.8977819999999923
21
-75.6688299999999998
0
LINE
8
BLACK
6
CONTINUOUS
10
101.8977819999999923
20
-75.6688299999999998
11
101.7718849999999975
21
-75.5290069999999929
0
LINE
8
BLACK
6
CONTINUOUS
10
101.7718849999999975
20
-75.5290069999999929
11
101.6778089999999963
21
-75.3660629999999969
0
LINE
8
BLACK
6
CONTINUOUS
10
101.6778089999999963
20
-75.3660629999999969
11
101.6196669999999926
21
-75.1871209999999905
0
LINE
8
BLACK
6
CONTINUOUS
10
101.6196669999999926
20
-75.1871209999999905
11
101.5999999999999943
21
-75.
0
LINE
8
BLACK
6
CONTINUOUS
10
101.5999999999999943
20
-75.
11
101.6196669999999926
21
-74.8128789999999952
0
LINE
8
BLACK
6
CONTINUOUS
10
101.6196669999999926
20
-74.8128789999999952
11
101.6778089999999963
21
-74.6339370000000031
0
LINE
8
BLACK
6
CONTINUOUS
10
101.6778089999999963
20
-74.6339370000000031
11
101.7718849999999975
21
-74.4709929999999929
0
LINE
8
BLACK
6
CONTINUOUS
10
101.7718849999999975
20
-74.4709929999999929
11
101.8977819999999923
21
-74.3311700000000002
0
LINE
8
BLACK
6
CONTINUOUS
10
101.8977819999999923
20
-74.3311700000000002
11
102.0499999999999972
21
-74.2205769999999916
0
LINE
8
BLACK
6
CONTINUOUS
10
102.0499999999999972
20
-74.2205769999999916
11
102.2218850000000003
21
-74.1440489999999954
0
LINE
8
BLACK
6
CONTINUOUS
10
102.2218850000000003
20
-74.1440489999999954
11
102.4059239999999988
21
-74.104929999999996
0
LINE
8
BLACK
6
CONTINUOUS
10
102.4059239999999988
20
-74.104929999999996
11
102.5940760000000012
21
-74.104929999999996
0
LINE
8
BLACK
6
CONTINUOUS
10
102.5940760000000012
20
-74.104929999999996
11
102.7781149999999997
21
-74.1440489999999954
0
LINE
8
BLACK
6
CONTINUOUS
10
95.517485999999991
20
-65.9175769999999943
11
95.7204490000000021
21
-65.9835240000000027
0
LINE
8
BLACK
6
CONTINUOUS
10
95.7204490000000021
20
-65.9835240000000027
11
95.9105979999999931
21
-66.0804090000000031
0
LINE
8
BLACK
6
CONTINUOUS
10
95.9105979999999931
20
-66.0804090000000031
11
96.083248999999995
21
-66.2058480000000031
0
LINE
8
BLACK
6
CONTINUOUS
10
96.083248999999995
20
-66.2058480000000031
11
96.2341519999999946
21
-66.3567510000000027
0
LINE
8
BLACK
6
CONTINUOUS
10
96.2341519999999946
20
-66.3567510000000027
11
96.3595909999999947
21
-66.5294019999999904
0
LINE
8
BLACK
6
CONTINUOUS
10
96.3595909999999947
20
-66.5294019999999904
11
96.456475999999995
21
-66.7195509999999956
0
LINE
8
BLACK
6
CONTINUOUS
10
96.456475999999995
20
-66.7195509999999956
11
96.5224229999999892
21
-66.9225139999999925
0
LINE
8
BLACK
6
CONTINUOUS
10
96.5224229999999892
20
-66.9225139999999925
11
96.555807999999999
21
-67.1332960000000014
0
LINE
8
BLACK
6
CONTINUOUS
10
96.555807999999999
20
-67.1332960000000014
11
96.5600000000000023
21
-67.7599999999999909
0
LINE
8
BLACK
6
CONTINUOUS
10
96.5600000000000023
20
-67.7599999999999909
11
96.555807999999999
21
-67.8667039999999986
0
LINE
8
BLACK
6
CONTINUOUS
10
96.555807999999999
20
-67.8667039999999986
11
96.5224229999999892
21
-68.0774859999999933
0
LINE
8
BLACK
6
CONTINUOUS
10
96.5224229999999892
20
-68.0774859999999933
11
96.456475999999995
21
-68.2804489999999902
0
LINE
8
BLACK
6
CONTINUOUS
10
96.456475999999995
20
-68.2804489999999902
11
96.3595909999999947
21
-68.4705979999999954
0
LINE
8
BLACK
6
CONTINUOUS
10
96.3595909999999947
20
-68.4705979999999954
11
96.2341519999999946
21
-68.6432489999999973
0
LINE
8
BLACK
6
CONTINUOUS
10
96.2341519999999946
20
-68.6432489999999973
11
96.083248999999995
21
-68.7941519999999969
0
LINE
8
BLACK
6
CONTINUOUS
10
96.083248999999995
20
-68.7941519999999969
11
95.9105979999999931
21
-68.9195909999999969
0
LINE
8
BLACK
6
CONTINUOUS
10
95.9105979999999931
20
-68.9195909999999969
11
95.7204490000000021
21
-69.0164759999999973
0
LINE
8
BLACK
6
CONTINUOUS
10
95.7204490000000021
20
-69.0164759999999973
11
95.517485999999991
21
-69.0824229999999915
0
LINE
8
BLACK
6
CONTINUOUS
10
95.517485999999991
20
-69.0824229999999915
11
95.3067039999999963
21
-69.1158080000000012
0
LINE
8
BLACK
6
CONTINUOUS
10
95.3067039999999963
20
-69.1158080000000012
11
95.0932959999999952
21
-69.1158080000000012
0
LINE
8
BLACK
6
CONTINUOUS
10
95.0932959999999952
20
-69.1158080000000012
11
94.8825140000000005
21
-69.0824229999999915
0
LINE
8
BLACK
6
CONTINUOUS
10
94.8825140000000005
20
-69.0824229999999915
11
94.6795509999999894
21
-69.0164759999999973
0
LINE
8
BLACK
6
CONTINUOUS
10
94.6795509999999894
20
-69.0164759999999973
11
94.4894019999999983
21
-68.9195909999999969
0
LINE
8
BLACK
6
CONTINUOUS
10
94.4894019999999983
20
-68.9195909999999969
11
94.3167509999999965
21
-68.7941519999999969
0
LINE
8
BLACK
6
CONTINUOUS
10
94.3167509999999965
20
-68.7941519999999969
11
94.1658479999999969
21
-68.6432489999999973
0
LINE
8
BLACK
6
CONTINUOUS
10
94.1658479999999969
20
-68.6432489999999973
11
94.0404089999999968
21
-68.4705979999999954
0
LINE
8
BLACK
6
CONTINUOUS
10
94.0404089999999968
20
-68.4705979999999954
11
93.9435239999999965
21
-68.2804489999999902
0
LINE
8
BLACK
6
CONTINUOUS
10
93.9435239999999965
20
-68.2804489999999902
11
93.8775770000000023
21
-68.0774859999999933
0
LINE
8
BLACK
6
CONTINUOUS
10
93.8775770000000023
20
-68.0774859999999933
11
93.8441919999999925
21
-67.8667039999999986
0
LINE
8
BLACK
6
CONTINUOUS
10
93.8441919999999925
20
-67.8667039999999986
11
93.8399999999999892
21
-67.2399999999999949
0
LINE
8
BLACK
6
CONTINUOUS
10
93.8399999999999892
20
-67.2399999999999949
11
93.8441919999999925
21
-67.1332960000000014
0
LINE
8
BLACK
6
CONTINUOUS
10
93.8441919999999925
20
-67.1332960000000014
11
93.8775770000000023
21
-66.9225139999999925
0
LINE
8
BLACK
6
CONTINUOUS
10
93.8775770000000023
20
-66.9225139999999925
11
93.9435239999999965
21
-66.7195509999999956
0
LINE
8
BLACK
6
CONTINUOUS
10
93.9435239999999965
20
-66.7195509999999956
11
94.0404089999999968
21
-66.5294019999999904
0
LINE
8
BLACK
6
CONTINUOUS
10
94.0404089999999968
20
-66.5294019999999904
11
94.1658479999999969
21
-66.3567510000000027
0
LINE
8
BLACK
6
CONTINUOUS
10
94.1658479999999969
20
-66.3567510000000027
11
94.3167509999999965
21
-66.2058480000000031
0
LINE
8
BLACK
6
CONTINUOUS
10
94.3167509999999965
20
-66.2058480000000031
11
94.4894019999999983
21
-66.0804090000000031
0
LINE
8
BLACK
6
CONTINUOUS
10
94.4894019999999983
20
-66.0804090000000031
11
94.6795509999999894
21
-65.9835240000000027
0
LINE
8
BLACK
6
CONTINUOUS
10
94.6795509999999894
20
-65.9835240000000027
11
94.8825140000000005
21
-65.9175769999999943
0
LINE
8
BLACK
6
CONTINUOUS
10
94.8825140000000005
20
-65.9175769999999943
11
95.0932959999999952
21
-65.8841919999999988
0
LINE
8
BLACK
6
CONTINUOUS
10
95.0932959999999952
20
-65.8841919999999988
11
95.3067039999999963
21
-65.8841919999999988
0
LINE
8
BLACK
6
CONTINUOUS
10
95.3067039999999963
20
-65.8841919999999988
11
95.517485999999991
21
-65.9175769999999943
0
LINE
8
BLACK
6
CONTINUOUS
10
105.1174859999999995
20
-65.9175769999999943
11
105.3204489999999964
21
-65.9835240000000027
0
LINE
8
BLACK
6
CONTINUOUS
10
105.3204489999999964
20
-65.9835240000000027
11
105.5105980000000017
21
-66.0804090000000031
0
LINE
8
BLACK
6
CONTINUOUS
10
105.5105980000000017
20
-66.0804090000000031
11
105.6832489999999893
21
-66.2058480000000031
0
LINE
8
BLACK
6
CONTINUOUS
10
105.6832489999999893
20
-66.2058480000000031
11
105.8341519999999889
21
-66.3567510000000027
0
LINE
8
BLACK
6
CONTINUOUS
10
105.8341519999999889
20
-66.3567510000000027
11
105.959590999999989
21
-66.5294019999999904
0
LINE
8
BLACK
6
CONTINUOUS
10
105.959590999999989
20
-66.5294019999999904
11
106.0564759999999893
21
-66.7195509999999956
0
LINE
8
BLACK
6
CONTINUOUS
10
106.0564759999999893
20
-66.7195509999999956
11
106.1224229999999977
21
-66.9225139999999925
0
LINE
8
BLACK
6
CONTINUOUS
10
106.1224229999999977
20
-66.9225139999999925
11
106.1558079999999933
21
-67.1332960000000014
0
LINE
8
BLACK
6
CONTINUOUS
10
106.1558079999999933
20
-67.1332960000000014
11
106.1599999999999966
21
-67.7599999999999909
0
LINE
8
BLACK
6
CONTINUOUS
10
106.1599999999999966
20
-67.7599999999999909
11
106.1558079999999933
21
-67.8667039999999986
0
LINE
8
BLACK
6
CONTINUOUS
10
106.1558079999999933
20
-67.8667039999999986
11
106.1224229999999977
21
-68.0774859999999933
0
LINE
8
BLACK
6
CONTINUOUS
10
106.1224229999999977
20
-68.0774859999999933
11
106.0564759999999893
21
-68.2804489999999902
0
LINE
8
BLACK
6
CONTINUOUS
10
106.0564759999999893
20
-68.2804489999999902
11
105.959590999999989
21
-68.4705979999999954
0
LINE
8
BLACK
6
CONTINUOUS
10
105.959590999999989
20
-68.4705979999999954
11
105.8341519999999889
21
-68.6432489999999973
0
LINE
8
BLACK
6
CONTINUOUS
10
105.8341519999999889
20
-68.6432489999999973
11
105.6832489999999893
21
-68.7941519999999969
0
LINE
8
BLACK
6
CONTINUOUS
10
105.6832489999999893
20
-68.7941519999999969
11
105.5105980000000017
21
-68.9195909999999969
0
LINE
8
BLACK
6
CONTINUOUS
10
105.5105980000000017
20
-68.9195909999999969
11
105.3204489999999964
21
-69.0164759999999973
0
LINE
8
BLACK
6
CONTINUOUS
10
105.3204489999999964
20
-69.0164759999999973
11
105.1174859999999995
21
-69.0824229999999915
0
LINE
8
BLACK
6
CONTINUOUS
10
105.1174859999999995
20
-69.0824229999999915
11
104.9067039999999906
21
-69.1158080000000012
0
LINE
8
BLACK
6
CONTINUOUS
10
104.9067039999999906
20
-69.1158080000000012
11
104.6932959999999895
21
-69.1158080000000012
0
LINE
8
BLACK
6
CONTINUOUS
10
104.6932959999999895
20
-69.1158080000000012
11
104.4825139999999948
21
-69.0824229999999915
0
LINE
8
BLACK
6
CONTINUOUS
10
104.4825139999999948
20
-69.0824229999999915
11
104.2795509999999979
21
-69.0164759999999973
0
LINE
8
BLACK
6
CONTINUOUS
10
104.2795509999999979
20
-69.0164759999999973
11
104.0894019999999927
21
-68.9195909999999969
0
LINE
8
BLACK
6
CONTINUOUS
10
104.0894019999999927
20
-68.9195909999999969
11
103.9167509999999908
21
-68.7941519999999969
0
LINE
8
BLACK
6
CONTINUOUS
10
103.9167509999999908
20
-68.7941519999999969
11
103.7658479999999912
21
-68.6432489999999973
0
LINE
8
BLACK
6
CONTINUOUS
10
103.7658479999999912
20
-68.6432489999999973
11
103.6404089999999911
21
-68.4705979999999954
0
LINE
8
BLACK
6
CONTINUOUS
10
103.6404089999999911
20
-68.4705979999999954
11
103.5435239999999908
21
-68.2804489999999902
0
LINE
8
BLACK
6
CONTINUOUS
10
103.5435239999999908
20
-68.2804489999999902
11
103.4775769999999966
21
-68.0774859999999933
0
LINE
8
BLACK
6
CONTINUOUS
10
103.4775769999999966
20
-68.0774859999999933
11
103.444192000000001
21
-67.8667039999999986
0
LINE
8
BLACK
6
CONTINUOUS
10
103.444192000000001
20
-67.8667039999999986
11
103.4399999999999977
21
-67.2399999999999949
0
LINE
8
BLACK
6
CONTINUOUS
10
103.4399999999999977
20
-67.2399999999999949
11
103.444192000000001
21
-67.1332960000000014
0
LINE
8
BLACK
6
CONTINUOUS
10
103.444192000000001
20
-67.1332960000000014
11
103.4775769999999966
21
-66.9225139999999925
0
LINE
8
BLACK
6
CONTINUOUS
10
103.4775769999999966
20
-66.9225139999999925
11
103.5435239999999908
21
-66.7195509999999956
0
LINE
8
BLACK
6
CONTINUOUS
10
103.5435239999999908
20
-66.7195509999999956
11
103.6404089999999911
21
-66.5294019999999904
0
LINE
8
BLACK
6
CONTINUOUS
10
103.6404089999999911
20
-66.5294019999999904
11
103.7658479999999912
21
-66.3567510000000027
0
LINE
8
BLACK
6
CONTINUOUS
10
103.7658479999999912
20
-66.3567510000000027
11
103.9167509999999908
21
-66.2058480000000031
0
LINE
8
BLACK
6
CONTINUOUS
10
103.9167509999999908
20
-66.2058480000000031
11
104.0894019999999927
21
-66.0804090000000031
0
LINE
8
BLACK
6
CONTINUOUS
10
104.0894019999999927
20
-66.0804090000000031
11
104.2795509999999979
21
-65.9835240000000027
0
LINE
8
BLACK
6
CONTINUOUS
10
104.2795509999999979
20
-65.9835240000000027
11
104.4825139999999948
21
-65.9175769999999943
0
LINE
8
BLACK
6
CONTINUOUS
10
104.4825139999999948
20
-65.9175769999999943
11
104.6932959999999895
21
-65.8841919999999988
0
LINE
8
BLACK
6
CONTINUOUS
10
104.6932959999999895
20
-65.8841919999999988
11
104.9067039999999906
21
-65.8841919999999988
0
LINE
8
BLACK
6
CONTINUOUS
10
104.9067039999999906
20
-65.8841919999999988
11
105.1174859999999995
21
-65.9175769999999943
0
LINE
8
BLACK
6
CONTINUOUS
10
98.3999999999999915
20
-60.8999999999999986
11
96.5999999999999943
21
-60.8999999999999986
0
LINE
8
BLACK
6
CONTINUOUS
10
96.5999999999999943
20
-60.8999999999999986
11
96.5999999999999943
21
-59.0999999999999943
0
LINE
8
BLACK
6
CONTINUOUS
10
96.5999999999999943
20
-59.0999999999999943
11
98.3999999999999915
21
-59.0999999999999943
0
LINE
8
BLACK
6
CONTINUOUS
10
98.3999999999999915
20
-59.0999999999999943
11
98.3999999999999915
21
-60.8999999999999986
0
LINE
8
BLACK
6
CONTINUOUS
10
100.2781149999999997
20
-59.1440489999999954
11
100.4499999999999886
21
-59.2205769999999987
0
LINE
8
BLACK
6
CONTINUOUS
10
100.4499999999999886
20
-59.2205769999999987
11
100.6022179999999935
21
-59.3311700000000002
0
LINE
8
BLACK
6
CONTINUOUS
10
100.6022179999999935
20
-59.3311700000000002
11
100.7281150000000025
21
-59.470993
0
LINE
8
BLACK
6
CONTINUOUS
10
100.7281150000000025
20
-59.470993
11
100.8221909999999895
21
-59.633936999999996
0
LINE
8
BLACK
6
CONTINUOUS
10
100.8221909999999895
20
-59.633936999999996
11
100.8803329999999931
21
-59.8128789999999952
0
LINE
8
BLACK
6
CONTINUOUS
10
100.8803329999999931
20
-59.8128789999999952
11
100.8999999999999915
21
-60.
0
LINE
8
BLACK
6
CONTINUOUS
10
100.8999999999999915
20
-60.
11
100.8803329999999931
21
-60.1871209999999977
0
LINE
8
BLACK
6
CONTINUOUS
10
100.8803329999999931
20
-60.1871209999999977
11
100.8221909999999895
21
-60.3660629999999969
0
LINE
8
BLACK
6
CONTINUOUS
10
100.8221909999999895
20
-60.3660629999999969
11
100.7281150000000025
21
-60.529007
0
LINE
8
BLACK
6
CONTINUOUS
10
100.7281150000000025
20
-60.529007
11
100.6022179999999935
21
-60.6688299999999998
0
LINE
8
BLACK
6
CONTINUOUS
10
100.6022179999999935
20
-60.6688299999999998
11
100.4499999999999886
21
-60.7794229999999942
0
LINE
8
BLACK
6
CONTINUOUS
10
100.4499999999999886
20
-60.7794229999999942
11
100.2781149999999997
21
-60.8559509999999975
0
LINE
8
BLACK
6
CONTINUOUS
10
100.2781149999999997
20
-60.8559509999999975
11
100.0940760000000012
21
-60.8950699999999969
0
LINE
8
BLACK
6
CONTINUOUS
10
100.0940760000000012
20
-60.8950699999999969
11
99.9059239999999988
21
-60.8950699999999969
0
LINE
8
BLACK
6
CONTINUOUS
10
99.9059239999999988
20
-60.8950699999999969
11
99.7218850000000003
21
-60.8559509999999975
0
LINE
8
BLACK
6
CONTINUOUS
10
99.7218850000000003
20
-60.8559509999999975
11
99.5499999999999972
21
-60.7794229999999942
0
LINE
8
BLACK
6
CONTINUOUS
10
99.5499999999999972
20
-60.7794229999999942
11
99.3977819999999923
21
-60.6688299999999998
0
LINE
8
BLACK
6
CONTINUOUS
10
99.3977819999999923
20
-60.6688299999999998
11
99.2718849999999975
21
-60.529007
0
LINE
8
BLACK
6
CONTINUOUS
10
99.2718849999999975
20
-60.529007
11
99.1778089999999963
21
-60.3660629999999969
0
LINE
8
BLACK
6
CONTINUOUS
10
99.1778089999999963
20
-60.3660629999999969
11
99.1196669999999926
21
-60.1871209999999977
0
LINE
8
BLACK
6
CONTINUOUS
10
99.1196669999999926
20
-60.1871209999999977
11
99.0999999999999943
21
-60.
0
LINE
8
BLACK
6
CONTINUOUS
10
99.0999999999999943
20
-60.
11
99.1196669999999926
21
-59.8128789999999952
0
LINE
8
BLACK
6
CONTINUOUS
10
99.1196669999999926
20
-59.8128789999999952
11
99.1778089999999963
21
-59.633936999999996
0
LINE
8
BLACK
6
CONTINUOUS
10
99.1778089999999963
20
-59.633936999999996
11
99.2718849999999975
21
-59.470993
0
LINE
8
BLACK
6
CONTINUOUS
10
99.2718849999999975
20
-59.470993
11
99.3977819999999923
21
-59.3311700000000002
0
LINE
8
BLACK
6
CONTINUOUS
10
99.3977819999999923
20
-59.3311700000000002
11
99.5499999999999972
21
-59.2205769999999987
0
LINE
8
BLACK
6
CONTINUOUS
10
99.5499999999999972
20
-59.2205769999999987
11
99.7218850000000003
21
-59.1440489999999954
0
LINE
8
BLACK
6
CONTINUOUS
10
99.7218850000000003
20
-59.1440489999999954
11
99.9059239999999988
21
-59.104929999999996
0
LINE
8
BLACK
6
CONTINUOUS
10
99.9059239999999988
20
-59.104929999999996
11
100.0940760000000012
21
-59.104929999999996
0
LINE
8
BLACK
6
CONTINUOUS
10
100.0940760000000012
20
-59.104929999999996
11
100.2781149999999997
21
-59.1440489999999954
0
LINE
8
BLACK
6
CONTINUOUS
10
102.7781149999999997
20
-59.1440489999999954
11
102.9499999999999886
21
-59.2205769999999987
0
LINE
8
BLACK
6
CONTINUOUS
10
102.9499999999999886
20
-59.2205769999999987
11
103.1022179999999935
21
-59.3311700000000002
0
LINE
8
BLACK
6
CONTINUOUS
10
103.1022179999999935
20
-59.3311700000000002
11
103.2281149999999883
21
-59.470993
0
LINE
8
BLACK
6
CONTINUOUS
10
103.2281149999999883
20
-59.470993
11
103.3221909999999895
21
-59.633936999999996
0
LINE
8
BLACK
6
CONTINUOUS
10
103.3221909999999895
20
-59.633936999999996
11
103.3803329999999931
21
-59.8128789999999952
0
LINE
8
BLACK
6
CONTINUOUS
10
103.3803329999999931
20
-59.8128789999999952
11
103.3999999999999915
21
-60.
0
LINE
8
BLACK
6
CONTINUOUS
10
103.3999999999999915
20
-60.
11
103.3803329999999931
21
-60.1871209999999977
0
LINE
8
BLACK
6
CONTINUOUS
10
103.3803329999999931
20
-60.1871209999999977
11
103.3221909999999895
21
-60.3660629999999969
0
LINE
8
BLACK
6
CONTINUOUS
10
103.3221909999999895
20
-60.3660629999999969
11
103.2281149999999883
21
-60.529007
0
LINE
8
BLACK
6
CONTINUOUS
10
103.2281149999999883
20
-60.529007
11
103.1022179999999935
21
-60.6688299999999998
0
LINE
8
BLACK
6
CONTINUOUS
10
103.1022179999999935
20
-60.6688299999999998
11
102.9499999999999886
21
-60.7794229999999942
0
LINE
8
BLACK
6
CONTINUOUS
10
102.9499999999999886
20
-60.7794229999999942
11
102.7781149999999997
21
-60.8559509999999975
0
LINE
8
BLACK
6
CONTINUOUS
10
102.7781149999999997
20
-60.8559509999999975
11
102.5940760000000012
21
-60.8950699999999969
0
LINE
8
BLACK
6
CONTINUOUS
10
102.5940760000000012
20
-60.8950699999999969
11
102.4059239999999988
21
-60.8950699999999969
0
LINE
8
BLACK
6
CONTINUOUS
10
102.4059239999999988
20
-60.8950699999999969
11
102.2218850000000003
21
-60.8559509999999975
0
LINE
8
BLACK
6
CONTINUOUS
10
102.2218850000000003
20
-60.8559509999999975
11
102.0499999999999972
21
-60.7794229999999942
0
LINE
8
BLACK
6
CONTINUOUS
10
102.0499999999999972
20
-60.7794229999999942
11
101.8977819999999923
21
-60.6688299999999998
0
LINE
8
BLACK
6
CONTINUOUS
10
101.8977819999999923
20
-60.6688299999999998
11
101.7718849999999975
21
-60.529007
0
LINE
8
BLACK
6
CONTINUOUS
10
101.7718849999999975
20
-60.529007
11
101.6778089999999963
21
-60.3660629999999969
0
LINE
8
BLACK
6
CONTINUOUS
10
101.6778089999999963
20
-60.3660629999999969
11
101.6196669999999926
21
-60.1871209999999977
0
LINE
8
BLACK
6
CONTINUOUS
10
101.6196669999999926
20
-60.1871209999999977
11
101.5999999999999943
21
-60.
0
LINE
8
BLACK
6
CONTINUOUS
10
101.5999999999999943
20
-60.
11
101.6196669999999926
21
-59.8128789999999952
0
LINE
8
BLACK
6
CONTINUOUS
10
101.6196669999999926
20
-59.8128789999999952
11
101.6778089999999963
21
-59.633936999999996
0
LINE
8
BLACK
6
CONTINUOUS
10
101.6778089999999963
20
-59.633936999999996
11
101.7718849999999975
21
-59.470993
0
LINE
8
BLACK
6
CONTINUOUS
10
101.7718849999999975
20
-59.470993
11
101.8977819999999923
21
-59.3311700000000002
0
LINE
8
BLACK
6
CONTINUOUS
10
101.8977819999999923
20
-59.3311700000000002
11
102.0499999999999972
21
-59.2205769999999987
0
LINE
8
BLACK
6
CONTINUOUS
10
102.0499999999999972
20
-59.2205769999999987
11
102.2218850000000003
21
-59.1440489999999954
0
LINE
8
BLACK
6
CONTINUOUS
10
102.2218850000000003
20
-59.1440489999999954
11
102.4059239999999988
21
-59.104929999999996
0
LINE
8
BLACK
6
CONTINUOUS
10
102.4059239999999988
20
-59.104929999999996
11
102.5940760000000012
21
-59.104929999999996
0
LINE
8
BLACK
6
CONTINUOUS
10
102.5940760000000012
20
-59.104929999999996
11
102.7781149999999997
21
-59.1440489999999954
0
LINE
8
BLACK
6
CONTINUOUS
10
95.517485999999991
20
-50.9175769999999943
11
95.7204490000000021
21
-50.9835239999999956
0
LINE
8
BLACK
6
CONTINUOUS
10
95.7204490000000021
20
-50.9835239999999956
11
95.9105979999999931
21
-51.080408999999996
0
LINE
8
BLACK
6
CONTINUOUS
10
95.9105979999999931
20
-51.080408999999996
11
96.083248999999995
21
-51.205847999999996
0
LINE
8
BLACK
6
CONTINUOUS
10
96.083248999999995
20
-51.205847999999996
11
96.2341519999999946
21
-51.3567509999999956
0
LINE
8
BLACK
6
CONTINUOUS
10
96.2341519999999946
20
-51.3567509999999956
11
96.3595909999999947
21
-51.5294019999999975
0
LINE
8
BLACK
6
CONTINUOUS
10
96.3595909999999947
20
-51.5294019999999975
11
96.456475999999995
21
-51.7195509999999956
0
LINE
8
BLACK
6
CONTINUOUS
10
96.456475999999995
20
-51.7195509999999956
11
96.5224229999999892
21
-51.9225139999999996
0
LINE
8
BLACK
6
CONTINUOUS
10
96.5224229999999892
20
-51.9225139999999996
11
96.555807999999999
21
-52.1332959999999943
0
LINE
8
BLACK
6
CONTINUOUS
10
96.555807999999999
20
-52.1332959999999943
11
96.5600000000000023
21
-52.759999999999998
0
LINE
8
BLACK
6
CONTINUOUS
10
96.5600000000000023
20
-52.759999999999998
11
96.555807999999999
21
-52.8667039999999986
0
LINE
8
BLACK
6
CONTINUOUS
10
96.555807999999999
20
-52.8667039999999986
11
96.5224229999999892
21
-53.0774860000000004
0
LINE
8
BLACK
6
CONTINUOUS
10
96.5224229999999892
20
-53.0774860000000004
11
96.456475999999995
21
-53.2804489999999973
0
LINE
8
BLACK
6
CONTINUOUS
10
96.456475999999995
20
-53.2804489999999973
11
96.3595909999999947
21
-53.4705979999999954
0
LINE
8
BLACK
6
CONTINUOUS
10
96.3595909999999947
20
-53.4705979999999954
11
96.2341519999999946
21
-53.6432489999999973
0
LINE
8
BLACK
6
CONTINUOUS
10
96.2341519999999946
20
-53.6432489999999973
11
96.083248999999995
21
-53.7941519999999969
0
LINE
8
BLACK
6
CONTINUOUS
10
96.083248999999995
20
-53.7941519999999969
11
95.9105979999999931
21
-53.9195909999999969
0
LINE
8
BLACK
6
CONTINUOUS
10
95.9105979999999931
20
-53.9195909999999969
11
95.7204490000000021
21
-54.0164759999999973
0
LINE
8
BLACK
6
CONTINUOUS
10
95.7204490000000021
20
-54.0164759999999973
11
95.517485999999991
21
-54.0824229999999986
0
LINE
8
BLACK
6
CONTINUOUS
10
95.517485999999991
20
-54.0824229999999986
11
95.3067039999999963
21
-54.1158079999999941
0
LINE
8
BLACK
6
CONTINUOUS
10
95.3067039999999963
20
-54.1158079999999941
11
95.0932959999999952
21
-54.1158079999999941
0
LINE
8
BLACK
6
CONTINUOUS
10
95.0932959999999952
20
-54.1158079999999941
11
94.8825140000000005
21
-54.0824229999999986
0
LINE
8
BLACK
6
CONTINUOUS
10
94.8825140000000005
20
-54.0824229999999986
11
94.6795509999999894
21
-54.0164759999999973
0
LINE
8
BLACK
6
CONTINUOUS
10
94.6795509999999894
20
-54.0164759999999973
11
94.4894019999999983
21
-53.9195909999999969
0
LINE
8
BLACK
6
CONTINUOUS
10
94.4894019999999983
20
-53.9195909999999969
11
94.3167509999999965
21
-53.7941519999999969
0
LINE
8
BLACK
6
CONTINUOUS
10
94.3167509999999965
20
-53.7941519999999969
11
94.1658479999999969
21
-53.6432489999999973
0
LINE
8
BLACK
6
CONTINUOUS
10
94.1658479999999969
20
-53.6432489999999973
11
94.0404089999999968
21
-53.4705979999999954
0
LINE
8
BLACK
6
CONTINUOUS
10
94.0404089999999968
20
-53.4705979999999954
11
93.9435239999999965
21
-53.2804489999999973
0
LINE
8
BLACK
6
CONTINUOUS
10
93.9435239999999965
20
-53.2804489999999973
11
93.8775770000000023
21
-53.0774860000000004
0
LINE
8
BLACK
6
CONTINUOUS
10
93.8775770000000023
20
-53.0774860000000004
11
93.8441919999999925
21
-52.8667039999999986
0
LINE
8
BLACK
6
CONTINUOUS
10
93.8441919999999925
20
-52.8667039999999986
11
93.8399999999999892
21
-52.2399999999999949
0
LINE
8
BLACK
6
CONTINUOUS
10
93.8399999999999892
20
-52.2399999999999949
11
93.8441919999999925
21
-52.1332959999999943
0
LINE
8
BLACK
6
CONTINUOUS
10
93.8441919999999925
20
-52.1332959999999943
11
93.8775770000000023
21
-51.9225139999999996
0
LINE
8
BLACK
6
CONTINUOUS
10
93.8775770000000023
20
-51.9225139999999996
11
93.9435239999999965
21
-51.7195509999999956
0
LINE
8
BLACK
6
CONTINUOUS
10
93.9435239999999965
20
-51.7195509999999956
11
94.0404089999999968
21
-51.5294019999999975
0
LINE
8
BLACK
6
CONTINUOUS
10
94.0404089999999968
20
-51.5294019999999975
11
94.1658479999999969
21
-51.3567509999999956
0
LINE
8
BLACK
6
CONTINUOUS
10
94.1658479999999969
20
-51.3567509999999956
11
94.3167509999999965
21
-51.205847999999996
0
LINE
8
BLACK
6
CONTINUOUS
10
94.3167509999999965
20
-51.205847999999996
11
94.4894019999999983
21
-51.080408999999996
0
LINE
8
BLACK
6
CONTINUOUS
10
94.4894019999999983
20
-51.080408999999996
11
94.6795509999999894
21
-50.9835239999999956
0
LINE
8
BLACK
6
CONTINUOUS
10
94.6795509999999894
20
-50.9835239999999956
11
94.8825140000000005
21
-50.9175769999999943
0
LINE
8
BLACK
6
CONTINUOUS
10
94.8825140000000005
20
-50.9175769999999943
11
95.0932959999999952
21
-50.8841919999999988
0
LINE
8
BLACK
6
CONTINUOUS
10
95.0932959999999952
20
-50.8841919999999988
11
95.3067039999999963
21
-50.8841919999999988
0
LINE
8
BLACK
6
CONTINUOUS
10
95.3067039999999963
20
-50.8841919999999988
11
95.517485999999991
21
-50.9175769999999943
0
LINE
8
BLACK
6
CONTINUOUS
10
105.1174859999999995
20
-50.9175769999999943
11
105.3204489999999964
21
-50.9835239999999956
0
LINE
8
BLACK
6
CONTINUOUS
10
105.3204489999999964
20
-50.9835239999999956
11
105.5105980000000017
21
-51.080408999999996
0
LINE
8
BLACK
6
CONTINUOUS
10
105.5105980000000017
20
-51.080408999999996
11
105.6832489999999893
21
-51.205847999999996
0
LINE
8
BLACK
6
CONTINUOUS
10
105.6832489999999893
20
-51.205847999999996
11
105.8341519999999889
21
-51.3567509999999956
0
LINE
8
BLACK
6
CONTINUOUS
10
105.8341519999999889
20
-51.3567509999999956
11
105.959590999999989
21
-51.5294019999999975
0
LINE
8
BLACK
6
CONTINUOUS
10
105.959590999999989
20
-51.5294019999999975
11
106.0564759999999893
21
-51.7195509999999956
0
LINE
8
BLACK
6
CONTINUOUS
10
106.0564759999999893
20
-51.7195509999999956
11
106.1224229999999977
21
-51.9225139999999996
0
LINE
8
BLACK
6
CONTINUOUS
10
106.1224229999999977
20
-51.9225139999999996
11
106.1558079999999933
21
-52.1332959999999943
0
LINE
8
BLACK
6
CONTINUOUS
10
106.1558079999999933
20
-52.1332959999999943
11
106.1599999999999966
21
-52.759999999999998
0
LINE
8
BLACK
6
CONTINUOUS
10
106.1599999999999966
20
-52.759999999999998
11
106.1558079999999933
21
-52.8667039999999986
0
LINE
8
BLACK
6
CONTINUOUS
10
106.1558079999999933
20
-52.8667039999999986
11
106.1224229999999977
21
-53.0774860000000004
0
LINE
8
BLACK
6
CONTINUOUS
10
106.1224229999999977
20
-53.0774860000000004
11
106.0564759999999893
21
-53.2804489999999973
0
LINE
8
BLACK
6
CONTINUOUS
10
106.0564759999999893
20
-53.2804489999999973
11
105.959590999999989
21
-53.4705979999999954
0
LINE
8
BLACK
6
CONTINUOUS
10
105.959590999999989
20
-53.4705979999999954
11
105.8341519999999889
21
-53.6432489999999973
0
LINE
8
BLACK
6
CONTINUOUS
10
105.8341519999999889
20
-53.6432489999999973
11
105.6832489999999893
21
-53.7941519999999969
0
LINE
8
BLACK
6
CONTINUOUS
10
105.6832489999999893
20
-53.7941519999999969
11
105.5105980000000017
21
-53.9195909999999969
0
LINE
8
BLACK
6
CONTINUOUS
10
105.5105980000000017
20
-53.9195909999999969
11
105.3204489999999964
21
-54.0164759999999973
0
LINE
8
BLACK
6
CONTINUOUS
10
105.3204489999999964
20
-54.0164759999999973
11
105.1174859999999995
21
-54.0824229999999986
0
LINE
8
BLACK
6
CONTINUOUS
10
105.1174859999999995
20
-54.0824229999999986
11
104.9067039999999906
21
-54.1158079999999941
0
LINE
8
BLACK
6
CONTINUOUS
10
104.9067039999999906
20
-54.1158079999999941
11
104.6932959999999895
21
-54.1158079999999941
0
LINE
8
BLACK
6
CONTINUOUS
10
104.6932959999999895
20
-54.1158079999999941
11
104.4825139999999948
21
-54.0824229999999986
0
LINE
8
BLACK
6
CONTINUOUS
10
104.4825139999999948
20
-54.0824229999999986
11
104.2795509999999979
21
-54.0164759999999973
0
LINE
8
BLACK
6
CONTINUOUS
10
104.2795509999999979
20
-54.0164759999999973
11
104.0894019999999927
21
-53.9195909999999969
0
LINE
8
BLACK
6
CONTINUOUS
10
104.0894019999999927
20
-53.9195909999999969
11
103.9167509999999908
21
-53.7941519999999969
0
LINE
8
BLACK
6
CONTINUOUS
10
103.9167509999999908
20
-53.7941519999999969
11
103.7658479999999912
21
-53.6432489999999973
0
LINE
8
BLACK
6
CONTINUOUS
10
103.7658479999999912
20
-53.6432489999999973
11
103.6404089999999911
21
-53.4705979999999954
0
LINE
8
BLACK
6
CONTINUOUS
10
103.6404089999999911
20
-53.4705979999999954
11
103.5435239999999908
21
-53.2804489999999973
0
LINE
8
BLACK
6
CONTINUOUS
10
103.5435239999999908
20
-53.2804489999999973
11
103.4775769999999966
21
-53.0774860000000004
0
LINE
8
BLACK
6
CONTINUOUS
10
103.4775769999999966
20
-53.0774860000000004
11
103.444192000000001
21
-52.8667039999999986
0
LINE
8
BLACK
6
CONTINUOUS
10
103.444192000000001
20
-52.8667039999999986
11
103.4399999999999977
21
-52.2399999999999949
0
LINE
8
BLACK
6
CONTINUOUS
10
103.4399999999999977
20
-52.2399999999999949
11
103.444192000000001
21
-52.1332959999999943
0
LINE
8
BLACK
6
CONTINUOUS
10
103.444192000000001
20
-52.1332959999999943
11
103.4775769999999966
21
-51.9225139999999996
0
LINE
8
BLACK
6
CONTINUOUS
10
103.4775769999999966
20
-51.9225139999999996
11
103.5435239999999908
21
-51.7195509999999956
0
LINE
8
BLACK
6
CONTINUOUS
10
103.5435239999999908
20
-51.7195509999999956
11
103.6404089999999911
21
-51.5294019999999975
0
LINE
8
BLACK
6
CONTINUOUS
10
103.6404089999999911
20
-51.5294019999999975
11
103.7658479999999912
21
-51.3567509999999956
0
LINE
8
BLACK
6
CONTINUOUS
10
103.7658479999999912
20
-51.3567509999999956
11
103.9167509999999908
21
-51.205847999999996
0
LINE
8
BLACK
6
CONTINUOUS
10
103.9167509999999908
20
-51.205847999999996
11
104.0894019999999927
21
-51.080408999999996
0
LINE
8
BLACK
6
CONTINUOUS
10
104.0894019999999927
20
-51.080408999999996
11
104.2795509999999979
21
-50.9835239999999956
0
LINE
8
BLACK
6
CONTINUOUS
10
104.2795509999999979
20
-50.9835239999999956
11
104.4825139999999948
21
-50.9175769999999943
0
LINE
8
BLACK
6
CONTINUOUS
10
104.4825139999999948
20
-50.9175769999999943
11
104.6932959999999895
21
-50.8841919999999988
0
LINE
8
BLACK
6
CONTINUOUS
10
104.6932959999999895
20
-50.8841919999999988
11
104.9067039999999906
21
-50.8841919999999988
0
LINE
8
BLACK
6
CONTINUOUS
10
104.9067039999999906
20
-50.8841919999999988
11
105.1174859999999995
21
-50.9175769999999943
  0
ENDSEC
  0
EOF
