  0
SECTION
  2
HEADER
  9
$ANGBASE
  50
0.0
  9
$ANGDIR
  70
1
  9
$MEASUREMENT
  70
1
  0
ENDSEC
  0
SECTION
  2
TABLES
  0
TABLE
  2
LTYPE
  70
4
  0
LTYPE
  5
40F
  2
CONTINUOUS
  70
0
  3
Solid line
  72
65
  73
0
  40
0.0
  0
LTYPE
  5
410
  2
DASHDOT
 70
0
  3
Dash Dot ____ _ ____ _
 72
65
 73
4
 40
2.0
 49
1.25
 49
-0.25
 49
0.25
 49
-0.25
  0
LTYPE
  5
411
  2
DASHED
 70
0
  3
Dashed __ __ __ __ __
 72
65
 73
2
 40
0.75
 49
0.5
 49
-0.25
  0
LTYPE
  5
43B
  2
DOTTED
 70
0
  3
Dotted .  .  .  .
 72
65
 73
2
 40
0.2
 49
0.0
 49
-0.2
  0
ENDTAB
  0
TABLE
  2
STYLE
  70
4
  0
STYLE
  2
KICAD
  70
0
  40
0
  41
1
  42
1
  50
0
  71
0
  3
isocp.shx
  0
STYLE
  2
KICADB
  70
0
  40
0
  41
1
  42
1
  50
0
  71
0
  3
isocp.shx
  0
STYLE
  2
KICADI
  70
0
  40
0
  41
1
  42
1
  50
15
  71
0
  3
isocp.shx
  0
STYLE
  2
KICADBI
  70
0
  40
0
  41
1
  42
1
  50
15
  71
0
  3
isocp.shx
  0
ENDTAB
  0
TABLE
  2
LAYER
  70
1
  0
LAYER
  2
BLACK
  70
0
  62
7
  6
CONTINUOUS
  0
ENDTAB
  0
ENDSEC
  0
SECTION
  2
ENTITIES
0
CIRCLE
8
BLACK
10
100.
20
-52.5
40
3.5
0
LINE
8
BLACK
6
CONTINUOUS
10
84.
20
-45.5
11
120.
21
-45.5
0
CIRCLE
8
BLACK
10
100.
20
-82.5
40
3.5
0
CIRCLE
8
BLACK
10
100.
20
-67.5
40
3.5
0
LINE
8
BLACK
6
CONTINUOUS
10
90.
20
-37.
11
110.
21
-37.
0
LINE
8
BLACK
6
CONTINUOUS
10
110.
20
-37.
11
110.
21
-165.5
0
LINE
8
BLACK
6
CONTINUOUS
10
110.
20
-165.5
11
90.
21
-165.5
0
LINE
8
BLACK
6
CONTINUOUS
10
90.
20
-165.5
11
90.
21
-37.
0
LINE
8
BLACK
6
CONTINUOUS
10
80.
20
-157.
11
116.
21
-157.
0
CIRCLE
8
BLACK
10
100.
20
-97.5
40
3.5
0
CIRCLE
8
BLACK
10
101.2999999999999972
20
-136.
40
1.5999999999999999
0
CIRCLE
8
BLACK
10
95.
20
-140.0999999999999943
40
3.
0
CIRCLE
8
BLACK
10
105.
20
-143.4000000000000057
40
3.
0
LINE
8
BLACK
6
CONTINUOUS
10
130.8833899999999915
20
-44.952379999999998
11
130.835770999999994
21
-45.0476179999999999
0
LINE
8
BLACK
6
CONTINUOUS
10
130.835770999999994
20
-45.0476179999999999
11
130.7881519999999966
21
-45.0952369999999974
0
LINE
8
BLACK
6
CONTINUOUS
10
130.7881519999999966
20
-45.0952369999999974
11
130.6929140000000018
21
-45.1428559999999948
0
LINE
8
BLACK
6
CONTINUOUS
10
130.6929140000000018
20
-45.1428559999999948
11
130.6452950000000044
21
-45.1428559999999948
0
LINE
8
BLACK
6
CONTINUOUS
10
130.6452950000000044
20
-45.1428559999999948
11
130.5500569999999811
21
-45.0952369999999974
0
LINE
8
BLACK
6
CONTINUOUS
10
130.5500569999999811
20
-45.0952369999999974
11
130.5024379999999837
21
-45.0476179999999999
0
LINE
8
BLACK
6
CONTINUOUS
10
130.5024379999999837
20
-45.0476179999999999
11
130.4548189999999863
21
-44.952379999999998
0
LINE
8
BLACK
6
CONTINUOUS
10
130.4548189999999863
20
-44.952379999999998
11
130.4548189999999863
21
-44.7619040000000012
0
LINE
8
BLACK
6
CONTINUOUS
10
130.4548189999999863
20
-44.7619040000000012
11
130.5024379999999837
21
-44.6666659999999993
0
LINE
8
BLACK
6
CONTINUOUS
10
130.5024379999999837
20
-44.6666659999999993
11
130.5500569999999811
21
-44.6190469999999948
0
LINE
8
BLACK
6
CONTINUOUS
10
130.5500569999999811
20
-44.6190469999999948
11
130.6452950000000044
21
-44.5714279999999974
0
LINE
8
BLACK
6
CONTINUOUS
10
130.6452950000000044
20
-44.5714279999999974
11
130.6929140000000018
21
-44.5714279999999974
0
LINE
8
BLACK
6
CONTINUOUS
10
130.6929140000000018
20
-44.5714279999999974
11
130.7881519999999966
21
-44.6190469999999948
0
LINE
8
BLACK
6
CONTINUOUS
10
130.7881519999999966
20
-44.6190469999999948
11
130.835770999999994
21
-44.6666659999999993
0
LINE
8
BLACK
6
CONTINUOUS
10
130.835770999999994
20
-44.6666659999999993
11
130.8833899999999915
21
-44.7619040000000012
0
LINE
8
BLACK
6
CONTINUOUS
10
130.8833899999999915
20
-44.7619040000000012
11
130.8833899999999915
21
-44.952379999999998
0
LINE
8
BLACK
6
CONTINUOUS
10
130.8833899999999915
20
-44.952379999999998
11
130.9310089999999889
21
-45.0476179999999999
0
LINE
8
BLACK
6
CONTINUOUS
10
130.9310089999999889
20
-45.0476179999999999
11
130.9786279999999863
21
-45.0952369999999974
0
LINE
8
BLACK
6
CONTINUOUS
10
130.9786279999999863
20
-45.0952369999999974
11
131.0738659999999811
21
-45.1428559999999948
0
LINE
8
BLACK
6
CONTINUOUS
10
131.0738659999999811
20
-45.1428559999999948
11
131.2643419999999992
21
-45.1428559999999948
0
LINE
8
BLACK
6
CONTINUOUS
10
131.2643419999999992
20
-45.1428559999999948
11
131.359579999999994
21
-45.0952369999999974
0
LINE
8
BLACK
6
CONTINUOUS
10
131.359579999999994
20
-45.0952369999999974
11
131.4071999999999889
21
-45.0476179999999999
0
LINE
8
BLACK
6
CONTINUOUS
10
131.4071999999999889
20
-45.0476179999999999
11
131.4548189999999863
21
-44.952379999999998
0
LINE
8
BLACK
6
CONTINUOUS
10
131.4548189999999863
20
-44.952379999999998
11
131.4548189999999863
21
-44.7619040000000012
0
LINE
8
BLACK
6
CONTINUOUS
10
131.4548189999999863
20
-44.7619040000000012
11
131.4071999999999889
21
-44.6666659999999993
0
LINE
8
BLACK
6
CONTINUOUS
10
131.4071999999999889
20
-44.6666659999999993
11
131.359579999999994
21
-44.6190469999999948
0
LINE
8
BLACK
6
CONTINUOUS
10
131.359579999999994
20
-44.6190469999999948
11
131.2643419999999992
21
-44.5714279999999974
0
LINE
8
BLACK
6
CONTINUOUS
10
131.2643419999999992
20
-44.5714279999999974
11
131.0738659999999811
21
-44.5714279999999974
0
LINE
8
BLACK
6
CONTINUOUS
10
131.0738659999999811
20
-44.5714279999999974
11
130.9786279999999863
21
-44.6190469999999948
0
LINE
8
BLACK
6
CONTINUOUS
10
130.9786279999999863
20
-44.6190469999999948
11
130.9310089999999889
21
-44.6666659999999993
0
LINE
8
BLACK
6
CONTINUOUS
10
130.9310089999999889
20
-44.6666659999999993
11
130.8833899999999915
21
-44.7619040000000012
0
LINE
8
BLACK
6
CONTINUOUS
10
131.359579999999994
20
-44.1428559999999948
11
131.4071999999999889
21
-44.0952369999999974
0
LINE
8
BLACK
6
CONTINUOUS
10
131.4071999999999889
20
-44.0952369999999974
11
131.4548189999999863
21
-44.1428559999999948
0
LINE
8
BLACK
6
CONTINUOUS
10
131.4548189999999863
20
-44.1428559999999948
11
131.4071999999999889
21
-44.1904749999999993
0
LINE
8
BLACK
6
CONTINUOUS
10
131.4071999999999889
20
-44.1904749999999993
11
131.359579999999994
21
-44.1428559999999948
0
LINE
8
BLACK
6
CONTINUOUS
10
131.359579999999994
20
-44.1428559999999948
11
131.4548189999999863
21
-44.1428559999999948
0
LINE
8
BLACK
6
CONTINUOUS
10
130.4548189999999863
20
-43.1904759999999968
11
130.4548189999999863
21
-43.6666659999999993
0
LINE
8
BLACK
6
CONTINUOUS
10
130.4548189999999863
20
-43.6666659999999993
11
130.9310089999999889
21
-43.7142849999999967
0
LINE
8
BLACK
6
CONTINUOUS
10
130.9310089999999889
20
-43.7142849999999967
11
130.8833899999999915
21
-43.6666659999999993
0
LINE
8
BLACK
6
CONTINUOUS
10
130.8833899999999915
20
-43.6666659999999993
11
130.835770999999994
21
-43.5714279999999974
0
LINE
8
BLACK
6
CONTINUOUS
10
130.835770999999994
20
-43.5714279999999974
11
130.835770999999994
21
-43.3333329999999961
0
LINE
8
BLACK
6
CONTINUOUS
10
130.835770999999994
20
-43.3333329999999961
11
130.8833899999999915
21
-43.2380950000000013
0
LINE
8
BLACK
6
CONTINUOUS
10
130.8833899999999915
20
-43.2380950000000013
11
130.9310089999999889
21
-43.1904759999999968
0
LINE
8
BLACK
6
CONTINUOUS
10
130.9310089999999889
20
-43.1904759999999968
11
131.0262469999999837
21
-43.1428569999999993
0
LINE
8
BLACK
6
CONTINUOUS
10
131.0262469999999837
20
-43.1428569999999993
11
131.2643419999999992
21
-43.1428569999999993
0
LINE
8
BLACK
6
CONTINUOUS
10
131.2643419999999992
20
-43.1428569999999993
11
131.359579999999994
21
-43.1904759999999968
0
LINE
8
BLACK
6
CONTINUOUS
10
131.359579999999994
20
-43.1904759999999968
11
131.4071999999999889
21
-43.2380950000000013
0
LINE
8
BLACK
6
CONTINUOUS
10
131.4071999999999889
20
-43.2380950000000013
11
131.4548189999999863
21
-43.3333329999999961
0
LINE
8
BLACK
6
CONTINUOUS
10
131.4548189999999863
20
-43.3333329999999961
11
131.4548189999999863
21
-43.5714279999999974
0
LINE
8
BLACK
6
CONTINUOUS
10
131.4548189999999863
20
-43.5714279999999974
11
131.4071999999999889
21
-43.6666659999999993
0
LINE
8
BLACK
6
CONTINUOUS
10
131.4071999999999889
20
-43.6666659999999993
11
131.359579999999994
21
-43.7142849999999967
0
LINE
8
BLACK
6
CONTINUOUS
10
130.4548189999999863
20
-42.523809
11
130.4548189999999863
21
-42.428570999999998
0
LINE
8
BLACK
6
CONTINUOUS
10
130.4548189999999863
20
-42.428570999999998
11
130.5024379999999837
21
-42.3333329999999961
0
LINE
8
BLACK
6
CONTINUOUS
10
130.5024379999999837
20
-42.3333329999999961
11
130.5500569999999811
21
-42.2857139999999987
0
LINE
8
BLACK
6
CONTINUOUS
10
130.5500569999999811
20
-42.2857139999999987
11
130.6452950000000044
21
-42.2380950000000013
0
LINE
8
BLACK
6
CONTINUOUS
10
130.6452950000000044
20
-42.2380950000000013
11
130.835770999999994
21
-42.1904759999999968
0
LINE
8
BLACK
6
CONTINUOUS
10
130.835770999999994
20
-42.1904759999999968
11
131.0738659999999811
21
-42.1904759999999968
0
LINE
8
BLACK
6
CONTINUOUS
10
131.0738659999999811
20
-42.1904759999999968
11
131.2643419999999992
21
-42.2380950000000013
0
LINE
8
BLACK
6
CONTINUOUS
10
131.2643419999999992
20
-42.2380950000000013
11
131.359579999999994
21
-42.2857139999999987
0
LINE
8
BLACK
6
CONTINUOUS
10
131.359579999999994
20
-42.2857139999999987
11
131.4071999999999889
21
-42.3333329999999961
0
LINE
8
BLACK
6
CONTINUOUS
10
131.4071999999999889
20
-42.3333329999999961
11
131.4548189999999863
21
-42.428570999999998
0
LINE
8
BLACK
6
CONTINUOUS
10
131.4548189999999863
20
-42.428570999999998
11
131.4548189999999863
21
-42.523809
0
LINE
8
BLACK
6
CONTINUOUS
10
131.4548189999999863
20
-42.523809
11
131.4071999999999889
21
-42.6190469999999948
0
LINE
8
BLACK
6
CONTINUOUS
10
131.4071999999999889
20
-42.6190469999999948
11
131.359579999999994
21
-42.6666659999999993
0
LINE
8
BLACK
6
CONTINUOUS
10
131.359579999999994
20
-42.6666659999999993
11
131.2643419999999992
21
-42.7142849999999967
0
LINE
8
BLACK
6
CONTINUOUS
10
131.2643419999999992
20
-42.7142849999999967
11
131.0738659999999811
21
-42.7619040000000012
0
LINE
8
BLACK
6
CONTINUOUS
10
131.0738659999999811
20
-42.7619040000000012
11
130.835770999999994
21
-42.7619040000000012
0
LINE
8
BLACK
6
CONTINUOUS
10
130.835770999999994
20
-42.7619040000000012
11
130.6452950000000044
21
-42.7142849999999967
0
LINE
8
BLACK
6
CONTINUOUS
10
130.6452950000000044
20
-42.7142849999999967
11
130.5500569999999811
21
-42.6666659999999993
0
LINE
8
BLACK
6
CONTINUOUS
10
130.5500569999999811
20
-42.6666659999999993
11
130.5024379999999837
21
-42.6190469999999948
0
LINE
8
BLACK
6
CONTINUOUS
10
130.5024379999999837
20
-42.6190469999999948
11
130.4548189999999863
21
-42.523809
0
LINE
8
BLACK
6
CONTINUOUS
10
130.4548189999999863
20
-41.5714279999999974
11
130.4548189999999863
21
-41.4761899999999955
0
LINE
8
BLACK
6
CONTINUOUS
10
130.4548189999999863
20
-41.4761899999999955
11
130.5024379999999837
21
-41.3809520000000006
0
LINE
8
BLACK
6
CONTINUOUS
10
130.5024379999999837
20
-41.3809520000000006
11
130.5500569999999811
21
-41.3333329999999961
0
LINE
8
BLACK
6
CONTINUOUS
10
130.5500569999999811
20
-41.3333329999999961
11
130.6452950000000044
21
-41.2857139999999987
0
LINE
8
BLACK
6
CONTINUOUS
10
130.6452950000000044
20
-41.2857139999999987
11
130.835770999999994
21
-41.2380950000000013
0
LINE
8
BLACK
6
CONTINUOUS
10
130.835770999999994
20
-41.2380950000000013
11
131.0738659999999811
21
-41.2380950000000013
0
LINE
8
BLACK
6
CONTINUOUS
10
131.0738659999999811
20
-41.2380950000000013
11
131.2643419999999992
21
-41.2857139999999987
0
LINE
8
BLACK
6
CONTINUOUS
10
131.2643419999999992
20
-41.2857139999999987
11
131.359579999999994
21
-41.3333329999999961
0
LINE
8
BLACK
6
CONTINUOUS
10
131.359579999999994
20
-41.3333329999999961
11
131.4071999999999889
21
-41.3809520000000006
0
LINE
8
BLACK
6
CONTINUOUS
10
131.4071999999999889
20
-41.3809520000000006
11
131.4548189999999863
21
-41.4761899999999955
0
LINE
8
BLACK
6
CONTINUOUS
10
131.4548189999999863
20
-41.4761899999999955
11
131.4548189999999863
21
-41.5714279999999974
0
LINE
8
BLACK
6
CONTINUOUS
10
131.4548189999999863
20
-41.5714279999999974
11
131.4071999999999889
21
-41.6666659999999993
0
LINE
8
BLACK
6
CONTINUOUS
10
131.4071999999999889
20
-41.6666659999999993
11
131.359579999999994
21
-41.7142849999999967
0
LINE
8
BLACK
6
CONTINUOUS
10
131.359579999999994
20
-41.7142849999999967
11
131.2643419999999992
21
-41.7619040000000012
0
LINE
8
BLACK
6
CONTINUOUS
10
131.2643419999999992
20
-41.7619040000000012
11
131.0738659999999811
21
-41.8095229999999987
0
LINE
8
BLACK
6
CONTINUOUS
10
131.0738659999999811
20
-41.8095229999999987
11
130.835770999999994
21
-41.8095229999999987
0
LINE
8
BLACK
6
CONTINUOUS
10
130.835770999999994
20
-41.8095229999999987
11
130.6452950000000044
21
-41.7619040000000012
0
LINE
8
BLACK
6
CONTINUOUS
10
130.6452950000000044
20
-41.7619040000000012
11
130.5500569999999811
21
-41.7142849999999967
0
LINE
8
BLACK
6
CONTINUOUS
10
130.5500569999999811
20
-41.7142849999999967
11
130.5024379999999837
21
-41.6666659999999993
0
LINE
8
BLACK
6
CONTINUOUS
10
130.5024379999999837
20
-41.6666659999999993
11
130.4548189999999863
21
-41.5714279999999974
0
LINE
8
BLACK
6
CONTINUOUS
10
130.4548189999999863
20
-40.6190469999999948
11
130.4548189999999863
21
-40.523809
0
LINE
8
BLACK
6
CONTINUOUS
10
130.4548189999999863
20
-40.523809
11
130.5024379999999837
21
-40.428570999999998
0
LINE
8
BLACK
6
CONTINUOUS
10
130.5024379999999837
20
-40.428570999999998
11
130.5500569999999811
21
-40.3809520000000006
0
LINE
8
BLACK
6
CONTINUOUS
10
130.5500569999999811
20
-40.3809520000000006
11
130.6452950000000044
21
-40.3333329999999961
0
LINE
8
BLACK
6
CONTINUOUS
10
130.6452950000000044
20
-40.3333329999999961
11
130.835770999999994
21
-40.2857139999999987
0
LINE
8
BLACK
6
CONTINUOUS
10
130.835770999999994
20
-40.2857139999999987
11
131.0738659999999811
21
-40.2857139999999987
0
LINE
8
BLACK
6
CONTINUOUS
10
131.0738659999999811
20
-40.2857139999999987
11
131.2643419999999992
21
-40.3333329999999961
0
LINE
8
BLACK
6
CONTINUOUS
10
131.2643419999999992
20
-40.3333329999999961
11
131.359579999999994
21
-40.3809520000000006
0
LINE
8
BLACK
6
CONTINUOUS
10
131.359579999999994
20
-40.3809520000000006
11
131.4071999999999889
21
-40.428570999999998
0
LINE
8
BLACK
6
CONTINUOUS
10
131.4071999999999889
20
-40.428570999999998
11
131.4548189999999863
21
-40.523809
0
LINE
8
BLACK
6
CONTINUOUS
10
131.4548189999999863
20
-40.523809
11
131.4548189999999863
21
-40.6190469999999948
0
LINE
8
BLACK
6
CONTINUOUS
10
131.4548189999999863
20
-40.6190469999999948
11
131.4071999999999889
21
-40.7142849999999967
0
LINE
8
BLACK
6
CONTINUOUS
10
131.4071999999999889
20
-40.7142849999999967
11
131.359579999999994
21
-40.7619040000000012
0
LINE
8
BLACK
6
CONTINUOUS
10
131.359579999999994
20
-40.7619040000000012
11
131.2643419999999992
21
-40.8095229999999987
0
LINE
8
BLACK
6
CONTINUOUS
10
131.2643419999999992
20
-40.8095229999999987
11
131.0738659999999811
21
-40.8571419999999961
0
LINE
8
BLACK
6
CONTINUOUS
10
131.0738659999999811
20
-40.8571419999999961
11
130.835770999999994
21
-40.8571419999999961
0
LINE
8
BLACK
6
CONTINUOUS
10
130.835770999999994
20
-40.8571419999999961
11
130.6452950000000044
21
-40.8095229999999987
0
LINE
8
BLACK
6
CONTINUOUS
10
130.6452950000000044
20
-40.8095229999999987
11
130.5500569999999811
21
-40.7619040000000012
0
LINE
8
BLACK
6
CONTINUOUS
10
130.5500569999999811
20
-40.7619040000000012
11
130.5024379999999837
21
-40.7142849999999967
0
LINE
8
BLACK
6
CONTINUOUS
10
130.5024379999999837
20
-40.7142849999999967
11
130.4548189999999863
21
-40.6190469999999948
0
LINE
8
BLACK
6
CONTINUOUS
10
131.4548189999999863
20
-39.0952369999999974
11
130.7881519999999966
21
-39.0952369999999974
0
LINE
8
BLACK
6
CONTINUOUS
10
130.8833899999999915
20
-39.0952369999999974
11
130.835770999999994
21
-39.0476179999999999
0
LINE
8
BLACK
6
CONTINUOUS
10
130.835770999999994
20
-39.0476179999999999
11
130.7881519999999966
21
-38.952379999999998
0
LINE
8
BLACK
6
CONTINUOUS
10
130.7881519999999966
20
-38.952379999999998
11
130.7881519999999966
21
-38.8095229999999987
0
LINE
8
BLACK
6
CONTINUOUS
10
130.7881519999999966
20
-38.8095229999999987
11
130.835770999999994
21
-38.7142849999999967
0
LINE
8
BLACK
6
CONTINUOUS
10
130.835770999999994
20
-38.7142849999999967
11
130.9310089999999889
21
-38.6666659999999993
0
LINE
8
BLACK
6
CONTINUOUS
10
130.9310089999999889
20
-38.6666659999999993
11
131.4548189999999863
21
-38.6666659999999993
0
LINE
8
BLACK
6
CONTINUOUS
10
130.9310089999999889
20
-38.6666659999999993
11
130.835770999999994
21
-38.6190469999999948
0
LINE
8
BLACK
6
CONTINUOUS
10
130.835770999999994
20
-38.6190469999999948
11
130.7881519999999966
21
-38.523809
0
LINE
8
BLACK
6
CONTINUOUS
10
130.7881519999999966
20
-38.523809
11
130.7881519999999966
21
-38.3809520000000006
0
LINE
8
BLACK
6
CONTINUOUS
10
130.7881519999999966
20
-38.3809520000000006
11
130.835770999999994
21
-38.2857130000000012
0
LINE
8
BLACK
6
CONTINUOUS
10
130.835770999999994
20
-38.2857130000000012
11
130.9310089999999889
21
-38.2380939999999967
0
LINE
8
BLACK
6
CONTINUOUS
10
130.9310089999999889
20
-38.2380939999999967
11
131.4548189999999863
21
-38.2380939999999967
0
LINE
8
BLACK
6
CONTINUOUS
10
131.4548189999999863
20
-37.7619040000000012
11
130.7881519999999966
21
-37.7619040000000012
0
LINE
8
BLACK
6
CONTINUOUS
10
130.8833899999999915
20
-37.7619040000000012
11
130.835770999999994
21
-37.7142849999999967
0
LINE
8
BLACK
6
CONTINUOUS
10
130.835770999999994
20
-37.7142849999999967
11
130.7881519999999966
21
-37.6190469999999948
0
LINE
8
BLACK
6
CONTINUOUS
10
130.7881519999999966
20
-37.6190469999999948
11
130.7881519999999966
21
-37.4761899999999955
0
LINE
8
BLACK
6
CONTINUOUS
10
130.7881519999999966
20
-37.4761899999999955
11
130.835770999999994
21
-37.3809520000000006
0
LINE
8
BLACK
6
CONTINUOUS
10
130.835770999999994
20
-37.3809520000000006
11
130.9310089999999889
21
-37.3333329999999961
0
LINE
8
BLACK
6
CONTINUOUS
10
130.9310089999999889
20
-37.3333329999999961
11
131.4548189999999863
21
-37.3333329999999961
0
LINE
8
BLACK
6
CONTINUOUS
10
130.9310089999999889
20
-37.3333329999999961
11
130.835770999999994
21
-37.2857139999999987
0
LINE
8
BLACK
6
CONTINUOUS
10
130.835770999999994
20
-37.2857139999999987
11
130.7881519999999966
21
-37.1904759999999968
0
LINE
8
BLACK
6
CONTINUOUS
10
130.7881519999999966
20
-37.1904759999999968
11
130.7881519999999966
21
-37.0476189999999974
0
LINE
8
BLACK
6
CONTINUOUS
10
130.7881519999999966
20
-37.0476189999999974
11
130.835770999999994
21
-36.952379999999998
0
LINE
8
BLACK
6
CONTINUOUS
10
130.835770999999994
20
-36.952379999999998
11
130.9310089999999889
21
-36.9047610000000006
0
LINE
8
BLACK
6
CONTINUOUS
10
130.9310089999999889
20
-36.9047610000000006
11
131.4548189999999863
21
-36.9047610000000006
0
LINE
8
BLACK
6
CONTINUOUS
10
122.5
20
-37.
11
112.4135799999999961
21
-37.
0
LINE
8
BLACK
6
CONTINUOUS
10
122.5
20
-45.5
11
112.4135799999999961
21
-45.5
0
LINE
8
BLACK
6
CONTINUOUS
10
113.
20
-37.
11
113.
21
-45.5
0
LINE
8
BLACK
6
CONTINUOUS
10
113.
20
-37.
11
113.
21
-45.5
0
LINE
8
BLACK
6
CONTINUOUS
10
113.
20
-37.
11
113.5864210000000014
21
-38.1265039999999971
0
LINE
8
BLACK
6
CONTINUOUS
10
113.
20
-37.
11
112.4135789999999986
21
-38.1265039999999971
0
LINE
8
BLACK
6
CONTINUOUS
10
113.
20
-45.5
11
112.4135789999999986
21
-44.3734959999999958
0
LINE
8
BLACK
6
CONTINUOUS
10
113.
20
-45.5
11
113.5864210000000014
21
-44.3734959999999958
0
LINE
8
BLACK
6
CONTINUOUS
10
128.3048189999999806
20
-161.7976179999999999
11
128.3048189999999806
21
-162.3690459999999973
0
LINE
8
BLACK
6
CONTINUOUS
10
128.3048189999999806
20
-162.0833319999999844
11
127.3048189999999948
21
-162.0833319999999844
0
LINE
8
BLACK
6
CONTINUOUS
10
127.3048189999999948
20
-162.0833319999999844
11
127.4476760000000013
21
-162.1785699999999792
0
LINE
8
BLACK
6
CONTINUOUS
10
127.4476760000000013
20
-162.1785699999999792
11
127.5429139999999961
21
-162.2738080000000025
0
LINE
8
BLACK
6
CONTINUOUS
10
127.5429139999999961
20
-162.2738080000000025
11
127.5905329999999935
21
-162.3690459999999973
0
LINE
8
BLACK
6
CONTINUOUS
10
127.3048189999999948
20
-160.8928559999999948
11
127.3048189999999948
21
-161.3690459999999973
0
LINE
8
BLACK
6
CONTINUOUS
10
127.3048189999999948
20
-161.3690459999999973
11
127.7810089999999974
21
-161.4166649999999947
0
LINE
8
BLACK
6
CONTINUOUS
10
127.7810089999999974
20
-161.4166649999999947
11
127.73339
21
-161.3690459999999973
0
LINE
8
BLACK
6
CONTINUOUS
10
127.73339
20
-161.3690459999999973
11
127.6857709999999884
21
-161.2738080000000025
0
LINE
8
BLACK
6
CONTINUOUS
10
127.6857709999999884
20
-161.2738080000000025
11
127.6857709999999884
21
-161.035712999999987
0
LINE
8
BLACK
6
CONTINUOUS
10
127.6857709999999884
20
-161.035712999999987
11
127.73339
21
-160.9404749999999922
0
LINE
8
BLACK
6
CONTINUOUS
10
127.73339
20
-160.9404749999999922
11
127.7810089999999974
21
-160.8928559999999948
0
LINE
8
BLACK
6
CONTINUOUS
10
127.7810089999999974
20
-160.8928559999999948
11
127.8762469999999922
21
-160.8452369999999974
0
LINE
8
BLACK
6
CONTINUOUS
10
127.8762469999999922
20
-160.8452369999999974
11
128.1143419999999935
21
-160.8452369999999974
0
LINE
8
BLACK
6
CONTINUOUS
10
128.1143419999999935
20
-160.8452369999999974
11
128.2095799999999883
21
-160.8928559999999948
0
LINE
8
BLACK
6
CONTINUOUS
10
128.2095799999999883
20
-160.8928559999999948
11
128.2571999999999832
21
-160.9404749999999922
0
LINE
8
BLACK
6
CONTINUOUS
10
128.2571999999999832
20
-160.9404749999999922
11
128.3048189999999806
21
-161.035712999999987
0
LINE
8
BLACK
6
CONTINUOUS
10
128.3048189999999806
20
-161.035712999999987
11
128.3048189999999806
21
-161.2738080000000025
0
LINE
8
BLACK
6
CONTINUOUS
10
128.3048189999999806
20
-161.2738080000000025
11
128.2571999999999832
21
-161.3690459999999973
0
LINE
8
BLACK
6
CONTINUOUS
10
128.2571999999999832
20
-161.3690459999999973
11
128.2095799999999883
21
-161.4166649999999947
0
LINE
8
BLACK
6
CONTINUOUS
10
128.2095799999999883
20
-160.4166649999999947
11
128.2571999999999832
21
-160.3690459999999973
0
LINE
8
BLACK
6
CONTINUOUS
10
128.2571999999999832
20
-160.3690459999999973
11
128.3048189999999806
21
-160.4166649999999947
0
LINE
8
BLACK
6
CONTINUOUS
10
128.3048189999999806
20
-160.4166649999999947
11
128.2571999999999832
21
-160.4642839999999921
0
LINE
8
BLACK
6
CONTINUOUS
10
128.2571999999999832
20
-160.4642839999999921
11
128.2095799999999883
21
-160.4166649999999947
0
LINE
8
BLACK
6
CONTINUOUS
10
128.2095799999999883
20
-160.4166649999999947
11
128.3048189999999806
21
-160.4166649999999947
0
LINE
8
BLACK
6
CONTINUOUS
10
127.3048189999999948
20
-159.4642849999999896
11
127.3048189999999948
21
-159.9404749999999922
0
LINE
8
BLACK
6
CONTINUOUS
10
127.3048189999999948
20
-159.9404749999999922
11
127.7810089999999974
21
-159.9880939999999896
0
LINE
8
BLACK
6
CONTINUOUS
10
127.7810089999999974
20
-159.9880939999999896
11
127.73339
21
-159.9404749999999922
0
LINE
8
BLACK
6
CONTINUOUS
10
127.73339
20
-159.9404749999999922
11
127.6857709999999884
21
-159.8452369999999974
0
LINE
8
BLACK
6
CONTINUOUS
10
127.6857709999999884
20
-159.8452369999999974
11
127.6857709999999884
21
-159.6071419999999819
0
LINE
8
BLACK
6
CONTINUOUS
10
127.6857709999999884
20
-159.6071419999999819
11
127.73339
21
-159.511903999999987
0
LINE
8
BLACK
6
CONTINUOUS
10
127.73339
20
-159.511903999999987
11
127.7810089999999974
21
-159.4642849999999896
0
LINE
8
BLACK
6
CONTINUOUS
10
127.7810089999999974
20
-159.4642849999999896
11
127.8762469999999922
21
-159.4166659999999922
0
LINE
8
BLACK
6
CONTINUOUS
10
127.8762469999999922
20
-159.4166659999999922
11
128.1143419999999935
21
-159.4166659999999922
0
LINE
8
BLACK
6
CONTINUOUS
10
128.1143419999999935
20
-159.4166659999999922
11
128.2095799999999883
21
-159.4642849999999896
0
LINE
8
BLACK
6
CONTINUOUS
10
128.2095799999999883
20
-159.4642849999999896
11
128.2571999999999832
21
-159.511903999999987
0
LINE
8
BLACK
6
CONTINUOUS
10
128.2571999999999832
20
-159.511903999999987
11
128.3048189999999806
21
-159.6071419999999819
0
LINE
8
BLACK
6
CONTINUOUS
10
128.3048189999999806
20
-159.6071419999999819
11
128.3048189999999806
21
-159.8452369999999974
0
LINE
8
BLACK
6
CONTINUOUS
10
128.3048189999999806
20
-159.8452369999999974
11
128.2571999999999832
21
-159.9404749999999922
0
LINE
8
BLACK
6
CONTINUOUS
10
128.2571999999999832
20
-159.9404749999999922
11
128.2095799999999883
21
-159.9880939999999896
0
LINE
8
BLACK
6
CONTINUOUS
10
127.3048189999999948
20
-158.7976179999999999
11
127.3048189999999948
21
-158.7023800000000051
0
LINE
8
BLACK
6
CONTINUOUS
10
127.3048189999999948
20
-158.7023800000000051
11
127.3524379999999923
21
-158.6071419999999819
0
LINE
8
BLACK
6
CONTINUOUS
10
127.3524379999999923
20
-158.6071419999999819
11
127.4000569999999897
21
-158.5595229999999844
0
LINE
8
BLACK
6
CONTINUOUS
10
127.4000569999999897
20
-158.5595229999999844
11
127.4952949999999987
21
-158.511903999999987
0
LINE
8
BLACK
6
CONTINUOUS
10
127.4952949999999987
20
-158.511903999999987
11
127.6857709999999884
21
-158.4642849999999896
0
LINE
8
BLACK
6
CONTINUOUS
10
127.6857709999999884
20
-158.4642849999999896
11
127.9238659999999896
21
-158.4642849999999896
0
LINE
8
BLACK
6
CONTINUOUS
10
127.9238659999999896
20
-158.4642849999999896
11
128.1143419999999935
21
-158.511903999999987
0
LINE
8
BLACK
6
CONTINUOUS
10
128.1143419999999935
20
-158.511903999999987
11
128.2095799999999883
21
-158.5595229999999844
0
LINE
8
BLACK
6
CONTINUOUS
10
128.2095799999999883
20
-158.5595229999999844
11
128.2571999999999832
21
-158.6071419999999819
0
LINE
8
BLACK
6
CONTINUOUS
10
128.2571999999999832
20
-158.6071419999999819
11
128.3048189999999806
21
-158.7023800000000051
0
LINE
8
BLACK
6
CONTINUOUS
10
128.3048189999999806
20
-158.7023800000000051
11
128.3048189999999806
21
-158.7976179999999999
0
LINE
8
BLACK
6
CONTINUOUS
10
128.3048189999999806
20
-158.7976179999999999
11
128.2571999999999832
21
-158.8928559999999948
0
LINE
8
BLACK
6
CONTINUOUS
10
128.2571999999999832
20
-158.8928559999999948
11
128.2095799999999883
21
-158.9404749999999922
0
LINE
8
BLACK
6
CONTINUOUS
10
128.2095799999999883
20
-158.9404749999999922
11
128.1143419999999935
21
-158.9880939999999896
0
LINE
8
BLACK
6
CONTINUOUS
10
128.1143419999999935
20
-158.9880939999999896
11
127.9238659999999896
21
-159.035712999999987
0
LINE
8
BLACK
6
CONTINUOUS
10
127.9238659999999896
20
-159.035712999999987
11
127.6857709999999884
21
-159.035712999999987
0
LINE
8
BLACK
6
CONTINUOUS
10
127.6857709999999884
20
-159.035712999999987
11
127.4952949999999987
21
-158.9880939999999896
0
LINE
8
BLACK
6
CONTINUOUS
10
127.4952949999999987
20
-158.9880939999999896
11
127.4000569999999897
21
-158.9404749999999922
0
LINE
8
BLACK
6
CONTINUOUS
10
127.4000569999999897
20
-158.9404749999999922
11
127.3524379999999923
21
-158.8928559999999948
0
LINE
8
BLACK
6
CONTINUOUS
10
127.3524379999999923
20
-158.8928559999999948
11
127.3048189999999948
21
-158.7976179999999999
0
LINE
8
BLACK
6
CONTINUOUS
10
127.3048189999999948
20
-157.8452369999999974
11
127.3048189999999948
21
-157.7499990000000025
0
LINE
8
BLACK
6
CONTINUOUS
10
127.3048189999999948
20
-157.7499990000000025
11
127.3524379999999923
21
-157.6547609999999793
0
LINE
8
BLACK
6
CONTINUOUS
10
127.3524379999999923
20
-157.6547609999999793
11
127.4000569999999897
21
-157.6071419999999819
0
LINE
8
BLACK
6
CONTINUOUS
10
127.4000569999999897
20
-157.6071419999999819
11
127.4952949999999987
21
-157.5595229999999844
0
LINE
8
BLACK
6
CONTINUOUS
10
127.4952949999999987
20
-157.5595229999999844
11
127.6857709999999884
21
-157.511903999999987
0
LINE
8
BLACK
6
CONTINUOUS
10
127.6857709999999884
20
-157.511903999999987
11
127.9238659999999896
21
-157.511903999999987
0
LINE
8
BLACK
6
CONTINUOUS
10
127.9238659999999896
20
-157.511903999999987
11
128.1143419999999935
21
-157.5595229999999844
0
LINE
8
BLACK
6
CONTINUOUS
10
128.1143419999999935
20
-157.5595229999999844
11
128.2095799999999883
21
-157.6071419999999819
0
LINE
8
BLACK
6
CONTINUOUS
10
128.2095799999999883
20
-157.6071419999999819
11
128.2571999999999832
21
-157.6547609999999793
0
LINE
8
BLACK
6
CONTINUOUS
10
128.2571999999999832
20
-157.6547609999999793
11
128.3048189999999806
21
-157.7499990000000025
0
LINE
8
BLACK
6
CONTINUOUS
10
128.3048189999999806
20
-157.7499990000000025
11
128.3048189999999806
21
-157.8452369999999974
0
LINE
8
BLACK
6
CONTINUOUS
10
128.3048189999999806
20
-157.8452369999999974
11
128.2571999999999832
21
-157.9404749999999922
0
LINE
8
BLACK
6
CONTINUOUS
10
128.2571999999999832
20
-157.9404749999999922
11
128.2095799999999883
21
-157.9880939999999896
0
LINE
8
BLACK
6
CONTINUOUS
10
128.2095799999999883
20
-157.9880939999999896
11
128.1143419999999935
21
-158.035712999999987
0
LINE
8
BLACK
6
CONTINUOUS
10
128.1143419999999935
20
-158.035712999999987
11
127.9238659999999896
21
-158.0833319999999844
0
LINE
8
BLACK
6
CONTINUOUS
10
127.9238659999999896
20
-158.0833319999999844
11
127.6857709999999884
21
-158.0833319999999844
0
LINE
8
BLACK
6
CONTINUOUS
10
127.6857709999999884
20
-158.0833319999999844
11
127.4952949999999987
21
-158.035712999999987
0
LINE
8
BLACK
6
CONTINUOUS
10
127.4952949999999987
20
-158.035712999999987
11
127.4000569999999897
21
-157.9880939999999896
0
LINE
8
BLACK
6
CONTINUOUS
10
127.4000569999999897
20
-157.9880939999999896
11
127.3524379999999923
21
-157.9404749999999922
0
LINE
8
BLACK
6
CONTINUOUS
10
127.3524379999999923
20
-157.9404749999999922
11
127.3048189999999948
21
-157.8452369999999974
0
LINE
8
BLACK
6
CONTINUOUS
10
127.3048189999999948
20
-156.8928559999999948
11
127.3048189999999948
21
-156.7976179999999999
0
LINE
8
BLACK
6
CONTINUOUS
10
127.3048189999999948
20
-156.7976179999999999
11
127.3524379999999923
21
-156.7023800000000051
0
LINE
8
BLACK
6
CONTINUOUS
10
127.3524379999999923
20
-156.7023800000000051
11
127.4000569999999897
21
-156.6547609999999793
0
LINE
8
BLACK
6
CONTINUOUS
10
127.4000569999999897
20
-156.6547609999999793
11
127.4952949999999987
21
-156.6071419999999819
0
LINE
8
BLACK
6
CONTINUOUS
10
127.4952949999999987
20
-156.6071419999999819
11
127.6857709999999884
21
-156.5595229999999844
0
LINE
8
BLACK
6
CONTINUOUS
10
127.6857709999999884
20
-156.5595229999999844
11
127.9238659999999896
21
-156.5595229999999844
0
LINE
8
BLACK
6
CONTINUOUS
10
127.9238659999999896
20
-156.5595229999999844
11
128.1143419999999935
21
-156.6071419999999819
0
LINE
8
BLACK
6
CONTINUOUS
10
128.1143419999999935
20
-156.6071419999999819
11
128.2095799999999883
21
-156.6547609999999793
0
LINE
8
BLACK
6
CONTINUOUS
10
128.2095799999999883
20
-156.6547609999999793
11
128.2571999999999832
21
-156.7023800000000051
0
LINE
8
BLACK
6
CONTINUOUS
10
128.2571999999999832
20
-156.7023800000000051
11
128.3048189999999806
21
-156.7976179999999999
0
LINE
8
BLACK
6
CONTINUOUS
10
128.3048189999999806
20
-156.7976179999999999
11
128.3048189999999806
21
-156.8928559999999948
0
LINE
8
BLACK
6
CONTINUOUS
10
128.3048189999999806
20
-156.8928559999999948
11
128.2571999999999832
21
-156.9880939999999896
0
LINE
8
BLACK
6
CONTINUOUS
10
128.2571999999999832
20
-156.9880939999999896
11
128.2095799999999883
21
-157.035712999999987
0
LINE
8
BLACK
6
CONTINUOUS
10
128.2095799999999883
20
-157.035712999999987
11
128.1143419999999935
21
-157.0833319999999844
0
LINE
8
BLACK
6
CONTINUOUS
10
128.1143419999999935
20
-157.0833319999999844
11
127.9238659999999896
21
-157.1309509999999818
0
LINE
8
BLACK
6
CONTINUOUS
10
127.9238659999999896
20
-157.1309509999999818
11
127.6857709999999884
21
-157.1309509999999818
0
LINE
8
BLACK
6
CONTINUOUS
10
127.6857709999999884
20
-157.1309509999999818
11
127.4952949999999987
21
-157.0833319999999844
0
LINE
8
BLACK
6
CONTINUOUS
10
127.4952949999999987
20
-157.0833319999999844
11
127.4000569999999897
21
-157.035712999999987
0
LINE
8
BLACK
6
CONTINUOUS
10
127.4000569999999897
20
-157.035712999999987
11
127.3524379999999923
21
-156.9880939999999896
0
LINE
8
BLACK
6
CONTINUOUS
10
127.3524379999999923
20
-156.9880939999999896
11
127.3048189999999948
21
-156.8928559999999948
0
LINE
8
BLACK
6
CONTINUOUS
10
128.3048189999999806
20
-155.3690459999999973
11
127.6381519999999909
21
-155.3690459999999973
0
LINE
8
BLACK
6
CONTINUOUS
10
127.73339
20
-155.3690459999999973
11
127.6857709999999884
21
-155.3214269999999999
0
LINE
8
BLACK
6
CONTINUOUS
10
127.6857709999999884
20
-155.3214269999999999
11
127.6381519999999909
21
-155.2261890000000051
0
LINE
8
BLACK
6
CONTINUOUS
10
127.6381519999999909
20
-155.2261890000000051
11
127.6381519999999909
21
-155.0833319999999844
0
LINE
8
BLACK
6
CONTINUOUS
10
127.6381519999999909
20
-155.0833319999999844
11
127.6857709999999884
21
-154.9880939999999896
0
LINE
8
BLACK
6
CONTINUOUS
10
127.6857709999999884
20
-154.9880939999999896
11
127.7810089999999974
21
-154.9404749999999922
0
LINE
8
BLACK
6
CONTINUOUS
10
127.7810089999999974
20
-154.9404749999999922
11
128.3048189999999806
21
-154.9404749999999922
0
LINE
8
BLACK
6
CONTINUOUS
10
127.7810089999999974
20
-154.9404749999999922
11
127.6857709999999884
21
-154.8928559999999948
0
LINE
8
BLACK
6
CONTINUOUS
10
127.6857709999999884
20
-154.8928559999999948
11
127.6381519999999909
21
-154.7976179999999999
0
LINE
8
BLACK
6
CONTINUOUS
10
127.6381519999999909
20
-154.7976179999999999
11
127.6381519999999909
21
-154.6547609999999793
0
LINE
8
BLACK
6
CONTINUOUS
10
127.6381519999999909
20
-154.6547609999999793
11
127.6857709999999884
21
-154.559521999999987
0
LINE
8
BLACK
6
CONTINUOUS
10
127.6857709999999884
20
-154.559521999999987
11
127.7810089999999974
21
-154.5119029999999896
0
LINE
8
BLACK
6
CONTINUOUS
10
127.7810089999999974
20
-154.5119029999999896
11
128.3048189999999806
21
-154.5119029999999896
0
LINE
8
BLACK
6
CONTINUOUS
10
128.3048189999999806
20
-154.035712999999987
11
127.6381519999999909
21
-154.035712999999987
0
LINE
8
BLACK
6
CONTINUOUS
10
127.73339
20
-154.035712999999987
11
127.6857709999999884
21
-153.9880939999999896
0
LINE
8
BLACK
6
CONTINUOUS
10
127.6857709999999884
20
-153.9880939999999896
11
127.6381519999999909
21
-153.8928559999999948
0
LINE
8
BLACK
6
CONTINUOUS
10
127.6381519999999909
20
-153.8928559999999948
11
127.6381519999999909
21
-153.7499990000000025
0
LINE
8
BLACK
6
CONTINUOUS
10
127.6381519999999909
20
-153.7499990000000025
11
127.6857709999999884
21
-153.6547609999999793
0
LINE
8
BLACK
6
CONTINUOUS
10
127.6857709999999884
20
-153.6547609999999793
11
127.7810089999999974
21
-153.6071419999999819
0
LINE
8
BLACK
6
CONTINUOUS
10
127.7810089999999974
20
-153.6071419999999819
11
128.3048189999999806
21
-153.6071419999999819
0
LINE
8
BLACK
6
CONTINUOUS
10
127.7810089999999974
20
-153.6071419999999819
11
127.6857709999999884
21
-153.5595229999999844
0
LINE
8
BLACK
6
CONTINUOUS
10
127.6857709999999884
20
-153.5595229999999844
11
127.6381519999999909
21
-153.4642849999999896
0
LINE
8
BLACK
6
CONTINUOUS
10
127.6381519999999909
20
-153.4642849999999896
11
127.6381519999999909
21
-153.3214279999999974
0
LINE
8
BLACK
6
CONTINUOUS
10
127.6381519999999909
20
-153.3214279999999974
11
127.6857709999999884
21
-153.2261890000000051
0
LINE
8
BLACK
6
CONTINUOUS
10
127.6857709999999884
20
-153.2261890000000051
11
127.7810089999999974
21
-153.1785699999999792
0
LINE
8
BLACK
6
CONTINUOUS
10
127.7810089999999974
20
-153.1785699999999792
11
128.3048189999999806
21
-153.1785699999999792
0
LINE
8
BLACK
6
CONTINUOUS
10
110.5
20
-165.5
11
129.5864200000000039
21
-165.5
0
LINE
8
BLACK
6
CONTINUOUS
10
110.5
20
-150.
11
129.5864200000000039
21
-150.
0
LINE
8
BLACK
6
CONTINUOUS
10
129.
20
-165.5
11
129.
21
-150.
0
LINE
8
BLACK
6
CONTINUOUS
10
129.
20
-165.5
11
129.
21
-150.
0
LINE
8
BLACK
6
CONTINUOUS
10
129.
20
-165.5
11
128.4135789999999986
21
-164.3734959999999887
0
LINE
8
BLACK
6
CONTINUOUS
10
129.
20
-165.5
11
129.5864210000000014
21
-164.3734959999999887
0
LINE
8
BLACK
6
CONTINUOUS
10
129.
20
-150.
11
129.5864210000000014
21
-151.1265039999999829
0
LINE
8
BLACK
6
CONTINUOUS
10
129.
20
-150.
11
128.4135789999999986
21
-151.1265039999999829
0
LINE
8
BLACK
6
CONTINUOUS
10
118.73339
20
-165.2023800000000051
11
118.6857709999999884
21
-165.2976179999999999
0
LINE
8
BLACK
6
CONTINUOUS
10
118.6857709999999884
20
-165.2976179999999999
11
118.6381519999999909
21
-165.3452369999999974
0
LINE
8
BLACK
6
CONTINUOUS
10
118.6381519999999909
20
-165.3452369999999974
11
118.5429139999999961
21
-165.3928559999999948
0
LINE
8
BLACK
6
CONTINUOUS
10
118.5429139999999961
20
-165.3928559999999948
11
118.4952949999999987
21
-165.3928559999999948
0
LINE
8
BLACK
6
CONTINUOUS
10
118.4952949999999987
20
-165.3928559999999948
11
118.4000569999999897
21
-165.3452369999999974
0
LINE
8
BLACK
6
CONTINUOUS
10
118.4000569999999897
20
-165.3452369999999974
11
118.3524379999999923
21
-165.2976179999999999
0
LINE
8
BLACK
6
CONTINUOUS
10
118.3524379999999923
20
-165.2976179999999999
11
118.3048189999999948
21
-165.2023800000000051
0
LINE
8
BLACK
6
CONTINUOUS
10
118.3048189999999948
20
-165.2023800000000051
11
118.3048189999999948
21
-165.011903999999987
0
LINE
8
BLACK
6
CONTINUOUS
10
118.3048189999999948
20
-165.011903999999987
11
118.3524379999999923
21
-164.9166659999999922
0
LINE
8
BLACK
6
CONTINUOUS
10
118.3524379999999923
20
-164.9166659999999922
11
118.4000569999999897
21
-164.8690469999999948
0
LINE
8
BLACK
6
CONTINUOUS
10
118.4000569999999897
20
-164.8690469999999948
11
118.4952949999999987
21
-164.8214279999999974
0
LINE
8
BLACK
6
CONTINUOUS
10
118.4952949999999987
20
-164.8214279999999974
11
118.5429139999999961
21
-164.8214279999999974
0
LINE
8
BLACK
6
CONTINUOUS
10
118.5429139999999961
20
-164.8214279999999974
11
118.6381519999999909
21
-164.8690469999999948
0
LINE
8
BLACK
6
CONTINUOUS
10
118.6381519999999909
20
-164.8690469999999948
11
118.6857709999999884
21
-164.9166659999999922
0
LINE
8
BLACK
6
CONTINUOUS
10
118.6857709999999884
20
-164.9166659999999922
11
118.73339
21
-165.011903999999987
0
LINE
8
BLACK
6
CONTINUOUS
10
118.73339
20
-165.011903999999987
11
118.73339
21
-165.2023800000000051
0
LINE
8
BLACK
6
CONTINUOUS
10
118.73339
20
-165.2023800000000051
11
118.7810089999999974
21
-165.2976179999999999
0
LINE
8
BLACK
6
CONTINUOUS
10
118.7810089999999974
20
-165.2976179999999999
11
118.8286279999999948
21
-165.3452369999999974
0
LINE
8
BLACK
6
CONTINUOUS
10
118.8286279999999948
20
-165.3452369999999974
11
118.9238659999999896
21
-165.3928559999999948
0
LINE
8
BLACK
6
CONTINUOUS
10
118.9238659999999896
20
-165.3928559999999948
11
119.1143419999999935
21
-165.3928559999999948
0
LINE
8
BLACK
6
CONTINUOUS
10
119.1143419999999935
20
-165.3928559999999948
11
119.2095799999999883
21
-165.3452369999999974
0
LINE
8
BLACK
6
CONTINUOUS
10
119.2095799999999883
20
-165.3452369999999974
11
119.2571999999999974
21
-165.2976179999999999
0
LINE
8
BLACK
6
CONTINUOUS
10
119.2571999999999974
20
-165.2976179999999999
11
119.3048189999999948
21
-165.2023800000000051
0
LINE
8
BLACK
6
CONTINUOUS
10
119.3048189999999948
20
-165.2023800000000051
11
119.3048189999999948
21
-165.011903999999987
0
LINE
8
BLACK
6
CONTINUOUS
10
119.3048189999999948
20
-165.011903999999987
11
119.2571999999999974
21
-164.9166659999999922
0
LINE
8
BLACK
6
CONTINUOUS
10
119.2571999999999974
20
-164.9166659999999922
11
119.2095799999999883
21
-164.8690469999999948
0
LINE
8
BLACK
6
CONTINUOUS
10
119.2095799999999883
20
-164.8690469999999948
11
119.1143419999999935
21
-164.8214279999999974
0
LINE
8
BLACK
6
CONTINUOUS
10
119.1143419999999935
20
-164.8214279999999974
11
118.9238659999999896
21
-164.8214279999999974
0
LINE
8
BLACK
6
CONTINUOUS
10
118.9238659999999896
20
-164.8214279999999974
11
118.8286279999999948
21
-164.8690469999999948
0
LINE
8
BLACK
6
CONTINUOUS
10
118.8286279999999948
20
-164.8690469999999948
11
118.7810089999999974
21
-164.9166659999999922
0
LINE
8
BLACK
6
CONTINUOUS
10
118.7810089999999974
20
-164.9166659999999922
11
118.73339
21
-165.011903999999987
0
LINE
8
BLACK
6
CONTINUOUS
10
119.2095799999999883
20
-164.3928559999999948
11
119.2571999999999974
21
-164.3452369999999974
0
LINE
8
BLACK
6
CONTINUOUS
10
119.2571999999999974
20
-164.3452369999999974
11
119.3048189999999948
21
-164.3928559999999948
0
LINE
8
BLACK
6
CONTINUOUS
10
119.3048189999999948
20
-164.3928559999999948
11
119.2571999999999974
21
-164.4404749999999922
0
LINE
8
BLACK
6
CONTINUOUS
10
119.2571999999999974
20
-164.4404749999999922
11
119.2095799999999883
21
-164.3928559999999948
0
LINE
8
BLACK
6
CONTINUOUS
10
119.2095799999999883
20
-164.3928559999999948
11
119.3048189999999948
21
-164.3928559999999948
0
LINE
8
BLACK
6
CONTINUOUS
10
118.3048189999999948
20
-163.4404759999999897
11
118.3048189999999948
21
-163.9166659999999922
0
LINE
8
BLACK
6
CONTINUOUS
10
118.3048189999999948
20
-163.9166659999999922
11
118.7810089999999974
21
-163.9642849999999896
0
LINE
8
BLACK
6
CONTINUOUS
10
118.7810089999999974
20
-163.9642849999999896
11
118.73339
21
-163.9166659999999922
0
LINE
8
BLACK
6
CONTINUOUS
10
118.73339
20
-163.9166659999999922
11
118.6857709999999884
21
-163.8214279999999974
0
LINE
8
BLACK
6
CONTINUOUS
10
118.6857709999999884
20
-163.8214279999999974
11
118.6857709999999884
21
-163.5833329999999819
0
LINE
8
BLACK
6
CONTINUOUS
10
118.6857709999999884
20
-163.5833329999999819
11
118.73339
21
-163.4880949999999871
0
LINE
8
BLACK
6
CONTINUOUS
10
118.73339
20
-163.4880949999999871
11
118.7810089999999974
21
-163.4404759999999897
0
LINE
8
BLACK
6
CONTINUOUS
10
118.7810089999999974
20
-163.4404759999999897
11
118.8762469999999922
21
-163.3928569999999922
0
LINE
8
BLACK
6
CONTINUOUS
10
118.8762469999999922
20
-163.3928569999999922
11
119.1143419999999935
21
-163.3928569999999922
0
LINE
8
BLACK
6
CONTINUOUS
10
119.1143419999999935
20
-163.3928569999999922
11
119.2095799999999883
21
-163.4404759999999897
0
LINE
8
BLACK
6
CONTINUOUS
10
119.2095799999999883
20
-163.4404759999999897
11
119.2571999999999974
21
-163.4880949999999871
0
LINE
8
BLACK
6
CONTINUOUS
10
119.2571999999999974
20
-163.4880949999999871
11
119.3048189999999948
21
-163.5833329999999819
0
LINE
8
BLACK
6
CONTINUOUS
10
119.3048189999999948
20
-163.5833329999999819
11
119.3048189999999948
21
-163.8214279999999974
0
LINE
8
BLACK
6
CONTINUOUS
10
119.3048189999999948
20
-163.8214279999999974
11
119.2571999999999974
21
-163.9166659999999922
0
LINE
8
BLACK
6
CONTINUOUS
10
119.2571999999999974
20
-163.9166659999999922
11
119.2095799999999883
21
-163.9642849999999896
0
LINE
8
BLACK
6
CONTINUOUS
10
118.3048189999999948
20
-162.773809
11
118.3048189999999948
21
-162.6785710000000051
0
LINE
8
BLACK
6
CONTINUOUS
10
118.3048189999999948
20
-162.6785710000000051
11
118.3524379999999923
21
-162.5833329999999819
0
LINE
8
BLACK
6
CONTINUOUS
10
118.3524379999999923
20
-162.5833329999999819
11
118.4000569999999897
21
-162.5357139999999845
0
LINE
8
BLACK
6
CONTINUOUS
10
118.4000569999999897
20
-162.5357139999999845
11
118.4952949999999987
21
-162.4880949999999871
0
LINE
8
BLACK
6
CONTINUOUS
10
118.4952949999999987
20
-162.4880949999999871
11
118.6857709999999884
21
-162.4404759999999897
0
LINE
8
BLACK
6
CONTINUOUS
10
118.6857709999999884
20
-162.4404759999999897
11
118.9238659999999896
21
-162.4404759999999897
0
LINE
8
BLACK
6
CONTINUOUS
10
118.9238659999999896
20
-162.4404759999999897
11
119.1143419999999935
21
-162.4880949999999871
0
LINE
8
BLACK
6
CONTINUOUS
10
119.1143419999999935
20
-162.4880949999999871
11
119.2095799999999883
21
-162.5357139999999845
0
LINE
8
BLACK
6
CONTINUOUS
10
119.2095799999999883
20
-162.5357139999999845
11
119.2571999999999974
21
-162.5833329999999819
0
LINE
8
BLACK
6
CONTINUOUS
10
119.2571999999999974
20
-162.5833329999999819
11
119.3048189999999948
21
-162.6785710000000051
0
LINE
8
BLACK
6
CONTINUOUS
10
119.3048189999999948
20
-162.6785710000000051
11
119.3048189999999948
21
-162.773809
0
LINE
8
BLACK
6
CONTINUOUS
10
119.3048189999999948
20
-162.773809
11
119.2571999999999974
21
-162.8690469999999948
0
LINE
8
BLACK
6
CONTINUOUS
10
119.2571999999999974
20
-162.8690469999999948
11
119.2095799999999883
21
-162.9166659999999922
0
LINE
8
BLACK
6
CONTINUOUS
10
119.2095799999999883
20
-162.9166659999999922
11
119.1143419999999935
21
-162.9642849999999896
0
LINE
8
BLACK
6
CONTINUOUS
10
119.1143419999999935
20
-162.9642849999999896
11
118.9238659999999896
21
-163.011903999999987
0
LINE
8
BLACK
6
CONTINUOUS
10
118.9238659999999896
20
-163.011903999999987
11
118.6857709999999884
21
-163.011903999999987
0
LINE
8
BLACK
6
CONTINUOUS
10
118.6857709999999884
20
-163.011903999999987
11
118.4952949999999987
21
-162.9642849999999896
0
LINE
8
BLACK
6
CONTINUOUS
10
118.4952949999999987
20
-162.9642849999999896
11
118.4000569999999897
21
-162.9166659999999922
0
LINE
8
BLACK
6
CONTINUOUS
10
118.4000569999999897
20
-162.9166659999999922
11
118.3524379999999923
21
-162.8690469999999948
0
LINE
8
BLACK
6
CONTINUOUS
10
118.3524379999999923
20
-162.8690469999999948
11
118.3048189999999948
21
-162.773809
0
LINE
8
BLACK
6
CONTINUOUS
10
118.3048189999999948
20
-161.8214279999999974
11
118.3048189999999948
21
-161.7261900000000026
0
LINE
8
BLACK
6
CONTINUOUS
10
118.3048189999999948
20
-161.7261900000000026
11
118.3524379999999923
21
-161.6309519999999793
0
LINE
8
BLACK
6
CONTINUOUS
10
118.3524379999999923
20
-161.6309519999999793
11
118.4000569999999897
21
-161.5833329999999819
0
LINE
8
BLACK
6
CONTINUOUS
10
118.4000569999999897
20
-161.5833329999999819
11
118.4952949999999987
21
-161.5357139999999845
0
LINE
8
BLACK
6
CONTINUOUS
10
118.4952949999999987
20
-161.5357139999999845
11
118.6857709999999884
21
-161.4880949999999871
0
LINE
8
BLACK
6
CONTINUOUS
10
118.6857709999999884
20
-161.4880949999999871
11
118.9238659999999896
21
-161.4880949999999871
0
LINE
8
BLACK
6
CONTINUOUS
10
118.9238659999999896
20
-161.4880949999999871
11
119.1143419999999935
21
-161.5357139999999845
0
LINE
8
BLACK
6
CONTINUOUS
10
119.1143419999999935
20
-161.5357139999999845
11
119.2095799999999883
21
-161.5833329999999819
0
LINE
8
BLACK
6
CONTINUOUS
10
119.2095799999999883
20
-161.5833329999999819
11
119.2571999999999974
21
-161.6309519999999793
0
LINE
8
BLACK
6
CONTINUOUS
10
119.2571999999999974
20
-161.6309519999999793
11
119.3048189999999948
21
-161.7261900000000026
0
LINE
8
BLACK
6
CONTINUOUS
10
119.3048189999999948
20
-161.7261900000000026
11
119.3048189999999948
21
-161.8214279999999974
0
LINE
8
BLACK
6
CONTINUOUS
10
119.3048189999999948
20
-161.8214279999999974
11
119.2571999999999974
21
-161.9166659999999922
0
LINE
8
BLACK
6
CONTINUOUS
10
119.2571999999999974
20
-161.9166659999999922
11
119.2095799999999883
21
-161.9642849999999896
0
LINE
8
BLACK
6
CONTINUOUS
10
119.2095799999999883
20
-161.9642849999999896
11
119.1143419999999935
21
-162.011903999999987
0
LINE
8
BLACK
6
CONTINUOUS
10
119.1143419999999935
20
-162.011903999999987
11
118.9238659999999896
21
-162.0595229999999844
0
LINE
8
BLACK
6
CONTINUOUS
10
118.9238659999999896
20
-162.0595229999999844
11
118.6857709999999884
21
-162.0595229999999844
0
LINE
8
BLACK
6
CONTINUOUS
10
118.6857709999999884
20
-162.0595229999999844
11
118.4952949999999987
21
-162.011903999999987
0
LINE
8
BLACK
6
CONTINUOUS
10
118.4952949999999987
20
-162.011903999999987
11
118.4000569999999897
21
-161.9642849999999896
0
LINE
8
BLACK
6
CONTINUOUS
10
118.4000569999999897
20
-161.9642849999999896
11
118.3524379999999923
21
-161.9166659999999922
0
LINE
8
BLACK
6
CONTINUOUS
10
118.3524379999999923
20
-161.9166659999999922
11
118.3048189999999948
21
-161.8214279999999974
0
LINE
8
BLACK
6
CONTINUOUS
10
118.3048189999999948
20
-160.8690469999999948
11
118.3048189999999948
21
-160.773809
0
LINE
8
BLACK
6
CONTINUOUS
10
118.3048189999999948
20
-160.773809
11
118.3524379999999923
21
-160.6785710000000051
0
LINE
8
BLACK
6
CONTINUOUS
10
118.3524379999999923
20
-160.6785710000000051
11
118.4000569999999897
21
-160.6309519999999793
0
LINE
8
BLACK
6
CONTINUOUS
10
118.4000569999999897
20
-160.6309519999999793
11
118.4952949999999987
21
-160.5833329999999819
0
LINE
8
BLACK
6
CONTINUOUS
10
118.4952949999999987
20
-160.5833329999999819
11
118.6857709999999884
21
-160.5357139999999845
0
LINE
8
BLACK
6
CONTINUOUS
10
118.6857709999999884
20
-160.5357139999999845
11
118.9238659999999896
21
-160.5357139999999845
0
LINE
8
BLACK
6
CONTINUOUS
10
118.9238659999999896
20
-160.5357139999999845
11
119.1143419999999935
21
-160.5833329999999819
0
LINE
8
BLACK
6
CONTINUOUS
10
119.1143419999999935
20
-160.5833329999999819
11
119.2095799999999883
21
-160.6309519999999793
0
LINE
8
BLACK
6
CONTINUOUS
10
119.2095799999999883
20
-160.6309519999999793
11
119.2571999999999974
21
-160.6785710000000051
0
LINE
8
BLACK
6
CONTINUOUS
10
119.2571999999999974
20
-160.6785710000000051
11
119.3048189999999948
21
-160.773809
0
LINE
8
BLACK
6
CONTINUOUS
10
119.3048189999999948
20
-160.773809
11
119.3048189999999948
21
-160.8690469999999948
0
LINE
8
BLACK
6
CONTINUOUS
10
119.3048189999999948
20
-160.8690469999999948
11
119.2571999999999974
21
-160.9642849999999896
0
LINE
8
BLACK
6
CONTINUOUS
10
119.2571999999999974
20
-160.9642849999999896
11
119.2095799999999883
21
-161.011903999999987
0
LINE
8
BLACK
6
CONTINUOUS
10
119.2095799999999883
20
-161.011903999999987
11
119.1143419999999935
21
-161.0595229999999844
0
LINE
8
BLACK
6
CONTINUOUS
10
119.1143419999999935
20
-161.0595229999999844
11
118.9238659999999896
21
-161.1071419999999819
0
LINE
8
BLACK
6
CONTINUOUS
10
118.9238659999999896
20
-161.1071419999999819
11
118.6857709999999884
21
-161.1071419999999819
0
LINE
8
BLACK
6
CONTINUOUS
10
118.6857709999999884
20
-161.1071419999999819
11
118.4952949999999987
21
-161.0595229999999844
0
LINE
8
BLACK
6
CONTINUOUS
10
118.4952949999999987
20
-161.0595229999999844
11
118.4000569999999897
21
-161.011903999999987
0
LINE
8
BLACK
6
CONTINUOUS
10
118.4000569999999897
20
-161.011903999999987
11
118.3524379999999923
21
-160.9642849999999896
0
LINE
8
BLACK
6
CONTINUOUS
10
118.3524379999999923
20
-160.9642849999999896
11
118.3048189999999948
21
-160.8690469999999948
0
LINE
8
BLACK
6
CONTINUOUS
10
119.3048189999999948
20
-159.3452369999999974
11
118.6381519999999909
21
-159.3452369999999974
0
LINE
8
BLACK
6
CONTINUOUS
10
118.73339
20
-159.3452369999999974
11
118.6857709999999884
21
-159.2976179999999999
0
LINE
8
BLACK
6
CONTINUOUS
10
118.6857709999999884
20
-159.2976179999999999
11
118.6381519999999909
21
-159.2023800000000051
0
LINE
8
BLACK
6
CONTINUOUS
10
118.6381519999999909
20
-159.2023800000000051
11
118.6381519999999909
21
-159.0595229999999844
0
LINE
8
BLACK
6
CONTINUOUS
10
118.6381519999999909
20
-159.0595229999999844
11
118.6857709999999884
21
-158.9642849999999896
0
LINE
8
BLACK
6
CONTINUOUS
10
118.6857709999999884
20
-158.9642849999999896
11
118.7810089999999974
21
-158.9166659999999922
0
LINE
8
BLACK
6
CONTINUOUS
10
118.7810089999999974
20
-158.9166659999999922
11
119.3048189999999948
21
-158.9166659999999922
0
LINE
8
BLACK
6
CONTINUOUS
10
118.7810089999999974
20
-158.9166659999999922
11
118.6857709999999884
21
-158.8690469999999948
0
LINE
8
BLACK
6
CONTINUOUS
10
118.6857709999999884
20
-158.8690469999999948
11
118.6381519999999909
21
-158.773809
0
LINE
8
BLACK
6
CONTINUOUS
10
118.6381519999999909
20
-158.773809
11
118.6381519999999909
21
-158.6309519999999793
0
LINE
8
BLACK
6
CONTINUOUS
10
118.6381519999999909
20
-158.6309519999999793
11
118.6857709999999884
21
-158.535712999999987
0
LINE
8
BLACK
6
CONTINUOUS
10
118.6857709999999884
20
-158.535712999999987
11
118.7810089999999974
21
-158.4880939999999896
0
LINE
8
BLACK
6
CONTINUOUS
10
118.7810089999999974
20
-158.4880939999999896
11
119.3048189999999948
21
-158.4880939999999896
0
LINE
8
BLACK
6
CONTINUOUS
10
119.3048189999999948
20
-158.011903999999987
11
118.6381519999999909
21
-158.011903999999987
0
LINE
8
BLACK
6
CONTINUOUS
10
118.73339
20
-158.011903999999987
11
118.6857709999999884
21
-157.9642849999999896
0
LINE
8
BLACK
6
CONTINUOUS
10
118.6857709999999884
20
-157.9642849999999896
11
118.6381519999999909
21
-157.8690469999999948
0
LINE
8
BLACK
6
CONTINUOUS
10
118.6381519999999909
20
-157.8690469999999948
11
118.6381519999999909
21
-157.7261900000000026
0
LINE
8
BLACK
6
CONTINUOUS
10
118.6381519999999909
20
-157.7261900000000026
11
118.6857709999999884
21
-157.6309519999999793
0
LINE
8
BLACK
6
CONTINUOUS
10
118.6857709999999884
20
-157.6309519999999793
11
118.7810089999999974
21
-157.5833329999999819
0
LINE
8
BLACK
6
CONTINUOUS
10
118.7810089999999974
20
-157.5833329999999819
11
119.3048189999999948
21
-157.5833329999999819
0
LINE
8
BLACK
6
CONTINUOUS
10
118.7810089999999974
20
-157.5833329999999819
11
118.6857709999999884
21
-157.5357139999999845
0
LINE
8
BLACK
6
CONTINUOUS
10
118.6857709999999884
20
-157.5357139999999845
11
118.6381519999999909
21
-157.4404759999999897
0
LINE
8
BLACK
6
CONTINUOUS
10
118.6381519999999909
20
-157.4404759999999897
11
118.6381519999999909
21
-157.2976189999999974
0
LINE
8
BLACK
6
CONTINUOUS
10
118.6381519999999909
20
-157.2976189999999974
11
118.6857709999999884
21
-157.2023800000000051
0
LINE
8
BLACK
6
CONTINUOUS
10
118.6857709999999884
20
-157.2023800000000051
11
118.7810089999999974
21
-157.1547609999999793
0
LINE
8
BLACK
6
CONTINUOUS
10
118.7810089999999974
20
-157.1547609999999793
11
119.3048189999999948
21
-157.1547609999999793
0
LINE
8
BLACK
6
CONTINUOUS
10
110.5
20
-165.5
11
120.5864199999999897
21
-165.5
0
LINE
8
BLACK
6
CONTINUOUS
10
110.5
20
-157.
11
120.5864199999999897
21
-157.
0
LINE
8
BLACK
6
CONTINUOUS
10
120.
20
-165.5
11
120.
21
-157.
0
LINE
8
BLACK
6
CONTINUOUS
10
120.
20
-165.5
11
120.
21
-157.
0
LINE
8
BLACK
6
CONTINUOUS
10
120.
20
-165.5
11
119.4135789999999986
21
-164.3734959999999887
0
LINE
8
BLACK
6
CONTINUOUS
10
120.
20
-165.5
11
120.5864210000000014
21
-164.3734959999999887
0
LINE
8
BLACK
6
CONTINUOUS
10
120.
20
-157.
11
120.5864210000000014
21
-158.1265039999999829
0
LINE
8
BLACK
6
CONTINUOUS
10
120.
20
-157.
11
119.4135789999999986
21
-158.1265039999999829
  0
ENDSEC
  0
EOF
