M48
; DRILL file {KiCad 8.0.0} date 2024-09-10T09:18:38-0700
; FORMAT={-:-/ absolute / inch / decimal}
; #@! TF.CreationDate,2024-09-10T09:18:38-07:00
; #@! TF.GenerationSoftware,Kicad,Pcbnew,8.0.0
; #@! TF.FileFunction,Plated,1,2,PTH
FMAT,2
INCH
; #@! TA.AperFunction,Plated,PTH,ViaDrill
T1C0.0118
; #@! TA.AperFunction,Plated,PTH,ComponentDrill
T2C0.0315
; #@! TA.AperFunction,Plated,PTH,ComponentDrill
T3C0.0394
; #@! TA.AperFunction,Plated,PTH,ComponentDrill
T4C0.0433
; #@! TA.AperFunction,Plated,PTH,ComponentDrill
T5C0.0472
; #@! TA.AperFunction,Plated,PTH,ComponentDrill
T6C0.1260
%
G90
G05
T1
X4.2913Y-4.4252
X4.2913Y-4.4567
X4.2913Y-4.4882
X4.3307Y-3.3588
X4.3307Y-4.4252
X4.3622Y-4.4252
X4.3937Y-4.4252
X4.4567Y-4.1496
X4.4567Y-4.189
X4.4567Y-4.2283
X4.5039Y-4.1496
X4.5039Y-4.189
X4.5039Y-4.2283
X4.5512Y-4.1496
X4.5512Y-4.189
X4.5512Y-4.2283
X4.5984Y-4.1496
X4.5984Y-4.189
X4.5984Y-4.2283
X4.6535Y-3.8031
X4.6535Y-3.8346
X4.6535Y-3.8661
X4.6535Y-3.8976
X4.6535Y-3.9291
X4.6535Y-4.2598
X4.6535Y-4.2992
X4.6535Y-4.3386
X4.6535Y-4.378
X4.6535Y-4.4173
X4.6535Y-4.4567
X4.6535Y-4.4961
X4.685Y-3.7874
X4.685Y-3.8189
X4.685Y-3.8504
X4.685Y-3.8819
X4.685Y-3.9134
X4.685Y-3.9449
X4.7008Y-4.2992
X4.7008Y-4.3386
X4.7008Y-4.378
X4.7008Y-4.4173
X4.7008Y-4.4567
X4.7008Y-4.4961
X4.7244Y-3.9134
X4.7244Y-3.9449
X4.7638Y-3.9134
X4.7638Y-3.9449
X4.8031Y-3.9134
X4.8031Y-3.9449
X4.8425Y-3.9134
X4.8425Y-3.9449
X4.8819Y-3.9134
X4.8819Y-3.9449
X4.9213Y-3.7874
X4.9213Y-3.8189
X4.9213Y-3.8504
X4.9213Y-3.8819
X4.9213Y-3.9134
X4.9213Y-3.9449
X4.9528Y-3.8031
X4.9528Y-3.8346
X4.9528Y-3.8661
X4.9528Y-3.8976
X4.9528Y-3.9291
X4.9764Y-4.4094
X4.9764Y-4.4488
X4.9764Y-4.4882
X4.9843Y-3.8504
X4.9843Y-3.8819
X4.9843Y-3.9134
X4.9843Y-3.9449
X5.0236Y-4.4094
X5.0236Y-4.4488
X5.0236Y-4.4882
X5.0315Y-3.9291
X5.1732Y-3.9291
X5.1954Y-3.9764
X5.2913Y-4.4094
X5.2913Y-4.4488
X5.2913Y-4.4882
X5.2992Y-4.1339
X5.2992Y-4.1732
X5.2992Y-4.2126
X5.315Y-3.9291
X5.3386Y-4.4094
X5.3386Y-4.4488
X5.3386Y-4.4882
X5.3465Y-4.1339
X5.3465Y-4.1732
X5.3465Y-4.2126
X5.3937Y-4.1339
X5.3937Y-4.1732
X5.3937Y-4.2126
X5.3937Y-4.4094
X5.3937Y-4.4488
X5.3937Y-4.4882
X5.4409Y-4.1339
X5.4409Y-4.1732
X5.4409Y-4.2126
X5.4409Y-4.4094
X5.4409Y-4.4488
X5.4409Y-4.4882
X5.4646Y-3.9291
X5.4882Y-4.1339
X5.4882Y-4.1732
X5.4882Y-4.2126
X5.4882Y-4.252
X5.4882Y-4.2913
X5.4882Y-4.3307
X5.4882Y-4.3701
X5.4882Y-4.4094
X5.4882Y-4.4488
X5.4882Y-4.4882
X5.5354Y-4.1339
X5.5354Y-4.1732
X5.5354Y-4.2126
X5.5354Y-4.252
X5.5354Y-4.2913
X5.5354Y-4.3307
X5.5354Y-4.3701
X5.5354Y-4.4094
X5.5354Y-4.4488
X5.5354Y-4.4882
X6.0079Y-4.1339
X6.0472Y-4.1339
X6.0866Y-4.1339
X6.2047Y-4.1339
X6.2047Y-4.1654
X6.4016Y-4.2598
X6.4016Y-4.2992
X6.4016Y-4.3386
X6.4291Y-4.126
X6.4291Y-4.1654
X6.4291Y-4.2047
X6.4331Y-4.4016
X6.4331Y-4.4409
X6.4331Y-4.4803
X6.4488Y-4.2598
X6.4488Y-4.2992
X6.4488Y-4.3386
X7.2874Y-4.126
X7.2874Y-4.1654
X7.2874Y-4.2047
X7.2874Y-4.248
X7.2874Y-4.2874
X7.2874Y-4.3268
X7.2874Y-4.3701
X7.2874Y-4.4173
X7.2874Y-4.4567
X7.2874Y-4.4961
X7.3268Y-4.126
X7.3268Y-4.1654
X7.3268Y-4.2047
X7.3268Y-4.248
X7.3268Y-4.2874
X7.3268Y-4.3268
X7.3268Y-4.3701
X7.3268Y-4.4173
X7.3268Y-4.4567
X7.3268Y-4.4961
X7.3701Y-4.126
X7.3701Y-4.1654
X7.3701Y-4.2047
X7.3701Y-4.248
X7.3701Y-4.3701
X7.3701Y-4.4173
X7.3701Y-4.4567
X7.3701Y-4.4961
X7.4134Y-4.126
X7.4134Y-4.1654
X7.4134Y-4.2047
X7.4134Y-4.4173
X7.4134Y-4.4567
X7.4134Y-4.4961
X7.4567Y-4.126
X7.4567Y-4.1654
X7.4567Y-4.2047
X7.4567Y-4.4173
X7.4567Y-4.4567
X7.4567Y-4.4961
X7.5Y-4.126
X7.5Y-4.1654
X7.5Y-4.2047
X7.5Y-4.4173
X7.5Y-4.4567
X7.5Y-4.4961
X7.5433Y-4.126
X7.5433Y-4.1654
X7.5433Y-4.2047
X7.5433Y-4.4173
X7.5433Y-4.4567
X7.5433Y-4.4961
T2
X4.3944Y-3.9528
X4.4928Y-3.9528
T3
X4.5276Y-3.1496
X4.5276Y-3.2496
X4.5276Y-3.3496
X4.5276Y-3.4496
X4.5276Y-3.5496
X4.6276Y-3.1496
X4.6276Y-3.2496
X4.6276Y-3.3496
X4.6276Y-3.4496
X4.6276Y-3.5496
X4.9213Y-3.1496
X4.9213Y-3.2496
X4.9213Y-3.3496
X4.9213Y-3.4496
X4.9213Y-3.5496
X5.0213Y-3.1496
X5.0213Y-3.2496
X5.0213Y-3.3496
X5.0213Y-3.4496
X5.0213Y-3.5496
X5.315Y-3.1496
X5.315Y-3.2496
X5.315Y-3.3496
X5.315Y-3.4496
X5.315Y-3.5496
X5.415Y-3.1496
X5.415Y-3.2496
X5.415Y-3.3496
X5.415Y-3.4496
X5.415Y-3.5496
X5.7087Y-3.1496
X5.7087Y-3.2496
X5.7087Y-3.3496
X5.7087Y-3.4496
X5.7087Y-3.5496
X5.7087Y-3.6496
X5.7087Y-3.7496
X5.7087Y-3.8496
X5.8087Y-3.1496
X5.8087Y-3.2496
X5.8087Y-3.3496
X5.8087Y-3.4496
X5.8087Y-3.5496
X5.8087Y-3.6496
X5.8087Y-3.7496
X5.8087Y-3.8496
X6.1024Y-3.1496
X6.1024Y-3.2496
X6.1024Y-3.3496
X6.1024Y-3.4496
X6.1024Y-3.5496
X6.1024Y-3.6496
X6.1024Y-3.7496
X6.1024Y-3.8496
X6.2024Y-3.1496
X6.2024Y-3.2496
X6.2024Y-3.3496
X6.2024Y-3.4496
X6.2024Y-3.5496
X6.2024Y-3.6496
X6.2024Y-3.7496
X6.2024Y-3.8496
X6.4961Y-3.1496
X6.4961Y-3.2496
X6.4961Y-3.3496
X6.4961Y-3.4496
X6.4961Y-3.5496
X6.4961Y-3.6496
X6.4961Y-3.7496
X6.4961Y-3.8496
X6.5961Y-3.1496
X6.5961Y-3.2496
X6.5961Y-3.3496
X6.5961Y-3.4496
X6.5961Y-3.5496
X6.5961Y-3.6496
X6.5961Y-3.7496
X6.5961Y-3.8496
X6.8898Y-3.1496
X6.8898Y-3.2496
X6.8898Y-3.3496
X6.8898Y-3.4496
X6.8898Y-3.5496
X6.8898Y-3.6496
X6.8898Y-3.7496
X6.8898Y-3.8496
X6.9898Y-3.1496
X6.9898Y-3.2496
X6.9898Y-3.3496
X6.9898Y-3.4496
X6.9898Y-3.5496
X6.9898Y-3.6496
X6.9898Y-3.7496
X6.9898Y-3.8496
X7.2835Y-3.1496
X7.2835Y-3.2496
X7.2835Y-3.3496
X7.2835Y-3.4496
X7.2835Y-3.5496
X7.2835Y-3.6496
X7.2835Y-3.7496
X7.2835Y-3.8496
X7.3835Y-3.1496
X7.3835Y-3.2496
X7.3835Y-3.3496
X7.3835Y-3.4496
X7.3835Y-3.5496
X7.3835Y-3.6496
X7.3835Y-3.7496
X7.3835Y-3.8496
X7.6772Y-3.4496
X7.6772Y-3.5496
X7.6772Y-3.6496
X7.6772Y-3.7496
X7.6772Y-3.8496
X7.7772Y-3.4496
X7.7772Y-3.5496
X7.7772Y-3.6496
X7.7772Y-3.7496
X7.7772Y-3.8496
T4
X6.0327Y-4.215
X6.0327Y-4.315
X6.0327Y-4.415
X6.8031Y-4.2126
X6.8031Y-4.3126
X6.8031Y-4.4126
T5
X4.1181Y-3.878
X4.1181Y-4.0157
X4.122Y-3.4941
X4.122Y-3.6319
T6
X4.0945Y-3.1102
X4.0945Y-4.3701
X7.7165Y-3.1102
X7.7165Y-4.3701
M30
