%TF.GenerationSoftware,KiCad,Pcbnew,8.0.0*%
%TF.CreationDate,2024-09-10T09:18:46-07:00*%
%TF.ProjectId,power_v2,706f7765-725f-4763-922e-6b696361645f,rev?*%
%TF.SameCoordinates,Original*%
%TF.FileFunction,Soldermask,Bot*%
%TF.FilePolarity,Negative*%
%FSLAX46Y46*%
G04 Gerber Fmt 4.6, Leading zero omitted, Abs format (unit mm)*
G04 Created by KiCad (PCBNEW 8.0.0) date 2024-09-10 09:18:46*
%MOMM*%
%LPD*%
G01*
G04 APERTURE LIST*
%ADD10R,1.700000X1.700000*%
%ADD11O,1.700000X1.700000*%
%ADD12O,3.500000X3.500000*%
%ADD13R,2.000000X1.905000*%
%ADD14O,2.000000X1.905000*%
%ADD15C,6.400000*%
%ADD16R,1.600000X1.600000*%
%ADD17C,1.600000*%
%ADD18R,2.400000X2.400000*%
%ADD19C,2.400000*%
G04 APERTURE END LIST*
D10*
%TO.C,J7*%
X145000000Y-80000000D03*
D11*
X147540000Y-80000000D03*
X145000000Y-82540000D03*
X147540000Y-82540000D03*
X145000000Y-85080000D03*
X147540000Y-85080000D03*
X145000000Y-87620000D03*
X147540000Y-87620000D03*
X145000000Y-90160000D03*
X147540000Y-90160000D03*
X145000000Y-92700000D03*
X147540000Y-92700000D03*
X145000000Y-95240000D03*
X147540000Y-95240000D03*
X145000000Y-97780000D03*
X147540000Y-97780000D03*
%TD*%
D12*
%TO.C,U3*%
X136570000Y-109600000D03*
D13*
X153230000Y-112140000D03*
D14*
X153230000Y-109600000D03*
X153230000Y-107060000D03*
%TD*%
D15*
%TO.C,H1*%
X104000000Y-79000000D03*
%TD*%
D16*
%TO.C,C3*%
X111617621Y-100400000D03*
D17*
X114117621Y-100400000D03*
%TD*%
D18*
%TO.C,J4*%
X104600000Y-98500000D03*
D19*
X104600000Y-102000000D03*
%TD*%
D15*
%TO.C,H4*%
X196000000Y-111000000D03*
%TD*%
D10*
%TO.C,J9*%
X155000000Y-80000000D03*
D11*
X157540000Y-80000000D03*
X155000000Y-82540000D03*
X157540000Y-82540000D03*
X155000000Y-85080000D03*
X157540000Y-85080000D03*
X155000000Y-87620000D03*
X157540000Y-87620000D03*
X155000000Y-90160000D03*
X157540000Y-90160000D03*
X155000000Y-92700000D03*
X157540000Y-92700000D03*
X155000000Y-95240000D03*
X157540000Y-95240000D03*
X155000000Y-97780000D03*
X157540000Y-97780000D03*
%TD*%
D10*
%TO.C,J11*%
X165000000Y-80000000D03*
D11*
X167540000Y-80000000D03*
X165000000Y-82540000D03*
X167540000Y-82540000D03*
X165000000Y-85080000D03*
X167540000Y-85080000D03*
X165000000Y-87620000D03*
X167540000Y-87620000D03*
X165000000Y-90160000D03*
X167540000Y-90160000D03*
X165000000Y-92700000D03*
X167540000Y-92700000D03*
X165000000Y-95240000D03*
X167540000Y-95240000D03*
X165000000Y-97780000D03*
X167540000Y-97780000D03*
%TD*%
D10*
%TO.C,J10*%
X125000000Y-80000000D03*
D11*
X127540000Y-80000000D03*
X125000000Y-82540000D03*
X127540000Y-82540000D03*
X125000000Y-85080000D03*
X127540000Y-85080000D03*
X125000000Y-87620000D03*
X127540000Y-87620000D03*
X125000000Y-90160000D03*
X127540000Y-90160000D03*
%TD*%
D10*
%TO.C,J12*%
X115000000Y-80000000D03*
D11*
X117540000Y-80000000D03*
X115000000Y-82540000D03*
X117540000Y-82540000D03*
X115000000Y-85080000D03*
X117540000Y-85080000D03*
X115000000Y-87620000D03*
X117540000Y-87620000D03*
X115000000Y-90160000D03*
X117540000Y-90160000D03*
%TD*%
D10*
%TO.C,J8*%
X195000000Y-87620000D03*
D11*
X197540000Y-87620000D03*
X195000000Y-90160000D03*
X197540000Y-90160000D03*
X195000000Y-92700000D03*
X197540000Y-92700000D03*
X195000000Y-95240000D03*
X197540000Y-95240000D03*
X195000000Y-97780000D03*
X197540000Y-97780000D03*
%TD*%
D12*
%TO.C,U2*%
X189460000Y-109540000D03*
D13*
X172800000Y-107000000D03*
D14*
X172800000Y-109540000D03*
X172800000Y-112080000D03*
%TD*%
D18*
%TO.C,J5*%
X104700000Y-88750000D03*
D19*
X104700000Y-92250000D03*
%TD*%
D15*
%TO.C,H3*%
X196000000Y-79000000D03*
%TD*%
D10*
%TO.C,J15*%
X185000000Y-80000000D03*
D11*
X187540000Y-80000000D03*
X185000000Y-82540000D03*
X187540000Y-82540000D03*
X185000000Y-85080000D03*
X187540000Y-85080000D03*
X185000000Y-87620000D03*
X187540000Y-87620000D03*
X185000000Y-90160000D03*
X187540000Y-90160000D03*
X185000000Y-92700000D03*
X187540000Y-92700000D03*
X185000000Y-95240000D03*
X187540000Y-95240000D03*
X185000000Y-97780000D03*
X187540000Y-97780000D03*
%TD*%
D10*
%TO.C,J13*%
X175000000Y-80000000D03*
D11*
X177540000Y-80000000D03*
X175000000Y-82540000D03*
X177540000Y-82540000D03*
X175000000Y-85080000D03*
X177540000Y-85080000D03*
X175000000Y-87620000D03*
X177540000Y-87620000D03*
X175000000Y-90160000D03*
X177540000Y-90160000D03*
X175000000Y-92700000D03*
X177540000Y-92700000D03*
X175000000Y-95240000D03*
X177540000Y-95240000D03*
X175000000Y-97780000D03*
X177540000Y-97780000D03*
%TD*%
D15*
%TO.C,H2*%
X104000000Y-111000000D03*
%TD*%
D10*
%TO.C,J14*%
X135000000Y-80000000D03*
D11*
X137540000Y-80000000D03*
X135000000Y-82540000D03*
X137540000Y-82540000D03*
X135000000Y-85080000D03*
X137540000Y-85080000D03*
X135000000Y-87620000D03*
X137540000Y-87620000D03*
X135000000Y-90160000D03*
X137540000Y-90160000D03*
%TD*%
M02*
