%TF.GenerationSoftware,KiCad,Pcbnew,8.0.0*%
%TF.CreationDate,2024-09-10T09:18:46-07:00*%
%TF.ProjectId,power_v2,706f7765-725f-4763-922e-6b696361645f,rev?*%
%TF.SameCoordinates,Original*%
%TF.FileFunction,Paste,Top*%
%TF.FilePolarity,Positive*%
%FSLAX46Y46*%
G04 Gerber Fmt 4.6, Leading zero omitted, Abs format (unit mm)*
G04 Created by KiCad (PCBNEW 8.0.0) date 2024-09-10 09:18:46*
%MOMM*%
%LPD*%
G01*
G04 APERTURE LIST*
G04 Aperture macros list*
%AMRoundRect*
0 Rectangle with rounded corners*
0 $1 Rounding radius*
0 $2 $3 $4 $5 $6 $7 $8 $9 X,Y pos of 4 corners*
0 Add a 4 corners polygon primitive as box body*
4,1,4,$2,$3,$4,$5,$6,$7,$8,$9,$2,$3,0*
0 Add four circle primitives for the rounded corners*
1,1,$1+$1,$2,$3*
1,1,$1+$1,$4,$5*
1,1,$1+$1,$6,$7*
1,1,$1+$1,$8,$9*
0 Add four rect primitives between the rounded corners*
20,1,$1+$1,$2,$3,$4,$5,0*
20,1,$1+$1,$4,$5,$6,$7,0*
20,1,$1+$1,$6,$7,$8,$9,0*
20,1,$1+$1,$8,$9,$2,$3,0*%
G04 Aperture macros list end*
%ADD10RoundRect,0.225000X0.250000X-0.225000X0.250000X0.225000X-0.250000X0.225000X-0.250000X-0.225000X0*%
%ADD11R,4.950000X3.175000*%
%ADD12RoundRect,0.250000X0.412500X1.100000X-0.412500X1.100000X-0.412500X-1.100000X0.412500X-1.100000X0*%
%ADD13RoundRect,0.237500X-0.237500X0.287500X-0.237500X-0.287500X0.237500X-0.287500X0.237500X0.287500X0*%
%ADD14RoundRect,0.225000X0.375000X-0.225000X0.375000X0.225000X-0.375000X0.225000X-0.375000X-0.225000X0*%
%ADD15RoundRect,0.237500X-0.250000X-0.237500X0.250000X-0.237500X0.250000X0.237500X-0.250000X0.237500X0*%
%ADD16RoundRect,0.250000X-1.100000X0.412500X-1.100000X-0.412500X1.100000X-0.412500X1.100000X0.412500X0*%
%ADD17RoundRect,0.230000X-0.230000X-0.375000X0.230000X-0.375000X0.230000X0.375000X-0.230000X0.375000X0*%
%ADD18RoundRect,0.150000X-0.825000X-0.150000X0.825000X-0.150000X0.825000X0.150000X-0.825000X0.150000X0*%
%ADD19RoundRect,0.237500X0.237500X-0.287500X0.237500X0.287500X-0.237500X0.287500X-0.237500X-0.287500X0*%
%ADD20RoundRect,0.237500X-0.237500X0.250000X-0.237500X-0.250000X0.237500X-0.250000X0.237500X0.250000X0*%
%ADD21RoundRect,0.237500X0.237500X-0.250000X0.237500X0.250000X-0.237500X0.250000X-0.237500X-0.250000X0*%
%ADD22RoundRect,0.250000X1.100000X-0.412500X1.100000X0.412500X-1.100000X0.412500X-1.100000X-0.412500X0*%
%ADD23RoundRect,0.225000X-0.375000X0.225000X-0.375000X-0.225000X0.375000X-0.225000X0.375000X0.225000X0*%
%ADD24RoundRect,0.225000X0.225000X0.250000X-0.225000X0.250000X-0.225000X-0.250000X0.225000X-0.250000X0*%
%ADD25RoundRect,0.225000X-0.250000X0.225000X-0.250000X-0.225000X0.250000X-0.225000X0.250000X0.225000X0*%
G04 APERTURE END LIST*
D10*
%TO.C,C5*%
X123500000Y-110675000D03*
X123500000Y-109125000D03*
%TD*%
D11*
%TO.C,L3*%
X122000000Y-106307500D03*
X122000000Y-97292500D03*
%TD*%
D12*
%TO.C,C12*%
X131962500Y-109600000D03*
X128837500Y-109600000D03*
%TD*%
D10*
%TO.C,C6*%
X127000000Y-110775000D03*
X127000000Y-109225000D03*
%TD*%
D13*
%TO.C,D6*%
X108800000Y-79747500D03*
X108800000Y-81497500D03*
%TD*%
D14*
%TO.C,D3*%
X170200000Y-108450000D03*
X170200000Y-105150000D03*
%TD*%
D12*
%TO.C,C18*%
X162162500Y-112800000D03*
X159037500Y-112800000D03*
%TD*%
D15*
%TO.C,R4*%
X123487500Y-113000000D03*
X125312500Y-113000000D03*
%TD*%
D16*
%TO.C,C7*%
X133200000Y-96637500D03*
X133200000Y-99762500D03*
%TD*%
D12*
%TO.C,C13*%
X131962500Y-113000000D03*
X128837500Y-113000000D03*
%TD*%
D17*
%TO.C,U1*%
X118230000Y-110350000D03*
X118230000Y-111850000D03*
X119370000Y-110350000D03*
X119370000Y-111850000D03*
D18*
X116325000Y-109195000D03*
X116325000Y-110465000D03*
X116325000Y-111735000D03*
X116325000Y-113005000D03*
X121275000Y-113005000D03*
X121275000Y-111735000D03*
X121275000Y-110465000D03*
X121275000Y-109195000D03*
%TD*%
D16*
%TO.C,C4*%
X111000000Y-110437500D03*
X111000000Y-113562500D03*
%TD*%
D19*
%TO.C,D1*%
X111000000Y-81475000D03*
X111000000Y-79725000D03*
%TD*%
D14*
%TO.C,D2*%
X156200000Y-113450000D03*
X156200000Y-110150000D03*
%TD*%
D12*
%TO.C,C20*%
X162162500Y-105800000D03*
X159037500Y-105800000D03*
%TD*%
D14*
%TO.C,D5*%
X170200000Y-113450000D03*
X170200000Y-110150000D03*
%TD*%
D20*
%TO.C,R5*%
X111000000Y-83487500D03*
X111000000Y-85312500D03*
%TD*%
D21*
%TO.C,R3*%
X125287500Y-110912500D03*
X125287500Y-109087500D03*
%TD*%
D22*
%TO.C,C1*%
X111000000Y-108362500D03*
X111000000Y-105237500D03*
%TD*%
D20*
%TO.C,R6*%
X108800000Y-83487500D03*
X108800000Y-85312500D03*
%TD*%
D23*
%TO.C,D4*%
X156177500Y-105150000D03*
X156177500Y-108450000D03*
%TD*%
D12*
%TO.C,C17*%
X167562500Y-105800000D03*
X164437500Y-105800000D03*
%TD*%
D24*
%TO.C,C15*%
X166775000Y-109200000D03*
X165225000Y-109200000D03*
%TD*%
D16*
%TO.C,C11*%
X136800000Y-96637500D03*
X136800000Y-99762500D03*
%TD*%
D12*
%TO.C,C19*%
X167762500Y-112800000D03*
X164637500Y-112800000D03*
%TD*%
D24*
%TO.C,C16*%
X161175000Y-109400000D03*
X159625000Y-109400000D03*
%TD*%
D12*
%TO.C,C10*%
X131962500Y-106200000D03*
X128837500Y-106200000D03*
%TD*%
D16*
%TO.C,C9*%
X129600000Y-96637500D03*
X129600000Y-99762500D03*
%TD*%
D12*
%TO.C,C8*%
X131962500Y-102800000D03*
X128837500Y-102800000D03*
%TD*%
D20*
%TO.C,R2*%
X114100000Y-111987500D03*
X114100000Y-113812500D03*
%TD*%
D25*
%TO.C,C2*%
X114100000Y-108725000D03*
X114100000Y-110275000D03*
%TD*%
M02*
