%TF.GenerationSoftware,KiCad,Pcbnew,8.0.0*%
%TF.CreationDate,2024-07-13T20:07:24-07:00*%
%TF.ProjectId,midi-controller,6d696469-2d63-46f6-9e74-726f6c6c6572,rev?*%
%TF.SameCoordinates,Original*%
%TF.FileFunction,Copper,L1,Top*%
%TF.FilePolarity,Positive*%
%FSLAX46Y46*%
G04 Gerber Fmt 4.6, Leading zero omitted, Abs format (unit mm)*
G04 Created by KiCad (PCBNEW 8.0.0) date 2024-07-13 20:07:24*
%MOMM*%
%LPD*%
G01*
G04 APERTURE LIST*
G04 Aperture macros list*
%AMRoundRect*
0 Rectangle with rounded corners*
0 $1 Rounding radius*
0 $2 $3 $4 $5 $6 $7 $8 $9 X,Y pos of 4 corners*
0 Add a 4 corners polygon primitive as box body*
4,1,4,$2,$3,$4,$5,$6,$7,$8,$9,$2,$3,0*
0 Add four circle primitives for the rounded corners*
1,1,$1+$1,$2,$3*
1,1,$1+$1,$4,$5*
1,1,$1+$1,$6,$7*
1,1,$1+$1,$8,$9*
0 Add four rect primitives between the rounded corners*
20,1,$1+$1,$2,$3,$4,$5,0*
20,1,$1+$1,$4,$5,$6,$7,0*
20,1,$1+$1,$6,$7,$8,$9,0*
20,1,$1+$1,$8,$9,$2,$3,0*%
G04 Aperture macros list end*
%TA.AperFunction,ComponentPad*%
%ADD10C,3.200000*%
%TD*%
%TA.AperFunction,ComponentPad*%
%ADD11C,6.400000*%
%TD*%
%TA.AperFunction,ComponentPad*%
%ADD12RoundRect,0.250000X-0.600000X-0.725000X0.600000X-0.725000X0.600000X0.725000X-0.600000X0.725000X0*%
%TD*%
%TA.AperFunction,ComponentPad*%
%ADD13O,1.700000X1.950000*%
%TD*%
%TA.AperFunction,SMDPad,CuDef*%
%ADD14RoundRect,0.218750X0.218750X0.256250X-0.218750X0.256250X-0.218750X-0.256250X0.218750X-0.256250X0*%
%TD*%
%TA.AperFunction,SMDPad,CuDef*%
%ADD15RoundRect,0.150000X-0.825000X-0.150000X0.825000X-0.150000X0.825000X0.150000X-0.825000X0.150000X0*%
%TD*%
%TA.AperFunction,SMDPad,CuDef*%
%ADD16R,1.300000X0.800000*%
%TD*%
%TA.AperFunction,SMDPad,CuDef*%
%ADD17RoundRect,0.125000X-0.625000X-0.125000X0.625000X-0.125000X0.625000X0.125000X-0.625000X0.125000X0*%
%TD*%
%TA.AperFunction,SMDPad,CuDef*%
%ADD18RoundRect,0.125000X-0.125000X-0.625000X0.125000X-0.625000X0.125000X0.625000X-0.125000X0.625000X0*%
%TD*%
%TA.AperFunction,ComponentPad*%
%ADD19R,2.000000X2.000000*%
%TD*%
%TA.AperFunction,ComponentPad*%
%ADD20C,2.000000*%
%TD*%
%TA.AperFunction,ComponentPad*%
%ADD21R,3.200000X2.000000*%
%TD*%
%TA.AperFunction,SMDPad,CuDef*%
%ADD22RoundRect,0.200000X0.275000X-0.200000X0.275000X0.200000X-0.275000X0.200000X-0.275000X-0.200000X0*%
%TD*%
%TA.AperFunction,SMDPad,CuDef*%
%ADD23RoundRect,0.200000X-0.275000X0.200000X-0.275000X-0.200000X0.275000X-0.200000X0.275000X0.200000X0*%
%TD*%
%TA.AperFunction,SMDPad,CuDef*%
%ADD24RoundRect,0.200000X0.200000X0.275000X-0.200000X0.275000X-0.200000X-0.275000X0.200000X-0.275000X0*%
%TD*%
%TA.AperFunction,SMDPad,CuDef*%
%ADD25RoundRect,0.200000X-0.200000X-0.275000X0.200000X-0.275000X0.200000X0.275000X-0.200000X0.275000X0*%
%TD*%
%TA.AperFunction,WasherPad*%
%ADD26C,2.499360*%
%TD*%
%TA.AperFunction,ComponentPad*%
%ADD27C,2.499360*%
%TD*%
%TA.AperFunction,ComponentPad*%
%ADD28R,1.000000X1.000000*%
%TD*%
%TA.AperFunction,ComponentPad*%
%ADD29O,1.000000X1.000000*%
%TD*%
%TA.AperFunction,ComponentPad*%
%ADD30R,1.700000X1.700000*%
%TD*%
%TA.AperFunction,ComponentPad*%
%ADD31O,1.700000X1.700000*%
%TD*%
%TA.AperFunction,SMDPad,CuDef*%
%ADD32RoundRect,0.125000X0.125000X-0.125000X0.125000X0.125000X-0.125000X0.125000X-0.125000X-0.125000X0*%
%TD*%
%TA.AperFunction,SMDPad,CuDef*%
%ADD33RoundRect,0.112500X-0.112500X0.187500X-0.112500X-0.187500X0.112500X-0.187500X0.112500X0.187500X0*%
%TD*%
%TA.AperFunction,SMDPad,CuDef*%
%ADD34RoundRect,0.225000X-0.250000X0.225000X-0.250000X-0.225000X0.250000X-0.225000X0.250000X0.225000X0*%
%TD*%
%TA.AperFunction,SMDPad,CuDef*%
%ADD35RoundRect,0.225000X0.250000X-0.225000X0.250000X0.225000X-0.250000X0.225000X-0.250000X-0.225000X0*%
%TD*%
%TA.AperFunction,SMDPad,CuDef*%
%ADD36RoundRect,0.225000X-0.225000X-0.250000X0.225000X-0.250000X0.225000X0.250000X-0.225000X0.250000X0*%
%TD*%
%TA.AperFunction,SMDPad,CuDef*%
%ADD37RoundRect,0.250000X0.475000X-0.250000X0.475000X0.250000X-0.475000X0.250000X-0.475000X-0.250000X0*%
%TD*%
%TA.AperFunction,SMDPad,CuDef*%
%ADD38RoundRect,0.250000X-0.475000X0.250000X-0.475000X-0.250000X0.475000X-0.250000X0.475000X0.250000X0*%
%TD*%
%TA.AperFunction,SMDPad,CuDef*%
%ADD39RoundRect,0.225000X0.225000X0.250000X-0.225000X0.250000X-0.225000X-0.250000X0.225000X-0.250000X0*%
%TD*%
%TA.AperFunction,SMDPad,CuDef*%
%ADD40RoundRect,0.250000X0.350000X-0.850000X0.350000X0.850000X-0.350000X0.850000X-0.350000X-0.850000X0*%
%TD*%
%TA.AperFunction,SMDPad,CuDef*%
%ADD41RoundRect,0.250000X1.125000X-1.275000X1.125000X1.275000X-1.125000X1.275000X-1.125000X-1.275000X0*%
%TD*%
%TA.AperFunction,SMDPad,CuDef*%
%ADD42RoundRect,0.249997X2.650003X-2.950003X2.650003X2.950003X-2.650003X2.950003X-2.650003X-2.950003X0*%
%TD*%
%TA.AperFunction,ComponentPad*%
%ADD43R,2.000000X1.905000*%
%TD*%
%TA.AperFunction,ComponentPad*%
%ADD44O,2.000000X1.905000*%
%TD*%
%TA.AperFunction,ComponentPad*%
%ADD45C,1.800000*%
%TD*%
%TA.AperFunction,ComponentPad*%
%ADD46R,2.600000X2.600000*%
%TD*%
%TA.AperFunction,ComponentPad*%
%ADD47C,2.600000*%
%TD*%
%TA.AperFunction,ComponentPad*%
%ADD48R,1.600000X1.600000*%
%TD*%
%TA.AperFunction,ComponentPad*%
%ADD49C,1.600000*%
%TD*%
%TA.AperFunction,ViaPad*%
%ADD50C,0.600000*%
%TD*%
%TA.AperFunction,Conductor*%
%ADD51C,0.250000*%
%TD*%
%TA.AperFunction,Conductor*%
%ADD52C,2.500000*%
%TD*%
%TA.AperFunction,Conductor*%
%ADD53C,1.250000*%
%TD*%
G04 APERTURE END LIST*
D10*
%TO.P,SW2,1,A*%
%TO.N,Net-(SW2-A)*%
X117425000Y-78100000D03*
%TO.P,SW2,2,B*%
%TO.N,Net-(SW2-B)*%
X117425000Y-85100000D03*
%TD*%
D11*
%TO.P,H4,1*%
%TO.N,N/C*%
X196600000Y-125800000D03*
%TD*%
%TO.P,H3,1*%
%TO.N,N/C*%
X106600000Y-125800000D03*
%TD*%
%TO.P,H2,1*%
%TO.N,N/C*%
X197000000Y-55800000D03*
%TD*%
%TO.P,H1,1*%
%TO.N,N/C*%
X106600000Y-55800000D03*
%TD*%
D12*
%TO.P,J5,1,Pin_1*%
%TO.N,/CLK2_OUT*%
X124000000Y-125475000D03*
D13*
%TO.P,J5,2,Pin_2*%
%TO.N,/MOD2_OUT*%
X126500000Y-125475000D03*
%TO.P,J5,3,Pin_3*%
%TO.N,/GATE2_OUT*%
X129000000Y-125475000D03*
%TO.P,J5,4,Pin_4*%
%TO.N,/CV2_OUT*%
X131500000Y-125475000D03*
%TO.P,J5,5,Pin_5*%
%TO.N,GND*%
X134000000Y-125475000D03*
%TD*%
D12*
%TO.P,J4,1,Pin_1*%
%TO.N,/CLK1_OUT*%
X140000000Y-125475000D03*
D13*
%TO.P,J4,2,Pin_2*%
%TO.N,/MOD1_OUT*%
X142500000Y-125475000D03*
%TO.P,J4,3,Pin_3*%
%TO.N,/GATE1_OUT*%
X145000000Y-125475000D03*
%TO.P,J4,4,Pin_4*%
%TO.N,/CV1_OUT*%
X147500000Y-125475000D03*
%TO.P,J4,5,Pin_5*%
%TO.N,GND*%
X150000000Y-125475000D03*
%TD*%
D14*
%TO.P,D3,1,K*%
%TO.N,Net-(D3-K)*%
X124947500Y-81800000D03*
%TO.P,D3,2,A*%
%TO.N,/LED_2*%
X123372500Y-81800000D03*
%TD*%
%TO.P,D2,1,K*%
%TO.N,Net-(D2-K)*%
X124947500Y-84000000D03*
%TO.P,D2,2,A*%
%TO.N,/LED_1*%
X123372500Y-84000000D03*
%TD*%
D15*
%TO.P,U3,1*%
%TO.N,Net-(C13-Pad2)*%
X136025000Y-102490000D03*
%TO.P,U3,2,-*%
%TO.N,Net-(U3A--)*%
X136025000Y-103760000D03*
%TO.P,U3,3,+*%
%TO.N,Net-(U3A-+)*%
X136025000Y-105030000D03*
%TO.P,U3,4,V+*%
%TO.N,+12V*%
X136025000Y-106300000D03*
%TO.P,U3,5,+*%
%TO.N,Net-(U3B-+)*%
X136025000Y-107570000D03*
%TO.P,U3,6,-*%
%TO.N,Net-(U3B--)*%
X136025000Y-108840000D03*
%TO.P,U3,7*%
%TO.N,Net-(C14-Pad2)*%
X136025000Y-110110000D03*
%TO.P,U3,8*%
%TO.N,Net-(C12-Pad2)*%
X140975000Y-110110000D03*
%TO.P,U3,9,-*%
%TO.N,Net-(U3C--)*%
X140975000Y-108840000D03*
%TO.P,U3,10,+*%
%TO.N,Net-(U3C-+)*%
X140975000Y-107570000D03*
%TO.P,U3,11,V-*%
%TO.N,-12V*%
X140975000Y-106300000D03*
%TO.P,U3,12,+*%
%TO.N,Net-(U3D-+)*%
X140975000Y-105030000D03*
%TO.P,U3,13,-*%
%TO.N,Net-(U3D--)*%
X140975000Y-103760000D03*
%TO.P,U3,14*%
%TO.N,Net-(C11-Pad2)*%
X140975000Y-102490000D03*
%TD*%
D16*
%TO.P,U2,1,A*%
%TO.N,Net-(D1-K)*%
X106850000Y-96530000D03*
%TO.P,U2,2,NC*%
%TO.N,unconnected-(U2-NC-Pad2)*%
X106850000Y-97800000D03*
%TO.P,U2,3,K*%
%TO.N,Net-(D1-A)*%
X106850000Y-99070000D03*
%TO.P,U2,4,GND*%
%TO.N,GND*%
X116350000Y-99070000D03*
%TO.P,U2,5,VO*%
%TO.N,/MIDI_RX*%
X116350000Y-97800000D03*
%TO.P,U2,6,VDD*%
%TO.N,+3.3V*%
X116350000Y-96530000D03*
%TD*%
D17*
%TO.P,U1,1,VDD*%
%TO.N,+3.3V*%
X134825000Y-82200000D03*
%TO.P,U1,2,PF0*%
%TO.N,unconnected-(U1-PF0-Pad2)*%
X134825000Y-83000000D03*
%TO.P,U1,3,PF1*%
%TO.N,unconnected-(U1-PF1-Pad3)*%
X134825000Y-83800000D03*
%TO.P,U1,4,PG10*%
%TO.N,/NRST*%
X134825000Y-84600000D03*
%TO.P,U1,5,PA0*%
%TO.N,/MOD1*%
X134825000Y-85400000D03*
%TO.P,U1,6,PA1*%
%TO.N,/MOD2*%
X134825000Y-86200000D03*
%TO.P,U1,7,PA2*%
%TO.N,/MIDI_TX*%
X134825000Y-87000000D03*
%TO.P,U1,8,PA3*%
%TO.N,/MIDI_RX*%
X134825000Y-87800000D03*
D18*
%TO.P,U1,9,PA4*%
%TO.N,/CV1*%
X136200000Y-89175000D03*
%TO.P,U1,10,PA5*%
%TO.N,/CV2*%
X137000000Y-89175000D03*
%TO.P,U1,11,PA6*%
%TO.N,/GATE2*%
X137800000Y-89175000D03*
%TO.P,U1,12,PA7*%
%TO.N,/GATE1*%
X138600000Y-89175000D03*
%TO.P,U1,13,PB0*%
%TO.N,/ENC_BTN*%
X139400000Y-89175000D03*
%TO.P,U1,14,VSSA*%
%TO.N,GND*%
X140200000Y-89175000D03*
%TO.P,U1,15,VDDA*%
%TO.N,+3.3V*%
X141000000Y-89175000D03*
%TO.P,U1,16,VSS*%
%TO.N,GND*%
X141800000Y-89175000D03*
D17*
%TO.P,U1,17,VDD*%
%TO.N,+3.3V*%
X143175000Y-87800000D03*
%TO.P,U1,18,PA8*%
%TO.N,/I2C_DAT*%
X143175000Y-87000000D03*
%TO.P,U1,19,PA9*%
%TO.N,/I2C_CLK*%
X143175000Y-86200000D03*
%TO.P,U1,20,PA10*%
%TO.N,/CLK1*%
X143175000Y-85400000D03*
%TO.P,U1,21,PA11*%
%TO.N,/CLK2*%
X143175000Y-84600000D03*
%TO.P,U1,22,PA12*%
%TO.N,unconnected-(U1-PA12-Pad22)*%
X143175000Y-83800000D03*
%TO.P,U1,23,PA13*%
%TO.N,/SWIO*%
X143175000Y-83000000D03*
%TO.P,U1,24,PA14*%
%TO.N,/SWCLK*%
X143175000Y-82200000D03*
D18*
%TO.P,U1,25,PA15*%
%TO.N,unconnected-(U1-PA15-Pad25)*%
X141800000Y-80825000D03*
%TO.P,U1,26,PB3*%
%TO.N,unconnected-(U1-PB3-Pad26)*%
X141000000Y-80825000D03*
%TO.P,U1,27,PB4*%
%TO.N,unconnected-(U1-PB4-Pad27)*%
X140200000Y-80825000D03*
%TO.P,U1,28,PB5*%
%TO.N,/ENC_A*%
X139400000Y-80825000D03*
%TO.P,U1,29,PB6*%
%TO.N,/ENC_B*%
X138600000Y-80825000D03*
%TO.P,U1,30,PB7*%
%TO.N,/LED_1*%
X137800000Y-80825000D03*
%TO.P,U1,31,PB8*%
%TO.N,/LED_2*%
X137000000Y-80825000D03*
%TO.P,U1,32,VSS*%
%TO.N,GND*%
X136200000Y-80825000D03*
%TD*%
D19*
%TO.P,SW1,A,A*%
%TO.N,/ENC_A*%
X158550000Y-78300000D03*
D20*
%TO.P,SW1,B,B*%
%TO.N,/ENC_B*%
X158550000Y-83300000D03*
%TO.P,SW1,C,C*%
%TO.N,GND*%
X158550000Y-80800000D03*
D21*
%TO.P,SW1,MP*%
%TO.N,N/C*%
X166050000Y-75200000D03*
X166050000Y-86400000D03*
D20*
%TO.P,SW1,S1,S1*%
%TO.N,/ENC_BTN*%
X173050000Y-83300000D03*
%TO.P,SW1,S2,S2*%
%TO.N,GND*%
X173050000Y-78300000D03*
%TD*%
D22*
%TO.P,R31,1*%
%TO.N,/CLK1_OUT*%
X139000000Y-119325000D03*
%TO.P,R31,2*%
%TO.N,/CLK1*%
X139000000Y-117675000D03*
%TD*%
%TO.P,R30,1*%
%TO.N,/GATE2_OUT*%
X131000000Y-119325000D03*
%TO.P,R30,2*%
%TO.N,/GATE2*%
X131000000Y-117675000D03*
%TD*%
%TO.P,R29,1*%
%TO.N,/GATE1_OUT*%
X146000000Y-119325000D03*
%TO.P,R29,2*%
%TO.N,/GATE1*%
X146000000Y-117675000D03*
%TD*%
D23*
%TO.P,R27,1*%
%TO.N,/CV2_OUT*%
X128600000Y-108775000D03*
%TO.P,R27,2*%
%TO.N,Net-(C14-Pad2)*%
X128600000Y-110425000D03*
%TD*%
D22*
%TO.P,R26,1*%
%TO.N,/CV1_OUT*%
X128600000Y-104025000D03*
%TO.P,R26,2*%
%TO.N,Net-(C13-Pad2)*%
X128600000Y-102375000D03*
%TD*%
D24*
%TO.P,R25,1*%
%TO.N,/MOD1_OUT*%
X148425000Y-110800000D03*
%TO.P,R25,2*%
%TO.N,Net-(C12-Pad2)*%
X146775000Y-110800000D03*
%TD*%
D25*
%TO.P,R23,1*%
%TO.N,/CV2_OUT*%
X130375000Y-108800000D03*
%TO.P,R23,2*%
%TO.N,Net-(U3B--)*%
X132025000Y-108800000D03*
%TD*%
%TO.P,R22,1*%
%TO.N,/CV1_OUT*%
X130375000Y-104000000D03*
%TO.P,R22,2*%
%TO.N,Net-(U3A--)*%
X132025000Y-104000000D03*
%TD*%
D24*
%TO.P,R21,1*%
%TO.N,/MOD1_OUT*%
X148425000Y-109000000D03*
%TO.P,R21,2*%
%TO.N,Net-(U3C--)*%
X146775000Y-109000000D03*
%TD*%
%TO.P,R19,1*%
%TO.N,Net-(U3B--)*%
X132025000Y-110400000D03*
%TO.P,R19,2*%
%TO.N,GND*%
X130375000Y-110400000D03*
%TD*%
%TO.P,R18,1*%
%TO.N,Net-(U3A--)*%
X132025000Y-102400000D03*
%TO.P,R18,2*%
%TO.N,GND*%
X130375000Y-102400000D03*
%TD*%
D25*
%TO.P,R17,1*%
%TO.N,Net-(U3C--)*%
X150575000Y-109000000D03*
%TO.P,R17,2*%
%TO.N,GND*%
X152225000Y-109000000D03*
%TD*%
%TO.P,R15,1*%
%TO.N,Net-(U3C-+)*%
X146775000Y-107200000D03*
%TO.P,R15,2*%
%TO.N,Net-(C10-Pad1)*%
X148425000Y-107200000D03*
%TD*%
%TO.P,R13,1*%
%TO.N,Net-(C10-Pad1)*%
X150575000Y-107200000D03*
%TO.P,R13,2*%
%TO.N,/MOD1*%
X152225000Y-107200000D03*
%TD*%
D24*
%TO.P,R12,1*%
%TO.N,Net-(U3B-+)*%
X130225000Y-107200000D03*
%TO.P,R12,2*%
%TO.N,/CV2*%
X128575000Y-107200000D03*
%TD*%
%TO.P,R11,1*%
%TO.N,Net-(U3A-+)*%
X130225000Y-105600000D03*
%TO.P,R11,2*%
%TO.N,/CV1*%
X128575000Y-105600000D03*
%TD*%
%TO.P,R9,1*%
%TO.N,+3.3V*%
X140325000Y-91500000D03*
%TO.P,R9,2*%
%TO.N,/ENC_BTN*%
X138675000Y-91500000D03*
%TD*%
%TO.P,R8,1*%
%TO.N,GND*%
X128425000Y-81800000D03*
%TO.P,R8,2*%
%TO.N,Net-(D3-K)*%
X126775000Y-81800000D03*
%TD*%
%TO.P,R7,1*%
%TO.N,GND*%
X128425000Y-84000000D03*
%TO.P,R7,2*%
%TO.N,Net-(D2-K)*%
X126775000Y-84000000D03*
%TD*%
%TO.P,R6,1*%
%TO.N,+3.3V*%
X147825000Y-82000000D03*
%TO.P,R6,2*%
%TO.N,/SWIO*%
X146175000Y-82000000D03*
%TD*%
D25*
%TO.P,R5,1*%
%TO.N,Net-(D1-K)*%
X118275000Y-98800000D03*
%TO.P,R5,2*%
%TO.N,Net-(J3-Pad4)*%
X119925000Y-98800000D03*
%TD*%
%TO.P,R4,1*%
%TO.N,+3.3V*%
X130575000Y-84000000D03*
%TO.P,R4,2*%
%TO.N,/NRST*%
X132225000Y-84000000D03*
%TD*%
D24*
%TO.P,R3,1*%
%TO.N,+3.3V*%
X147825000Y-84000000D03*
%TO.P,R3,2*%
%TO.N,/I2C_CLK*%
X146175000Y-84000000D03*
%TD*%
%TO.P,R2,1*%
%TO.N,+3.3V*%
X147825000Y-86000000D03*
%TO.P,R2,2*%
%TO.N,/I2C_DAT*%
X146175000Y-86000000D03*
%TD*%
D25*
%TO.P,R1,1*%
%TO.N,+3.3V*%
X146175000Y-80100000D03*
%TO.P,R1,2*%
%TO.N,Net-(J2-VTref)*%
X147825000Y-80100000D03*
%TD*%
D26*
%TO.P,J3,*%
%TO.N,*%
X103602300Y-104798740D03*
X103602300Y-114801260D03*
D27*
%TO.P,J3,1*%
%TO.N,unconnected-(J3-Pad1)*%
X113597200Y-117298080D03*
%TO.P,J3,2*%
%TO.N,unconnected-(J3-Pad2)*%
X113599740Y-109800000D03*
%TO.P,J3,3*%
%TO.N,unconnected-(J3-Pad3)*%
X113597200Y-102301920D03*
%TO.P,J3,4*%
%TO.N,Net-(J3-Pad4)*%
X116099100Y-114796180D03*
%TO.P,J3,5*%
%TO.N,Net-(D1-A)*%
X116099100Y-104803820D03*
%TD*%
D28*
%TO.P,J2,1,VTref*%
%TO.N,Net-(J2-VTref)*%
X151875000Y-79950000D03*
D29*
%TO.P,J2,2,SWDIO/TMS*%
%TO.N,/SWIO*%
X153145000Y-79950000D03*
%TO.P,J2,3,GND*%
%TO.N,GND*%
X151875000Y-81220000D03*
%TO.P,J2,4,SWCLK/TCK*%
%TO.N,/SWCLK*%
X153145000Y-81220000D03*
%TO.P,J2,5,GND*%
%TO.N,GND*%
X151875000Y-82490000D03*
%TO.P,J2,6,SWO/TDO*%
%TO.N,unconnected-(J2-SWO{slash}TDO-Pad6)*%
X153145000Y-82490000D03*
%TO.P,J2,7,KEY*%
%TO.N,unconnected-(J2-KEY-Pad7)*%
X151875000Y-83760000D03*
%TO.P,J2,8,NC/TDI*%
%TO.N,unconnected-(J2-NC{slash}TDI-Pad8)*%
X153145000Y-83760000D03*
%TO.P,J2,9,GNDDetect*%
%TO.N,GND*%
X151875000Y-85030000D03*
%TO.P,J2,10,~{RESET}*%
%TO.N,/NRST*%
X153145000Y-85030000D03*
%TD*%
D30*
%TO.P,J1,1,Pin_1*%
%TO.N,+3.3V*%
X142300000Y-76000000D03*
D31*
%TO.P,J1,2,Pin_2*%
%TO.N,/I2C_DAT*%
X139760000Y-76000000D03*
%TO.P,J1,3,Pin_3*%
%TO.N,/I2C_CLK*%
X137220000Y-76000000D03*
%TO.P,J1,4,Pin_4*%
%TO.N,GND*%
X134680000Y-76000000D03*
%TD*%
D32*
%TO.P,D11,1,K*%
%TO.N,/CLK1*%
X143500000Y-119600000D03*
%TO.P,D11,2,A*%
%TO.N,GND*%
X143500000Y-117400000D03*
%TD*%
%TO.P,D10,1,K*%
%TO.N,+3.3V*%
X141000000Y-119600000D03*
%TO.P,D10,2,A*%
%TO.N,/CLK1*%
X141000000Y-117400000D03*
%TD*%
%TO.P,D9,1,K*%
%TO.N,/GATE2*%
X135500000Y-119600000D03*
%TO.P,D9,2,A*%
%TO.N,GND*%
X135500000Y-117400000D03*
%TD*%
%TO.P,D8,1,K*%
%TO.N,+3.3V*%
X133000000Y-119577500D03*
%TO.P,D8,2,A*%
%TO.N,/GATE2*%
X133000000Y-117377500D03*
%TD*%
%TO.P,D7,1,K*%
%TO.N,/GATE1*%
X151000000Y-119577500D03*
%TO.P,D7,2,A*%
%TO.N,GND*%
X151000000Y-117377500D03*
%TD*%
%TO.P,D6,1,K*%
%TO.N,+3.3V*%
X148477500Y-119577500D03*
%TO.P,D6,2,A*%
%TO.N,/GATE1*%
X148477500Y-117377500D03*
%TD*%
D33*
%TO.P,D1,1,K*%
%TO.N,Net-(D1-K)*%
X104600000Y-96750000D03*
%TO.P,D1,2,A*%
%TO.N,Net-(D1-A)*%
X104600000Y-98850000D03*
%TD*%
D34*
%TO.P,C14,1*%
%TO.N,Net-(U3B--)*%
X133800000Y-108825000D03*
%TO.P,C14,2*%
%TO.N,Net-(C14-Pad2)*%
X133800000Y-110375000D03*
%TD*%
D35*
%TO.P,C13,1*%
%TO.N,Net-(U3A--)*%
X133800000Y-103975000D03*
%TO.P,C13,2*%
%TO.N,Net-(C13-Pad2)*%
X133800000Y-102425000D03*
%TD*%
D36*
%TO.P,C12,1*%
%TO.N,Net-(U3C--)*%
X143225000Y-110200000D03*
%TO.P,C12,2*%
%TO.N,Net-(C12-Pad2)*%
X144775000Y-110200000D03*
%TD*%
D37*
%TO.P,C6,1*%
%TO.N,GND*%
X126600000Y-110350000D03*
%TO.P,C6,2*%
%TO.N,Net-(U3B-+)*%
X126600000Y-108450000D03*
%TD*%
D38*
%TO.P,C5,1*%
%TO.N,GND*%
X126600000Y-102450000D03*
%TO.P,C5,2*%
%TO.N,Net-(U3A-+)*%
X126600000Y-104350000D03*
%TD*%
D36*
%TO.P,C4,1*%
%TO.N,+3.3V*%
X118325000Y-96800000D03*
%TO.P,C4,2*%
%TO.N,GND*%
X119875000Y-96800000D03*
%TD*%
%TO.P,C3,1*%
%TO.N,+3.3V*%
X142225000Y-91500000D03*
%TO.P,C3,2*%
%TO.N,GND*%
X143775000Y-91500000D03*
%TD*%
%TO.P,C2,1*%
%TO.N,+3.3V*%
X146225000Y-88000000D03*
%TO.P,C2,2*%
%TO.N,GND*%
X147775000Y-88000000D03*
%TD*%
D39*
%TO.P,C1,1*%
%TO.N,+3.3V*%
X132175000Y-81800000D03*
%TO.P,C1,2*%
%TO.N,GND*%
X130625000Y-81800000D03*
%TD*%
D40*
%TO.P,U6,1,GND*%
%TO.N,GND*%
X182720000Y-84200000D03*
%TO.P,U6,2,VO*%
%TO.N,+3.3V*%
X185000000Y-84200000D03*
D41*
X183475000Y-79575000D03*
X186525000Y-79575000D03*
D42*
X185000000Y-77900000D03*
D41*
X183475000Y-76225000D03*
X186525000Y-76225000D03*
D40*
%TO.P,U6,3,VI*%
%TO.N,+12V*%
X187280000Y-84200000D03*
%TD*%
D43*
%TO.P,U5,1,GND*%
%TO.N,GND*%
X197555000Y-65960000D03*
D44*
%TO.P,U5,2,VI*%
%TO.N,Net-(U5-VI)*%
X197555000Y-68500000D03*
%TO.P,U5,3,VO*%
%TO.N,-12V*%
X197555000Y-71040000D03*
%TD*%
D43*
%TO.P,U4,1,VI*%
%TO.N,Net-(D12-K)*%
X197555000Y-77960000D03*
D44*
%TO.P,U4,2,GND*%
%TO.N,GND*%
X197555000Y-80500000D03*
%TO.P,U4,3,VO*%
%TO.N,+12V*%
X197555000Y-83040000D03*
%TD*%
D45*
%TO.P,TH2,1*%
%TO.N,GND*%
X121850000Y-53750000D03*
%TO.P,TH2,2*%
%TO.N,Net-(J6-Pad2)*%
X119150000Y-61250000D03*
%TD*%
%TO.P,TH1,1*%
%TO.N,Net-(D13-K)*%
X121850000Y-66750000D03*
%TO.P,TH1,2*%
%TO.N,Net-(SW2-B)*%
X119150000Y-74250000D03*
%TD*%
D22*
%TO.P,R28,1*%
%TO.N,/CLK2_OUT*%
X124500000Y-119325000D03*
%TO.P,R28,2*%
%TO.N,/CLK2*%
X124500000Y-117675000D03*
%TD*%
D24*
%TO.P,R24,1*%
%TO.N,/MOD2_OUT*%
X148425000Y-101800000D03*
%TO.P,R24,2*%
%TO.N,Net-(C11-Pad2)*%
X146775000Y-101800000D03*
%TD*%
%TO.P,R20,1*%
%TO.N,/MOD2_OUT*%
X148425000Y-103600000D03*
%TO.P,R20,2*%
%TO.N,Net-(U3D--)*%
X146775000Y-103600000D03*
%TD*%
D25*
%TO.P,R16,1*%
%TO.N,Net-(U3D--)*%
X150575000Y-103600000D03*
%TO.P,R16,2*%
%TO.N,GND*%
X152225000Y-103600000D03*
%TD*%
%TO.P,R14,1*%
%TO.N,Net-(U3D-+)*%
X146775000Y-105400000D03*
%TO.P,R14,2*%
%TO.N,Net-(C9-Pad1)*%
X148425000Y-105400000D03*
%TD*%
%TO.P,R10,1*%
%TO.N,Net-(C9-Pad1)*%
X150575000Y-105400000D03*
%TO.P,R10,2*%
%TO.N,/MOD2*%
X152225000Y-105400000D03*
%TD*%
D30*
%TO.P,J12,1,Pin_1*%
%TO.N,+12V*%
X188140000Y-126420000D03*
D31*
%TO.P,J12,2,Pin_2*%
X185600000Y-126420000D03*
%TO.P,J12,3,Pin_3*%
%TO.N,GND*%
X188140000Y-123880000D03*
%TO.P,J12,4,Pin_4*%
X185600000Y-123880000D03*
%TO.P,J12,5,Pin_5*%
X188140000Y-121340000D03*
%TO.P,J12,6,Pin_6*%
X185600000Y-121340000D03*
%TO.P,J12,7,Pin_7*%
X188140000Y-118800000D03*
%TO.P,J12,8,Pin_8*%
X185600000Y-118800000D03*
%TO.P,J12,9,Pin_9*%
%TO.N,-12V*%
X188140000Y-116260000D03*
%TO.P,J12,10,Pin_10*%
X185600000Y-116260000D03*
%TD*%
D30*
%TO.P,J11,1,Pin_1*%
%TO.N,+12V*%
X187875000Y-103875000D03*
D31*
%TO.P,J11,2,Pin_2*%
X185335000Y-103875000D03*
%TO.P,J11,3,Pin_3*%
%TO.N,GND*%
X187875000Y-101335000D03*
%TO.P,J11,4,Pin_4*%
X185335000Y-101335000D03*
%TO.P,J11,5,Pin_5*%
X187875000Y-98795000D03*
%TO.P,J11,6,Pin_6*%
X185335000Y-98795000D03*
%TO.P,J11,7,Pin_7*%
X187875000Y-96255000D03*
%TO.P,J11,8,Pin_8*%
X185335000Y-96255000D03*
%TO.P,J11,9,Pin_9*%
%TO.N,-12V*%
X187875000Y-93715000D03*
%TO.P,J11,10,Pin_10*%
X185335000Y-93715000D03*
%TD*%
D30*
%TO.P,J10,1,Pin_1*%
%TO.N,+12V*%
X163875000Y-103875000D03*
D31*
%TO.P,J10,2,Pin_2*%
X161335000Y-103875000D03*
%TO.P,J10,3,Pin_3*%
%TO.N,GND*%
X163875000Y-101335000D03*
%TO.P,J10,4,Pin_4*%
X161335000Y-101335000D03*
%TO.P,J10,5,Pin_5*%
X163875000Y-98795000D03*
%TO.P,J10,6,Pin_6*%
X161335000Y-98795000D03*
%TO.P,J10,7,Pin_7*%
X163875000Y-96255000D03*
%TO.P,J10,8,Pin_8*%
X161335000Y-96255000D03*
%TO.P,J10,9,Pin_9*%
%TO.N,-12V*%
X163875000Y-93715000D03*
%TO.P,J10,10,Pin_10*%
X161335000Y-93715000D03*
%TD*%
D30*
%TO.P,J9,1,Pin_1*%
%TO.N,+12V*%
X176140000Y-103875000D03*
D31*
%TO.P,J9,2,Pin_2*%
X173600000Y-103875000D03*
%TO.P,J9,3,Pin_3*%
%TO.N,GND*%
X176140000Y-101335000D03*
%TO.P,J9,4,Pin_4*%
X173600000Y-101335000D03*
%TO.P,J9,5,Pin_5*%
X176140000Y-98795000D03*
%TO.P,J9,6,Pin_6*%
X173600000Y-98795000D03*
%TO.P,J9,7,Pin_7*%
X176140000Y-96255000D03*
%TO.P,J9,8,Pin_8*%
X173600000Y-96255000D03*
%TO.P,J9,9,Pin_9*%
%TO.N,-12V*%
X176140000Y-93715000D03*
%TO.P,J9,10,Pin_10*%
X173600000Y-93715000D03*
%TD*%
D30*
%TO.P,J8,1,Pin_1*%
%TO.N,+12V*%
X164140000Y-126420000D03*
D31*
%TO.P,J8,2,Pin_2*%
X161600000Y-126420000D03*
%TO.P,J8,3,Pin_3*%
%TO.N,GND*%
X164140000Y-123880000D03*
%TO.P,J8,4,Pin_4*%
X161600000Y-123880000D03*
%TO.P,J8,5,Pin_5*%
X164140000Y-121340000D03*
%TO.P,J8,6,Pin_6*%
X161600000Y-121340000D03*
%TO.P,J8,7,Pin_7*%
X164140000Y-118800000D03*
%TO.P,J8,8,Pin_8*%
X161600000Y-118800000D03*
%TO.P,J8,9,Pin_9*%
%TO.N,-12V*%
X164140000Y-116260000D03*
%TO.P,J8,10,Pin_10*%
X161600000Y-116260000D03*
%TD*%
D30*
%TO.P,J7,1,Pin_1*%
%TO.N,+12V*%
X176140000Y-126420000D03*
D31*
%TO.P,J7,2,Pin_2*%
X173600000Y-126420000D03*
%TO.P,J7,3,Pin_3*%
%TO.N,GND*%
X176140000Y-123880000D03*
%TO.P,J7,4,Pin_4*%
X173600000Y-123880000D03*
%TO.P,J7,5,Pin_5*%
X176140000Y-121340000D03*
%TO.P,J7,6,Pin_6*%
X173600000Y-121340000D03*
%TO.P,J7,7,Pin_7*%
X176140000Y-118800000D03*
%TO.P,J7,8,Pin_8*%
X173600000Y-118800000D03*
%TO.P,J7,9,Pin_9*%
%TO.N,-12V*%
X176140000Y-116260000D03*
%TO.P,J7,10,Pin_10*%
X173600000Y-116260000D03*
%TD*%
D46*
%TO.P,J6,1*%
%TO.N,Net-(SW2-A)*%
X113800000Y-68050000D03*
D47*
%TO.P,J6,2*%
%TO.N,Net-(J6-Pad2)*%
X107800000Y-68050000D03*
%TO.P,J6,3*%
%TO.N,N/C*%
X110800000Y-72750000D03*
%TD*%
D32*
%TO.P,D5,1,K*%
%TO.N,/CLK2*%
X128977500Y-119577500D03*
%TO.P,D5,2,A*%
%TO.N,GND*%
X128977500Y-117377500D03*
%TD*%
%TO.P,D4,1,K*%
%TO.N,+3.3V*%
X126500000Y-119600000D03*
%TO.P,D4,2,A*%
%TO.N,/CLK2*%
X126500000Y-117400000D03*
%TD*%
D48*
%TO.P,C34,1*%
%TO.N,GND*%
X193000000Y-69544887D03*
D49*
%TO.P,C34,2*%
%TO.N,-12V*%
X193000000Y-71544887D03*
%TD*%
D48*
%TO.P,C33,1*%
%TO.N,+12V*%
X193000000Y-82044888D03*
D49*
%TO.P,C33,2*%
%TO.N,GND*%
X193000000Y-84044888D03*
%TD*%
D48*
%TO.P,C32,1*%
%TO.N,+3.3V*%
X177500000Y-76044887D03*
D49*
%TO.P,C32,2*%
%TO.N,GND*%
X177500000Y-78044887D03*
%TD*%
D48*
%TO.P,C29,1*%
%TO.N,+12V*%
X193000000Y-77955113D03*
D49*
%TO.P,C29,2*%
%TO.N,GND*%
X193000000Y-75955113D03*
%TD*%
D19*
%TO.P,C28,1*%
%TO.N,GND*%
X184500000Y-59367677D03*
D20*
%TO.P,C28,2*%
%TO.N,Net-(U5-VI)*%
X184500000Y-54367677D03*
%TD*%
D19*
%TO.P,C27,1*%
%TO.N,Net-(D12-K)*%
X184500000Y-70367677D03*
D20*
%TO.P,C27,2*%
%TO.N,GND*%
X184500000Y-65367677D03*
%TD*%
D39*
%TO.P,C26,1*%
%TO.N,GND*%
X144775000Y-106300000D03*
%TO.P,C26,2*%
%TO.N,-12V*%
X143225000Y-106300000D03*
%TD*%
%TO.P,C25,1*%
%TO.N,+12V*%
X133775000Y-106300000D03*
%TO.P,C25,2*%
%TO.N,GND*%
X132225000Y-106300000D03*
%TD*%
D19*
%TO.P,C24,1*%
%TO.N,GND*%
X173500000Y-59367677D03*
D20*
%TO.P,C24,2*%
%TO.N,Net-(U5-VI)*%
X173500000Y-54367677D03*
%TD*%
D19*
%TO.P,C23,1*%
%TO.N,Net-(D12-K)*%
X173500000Y-70367677D03*
D20*
%TO.P,C23,2*%
%TO.N,GND*%
X173500000Y-65367677D03*
%TD*%
D19*
%TO.P,C22,1*%
%TO.N,GND*%
X162500000Y-59367677D03*
D20*
%TO.P,C22,2*%
%TO.N,Net-(U5-VI)*%
X162500000Y-54367677D03*
%TD*%
D19*
%TO.P,C21,1*%
%TO.N,Net-(D12-K)*%
X162500000Y-70367677D03*
D20*
%TO.P,C21,2*%
%TO.N,GND*%
X162500000Y-65367677D03*
%TD*%
D19*
%TO.P,C20,1*%
%TO.N,GND*%
X151500000Y-59367677D03*
D20*
%TO.P,C20,2*%
%TO.N,Net-(U5-VI)*%
X151500000Y-54367677D03*
%TD*%
D19*
%TO.P,C19,1*%
%TO.N,Net-(D12-K)*%
X151500000Y-70367677D03*
D20*
%TO.P,C19,2*%
%TO.N,GND*%
X151500000Y-65367677D03*
%TD*%
D19*
%TO.P,C18,1*%
%TO.N,GND*%
X140500000Y-59367677D03*
D20*
%TO.P,C18,2*%
%TO.N,Net-(U5-VI)*%
X140500000Y-54367677D03*
%TD*%
D19*
%TO.P,C17,1*%
%TO.N,Net-(D12-K)*%
X140500000Y-70367677D03*
D20*
%TO.P,C17,2*%
%TO.N,GND*%
X140500000Y-65367677D03*
%TD*%
D19*
%TO.P,C16,1*%
%TO.N,GND*%
X129500000Y-59367677D03*
D20*
%TO.P,C16,2*%
%TO.N,Net-(U5-VI)*%
X129500000Y-54367677D03*
%TD*%
D19*
%TO.P,C15,1*%
%TO.N,Net-(D12-K)*%
X129500000Y-70367677D03*
D20*
%TO.P,C15,2*%
%TO.N,GND*%
X129500000Y-65367677D03*
%TD*%
D36*
%TO.P,C11,1*%
%TO.N,Net-(U3D--)*%
X143225000Y-102400000D03*
%TO.P,C11,2*%
%TO.N,Net-(C11-Pad2)*%
X144775000Y-102400000D03*
%TD*%
D39*
%TO.P,C10,1*%
%TO.N,Net-(C10-Pad1)*%
X152175000Y-110800000D03*
%TO.P,C10,2*%
%TO.N,/MOD1_OUT*%
X150625000Y-110800000D03*
%TD*%
%TO.P,C9,1*%
%TO.N,Net-(C9-Pad1)*%
X152175000Y-101800000D03*
%TO.P,C9,2*%
%TO.N,/MOD2_OUT*%
X150625000Y-101800000D03*
%TD*%
D36*
%TO.P,C8,1*%
%TO.N,Net-(U3C-+)*%
X143225000Y-108200000D03*
%TO.P,C8,2*%
%TO.N,GND*%
X144775000Y-108200000D03*
%TD*%
%TO.P,C7,1*%
%TO.N,Net-(U3D-+)*%
X143225000Y-104400000D03*
%TO.P,C7,2*%
%TO.N,GND*%
X144775000Y-104400000D03*
%TD*%
D50*
%TO.N,GND*%
X182700000Y-85900000D03*
%TO.N,+3.3V*%
X121000000Y-95100000D03*
X132200000Y-80500000D03*
%TO.N,/CLK1*%
X141000000Y-116300000D03*
X139200000Y-87200000D03*
%TO.N,/CLK2*%
X125600000Y-117400000D03*
%TO.N,/MOD1*%
X154000000Y-107200000D03*
%TO.N,/MOD2*%
X153200000Y-105400000D03*
X136100000Y-86200000D03*
%TO.N,/CV1*%
X136200000Y-91000000D03*
%TO.N,/CV2*%
X137000000Y-90500000D03*
%TO.N,/GATE1*%
X138600000Y-87900000D03*
%TO.N,/GATE2*%
X137800000Y-87900000D03*
%TO.N,/CLK2*%
X141800000Y-84625000D03*
%TO.N,GND*%
X142577427Y-89312864D03*
X140200000Y-90400000D03*
%TO.N,/MOD1*%
X136100000Y-85400000D03*
%TO.N,GND*%
X115100000Y-99100000D03*
X120900000Y-96800000D03*
X129500000Y-81800000D03*
X135200000Y-80800000D03*
%TO.N,/ENC_A*%
X142900000Y-78300000D03*
%TO.N,/ENC_B*%
X143900000Y-78300000D03*
%TO.N,/I2C_DAT*%
X145300000Y-86000000D03*
%TO.N,/I2C_CLK*%
X144900000Y-84900000D03*
%TO.N,/NRST*%
X132825000Y-84600000D03*
%TO.N,/SWCLK*%
X144900000Y-81900000D03*
%TO.N,/SWIO*%
X145175000Y-83000000D03*
%TO.N,/GATE1*%
X147100000Y-117675000D03*
%TO.N,/GATE2*%
X134250000Y-118350000D03*
%TO.N,/CV2*%
X127500000Y-107200000D03*
%TO.N,/CV1*%
X127500000Y-105600000D03*
%TO.N,GND*%
X129000000Y-116400000D03*
X135500000Y-116400000D03*
X151000000Y-116400000D03*
X143500000Y-116400000D03*
X148800000Y-88000000D03*
X143800000Y-90400000D03*
%TO.N,/MOD1_OUT*%
X149500000Y-110800000D03*
%TO.N,/MOD2_OUT*%
X149500000Y-101800000D03*
%TO.N,GND*%
X153200000Y-103600000D03*
X153200000Y-109000000D03*
X145800000Y-108200000D03*
X145800000Y-106300000D03*
X145800000Y-104400000D03*
%TO.N,/CV1_OUT*%
X129500000Y-104000000D03*
%TO.N,/CV2_OUT*%
X129500000Y-108775000D03*
%TO.N,GND*%
X126600000Y-111400000D03*
X130400000Y-111275000D03*
X126600000Y-101500000D03*
X130379442Y-101479442D03*
X131300000Y-106300000D03*
%TD*%
D51*
%TO.N,/LED_1*%
X137800000Y-79200000D02*
X137800000Y-80825000D01*
X137300000Y-78700000D02*
X137800000Y-79200000D01*
X123500000Y-78700000D02*
X137300000Y-78700000D01*
X122600000Y-79600000D02*
X123500000Y-78700000D01*
X122600000Y-83227500D02*
X122600000Y-79600000D01*
X123372500Y-84000000D02*
X122600000Y-83227500D01*
D52*
%TO.N,Net-(SW2-B)*%
X120800000Y-81725000D02*
X120800000Y-75900000D01*
X120800000Y-75900000D02*
X119150000Y-74250000D01*
X117425000Y-85100000D02*
X120800000Y-81725000D01*
%TO.N,GND*%
X123882323Y-53750000D02*
X129500000Y-59367677D01*
X121850000Y-53750000D02*
X123882323Y-53750000D01*
X134680000Y-70547677D02*
X129500000Y-65367677D01*
X134680000Y-76000000D02*
X134680000Y-70547677D01*
D51*
X148075000Y-127400000D02*
X135925000Y-127400000D01*
X150000000Y-125475000D02*
X148075000Y-127400000D01*
X135925000Y-127400000D02*
X134000000Y-125475000D01*
X182720000Y-85880000D02*
X182700000Y-85900000D01*
X182720000Y-84200000D02*
X182720000Y-85880000D01*
X148800000Y-86000000D02*
X148800000Y-88000000D01*
X149770000Y-85030000D02*
X148800000Y-86000000D01*
X151875000Y-85030000D02*
X149770000Y-85030000D01*
%TO.N,+3.3V*%
X132175000Y-80525000D02*
X132200000Y-80500000D01*
X132175000Y-81800000D02*
X132175000Y-80525000D01*
%TO.N,/CLK1*%
X141000000Y-116300000D02*
X141000000Y-117400000D01*
X139200000Y-86825000D02*
X139200000Y-87200000D01*
X140625000Y-85400000D02*
X139200000Y-86825000D01*
X140625000Y-85400000D02*
X143175000Y-85400000D01*
%TO.N,/CLK2*%
X125600000Y-117400000D02*
X124775000Y-117400000D01*
X126500000Y-117400000D02*
X125600000Y-117400000D01*
%TO.N,/MOD1*%
X152225000Y-107200000D02*
X154000000Y-107200000D01*
%TO.N,GND*%
X142577427Y-89312864D02*
X141937864Y-89312864D01*
X141937864Y-89312864D02*
X141800000Y-89175000D01*
X140200000Y-89175000D02*
X140200000Y-90400000D01*
%TO.N,/MOD2*%
X134825000Y-86200000D02*
X136100000Y-86200000D01*
%TO.N,/CV1*%
X136200000Y-89175000D02*
X136200000Y-91000000D01*
%TO.N,/CV2*%
X137000000Y-90500000D02*
X137000000Y-89175000D01*
%TO.N,/GATE1*%
X138600000Y-89175000D02*
X138600000Y-87900000D01*
%TO.N,/GATE2*%
X137800000Y-89175000D02*
X137800000Y-87900000D01*
%TO.N,/CLK2*%
X141825000Y-84600000D02*
X141800000Y-84625000D01*
X143175000Y-84600000D02*
X141825000Y-84600000D01*
%TO.N,/MOD1*%
X134825000Y-85400000D02*
X136100000Y-85400000D01*
%TO.N,GND*%
X115130000Y-99070000D02*
X115100000Y-99100000D01*
X116350000Y-99070000D02*
X115130000Y-99070000D01*
X119875000Y-96800000D02*
X120900000Y-96800000D01*
%TO.N,/ENC_B*%
X140200000Y-77500000D02*
X143100000Y-77500000D01*
X143100000Y-77500000D02*
X143900000Y-78300000D01*
X138600000Y-79100000D02*
X140200000Y-77500000D01*
X138600000Y-80825000D02*
X138600000Y-79100000D01*
%TO.N,/ENC_A*%
X140600000Y-78300000D02*
X142900000Y-78300000D01*
X139400000Y-79500000D02*
X140600000Y-78300000D01*
X139400000Y-80825000D02*
X139400000Y-79500000D01*
%TO.N,Net-(D2-K)*%
X124947500Y-84000000D02*
X126775000Y-84000000D01*
%TO.N,Net-(D3-K)*%
X126775000Y-81800000D02*
X124947500Y-81800000D01*
%TO.N,GND*%
X128425000Y-84000000D02*
X128425000Y-81800000D01*
X128425000Y-81800000D02*
X129500000Y-81800000D01*
X130625000Y-81800000D02*
X129500000Y-81800000D01*
X135225000Y-80825000D02*
X135200000Y-80800000D01*
X136200000Y-80825000D02*
X135225000Y-80825000D01*
%TO.N,/LED_2*%
X124200000Y-79300000D02*
X123372500Y-80127500D01*
X136700000Y-79300000D02*
X124200000Y-79300000D01*
X123372500Y-80127500D02*
X123372500Y-81800000D01*
X137000000Y-79600000D02*
X136700000Y-79300000D01*
X137000000Y-80825000D02*
X137000000Y-79600000D01*
%TO.N,/I2C_CLK*%
X145800000Y-84000000D02*
X146175000Y-84000000D01*
X144200000Y-86200000D02*
X143175000Y-86200000D01*
X144600000Y-85800000D02*
X144200000Y-86200000D01*
X144900000Y-84900000D02*
X145800000Y-84000000D01*
X144600000Y-85200000D02*
X144600000Y-85800000D01*
X144900000Y-84900000D02*
X144600000Y-85200000D01*
%TO.N,/SWCLK*%
X144900000Y-81900000D02*
X144600000Y-82200000D01*
X144600000Y-82200000D02*
X143175000Y-82200000D01*
%TO.N,/NRST*%
X132825000Y-84600000D02*
X132225000Y-84000000D01*
X134825000Y-84600000D02*
X132825000Y-84600000D01*
%TO.N,Net-(J2-VTref)*%
X147975000Y-79950000D02*
X147825000Y-80100000D01*
X151875000Y-79950000D02*
X147975000Y-79950000D01*
%TO.N,+3.3V*%
X147825000Y-82000000D02*
X147825000Y-86000000D01*
X146175000Y-80350000D02*
X147825000Y-82000000D01*
X146175000Y-80100000D02*
X146175000Y-80350000D01*
X146175000Y-80100000D02*
X146175000Y-76975000D01*
X146175000Y-76975000D02*
X145850000Y-76650000D01*
X145850000Y-76650000D02*
X145200000Y-76000000D01*
%TO.N,/GATE1*%
X148477500Y-117377500D02*
X148180000Y-117675000D01*
X148180000Y-117675000D02*
X147100000Y-117675000D01*
X146000000Y-117675000D02*
X147100000Y-117675000D01*
%TO.N,/GATE2*%
X133277500Y-117377500D02*
X135500000Y-119600000D01*
X133000000Y-117377500D02*
X133277500Y-117377500D01*
%TO.N,/CV2*%
X128575000Y-107200000D02*
X127500000Y-107200000D01*
%TO.N,/CV1*%
X128575000Y-105600000D02*
X127500000Y-105600000D01*
%TO.N,GND*%
X128977500Y-116422500D02*
X129000000Y-116400000D01*
X128977500Y-117377500D02*
X128977500Y-116422500D01*
X135500000Y-117400000D02*
X135500000Y-116400000D01*
X151000000Y-117377500D02*
X151000000Y-116400000D01*
X143500000Y-117400000D02*
X143500000Y-116400000D01*
%TO.N,+3.3V*%
X147577500Y-119577500D02*
X148477500Y-119577500D01*
X145300000Y-118500000D02*
X146500000Y-118500000D01*
X144700000Y-119100000D02*
X145300000Y-118500000D01*
X144700000Y-119800000D02*
X144700000Y-119100000D01*
X144100000Y-120400000D02*
X144700000Y-119800000D01*
X141800000Y-120400000D02*
X144100000Y-120400000D01*
X146500000Y-118500000D02*
X147577500Y-119577500D01*
X141000000Y-119600000D02*
X141800000Y-120400000D01*
X139900000Y-118500000D02*
X141000000Y-119600000D01*
X138200000Y-118500000D02*
X139900000Y-118500000D01*
X136200000Y-120500000D02*
X138200000Y-118500000D01*
X133000000Y-119600000D02*
X133900000Y-120500000D01*
X133900000Y-120500000D02*
X136200000Y-120500000D01*
X133000000Y-119577500D02*
X133000000Y-119600000D01*
X131922500Y-118500000D02*
X133000000Y-119577500D01*
X130000000Y-118800000D02*
X130300000Y-118500000D01*
X130000000Y-119800000D02*
X130000000Y-118800000D01*
X129300000Y-120500000D02*
X130000000Y-119800000D01*
X127400000Y-120500000D02*
X129300000Y-120500000D01*
X126500000Y-119600000D02*
X127400000Y-120500000D01*
X130300000Y-118500000D02*
X131922500Y-118500000D01*
X125400000Y-118500000D02*
X126500000Y-119600000D01*
X123100000Y-118500000D02*
X125400000Y-118500000D01*
X121600000Y-117000000D02*
X123100000Y-118500000D01*
X121600000Y-95700000D02*
X121600000Y-117000000D01*
X121000000Y-95100000D02*
X121600000Y-95700000D01*
X119000000Y-95100000D02*
X121000000Y-95100000D01*
X118325000Y-95775000D02*
X119000000Y-95100000D01*
X118325000Y-96800000D02*
X118325000Y-95775000D01*
X130575000Y-83400000D02*
X132175000Y-81800000D01*
X130575000Y-84000000D02*
X130575000Y-83400000D01*
X132575000Y-82200000D02*
X132175000Y-81800000D01*
X134825000Y-82200000D02*
X132575000Y-82200000D01*
%TO.N,/ENC_BTN*%
X173050000Y-87850000D02*
X173050000Y-83300000D01*
X171200000Y-89700000D02*
X173050000Y-87850000D01*
X159900000Y-89700000D02*
X171200000Y-89700000D01*
X156300000Y-93300000D02*
X159900000Y-89700000D01*
X140475000Y-93300000D02*
X156300000Y-93300000D01*
X138675000Y-91500000D02*
X140475000Y-93300000D01*
X139400000Y-89175000D02*
X139400000Y-90775000D01*
X139400000Y-90775000D02*
X138675000Y-91500000D01*
%TO.N,+3.3V*%
X146200000Y-88025000D02*
X146225000Y-88000000D01*
X144500000Y-92400000D02*
X146200000Y-90700000D01*
X146200000Y-90700000D02*
X146200000Y-88025000D01*
X143125000Y-92400000D02*
X144500000Y-92400000D01*
X142225000Y-91500000D02*
X143125000Y-92400000D01*
X147825000Y-86400000D02*
X146225000Y-88000000D01*
X147825000Y-86000000D02*
X147825000Y-86400000D01*
X145200000Y-76000000D02*
X142300000Y-76000000D01*
%TO.N,GND*%
X147775000Y-88000000D02*
X148800000Y-88000000D01*
X143775000Y-90425000D02*
X143800000Y-90400000D01*
X143775000Y-91500000D02*
X143775000Y-90425000D01*
%TO.N,+3.3V*%
X140325000Y-91500000D02*
X142225000Y-91500000D01*
X141000000Y-90275000D02*
X142225000Y-91500000D01*
X141000000Y-89175000D02*
X141000000Y-90275000D01*
X143175000Y-87800000D02*
X146025000Y-87800000D01*
X146025000Y-87800000D02*
X146225000Y-88000000D01*
%TO.N,/I2C_DAT*%
X145300000Y-86000000D02*
X146175000Y-86000000D01*
X144300000Y-87000000D02*
X145300000Y-86000000D01*
X143175000Y-87000000D02*
X144300000Y-87000000D01*
%TO.N,/SWIO*%
X145175000Y-83000000D02*
X146175000Y-82000000D01*
X143175000Y-83000000D02*
X145175000Y-83000000D01*
%TO.N,/MOD1_OUT*%
X148425000Y-110800000D02*
X150625000Y-110800000D01*
%TO.N,/MOD2_OUT*%
X148425000Y-101800000D02*
X150625000Y-101800000D01*
%TO.N,GND*%
X152225000Y-103600000D02*
X153200000Y-103600000D01*
X152225000Y-109000000D02*
X153200000Y-109000000D01*
X144775000Y-108200000D02*
X145800000Y-108200000D01*
X144775000Y-106300000D02*
X145800000Y-106300000D01*
X144775000Y-104400000D02*
X145800000Y-104400000D01*
%TO.N,/CV1_OUT*%
X128625000Y-104000000D02*
X128600000Y-104025000D01*
X130375000Y-104000000D02*
X128625000Y-104000000D01*
%TO.N,/CV2_OUT*%
X130350000Y-108775000D02*
X130375000Y-108800000D01*
X128600000Y-108775000D02*
X130350000Y-108775000D01*
%TO.N,GND*%
X126600000Y-110350000D02*
X126600000Y-111400000D01*
X130375000Y-111250000D02*
X130400000Y-111275000D01*
X130375000Y-110400000D02*
X130375000Y-111250000D01*
%TO.N,Net-(C14-Pad2)*%
X133000000Y-111900000D02*
X133800000Y-111100000D01*
X129200000Y-111900000D02*
X133000000Y-111900000D01*
X128600000Y-111300000D02*
X129200000Y-111900000D01*
X133800000Y-111100000D02*
X133800000Y-110375000D01*
X128600000Y-110425000D02*
X128600000Y-111300000D01*
%TO.N,GND*%
X126600000Y-102450000D02*
X126600000Y-101500000D01*
X130375000Y-101483884D02*
X130379442Y-101479442D01*
X130375000Y-102400000D02*
X130375000Y-101483884D01*
X132225000Y-106300000D02*
X131300000Y-106300000D01*
%TO.N,/GATE1_OUT*%
X146000000Y-121200000D02*
X146000000Y-119325000D01*
X146100000Y-121800000D02*
X146100000Y-121300000D01*
X145000000Y-122900000D02*
X146100000Y-121800000D01*
X146100000Y-121300000D02*
X146000000Y-121200000D01*
X145000000Y-125475000D02*
X145000000Y-122900000D01*
%TO.N,/GATE1*%
X150677500Y-119577500D02*
X148477500Y-117377500D01*
X151000000Y-119577500D02*
X150677500Y-119577500D01*
%TO.N,/CLK1*%
X141300000Y-117400000D02*
X143500000Y-119600000D01*
X141000000Y-117400000D02*
X141300000Y-117400000D01*
X140725000Y-117675000D02*
X141000000Y-117400000D01*
X139000000Y-117675000D02*
X140725000Y-117675000D01*
%TO.N,/CLK1_OUT*%
X139000000Y-121200000D02*
X139000000Y-119325000D01*
X140000000Y-122200000D02*
X139000000Y-121200000D01*
X140000000Y-125475000D02*
X140000000Y-122200000D01*
%TO.N,/CLK2*%
X124775000Y-117400000D02*
X124500000Y-117675000D01*
X126800000Y-117400000D02*
X128977500Y-119577500D01*
X126500000Y-117400000D02*
X126800000Y-117400000D01*
%TO.N,/GATE2*%
X132702500Y-117675000D02*
X133000000Y-117377500D01*
X131000000Y-117675000D02*
X132702500Y-117675000D01*
%TO.N,/GATE2_OUT*%
X129000000Y-123900000D02*
X131000000Y-121900000D01*
X131000000Y-121900000D02*
X131000000Y-119325000D01*
X129000000Y-125475000D02*
X129000000Y-123900000D01*
%TO.N,/CLK2_OUT*%
X124000000Y-119825000D02*
X124500000Y-119325000D01*
X124000000Y-125475000D02*
X124000000Y-119825000D01*
%TO.N,Net-(J3-Pad4)*%
X119925000Y-110970280D02*
X116099100Y-114796180D01*
X119925000Y-98800000D02*
X119925000Y-110970280D01*
%TO.N,/MIDI_RX*%
X127100000Y-91300000D02*
X130600000Y-87800000D01*
X130600000Y-87800000D02*
X134825000Y-87800000D01*
X114600000Y-91300000D02*
X127100000Y-91300000D01*
X113100000Y-92800000D02*
X114600000Y-91300000D01*
X113100000Y-95800000D02*
X113100000Y-92800000D01*
X115100000Y-97800000D02*
X113100000Y-95800000D01*
X116350000Y-97800000D02*
X115100000Y-97800000D01*
%TO.N,+3.3V*%
X116620000Y-96800000D02*
X116350000Y-96530000D01*
X118325000Y-96800000D02*
X116620000Y-96800000D01*
%TO.N,Net-(D1-K)*%
X111330000Y-96530000D02*
X106850000Y-96530000D01*
X118100000Y-100300000D02*
X115100000Y-100300000D01*
X118275000Y-100125000D02*
X118100000Y-100300000D01*
X118275000Y-98800000D02*
X118275000Y-100125000D01*
X115100000Y-100300000D02*
X111330000Y-96530000D01*
X106630000Y-96750000D02*
X106850000Y-96530000D01*
X104600000Y-96750000D02*
X106630000Y-96750000D01*
%TO.N,Net-(D1-A)*%
X106630000Y-98850000D02*
X106850000Y-99070000D01*
X104600000Y-98850000D02*
X106630000Y-98850000D01*
X106850000Y-102550000D02*
X106850000Y-99070000D01*
X109103820Y-104803820D02*
X106850000Y-102550000D01*
X116099100Y-104803820D02*
X109103820Y-104803820D01*
%TO.N,Net-(U3B--)*%
X133815000Y-108840000D02*
X133800000Y-108825000D01*
X136025000Y-108840000D02*
X133815000Y-108840000D01*
X132025000Y-108800000D02*
X133775000Y-108800000D01*
X133775000Y-108800000D02*
X133800000Y-108825000D01*
X132025000Y-110400000D02*
X132025000Y-108800000D01*
%TO.N,Net-(C14-Pad2)*%
X134065000Y-110110000D02*
X133800000Y-110375000D01*
X136025000Y-110110000D02*
X134065000Y-110110000D01*
%TO.N,Net-(U3B-+)*%
X127000000Y-108050000D02*
X129375000Y-108050000D01*
X126600000Y-108450000D02*
X127000000Y-108050000D01*
X129375000Y-108050000D02*
X130225000Y-107200000D01*
%TO.N,Net-(U3A-+)*%
X129375000Y-104750000D02*
X130225000Y-105600000D01*
X127000000Y-104750000D02*
X129375000Y-104750000D01*
X126600000Y-104350000D02*
X127000000Y-104750000D01*
%TO.N,Net-(U3B-+)*%
X131500000Y-107200000D02*
X130225000Y-107200000D01*
X131870000Y-107570000D02*
X131500000Y-107200000D01*
X136025000Y-107570000D02*
X131870000Y-107570000D01*
%TO.N,Net-(U3A-+)*%
X131870000Y-105030000D02*
X136025000Y-105030000D01*
X131300000Y-105600000D02*
X131870000Y-105030000D01*
X130225000Y-105600000D02*
X131300000Y-105600000D01*
%TO.N,Net-(U3A--)*%
X134015000Y-103760000D02*
X133800000Y-103975000D01*
X136025000Y-103760000D02*
X134015000Y-103760000D01*
X132050000Y-103975000D02*
X132025000Y-104000000D01*
X133800000Y-103975000D02*
X132050000Y-103975000D01*
X132025000Y-102400000D02*
X132025000Y-104000000D01*
%TO.N,Net-(C13-Pad2)*%
X130175000Y-100800000D02*
X128600000Y-102375000D01*
X133100000Y-100800000D02*
X130175000Y-100800000D01*
X133800000Y-102425000D02*
X133800000Y-101500000D01*
X133800000Y-101500000D02*
X133100000Y-100800000D01*
%TO.N,/MOD1_OUT*%
X148425000Y-109000000D02*
X148425000Y-110800000D01*
%TO.N,Net-(U3C--)*%
X147575000Y-108200000D02*
X149775000Y-108200000D01*
X146775000Y-109000000D02*
X147575000Y-108200000D01*
X149775000Y-108200000D02*
X150575000Y-109000000D01*
%TO.N,Net-(C10-Pad1)*%
X151500000Y-108125000D02*
X151500000Y-110125000D01*
X151500000Y-110125000D02*
X152175000Y-110800000D01*
X150575000Y-107200000D02*
X151500000Y-108125000D01*
X148425000Y-107200000D02*
X150575000Y-107200000D01*
%TO.N,Net-(C9-Pad1)*%
X151500000Y-102475000D02*
X152175000Y-101800000D01*
X151500000Y-104475000D02*
X151500000Y-102475000D01*
X150575000Y-105400000D02*
X151500000Y-104475000D01*
X148425000Y-105400000D02*
X150575000Y-105400000D01*
%TO.N,Net-(U3D--)*%
X149775000Y-104400000D02*
X150575000Y-103600000D01*
X147575000Y-104400000D02*
X149775000Y-104400000D01*
X146775000Y-103600000D02*
X147575000Y-104400000D01*
%TO.N,/MOD2_OUT*%
X148425000Y-103600000D02*
X148425000Y-101800000D01*
%TO.N,Net-(U3D--)*%
X144425000Y-103600000D02*
X146775000Y-103600000D01*
X143225000Y-102400000D02*
X144425000Y-103600000D01*
X141865000Y-103760000D02*
X140975000Y-103760000D01*
X143225000Y-102400000D02*
X141865000Y-103760000D01*
%TO.N,Net-(C11-Pad2)*%
X146775000Y-101800000D02*
X145375000Y-101800000D01*
X145375000Y-101800000D02*
X144775000Y-102400000D01*
X144100000Y-101725000D02*
X144775000Y-102400000D01*
X144100000Y-101300000D02*
X144100000Y-101725000D01*
X141100000Y-101300000D02*
X144100000Y-101300000D01*
X140975000Y-102490000D02*
X140975000Y-101425000D01*
X140975000Y-101425000D02*
X141100000Y-101300000D01*
%TO.N,Net-(C12-Pad2)*%
X142165000Y-111300000D02*
X143675000Y-111300000D01*
X140975000Y-110110000D02*
X142165000Y-111300000D01*
X143675000Y-111300000D02*
X144775000Y-110200000D01*
X146175000Y-110200000D02*
X146775000Y-110800000D01*
X144775000Y-110200000D02*
X146175000Y-110200000D01*
%TO.N,Net-(U3C--)*%
X144425000Y-109000000D02*
X146775000Y-109000000D01*
X143225000Y-110200000D02*
X144425000Y-109000000D01*
X141865000Y-108840000D02*
X143225000Y-110200000D01*
X140975000Y-108840000D02*
X141865000Y-108840000D01*
%TO.N,Net-(U3C-+)*%
X144225000Y-107200000D02*
X143225000Y-108200000D01*
X146775000Y-107200000D02*
X144225000Y-107200000D01*
X142595000Y-107570000D02*
X143225000Y-108200000D01*
X140975000Y-107570000D02*
X142595000Y-107570000D01*
%TO.N,Net-(U3D-+)*%
X144225000Y-105400000D02*
X146775000Y-105400000D01*
X143225000Y-104400000D02*
X144225000Y-105400000D01*
X142595000Y-105030000D02*
X143225000Y-104400000D01*
X140975000Y-105030000D02*
X142595000Y-105030000D01*
%TO.N,+12V*%
X136025000Y-106300000D02*
X133775000Y-106300000D01*
%TO.N,-12V*%
X140975000Y-106300000D02*
X143225000Y-106300000D01*
%TO.N,+12V*%
X158600000Y-123420000D02*
X161600000Y-126420000D01*
X155600000Y-113800000D02*
X158600000Y-116800000D01*
X138600000Y-113800000D02*
X155600000Y-113800000D01*
X138100000Y-113300000D02*
X138600000Y-113800000D01*
X158600000Y-116800000D02*
X158600000Y-123420000D01*
X138100000Y-106800000D02*
X138100000Y-113300000D01*
X136025000Y-106300000D02*
X137600000Y-106300000D01*
X137600000Y-106300000D02*
X138100000Y-106800000D01*
%TO.N,-12V*%
X158100000Y-98300000D02*
X158600000Y-97800000D01*
X140600000Y-98300000D02*
X158100000Y-98300000D01*
X138600000Y-100300000D02*
X140600000Y-98300000D01*
X138600000Y-105800000D02*
X138600000Y-100300000D01*
X139100000Y-106300000D02*
X138600000Y-105800000D01*
X140975000Y-106300000D02*
X139100000Y-106300000D01*
D53*
X158600000Y-113260000D02*
X158600000Y-97800000D01*
X158600000Y-97800000D02*
X158600000Y-96450000D01*
D51*
%TO.N,Net-(C13-Pad2)*%
X133865000Y-102490000D02*
X133800000Y-102425000D01*
X136025000Y-102490000D02*
X133865000Y-102490000D01*
D53*
%TO.N,-12V*%
X176140000Y-87340000D02*
X176140000Y-93715000D01*
X175600000Y-86800000D02*
X176140000Y-87340000D01*
X175600000Y-72800000D02*
X175600000Y-86800000D01*
X180600000Y-67800000D02*
X175600000Y-72800000D01*
X187600000Y-67800000D02*
X180600000Y-67800000D01*
X191344887Y-71544887D02*
X187600000Y-67800000D01*
X193000000Y-71544887D02*
X191344887Y-71544887D01*
X158600000Y-96450000D02*
X161335000Y-93715000D01*
X161600000Y-116260000D02*
X158600000Y-113260000D01*
%TO.N,+12V*%
X193525000Y-119875000D02*
X193525000Y-103875000D01*
X191600000Y-124800000D02*
X191600000Y-121800000D01*
X191600000Y-121800000D02*
X193525000Y-119875000D01*
X189980000Y-126420000D02*
X191600000Y-124800000D01*
X188140000Y-126420000D02*
X189980000Y-126420000D01*
X193525000Y-103875000D02*
X187875000Y-103875000D01*
X197555000Y-99845000D02*
X193525000Y-103875000D01*
X197555000Y-83040000D02*
X197555000Y-99845000D01*
X161600000Y-126420000D02*
X188140000Y-126420000D01*
%TO.N,-12V*%
X161600000Y-116260000D02*
X188140000Y-116260000D01*
%TO.N,+12V*%
X161335000Y-103875000D02*
X187875000Y-103875000D01*
%TO.N,-12V*%
X161335000Y-93715000D02*
X187875000Y-93715000D01*
%TO.N,+3.3V*%
X185000000Y-84200000D02*
X185000000Y-77900000D01*
X183294887Y-76044887D02*
X183475000Y-76225000D01*
X177500000Y-76044887D02*
X183294887Y-76044887D01*
%TO.N,Net-(D12-K)*%
X195600000Y-73800000D02*
X197555000Y-75755000D01*
X187167677Y-70367677D02*
X190600000Y-73800000D01*
X190600000Y-73800000D02*
X195600000Y-73800000D01*
X197555000Y-75755000D02*
X197555000Y-77960000D01*
X184500000Y-70367677D02*
X187167677Y-70367677D01*
%TO.N,+12V*%
X195600000Y-82800000D02*
X194600000Y-82800000D01*
X193844888Y-82044888D02*
X193000000Y-82044888D01*
X195840000Y-83040000D02*
X195600000Y-82800000D01*
X197555000Y-83040000D02*
X195840000Y-83040000D01*
X194600000Y-82800000D02*
X193844888Y-82044888D01*
X189200000Y-84200000D02*
X191355112Y-82044888D01*
X191355112Y-82044888D02*
X193000000Y-82044888D01*
X187280000Y-84200000D02*
X189200000Y-84200000D01*
X193000000Y-77955113D02*
X193000000Y-82044888D01*
%TO.N,-12V*%
X197050113Y-71544887D02*
X193000000Y-71544887D01*
X197555000Y-71040000D02*
X197050113Y-71544887D01*
%TO.N,Net-(U5-VI)*%
X195400000Y-68500000D02*
X197555000Y-68500000D01*
X194600000Y-67700000D02*
X195400000Y-68500000D01*
X194600000Y-64467677D02*
X194600000Y-67700000D01*
X184500000Y-54367677D02*
X194600000Y-64467677D01*
D52*
%TO.N,Net-(SW2-A)*%
X113800000Y-74475000D02*
X117425000Y-78100000D01*
X113800000Y-68050000D02*
X113800000Y-74475000D01*
%TO.N,Net-(J6-Pad2)*%
X114600000Y-61250000D02*
X119150000Y-61250000D01*
X107800000Y-68050000D02*
X114600000Y-61250000D01*
%TD*%
M02*
