  0
SECTION
  2
HEADER
  9
$ANGBASE
  50
0.0
  9
$ANGDIR
  70
1
  9
$MEASUREMENT
  70
1
  0
ENDSEC
  0
SECTION
  2
TABLES
  0
TABLE
  2
LTYPE
  70
4
  0
LTYPE
  5
40F
  2
CONTINUOUS
  70
0
  3
Solid line
  72
65
  73
0
  40
0.0
  0
LTYPE
  5
410
  2
DASHDOT
 70
0
  3
Dash Dot ____ _ ____ _
 72
65
 73
4
 40
2.0
 49
1.25
 49
-0.25
 49
0.25
 49
-0.25
  0
LTYPE
  5
411
  2
DASHED
 70
0
  3
Dashed __ __ __ __ __
 72
65
 73
2
 40
0.75
 49
0.5
 49
-0.25
  0
LTYPE
  5
43B
  2
DOTTED
 70
0
  3
Dotted .  .  .  .
 72
65
 73
2
 40
0.2
 49
0.0
 49
-0.2
  0
ENDTAB
  0
TABLE
  2
STYLE
  70
4
  0
STYLE
  2
KICAD
  70
0
  40
0
  41
1
  42
1
  50
0
  71
0
  3
isocp.shx
  0
STYLE
  2
KICADB
  70
0
  40
0
  41
1
  42
1
  50
0
  71
0
  3
isocp.shx
  0
STYLE
  2
KICADI
  70
0
  40
0
  41
1
  42
1
  50
15
  71
0
  3
isocp.shx
  0
STYLE
  2
KICADBI
  70
0
  40
0
  41
1
  42
1
  50
15
  71
0
  3
isocp.shx
  0
ENDTAB
  0
TABLE
  2
LAYER
  70
1
  0
LAYER
  2
BLACK
  70
0
  62
7
  6
CONTINUOUS
  0
ENDTAB
  0
ENDSEC
  0
SECTION
  2
ENTITIES
0
CIRCLE
8
BLACK
10
107.75
20
-159.5
40
1.5999999999999999
0
CIRCLE
8
BLACK
10
71.75
20
-37.
40
1.5999999999999999
0
CIRCLE
8
BLACK
10
71.75
20
-159.5
40
1.5999999999999999
0
CIRCLE
8
BLACK
10
107.5
20
-37.
40
1.5999999999999999
0
LINE
8
BLACK
6
CONTINUOUS
10
64.75
20
-34.
11
115.25
21
-34.
0
LINE
8
BLACK
6
CONTINUOUS
10
115.25
20
-34.
11
115.25
21
-162.5
0
LINE
8
BLACK
6
CONTINUOUS
10
115.25
20
-162.5
11
64.75
21
-162.5
0
LINE
8
BLACK
6
CONTINUOUS
10
64.75
20
-162.5
11
64.75
21
-34.
0
CIRCLE
8
BLACK
10
104.75
20
-137.25
40
1.520691
0
CIRCLE
8
BLACK
10
92.25
20
-137.25
40
1.5
0
CIRCLE
8
BLACK
10
80.
20
-137.25
40
1.5
0
CIRCLE
8
BLACK
10
67.5
20
-137.25
40
1.5
0
CIRCLE
8
BLACK
10
108.75
20
-145.25
40
3.
0
CIRCLE
8
BLACK
10
96.25
20
-145.25
40
3.
0
CIRCLE
8
BLACK
10
71.25
20
-145.25
40
3.
0
CIRCLE
8
BLACK
10
83.75
20
-145.25
40
3.
0
CIRCLE
8
BLACK
10
108.75
20
-130.75
40
3.
0
CIRCLE
8
BLACK
10
96.25
20
-130.75
40
3.
0
CIRCLE
8
BLACK
10
71.25
20
-130.75
40
3.
0
CIRCLE
8
BLACK
10
83.75
20
-130.75
40
3.
0
CIRCLE
8
BLACK
10
108.75
20
-116.25
40
3.
0
CIRCLE
8
BLACK
10
96.25
20
-116.25
40
3.
0
CIRCLE
8
BLACK
10
83.75
20
-116.25
40
3.
0
CIRCLE
8
BLACK
10
71.25
20
-116.25
40
3.
0
ARC
8
BLACK
10
108.75
20
-103.75
40
1.5
50
-180.00000000
51
-0.00000000
0
ARC
8
BLACK
10
108.75
20
-80.
40
1.5
50
0.00000000
51
180.00000000
0
LINE
8
BLACK
6
CONTINUOUS
10
107.25
20
-103.75
11
107.25
21
-80.
0
LINE
8
BLACK
6
CONTINUOUS
10
110.25
20
-80.
11
110.25
21
-103.75
0
ARC
8
BLACK
10
96.25
20
-103.75
40
1.5
50
-180.00000000
51
-0.00000000
0
ARC
8
BLACK
10
96.25
20
-80.
40
1.5
50
0.00000000
51
180.00000000
0
LINE
8
BLACK
6
CONTINUOUS
10
94.75
20
-103.75
11
94.75
21
-80.
0
LINE
8
BLACK
6
CONTINUOUS
10
97.75
20
-80.
11
97.75
21
-103.75
0
ARC
8
BLACK
10
71.25
20
-103.75
40
1.5
50
-180.00000000
51
-0.00000000
0
ARC
8
BLACK
10
71.25
20
-80.
40
1.5
50
0.00000000
51
180.00000000
0
LINE
8
BLACK
6
CONTINUOUS
10
69.75
20
-103.75
11
69.75
21
-80.
0
LINE
8
BLACK
6
CONTINUOUS
10
72.75
20
-80.
11
72.75
21
-103.75
0
LINE
8
BLACK
6
CONTINUOUS
10
82.25
20
-103.75
11
82.25
21
-80.
0
LINE
8
BLACK
6
CONTINUOUS
10
85.25
20
-80.
11
85.25
21
-103.75
0
ARC
8
BLACK
10
83.75
20
-103.75
40
1.5
50
-180.00000000
51
-0.00000000
0
ARC
8
BLACK
10
83.75
20
-80.
40
1.5
50
0.00000000
51
180.00000000
  0
ENDSEC
  0
EOF
