%TF.GenerationSoftware,KiCad,Pcbnew,8.0.0*%
%TF.CreationDate,2024-07-13T20:22:53-07:00*%
%TF.ProjectId,midi-controller,6d696469-2d63-46f6-9e74-726f6c6c6572,rev?*%
%TF.SameCoordinates,Original*%
%TF.FileFunction,Soldermask,Bot*%
%TF.FilePolarity,Negative*%
%FSLAX46Y46*%
G04 Gerber Fmt 4.6, Leading zero omitted, Abs format (unit mm)*
G04 Created by KiCad (PCBNEW 8.0.0) date 2024-07-13 20:22:53*
%MOMM*%
%LPD*%
G01*
G04 APERTURE LIST*
G04 Aperture macros list*
%AMRoundRect*
0 Rectangle with rounded corners*
0 $1 Rounding radius*
0 $2 $3 $4 $5 $6 $7 $8 $9 X,Y pos of 4 corners*
0 Add a 4 corners polygon primitive as box body*
4,1,4,$2,$3,$4,$5,$6,$7,$8,$9,$2,$3,0*
0 Add four circle primitives for the rounded corners*
1,1,$1+$1,$2,$3*
1,1,$1+$1,$4,$5*
1,1,$1+$1,$6,$7*
1,1,$1+$1,$8,$9*
0 Add four rect primitives between the rounded corners*
20,1,$1+$1,$2,$3,$4,$5,0*
20,1,$1+$1,$4,$5,$6,$7,0*
20,1,$1+$1,$6,$7,$8,$9,0*
20,1,$1+$1,$8,$9,$2,$3,0*%
G04 Aperture macros list end*
%ADD10C,2.499360*%
%ADD11C,3.200000*%
%ADD12C,6.400000*%
%ADD13RoundRect,0.250000X-0.600000X-0.725000X0.600000X-0.725000X0.600000X0.725000X-0.600000X0.725000X0*%
%ADD14O,1.700000X1.950000*%
%ADD15R,2.000000X2.000000*%
%ADD16C,2.000000*%
%ADD17R,3.200000X2.000000*%
%ADD18R,1.000000X1.000000*%
%ADD19O,1.000000X1.000000*%
%ADD20R,1.700000X1.700000*%
%ADD21O,1.700000X1.700000*%
%ADD22R,2.000000X1.905000*%
%ADD23O,2.000000X1.905000*%
%ADD24C,1.800000*%
%ADD25R,2.600000X2.600000*%
%ADD26C,2.600000*%
%ADD27RoundRect,0.360000X0.440000X-0.360000X0.440000X0.360000X-0.440000X0.360000X-0.440000X-0.360000X0*%
%ADD28R,3.800000X4.960000*%
%ADD29R,1.600000X1.600000*%
%ADD30C,1.600000*%
%ADD31RoundRect,0.225000X-0.250000X0.225000X-0.250000X-0.225000X0.250000X-0.225000X0.250000X0.225000X0*%
%ADD32RoundRect,0.225000X0.250000X-0.225000X0.250000X0.225000X-0.250000X0.225000X-0.250000X-0.225000X0*%
G04 APERTURE END LIST*
D10*
%TO.C,J3*%
X116099100Y-104803820D03*
X116099100Y-114796180D03*
X113597200Y-102301920D03*
X113599740Y-109800000D03*
X113597200Y-117298080D03*
X103602300Y-114801260D03*
X103602300Y-104798740D03*
%TD*%
D11*
%TO.C,SW2*%
X117425000Y-78100000D03*
X117425000Y-85100000D03*
%TD*%
D12*
%TO.C,H4*%
X196600000Y-125800000D03*
%TD*%
%TO.C,H3*%
X106600000Y-125800000D03*
%TD*%
%TO.C,H2*%
X197000000Y-55800000D03*
%TD*%
%TO.C,H1*%
X106600000Y-55800000D03*
%TD*%
D13*
%TO.C,J5*%
X124000000Y-125475000D03*
D14*
X126500000Y-125475000D03*
X129000000Y-125475000D03*
X131500000Y-125475000D03*
X134000000Y-125475000D03*
%TD*%
D13*
%TO.C,J4*%
X140000000Y-125475000D03*
D14*
X142500000Y-125475000D03*
X145000000Y-125475000D03*
X147500000Y-125475000D03*
X150000000Y-125475000D03*
%TD*%
D15*
%TO.C,SW1*%
X158550000Y-78300000D03*
D16*
X158550000Y-83300000D03*
X158550000Y-80800000D03*
D17*
X166050000Y-75200000D03*
X166050000Y-86400000D03*
D16*
X173050000Y-83300000D03*
X173050000Y-78300000D03*
%TD*%
D18*
%TO.C,J2*%
X151875000Y-79950000D03*
D19*
X153145000Y-79950000D03*
X151875000Y-81220000D03*
X153145000Y-81220000D03*
X151875000Y-82490000D03*
X153145000Y-82490000D03*
X151875000Y-83760000D03*
X153145000Y-83760000D03*
X151875000Y-85030000D03*
X153145000Y-85030000D03*
%TD*%
D20*
%TO.C,J1*%
X142300000Y-76000000D03*
D21*
X139760000Y-76000000D03*
X137220000Y-76000000D03*
X134680000Y-76000000D03*
%TD*%
D22*
%TO.C,U5*%
X197555000Y-65960000D03*
D23*
X197555000Y-68500000D03*
X197555000Y-71040000D03*
%TD*%
D22*
%TO.C,U4*%
X197555000Y-77960000D03*
D23*
X197555000Y-80500000D03*
X197555000Y-83040000D03*
%TD*%
D24*
%TO.C,TH2*%
X121850000Y-53750000D03*
X119150000Y-61250000D03*
%TD*%
%TO.C,TH1*%
X121850000Y-66750000D03*
X119150000Y-74250000D03*
%TD*%
D20*
%TO.C,J12*%
X188140000Y-126420000D03*
D21*
X185600000Y-126420000D03*
X188140000Y-123880000D03*
X185600000Y-123880000D03*
X188140000Y-121340000D03*
X185600000Y-121340000D03*
X188140000Y-118800000D03*
X185600000Y-118800000D03*
X188140000Y-116260000D03*
X185600000Y-116260000D03*
%TD*%
D20*
%TO.C,J11*%
X187875000Y-103875000D03*
D21*
X185335000Y-103875000D03*
X187875000Y-101335000D03*
X185335000Y-101335000D03*
X187875000Y-98795000D03*
X185335000Y-98795000D03*
X187875000Y-96255000D03*
X185335000Y-96255000D03*
X187875000Y-93715000D03*
X185335000Y-93715000D03*
%TD*%
D20*
%TO.C,J10*%
X163875000Y-103875000D03*
D21*
X161335000Y-103875000D03*
X163875000Y-101335000D03*
X161335000Y-101335000D03*
X163875000Y-98795000D03*
X161335000Y-98795000D03*
X163875000Y-96255000D03*
X161335000Y-96255000D03*
X163875000Y-93715000D03*
X161335000Y-93715000D03*
%TD*%
D20*
%TO.C,J9*%
X176140000Y-103875000D03*
D21*
X173600000Y-103875000D03*
X176140000Y-101335000D03*
X173600000Y-101335000D03*
X176140000Y-98795000D03*
X173600000Y-98795000D03*
X176140000Y-96255000D03*
X173600000Y-96255000D03*
X176140000Y-93715000D03*
X173600000Y-93715000D03*
%TD*%
D20*
%TO.C,J8*%
X164140000Y-126420000D03*
D21*
X161600000Y-126420000D03*
X164140000Y-123880000D03*
X161600000Y-123880000D03*
X164140000Y-121340000D03*
X161600000Y-121340000D03*
X164140000Y-118800000D03*
X161600000Y-118800000D03*
X164140000Y-116260000D03*
X161600000Y-116260000D03*
%TD*%
D20*
%TO.C,J7*%
X176140000Y-126420000D03*
D21*
X173600000Y-126420000D03*
X176140000Y-123880000D03*
X173600000Y-123880000D03*
X176140000Y-121340000D03*
X173600000Y-121340000D03*
X176140000Y-118800000D03*
X173600000Y-118800000D03*
X176140000Y-116260000D03*
X173600000Y-116260000D03*
%TD*%
D25*
%TO.C,J6*%
X113800000Y-68050000D03*
D26*
X107800000Y-68050000D03*
X110800000Y-72750000D03*
%TD*%
D27*
%TO.C,D13*%
X122987500Y-56667500D03*
X125117500Y-56667500D03*
D28*
X124052500Y-60467500D03*
%TD*%
%TO.C,D12*%
X124052500Y-73967500D03*
D27*
X125117500Y-70167500D03*
X122987500Y-70167500D03*
%TD*%
D29*
%TO.C,C34*%
X193000000Y-69544887D03*
D30*
X193000000Y-71544887D03*
%TD*%
D29*
%TO.C,C33*%
X193000000Y-82044888D03*
D30*
X193000000Y-84044888D03*
%TD*%
D29*
%TO.C,C32*%
X177500000Y-76044887D03*
D30*
X177500000Y-78044887D03*
%TD*%
D31*
%TO.C,C31*%
X195000000Y-70775000D03*
X195000000Y-69225000D03*
%TD*%
D32*
%TO.C,C30*%
X195000000Y-82275000D03*
X195000000Y-80725000D03*
%TD*%
D29*
%TO.C,C29*%
X193000000Y-77955113D03*
D30*
X193000000Y-75955113D03*
%TD*%
D15*
%TO.C,C28*%
X184500000Y-59367677D03*
D16*
X184500000Y-54367677D03*
%TD*%
D15*
%TO.C,C27*%
X184500000Y-70367677D03*
D16*
X184500000Y-65367677D03*
%TD*%
D15*
%TO.C,C24*%
X173500000Y-59367677D03*
D16*
X173500000Y-54367677D03*
%TD*%
D15*
%TO.C,C23*%
X173500000Y-70367677D03*
D16*
X173500000Y-65367677D03*
%TD*%
D15*
%TO.C,C22*%
X162500000Y-59367677D03*
D16*
X162500000Y-54367677D03*
%TD*%
D15*
%TO.C,C21*%
X162500000Y-70367677D03*
D16*
X162500000Y-65367677D03*
%TD*%
D15*
%TO.C,C20*%
X151500000Y-59367677D03*
D16*
X151500000Y-54367677D03*
%TD*%
D15*
%TO.C,C19*%
X151500000Y-70367677D03*
D16*
X151500000Y-65367677D03*
%TD*%
D15*
%TO.C,C18*%
X140500000Y-59367677D03*
D16*
X140500000Y-54367677D03*
%TD*%
D15*
%TO.C,C17*%
X140500000Y-70367677D03*
D16*
X140500000Y-65367677D03*
%TD*%
D15*
%TO.C,C16*%
X129500000Y-59367677D03*
D16*
X129500000Y-54367677D03*
%TD*%
D15*
%TO.C,C15*%
X129500000Y-70367677D03*
D16*
X129500000Y-65367677D03*
%TD*%
M02*
