%TF.GenerationSoftware,KiCad,Pcbnew,8.0.0*%
%TF.CreationDate,2024-07-13T20:22:53-07:00*%
%TF.ProjectId,midi-controller,6d696469-2d63-46f6-9e74-726f6c6c6572,rev?*%
%TF.SameCoordinates,Original*%
%TF.FileFunction,Soldermask,Top*%
%TF.FilePolarity,Negative*%
%FSLAX46Y46*%
G04 Gerber Fmt 4.6, Leading zero omitted, Abs format (unit mm)*
G04 Created by KiCad (PCBNEW 8.0.0) date 2024-07-13 20:22:53*
%MOMM*%
%LPD*%
G01*
G04 APERTURE LIST*
G04 Aperture macros list*
%AMRoundRect*
0 Rectangle with rounded corners*
0 $1 Rounding radius*
0 $2 $3 $4 $5 $6 $7 $8 $9 X,Y pos of 4 corners*
0 Add a 4 corners polygon primitive as box body*
4,1,4,$2,$3,$4,$5,$6,$7,$8,$9,$2,$3,0*
0 Add four circle primitives for the rounded corners*
1,1,$1+$1,$2,$3*
1,1,$1+$1,$4,$5*
1,1,$1+$1,$6,$7*
1,1,$1+$1,$8,$9*
0 Add four rect primitives between the rounded corners*
20,1,$1+$1,$2,$3,$4,$5,0*
20,1,$1+$1,$4,$5,$6,$7,0*
20,1,$1+$1,$6,$7,$8,$9,0*
20,1,$1+$1,$8,$9,$2,$3,0*%
G04 Aperture macros list end*
%ADD10C,2.499360*%
%ADD11C,3.200000*%
%ADD12C,6.400000*%
%ADD13RoundRect,0.250000X-0.600000X-0.725000X0.600000X-0.725000X0.600000X0.725000X-0.600000X0.725000X0*%
%ADD14O,1.700000X1.950000*%
%ADD15RoundRect,0.218750X0.218750X0.256250X-0.218750X0.256250X-0.218750X-0.256250X0.218750X-0.256250X0*%
%ADD16RoundRect,0.150000X-0.825000X-0.150000X0.825000X-0.150000X0.825000X0.150000X-0.825000X0.150000X0*%
%ADD17R,1.300000X0.800000*%
%ADD18RoundRect,0.125000X-0.625000X-0.125000X0.625000X-0.125000X0.625000X0.125000X-0.625000X0.125000X0*%
%ADD19RoundRect,0.125000X-0.125000X-0.625000X0.125000X-0.625000X0.125000X0.625000X-0.125000X0.625000X0*%
%ADD20R,2.000000X2.000000*%
%ADD21C,2.000000*%
%ADD22R,3.200000X2.000000*%
%ADD23RoundRect,0.200000X0.275000X-0.200000X0.275000X0.200000X-0.275000X0.200000X-0.275000X-0.200000X0*%
%ADD24RoundRect,0.200000X-0.275000X0.200000X-0.275000X-0.200000X0.275000X-0.200000X0.275000X0.200000X0*%
%ADD25RoundRect,0.200000X0.200000X0.275000X-0.200000X0.275000X-0.200000X-0.275000X0.200000X-0.275000X0*%
%ADD26RoundRect,0.200000X-0.200000X-0.275000X0.200000X-0.275000X0.200000X0.275000X-0.200000X0.275000X0*%
%ADD27R,1.000000X1.000000*%
%ADD28O,1.000000X1.000000*%
%ADD29R,1.700000X1.700000*%
%ADD30O,1.700000X1.700000*%
%ADD31RoundRect,0.125000X0.125000X-0.125000X0.125000X0.125000X-0.125000X0.125000X-0.125000X-0.125000X0*%
%ADD32RoundRect,0.112500X-0.112500X0.187500X-0.112500X-0.187500X0.112500X-0.187500X0.112500X0.187500X0*%
%ADD33RoundRect,0.225000X-0.250000X0.225000X-0.250000X-0.225000X0.250000X-0.225000X0.250000X0.225000X0*%
%ADD34RoundRect,0.225000X0.250000X-0.225000X0.250000X0.225000X-0.250000X0.225000X-0.250000X-0.225000X0*%
%ADD35RoundRect,0.225000X-0.225000X-0.250000X0.225000X-0.250000X0.225000X0.250000X-0.225000X0.250000X0*%
%ADD36RoundRect,0.250000X0.475000X-0.250000X0.475000X0.250000X-0.475000X0.250000X-0.475000X-0.250000X0*%
%ADD37RoundRect,0.250000X-0.475000X0.250000X-0.475000X-0.250000X0.475000X-0.250000X0.475000X0.250000X0*%
%ADD38RoundRect,0.225000X0.225000X0.250000X-0.225000X0.250000X-0.225000X-0.250000X0.225000X-0.250000X0*%
%ADD39RoundRect,0.250000X0.350000X-0.850000X0.350000X0.850000X-0.350000X0.850000X-0.350000X-0.850000X0*%
%ADD40RoundRect,0.249997X2.650003X-2.950003X2.650003X2.950003X-2.650003X2.950003X-2.650003X-2.950003X0*%
%ADD41R,2.000000X1.905000*%
%ADD42O,2.000000X1.905000*%
%ADD43C,1.800000*%
%ADD44R,2.600000X2.600000*%
%ADD45C,2.600000*%
%ADD46R,1.600000X1.600000*%
%ADD47C,1.600000*%
G04 APERTURE END LIST*
D10*
%TO.C,J3*%
X116099100Y-104803820D03*
X116099100Y-114796180D03*
X113597200Y-102301920D03*
X113599740Y-109800000D03*
X113597200Y-117298080D03*
X103602300Y-114801260D03*
X103602300Y-104798740D03*
%TD*%
D11*
%TO.C,SW2*%
X117425000Y-78100000D03*
X117425000Y-85100000D03*
%TD*%
D12*
%TO.C,H4*%
X196600000Y-125800000D03*
%TD*%
%TO.C,H3*%
X106600000Y-125800000D03*
%TD*%
%TO.C,H2*%
X197000000Y-55800000D03*
%TD*%
%TO.C,H1*%
X106600000Y-55800000D03*
%TD*%
D13*
%TO.C,J5*%
X124000000Y-125475000D03*
D14*
X126500000Y-125475000D03*
X129000000Y-125475000D03*
X131500000Y-125475000D03*
X134000000Y-125475000D03*
%TD*%
D13*
%TO.C,J4*%
X140000000Y-125475000D03*
D14*
X142500000Y-125475000D03*
X145000000Y-125475000D03*
X147500000Y-125475000D03*
X150000000Y-125475000D03*
%TD*%
D15*
%TO.C,D3*%
X124947500Y-81800000D03*
X123372500Y-81800000D03*
%TD*%
%TO.C,D2*%
X124947500Y-84000000D03*
X123372500Y-84000000D03*
%TD*%
D16*
%TO.C,U3*%
X136025000Y-102490000D03*
X136025000Y-103760000D03*
X136025000Y-105030000D03*
X136025000Y-106300000D03*
X136025000Y-107570000D03*
X136025000Y-108840000D03*
X136025000Y-110110000D03*
X140975000Y-110110000D03*
X140975000Y-108840000D03*
X140975000Y-107570000D03*
X140975000Y-106300000D03*
X140975000Y-105030000D03*
X140975000Y-103760000D03*
X140975000Y-102490000D03*
%TD*%
D17*
%TO.C,U2*%
X106850000Y-96530000D03*
X106850000Y-97800000D03*
X106850000Y-99070000D03*
X116350000Y-99070000D03*
X116350000Y-97800000D03*
X116350000Y-96530000D03*
%TD*%
D18*
%TO.C,U1*%
X134825000Y-82200000D03*
X134825000Y-83000000D03*
X134825000Y-83800000D03*
X134825000Y-84600000D03*
X134825000Y-85400000D03*
X134825000Y-86200000D03*
X134825000Y-87000000D03*
X134825000Y-87800000D03*
D19*
X136200000Y-89175000D03*
X137000000Y-89175000D03*
X137800000Y-89175000D03*
X138600000Y-89175000D03*
X139400000Y-89175000D03*
X140200000Y-89175000D03*
X141000000Y-89175000D03*
X141800000Y-89175000D03*
D18*
X143175000Y-87800000D03*
X143175000Y-87000000D03*
X143175000Y-86200000D03*
X143175000Y-85400000D03*
X143175000Y-84600000D03*
X143175000Y-83800000D03*
X143175000Y-83000000D03*
X143175000Y-82200000D03*
D19*
X141800000Y-80825000D03*
X141000000Y-80825000D03*
X140200000Y-80825000D03*
X139400000Y-80825000D03*
X138600000Y-80825000D03*
X137800000Y-80825000D03*
X137000000Y-80825000D03*
X136200000Y-80825000D03*
%TD*%
D20*
%TO.C,SW1*%
X158550000Y-78300000D03*
D21*
X158550000Y-83300000D03*
X158550000Y-80800000D03*
D22*
X166050000Y-75200000D03*
X166050000Y-86400000D03*
D21*
X173050000Y-83300000D03*
X173050000Y-78300000D03*
%TD*%
D23*
%TO.C,R31*%
X139000000Y-119325000D03*
X139000000Y-117675000D03*
%TD*%
%TO.C,R30*%
X131000000Y-119325000D03*
X131000000Y-117675000D03*
%TD*%
%TO.C,R29*%
X146000000Y-119325000D03*
X146000000Y-117675000D03*
%TD*%
D24*
%TO.C,R27*%
X128600000Y-108775000D03*
X128600000Y-110425000D03*
%TD*%
D23*
%TO.C,R26*%
X128600000Y-104025000D03*
X128600000Y-102375000D03*
%TD*%
D25*
%TO.C,R25*%
X148425000Y-110800000D03*
X146775000Y-110800000D03*
%TD*%
D26*
%TO.C,R23*%
X130375000Y-108800000D03*
X132025000Y-108800000D03*
%TD*%
%TO.C,R22*%
X130375000Y-104000000D03*
X132025000Y-104000000D03*
%TD*%
D25*
%TO.C,R21*%
X148425000Y-109000000D03*
X146775000Y-109000000D03*
%TD*%
%TO.C,R19*%
X132025000Y-110400000D03*
X130375000Y-110400000D03*
%TD*%
%TO.C,R18*%
X132025000Y-102400000D03*
X130375000Y-102400000D03*
%TD*%
D26*
%TO.C,R17*%
X150575000Y-109000000D03*
X152225000Y-109000000D03*
%TD*%
%TO.C,R15*%
X146775000Y-107200000D03*
X148425000Y-107200000D03*
%TD*%
%TO.C,R13*%
X150575000Y-107200000D03*
X152225000Y-107200000D03*
%TD*%
D25*
%TO.C,R12*%
X130225000Y-107200000D03*
X128575000Y-107200000D03*
%TD*%
%TO.C,R11*%
X130225000Y-105600000D03*
X128575000Y-105600000D03*
%TD*%
%TO.C,R9*%
X140325000Y-91500000D03*
X138675000Y-91500000D03*
%TD*%
%TO.C,R8*%
X128425000Y-81800000D03*
X126775000Y-81800000D03*
%TD*%
%TO.C,R7*%
X128425000Y-84000000D03*
X126775000Y-84000000D03*
%TD*%
%TO.C,R6*%
X147825000Y-82000000D03*
X146175000Y-82000000D03*
%TD*%
D26*
%TO.C,R5*%
X118275000Y-98800000D03*
X119925000Y-98800000D03*
%TD*%
%TO.C,R4*%
X130575000Y-84000000D03*
X132225000Y-84000000D03*
%TD*%
D25*
%TO.C,R3*%
X147825000Y-84000000D03*
X146175000Y-84000000D03*
%TD*%
%TO.C,R2*%
X147825000Y-86000000D03*
X146175000Y-86000000D03*
%TD*%
D26*
%TO.C,R1*%
X146175000Y-80100000D03*
X147825000Y-80100000D03*
%TD*%
D27*
%TO.C,J2*%
X151875000Y-79950000D03*
D28*
X153145000Y-79950000D03*
X151875000Y-81220000D03*
X153145000Y-81220000D03*
X151875000Y-82490000D03*
X153145000Y-82490000D03*
X151875000Y-83760000D03*
X153145000Y-83760000D03*
X151875000Y-85030000D03*
X153145000Y-85030000D03*
%TD*%
D29*
%TO.C,J1*%
X142300000Y-76000000D03*
D30*
X139760000Y-76000000D03*
X137220000Y-76000000D03*
X134680000Y-76000000D03*
%TD*%
D31*
%TO.C,D11*%
X143500000Y-119600000D03*
X143500000Y-117400000D03*
%TD*%
%TO.C,D10*%
X141000000Y-119600000D03*
X141000000Y-117400000D03*
%TD*%
%TO.C,D9*%
X135500000Y-119600000D03*
X135500000Y-117400000D03*
%TD*%
%TO.C,D8*%
X133000000Y-119577500D03*
X133000000Y-117377500D03*
%TD*%
%TO.C,D7*%
X151000000Y-119577500D03*
X151000000Y-117377500D03*
%TD*%
%TO.C,D6*%
X148477500Y-119577500D03*
X148477500Y-117377500D03*
%TD*%
D32*
%TO.C,D1*%
X104600000Y-96750000D03*
X104600000Y-98850000D03*
%TD*%
D33*
%TO.C,C14*%
X133800000Y-108825000D03*
X133800000Y-110375000D03*
%TD*%
D34*
%TO.C,C13*%
X133800000Y-103975000D03*
X133800000Y-102425000D03*
%TD*%
D35*
%TO.C,C12*%
X143225000Y-110200000D03*
X144775000Y-110200000D03*
%TD*%
D36*
%TO.C,C6*%
X126600000Y-110350000D03*
X126600000Y-108450000D03*
%TD*%
D37*
%TO.C,C5*%
X126600000Y-102450000D03*
X126600000Y-104350000D03*
%TD*%
D35*
%TO.C,C4*%
X118325000Y-96800000D03*
X119875000Y-96800000D03*
%TD*%
%TO.C,C3*%
X142225000Y-91500000D03*
X143775000Y-91500000D03*
%TD*%
%TO.C,C2*%
X146225000Y-88000000D03*
X147775000Y-88000000D03*
%TD*%
D38*
%TO.C,C1*%
X132175000Y-81800000D03*
X130625000Y-81800000D03*
%TD*%
D39*
%TO.C,U6*%
X182720000Y-84200000D03*
X185000000Y-84200000D03*
D40*
X185000000Y-77900000D03*
D39*
X187280000Y-84200000D03*
%TD*%
D41*
%TO.C,U5*%
X197555000Y-65960000D03*
D42*
X197555000Y-68500000D03*
X197555000Y-71040000D03*
%TD*%
D41*
%TO.C,U4*%
X197555000Y-77960000D03*
D42*
X197555000Y-80500000D03*
X197555000Y-83040000D03*
%TD*%
D43*
%TO.C,TH2*%
X121850000Y-53750000D03*
X119150000Y-61250000D03*
%TD*%
%TO.C,TH1*%
X121850000Y-66750000D03*
X119150000Y-74250000D03*
%TD*%
D23*
%TO.C,R28*%
X124500000Y-119325000D03*
X124500000Y-117675000D03*
%TD*%
D25*
%TO.C,R24*%
X148425000Y-101800000D03*
X146775000Y-101800000D03*
%TD*%
%TO.C,R20*%
X148425000Y-103600000D03*
X146775000Y-103600000D03*
%TD*%
D26*
%TO.C,R16*%
X150575000Y-103600000D03*
X152225000Y-103600000D03*
%TD*%
%TO.C,R14*%
X146775000Y-105400000D03*
X148425000Y-105400000D03*
%TD*%
%TO.C,R10*%
X150575000Y-105400000D03*
X152225000Y-105400000D03*
%TD*%
D29*
%TO.C,J12*%
X188140000Y-126420000D03*
D30*
X185600000Y-126420000D03*
X188140000Y-123880000D03*
X185600000Y-123880000D03*
X188140000Y-121340000D03*
X185600000Y-121340000D03*
X188140000Y-118800000D03*
X185600000Y-118800000D03*
X188140000Y-116260000D03*
X185600000Y-116260000D03*
%TD*%
D29*
%TO.C,J11*%
X187875000Y-103875000D03*
D30*
X185335000Y-103875000D03*
X187875000Y-101335000D03*
X185335000Y-101335000D03*
X187875000Y-98795000D03*
X185335000Y-98795000D03*
X187875000Y-96255000D03*
X185335000Y-96255000D03*
X187875000Y-93715000D03*
X185335000Y-93715000D03*
%TD*%
D29*
%TO.C,J10*%
X163875000Y-103875000D03*
D30*
X161335000Y-103875000D03*
X163875000Y-101335000D03*
X161335000Y-101335000D03*
X163875000Y-98795000D03*
X161335000Y-98795000D03*
X163875000Y-96255000D03*
X161335000Y-96255000D03*
X163875000Y-93715000D03*
X161335000Y-93715000D03*
%TD*%
D29*
%TO.C,J9*%
X176140000Y-103875000D03*
D30*
X173600000Y-103875000D03*
X176140000Y-101335000D03*
X173600000Y-101335000D03*
X176140000Y-98795000D03*
X173600000Y-98795000D03*
X176140000Y-96255000D03*
X173600000Y-96255000D03*
X176140000Y-93715000D03*
X173600000Y-93715000D03*
%TD*%
D29*
%TO.C,J8*%
X164140000Y-126420000D03*
D30*
X161600000Y-126420000D03*
X164140000Y-123880000D03*
X161600000Y-123880000D03*
X164140000Y-121340000D03*
X161600000Y-121340000D03*
X164140000Y-118800000D03*
X161600000Y-118800000D03*
X164140000Y-116260000D03*
X161600000Y-116260000D03*
%TD*%
D29*
%TO.C,J7*%
X176140000Y-126420000D03*
D30*
X173600000Y-126420000D03*
X176140000Y-123880000D03*
X173600000Y-123880000D03*
X176140000Y-121340000D03*
X173600000Y-121340000D03*
X176140000Y-118800000D03*
X173600000Y-118800000D03*
X176140000Y-116260000D03*
X173600000Y-116260000D03*
%TD*%
D44*
%TO.C,J6*%
X113800000Y-68050000D03*
D45*
X107800000Y-68050000D03*
X110800000Y-72750000D03*
%TD*%
D31*
%TO.C,D5*%
X128977500Y-119577500D03*
X128977500Y-117377500D03*
%TD*%
%TO.C,D4*%
X126500000Y-119600000D03*
X126500000Y-117400000D03*
%TD*%
D46*
%TO.C,C34*%
X193000000Y-69544887D03*
D47*
X193000000Y-71544887D03*
%TD*%
D46*
%TO.C,C33*%
X193000000Y-82044888D03*
D47*
X193000000Y-84044888D03*
%TD*%
D46*
%TO.C,C32*%
X177500000Y-76044887D03*
D47*
X177500000Y-78044887D03*
%TD*%
D46*
%TO.C,C29*%
X193000000Y-77955113D03*
D47*
X193000000Y-75955113D03*
%TD*%
D20*
%TO.C,C28*%
X184500000Y-59367677D03*
D21*
X184500000Y-54367677D03*
%TD*%
D20*
%TO.C,C27*%
X184500000Y-70367677D03*
D21*
X184500000Y-65367677D03*
%TD*%
D38*
%TO.C,C26*%
X144775000Y-106300000D03*
X143225000Y-106300000D03*
%TD*%
%TO.C,C25*%
X133775000Y-106300000D03*
X132225000Y-106300000D03*
%TD*%
D20*
%TO.C,C24*%
X173500000Y-59367677D03*
D21*
X173500000Y-54367677D03*
%TD*%
D20*
%TO.C,C23*%
X173500000Y-70367677D03*
D21*
X173500000Y-65367677D03*
%TD*%
D20*
%TO.C,C22*%
X162500000Y-59367677D03*
D21*
X162500000Y-54367677D03*
%TD*%
D20*
%TO.C,C21*%
X162500000Y-70367677D03*
D21*
X162500000Y-65367677D03*
%TD*%
D20*
%TO.C,C20*%
X151500000Y-59367677D03*
D21*
X151500000Y-54367677D03*
%TD*%
D20*
%TO.C,C19*%
X151500000Y-70367677D03*
D21*
X151500000Y-65367677D03*
%TD*%
D20*
%TO.C,C18*%
X140500000Y-59367677D03*
D21*
X140500000Y-54367677D03*
%TD*%
D20*
%TO.C,C17*%
X140500000Y-70367677D03*
D21*
X140500000Y-65367677D03*
%TD*%
D20*
%TO.C,C16*%
X129500000Y-59367677D03*
D21*
X129500000Y-54367677D03*
%TD*%
D20*
%TO.C,C15*%
X129500000Y-70367677D03*
D21*
X129500000Y-65367677D03*
%TD*%
D35*
%TO.C,C11*%
X143225000Y-102400000D03*
X144775000Y-102400000D03*
%TD*%
D38*
%TO.C,C10*%
X152175000Y-110800000D03*
X150625000Y-110800000D03*
%TD*%
%TO.C,C9*%
X152175000Y-101800000D03*
X150625000Y-101800000D03*
%TD*%
D35*
%TO.C,C8*%
X143225000Y-108200000D03*
X144775000Y-108200000D03*
%TD*%
%TO.C,C7*%
X143225000Y-104400000D03*
X144775000Y-104400000D03*
%TD*%
M02*
