M48
; DRILL file {KiCad 8.0.0} date 2024-07-13T20:22:56-0700
; FORMAT={-:-/ absolute / inch / decimal}
; #@! TF.CreationDate,2024-07-13T20:22:56-07:00
; #@! TF.GenerationSoftware,Kicad,Pcbnew,8.0.0
; #@! TF.FileFunction,Plated,1,2,PTH
FMAT,2
INCH
; #@! TA.AperFunction,Plated,PTH,ViaDrill
T1C0.0118
; #@! TA.AperFunction,Plated,PTH,ComponentDrill
T2C0.0256
; #@! TA.AperFunction,Plated,PTH,ComponentDrill
T3C0.0315
; #@! TA.AperFunction,Plated,PTH,ComponentDrill
T4C0.0374
; #@! TA.AperFunction,Plated,PTH,ComponentDrill
T5C0.0394
; #@! TA.AperFunction,Plated,PTH,ComponentDrill
T6C0.0433
; #@! TA.AperFunction,Plated,PTH,ComponentDrill
T7C0.0550
; #@! TA.AperFunction,Plated,PTH,ComponentDrill
T8C0.0591
; #@! TA.AperFunction,Plated,PTH,ComponentDrill
T9C0.0630
; #@! TA.AperFunction,Plated,PTH,ComponentDrill
T10C0.0669
; #@! TA.AperFunction,Plated,PTH,ComponentDrill
T11C0.1260
%
G90
G05
T1
X4.5315Y-3.9016
X4.7598Y-3.811
X4.7638Y-3.7441
X4.9449Y-4.622
X4.9843Y-3.9961
X4.9843Y-4.3858
X5.0197Y-4.1575
X5.0197Y-4.2205
X5.0787Y-4.5827
X5.0984Y-3.2205
X5.0984Y-4.0945
X5.0984Y-4.2825
X5.133Y-3.9953
X5.1339Y-4.3809
X5.1693Y-4.185
X5.2047Y-3.1693
X5.2293Y-3.3307
X5.2854Y-4.6594
X5.3228Y-3.1811
X5.3346Y-4.5827
X5.3583Y-3.3622
X5.3583Y-3.3937
X5.3622Y-3.5827
X5.3937Y-3.563
X5.4252Y-3.4606
X5.4567Y-3.4606
X5.4803Y-3.4331
X5.5197Y-3.5591
X5.5512Y-4.5787
X5.5827Y-3.3317
X5.6133Y-3.5163
X5.626Y-3.0827
X5.6496Y-4.5827
X5.6614Y-3.5591
X5.6654Y-3.0827
X5.7047Y-3.2244
X5.7047Y-3.3425
X5.7156Y-3.2677
X5.7205Y-3.3858
X5.7402Y-4.1102
X5.7402Y-4.185
X5.7402Y-4.2598
X5.7913Y-4.6329
X5.8583Y-3.4646
X5.8858Y-4.0079
X5.8858Y-4.3622
X5.9449Y-4.5827
X6.0315Y-4.0787
X6.0315Y-4.1496
X6.0315Y-4.2913
X6.063Y-4.2205
X7.1929Y-3.3819
T2
X5.9793Y-3.1476
X5.9793Y-3.1976
X5.9793Y-3.2476
X5.9793Y-3.2976
X5.9793Y-3.3476
X6.0293Y-3.1476
X6.0293Y-3.1976
X6.0293Y-3.2476
X6.0293Y-3.2976
X6.0293Y-3.3476
T3
X4.6909Y-2.4114
X4.6909Y-2.9232
X4.7972Y-2.1161
X4.7972Y-2.628
X6.9882Y-2.9939
X6.9882Y-3.0726
X7.5984Y-2.738
X7.5984Y-2.8167
X7.5984Y-2.9904
X7.5984Y-3.0691
X7.5984Y-3.2301
X7.5984Y-3.3089
T4
X4.8819Y-4.94
X4.9803Y-4.94
X5.0787Y-4.94
X5.1772Y-4.94
X5.2756Y-4.94
X5.5118Y-4.94
X5.6102Y-4.94
X5.7087Y-4.94
X5.8071Y-4.94
X5.9055Y-4.94
T5
X5.0984Y-2.1405
X5.0984Y-2.3373
X5.0984Y-2.5735
X5.0984Y-2.7704
X5.3024Y-2.9921
X5.4024Y-2.9921
X5.5024Y-2.9921
X5.5315Y-2.1405
X5.5315Y-2.3373
X5.5315Y-2.5735
X5.5315Y-2.7704
X5.6024Y-2.9921
X5.9646Y-2.1405
X5.9646Y-2.3373
X5.9646Y-2.5735
X5.9646Y-2.7704
X6.2421Y-3.0827
X6.2421Y-3.1811
X6.2421Y-3.2795
X6.3518Y-3.6896
X6.3518Y-3.7896
X6.3518Y-3.8896
X6.3518Y-3.9896
X6.3518Y-4.0896
X6.3622Y-4.5772
X6.3622Y-4.6772
X6.3622Y-4.7772
X6.3622Y-4.8772
X6.3622Y-4.9772
X6.3976Y-2.1405
X6.3976Y-2.3373
X6.3976Y-2.5735
X6.3976Y-2.7704
X6.4518Y-3.6896
X6.4518Y-3.7896
X6.4518Y-3.8896
X6.4518Y-3.9896
X6.4518Y-4.0896
X6.4622Y-4.5772
X6.4622Y-4.6772
X6.4622Y-4.7772
X6.4622Y-4.8772
X6.4622Y-4.9772
X6.813Y-3.0827
X6.813Y-3.2795
X6.8307Y-2.1405
X6.8307Y-2.3373
X6.8307Y-2.5735
X6.8307Y-2.7704
X6.8346Y-3.6896
X6.8346Y-3.7896
X6.8346Y-3.8896
X6.8346Y-3.9896
X6.8346Y-4.0896
X6.8346Y-4.5772
X6.8346Y-4.6772
X6.8346Y-4.7772
X6.8346Y-4.8772
X6.8346Y-4.9772
X6.9346Y-3.6896
X6.9346Y-3.7896
X6.9346Y-3.8896
X6.9346Y-3.9896
X6.9346Y-4.0896
X6.9346Y-4.5772
X6.9346Y-4.6772
X6.9346Y-4.7772
X6.9346Y-4.8772
X6.9346Y-4.9772
X7.2638Y-2.1405
X7.2638Y-2.3373
X7.2638Y-2.5735
X7.2638Y-2.7704
X7.2967Y-3.6896
X7.2967Y-3.7896
X7.2967Y-3.8896
X7.2967Y-3.9896
X7.2967Y-4.0896
X7.3071Y-4.5772
X7.3071Y-4.6772
X7.3071Y-4.7772
X7.3071Y-4.8772
X7.3071Y-4.9772
X7.3967Y-3.6896
X7.3967Y-3.7896
X7.3967Y-3.8896
X7.3967Y-3.9896
X7.3967Y-4.0896
X7.4071Y-4.5772
X7.4071Y-4.6772
X7.4071Y-4.7772
X7.4071Y-4.8772
X7.4071Y-4.9772
T6
X7.7778Y-2.5969
X7.7778Y-2.6969
X7.7778Y-2.7969
X7.7778Y-3.0693
X7.7778Y-3.1693
X7.7778Y-3.2693
T7
X4.4723Y-4.0276
X4.4723Y-4.618
X4.4724Y-4.3228
X4.5708Y-4.1261
X4.5708Y-4.5195
T9
X4.2441Y-2.6791
X4.3622Y-2.8642
X4.4803Y-2.6791
T10
X4.623Y-3.0748
X4.623Y-3.3504
T11
X4.1969Y-2.1969
X4.1969Y-4.9528
X7.7402Y-4.9528
X7.7559Y-2.1969
T8
G00X6.5118Y-2.9606
M15
G01X6.563Y-2.9606
M16
G05
G00X6.5118Y-3.4016
M15
G01X6.563Y-3.4016
M16
G05
M30
