M48
; DRILL file {KiCad 8.0.0} date 2024-08-08T14:00:14-0700
; FORMAT={-:-/ absolute / inch / decimal}
; #@! TF.CreationDate,2024-08-08T14:00:14-07:00
; #@! TF.GenerationSoftware,Kicad,Pcbnew,8.0.0
; #@! TF.FileFunction,Plated,1,2,PTH
FMAT,2
INCH
; #@! TA.AperFunction,Plated,PTH,ViaDrill
T1C0.0118
; #@! TA.AperFunction,Plated,PTH,ComponentDrill
T2C0.0295
; #@! TA.AperFunction,Plated,PTH,ComponentDrill
T3C0.0315
; #@! TA.AperFunction,Plated,PTH,ComponentDrill
T4C0.0354
; #@! TA.AperFunction,Plated,PTH,ComponentDrill
T5C0.0394
; #@! TA.AperFunction,Plated,PTH,ComponentDrill
T6C0.0433
; #@! TA.AperFunction,Plated,PTH,ComponentDrill
T7C0.0480
; #@! TA.AperFunction,Plated,PTH,ComponentDrill
T8C0.0559
; #@! TA.AperFunction,Plated,PTH,ComponentDrill
T9C0.0563
%
G90
G05
T1
X2.0Y-4.1614
X2.0Y-4.5591
X2.0591Y-3.5906
X2.0866Y-4.4685
X2.2205Y-4.9015
X2.2283Y-4.8268
X2.248Y-2.7992
X2.2638Y-4.1575
X2.3031Y-4.6457
X2.3819Y-5.2205
X2.4213Y-4.2992
X2.4213Y-4.6654
X2.4252Y-4.0709
X2.4409Y-2.4213
X2.4444Y-5.1378
X2.4685Y-3.5394
X2.4961Y-3.1693
X2.5Y-4.5079
X2.5197Y-3.6299
X2.5278Y-3.0508
X2.5433Y-3.2362
X2.5512Y-3.5945
X2.5551Y-2.5906
X2.5591Y-4.6457
X2.5748Y-4.4291
X2.5787Y-2.7992
X2.5984Y-2.7323
X2.5984Y-2.7677
X2.6181Y-2.9764
X2.6181Y-3.8701
X2.6181Y-4.9409
X2.622Y-2.878
X2.6673Y-4.4074
X2.6702Y-4.5482
X2.6723Y-3.2244
X2.6811Y-2.9134
X2.6929Y-4.8268
X2.7047Y-3.4685
X2.7206Y-3.8703
X2.7362Y-2.9134
X2.7441Y-3.3031
X2.8465Y-3.2756
X2.8701Y-3.248
X2.874Y-2.9134
X2.8937Y-5.1457
T2
X2.0528Y-2.2138
X2.0528Y-2.2638
X2.0528Y-2.3138
T3
X2.0311Y-2.0669
X2.0866Y-2.6957
X2.0866Y-2.7957
X2.0866Y-2.8957
X2.1098Y-2.0669
X2.2244Y-3.1283
X2.2244Y-3.2283
X2.2244Y-3.3283
X2.2244Y-3.86
X2.2244Y-3.9388
X2.5595Y-2.3622
X2.5612Y-2.1396
X2.6382Y-2.3622
X2.64Y-2.1396
X2.7988Y-2.7362
X2.8776Y-2.7362
T4
X2.4606Y-5.3636
X2.4606Y-5.4636
T5
X2.126Y-3.5128
X2.126Y-4.1033
X2.2244Y-3.5128
X2.2244Y-4.1033
X2.3228Y-3.5128
X2.3228Y-4.1033
X2.3622Y-2.9222
X2.4606Y-2.9222
X2.4606Y-5.6289
X2.4606Y-5.7289
X2.4606Y-5.8289
X2.5591Y-2.9222
X2.5984Y-3.6526
X2.6969Y-3.6526
X2.7848Y-2.1441
X2.7848Y-2.2441
X2.7848Y-2.3441
X2.7848Y-2.4441
X2.7848Y-2.5441
X2.7953Y-3.6526
X2.8848Y-2.1441
X2.8848Y-2.2441
X2.8848Y-2.3441
X2.8848Y-2.4441
X2.8848Y-2.5441
T7
X2.1654Y-4.2283
X2.1654Y-4.811
X2.1654Y-5.3937
X2.2047Y-2.0276
X2.7559Y-4.2283
X2.7559Y-4.811
X2.7559Y-5.3937
T8
X2.1654Y-4.3504
X2.1654Y-4.9331
X2.1654Y-5.5157
X2.3268Y-2.0276
X2.7559Y-4.3504
X2.7559Y-4.9331
X2.7559Y-5.5157
T9
X2.1654Y-4.6772
X2.1654Y-5.2598
X2.1654Y-5.8425
X2.6535Y-2.0276
X2.7559Y-4.6772
X2.7559Y-5.2598
X2.7559Y-5.8425
T6
G00X2.0354Y-3.2313
M15
G01X2.0354Y-3.2037
M16
G05
G00X2.0354Y-3.8219
M15
G01X2.0354Y-3.7943
M16
G05
G00X2.2717Y-2.6407
M15
G01X2.2717Y-2.6132
M16
G05
G00X2.4134Y-3.2313
M15
G01X2.4134Y-3.2037
M16
G05
G00X2.4134Y-3.8219
M15
G01X2.4134Y-3.7943
M16
G05
G00X2.5079Y-3.9341
M15
G01X2.5079Y-3.9616
M16
G05
G00X2.6496Y-2.6407
M15
G01X2.6496Y-2.6132
M16
G05
G00X2.8858Y-3.9341
M15
G01X2.8858Y-3.9616
M16
G05
M30
