%TF.GenerationSoftware,KiCad,Pcbnew,8.0.0*%
%TF.CreationDate,2024-08-08T14:00:08-07:00*%
%TF.ProjectId,vco,76636f2e-6b69-4636-9164-5f7063625858,rev?*%
%TF.SameCoordinates,Original*%
%TF.FileFunction,Copper,L2,Bot*%
%TF.FilePolarity,Positive*%
%FSLAX46Y46*%
G04 Gerber Fmt 4.6, Leading zero omitted, Abs format (unit mm)*
G04 Created by KiCad (PCBNEW 8.0.0) date 2024-08-08 14:00:08*
%MOMM*%
%LPD*%
G01*
G04 APERTURE LIST*
G04 Aperture macros list*
%AMRoundRect*
0 Rectangle with rounded corners*
0 $1 Rounding radius*
0 $2 $3 $4 $5 $6 $7 $8 $9 X,Y pos of 4 corners*
0 Add a 4 corners polygon primitive as box body*
4,1,4,$2,$3,$4,$5,$6,$7,$8,$9,$2,$3,0*
0 Add four circle primitives for the rounded corners*
1,1,$1+$1,$2,$3*
1,1,$1+$1,$4,$5*
1,1,$1+$1,$6,$7*
1,1,$1+$1,$8,$9*
0 Add four rect primitives between the rounded corners*
20,1,$1+$1,$2,$3,$4,$5,0*
20,1,$1+$1,$4,$5,$6,$7,0*
20,1,$1+$1,$6,$7,$8,$9,0*
20,1,$1+$1,$8,$9,$2,$3,0*%
G04 Aperture macros list end*
%TA.AperFunction,SMDPad,CuDef*%
%ADD10RoundRect,0.237500X-0.237500X0.300000X-0.237500X-0.300000X0.237500X-0.300000X0.237500X0.300000X0*%
%TD*%
%TA.AperFunction,ComponentPad*%
%ADD11R,1.600000X1.600000*%
%TD*%
%TA.AperFunction,ComponentPad*%
%ADD12C,1.600000*%
%TD*%
%TA.AperFunction,SMDPad,CuDef*%
%ADD13RoundRect,0.237500X0.237500X-0.300000X0.237500X0.300000X-0.237500X0.300000X-0.237500X-0.300000X0*%
%TD*%
%TA.AperFunction,SMDPad,CuDef*%
%ADD14RoundRect,0.237500X-0.300000X-0.237500X0.300000X-0.237500X0.300000X0.237500X-0.300000X0.237500X0*%
%TD*%
%TA.AperFunction,SMDPad,CuDef*%
%ADD15RoundRect,0.150000X-0.825000X-0.150000X0.825000X-0.150000X0.825000X0.150000X-0.825000X0.150000X0*%
%TD*%
%TA.AperFunction,ComponentPad*%
%ADD16O,2.720000X3.240000*%
%TD*%
%TA.AperFunction,ComponentPad*%
%ADD17R,1.800000X1.800000*%
%TD*%
%TA.AperFunction,ComponentPad*%
%ADD18C,1.800000*%
%TD*%
%TA.AperFunction,ComponentPad*%
%ADD19C,1.440000*%
%TD*%
%TA.AperFunction,ComponentPad*%
%ADD20R,1.500000X1.050000*%
%TD*%
%TA.AperFunction,ComponentPad*%
%ADD21O,1.500000X1.050000*%
%TD*%
%TA.AperFunction,SMDPad,CuDef*%
%ADD22RoundRect,0.375000X0.625000X0.375000X-0.625000X0.375000X-0.625000X-0.375000X0.625000X-0.375000X0*%
%TD*%
%TA.AperFunction,SMDPad,CuDef*%
%ADD23RoundRect,0.500000X0.500000X1.400000X-0.500000X1.400000X-0.500000X-1.400000X0.500000X-1.400000X0*%
%TD*%
%TA.AperFunction,SMDPad,CuDef*%
%ADD24RoundRect,0.150000X0.825000X0.150000X-0.825000X0.150000X-0.825000X-0.150000X0.825000X-0.150000X0*%
%TD*%
%TA.AperFunction,SMDPad,CuDef*%
%ADD25RoundRect,0.150000X0.150000X-0.825000X0.150000X0.825000X-0.150000X0.825000X-0.150000X-0.825000X0*%
%TD*%
%TA.AperFunction,SMDPad,CuDef*%
%ADD26RoundRect,0.237500X-0.237500X0.250000X-0.237500X-0.250000X0.237500X-0.250000X0.237500X0.250000X0*%
%TD*%
%TA.AperFunction,SMDPad,CuDef*%
%ADD27RoundRect,0.237500X0.237500X-0.250000X0.237500X0.250000X-0.237500X0.250000X-0.237500X-0.250000X0*%
%TD*%
%TA.AperFunction,SMDPad,CuDef*%
%ADD28RoundRect,0.237500X-0.250000X-0.237500X0.250000X-0.237500X0.250000X0.237500X-0.250000X0.237500X0*%
%TD*%
%TA.AperFunction,SMDPad,CuDef*%
%ADD29RoundRect,0.237500X0.250000X0.237500X-0.250000X0.237500X-0.250000X-0.237500X0.250000X-0.237500X0*%
%TD*%
%TA.AperFunction,ComponentPad*%
%ADD30R,1.930000X1.830000*%
%TD*%
%TA.AperFunction,ComponentPad*%
%ADD31C,2.130000*%
%TD*%
%TA.AperFunction,ComponentPad*%
%ADD32R,1.700000X1.700000*%
%TD*%
%TA.AperFunction,ComponentPad*%
%ADD33O,1.700000X1.700000*%
%TD*%
%TA.AperFunction,ComponentPad*%
%ADD34R,1.830000X1.930000*%
%TD*%
%TA.AperFunction,ViaPad*%
%ADD35C,0.600000*%
%TD*%
%TA.AperFunction,Conductor*%
%ADD36C,0.200000*%
%TD*%
%TA.AperFunction,Conductor*%
%ADD37C,0.500000*%
%TD*%
%TA.AperFunction,Profile*%
%ADD38C,0.050000*%
%TD*%
G04 APERTURE END LIST*
D10*
%TO.P,C5,1*%
%TO.N,Net-(U1-TCAP)*%
X63637500Y-88137500D03*
%TO.P,C5,2*%
%TO.N,GND*%
X63637500Y-89862500D03*
%TD*%
D11*
%TO.P,C1,1*%
%TO.N,Net-(C1-Pad1)*%
X56500000Y-98044888D03*
D12*
%TO.P,C1,2*%
%TO.N,Net-(C1-Pad2)*%
X56500000Y-100044888D03*
%TD*%
D13*
%TO.P,C11,1*%
%TO.N,GND*%
X53000000Y-112462500D03*
%TO.P,C11,2*%
%TO.N,Net-(U3B-+)*%
X53000000Y-110737500D03*
%TD*%
D10*
%TO.P,C10,1*%
%TO.N,-12V*%
X67500000Y-122637500D03*
%TO.P,C10,2*%
%TO.N,GND*%
X67500000Y-124362500D03*
%TD*%
D13*
%TO.P,C9,1*%
%TO.N,Net-(U3A--)*%
X67500000Y-107362500D03*
%TO.P,C9,2*%
%TO.N,Net-(C9-Pad2)*%
X67500000Y-105637500D03*
%TD*%
%TO.P,C8,1*%
%TO.N,Net-(U2C--)*%
X67500000Y-120862500D03*
%TO.P,C8,2*%
%TO.N,Net-(C8-Pad2)*%
X67500000Y-119137500D03*
%TD*%
%TO.P,C7,1*%
%TO.N,Net-(U2B--)*%
X57500000Y-120862500D03*
%TO.P,C7,2*%
%TO.N,Net-(C7-Pad2)*%
X57500000Y-119137500D03*
%TD*%
D10*
%TO.P,C6,1*%
%TO.N,Net-(U2A--)*%
X57500000Y-126137500D03*
%TO.P,C6,2*%
%TO.N,Net-(C6-Pad2)*%
X57500000Y-127862500D03*
%TD*%
%TO.P,C4,1*%
%TO.N,Net-(J6-Pin_3)*%
X66500000Y-76637500D03*
%TO.P,C4,2*%
%TO.N,Net-(U1-SOFT_SYNC)*%
X66500000Y-78362500D03*
%TD*%
%TO.P,C3,1*%
%TO.N,Net-(J6-Pin_1)*%
X63500000Y-76637500D03*
%TO.P,C3,2*%
%TO.N,Net-(U1-HARD_SYNC)*%
X63500000Y-78362500D03*
%TD*%
D14*
%TO.P,C2,1*%
%TO.N,Net-(C2-Pad1)*%
X71137500Y-75000000D03*
%TO.P,C2,2*%
%TO.N,GND*%
X72862500Y-75000000D03*
%TD*%
D15*
%TO.P,U2,1*%
%TO.N,Net-(C6-Pad2)*%
X60000000Y-126850000D03*
%TO.P,U2,2,-*%
%TO.N,Net-(U2A--)*%
X60000000Y-125580000D03*
%TO.P,U2,3,+*%
%TO.N,Net-(U2A-+)*%
X60000000Y-124310000D03*
%TO.P,U2,4,V+*%
%TO.N,+12V*%
X60000000Y-123040000D03*
%TO.P,U2,5,+*%
%TO.N,Net-(U2B-+)*%
X60000000Y-121770000D03*
%TO.P,U2,6,-*%
%TO.N,Net-(U2B--)*%
X60000000Y-120500000D03*
%TO.P,U2,7*%
%TO.N,Net-(C7-Pad2)*%
X60000000Y-119230000D03*
%TO.P,U2,8*%
%TO.N,Net-(C8-Pad2)*%
X64950000Y-119230000D03*
%TO.P,U2,9,-*%
%TO.N,Net-(U2C--)*%
X64950000Y-120500000D03*
%TO.P,U2,10,+*%
%TO.N,Net-(U2C-+)*%
X64950000Y-121770000D03*
%TO.P,U2,11,V-*%
%TO.N,-12V*%
X64950000Y-123040000D03*
%TO.P,U2,12,+*%
%TO.N,GND*%
X64950000Y-124310000D03*
%TO.P,U2,13,-*%
%TO.N,Net-(D1-AK)*%
X64950000Y-125580000D03*
%TO.P,U2,14*%
%TO.N,Net-(R25-Pad2)*%
X64950000Y-126850000D03*
%TD*%
D16*
%TO.P,RV7,*%
%TO.N,*%
X51700000Y-96725000D03*
X61300000Y-96725000D03*
D17*
%TO.P,RV7,1,1*%
%TO.N,GND*%
X54000000Y-104225000D03*
D18*
%TO.P,RV7,2,2*%
%TO.N,Net-(C1-Pad2)*%
X56500000Y-104225000D03*
%TO.P,RV7,3,3*%
%TO.N,Net-(J4-PadT)*%
X59000000Y-104225000D03*
%TD*%
D19*
%TO.P,RV6,3,3*%
%TO.N,+2V5*%
X53000000Y-68470000D03*
%TO.P,RV6,2,2*%
%TO.N,Net-(R4-Pad1)*%
X53000000Y-71010000D03*
%TO.P,RV6,1,1*%
X53000000Y-73550000D03*
%TD*%
D16*
%TO.P,RV5,*%
%TO.N,*%
X57700000Y-66725000D03*
X67300000Y-66725000D03*
D17*
%TO.P,RV5,1,1*%
%TO.N,GND*%
X60000000Y-74225000D03*
D18*
%TO.P,RV5,2,2*%
%TO.N,Net-(R2-Pad1)*%
X62500000Y-74225000D03*
%TO.P,RV5,3,3*%
%TO.N,+12V*%
X65000000Y-74225000D03*
%TD*%
D16*
%TO.P,RV4,*%
%TO.N,*%
X51700000Y-81725000D03*
X61300000Y-81725000D03*
D17*
%TO.P,RV4,1,1*%
%TO.N,-12V*%
X54000000Y-89225000D03*
D18*
%TO.P,RV4,2,2*%
%TO.N,Net-(R5-Pad1)*%
X56500000Y-89225000D03*
%TO.P,RV4,3,3*%
%TO.N,+12V*%
X59000000Y-89225000D03*
%TD*%
D19*
%TO.P,RV3,1,1*%
%TO.N,GND*%
X56500000Y-79460000D03*
%TO.P,RV3,2,2*%
%TO.N,Net-(R1-Pad2)*%
X56500000Y-82000000D03*
%TO.P,RV3,3,3*%
%TO.N,Net-(U1-HF_TRACK)*%
X56500000Y-84540000D03*
%TD*%
D16*
%TO.P,RV2,*%
%TO.N,*%
X73300000Y-100275000D03*
X63700000Y-100275000D03*
D17*
%TO.P,RV2,1,1*%
%TO.N,Net-(R31-Pad2)*%
X71000000Y-92775000D03*
D18*
%TO.P,RV2,2,2*%
%TO.N,Net-(J3-PadTN)*%
X68500000Y-92775000D03*
%TO.P,RV2,3,3*%
%TO.N,+5V*%
X66000000Y-92775000D03*
%TD*%
D20*
%TO.P,U5,1*%
%TO.N,N/C*%
X52140000Y-56230000D03*
D21*
%TO.P,U5,2,K*%
%TO.N,+2V5*%
X52140000Y-57500000D03*
%TO.P,U5,3,A*%
%TO.N,GND*%
X52140000Y-58770000D03*
%TD*%
D22*
%TO.P,U4,1,GND*%
%TO.N,GND*%
X62000000Y-55200000D03*
%TO.P,U4,2,VO*%
%TO.N,+5V*%
X62000000Y-57500000D03*
D23*
X55700000Y-57500000D03*
D22*
%TO.P,U4,3,VI*%
%TO.N,+12V*%
X62000000Y-59800000D03*
%TD*%
D24*
%TO.P,U3,1*%
%TO.N,Net-(C9-Pad2)*%
X64910000Y-106660000D03*
%TO.P,U3,2,-*%
%TO.N,Net-(U3A--)*%
X64910000Y-107930000D03*
%TO.P,U3,3,+*%
%TO.N,Net-(U3A-+)*%
X64910000Y-109200000D03*
%TO.P,U3,4,V-*%
%TO.N,-12V*%
X64910000Y-110470000D03*
%TO.P,U3,5,+*%
%TO.N,Net-(U3B-+)*%
X59960000Y-110470000D03*
%TO.P,U3,6,-*%
%TO.N,+1V25*%
X59960000Y-109200000D03*
%TO.P,U3,7*%
X59960000Y-107930000D03*
%TO.P,U3,8,V+*%
%TO.N,+12V*%
X59960000Y-106660000D03*
%TD*%
D25*
%TO.P,U1,1,SAW_OUT*%
%TO.N,Net-(U1-SAW_OUT)*%
X72945000Y-85475000D03*
%TO.P,U1,2,PULSE_OUT*%
%TO.N,Net-(U1-PULSE_OUT)*%
X71675000Y-85475000D03*
%TO.P,U1,3,PWM_CTRL*%
%TO.N,Net-(U1-PWM_CTRL)*%
X70405000Y-85475000D03*
%TO.P,U1,4,TRI_OUT*%
%TO.N,Net-(U1-TRI_OUT)*%
X69135000Y-85475000D03*
%TO.P,U1,5,HF_TRACK*%
%TO.N,Net-(U1-HF_TRACK)*%
X67865000Y-85475000D03*
%TO.P,U1,6,EXPO_FREQ*%
%TO.N,Net-(U1-EXPO_FREQ)*%
X66595000Y-85475000D03*
%TO.P,U1,7,V-*%
%TO.N,-12V*%
X65325000Y-85475000D03*
%TO.P,U1,8,TCAP*%
%TO.N,Net-(U1-TCAP)*%
X64055000Y-85475000D03*
%TO.P,U1,9,GND*%
%TO.N,GND*%
X64055000Y-80525000D03*
%TO.P,U1,10,HARD_SYNC*%
%TO.N,Net-(U1-HARD_SYNC)*%
X65325000Y-80525000D03*
%TO.P,U1,11,SOFT_SYNC*%
%TO.N,Net-(U1-SOFT_SYNC)*%
X66595000Y-80525000D03*
%TO.P,U1,12,LIN_FREQ*%
%TO.N,Net-(U1-LIN_FREQ)*%
X67865000Y-80525000D03*
%TO.P,U1,13,EXPO_SCALE*%
%TO.N,Net-(U1-EXPO_SCALE)*%
X69135000Y-80525000D03*
%TO.P,U1,14,VREF*%
%TO.N,+2V5*%
X70405000Y-80525000D03*
%TO.P,U1,15,BW_COMP*%
%TO.N,Net-(U1-BW_COMP)*%
X71675000Y-80525000D03*
%TO.P,U1,16,V+*%
%TO.N,+5V*%
X72945000Y-80525000D03*
%TD*%
D26*
%TO.P,R35,1*%
%TO.N,+5V*%
X55000000Y-62587500D03*
%TO.P,R35,2*%
%TO.N,+2V5*%
X55000000Y-64412500D03*
%TD*%
D27*
%TO.P,R34,1*%
%TO.N,Net-(U3B-+)*%
X53000000Y-108412500D03*
%TO.P,R34,2*%
%TO.N,GND*%
X53000000Y-106587500D03*
%TD*%
%TO.P,R33,1*%
%TO.N,+2V5*%
X57500000Y-112412500D03*
%TO.P,R33,2*%
%TO.N,Net-(U3B-+)*%
X57500000Y-110587500D03*
%TD*%
D26*
%TO.P,R32,1*%
%TO.N,Net-(U1-PWM_CTRL)*%
X68500000Y-95587500D03*
%TO.P,R32,2*%
%TO.N,Net-(C9-Pad2)*%
X68500000Y-97412500D03*
%TD*%
%TO.P,R31,1*%
%TO.N,-12V*%
X67500000Y-88087500D03*
%TO.P,R31,2*%
%TO.N,Net-(R31-Pad2)*%
X67500000Y-89912500D03*
%TD*%
D27*
%TO.P,R30,1*%
%TO.N,Net-(C9-Pad2)*%
X67500000Y-103912500D03*
%TO.P,R30,2*%
%TO.N,Net-(U3A--)*%
X67500000Y-102087500D03*
%TD*%
D28*
%TO.P,R29,1*%
%TO.N,Net-(U3A-+)*%
X63587500Y-113500000D03*
%TO.P,R29,2*%
%TO.N,+1V25*%
X65412500Y-113500000D03*
%TD*%
D29*
%TO.P,R28,1*%
%TO.N,Net-(U3A--)*%
X63412500Y-104500000D03*
%TO.P,R28,2*%
%TO.N,GND*%
X61587500Y-104500000D03*
%TD*%
%TO.P,R27,1*%
%TO.N,Net-(U3A-+)*%
X61412500Y-113500000D03*
%TO.P,R27,2*%
%TO.N,Net-(J3-PadT)*%
X59587500Y-113500000D03*
%TD*%
D27*
%TO.P,R26,1*%
%TO.N,Net-(D1-AK)*%
X63000000Y-131412500D03*
%TO.P,R26,2*%
%TO.N,Net-(J7-PadT)*%
X63000000Y-129587500D03*
%TD*%
%TO.P,R25,1*%
%TO.N,Net-(D1-KA)*%
X65500000Y-131412500D03*
%TO.P,R25,2*%
%TO.N,Net-(R25-Pad2)*%
X65500000Y-129587500D03*
%TD*%
D26*
%TO.P,R24,1*%
%TO.N,Net-(J9-PadT)*%
X72500000Y-119087500D03*
%TO.P,R24,2*%
%TO.N,Net-(U2C--)*%
X72500000Y-120912500D03*
%TD*%
D29*
%TO.P,R23,1*%
%TO.N,Net-(J9-PadT)*%
X70912500Y-116500000D03*
%TO.P,R23,2*%
%TO.N,Net-(C8-Pad2)*%
X69087500Y-116500000D03*
%TD*%
D26*
%TO.P,R22,1*%
%TO.N,GND*%
X63500000Y-115587500D03*
%TO.P,R22,2*%
%TO.N,Net-(U2C-+)*%
X63500000Y-117412500D03*
%TD*%
%TO.P,R21,1*%
%TO.N,Net-(U2C--)*%
X72500000Y-122587500D03*
%TO.P,R21,2*%
%TO.N,+1V25*%
X72500000Y-124412500D03*
%TD*%
D27*
%TO.P,R20,1*%
%TO.N,Net-(U2C-+)*%
X70000000Y-97412500D03*
%TO.P,R20,2*%
%TO.N,Net-(U1-PULSE_OUT)*%
X70000000Y-95587500D03*
%TD*%
D26*
%TO.P,R19,1*%
%TO.N,Net-(J8-PadT)*%
X52500000Y-119087500D03*
%TO.P,R19,2*%
%TO.N,Net-(U2B--)*%
X52500000Y-120912500D03*
%TD*%
D28*
%TO.P,R18,1*%
%TO.N,Net-(J8-PadT)*%
X54087500Y-116500000D03*
%TO.P,R18,2*%
%TO.N,Net-(C7-Pad2)*%
X55912500Y-116500000D03*
%TD*%
D26*
%TO.P,R17,1*%
%TO.N,GND*%
X61500000Y-115587500D03*
%TO.P,R17,2*%
%TO.N,Net-(U2B-+)*%
X61500000Y-117412500D03*
%TD*%
%TO.P,R16,1*%
%TO.N,Net-(U2B--)*%
X52500000Y-122587500D03*
%TO.P,R16,2*%
%TO.N,+1V25*%
X52500000Y-124412500D03*
%TD*%
D27*
%TO.P,R15,1*%
%TO.N,Net-(U2B-+)*%
X71500000Y-97412500D03*
%TO.P,R15,2*%
%TO.N,Net-(U1-SAW_OUT)*%
X71500000Y-95587500D03*
%TD*%
%TO.P,R14,1*%
%TO.N,Net-(J7-PadT)*%
X57500000Y-131412500D03*
%TO.P,R14,2*%
%TO.N,Net-(C6-Pad2)*%
X57500000Y-129587500D03*
%TD*%
%TO.P,R13,1*%
%TO.N,Net-(U2A--)*%
X52500000Y-127912500D03*
%TO.P,R13,2*%
%TO.N,+1V25*%
X52500000Y-126087500D03*
%TD*%
%TO.P,R12,1*%
%TO.N,GND*%
X60500000Y-131412500D03*
%TO.P,R12,2*%
%TO.N,Net-(U2A-+)*%
X60500000Y-129587500D03*
%TD*%
%TO.P,R11,1*%
%TO.N,Net-(J7-PadT)*%
X52500000Y-131412500D03*
%TO.P,R11,2*%
%TO.N,Net-(U2A--)*%
X52500000Y-129587500D03*
%TD*%
%TO.P,R10,1*%
%TO.N,Net-(U2A-+)*%
X66500000Y-97412500D03*
%TO.P,R10,2*%
%TO.N,Net-(U1-TRI_OUT)*%
X66500000Y-95587500D03*
%TD*%
D26*
%TO.P,R9,1*%
%TO.N,GND*%
X65000000Y-76587500D03*
%TO.P,R9,2*%
%TO.N,Net-(U1-HARD_SYNC)*%
X65000000Y-78412500D03*
%TD*%
%TO.P,R8,1*%
%TO.N,Net-(C2-Pad1)*%
X71000000Y-76587500D03*
%TO.P,R8,2*%
%TO.N,Net-(U1-BW_COMP)*%
X71000000Y-78412500D03*
%TD*%
D27*
%TO.P,R7,1*%
%TO.N,+2V5*%
X69500000Y-78412500D03*
%TO.P,R7,2*%
%TO.N,Net-(U1-LIN_FREQ)*%
X69500000Y-76587500D03*
%TD*%
D28*
%TO.P,R6,1*%
%TO.N,Net-(C1-Pad1)*%
X67675000Y-75000000D03*
%TO.P,R6,2*%
%TO.N,Net-(U1-LIN_FREQ)*%
X69500000Y-75000000D03*
%TD*%
D27*
%TO.P,R5,1*%
%TO.N,Net-(R5-Pad1)*%
X59500000Y-71412500D03*
%TO.P,R5,2*%
%TO.N,Net-(U1-EXPO_FREQ)*%
X59500000Y-69587500D03*
%TD*%
D26*
%TO.P,R4,1*%
%TO.N,Net-(R4-Pad1)*%
X68000000Y-76587500D03*
%TO.P,R4,2*%
%TO.N,Net-(U1-EXPO_SCALE)*%
X68000000Y-78412500D03*
%TD*%
D27*
%TO.P,R3,1*%
%TO.N,Net-(J1-PadT)*%
X63500000Y-71412500D03*
%TO.P,R3,2*%
%TO.N,Net-(U1-EXPO_FREQ)*%
X63500000Y-69587500D03*
%TD*%
%TO.P,R2,1*%
%TO.N,Net-(R2-Pad1)*%
X61500000Y-71412500D03*
%TO.P,R2,2*%
%TO.N,Net-(U1-EXPO_FREQ)*%
X61500000Y-69587500D03*
%TD*%
D26*
%TO.P,R1,1*%
%TO.N,Net-(U1-EXPO_FREQ)*%
X61400000Y-85087500D03*
%TO.P,R1,2*%
%TO.N,Net-(R1-Pad2)*%
X61400000Y-86912500D03*
%TD*%
D30*
%TO.P,J9,S*%
%TO.N,GND*%
X70000000Y-107400000D03*
D31*
%TO.P,J9,T*%
%TO.N,Net-(J9-PadT)*%
X70000000Y-118800000D03*
%TO.P,J9,TN*%
%TO.N,unconnected-(J9-PadTN)*%
X70000000Y-110500000D03*
%TD*%
D30*
%TO.P,J8,S*%
%TO.N,GND*%
X70000000Y-122200000D03*
D31*
%TO.P,J8,T*%
%TO.N,Net-(J8-PadT)*%
X70000000Y-133600000D03*
%TO.P,J8,TN*%
%TO.N,unconnected-(J8-PadTN)*%
X70000000Y-125300000D03*
%TD*%
D30*
%TO.P,J7,S*%
%TO.N,GND*%
X70000000Y-137000000D03*
D31*
%TO.P,J7,T*%
%TO.N,Net-(J7-PadT)*%
X70000000Y-148400000D03*
%TO.P,J7,TN*%
%TO.N,unconnected-(J7-PadTN)*%
X70000000Y-140100000D03*
%TD*%
D32*
%TO.P,J6,1,Pin_1*%
%TO.N,Net-(J6-Pin_1)*%
X62500000Y-142975000D03*
D33*
%TO.P,J6,2,Pin_2*%
%TO.N,Net-(J6-Pin_2)*%
X62500000Y-145515000D03*
%TO.P,J6,3,Pin_3*%
%TO.N,Net-(J6-Pin_3)*%
X62500000Y-148055000D03*
%TD*%
D32*
%TO.P,J5,1,Pin_1*%
%TO.N,Net-(J5-Pin_1)*%
X73275000Y-54460000D03*
D33*
%TO.P,J5,2,Pin_2*%
X70735000Y-54460000D03*
%TO.P,J5,3,Pin_3*%
%TO.N,GND*%
X73275000Y-57000000D03*
%TO.P,J5,4,Pin_4*%
X70735000Y-57000000D03*
%TO.P,J5,5,Pin_5*%
X73275000Y-59540000D03*
%TO.P,J5,6,Pin_6*%
X70735000Y-59540000D03*
%TO.P,J5,7,Pin_7*%
X73275000Y-62080000D03*
%TO.P,J5,8,Pin_8*%
X70735000Y-62080000D03*
%TO.P,J5,9,Pin_9*%
%TO.N,Net-(J5-Pin_10)*%
X73275000Y-64620000D03*
%TO.P,J5,10,Pin_10*%
X70735000Y-64620000D03*
%TD*%
D30*
%TO.P,J4,S*%
%TO.N,GND*%
X55000000Y-122200000D03*
D31*
%TO.P,J4,T*%
%TO.N,Net-(J4-PadT)*%
X55000000Y-133600000D03*
%TO.P,J4,TN*%
%TO.N,unconnected-(J4-PadTN)*%
X55000000Y-125300000D03*
%TD*%
D30*
%TO.P,J3,S*%
%TO.N,GND*%
X55000000Y-107400000D03*
D31*
%TO.P,J3,T*%
%TO.N,Net-(J3-PadT)*%
X55000000Y-118800000D03*
%TO.P,J3,TN*%
%TO.N,Net-(J3-PadTN)*%
X55000000Y-110500000D03*
%TD*%
%TO.P,J2,TN*%
%TO.N,unconnected-(J2-PadTN)*%
X55000000Y-140100000D03*
%TO.P,J2,T*%
%TO.N,Net-(J6-Pin_2)*%
X55000000Y-148400000D03*
D30*
%TO.P,J2,S*%
%TO.N,GND*%
X55000000Y-137000000D03*
%TD*%
D34*
%TO.P,J1,S*%
%TO.N,GND*%
X56000000Y-51500000D03*
D31*
%TO.P,J1,T*%
%TO.N,Net-(J1-PadT)*%
X67400000Y-51500000D03*
%TO.P,J1,TN*%
%TO.N,unconnected-(J1-PadTN)*%
X59100000Y-51500000D03*
%TD*%
D17*
%TO.P,D1,1,KA*%
%TO.N,Net-(D1-KA)*%
X62500000Y-138775000D03*
D18*
%TO.P,D1,2,AK*%
%TO.N,Net-(D1-AK)*%
X62500000Y-136235000D03*
%TD*%
D10*
%TO.P,C20,1*%
%TO.N,GND*%
X73000000Y-76637500D03*
%TO.P,C20,2*%
%TO.N,+5V*%
X73000000Y-78362500D03*
%TD*%
D13*
%TO.P,C19,1*%
%TO.N,GND*%
X65500000Y-89862500D03*
%TO.P,C19,2*%
%TO.N,-12V*%
X65500000Y-88137500D03*
%TD*%
D11*
%TO.P,C18,1*%
%TO.N,+5V*%
X51589775Y-52500000D03*
D12*
%TO.P,C18,2*%
%TO.N,GND*%
X53589775Y-52500000D03*
%TD*%
D11*
%TO.P,C17,1*%
%TO.N,+12V*%
X67010225Y-59999999D03*
D12*
%TO.P,C17,2*%
%TO.N,GND*%
X65010225Y-59999999D03*
%TD*%
D13*
%TO.P,C16,1*%
%TO.N,GND*%
X57500000Y-108362500D03*
%TO.P,C16,2*%
%TO.N,+12V*%
X57500000Y-106637500D03*
%TD*%
%TO.P,C15,1*%
%TO.N,GND*%
X57500000Y-124362500D03*
%TO.P,C15,2*%
%TO.N,+12V*%
X57500000Y-122637500D03*
%TD*%
%TO.P,C14,1*%
%TO.N,-12V*%
X67500000Y-110862500D03*
%TO.P,C14,2*%
%TO.N,GND*%
X67500000Y-109137500D03*
%TD*%
D11*
%TO.P,C13,1*%
%TO.N,GND*%
X71089775Y-69499999D03*
D12*
%TO.P,C13,2*%
%TO.N,-12V*%
X73089775Y-69499999D03*
%TD*%
%TO.P,C12,2*%
%TO.N,GND*%
X65055113Y-54344887D03*
D11*
%TO.P,C12,1*%
%TO.N,+12V*%
X67055113Y-54344887D03*
%TD*%
D35*
%TO.N,Net-(J7-PadT)*%
X62087500Y-130500000D03*
X73500000Y-130700000D03*
%TO.N,GND*%
X66600000Y-73100000D03*
%TO.N,+12V*%
X50800000Y-115800000D03*
X62000000Y-61500000D03*
%TO.N,GND*%
X61600000Y-103400000D03*
%TO.N,+12V*%
X50800000Y-105700000D03*
X52300000Y-91200000D03*
%TO.N,Net-(J1-PadT)*%
X64900000Y-65800000D03*
X65500000Y-71100000D03*
%TO.N,+12V*%
X57100000Y-71100000D03*
%TO.N,+2V5*%
X64000000Y-92200000D03*
%TO.N,Net-(C1-Pad1)*%
X64800000Y-91300000D03*
%TO.N,Net-(J6-Pin_1)*%
X72300000Y-83200000D03*
%TO.N,Net-(J6-Pin_3)*%
X72900000Y-82500000D03*
%TO.N,Net-(U1-LIN_FREQ)*%
X69500000Y-74000000D03*
X67877165Y-81900000D03*
%TO.N,+5V*%
X69700000Y-83900000D03*
%TO.N,+2V5*%
X64600000Y-82200000D03*
%TO.N,Net-(J6-Pin_1)*%
X64207295Y-77490200D03*
%TO.N,Net-(J6-Pin_3)*%
X66500000Y-75600000D03*
%TO.N,Net-(U2A-+)*%
X66500000Y-98300000D03*
X69103284Y-98305037D03*
%TO.N,GND*%
X63500000Y-114500000D03*
%TO.N,Net-(J3-PadT)*%
X58500000Y-118000000D03*
%TO.N,+1V25*%
X67824265Y-115524265D03*
%TO.N,Net-(U2B-+)*%
X61500000Y-118500000D03*
X65000000Y-118000000D03*
%TO.N,+2V5*%
X66000000Y-69400000D03*
%TO.N,GND*%
X63400000Y-80500000D03*
X60500000Y-132600000D03*
X53000000Y-113500000D03*
%TO.N,-12V*%
X67748525Y-111948525D03*
%TO.N,+1V25*%
X66500000Y-125500000D03*
%TO.N,-12V*%
X68400000Y-122600000D03*
%TO.N,+1V25*%
X56400735Y-124499265D03*
%TO.N,+12V*%
X56600000Y-122600000D03*
%TO.N,GND*%
X73000000Y-74000000D03*
%TO.N,Net-(R4-Pad1)*%
X66000000Y-70300000D03*
%TO.N,Net-(C1-Pad1)*%
X68100000Y-74000000D03*
%TO.N,-12V*%
X68700000Y-88100000D03*
%TO.N,GND*%
X62700000Y-89900000D03*
%TO.N,+12V*%
X57500000Y-105600000D03*
%TO.N,+1V25*%
X61500000Y-109200000D03*
X65400000Y-112500000D03*
%TD*%
D36*
%TO.N,+1V25*%
X55601470Y-123700000D02*
X53212500Y-123700000D01*
X56400735Y-124499265D02*
X55601470Y-123700000D01*
X53212500Y-123700000D02*
X52500000Y-124412500D01*
%TO.N,-12V*%
X66460000Y-123040000D02*
X64950000Y-123040000D01*
X66862500Y-122637500D02*
X66460000Y-123040000D01*
X67500000Y-122637500D02*
X66862500Y-122637500D01*
%TO.N,+1V25*%
X72500000Y-124500402D02*
X72500000Y-124412500D01*
X71850201Y-125150201D02*
X72500000Y-124500402D01*
X71850201Y-125449799D02*
X71850201Y-125150201D01*
X70600000Y-126700000D02*
X71850201Y-125449799D01*
X66500000Y-125500000D02*
X67700000Y-126700000D01*
X67700000Y-126700000D02*
X70600000Y-126700000D01*
%TO.N,Net-(U1-LIN_FREQ)*%
X69500000Y-75000000D02*
X69500000Y-74000000D01*
%TO.N,Net-(D1-AK)*%
X63000000Y-133100000D02*
X63000000Y-131412500D01*
X62500000Y-133600000D02*
X63000000Y-133100000D01*
X62500000Y-136235000D02*
X62500000Y-133600000D01*
X64000000Y-128500000D02*
X64000000Y-130412500D01*
X64000000Y-130412500D02*
X63000000Y-131412500D01*
X63200000Y-127700000D02*
X64000000Y-128500000D01*
X63200000Y-126200000D02*
X63200000Y-127700000D01*
X64950000Y-125580000D02*
X63820000Y-125580000D01*
X63820000Y-125580000D02*
X63200000Y-126200000D01*
%TO.N,Net-(U2C-+)*%
X63670000Y-121770000D02*
X63500000Y-121600000D01*
X63500000Y-121600000D02*
X63500000Y-117412500D01*
X64950000Y-121770000D02*
X63670000Y-121770000D01*
%TO.N,+2V5*%
X58412500Y-111500000D02*
X57500000Y-112412500D01*
X62100000Y-110400000D02*
X61000000Y-111500000D01*
X60500000Y-100500000D02*
X60500000Y-105000000D01*
X61000000Y-111500000D02*
X58412500Y-111500000D01*
X64000000Y-97000000D02*
X60500000Y-100500000D01*
X60500000Y-105000000D02*
X62100000Y-106600000D01*
X64000000Y-92200000D02*
X64000000Y-97000000D01*
X62100000Y-106600000D02*
X62100000Y-110400000D01*
%TO.N,Net-(U3B-+)*%
X53587500Y-109000000D02*
X53000000Y-108412500D01*
X56000000Y-109000000D02*
X53587500Y-109000000D01*
X57500000Y-110500000D02*
X56000000Y-109000000D01*
X57500000Y-110587500D02*
X57500000Y-110500000D01*
%TO.N,Net-(J6-Pin_1)*%
X69525000Y-142975000D02*
X62500000Y-142975000D01*
X71900000Y-140600000D02*
X69525000Y-142975000D01*
X74000000Y-127750000D02*
X71900000Y-129850000D01*
X74000000Y-113300000D02*
X74000000Y-127750000D01*
X73500000Y-112800000D02*
X74000000Y-113300000D01*
X70900000Y-103000000D02*
X73500000Y-105600000D01*
X71900000Y-129850000D02*
X71900000Y-140600000D01*
X70900000Y-99265686D02*
X70900000Y-103000000D01*
X73700000Y-84200000D02*
X73700000Y-96465686D01*
X72700000Y-83200000D02*
X73700000Y-84200000D01*
X73500000Y-105600000D02*
X73500000Y-112800000D01*
X72300000Y-83200000D02*
X72700000Y-83200000D01*
X73700000Y-96465686D02*
X70900000Y-99265686D01*
%TO.N,Net-(J6-Pin_2)*%
X59615000Y-148400000D02*
X62500000Y-145515000D01*
X55100000Y-148400000D02*
X59615000Y-148400000D01*
X55000000Y-148300000D02*
X55100000Y-148400000D01*
%TO.N,Net-(J8-PadT)*%
X51725000Y-119862500D02*
X52500000Y-119087500D01*
X51725000Y-131891722D02*
X51725000Y-119862500D01*
X52033278Y-132200000D02*
X51725000Y-131891722D01*
X56400000Y-132200000D02*
X52033278Y-132200000D01*
X57600000Y-138200000D02*
X57600000Y-133400000D01*
X59900000Y-140500000D02*
X57600000Y-138200000D01*
X64500000Y-140500000D02*
X59900000Y-140500000D01*
X57600000Y-133400000D02*
X56400000Y-132200000D01*
X65300000Y-139700000D02*
X64500000Y-140500000D01*
X65300000Y-138375000D02*
X65300000Y-139700000D01*
X70000000Y-133675000D02*
X65300000Y-138375000D01*
X70000000Y-133370000D02*
X70000000Y-133675000D01*
%TO.N,Net-(J3-PadTN)*%
X67800000Y-94100000D02*
X67800000Y-93475000D01*
X67500000Y-94400000D02*
X67800000Y-94100000D01*
X67500000Y-99158278D02*
X67500000Y-94400000D01*
X59500000Y-112000000D02*
X61500000Y-112000000D01*
X58200000Y-113300000D02*
X59500000Y-112000000D01*
X61500000Y-112000000D02*
X62625000Y-110875000D01*
X67800000Y-93475000D02*
X68500000Y-92775000D01*
X55800000Y-113300000D02*
X58200000Y-113300000D01*
X62625000Y-104033278D02*
X67500000Y-99158278D01*
X55000000Y-112500000D02*
X55800000Y-113300000D01*
X62625000Y-110875000D02*
X62625000Y-104033278D01*
X55000000Y-110700000D02*
X55000000Y-112500000D01*
%TO.N,Net-(U3A--)*%
X63730000Y-107930000D02*
X64910000Y-107930000D01*
X63412500Y-107612500D02*
X63730000Y-107930000D01*
X63412500Y-104500000D02*
X63412500Y-107612500D01*
%TO.N,Net-(U2B--)*%
X52550000Y-120862500D02*
X57500000Y-120862500D01*
X52500000Y-120912500D02*
X52550000Y-120862500D01*
%TO.N,Net-(J4-PadT)*%
X57200000Y-102425000D02*
X59000000Y-104225000D01*
X51600000Y-103500000D02*
X52700000Y-102400000D01*
X52700000Y-102400000D02*
X57200000Y-102400000D01*
X51600000Y-117100000D02*
X51600000Y-103500000D01*
X51300000Y-132200000D02*
X51300000Y-117400000D01*
X57200000Y-102400000D02*
X57200000Y-102425000D01*
X51300000Y-117400000D02*
X51600000Y-117100000D01*
X52750000Y-133650000D02*
X51300000Y-132200000D01*
X55000000Y-133650000D02*
X52750000Y-133650000D01*
%TO.N,Net-(J6-Pin_3)*%
X72750000Y-141750000D02*
X72750000Y-130150000D01*
X72750000Y-130150000D02*
X74400000Y-128500000D01*
X66445000Y-148055000D02*
X72750000Y-141750000D01*
X62500000Y-148055000D02*
X66445000Y-148055000D01*
X74400000Y-128500000D02*
X74400000Y-112900000D01*
X74400000Y-112900000D02*
X74100000Y-112600000D01*
%TO.N,Net-(U2A-+)*%
X71700000Y-106265686D02*
X70217157Y-104782843D01*
X71700000Y-111600000D02*
X71700000Y-106265686D01*
X70900000Y-112400000D02*
X71700000Y-111600000D01*
X64500000Y-116500000D02*
X68600000Y-112400000D01*
X62500000Y-117000000D02*
X63000000Y-116500000D01*
X62500000Y-122784999D02*
X62500000Y-117000000D01*
X63000000Y-116500000D02*
X64500000Y-116500000D01*
X60974999Y-124310000D02*
X62500000Y-122784999D01*
X68600000Y-112400000D02*
X70900000Y-112400000D01*
%TO.N,Net-(U2B-+)*%
X70300000Y-103200000D02*
X70300000Y-99200000D01*
X72900000Y-105800000D02*
X70300000Y-103200000D01*
X72900000Y-112065686D02*
X72900000Y-105800000D01*
X71565686Y-113400000D02*
X72900000Y-112065686D01*
X65000000Y-117500000D02*
X69100000Y-113400000D01*
X71500000Y-98000000D02*
X71500000Y-97412500D01*
X70300000Y-99200000D02*
X71500000Y-98000000D01*
X65000000Y-118000000D02*
X65000000Y-117500000D01*
X69100000Y-113400000D02*
X71565686Y-113400000D01*
%TO.N,Net-(U2C-+)*%
X70000000Y-98600000D02*
X70000000Y-97412500D01*
X69700000Y-103400000D02*
X69700000Y-98900000D01*
X71200000Y-112900000D02*
X72300000Y-111800000D01*
X72300000Y-111800000D02*
X72300000Y-106000000D01*
X68900000Y-112900000D02*
X71200000Y-112900000D01*
X64387500Y-117412500D02*
X68900000Y-112900000D01*
X63500000Y-117412500D02*
X64387500Y-117412500D01*
X69700000Y-98900000D02*
X70000000Y-98600000D01*
X72300000Y-106000000D02*
X69700000Y-103400000D01*
%TO.N,Net-(J6-Pin_3)*%
X74400000Y-84000000D02*
X72900000Y-82500000D01*
X74400000Y-96331372D02*
X74400000Y-84000000D01*
X71500000Y-102800000D02*
X71500000Y-99231372D01*
X74100000Y-105400000D02*
X71500000Y-102800000D01*
X74100000Y-112600000D02*
X74100000Y-105400000D01*
X71500000Y-99231372D02*
X74400000Y-96331372D01*
%TO.N,Net-(U2A-+)*%
X69103284Y-99696716D02*
X69100000Y-99700000D01*
X69100000Y-103665686D02*
X70217157Y-104782843D01*
X69103284Y-98305037D02*
X69103284Y-99696716D01*
X69100000Y-99700000D02*
X69100000Y-103665686D01*
%TO.N,Net-(J1-PadT)*%
X64700000Y-71100000D02*
X65500000Y-71100000D01*
X64387500Y-71412500D02*
X64700000Y-71100000D01*
X63500000Y-71412500D02*
X64387500Y-71412500D01*
%TO.N,Net-(U1-EXPO_FREQ)*%
X61500000Y-69600000D02*
X61500000Y-69587500D01*
X62500000Y-70600000D02*
X61500000Y-69600000D01*
X62500000Y-72100000D02*
X62500000Y-70600000D01*
X63700000Y-73300000D02*
X62500000Y-72100000D01*
X63700000Y-75133278D02*
X63700000Y-73300000D01*
X57900000Y-80933278D02*
X63700000Y-75133278D01*
X57900000Y-82800000D02*
X57900000Y-80933278D01*
X55200000Y-83800000D02*
X55700000Y-83300000D01*
X57400000Y-83300000D02*
X57900000Y-82800000D01*
X55200000Y-85200000D02*
X55200000Y-83800000D01*
X58900000Y-85900000D02*
X55900000Y-85900000D01*
X55900000Y-85900000D02*
X55200000Y-85200000D01*
X59712500Y-85087500D02*
X58900000Y-85900000D01*
X61400000Y-85087500D02*
X59712500Y-85087500D01*
X55700000Y-83300000D02*
X57400000Y-83300000D01*
D37*
%TO.N,+5V*%
X73737500Y-78362500D02*
X73000000Y-78362500D01*
X74200000Y-77900000D02*
X73737500Y-78362500D01*
X74200000Y-73600000D02*
X74200000Y-77900000D01*
X73100000Y-72500000D02*
X74200000Y-73600000D01*
X70160661Y-72500000D02*
X73100000Y-72500000D01*
X62300000Y-57500000D02*
X63600000Y-58800000D01*
X63600000Y-58800000D02*
X63600000Y-65939339D01*
X62000000Y-57500000D02*
X62300000Y-57500000D01*
X63600000Y-65939339D02*
X70160661Y-72500000D01*
D36*
%TO.N,Net-(R5-Pad1)*%
X59500000Y-71900000D02*
X59500000Y-71412500D01*
X58200000Y-75400000D02*
X58200000Y-73200000D01*
X54200000Y-79400000D02*
X58200000Y-75400000D01*
X54200000Y-86925000D02*
X54200000Y-79400000D01*
X56500000Y-89225000D02*
X54200000Y-86925000D01*
X58200000Y-73200000D02*
X59500000Y-71900000D01*
%TO.N,Net-(R1-Pad2)*%
X55100000Y-82000000D02*
X56500000Y-82000000D01*
X54700000Y-86300000D02*
X54700000Y-82400000D01*
X55312500Y-86912500D02*
X54700000Y-86300000D01*
X54700000Y-82400000D02*
X55100000Y-82000000D01*
X61400000Y-86912500D02*
X55312500Y-86912500D01*
D37*
%TO.N,+12V*%
X52300000Y-86500000D02*
X52300000Y-91200000D01*
X53510000Y-85290000D02*
X52300000Y-86500000D01*
X57100000Y-71104630D02*
X57100000Y-75100000D01*
X53510000Y-78690000D02*
X53510000Y-85290000D01*
X57100000Y-75100000D02*
X53510000Y-78690000D01*
X58500000Y-69000000D02*
X58500000Y-69704630D01*
X58500000Y-69704630D02*
X57100000Y-71104630D01*
X62000000Y-65500000D02*
X58500000Y-69000000D01*
X62000000Y-61500000D02*
X62000000Y-65500000D01*
D36*
%TO.N,Net-(J7-PadT)*%
X73500000Y-130700000D02*
X73500000Y-144620000D01*
X73500000Y-144620000D02*
X70000000Y-148120000D01*
%TO.N,GND*%
X66600000Y-74500000D02*
X66600000Y-73100000D01*
X65000000Y-76100000D02*
X66000000Y-75100000D01*
X66000000Y-75100000D02*
X66600000Y-74500000D01*
X65000000Y-76587500D02*
X65000000Y-76100000D01*
D37*
%TO.N,+12V*%
X50800000Y-105700000D02*
X50800000Y-115800000D01*
X50800000Y-105650000D02*
X50750000Y-105700000D01*
X50800000Y-102800000D02*
X50800000Y-105650000D01*
X54000000Y-92900000D02*
X54000000Y-99600000D01*
X52300000Y-91200000D02*
X54000000Y-92900000D01*
X54000000Y-99600000D02*
X50800000Y-102800000D01*
D36*
%TO.N,GND*%
X63637500Y-89862500D02*
X62737500Y-89862500D01*
X62737500Y-89862500D02*
X62700000Y-89900000D01*
X65500000Y-89862500D02*
X62737500Y-89862500D01*
%TO.N,+2V5*%
X69600000Y-82500000D02*
X70405000Y-81695000D01*
X64600000Y-82200000D02*
X66900000Y-82200000D01*
X67200000Y-82500000D02*
X69600000Y-82500000D01*
X70405000Y-81695000D02*
X70405000Y-80525000D01*
X66900000Y-82200000D02*
X67200000Y-82500000D01*
D37*
%TO.N,+12V*%
X62000000Y-59800000D02*
X62000000Y-61500000D01*
D36*
%TO.N,Net-(U1-TRI_OUT)*%
X66500000Y-94700000D02*
X67300000Y-93900000D01*
X66500000Y-95587500D02*
X66500000Y-94700000D01*
X67300000Y-91700000D02*
X67300000Y-93900000D01*
%TO.N,Net-(C1-Pad1)*%
X60900000Y-91300000D02*
X64800000Y-91300000D01*
X56500000Y-95700000D02*
X60900000Y-91300000D01*
X56500000Y-98044888D02*
X56500000Y-95700000D01*
%TO.N,-12V*%
X67500000Y-110862500D02*
X67500000Y-111700000D01*
X67500000Y-111700000D02*
X67748525Y-111948525D01*
%TO.N,+1V25*%
X73600000Y-116000000D02*
X73600000Y-123312500D01*
X67848530Y-115500000D02*
X73100000Y-115500000D01*
X73100000Y-115500000D02*
X73600000Y-116000000D01*
X67824265Y-115524265D02*
X67848530Y-115500000D01*
X73600000Y-123312500D02*
X72500000Y-124412500D01*
%TO.N,GND*%
X61587500Y-103412500D02*
X61600000Y-103400000D01*
X61587500Y-104500000D02*
X61587500Y-103412500D01*
%TO.N,-12V*%
X59900000Y-90900000D02*
X61800000Y-89000000D01*
X55675000Y-90900000D02*
X59900000Y-90900000D01*
X64300000Y-89000000D02*
X62500000Y-89000000D01*
X61800000Y-89000000D02*
X62500000Y-89000000D01*
X54000000Y-89225000D02*
X55675000Y-90900000D01*
%TO.N,Net-(J6-Pin_1)*%
X64207295Y-77344795D02*
X63500000Y-76637500D01*
X64207295Y-77490200D02*
X64207295Y-77344795D01*
%TO.N,Net-(U1-LIN_FREQ)*%
X67877165Y-81900000D02*
X67865000Y-81887835D01*
X67865000Y-81887835D02*
X67865000Y-80525000D01*
%TO.N,+5V*%
X72945000Y-81499999D02*
X72945000Y-80525000D01*
X70544999Y-83900000D02*
X72945000Y-81499999D01*
X69700000Y-83900000D02*
X70544999Y-83900000D01*
%TO.N,Net-(J6-Pin_3)*%
X66500000Y-76637500D02*
X66500000Y-75600000D01*
%TO.N,Net-(U2A-+)*%
X66500000Y-98300000D02*
X66500000Y-97412500D01*
%TO.N,Net-(R4-Pad1)*%
X68700000Y-74000000D02*
X68700000Y-73000000D01*
X68700000Y-73000000D02*
X68400000Y-72700000D01*
X66000000Y-70300000D02*
X68400000Y-72700000D01*
X68700000Y-74000000D02*
X68700000Y-75887500D01*
X68700000Y-73300000D02*
X68700000Y-74000000D01*
%TO.N,+2V5*%
X70512500Y-77400000D02*
X69500000Y-78412500D01*
X71700000Y-77400000D02*
X70512500Y-77400000D01*
X71975000Y-77125000D02*
X71700000Y-77400000D01*
X71975000Y-74533278D02*
X71975000Y-77125000D01*
X71900000Y-74458278D02*
X71975000Y-74533278D01*
X71900000Y-74300000D02*
X71900000Y-74458278D01*
X70950000Y-73350000D02*
X71900000Y-74300000D01*
X69950000Y-73350000D02*
X70950000Y-73350000D01*
X69500000Y-72900000D02*
X69950000Y-73350000D01*
%TO.N,Net-(R4-Pad1)*%
X68700000Y-75887500D02*
X68000000Y-76587500D01*
%TO.N,Net-(C1-Pad1)*%
X67675000Y-74425000D02*
X68100000Y-74000000D01*
X67675000Y-75000000D02*
X67675000Y-74425000D01*
%TO.N,Net-(U1-LIN_FREQ)*%
X69500000Y-76587500D02*
X69500000Y-75000000D01*
%TO.N,Net-(C2-Pad1)*%
X71000000Y-75137500D02*
X71137500Y-75000000D01*
X71000000Y-76587500D02*
X71000000Y-75137500D01*
%TO.N,Net-(U1-EXPO_SCALE)*%
X69135000Y-79547500D02*
X68000000Y-78412500D01*
X69135000Y-80525000D02*
X69135000Y-79547500D01*
%TO.N,Net-(U1-BW_COMP)*%
X71675000Y-80525000D02*
X71675000Y-79087500D01*
X71675000Y-79087500D02*
X71000000Y-78412500D01*
%TO.N,+2V5*%
X70405000Y-79317500D02*
X69500000Y-78412500D01*
X70405000Y-80525000D02*
X70405000Y-79317500D01*
D37*
%TO.N,GND*%
X73000000Y-74862500D02*
X72862500Y-75000000D01*
X73000000Y-74000000D02*
X73000000Y-74862500D01*
X73000000Y-75137500D02*
X72862500Y-75000000D01*
X73000000Y-76637500D02*
X73000000Y-75137500D01*
D36*
%TO.N,+5V*%
X72945000Y-78417500D02*
X73000000Y-78362500D01*
X72945000Y-80525000D02*
X72945000Y-78417500D01*
%TO.N,Net-(U1-SAW_OUT)*%
X72012500Y-95587500D02*
X71500000Y-95587500D01*
X73200000Y-88500000D02*
X73200000Y-94400000D01*
X72945000Y-88245000D02*
X73200000Y-88500000D01*
X72945000Y-85475000D02*
X72945000Y-88245000D01*
X73200000Y-94400000D02*
X72012500Y-95587500D01*
%TO.N,Net-(U1-PULSE_OUT)*%
X70400000Y-94500000D02*
X70000000Y-94900000D01*
X72800000Y-90300000D02*
X72800000Y-93900000D01*
X71675000Y-89175000D02*
X72800000Y-90300000D01*
X72800000Y-93900000D02*
X72200000Y-94500000D01*
X71675000Y-85475000D02*
X71675000Y-89175000D01*
X72200000Y-94500000D02*
X70400000Y-94500000D01*
X70000000Y-94900000D02*
X70000000Y-95587500D01*
%TO.N,Net-(U1-PWM_CTRL)*%
X68800000Y-94100000D02*
X68500000Y-94400000D01*
X72000000Y-94100000D02*
X68800000Y-94100000D01*
X72300000Y-93800000D02*
X72000000Y-94100000D01*
X72300000Y-91100000D02*
X72300000Y-93800000D01*
X68500000Y-94400000D02*
X68500000Y-95587500D01*
X70405000Y-85475000D02*
X70405000Y-89205000D01*
X70405000Y-89205000D02*
X72300000Y-91100000D01*
%TO.N,Net-(U2A-+)*%
X70217157Y-104782843D02*
X70000000Y-104565686D01*
%TO.N,Net-(C9-Pad2)*%
X67500000Y-103912500D02*
X68500000Y-102912500D01*
X68500000Y-102912500D02*
X68500000Y-97412500D01*
%TO.N,+2V5*%
X66000000Y-69400000D02*
X69500000Y-72900000D01*
D37*
%TO.N,GND*%
X63500000Y-115587500D02*
X63500000Y-114500000D01*
D36*
%TO.N,Net-(U2B-+)*%
X61500000Y-121500000D02*
X61500000Y-118500000D01*
X61500000Y-118500000D02*
X61500000Y-117412500D01*
%TO.N,Net-(J3-PadT)*%
X59587500Y-116912500D02*
X58500000Y-118000000D01*
X59587500Y-113500000D02*
X59587500Y-116912500D01*
%TO.N,Net-(U3A-+)*%
X63500000Y-109500000D02*
X63500000Y-113412500D01*
X63800000Y-109200000D02*
X63500000Y-109500000D01*
X64910000Y-109200000D02*
X63800000Y-109200000D01*
X63500000Y-113412500D02*
X63587500Y-113500000D01*
%TO.N,Net-(R4-Pad1)*%
X53000000Y-71010000D02*
X53000000Y-73550000D01*
%TO.N,+2V5*%
X55000000Y-66470000D02*
X55000000Y-64412500D01*
X53000000Y-68470000D02*
X55000000Y-66470000D01*
X54012500Y-64412500D02*
X53600000Y-64000000D01*
X55000000Y-64412500D02*
X54012500Y-64412500D01*
X53600000Y-58000000D02*
X53100000Y-57500000D01*
X53600000Y-64000000D02*
X53600000Y-58000000D01*
X53100000Y-57500000D02*
X52140000Y-57500000D01*
D37*
%TO.N,+5V*%
X55700000Y-55100000D02*
X55700000Y-57500000D01*
X52300000Y-54600000D02*
X55200000Y-54600000D01*
X51589775Y-53889775D02*
X52300000Y-54600000D01*
X55200000Y-54600000D02*
X55700000Y-55100000D01*
X51589775Y-52500000D02*
X51589775Y-53889775D01*
X55700000Y-60100000D02*
X55700000Y-57500000D01*
X55000000Y-60800000D02*
X55700000Y-60100000D01*
X55000000Y-62587500D02*
X55000000Y-60800000D01*
X62000000Y-57500000D02*
X55700000Y-57500000D01*
%TO.N,+12V*%
X67010225Y-54389775D02*
X67055113Y-54344887D01*
X67010225Y-59999999D02*
X67010225Y-54389775D01*
X66800001Y-59999999D02*
X67010225Y-59999999D01*
%TO.N,GND*%
X65055113Y-54344887D02*
X64200000Y-55200000D01*
X64200000Y-55200000D02*
X62000000Y-55200000D01*
D36*
X63425000Y-80525000D02*
X63400000Y-80500000D01*
X64055000Y-80525000D02*
X63425000Y-80525000D01*
%TO.N,Net-(U1-EXPO_FREQ)*%
X63500000Y-69587500D02*
X59500000Y-69587500D01*
%TO.N,-12V*%
X65162500Y-88137500D02*
X64300000Y-89000000D01*
X65500000Y-88137500D02*
X65162500Y-88137500D01*
%TO.N,Net-(D1-KA)*%
X65500000Y-136700000D02*
X65500000Y-131412500D01*
X63425000Y-138775000D02*
X65500000Y-136700000D01*
X62500000Y-138775000D02*
X63425000Y-138775000D01*
%TO.N,GND*%
X60500000Y-131412500D02*
X60500000Y-132600000D01*
X53000000Y-112462500D02*
X53000000Y-113500000D01*
%TO.N,Net-(U3B-+)*%
X53000000Y-110737500D02*
X53000000Y-108412500D01*
%TO.N,Net-(U3A--)*%
X65825000Y-102087500D02*
X63412500Y-104500000D01*
X67500000Y-102087500D02*
X65825000Y-102087500D01*
%TO.N,Net-(C9-Pad2)*%
X67500000Y-105637500D02*
X67500000Y-103912500D01*
%TO.N,-12V*%
X67107500Y-110470000D02*
X67500000Y-110862500D01*
X64910000Y-110470000D02*
X67107500Y-110470000D01*
%TO.N,Net-(J9-PadT)*%
X70912500Y-117707500D02*
X70000000Y-118620000D01*
X70912500Y-116500000D02*
X70912500Y-117707500D01*
X70020000Y-118600000D02*
X70000000Y-118620000D01*
X71500000Y-118600000D02*
X70020000Y-118600000D01*
X71987500Y-119087500D02*
X71500000Y-118600000D01*
X72500000Y-119087500D02*
X71987500Y-119087500D01*
%TO.N,Net-(U2C--)*%
X72500000Y-122587500D02*
X72500000Y-120912500D01*
X71400000Y-120600000D02*
X67762500Y-120600000D01*
X71712500Y-120912500D02*
X71400000Y-120600000D01*
X67762500Y-120600000D02*
X67500000Y-120862500D01*
X72500000Y-120912500D02*
X71712500Y-120912500D01*
%TO.N,-12V*%
X68362500Y-122637500D02*
X68400000Y-122600000D01*
X67500000Y-122637500D02*
X68362500Y-122637500D01*
%TO.N,GND*%
X67607500Y-124362500D02*
X70000000Y-121970000D01*
X67500000Y-124362500D02*
X67607500Y-124362500D01*
X67447500Y-124310000D02*
X67500000Y-124362500D01*
X64950000Y-124310000D02*
X67447500Y-124310000D01*
%TO.N,Net-(R25-Pad2)*%
X64950000Y-127950000D02*
X64950000Y-126850000D01*
X64900000Y-128000000D02*
X64950000Y-127950000D01*
X65500000Y-128600000D02*
X64900000Y-128000000D01*
X65500000Y-129587500D02*
X65500000Y-128600000D01*
%TO.N,Net-(J7-PadT)*%
X58587500Y-131412500D02*
X59500000Y-130500000D01*
X57500000Y-131412500D02*
X58587500Y-131412500D01*
X59500000Y-130500000D02*
X62087500Y-130500000D01*
X62087500Y-130500000D02*
X63000000Y-129587500D01*
%TO.N,Net-(C6-Pad2)*%
X57500000Y-127862500D02*
X57500000Y-129587500D01*
X58512500Y-126850000D02*
X57500000Y-127862500D01*
X60000000Y-126850000D02*
X58512500Y-126850000D01*
%TO.N,Net-(U2A-+)*%
X60974999Y-124310000D02*
X60000000Y-124310000D01*
X61400000Y-124735001D02*
X60974999Y-124310000D01*
X61400000Y-128687500D02*
X61400000Y-124735001D01*
X60500000Y-129587500D02*
X61400000Y-128687500D01*
%TO.N,Net-(J7-PadT)*%
X52500000Y-131412500D02*
X57500000Y-131412500D01*
%TO.N,+1V25*%
X52500000Y-126087500D02*
X52500000Y-124412500D01*
%TO.N,Net-(U2A--)*%
X52500000Y-129587500D02*
X52500000Y-127912500D01*
X56200000Y-126800000D02*
X53612500Y-126800000D01*
X56862500Y-126137500D02*
X56200000Y-126800000D01*
X57500000Y-126137500D02*
X56862500Y-126137500D01*
X53612500Y-126800000D02*
X52500000Y-127912500D01*
X58262500Y-126137500D02*
X57500000Y-126137500D01*
X58820000Y-125580000D02*
X58262500Y-126137500D01*
X60000000Y-125580000D02*
X58820000Y-125580000D01*
%TO.N,GND*%
X57500000Y-124362500D02*
X57112500Y-124362500D01*
X57112500Y-124362500D02*
X55000000Y-122250000D01*
%TO.N,+12V*%
X56637500Y-122637500D02*
X56600000Y-122600000D01*
X57500000Y-122637500D02*
X56637500Y-122637500D01*
X57902500Y-123040000D02*
X57500000Y-122637500D01*
X60000000Y-123040000D02*
X57902500Y-123040000D01*
%TO.N,Net-(U2B--)*%
X52500000Y-122587500D02*
X52500000Y-120912500D01*
%TO.N,Net-(J8-PadT)*%
X53400000Y-116500000D02*
X52500000Y-117400000D01*
X52500000Y-117400000D02*
X52500000Y-119087500D01*
X54087500Y-116500000D02*
X53400000Y-116500000D01*
%TO.N,Net-(C7-Pad2)*%
X56600000Y-116500000D02*
X55912500Y-116500000D01*
X56700000Y-116600000D02*
X56600000Y-116500000D01*
X57000000Y-116600000D02*
X56700000Y-116600000D01*
X57500000Y-117100000D02*
X57000000Y-116600000D01*
X57500000Y-119137500D02*
X57500000Y-117100000D01*
%TO.N,Net-(U2B--)*%
X57862500Y-120500000D02*
X57500000Y-120862500D01*
X60000000Y-120500000D02*
X57862500Y-120500000D01*
%TO.N,Net-(C7-Pad2)*%
X57592500Y-119230000D02*
X57500000Y-119137500D01*
X60000000Y-119230000D02*
X57592500Y-119230000D01*
%TO.N,Net-(U2B-+)*%
X61230000Y-121770000D02*
X61500000Y-121500000D01*
X60000000Y-121770000D02*
X61230000Y-121770000D01*
%TO.N,Net-(U2C--)*%
X66100000Y-120500000D02*
X64950000Y-120500000D01*
X67500000Y-120862500D02*
X66462500Y-120862500D01*
X66462500Y-120862500D02*
X66100000Y-120500000D01*
%TO.N,Net-(C8-Pad2)*%
X67500000Y-118100000D02*
X67500000Y-119137500D01*
X69087500Y-116512500D02*
X67500000Y-118100000D01*
X69087500Y-116500000D02*
X69087500Y-116512500D01*
X67407500Y-119230000D02*
X67500000Y-119137500D01*
X64950000Y-119230000D02*
X67407500Y-119230000D01*
%TO.N,Net-(J1-PadT)*%
X68600000Y-52700000D02*
X67400000Y-51500000D01*
X64900000Y-65800000D02*
X68600000Y-62100000D01*
X68600000Y-62100000D02*
X68600000Y-52700000D01*
%TO.N,Net-(R2-Pad1)*%
X61500000Y-73225000D02*
X62500000Y-74225000D01*
X61500000Y-71412500D02*
X61500000Y-73225000D01*
%TO.N,Net-(U1-SOFT_SYNC)*%
X66595000Y-78434166D02*
X66666666Y-78362500D01*
X66595000Y-80525000D02*
X66595000Y-78434166D01*
%TO.N,Net-(U1-HARD_SYNC)*%
X63550000Y-78412500D02*
X63500000Y-78362500D01*
X65000000Y-78412500D02*
X63550000Y-78412500D01*
X65000000Y-79200000D02*
X65000000Y-78412500D01*
X65325000Y-79525000D02*
X65000000Y-79200000D01*
X65325000Y-80525000D02*
X65325000Y-79525000D01*
%TO.N,Net-(U1-HF_TRACK)*%
X61700000Y-84100000D02*
X59900000Y-84100000D01*
X62500000Y-83300000D02*
X61700000Y-84100000D01*
X67100000Y-83300000D02*
X62500000Y-83300000D01*
X67865000Y-84065000D02*
X67100000Y-83300000D01*
X59900000Y-84100000D02*
X59460000Y-84540000D01*
X59460000Y-84540000D02*
X56500000Y-84540000D01*
X67865000Y-85475000D02*
X67865000Y-84065000D01*
%TO.N,Net-(U1-EXPO_FREQ)*%
X62687500Y-83800000D02*
X61400000Y-85087500D01*
X66300000Y-83800000D02*
X62687500Y-83800000D01*
X66595000Y-84095000D02*
X66300000Y-83800000D01*
X66595000Y-85475000D02*
X66595000Y-84095000D01*
%TO.N,Net-(U1-TRI_OUT)*%
X66500000Y-90900000D02*
X67300000Y-91700000D01*
X69400000Y-88600000D02*
X69000000Y-89000000D01*
X66500000Y-89400000D02*
X66500000Y-90900000D01*
X69135000Y-87135000D02*
X69400000Y-87400000D01*
X69400000Y-87400000D02*
X69400000Y-88600000D01*
X69135000Y-85475000D02*
X69135000Y-87135000D01*
X69000000Y-89000000D02*
X66900000Y-89000000D01*
X66900000Y-89000000D02*
X66500000Y-89400000D01*
%TO.N,-12V*%
X68687500Y-88087500D02*
X68700000Y-88100000D01*
X67500000Y-88087500D02*
X68687500Y-88087500D01*
%TO.N,Net-(U1-TCAP)*%
X63637500Y-87162500D02*
X63637500Y-88137500D01*
X64055000Y-86745000D02*
X63637500Y-87162500D01*
X64055000Y-85475000D02*
X64055000Y-86745000D01*
%TO.N,-12V*%
X65325000Y-87175000D02*
X65325000Y-85475000D01*
X65300000Y-87200000D02*
X65325000Y-87175000D01*
X65500000Y-87400000D02*
X65300000Y-87200000D01*
X65500000Y-88137500D02*
X65500000Y-87400000D01*
X65550000Y-88087500D02*
X65500000Y-88137500D01*
X67500000Y-88087500D02*
X65550000Y-88087500D01*
%TO.N,Net-(R31-Pad2)*%
X69812500Y-89912500D02*
X71000000Y-91100000D01*
X71000000Y-91100000D02*
X71000000Y-92775000D01*
X67500000Y-89912500D02*
X69812500Y-89912500D01*
D37*
%TO.N,GND*%
X63500000Y-115587500D02*
X61500000Y-115587500D01*
%TO.N,Net-(J4-PadT)*%
X59275000Y-104500000D02*
X59000000Y-104225000D01*
%TO.N,GND*%
X68082500Y-109137500D02*
X70000000Y-107220000D01*
X67500000Y-109137500D02*
X68082500Y-109137500D01*
X53987500Y-106587500D02*
X55000000Y-107600000D01*
X53000000Y-106587500D02*
X53987500Y-106587500D01*
X52950000Y-106637500D02*
X53000000Y-106587500D01*
X55762500Y-108362500D02*
X55000000Y-107600000D01*
X57500000Y-108362500D02*
X55762500Y-108362500D01*
D36*
%TO.N,+12V*%
X57500000Y-106637500D02*
X57500000Y-105600000D01*
X57522500Y-106660000D02*
X57500000Y-106637500D01*
X59960000Y-106660000D02*
X57522500Y-106660000D01*
%TO.N,+1V25*%
X59960000Y-107930000D02*
X59960000Y-109200000D01*
X59960000Y-109200000D02*
X61500000Y-109200000D01*
X65412500Y-112512500D02*
X65400000Y-112500000D01*
X65412500Y-113500000D02*
X65412500Y-112512500D01*
%TO.N,Net-(U3A-+)*%
X61412500Y-113500000D02*
X63587500Y-113500000D01*
%TO.N,Net-(U3B-+)*%
X57500000Y-110587500D02*
X59842500Y-110587500D01*
X59842500Y-110587500D02*
X59960000Y-110470000D01*
%TO.N,Net-(U3A--)*%
X66932500Y-107930000D02*
X67500000Y-107362500D01*
X64910000Y-107930000D02*
X66932500Y-107930000D01*
%TO.N,Net-(C9-Pad2)*%
X66477500Y-106660000D02*
X67500000Y-105637500D01*
X64910000Y-106660000D02*
X66477500Y-106660000D01*
%TD*%
D38*
X50000000Y-50000000D02*
X75000000Y-50000000D01*
X75000000Y-150000000D01*
X50000000Y-150000000D01*
X50000000Y-50000000D01*
M02*
