%TF.GenerationSoftware,KiCad,Pcbnew,8.0.0*%
%TF.CreationDate,2024-08-08T14:00:08-07:00*%
%TF.ProjectId,vco,76636f2e-6b69-4636-9164-5f7063625858,rev?*%
%TF.SameCoordinates,Original*%
%TF.FileFunction,Copper,L1,Top*%
%TF.FilePolarity,Positive*%
%FSLAX46Y46*%
G04 Gerber Fmt 4.6, Leading zero omitted, Abs format (unit mm)*
G04 Created by KiCad (PCBNEW 8.0.0) date 2024-08-08 14:00:08*
%MOMM*%
%LPD*%
G01*
G04 APERTURE LIST*
G04 Aperture macros list*
%AMRoundRect*
0 Rectangle with rounded corners*
0 $1 Rounding radius*
0 $2 $3 $4 $5 $6 $7 $8 $9 X,Y pos of 4 corners*
0 Add a 4 corners polygon primitive as box body*
4,1,4,$2,$3,$4,$5,$6,$7,$8,$9,$2,$3,0*
0 Add four circle primitives for the rounded corners*
1,1,$1+$1,$2,$3*
1,1,$1+$1,$4,$5*
1,1,$1+$1,$6,$7*
1,1,$1+$1,$8,$9*
0 Add four rect primitives between the rounded corners*
20,1,$1+$1,$2,$3,$4,$5,0*
20,1,$1+$1,$4,$5,$6,$7,0*
20,1,$1+$1,$6,$7,$8,$9,0*
20,1,$1+$1,$8,$9,$2,$3,0*%
G04 Aperture macros list end*
%TA.AperFunction,SMDPad,CuDef*%
%ADD10RoundRect,0.237500X0.250000X0.237500X-0.250000X0.237500X-0.250000X-0.237500X0.250000X-0.237500X0*%
%TD*%
%TA.AperFunction,SMDPad,CuDef*%
%ADD11RoundRect,0.237500X-0.250000X-0.237500X0.250000X-0.237500X0.250000X0.237500X-0.250000X0.237500X0*%
%TD*%
%TA.AperFunction,ComponentPad*%
%ADD12R,1.600000X1.600000*%
%TD*%
%TA.AperFunction,ComponentPad*%
%ADD13C,1.600000*%
%TD*%
%TA.AperFunction,ComponentPad*%
%ADD14O,2.720000X3.240000*%
%TD*%
%TA.AperFunction,ComponentPad*%
%ADD15R,1.800000X1.800000*%
%TD*%
%TA.AperFunction,ComponentPad*%
%ADD16C,1.800000*%
%TD*%
%TA.AperFunction,ComponentPad*%
%ADD17C,1.440000*%
%TD*%
%TA.AperFunction,ComponentPad*%
%ADD18R,1.500000X1.050000*%
%TD*%
%TA.AperFunction,ComponentPad*%
%ADD19O,1.500000X1.050000*%
%TD*%
%TA.AperFunction,ComponentPad*%
%ADD20R,1.930000X1.830000*%
%TD*%
%TA.AperFunction,ComponentPad*%
%ADD21C,2.130000*%
%TD*%
%TA.AperFunction,ComponentPad*%
%ADD22R,1.700000X1.700000*%
%TD*%
%TA.AperFunction,ComponentPad*%
%ADD23O,1.700000X1.700000*%
%TD*%
%TA.AperFunction,ComponentPad*%
%ADD24R,1.830000X1.930000*%
%TD*%
%TA.AperFunction,ViaPad*%
%ADD25C,0.600000*%
%TD*%
%TA.AperFunction,Conductor*%
%ADD26C,0.200000*%
%TD*%
%TA.AperFunction,Conductor*%
%ADD27C,0.500000*%
%TD*%
%TA.AperFunction,Profile*%
%ADD28C,0.050000*%
%TD*%
G04 APERTURE END LIST*
D10*
%TO.P,FB2,1*%
%TO.N,-12V*%
X72912500Y-67500000D03*
%TO.P,FB2,2*%
%TO.N,Net-(J5-Pin_10)*%
X71087500Y-67500000D03*
%TD*%
D11*
%TO.P,FB1,1*%
%TO.N,+12V*%
X71175000Y-51500000D03*
%TO.P,FB1,2*%
%TO.N,Net-(J5-Pin_1)*%
X73000000Y-51500000D03*
%TD*%
D12*
%TO.P,C1,1*%
%TO.N,Net-(C1-Pad1)*%
X56500000Y-98044888D03*
D13*
%TO.P,C1,2*%
%TO.N,Net-(C1-Pad2)*%
X56500000Y-100044888D03*
%TD*%
D14*
%TO.P,RV7,*%
%TO.N,*%
X51700000Y-96725000D03*
X61300000Y-96725000D03*
D15*
%TO.P,RV7,1,1*%
%TO.N,GND*%
X54000000Y-104225000D03*
D16*
%TO.P,RV7,2,2*%
%TO.N,Net-(C1-Pad2)*%
X56500000Y-104225000D03*
%TO.P,RV7,3,3*%
%TO.N,Net-(J4-PadT)*%
X59000000Y-104225000D03*
%TD*%
D17*
%TO.P,RV6,3,3*%
%TO.N,+2V5*%
X53000000Y-68470000D03*
%TO.P,RV6,2,2*%
%TO.N,Net-(R4-Pad1)*%
X53000000Y-71010000D03*
%TO.P,RV6,1,1*%
X53000000Y-73550000D03*
%TD*%
D14*
%TO.P,RV5,*%
%TO.N,*%
X57700000Y-66725000D03*
X67300000Y-66725000D03*
D15*
%TO.P,RV5,1,1*%
%TO.N,GND*%
X60000000Y-74225000D03*
D16*
%TO.P,RV5,2,2*%
%TO.N,Net-(R2-Pad1)*%
X62500000Y-74225000D03*
%TO.P,RV5,3,3*%
%TO.N,+12V*%
X65000000Y-74225000D03*
%TD*%
D14*
%TO.P,RV4,*%
%TO.N,*%
X51700000Y-81725000D03*
X61300000Y-81725000D03*
D15*
%TO.P,RV4,1,1*%
%TO.N,-12V*%
X54000000Y-89225000D03*
D16*
%TO.P,RV4,2,2*%
%TO.N,Net-(R5-Pad1)*%
X56500000Y-89225000D03*
%TO.P,RV4,3,3*%
%TO.N,+12V*%
X59000000Y-89225000D03*
%TD*%
D17*
%TO.P,RV3,1,1*%
%TO.N,GND*%
X56500000Y-79460000D03*
%TO.P,RV3,2,2*%
%TO.N,Net-(R1-Pad2)*%
X56500000Y-82000000D03*
%TO.P,RV3,3,3*%
%TO.N,Net-(U1-HF_TRACK)*%
X56500000Y-84540000D03*
%TD*%
D14*
%TO.P,RV2,*%
%TO.N,*%
X73300000Y-100275000D03*
X63700000Y-100275000D03*
D15*
%TO.P,RV2,1,1*%
%TO.N,Net-(R31-Pad2)*%
X71000000Y-92775000D03*
D16*
%TO.P,RV2,2,2*%
%TO.N,Net-(J3-PadTN)*%
X68500000Y-92775000D03*
%TO.P,RV2,3,3*%
%TO.N,+5V*%
X66000000Y-92775000D03*
%TD*%
D18*
%TO.P,U5,1*%
%TO.N,N/C*%
X52140000Y-56230000D03*
D19*
%TO.P,U5,2,K*%
%TO.N,+2V5*%
X52140000Y-57500000D03*
%TO.P,U5,3,A*%
%TO.N,GND*%
X52140000Y-58770000D03*
%TD*%
D20*
%TO.P,J9,S*%
%TO.N,GND*%
X70000000Y-107400000D03*
D21*
%TO.P,J9,T*%
%TO.N,Net-(J9-PadT)*%
X70000000Y-118800000D03*
%TO.P,J9,TN*%
%TO.N,unconnected-(J9-PadTN)*%
X70000000Y-110500000D03*
%TD*%
D20*
%TO.P,J8,S*%
%TO.N,GND*%
X70000000Y-122200000D03*
D21*
%TO.P,J8,T*%
%TO.N,Net-(J8-PadT)*%
X70000000Y-133600000D03*
%TO.P,J8,TN*%
%TO.N,unconnected-(J8-PadTN)*%
X70000000Y-125300000D03*
%TD*%
D20*
%TO.P,J7,S*%
%TO.N,GND*%
X70000000Y-137000000D03*
D21*
%TO.P,J7,T*%
%TO.N,Net-(J7-PadT)*%
X70000000Y-148400000D03*
%TO.P,J7,TN*%
%TO.N,unconnected-(J7-PadTN)*%
X70000000Y-140100000D03*
%TD*%
D22*
%TO.P,J6,1,Pin_1*%
%TO.N,Net-(J6-Pin_1)*%
X62500000Y-142975000D03*
D23*
%TO.P,J6,2,Pin_2*%
%TO.N,Net-(J6-Pin_2)*%
X62500000Y-145515000D03*
%TO.P,J6,3,Pin_3*%
%TO.N,Net-(J6-Pin_3)*%
X62500000Y-148055000D03*
%TD*%
D22*
%TO.P,J5,1,Pin_1*%
%TO.N,Net-(J5-Pin_1)*%
X73275000Y-54460000D03*
D23*
%TO.P,J5,2,Pin_2*%
X70735000Y-54460000D03*
%TO.P,J5,3,Pin_3*%
%TO.N,GND*%
X73275000Y-57000000D03*
%TO.P,J5,4,Pin_4*%
X70735000Y-57000000D03*
%TO.P,J5,5,Pin_5*%
X73275000Y-59540000D03*
%TO.P,J5,6,Pin_6*%
X70735000Y-59540000D03*
%TO.P,J5,7,Pin_7*%
X73275000Y-62080000D03*
%TO.P,J5,8,Pin_8*%
X70735000Y-62080000D03*
%TO.P,J5,9,Pin_9*%
%TO.N,Net-(J5-Pin_10)*%
X73275000Y-64620000D03*
%TO.P,J5,10,Pin_10*%
X70735000Y-64620000D03*
%TD*%
D20*
%TO.P,J4,S*%
%TO.N,GND*%
X55000000Y-122200000D03*
D21*
%TO.P,J4,T*%
%TO.N,Net-(J4-PadT)*%
X55000000Y-133600000D03*
%TO.P,J4,TN*%
%TO.N,unconnected-(J4-PadTN)*%
X55000000Y-125300000D03*
%TD*%
D20*
%TO.P,J3,S*%
%TO.N,GND*%
X55000000Y-107400000D03*
D21*
%TO.P,J3,T*%
%TO.N,Net-(J3-PadT)*%
X55000000Y-118800000D03*
%TO.P,J3,TN*%
%TO.N,Net-(J3-PadTN)*%
X55000000Y-110500000D03*
%TD*%
%TO.P,J2,TN*%
%TO.N,unconnected-(J2-PadTN)*%
X55000000Y-140100000D03*
%TO.P,J2,T*%
%TO.N,Net-(J6-Pin_2)*%
X55000000Y-148400000D03*
D20*
%TO.P,J2,S*%
%TO.N,GND*%
X55000000Y-137000000D03*
%TD*%
D24*
%TO.P,J1,S*%
%TO.N,GND*%
X56000000Y-51500000D03*
D21*
%TO.P,J1,T*%
%TO.N,Net-(J1-PadT)*%
X67400000Y-51500000D03*
%TO.P,J1,TN*%
%TO.N,unconnected-(J1-PadTN)*%
X59100000Y-51500000D03*
%TD*%
D15*
%TO.P,D1,1,KA*%
%TO.N,Net-(D1-KA)*%
X62500000Y-138775000D03*
D16*
%TO.P,D1,2,AK*%
%TO.N,Net-(D1-AK)*%
X62500000Y-136235000D03*
%TD*%
D12*
%TO.P,C18,1*%
%TO.N,+5V*%
X51589775Y-52500000D03*
D13*
%TO.P,C18,2*%
%TO.N,GND*%
X53589775Y-52500000D03*
%TD*%
D12*
%TO.P,C17,1*%
%TO.N,+12V*%
X67010225Y-59999999D03*
D13*
%TO.P,C17,2*%
%TO.N,GND*%
X65010225Y-59999999D03*
%TD*%
D12*
%TO.P,C13,1*%
%TO.N,GND*%
X71089775Y-69499999D03*
D13*
%TO.P,C13,2*%
%TO.N,-12V*%
X73089775Y-69499999D03*
%TD*%
%TO.P,C12,2*%
%TO.N,GND*%
X65055113Y-54344887D03*
D12*
%TO.P,C12,1*%
%TO.N,+12V*%
X67055113Y-54344887D03*
%TD*%
D25*
%TO.N,Net-(J7-PadT)*%
X62087500Y-130500000D03*
X73500000Y-130700000D03*
%TO.N,GND*%
X66600000Y-73100000D03*
%TO.N,+12V*%
X50800000Y-115800000D03*
X62000000Y-61500000D03*
%TO.N,GND*%
X61600000Y-103400000D03*
%TO.N,+12V*%
X50800000Y-105700000D03*
X52300000Y-91200000D03*
%TO.N,Net-(J1-PadT)*%
X64900000Y-65800000D03*
X65500000Y-71100000D03*
%TO.N,+12V*%
X57100000Y-71100000D03*
%TO.N,+2V5*%
X64000000Y-92200000D03*
%TO.N,Net-(C1-Pad1)*%
X64800000Y-91300000D03*
%TO.N,Net-(J6-Pin_1)*%
X72300000Y-83200000D03*
%TO.N,Net-(J6-Pin_3)*%
X72900000Y-82500000D03*
%TO.N,Net-(U1-LIN_FREQ)*%
X69500000Y-74000000D03*
X67877165Y-81900000D03*
%TO.N,+5V*%
X69700000Y-83900000D03*
%TO.N,+2V5*%
X64600000Y-82200000D03*
%TO.N,Net-(J6-Pin_1)*%
X64207295Y-77490200D03*
%TO.N,Net-(J6-Pin_3)*%
X66500000Y-75600000D03*
%TO.N,Net-(U2A-+)*%
X66500000Y-98300000D03*
X69103284Y-98305037D03*
%TO.N,GND*%
X63500000Y-114500000D03*
%TO.N,Net-(J3-PadT)*%
X58500000Y-118000000D03*
%TO.N,+1V25*%
X67824265Y-115524265D03*
%TO.N,Net-(U2B-+)*%
X61500000Y-118500000D03*
X65000000Y-118000000D03*
%TO.N,+2V5*%
X66000000Y-69400000D03*
%TO.N,GND*%
X63400000Y-80500000D03*
X60500000Y-132600000D03*
X53000000Y-113500000D03*
%TO.N,-12V*%
X67748525Y-111948525D03*
%TO.N,+1V25*%
X66500000Y-125500000D03*
%TO.N,-12V*%
X68400000Y-122600000D03*
%TO.N,+1V25*%
X56400735Y-124499265D03*
%TO.N,+12V*%
X56600000Y-122600000D03*
%TO.N,GND*%
X73000000Y-74000000D03*
%TO.N,Net-(R4-Pad1)*%
X66000000Y-70300000D03*
%TO.N,Net-(C1-Pad1)*%
X68100000Y-74000000D03*
%TO.N,-12V*%
X68700000Y-88100000D03*
%TO.N,GND*%
X62700000Y-89900000D03*
%TO.N,+12V*%
X57500000Y-105600000D03*
%TO.N,+1V25*%
X61500000Y-109200000D03*
X65400000Y-112500000D03*
%TD*%
D26*
%TO.N,-12V*%
X74051475Y-111948525D02*
X74250000Y-111750000D01*
X67748525Y-111948525D02*
X74051475Y-111948525D01*
%TO.N,Net-(J7-PadT)*%
X68000000Y-130500000D02*
X62087500Y-130500000D01*
X68200000Y-130700000D02*
X68000000Y-130500000D01*
X73500000Y-130700000D02*
X68200000Y-130700000D01*
%TO.N,+12V*%
X53200000Y-119800000D02*
X53200000Y-118200000D01*
X53900000Y-120500000D02*
X53200000Y-119800000D01*
X55800000Y-120500000D02*
X53900000Y-120500000D01*
X56600000Y-121300000D02*
X55800000Y-120500000D01*
X56600000Y-122600000D02*
X56600000Y-121300000D01*
X53200000Y-118200000D02*
X50900000Y-115900000D01*
%TO.N,Net-(J3-PadT)*%
X57600000Y-118900000D02*
X58500000Y-118000000D01*
X55100000Y-118900000D02*
X57600000Y-118900000D01*
X55000000Y-119000000D02*
X55100000Y-118900000D01*
%TO.N,+5V*%
X66000000Y-84700000D02*
X66000000Y-92775000D01*
X66800000Y-83900000D02*
X66000000Y-84700000D01*
X69700000Y-83900000D02*
X66800000Y-83900000D01*
%TO.N,Net-(C1-Pad1)*%
X63300000Y-77700000D02*
X65300000Y-79700000D01*
X63300000Y-76800000D02*
X63300000Y-77700000D01*
X63800000Y-76300000D02*
X63300000Y-76800000D01*
X65300000Y-79700000D02*
X65300000Y-90900000D01*
X65300000Y-90900000D02*
X64900000Y-91300000D01*
X64800000Y-76300000D02*
X63800000Y-76300000D01*
X67100000Y-74000000D02*
X64800000Y-76300000D01*
X68100000Y-74000000D02*
X67100000Y-74000000D01*
X64900000Y-91300000D02*
X64800000Y-91300000D01*
%TO.N,+2V5*%
X64000000Y-91200000D02*
X64600000Y-90600000D01*
X64600000Y-90600000D02*
X64600000Y-82200000D01*
X64000000Y-92200000D02*
X64000000Y-91200000D01*
D27*
%TO.N,GND*%
X55900000Y-51600000D02*
X56000000Y-51500000D01*
X54489775Y-51600000D02*
X55900000Y-51600000D01*
X53589775Y-52500000D02*
X54489775Y-51600000D01*
D26*
%TO.N,Net-(U2A-+)*%
X69103284Y-98305037D02*
X69098247Y-98300000D01*
X69098247Y-98300000D02*
X66500000Y-98300000D01*
D27*
%TO.N,-12V*%
X74250000Y-70660224D02*
X74250000Y-72900000D01*
X73089775Y-69499999D02*
X74250000Y-70660224D01*
X74250000Y-72900000D02*
X74250000Y-72250000D01*
X74250000Y-88100000D02*
X74250000Y-72900000D01*
X73089775Y-68410225D02*
X73089775Y-69499999D01*
X73100000Y-68400000D02*
X73089775Y-68410225D01*
X72912500Y-68212500D02*
X73100000Y-68400000D01*
X72912500Y-67500000D02*
X72912500Y-68212500D01*
%TO.N,Net-(J5-Pin_10)*%
X70735000Y-66235000D02*
X70735000Y-64620000D01*
X71087500Y-66587500D02*
X70735000Y-66235000D01*
X71087500Y-67500000D02*
X71087500Y-66587500D01*
D26*
%TO.N,Net-(U1-LIN_FREQ)*%
X67877165Y-75622835D02*
X69500000Y-74000000D01*
X67877165Y-81900000D02*
X67877165Y-75622835D01*
%TO.N,Net-(J6-Pin_1)*%
X65900000Y-81900000D02*
X67200000Y-83200000D01*
X65900000Y-79200000D02*
X65900000Y-81900000D01*
X64207295Y-77507295D02*
X65900000Y-79200000D01*
X64207295Y-77490200D02*
X64207295Y-77507295D01*
X67200000Y-83200000D02*
X72300000Y-83200000D01*
%TO.N,Net-(J6-Pin_3)*%
X67450000Y-82500000D02*
X72900000Y-82500000D01*
X66500000Y-81550000D02*
X67450000Y-82500000D01*
X66500000Y-75600000D02*
X66500000Y-81550000D01*
D27*
%TO.N,+12V*%
X66600000Y-61500000D02*
X62000000Y-61500000D01*
X67010225Y-61089775D02*
X66600000Y-61500000D01*
X67010225Y-59999999D02*
X67010225Y-61089775D01*
%TO.N,-12V*%
X74250000Y-96505273D02*
X74250000Y-88100000D01*
D26*
X68700000Y-88100000D02*
X74250000Y-88100000D01*
X68424265Y-114394162D02*
X67748525Y-113718422D01*
X68424265Y-116575735D02*
X68424265Y-114394162D01*
X67748525Y-113718422D02*
X67748525Y-111948525D01*
X68400000Y-116600000D02*
X68424265Y-116575735D01*
X67748525Y-111948525D02*
X67800000Y-112000000D01*
D27*
X71490000Y-101490000D02*
X71490000Y-99265273D01*
X71490000Y-99265273D02*
X74250000Y-96505273D01*
X74250000Y-111750000D02*
X74250000Y-104250000D01*
X74250000Y-104250000D02*
X71490000Y-101490000D01*
D26*
%TO.N,+1V25*%
X67824265Y-114924265D02*
X65400000Y-112500000D01*
X67824265Y-115524265D02*
X67824265Y-114924265D01*
%TO.N,+12V*%
X57500000Y-105600000D02*
X57400000Y-105700000D01*
X57400000Y-105700000D02*
X50750000Y-105700000D01*
X57025000Y-91200000D02*
X52300000Y-91200000D01*
X59000000Y-89225000D02*
X57025000Y-91200000D01*
%TO.N,Net-(J1-PadT)*%
X64900000Y-67300000D02*
X64900000Y-65800000D01*
X66700000Y-69100000D02*
X64900000Y-67300000D01*
X66700000Y-70600000D02*
X66700000Y-69100000D01*
X66200000Y-71100000D02*
X66700000Y-70600000D01*
X65500000Y-71100000D02*
X66200000Y-71100000D01*
%TO.N,+12V*%
X64200000Y-71100000D02*
X57100000Y-71100000D01*
X65000000Y-74225000D02*
X65000000Y-71900000D01*
X65000000Y-71900000D02*
X64200000Y-71100000D01*
%TO.N,Net-(C1-Pad2)*%
X56500000Y-104225000D02*
X56500000Y-100044888D01*
%TO.N,+1V25*%
X57401470Y-125500000D02*
X56400735Y-124499265D01*
X66500000Y-125500000D02*
X57401470Y-125500000D01*
%TO.N,-12V*%
X68400000Y-122600000D02*
X68400000Y-116600000D01*
%TO.N,+1V25*%
X61500000Y-111000000D02*
X63000000Y-112500000D01*
X63000000Y-112500000D02*
X65400000Y-112500000D01*
X61500000Y-109200000D02*
X61500000Y-111000000D01*
%TO.N,Net-(U2B-+)*%
X65000000Y-118000000D02*
X62000000Y-118000000D01*
X62000000Y-118000000D02*
X61500000Y-118500000D01*
%TO.N,Net-(R4-Pad1)*%
X53990000Y-71010000D02*
X53000000Y-71010000D01*
X54700000Y-70300000D02*
X53990000Y-71010000D01*
X66000000Y-70300000D02*
X54700000Y-70300000D01*
%TO.N,+2V5*%
X53930000Y-69400000D02*
X53000000Y-68470000D01*
X66000000Y-69400000D02*
X53930000Y-69400000D01*
D27*
%TO.N,+12V*%
X69900000Y-51500000D02*
X67055113Y-54344887D01*
X71175000Y-51500000D02*
X69900000Y-51500000D01*
%TO.N,Net-(J5-Pin_1)*%
X73000000Y-54185000D02*
X73275000Y-54460000D01*
X73000000Y-51500000D02*
X73000000Y-54185000D01*
X73275000Y-54460000D02*
X70735000Y-54460000D01*
%TO.N,Net-(J5-Pin_10)*%
X73275000Y-64620000D02*
X70735000Y-64620000D01*
%TD*%
%TA.AperFunction,Conductor*%
%TO.N,GND*%
G36*
X61175235Y-50520185D02*
G01*
X61220990Y-50572989D01*
X61230934Y-50642147D01*
X61216755Y-50684423D01*
X61182396Y-50746666D01*
X61107130Y-50883008D01*
X61107126Y-50883017D01*
X61024796Y-51115508D01*
X61024791Y-51115528D01*
X60981538Y-51358351D01*
X60978525Y-51604994D01*
X60978525Y-51604995D01*
X61015834Y-51848809D01*
X61015837Y-51848819D01*
X61092466Y-52083267D01*
X61206356Y-52302048D01*
X61206358Y-52302051D01*
X61206360Y-52302054D01*
X61228883Y-52332052D01*
X61354456Y-52499301D01*
X61532779Y-52669710D01*
X61532792Y-52669720D01*
X61736547Y-52808712D01*
X61736552Y-52808714D01*
X61960268Y-52912560D01*
X61960275Y-52912562D01*
X61960278Y-52912564D01*
X62197965Y-52978481D01*
X62443226Y-53004692D01*
X62689475Y-52990493D01*
X62689479Y-52990492D01*
X62711631Y-52985500D01*
X62742785Y-52978479D01*
X62930092Y-52936268D01*
X62930094Y-52936267D01*
X62930099Y-52936266D01*
X63158634Y-52843468D01*
X63368945Y-52714589D01*
X63555382Y-52553092D01*
X63712939Y-52363313D01*
X63837385Y-52150350D01*
X63925377Y-51919921D01*
X63974553Y-51678215D01*
X63983592Y-51431722D01*
X63952250Y-51187064D01*
X63881370Y-50950809D01*
X63772856Y-50729303D01*
X63749461Y-50696504D01*
X63726558Y-50630498D01*
X63742977Y-50562585D01*
X63793506Y-50514329D01*
X63850413Y-50500500D01*
X65955014Y-50500500D01*
X66022053Y-50520185D01*
X66067808Y-50572989D01*
X66077752Y-50642147D01*
X66060742Y-50689290D01*
X66000813Y-50787084D01*
X65906517Y-51014735D01*
X65848993Y-51254341D01*
X65829659Y-51500000D01*
X65848993Y-51745658D01*
X65906517Y-51985264D01*
X66000815Y-52212920D01*
X66129563Y-52423018D01*
X66129564Y-52423020D01*
X66183795Y-52486516D01*
X66289601Y-52610399D01*
X66476977Y-52770433D01*
X66549148Y-52814659D01*
X66596024Y-52866471D01*
X66607447Y-52935400D01*
X66579790Y-52999563D01*
X66521835Y-53038588D01*
X66484359Y-53044387D01*
X66207243Y-53044387D01*
X66207236Y-53044388D01*
X66147629Y-53050795D01*
X66012784Y-53101089D01*
X66012777Y-53101093D01*
X65897570Y-53187338D01*
X65897565Y-53187343D01*
X65890758Y-53196436D01*
X65834823Y-53238305D01*
X65765131Y-53243287D01*
X65720373Y-53223699D01*
X65707598Y-53214755D01*
X65707594Y-53214752D01*
X65501439Y-53118621D01*
X65501430Y-53118617D01*
X65281723Y-53059747D01*
X65281712Y-53059745D01*
X65055115Y-53039921D01*
X65055111Y-53039921D01*
X64828513Y-53059745D01*
X64828502Y-53059747D01*
X64608795Y-53118617D01*
X64608786Y-53118621D01*
X64402629Y-53214753D01*
X64402625Y-53214755D01*
X64329639Y-53265860D01*
X64329639Y-53265861D01*
X65008666Y-53944887D01*
X65002452Y-53944887D01*
X64900719Y-53972146D01*
X64809507Y-54024807D01*
X64735033Y-54099281D01*
X64682372Y-54190493D01*
X64655113Y-54292226D01*
X64655113Y-54298439D01*
X63976087Y-53619413D01*
X63976086Y-53619413D01*
X63924981Y-53692399D01*
X63924979Y-53692403D01*
X63828847Y-53898560D01*
X63828843Y-53898569D01*
X63769973Y-54118276D01*
X63769971Y-54118287D01*
X63750147Y-54344884D01*
X63750147Y-54344889D01*
X63769971Y-54571486D01*
X63769973Y-54571497D01*
X63828843Y-54791204D01*
X63828848Y-54791218D01*
X63924976Y-54997365D01*
X63976087Y-55070359D01*
X64655113Y-54391333D01*
X64655113Y-54397548D01*
X64682372Y-54499281D01*
X64735033Y-54590493D01*
X64809507Y-54664967D01*
X64900719Y-54717628D01*
X65002452Y-54744887D01*
X65008664Y-54744887D01*
X64329639Y-55423912D01*
X64402626Y-55475019D01*
X64402634Y-55475023D01*
X64608781Y-55571151D01*
X64608795Y-55571156D01*
X64828502Y-55630026D01*
X64828513Y-55630028D01*
X65055111Y-55649853D01*
X65055115Y-55649853D01*
X65281712Y-55630028D01*
X65281723Y-55630026D01*
X65501430Y-55571156D01*
X65501439Y-55571152D01*
X65707594Y-55475021D01*
X65720366Y-55466078D01*
X65786572Y-55443749D01*
X65854340Y-55460757D01*
X65890757Y-55493336D01*
X65897567Y-55502433D01*
X65943756Y-55537010D01*
X66012777Y-55588680D01*
X66012784Y-55588684D01*
X66147630Y-55638978D01*
X66147629Y-55638978D01*
X66154557Y-55639722D01*
X66207240Y-55645387D01*
X67902985Y-55645386D01*
X67962596Y-55638978D01*
X68097444Y-55588683D01*
X68212659Y-55502433D01*
X68298909Y-55387218D01*
X68349204Y-55252370D01*
X68355613Y-55192760D01*
X68355612Y-54157115D01*
X68375296Y-54090077D01*
X68391926Y-54069440D01*
X70174549Y-52286819D01*
X70235872Y-52253334D01*
X70262230Y-52250500D01*
X70342948Y-52250500D01*
X70409987Y-52270185D01*
X70430629Y-52286819D01*
X70464150Y-52320340D01*
X70610984Y-52410908D01*
X70774747Y-52465174D01*
X70875823Y-52475500D01*
X71474176Y-52475499D01*
X71474184Y-52475498D01*
X71474187Y-52475498D01*
X71529530Y-52469844D01*
X71575253Y-52465174D01*
X71739016Y-52410908D01*
X71885850Y-52320340D01*
X71999819Y-52206371D01*
X72061142Y-52172886D01*
X72130834Y-52177870D01*
X72175181Y-52206371D01*
X72213181Y-52244371D01*
X72246666Y-52305694D01*
X72249500Y-52332052D01*
X72249500Y-53056138D01*
X72229815Y-53123177D01*
X72189581Y-53160637D01*
X72189769Y-53160888D01*
X72187441Y-53162630D01*
X72184932Y-53164967D01*
X72182670Y-53166202D01*
X72067455Y-53252452D01*
X72067452Y-53252455D01*
X71981206Y-53367664D01*
X71981203Y-53367669D01*
X71932189Y-53499083D01*
X71890317Y-53555016D01*
X71824853Y-53579433D01*
X71756580Y-53564581D01*
X71728326Y-53543430D01*
X71606402Y-53421506D01*
X71606395Y-53421501D01*
X71586375Y-53407483D01*
X71567521Y-53394281D01*
X71412834Y-53285967D01*
X71412830Y-53285965D01*
X71369715Y-53265860D01*
X71198663Y-53186097D01*
X71198659Y-53186096D01*
X71198655Y-53186094D01*
X70970413Y-53124938D01*
X70970403Y-53124936D01*
X70735001Y-53104341D01*
X70734999Y-53104341D01*
X70499596Y-53124936D01*
X70499586Y-53124938D01*
X70271344Y-53186094D01*
X70271335Y-53186098D01*
X70057171Y-53285964D01*
X70057169Y-53285965D01*
X69863597Y-53421505D01*
X69696505Y-53588597D01*
X69560965Y-53782169D01*
X69560964Y-53782171D01*
X69461098Y-53996335D01*
X69461094Y-53996344D01*
X69399938Y-54224586D01*
X69399936Y-54224596D01*
X69379341Y-54459999D01*
X69379341Y-54460000D01*
X69399936Y-54695403D01*
X69399938Y-54695413D01*
X69461094Y-54923655D01*
X69461096Y-54923659D01*
X69461097Y-54923663D01*
X69495465Y-54997365D01*
X69560965Y-55137830D01*
X69560967Y-55137834D01*
X69641166Y-55252369D01*
X69696505Y-55331401D01*
X69863599Y-55498495D01*
X69992396Y-55588680D01*
X70049594Y-55628730D01*
X70093219Y-55683307D01*
X70100413Y-55752805D01*
X70068890Y-55815160D01*
X70049595Y-55831880D01*
X69863922Y-55961890D01*
X69863920Y-55961891D01*
X69696891Y-56128920D01*
X69696886Y-56128926D01*
X69561400Y-56322420D01*
X69561399Y-56322422D01*
X69461570Y-56536507D01*
X69461567Y-56536513D01*
X69404364Y-56749999D01*
X69404364Y-56750000D01*
X70301988Y-56750000D01*
X70269075Y-56807007D01*
X70235000Y-56934174D01*
X70235000Y-57065826D01*
X70269075Y-57192993D01*
X70301988Y-57250000D01*
X69404364Y-57250000D01*
X69461567Y-57463486D01*
X69461570Y-57463492D01*
X69561399Y-57677578D01*
X69696894Y-57871082D01*
X69863917Y-58038105D01*
X70050031Y-58168425D01*
X70093656Y-58223003D01*
X70100848Y-58292501D01*
X70069326Y-58354856D01*
X70050031Y-58371575D01*
X69863922Y-58501890D01*
X69863920Y-58501891D01*
X69696891Y-58668920D01*
X69696886Y-58668926D01*
X69561400Y-58862420D01*
X69561399Y-58862422D01*
X69461570Y-59076507D01*
X69461567Y-59076513D01*
X69404364Y-59289999D01*
X69404364Y-59290000D01*
X70301988Y-59290000D01*
X70269075Y-59347007D01*
X70235000Y-59474174D01*
X70235000Y-59605826D01*
X70269075Y-59732993D01*
X70301988Y-59790000D01*
X69404364Y-59790000D01*
X69461567Y-60003486D01*
X69461570Y-60003492D01*
X69561399Y-60217578D01*
X69696894Y-60411082D01*
X69863917Y-60578105D01*
X70050031Y-60708425D01*
X70093656Y-60763003D01*
X70100848Y-60832501D01*
X70069326Y-60894856D01*
X70050031Y-60911575D01*
X69863922Y-61041890D01*
X69863920Y-61041891D01*
X69696891Y-61208920D01*
X69696886Y-61208926D01*
X69561400Y-61402420D01*
X69561399Y-61402422D01*
X69461570Y-61616507D01*
X69461567Y-61616513D01*
X69404364Y-61829999D01*
X69404364Y-61830000D01*
X70301988Y-61830000D01*
X70269075Y-61887007D01*
X70235000Y-62014174D01*
X70235000Y-62145826D01*
X70269075Y-62272993D01*
X70301988Y-62330000D01*
X69404364Y-62330000D01*
X69461567Y-62543486D01*
X69461570Y-62543492D01*
X69561399Y-62757578D01*
X69696894Y-62951082D01*
X69863917Y-63118105D01*
X70049595Y-63248119D01*
X70093219Y-63302696D01*
X70100412Y-63372195D01*
X70068890Y-63434549D01*
X70049595Y-63451269D01*
X69863594Y-63581508D01*
X69696505Y-63748597D01*
X69560965Y-63942169D01*
X69560964Y-63942171D01*
X69461098Y-64156335D01*
X69461094Y-64156344D01*
X69399938Y-64384586D01*
X69399936Y-64384596D01*
X69379341Y-64619999D01*
X69379341Y-64620000D01*
X69399936Y-64855403D01*
X69399938Y-64855413D01*
X69461094Y-65083655D01*
X69461096Y-65083659D01*
X69461097Y-65083663D01*
X69531972Y-65235655D01*
X69560965Y-65297830D01*
X69560967Y-65297834D01*
X69696501Y-65491395D01*
X69696506Y-65491402D01*
X69863595Y-65658492D01*
X69863598Y-65658494D01*
X69863599Y-65658495D01*
X69931623Y-65706125D01*
X69975248Y-65760701D01*
X69984500Y-65807700D01*
X69984500Y-66308918D01*
X69984500Y-66308920D01*
X69984499Y-66308920D01*
X70013340Y-66453907D01*
X70013343Y-66453917D01*
X70069914Y-66590492D01*
X70102812Y-66639727D01*
X70102813Y-66639730D01*
X70152046Y-66713414D01*
X70152047Y-66713415D01*
X70152048Y-66713416D01*
X70179845Y-66741213D01*
X70213330Y-66802534D01*
X70208346Y-66872226D01*
X70197704Y-66893989D01*
X70164092Y-66948484D01*
X70109826Y-67112247D01*
X70109826Y-67112248D01*
X70109825Y-67112248D01*
X70099500Y-67213315D01*
X70099500Y-67786669D01*
X70099501Y-67786687D01*
X70109825Y-67887752D01*
X70146109Y-67997249D01*
X70164090Y-68051511D01*
X70164092Y-68051515D01*
X70164098Y-68051527D01*
X70165915Y-68054473D01*
X70166544Y-68056774D01*
X70167146Y-68058064D01*
X70166925Y-68058166D01*
X70184355Y-68121865D01*
X70163432Y-68188528D01*
X70109789Y-68233297D01*
X70103710Y-68235750D01*
X70047686Y-68256645D01*
X70047681Y-68256648D01*
X69932587Y-68342808D01*
X69932584Y-68342811D01*
X69846424Y-68457905D01*
X69846420Y-68457912D01*
X69796178Y-68592619D01*
X69796176Y-68592626D01*
X69789775Y-68652154D01*
X69789775Y-69249999D01*
X70774089Y-69249999D01*
X70769695Y-69254393D01*
X70717034Y-69345605D01*
X70689775Y-69447338D01*
X70689775Y-69552660D01*
X70717034Y-69654393D01*
X70769695Y-69745605D01*
X70774089Y-69749999D01*
X69789775Y-69749999D01*
X69789775Y-70347843D01*
X69796176Y-70407371D01*
X69796178Y-70407378D01*
X69846420Y-70542085D01*
X69846424Y-70542092D01*
X69932584Y-70657186D01*
X69932587Y-70657189D01*
X70047681Y-70743349D01*
X70047688Y-70743353D01*
X70182395Y-70793595D01*
X70182402Y-70793597D01*
X70241930Y-70799998D01*
X70241947Y-70799999D01*
X70839775Y-70799999D01*
X70839775Y-69815685D01*
X70844169Y-69820079D01*
X70935381Y-69872740D01*
X71037114Y-69899999D01*
X71142436Y-69899999D01*
X71244169Y-69872740D01*
X71335381Y-69820079D01*
X71339775Y-69815685D01*
X71339775Y-70799999D01*
X71937603Y-70799999D01*
X71937619Y-70799998D01*
X71997147Y-70793597D01*
X71997154Y-70793595D01*
X72131861Y-70743353D01*
X72131863Y-70743351D01*
X72246961Y-70657189D01*
X72246963Y-70657187D01*
X72253417Y-70648567D01*
X72309350Y-70606695D01*
X72379041Y-70601709D01*
X72423804Y-70621299D01*
X72437041Y-70630567D01*
X72643279Y-70726738D01*
X72863083Y-70785634D01*
X73025005Y-70799800D01*
X73089773Y-70805467D01*
X73089775Y-70805467D01*
X73089776Y-70805467D01*
X73109837Y-70803711D01*
X73256636Y-70790868D01*
X73325134Y-70804634D01*
X73355123Y-70826715D01*
X73463181Y-70934773D01*
X73496666Y-70996096D01*
X73499500Y-71022454D01*
X73499500Y-81706921D01*
X73479815Y-81773960D01*
X73427011Y-81819715D01*
X73357853Y-81829659D01*
X73309528Y-81811915D01*
X73249523Y-81774211D01*
X73079254Y-81714631D01*
X73079249Y-81714630D01*
X72900004Y-81694435D01*
X72899996Y-81694435D01*
X72720750Y-81714630D01*
X72720745Y-81714631D01*
X72550476Y-81774211D01*
X72397736Y-81870185D01*
X72394903Y-81872445D01*
X72392724Y-81873334D01*
X72391842Y-81873889D01*
X72391744Y-81873734D01*
X72330217Y-81898855D01*
X72317588Y-81899500D01*
X68793487Y-81899500D01*
X68726448Y-81879815D01*
X68680693Y-81827011D01*
X68670267Y-81789383D01*
X68662534Y-81720750D01*
X68662533Y-81720748D01*
X68662533Y-81720745D01*
X68602954Y-81550478D01*
X68506981Y-81397738D01*
X68506979Y-81397736D01*
X68506978Y-81397734D01*
X68504715Y-81394896D01*
X68503824Y-81392715D01*
X68503276Y-81391842D01*
X68503429Y-81391745D01*
X68478309Y-81330209D01*
X68477665Y-81317587D01*
X68477665Y-75922931D01*
X68497350Y-75855892D01*
X68513979Y-75835254D01*
X69518535Y-74830698D01*
X69579856Y-74797215D01*
X69592311Y-74795163D01*
X69679255Y-74785368D01*
X69849522Y-74725789D01*
X70002262Y-74629816D01*
X70129816Y-74502262D01*
X70225789Y-74349522D01*
X70285368Y-74179255D01*
X70305565Y-74000000D01*
X70302748Y-73975000D01*
X70285369Y-73820750D01*
X70285368Y-73820745D01*
X70265074Y-73762747D01*
X70225789Y-73650478D01*
X70213730Y-73631287D01*
X70129815Y-73497737D01*
X70002262Y-73370184D01*
X69849523Y-73274211D01*
X69679254Y-73214631D01*
X69679249Y-73214630D01*
X69500004Y-73194435D01*
X69499996Y-73194435D01*
X69320750Y-73214630D01*
X69320745Y-73214631D01*
X69150476Y-73274211D01*
X68997737Y-73370184D01*
X68887681Y-73480241D01*
X68826358Y-73513726D01*
X68756666Y-73508742D01*
X68712319Y-73480241D01*
X68602262Y-73370184D01*
X68449523Y-73274211D01*
X68279254Y-73214631D01*
X68279249Y-73214630D01*
X68100004Y-73194435D01*
X68099996Y-73194435D01*
X67920750Y-73214630D01*
X67920745Y-73214631D01*
X67750476Y-73274211D01*
X67597736Y-73370185D01*
X67594903Y-73372445D01*
X67592724Y-73373334D01*
X67591842Y-73373889D01*
X67591744Y-73373734D01*
X67530217Y-73398855D01*
X67517588Y-73399500D01*
X67179057Y-73399500D01*
X67020942Y-73399500D01*
X66868215Y-73440423D01*
X66868214Y-73440423D01*
X66868212Y-73440424D01*
X66868209Y-73440425D01*
X66833066Y-73460716D01*
X66833064Y-73460717D01*
X66731290Y-73519475D01*
X66731282Y-73519481D01*
X66662524Y-73588240D01*
X66619480Y-73631284D01*
X66619478Y-73631286D01*
X66541983Y-73708781D01*
X66504111Y-73746653D01*
X66442788Y-73780137D01*
X66373096Y-73775153D01*
X66317163Y-73733281D01*
X66302874Y-73708781D01*
X66235924Y-73556151D01*
X66108983Y-73361852D01*
X66108980Y-73361849D01*
X66108979Y-73361847D01*
X65951784Y-73191087D01*
X65951779Y-73191083D01*
X65951777Y-73191081D01*
X65768634Y-73048535D01*
X65768623Y-73048528D01*
X65665481Y-72992709D01*
X65615891Y-72943489D01*
X65600500Y-72883655D01*
X65600500Y-72000908D01*
X65620185Y-71933869D01*
X65672989Y-71888114D01*
X65683536Y-71883869D01*
X65849522Y-71825789D01*
X66002262Y-71729816D01*
X66002267Y-71729810D01*
X66005097Y-71727555D01*
X66007275Y-71726665D01*
X66008158Y-71726111D01*
X66008255Y-71726265D01*
X66069783Y-71701145D01*
X66082412Y-71700500D01*
X66113331Y-71700500D01*
X66113347Y-71700501D01*
X66120943Y-71700501D01*
X66279054Y-71700501D01*
X66279057Y-71700501D01*
X66431785Y-71659577D01*
X66481904Y-71630639D01*
X66568716Y-71580520D01*
X66680520Y-71468716D01*
X66680521Y-71468714D01*
X67180520Y-70968716D01*
X67259577Y-70831784D01*
X67300501Y-70679057D01*
X67300501Y-70520942D01*
X67300501Y-70513347D01*
X67300500Y-70513329D01*
X67300500Y-69020945D01*
X67300500Y-69020943D01*
X67295315Y-69001592D01*
X67296978Y-68931743D01*
X67336141Y-68873881D01*
X67400370Y-68846377D01*
X67415090Y-68845500D01*
X67421937Y-68845500D01*
X67421944Y-68845500D01*
X67663744Y-68813666D01*
X67899321Y-68750544D01*
X68124644Y-68657212D01*
X68335856Y-68535268D01*
X68529345Y-68386799D01*
X68701799Y-68214345D01*
X68850268Y-68020856D01*
X68972212Y-67809644D01*
X69065544Y-67584321D01*
X69128666Y-67348744D01*
X69160500Y-67106944D01*
X69160500Y-66343056D01*
X69128666Y-66101256D01*
X69065544Y-65865679D01*
X68972212Y-65640356D01*
X68972210Y-65640353D01*
X68972208Y-65640348D01*
X68850272Y-65429151D01*
X68850268Y-65429144D01*
X68749511Y-65297834D01*
X68701800Y-65235656D01*
X68701794Y-65235649D01*
X68529350Y-65063205D01*
X68529343Y-65063199D01*
X68335864Y-64914738D01*
X68335862Y-64914736D01*
X68335856Y-64914732D01*
X68335851Y-64914729D01*
X68335848Y-64914727D01*
X68124651Y-64792791D01*
X68124640Y-64792786D01*
X67899330Y-64699459D01*
X67899323Y-64699457D01*
X67899321Y-64699456D01*
X67663744Y-64636334D01*
X67623333Y-64631013D01*
X67421951Y-64604500D01*
X67421944Y-64604500D01*
X67178056Y-64604500D01*
X67178048Y-64604500D01*
X66947896Y-64634801D01*
X66936256Y-64636334D01*
X66700679Y-64699456D01*
X66700669Y-64699459D01*
X66475359Y-64792786D01*
X66475348Y-64792791D01*
X66264151Y-64914727D01*
X66264135Y-64914738D01*
X66070656Y-65063199D01*
X66070649Y-65063205D01*
X65898205Y-65235649D01*
X65898199Y-65235656D01*
X65782743Y-65386122D01*
X65726315Y-65427325D01*
X65656569Y-65431480D01*
X65595649Y-65397268D01*
X65579373Y-65376608D01*
X65529876Y-65297834D01*
X65529816Y-65297738D01*
X65402262Y-65170184D01*
X65249523Y-65074211D01*
X65079254Y-65014631D01*
X65079249Y-65014630D01*
X64900004Y-64994435D01*
X64899996Y-64994435D01*
X64720750Y-65014630D01*
X64720745Y-65014631D01*
X64550476Y-65074211D01*
X64397737Y-65170184D01*
X64270184Y-65297737D01*
X64174211Y-65450476D01*
X64114631Y-65620745D01*
X64114630Y-65620750D01*
X64094435Y-65799996D01*
X64094435Y-65800003D01*
X64114630Y-65979249D01*
X64114631Y-65979254D01*
X64174211Y-66149523D01*
X64270185Y-66302263D01*
X64272445Y-66305097D01*
X64273334Y-66307275D01*
X64273889Y-66308158D01*
X64273734Y-66308255D01*
X64298855Y-66369783D01*
X64299500Y-66382412D01*
X64299500Y-67213330D01*
X64299499Y-67213348D01*
X64299499Y-67379054D01*
X64299498Y-67379054D01*
X64340423Y-67531785D01*
X64349448Y-67547416D01*
X64349449Y-67547419D01*
X64419475Y-67668709D01*
X64419481Y-67668717D01*
X64538349Y-67787585D01*
X64538355Y-67787590D01*
X65338584Y-68587819D01*
X65372069Y-68649142D01*
X65367085Y-68718834D01*
X65325213Y-68774767D01*
X65259749Y-68799184D01*
X65250903Y-68799500D01*
X58740967Y-68799500D01*
X58673928Y-68779815D01*
X58628173Y-68727011D01*
X58618229Y-68657853D01*
X58647254Y-68594297D01*
X58678967Y-68568113D01*
X58735856Y-68535268D01*
X58929345Y-68386799D01*
X59101799Y-68214345D01*
X59250268Y-68020856D01*
X59372212Y-67809644D01*
X59465544Y-67584321D01*
X59528666Y-67348744D01*
X59560500Y-67106944D01*
X59560500Y-66343056D01*
X59528666Y-66101256D01*
X59465544Y-65865679D01*
X59372212Y-65640356D01*
X59372210Y-65640353D01*
X59372208Y-65640348D01*
X59250272Y-65429151D01*
X59250268Y-65429144D01*
X59149511Y-65297834D01*
X59101800Y-65235656D01*
X59101794Y-65235649D01*
X58929350Y-65063205D01*
X58929343Y-65063199D01*
X58735864Y-64914738D01*
X58735862Y-64914736D01*
X58735856Y-64914732D01*
X58735851Y-64914729D01*
X58735848Y-64914727D01*
X58524651Y-64792791D01*
X58524640Y-64792786D01*
X58299330Y-64699459D01*
X58299323Y-64699457D01*
X58299321Y-64699456D01*
X58063744Y-64636334D01*
X58023333Y-64631013D01*
X57821951Y-64604500D01*
X57821944Y-64604500D01*
X57578056Y-64604500D01*
X57578048Y-64604500D01*
X57347896Y-64634801D01*
X57336256Y-64636334D01*
X57100679Y-64699456D01*
X57100669Y-64699459D01*
X56875359Y-64792786D01*
X56875348Y-64792791D01*
X56664151Y-64914727D01*
X56664135Y-64914738D01*
X56470656Y-65063199D01*
X56470649Y-65063205D01*
X56298205Y-65235649D01*
X56298199Y-65235656D01*
X56149738Y-65429135D01*
X56149727Y-65429151D01*
X56027791Y-65640348D01*
X56027786Y-65640359D01*
X55934459Y-65865669D01*
X55934456Y-65865679D01*
X55926894Y-65893903D01*
X55871335Y-66101253D01*
X55871333Y-66101264D01*
X55839500Y-66343048D01*
X55839500Y-67106951D01*
X55860105Y-67263451D01*
X55871334Y-67348744D01*
X55934456Y-67584320D01*
X55934459Y-67584330D01*
X56027786Y-67809640D01*
X56027791Y-67809651D01*
X56149727Y-68020848D01*
X56149738Y-68020864D01*
X56298199Y-68214343D01*
X56298205Y-68214350D01*
X56470649Y-68386794D01*
X56470656Y-68386800D01*
X56579082Y-68469998D01*
X56664144Y-68535268D01*
X56664151Y-68535272D01*
X56721033Y-68568113D01*
X56769249Y-68618680D01*
X56782471Y-68687287D01*
X56756503Y-68752152D01*
X56699589Y-68792680D01*
X56659033Y-68799500D01*
X54331656Y-68799500D01*
X54264617Y-68779815D01*
X54218862Y-68727011D01*
X54208128Y-68664694D01*
X54225162Y-68470000D01*
X54224104Y-68457912D01*
X54212571Y-68326083D01*
X54206549Y-68257253D01*
X54151276Y-68050970D01*
X54061021Y-67857419D01*
X53938529Y-67682481D01*
X53938527Y-67682478D01*
X53787521Y-67531472D01*
X53612578Y-67408977D01*
X53612579Y-67408977D01*
X53483388Y-67348735D01*
X53419030Y-67318724D01*
X53419026Y-67318723D01*
X53419022Y-67318721D01*
X53212752Y-67263452D01*
X53212748Y-67263451D01*
X53212747Y-67263451D01*
X53212746Y-67263450D01*
X53212741Y-67263450D01*
X53000002Y-67244838D01*
X52999998Y-67244838D01*
X52787258Y-67263450D01*
X52787247Y-67263452D01*
X52580977Y-67318721D01*
X52580968Y-67318725D01*
X52387421Y-67408977D01*
X52212478Y-67531472D01*
X52061472Y-67682478D01*
X51938977Y-67857421D01*
X51848725Y-68050968D01*
X51848721Y-68050977D01*
X51793452Y-68257247D01*
X51793450Y-68257258D01*
X51774838Y-68469998D01*
X51774838Y-68470001D01*
X51793450Y-68682741D01*
X51793452Y-68682752D01*
X51848721Y-68889022D01*
X51848723Y-68889026D01*
X51848724Y-68889030D01*
X51868642Y-68931743D01*
X51938977Y-69082578D01*
X52061472Y-69257521D01*
X52212478Y-69408527D01*
X52212481Y-69408529D01*
X52387419Y-69531021D01*
X52387421Y-69531022D01*
X52387420Y-69531022D01*
X52451936Y-69561106D01*
X52580970Y-69621276D01*
X52580983Y-69621279D01*
X52586064Y-69623130D01*
X52585292Y-69625250D01*
X52636710Y-69656594D01*
X52667237Y-69719442D01*
X52658939Y-69788817D01*
X52614452Y-69842693D01*
X52585685Y-69855830D01*
X52586064Y-69856870D01*
X52580972Y-69858723D01*
X52580970Y-69858724D01*
X52580968Y-69858725D01*
X52387421Y-69948977D01*
X52212478Y-70071472D01*
X52061472Y-70222478D01*
X51938977Y-70397421D01*
X51848725Y-70590968D01*
X51848721Y-70590977D01*
X51793452Y-70797247D01*
X51793450Y-70797258D01*
X51774838Y-71009998D01*
X51774838Y-71010001D01*
X51793450Y-71222741D01*
X51793452Y-71222752D01*
X51848721Y-71429022D01*
X51848723Y-71429026D01*
X51848724Y-71429030D01*
X51891171Y-71520058D01*
X51938977Y-71622578D01*
X52061472Y-71797521D01*
X52212478Y-71948527D01*
X52212481Y-71948529D01*
X52387419Y-72071021D01*
X52387421Y-72071022D01*
X52387420Y-72071022D01*
X52451936Y-72101106D01*
X52580970Y-72161276D01*
X52580983Y-72161279D01*
X52586064Y-72163130D01*
X52585292Y-72165250D01*
X52636710Y-72196594D01*
X52667237Y-72259442D01*
X52658939Y-72328817D01*
X52614452Y-72382693D01*
X52585685Y-72395830D01*
X52586064Y-72396870D01*
X52580972Y-72398723D01*
X52580970Y-72398724D01*
X52580968Y-72398725D01*
X52387421Y-72488977D01*
X52212478Y-72611472D01*
X52061472Y-72762478D01*
X51938977Y-72937421D01*
X51848725Y-73130968D01*
X51848721Y-73130977D01*
X51793452Y-73337247D01*
X51793450Y-73337258D01*
X51774838Y-73549998D01*
X51774838Y-73550001D01*
X51793450Y-73762741D01*
X51793452Y-73762752D01*
X51848721Y-73969022D01*
X51848723Y-73969026D01*
X51848724Y-73969030D01*
X51851508Y-73975000D01*
X51938977Y-74162578D01*
X51938978Y-74162580D01*
X51938979Y-74162581D01*
X51950654Y-74179255D01*
X52061472Y-74337521D01*
X52212478Y-74488527D01*
X52212481Y-74488529D01*
X52387419Y-74611021D01*
X52387421Y-74611022D01*
X52387420Y-74611022D01*
X52451936Y-74641106D01*
X52580970Y-74701276D01*
X52787253Y-74756549D01*
X52939215Y-74769844D01*
X52999998Y-74775162D01*
X53000000Y-74775162D01*
X53000002Y-74775162D01*
X53053186Y-74770508D01*
X53212747Y-74756549D01*
X53419030Y-74701276D01*
X53612581Y-74611021D01*
X53787519Y-74488529D01*
X53938529Y-74337519D01*
X54061021Y-74162581D01*
X54151276Y-73969030D01*
X54206549Y-73762747D01*
X54225162Y-73550000D01*
X54206549Y-73337253D01*
X54151276Y-73130970D01*
X54061021Y-72937419D01*
X53938529Y-72762481D01*
X53938527Y-72762478D01*
X53787521Y-72611472D01*
X53612578Y-72488977D01*
X53612579Y-72488977D01*
X53483547Y-72428809D01*
X53419030Y-72398724D01*
X53419023Y-72398722D01*
X53413936Y-72396870D01*
X53414709Y-72394746D01*
X53363305Y-72363424D01*
X53332766Y-72300581D01*
X53341050Y-72231204D01*
X53385528Y-72177320D01*
X53414315Y-72164172D01*
X53413936Y-72163130D01*
X53419013Y-72161280D01*
X53419030Y-72161276D01*
X53612581Y-72071021D01*
X53787519Y-71948529D01*
X53938529Y-71797519D01*
X54043693Y-71647327D01*
X54098266Y-71603706D01*
X54113154Y-71598684D01*
X54221785Y-71569577D01*
X54288110Y-71531284D01*
X54358716Y-71490520D01*
X54470520Y-71378716D01*
X54470520Y-71378714D01*
X54480721Y-71368514D01*
X54480724Y-71368509D01*
X54912418Y-70936816D01*
X54973740Y-70903334D01*
X55000098Y-70900500D01*
X56178157Y-70900500D01*
X56245196Y-70920185D01*
X56290951Y-70972989D01*
X56301377Y-71038383D01*
X56294435Y-71099996D01*
X56294435Y-71100003D01*
X56314630Y-71279249D01*
X56314631Y-71279254D01*
X56374211Y-71449523D01*
X56467933Y-71598679D01*
X56470184Y-71602262D01*
X56597738Y-71729816D01*
X56688080Y-71786582D01*
X56705494Y-71797524D01*
X56750478Y-71825789D01*
X56916453Y-71883866D01*
X56920745Y-71885368D01*
X56920750Y-71885369D01*
X57099996Y-71905565D01*
X57100000Y-71905565D01*
X57100004Y-71905565D01*
X57279249Y-71885369D01*
X57279252Y-71885368D01*
X57279255Y-71885368D01*
X57449522Y-71825789D01*
X57602262Y-71729816D01*
X57602267Y-71729810D01*
X57605097Y-71727555D01*
X57607275Y-71726665D01*
X57608158Y-71726111D01*
X57608255Y-71726265D01*
X57669783Y-71701145D01*
X57682412Y-71700500D01*
X63899903Y-71700500D01*
X63966942Y-71720185D01*
X63987584Y-71736819D01*
X64363181Y-72112416D01*
X64396666Y-72173739D01*
X64399500Y-72200097D01*
X64399500Y-72883655D01*
X64379815Y-72950694D01*
X64334519Y-72992709D01*
X64231376Y-73048528D01*
X64231365Y-73048535D01*
X64048222Y-73191081D01*
X64048219Y-73191084D01*
X64048216Y-73191086D01*
X64048216Y-73191087D01*
X63913662Y-73337253D01*
X63891015Y-73361854D01*
X63853808Y-73418804D01*
X63800662Y-73464161D01*
X63731430Y-73473584D01*
X63668095Y-73444082D01*
X63646192Y-73418804D01*
X63608984Y-73361854D01*
X63608982Y-73361852D01*
X63608979Y-73361847D01*
X63451784Y-73191087D01*
X63451779Y-73191083D01*
X63451777Y-73191081D01*
X63268634Y-73048535D01*
X63268628Y-73048531D01*
X63064504Y-72938064D01*
X63064495Y-72938061D01*
X62844984Y-72862702D01*
X62625529Y-72826082D01*
X62616049Y-72824500D01*
X62383951Y-72824500D01*
X62374471Y-72826082D01*
X62155015Y-72862702D01*
X61935504Y-72938061D01*
X61935495Y-72938064D01*
X61731372Y-73048531D01*
X61554023Y-73186567D01*
X61489029Y-73212209D01*
X61420489Y-73198642D01*
X61370164Y-73150174D01*
X61361679Y-73132045D01*
X61343355Y-73082915D01*
X61343350Y-73082906D01*
X61257190Y-72967812D01*
X61257187Y-72967809D01*
X61142093Y-72881649D01*
X61142086Y-72881645D01*
X61007379Y-72831403D01*
X61007372Y-72831401D01*
X60947844Y-72825000D01*
X60250000Y-72825000D01*
X60250000Y-73791988D01*
X60192993Y-73759075D01*
X60065826Y-73725000D01*
X59934174Y-73725000D01*
X59807007Y-73759075D01*
X59750000Y-73791988D01*
X59750000Y-72825000D01*
X59052155Y-72825000D01*
X58992627Y-72831401D01*
X58992620Y-72831403D01*
X58857913Y-72881645D01*
X58857906Y-72881649D01*
X58742812Y-72967809D01*
X58742809Y-72967812D01*
X58656649Y-73082906D01*
X58656645Y-73082913D01*
X58606403Y-73217620D01*
X58606401Y-73217627D01*
X58600000Y-73277155D01*
X58600000Y-73975000D01*
X59566988Y-73975000D01*
X59534075Y-74032007D01*
X59500000Y-74159174D01*
X59500000Y-74290826D01*
X59534075Y-74417993D01*
X59566988Y-74475000D01*
X58600000Y-74475000D01*
X58600000Y-75172844D01*
X58606401Y-75232372D01*
X58606403Y-75232379D01*
X58656645Y-75367086D01*
X58656649Y-75367093D01*
X58742809Y-75482187D01*
X58742812Y-75482190D01*
X58857906Y-75568350D01*
X58857913Y-75568354D01*
X58992620Y-75618596D01*
X58992627Y-75618598D01*
X59052155Y-75624999D01*
X59052172Y-75625000D01*
X59750000Y-75625000D01*
X59750000Y-74658012D01*
X59807007Y-74690925D01*
X59934174Y-74725000D01*
X60065826Y-74725000D01*
X60192993Y-74690925D01*
X60250000Y-74658012D01*
X60250000Y-75625000D01*
X60947828Y-75625000D01*
X60947844Y-75624999D01*
X61007372Y-75618598D01*
X61007379Y-75618596D01*
X61142086Y-75568354D01*
X61142093Y-75568350D01*
X61257187Y-75482190D01*
X61257190Y-75482187D01*
X61343350Y-75367093D01*
X61343353Y-75367088D01*
X61361678Y-75317955D01*
X61403549Y-75262020D01*
X61469013Y-75237602D01*
X61537286Y-75252453D01*
X61554023Y-75263433D01*
X61731365Y-75401464D01*
X61731371Y-75401468D01*
X61731374Y-75401470D01*
X61935497Y-75511936D01*
X62049487Y-75551068D01*
X62155015Y-75587297D01*
X62155017Y-75587297D01*
X62155019Y-75587298D01*
X62383951Y-75625500D01*
X62383952Y-75625500D01*
X62616048Y-75625500D01*
X62616049Y-75625500D01*
X62844981Y-75587298D01*
X63064503Y-75511936D01*
X63268626Y-75401470D01*
X63451784Y-75258913D01*
X63608979Y-75088153D01*
X63646191Y-75031196D01*
X63699337Y-74985839D01*
X63768569Y-74976415D01*
X63831904Y-75005917D01*
X63853809Y-75031196D01*
X63891016Y-75088147D01*
X63891019Y-75088151D01*
X63891021Y-75088153D01*
X64048216Y-75258913D01*
X64048219Y-75258915D01*
X64048222Y-75258918D01*
X64231365Y-75401464D01*
X64231376Y-75401471D01*
X64351437Y-75466445D01*
X64401028Y-75515665D01*
X64416136Y-75583881D01*
X64391966Y-75649437D01*
X64336190Y-75691518D01*
X64292420Y-75699500D01*
X63886670Y-75699500D01*
X63886654Y-75699499D01*
X63879058Y-75699499D01*
X63720943Y-75699499D01*
X63644579Y-75719961D01*
X63568214Y-75740423D01*
X63568209Y-75740426D01*
X63431290Y-75819475D01*
X63431282Y-75819481D01*
X62924217Y-76326546D01*
X62924214Y-76326548D01*
X62924215Y-76326549D01*
X62819478Y-76431286D01*
X62769361Y-76518094D01*
X62769359Y-76518096D01*
X62740425Y-76568209D01*
X62740424Y-76568210D01*
X62740423Y-76568215D01*
X62699499Y-76720943D01*
X62699499Y-76720945D01*
X62699499Y-76889046D01*
X62699500Y-76889059D01*
X62699500Y-77613330D01*
X62699499Y-77613348D01*
X62699499Y-77779054D01*
X62699498Y-77779054D01*
X62740423Y-77931785D01*
X62769358Y-77981900D01*
X62769359Y-77981904D01*
X62769360Y-77981904D01*
X62819479Y-78068714D01*
X62819481Y-78068717D01*
X62938349Y-78187585D01*
X62938355Y-78187590D01*
X64663181Y-79912416D01*
X64696666Y-79973739D01*
X64699500Y-80000097D01*
X64699500Y-81272410D01*
X64679815Y-81339449D01*
X64627011Y-81385204D01*
X64589384Y-81395630D01*
X64420749Y-81414630D01*
X64420745Y-81414631D01*
X64250476Y-81474211D01*
X64097737Y-81570184D01*
X63970184Y-81697737D01*
X63874211Y-81850476D01*
X63814631Y-82020745D01*
X63814630Y-82020750D01*
X63794435Y-82199996D01*
X63794435Y-82200003D01*
X63814630Y-82379249D01*
X63814631Y-82379254D01*
X63874211Y-82549523D01*
X63970185Y-82702263D01*
X63972445Y-82705097D01*
X63973334Y-82707275D01*
X63973889Y-82708158D01*
X63973734Y-82708255D01*
X63998855Y-82769783D01*
X63999500Y-82782412D01*
X63999500Y-90299902D01*
X63979815Y-90366941D01*
X63963181Y-90387583D01*
X63519481Y-90831282D01*
X63519479Y-90831285D01*
X63469361Y-90918094D01*
X63469359Y-90918096D01*
X63440425Y-90968209D01*
X63440424Y-90968210D01*
X63440423Y-90968215D01*
X63399499Y-91120943D01*
X63399499Y-91120945D01*
X63399499Y-91289046D01*
X63399500Y-91289059D01*
X63399500Y-91617587D01*
X63379815Y-91684626D01*
X63372450Y-91694896D01*
X63370186Y-91697734D01*
X63274211Y-91850476D01*
X63214631Y-92020745D01*
X63214630Y-92020750D01*
X63194435Y-92199996D01*
X63194435Y-92200003D01*
X63214630Y-92379249D01*
X63214631Y-92379254D01*
X63274211Y-92549523D01*
X63370184Y-92702262D01*
X63497738Y-92829816D01*
X63650478Y-92925789D01*
X63820745Y-92985368D01*
X63820750Y-92985369D01*
X63999996Y-93005565D01*
X64000000Y-93005565D01*
X64000004Y-93005565D01*
X64179249Y-92985369D01*
X64179252Y-92985368D01*
X64179255Y-92985368D01*
X64349522Y-92925789D01*
X64421736Y-92880414D01*
X64488973Y-92861413D01*
X64555808Y-92881780D01*
X64601023Y-92935048D01*
X64611285Y-92975166D01*
X64613864Y-93006297D01*
X64613866Y-93006308D01*
X64670842Y-93231300D01*
X64764075Y-93443848D01*
X64891016Y-93638147D01*
X64891019Y-93638151D01*
X64891021Y-93638153D01*
X65048216Y-93808913D01*
X65048219Y-93808915D01*
X65048222Y-93808918D01*
X65231365Y-93951464D01*
X65231371Y-93951468D01*
X65231374Y-93951470D01*
X65435497Y-94061936D01*
X65549487Y-94101068D01*
X65655015Y-94137297D01*
X65655017Y-94137297D01*
X65655019Y-94137298D01*
X65883951Y-94175500D01*
X65883952Y-94175500D01*
X66116048Y-94175500D01*
X66116049Y-94175500D01*
X66344981Y-94137298D01*
X66564503Y-94061936D01*
X66768626Y-93951470D01*
X66951784Y-93808913D01*
X67108979Y-93638153D01*
X67146191Y-93581196D01*
X67199337Y-93535839D01*
X67268569Y-93526415D01*
X67331904Y-93555917D01*
X67353809Y-93581196D01*
X67391016Y-93638147D01*
X67391019Y-93638151D01*
X67391021Y-93638153D01*
X67548216Y-93808913D01*
X67548219Y-93808915D01*
X67548222Y-93808918D01*
X67731365Y-93951464D01*
X67731371Y-93951468D01*
X67731374Y-93951470D01*
X67935497Y-94061936D01*
X68049487Y-94101068D01*
X68155015Y-94137297D01*
X68155017Y-94137297D01*
X68155019Y-94137298D01*
X68383951Y-94175500D01*
X68383952Y-94175500D01*
X68616048Y-94175500D01*
X68616049Y-94175500D01*
X68844981Y-94137298D01*
X69064503Y-94061936D01*
X69268626Y-93951470D01*
X69445563Y-93813754D01*
X69510556Y-93788112D01*
X69579096Y-93801678D01*
X69629421Y-93850147D01*
X69637907Y-93868275D01*
X69656202Y-93917328D01*
X69656206Y-93917335D01*
X69742452Y-94032544D01*
X69742455Y-94032547D01*
X69857664Y-94118793D01*
X69857671Y-94118797D01*
X69992517Y-94169091D01*
X69992516Y-94169091D01*
X69999444Y-94169835D01*
X70052127Y-94175500D01*
X71947872Y-94175499D01*
X72007483Y-94169091D01*
X72142331Y-94118796D01*
X72257546Y-94032546D01*
X72343796Y-93917331D01*
X72394091Y-93782483D01*
X72400500Y-93722873D01*
X72400499Y-91827128D01*
X72394091Y-91767517D01*
X72392061Y-91762075D01*
X72343797Y-91632671D01*
X72343793Y-91632664D01*
X72257547Y-91517455D01*
X72257544Y-91517452D01*
X72142335Y-91431206D01*
X72142328Y-91431202D01*
X72007482Y-91380908D01*
X72007483Y-91380908D01*
X71947883Y-91374501D01*
X71947881Y-91374500D01*
X71947873Y-91374500D01*
X71947864Y-91374500D01*
X70052129Y-91374500D01*
X70052123Y-91374501D01*
X69992516Y-91380908D01*
X69857671Y-91431202D01*
X69857664Y-91431206D01*
X69742455Y-91517452D01*
X69742452Y-91517455D01*
X69656206Y-91632664D01*
X69656202Y-91632671D01*
X69637907Y-91681724D01*
X69596035Y-91737658D01*
X69530571Y-91762075D01*
X69462298Y-91747223D01*
X69445563Y-91736245D01*
X69396084Y-91697734D01*
X69268626Y-91598530D01*
X69118811Y-91517454D01*
X69064504Y-91488064D01*
X69064495Y-91488061D01*
X68844984Y-91412702D01*
X68644508Y-91379249D01*
X68616049Y-91374500D01*
X68383951Y-91374500D01*
X68355492Y-91379249D01*
X68155015Y-91412702D01*
X67935504Y-91488061D01*
X67935495Y-91488064D01*
X67731371Y-91598531D01*
X67731365Y-91598535D01*
X67548222Y-91741081D01*
X67548219Y-91741084D01*
X67548216Y-91741086D01*
X67548216Y-91741087D01*
X67466537Y-91829815D01*
X67391015Y-91911854D01*
X67353808Y-91968804D01*
X67300662Y-92014161D01*
X67231430Y-92023584D01*
X67168095Y-91994082D01*
X67146192Y-91968804D01*
X67108984Y-91911854D01*
X67108982Y-91911852D01*
X67108979Y-91911847D01*
X66951784Y-91741087D01*
X66951779Y-91741083D01*
X66951777Y-91741081D01*
X66768634Y-91598535D01*
X66768623Y-91598528D01*
X66665481Y-91542709D01*
X66615891Y-91493489D01*
X66600500Y-91433655D01*
X66600500Y-85000097D01*
X66620185Y-84933058D01*
X66636819Y-84912416D01*
X67012416Y-84536819D01*
X67073739Y-84503334D01*
X67100097Y-84500500D01*
X69117588Y-84500500D01*
X69184627Y-84520185D01*
X69194903Y-84527555D01*
X69197736Y-84529814D01*
X69197738Y-84529816D01*
X69350478Y-84625789D01*
X69520745Y-84685368D01*
X69520750Y-84685369D01*
X69699996Y-84705565D01*
X69700000Y-84705565D01*
X69700004Y-84705565D01*
X69879249Y-84685369D01*
X69879252Y-84685368D01*
X69879255Y-84685368D01*
X70049522Y-84625789D01*
X70202262Y-84529816D01*
X70329816Y-84402262D01*
X70425789Y-84249522D01*
X70485368Y-84079255D01*
X70495947Y-83985369D01*
X70504369Y-83910617D01*
X70531435Y-83846203D01*
X70589030Y-83806648D01*
X70627589Y-83800500D01*
X71717588Y-83800500D01*
X71784627Y-83820185D01*
X71794903Y-83827555D01*
X71797736Y-83829814D01*
X71797738Y-83829816D01*
X71950478Y-83925789D01*
X72120745Y-83985368D01*
X72120750Y-83985369D01*
X72299996Y-84005565D01*
X72300000Y-84005565D01*
X72300004Y-84005565D01*
X72479249Y-83985369D01*
X72479252Y-83985368D01*
X72479255Y-83985368D01*
X72649522Y-83925789D01*
X72802262Y-83829816D01*
X72929816Y-83702262D01*
X73025789Y-83549522D01*
X73085368Y-83379255D01*
X73087907Y-83356712D01*
X73114973Y-83292300D01*
X73170174Y-83253553D01*
X73249522Y-83225789D01*
X73309527Y-83188084D01*
X73376763Y-83169084D01*
X73443599Y-83189451D01*
X73488813Y-83242718D01*
X73499500Y-83293078D01*
X73499500Y-87375500D01*
X73479815Y-87442539D01*
X73427011Y-87488294D01*
X73375500Y-87499500D01*
X69282412Y-87499500D01*
X69215373Y-87479815D01*
X69205097Y-87472445D01*
X69202263Y-87470185D01*
X69202262Y-87470184D01*
X69145496Y-87434515D01*
X69049523Y-87374211D01*
X68879254Y-87314631D01*
X68879249Y-87314630D01*
X68700004Y-87294435D01*
X68699996Y-87294435D01*
X68520750Y-87314630D01*
X68520745Y-87314631D01*
X68350476Y-87374211D01*
X68197737Y-87470184D01*
X68070184Y-87597737D01*
X67974211Y-87750476D01*
X67914631Y-87920745D01*
X67914630Y-87920750D01*
X67894435Y-88099996D01*
X67894435Y-88100003D01*
X67914630Y-88279249D01*
X67914631Y-88279254D01*
X67974211Y-88449523D01*
X68061373Y-88588240D01*
X68070184Y-88602262D01*
X68197738Y-88729816D01*
X68288080Y-88786582D01*
X68348426Y-88824500D01*
X68350478Y-88825789D01*
X68520745Y-88885368D01*
X68520750Y-88885369D01*
X68699996Y-88905565D01*
X68700000Y-88905565D01*
X68700004Y-88905565D01*
X68879249Y-88885369D01*
X68879252Y-88885368D01*
X68879255Y-88885368D01*
X69049522Y-88825789D01*
X69202262Y-88729816D01*
X69202267Y-88729810D01*
X69205097Y-88727555D01*
X69207275Y-88726665D01*
X69208158Y-88726111D01*
X69208255Y-88726265D01*
X69269783Y-88701145D01*
X69282412Y-88700500D01*
X73375500Y-88700500D01*
X73442539Y-88720185D01*
X73488294Y-88772989D01*
X73499500Y-88824500D01*
X73499500Y-96143043D01*
X73479815Y-96210082D01*
X73463181Y-96230724D01*
X70907047Y-98786857D01*
X70907043Y-98786862D01*
X70867866Y-98845498D01*
X70867865Y-98845500D01*
X70824914Y-98909780D01*
X70768343Y-99046355D01*
X70768340Y-99046365D01*
X70739500Y-99191352D01*
X70739500Y-99191355D01*
X70739500Y-101563918D01*
X70739500Y-101563920D01*
X70739499Y-101563920D01*
X70768340Y-101708907D01*
X70768343Y-101708917D01*
X70824914Y-101845492D01*
X70857812Y-101894727D01*
X70857813Y-101894730D01*
X70907046Y-101968414D01*
X70907052Y-101968421D01*
X73463181Y-104524548D01*
X73496666Y-104585871D01*
X73499500Y-104612229D01*
X73499500Y-111224025D01*
X73479815Y-111291064D01*
X73427011Y-111336819D01*
X73375500Y-111348025D01*
X71528801Y-111348025D01*
X71461762Y-111328340D01*
X71416007Y-111275536D01*
X71406063Y-111206378D01*
X71414240Y-111176572D01*
X71493482Y-110985264D01*
X71493481Y-110985264D01*
X71493483Y-110985262D01*
X71551007Y-110745655D01*
X71570341Y-110500000D01*
X71551007Y-110254345D01*
X71493483Y-110014738D01*
X71399184Y-109787080D01*
X71399184Y-109787079D01*
X71270436Y-109576981D01*
X71270435Y-109576979D01*
X71234280Y-109534648D01*
X71110399Y-109389601D01*
X70986516Y-109283795D01*
X70923020Y-109229564D01*
X70923018Y-109229563D01*
X70712919Y-109100815D01*
X70712920Y-109100815D01*
X70598838Y-109053561D01*
X70544435Y-109009720D01*
X70522370Y-108943426D01*
X70539649Y-108875726D01*
X70590787Y-108828116D01*
X70646291Y-108815000D01*
X71012828Y-108815000D01*
X71012844Y-108814999D01*
X71072372Y-108808598D01*
X71072379Y-108808596D01*
X71207086Y-108758354D01*
X71207093Y-108758350D01*
X71322187Y-108672190D01*
X71322190Y-108672187D01*
X71408350Y-108557093D01*
X71408354Y-108557086D01*
X71458596Y-108422379D01*
X71458598Y-108422372D01*
X71464999Y-108362844D01*
X71465000Y-108362827D01*
X71465000Y-107650000D01*
X70556706Y-107650000D01*
X70586558Y-107577931D01*
X70610000Y-107460080D01*
X70610000Y-107339920D01*
X70586558Y-107222069D01*
X70556706Y-107150000D01*
X71465000Y-107150000D01*
X71465000Y-106437172D01*
X71464999Y-106437155D01*
X71458598Y-106377627D01*
X71458596Y-106377620D01*
X71408354Y-106242913D01*
X71408350Y-106242906D01*
X71322190Y-106127812D01*
X71322187Y-106127809D01*
X71207093Y-106041649D01*
X71207086Y-106041645D01*
X71072379Y-105991403D01*
X71072372Y-105991401D01*
X71012844Y-105985000D01*
X70250000Y-105985000D01*
X70250000Y-106843293D01*
X70177931Y-106813442D01*
X70060080Y-106790000D01*
X69939920Y-106790000D01*
X69822069Y-106813442D01*
X69750000Y-106843293D01*
X69750000Y-105985000D01*
X68987155Y-105985000D01*
X68927627Y-105991401D01*
X68927620Y-105991403D01*
X68792913Y-106041645D01*
X68792906Y-106041649D01*
X68677812Y-106127809D01*
X68677809Y-106127812D01*
X68591649Y-106242906D01*
X68591645Y-106242913D01*
X68541403Y-106377620D01*
X68541401Y-106377627D01*
X68535000Y-106437155D01*
X68535000Y-107150000D01*
X69443294Y-107150000D01*
X69413442Y-107222069D01*
X69390000Y-107339920D01*
X69390000Y-107460080D01*
X69413442Y-107577931D01*
X69443294Y-107650000D01*
X68535000Y-107650000D01*
X68535000Y-108362844D01*
X68541401Y-108422372D01*
X68541403Y-108422379D01*
X68591645Y-108557086D01*
X68591649Y-108557093D01*
X68677809Y-108672187D01*
X68677812Y-108672190D01*
X68792906Y-108758350D01*
X68792913Y-108758354D01*
X68927620Y-108808596D01*
X68927627Y-108808598D01*
X68987155Y-108814999D01*
X68987172Y-108815000D01*
X69353709Y-108815000D01*
X69420748Y-108834685D01*
X69466503Y-108887489D01*
X69476447Y-108956647D01*
X69447422Y-109020203D01*
X69401162Y-109053561D01*
X69287079Y-109100815D01*
X69076981Y-109229563D01*
X69076979Y-109229564D01*
X68889601Y-109389601D01*
X68729564Y-109576979D01*
X68729563Y-109576981D01*
X68600815Y-109787079D01*
X68506517Y-110014735D01*
X68448993Y-110254341D01*
X68429659Y-110500000D01*
X68448993Y-110745658D01*
X68506517Y-110985264D01*
X68585760Y-111176572D01*
X68593229Y-111246041D01*
X68561954Y-111308521D01*
X68501865Y-111344173D01*
X68471199Y-111348025D01*
X68330937Y-111348025D01*
X68263898Y-111328340D01*
X68253622Y-111320970D01*
X68250788Y-111318710D01*
X68250787Y-111318709D01*
X68135137Y-111246041D01*
X68098048Y-111222736D01*
X67927779Y-111163156D01*
X67927774Y-111163155D01*
X67748529Y-111142960D01*
X67748521Y-111142960D01*
X67569275Y-111163155D01*
X67569270Y-111163156D01*
X67399001Y-111222736D01*
X67246262Y-111318709D01*
X67118709Y-111446262D01*
X67022736Y-111599001D01*
X66963156Y-111769270D01*
X66963155Y-111769275D01*
X66942960Y-111948521D01*
X66942960Y-111948528D01*
X66963155Y-112127774D01*
X66963156Y-112127779D01*
X67022736Y-112298048D01*
X67083040Y-112394021D01*
X67102376Y-112424794D01*
X67118710Y-112450788D01*
X67120970Y-112453622D01*
X67121859Y-112455800D01*
X67122414Y-112456683D01*
X67122259Y-112456780D01*
X67147380Y-112518308D01*
X67148025Y-112530937D01*
X67148025Y-113099428D01*
X67128340Y-113166467D01*
X67075536Y-113212222D01*
X67006378Y-113222166D01*
X66942822Y-113193141D01*
X66936344Y-113187109D01*
X66230700Y-112481465D01*
X66197215Y-112420142D01*
X66195163Y-112407686D01*
X66185368Y-112320745D01*
X66125789Y-112150478D01*
X66029816Y-111997738D01*
X65902262Y-111870184D01*
X65891117Y-111863181D01*
X65749523Y-111774211D01*
X65579254Y-111714631D01*
X65579249Y-111714630D01*
X65400004Y-111694435D01*
X65399996Y-111694435D01*
X65220750Y-111714630D01*
X65220745Y-111714631D01*
X65050476Y-111774211D01*
X64897736Y-111870185D01*
X64894903Y-111872445D01*
X64892724Y-111873334D01*
X64891842Y-111873889D01*
X64891744Y-111873734D01*
X64830217Y-111898855D01*
X64817588Y-111899500D01*
X63300097Y-111899500D01*
X63233058Y-111879815D01*
X63212416Y-111863181D01*
X62136819Y-110787584D01*
X62103334Y-110726261D01*
X62100500Y-110699903D01*
X62100500Y-109782412D01*
X62120185Y-109715373D01*
X62127555Y-109705097D01*
X62129810Y-109702267D01*
X62129816Y-109702262D01*
X62225789Y-109549522D01*
X62285368Y-109379255D01*
X62305565Y-109200000D01*
X62289065Y-109053561D01*
X62285369Y-109020750D01*
X62285368Y-109020745D01*
X62258313Y-108943426D01*
X62225789Y-108850478D01*
X62129816Y-108697738D01*
X62002262Y-108570184D01*
X61981417Y-108557086D01*
X61849523Y-108474211D01*
X61679254Y-108414631D01*
X61679249Y-108414630D01*
X61500004Y-108394435D01*
X61499996Y-108394435D01*
X61320750Y-108414630D01*
X61320745Y-108414631D01*
X61150476Y-108474211D01*
X60997737Y-108570184D01*
X60870184Y-108697737D01*
X60774211Y-108850476D01*
X60714631Y-109020745D01*
X60714630Y-109020750D01*
X60694435Y-109199996D01*
X60694435Y-109200003D01*
X60714630Y-109379249D01*
X60714631Y-109379254D01*
X60774211Y-109549523D01*
X60870185Y-109702263D01*
X60872445Y-109705097D01*
X60873334Y-109707275D01*
X60873889Y-109708158D01*
X60873734Y-109708255D01*
X60898855Y-109769783D01*
X60899500Y-109782412D01*
X60899500Y-110913330D01*
X60899499Y-110913348D01*
X60899499Y-111079054D01*
X60899498Y-111079054D01*
X60899499Y-111079057D01*
X60940423Y-111231785D01*
X60965683Y-111275536D01*
X60969358Y-111281900D01*
X60969359Y-111281904D01*
X60969360Y-111281904D01*
X61019479Y-111368714D01*
X61019481Y-111368717D01*
X61138349Y-111487585D01*
X61138355Y-111487590D01*
X62515139Y-112864374D01*
X62515149Y-112864385D01*
X62519479Y-112868715D01*
X62519480Y-112868716D01*
X62631284Y-112980520D01*
X62631286Y-112980521D01*
X62631290Y-112980524D01*
X62768209Y-113059573D01*
X62768216Y-113059577D01*
X62880019Y-113089534D01*
X62920942Y-113100500D01*
X62920943Y-113100500D01*
X64817588Y-113100500D01*
X64884627Y-113120185D01*
X64894903Y-113127555D01*
X64897736Y-113129814D01*
X64897738Y-113129816D01*
X65050478Y-113225789D01*
X65220745Y-113285368D01*
X65307669Y-113295161D01*
X65372080Y-113322226D01*
X65381465Y-113330700D01*
X67077571Y-115026806D01*
X67111056Y-115088129D01*
X67106072Y-115157821D01*
X67100955Y-115168210D01*
X67101496Y-115168471D01*
X67098475Y-115174743D01*
X67038898Y-115345002D01*
X67038895Y-115345015D01*
X67018700Y-115524261D01*
X67018700Y-115524268D01*
X67038895Y-115703514D01*
X67038896Y-115703519D01*
X67098476Y-115873788D01*
X67194449Y-116026527D01*
X67322003Y-116154081D01*
X67474743Y-116250054D01*
X67645010Y-116309633D01*
X67645015Y-116309634D01*
X67706746Y-116316589D01*
X67771160Y-116343655D01*
X67810716Y-116401249D01*
X67812855Y-116471086D01*
X67812639Y-116471901D01*
X67799499Y-116520941D01*
X67799499Y-116689046D01*
X67799500Y-116689059D01*
X67799500Y-122017587D01*
X67779815Y-122084626D01*
X67772450Y-122094896D01*
X67770186Y-122097734D01*
X67674211Y-122250476D01*
X67614631Y-122420745D01*
X67614630Y-122420750D01*
X67594435Y-122599996D01*
X67594435Y-122600003D01*
X67614630Y-122779249D01*
X67614631Y-122779254D01*
X67674211Y-122949523D01*
X67770184Y-123102262D01*
X67897738Y-123229816D01*
X68050478Y-123325789D01*
X68139920Y-123357086D01*
X68220745Y-123385368D01*
X68220750Y-123385369D01*
X68399996Y-123405565D01*
X68400000Y-123405565D01*
X68400004Y-123405565D01*
X68539623Y-123389834D01*
X68608445Y-123401889D01*
X68652771Y-123438741D01*
X68677809Y-123472187D01*
X68677813Y-123472190D01*
X68792911Y-123558352D01*
X68792913Y-123558354D01*
X68927620Y-123608596D01*
X68927627Y-123608598D01*
X68987155Y-123614999D01*
X68987172Y-123615000D01*
X69353709Y-123615000D01*
X69420748Y-123634685D01*
X69466503Y-123687489D01*
X69476447Y-123756647D01*
X69447422Y-123820203D01*
X69401162Y-123853561D01*
X69287079Y-123900815D01*
X69076981Y-124029563D01*
X69076979Y-124029564D01*
X68889601Y-124189601D01*
X68729564Y-124376979D01*
X68729563Y-124376981D01*
X68600815Y-124587079D01*
X68506517Y-124814735D01*
X68448993Y-125054341D01*
X68429659Y-125300000D01*
X68448993Y-125545658D01*
X68506517Y-125785264D01*
X68600815Y-126012920D01*
X68729563Y-126223018D01*
X68729564Y-126223020D01*
X68731929Y-126225789D01*
X68889601Y-126410399D01*
X69034648Y-126534280D01*
X69076979Y-126570435D01*
X69076981Y-126570436D01*
X69287079Y-126699184D01*
X69514735Y-126793482D01*
X69514736Y-126793482D01*
X69514738Y-126793483D01*
X69754345Y-126851007D01*
X70000000Y-126870341D01*
X70245655Y-126851007D01*
X70485262Y-126793483D01*
X70712920Y-126699184D01*
X70923023Y-126570433D01*
X71110399Y-126410399D01*
X71270433Y-126223023D01*
X71399184Y-126012920D01*
X71493483Y-125785262D01*
X71551007Y-125545655D01*
X71570341Y-125300000D01*
X71551007Y-125054345D01*
X71493483Y-124814738D01*
X71452018Y-124714632D01*
X71399184Y-124587079D01*
X71270436Y-124376981D01*
X71270435Y-124376979D01*
X71221777Y-124320008D01*
X71110399Y-124189601D01*
X70986516Y-124083795D01*
X70923020Y-124029564D01*
X70923018Y-124029563D01*
X70712919Y-123900815D01*
X70712920Y-123900815D01*
X70598838Y-123853561D01*
X70544435Y-123809720D01*
X70522370Y-123743426D01*
X70539649Y-123675726D01*
X70590787Y-123628116D01*
X70646291Y-123615000D01*
X71012828Y-123615000D01*
X71012844Y-123614999D01*
X71072372Y-123608598D01*
X71072379Y-123608596D01*
X71207086Y-123558354D01*
X71207093Y-123558350D01*
X71322187Y-123472190D01*
X71322190Y-123472187D01*
X71408350Y-123357093D01*
X71408354Y-123357086D01*
X71458596Y-123222379D01*
X71458598Y-123222372D01*
X71464999Y-123162844D01*
X71465000Y-123162827D01*
X71465000Y-122450000D01*
X70556706Y-122450000D01*
X70586558Y-122377931D01*
X70610000Y-122260080D01*
X70610000Y-122139920D01*
X70586558Y-122022069D01*
X70556706Y-121950000D01*
X71465000Y-121950000D01*
X71465000Y-121237172D01*
X71464999Y-121237155D01*
X71458598Y-121177627D01*
X71458596Y-121177620D01*
X71408354Y-121042913D01*
X71408350Y-121042906D01*
X71322190Y-120927812D01*
X71322187Y-120927809D01*
X71207093Y-120841649D01*
X71207086Y-120841645D01*
X71072379Y-120791403D01*
X71072372Y-120791401D01*
X71012844Y-120785000D01*
X70250000Y-120785000D01*
X70250000Y-121643293D01*
X70177931Y-121613442D01*
X70060080Y-121590000D01*
X69939920Y-121590000D01*
X69822069Y-121613442D01*
X69750000Y-121643293D01*
X69750000Y-120785000D01*
X69124500Y-120785000D01*
X69057461Y-120765315D01*
X69011706Y-120712511D01*
X69000500Y-120661000D01*
X69000500Y-120244985D01*
X69020185Y-120177946D01*
X69072989Y-120132191D01*
X69142147Y-120122247D01*
X69189288Y-120139257D01*
X69224389Y-120160767D01*
X69287079Y-120199184D01*
X69514735Y-120293482D01*
X69514736Y-120293482D01*
X69514738Y-120293483D01*
X69754345Y-120351007D01*
X70000000Y-120370341D01*
X70245655Y-120351007D01*
X70485262Y-120293483D01*
X70712920Y-120199184D01*
X70923023Y-120070433D01*
X71110399Y-119910399D01*
X71270433Y-119723023D01*
X71399184Y-119512920D01*
X71493483Y-119285262D01*
X71551007Y-119045655D01*
X71570341Y-118800000D01*
X71551007Y-118554345D01*
X71493483Y-118314738D01*
X71487171Y-118299500D01*
X71399184Y-118087079D01*
X71270436Y-117876981D01*
X71270435Y-117876979D01*
X71222406Y-117820745D01*
X71110399Y-117689601D01*
X70986516Y-117583795D01*
X70923020Y-117529564D01*
X70923018Y-117529563D01*
X70712920Y-117400815D01*
X70485264Y-117306517D01*
X70245658Y-117248993D01*
X70000000Y-117229659D01*
X69754341Y-117248993D01*
X69514735Y-117306517D01*
X69287084Y-117400813D01*
X69226910Y-117437687D01*
X69189288Y-117460742D01*
X69121844Y-117478986D01*
X69055241Y-117457869D01*
X69010628Y-117404097D01*
X69000500Y-117355014D01*
X69000500Y-116761678D01*
X69004725Y-116729584D01*
X69024766Y-116654792D01*
X69024766Y-116496678D01*
X69024766Y-116489083D01*
X69024765Y-116489065D01*
X69024765Y-115263616D01*
X69044450Y-115196577D01*
X69097254Y-115150822D01*
X69166412Y-115140878D01*
X69211326Y-115156555D01*
X69349650Y-115237385D01*
X69580072Y-115325375D01*
X69580075Y-115325375D01*
X69580079Y-115325377D01*
X69821785Y-115374553D01*
X70068278Y-115383592D01*
X70312936Y-115352250D01*
X70549191Y-115281370D01*
X70770697Y-115172856D01*
X70971505Y-115029621D01*
X71146223Y-114855512D01*
X71290158Y-114655205D01*
X71399445Y-114434079D01*
X71471149Y-114198074D01*
X71503344Y-113953526D01*
X71505141Y-113880000D01*
X71484930Y-113634171D01*
X71424841Y-113394945D01*
X71326486Y-113168744D01*
X71192508Y-112961645D01*
X71026504Y-112779210D01*
X71015267Y-112770336D01*
X70974858Y-112713340D01*
X70971677Y-112643543D01*
X71006736Y-112583106D01*
X71068904Y-112551218D01*
X71092121Y-112549025D01*
X73964806Y-112549025D01*
X73964822Y-112549026D01*
X73972418Y-112549026D01*
X74130529Y-112549026D01*
X74130532Y-112549026D01*
X74283260Y-112508102D01*
X74283261Y-112508100D01*
X74291110Y-112505998D01*
X74291490Y-112507418D01*
X74317962Y-112502153D01*
X74317858Y-112501097D01*
X74323919Y-112500500D01*
X74351308Y-112495052D01*
X74420899Y-112501279D01*
X74476077Y-112544141D01*
X74499322Y-112610031D01*
X74499500Y-112616669D01*
X74499500Y-130402885D01*
X74479815Y-130469924D01*
X74427011Y-130515679D01*
X74357853Y-130525623D01*
X74294297Y-130496598D01*
X74258459Y-130443840D01*
X74225790Y-130350480D01*
X74225789Y-130350478D01*
X74129816Y-130197738D01*
X74002262Y-130070184D01*
X73921569Y-130019481D01*
X73849523Y-129974211D01*
X73679254Y-129914631D01*
X73679249Y-129914630D01*
X73500004Y-129894435D01*
X73499996Y-129894435D01*
X73320750Y-129914630D01*
X73320745Y-129914631D01*
X73150476Y-129974211D01*
X72997736Y-130070185D01*
X72994903Y-130072445D01*
X72992724Y-130073334D01*
X72991842Y-130073889D01*
X72991744Y-130073734D01*
X72930217Y-130098855D01*
X72917588Y-130099500D01*
X70980524Y-130099500D01*
X70913485Y-130079815D01*
X70867730Y-130027011D01*
X70857786Y-129957853D01*
X70886811Y-129894297D01*
X70908517Y-129874550D01*
X70971499Y-129829625D01*
X70971505Y-129829621D01*
X71146223Y-129655512D01*
X71290158Y-129455205D01*
X71399445Y-129234079D01*
X71471149Y-128998074D01*
X71503344Y-128753526D01*
X71505141Y-128680000D01*
X71484930Y-128434171D01*
X71424841Y-128194945D01*
X71326486Y-127968744D01*
X71192508Y-127761645D01*
X71026504Y-127579210D01*
X70832932Y-127426336D01*
X70616991Y-127307130D01*
X70616982Y-127307126D01*
X70384491Y-127224796D01*
X70384471Y-127224791D01*
X70141644Y-127181538D01*
X70141652Y-127181538D01*
X69900496Y-127178592D01*
X69895007Y-127178525D01*
X69895006Y-127178525D01*
X69895005Y-127178525D01*
X69895004Y-127178525D01*
X69651190Y-127215834D01*
X69651180Y-127215837D01*
X69416732Y-127292466D01*
X69197951Y-127406356D01*
X69197948Y-127406358D01*
X69000698Y-127554456D01*
X68830289Y-127732779D01*
X68830279Y-127732792D01*
X68691287Y-127936547D01*
X68691285Y-127936552D01*
X68587439Y-128160268D01*
X68587436Y-128160276D01*
X68521520Y-128397960D01*
X68521519Y-128397967D01*
X68495307Y-128643225D01*
X68509507Y-128889474D01*
X68509507Y-128889479D01*
X68563731Y-129130092D01*
X68656533Y-129358636D01*
X68785412Y-129568947D01*
X68859403Y-129654363D01*
X68946908Y-129755382D01*
X68946913Y-129755386D01*
X69097125Y-129880095D01*
X69136131Y-129938062D01*
X69137606Y-130007917D01*
X69101080Y-130067479D01*
X69038151Y-130097838D01*
X69017918Y-130099500D01*
X68500098Y-130099500D01*
X68433059Y-130079815D01*
X68412417Y-130063181D01*
X68368717Y-130019481D01*
X68368709Y-130019475D01*
X68266936Y-129960717D01*
X68266934Y-129960716D01*
X68231790Y-129940425D01*
X68231789Y-129940424D01*
X68219263Y-129937067D01*
X68079057Y-129899499D01*
X67920943Y-129899499D01*
X67913347Y-129899499D01*
X67913331Y-129899500D01*
X62669912Y-129899500D01*
X62602873Y-129879815D01*
X62592597Y-129872445D01*
X62589763Y-129870185D01*
X62589762Y-129870184D01*
X62525213Y-129829625D01*
X62437023Y-129774211D01*
X62266754Y-129714631D01*
X62266749Y-129714630D01*
X62087504Y-129694435D01*
X62087496Y-129694435D01*
X61908250Y-129714630D01*
X61908245Y-129714631D01*
X61737976Y-129774211D01*
X61585237Y-129870184D01*
X61457684Y-129997737D01*
X61361711Y-130150476D01*
X61302131Y-130320745D01*
X61302130Y-130320750D01*
X61281935Y-130499996D01*
X61281935Y-130500003D01*
X61302130Y-130679249D01*
X61302131Y-130679254D01*
X61361711Y-130849523D01*
X61415721Y-130935479D01*
X61457684Y-131002262D01*
X61585238Y-131129816D01*
X61737978Y-131225789D01*
X61834527Y-131259573D01*
X61908245Y-131285368D01*
X61908250Y-131285369D01*
X62087496Y-131305565D01*
X62087500Y-131305565D01*
X62087504Y-131305565D01*
X62266749Y-131285369D01*
X62266752Y-131285368D01*
X62266755Y-131285368D01*
X62437022Y-131225789D01*
X62589762Y-131129816D01*
X62589767Y-131129810D01*
X62592597Y-131127555D01*
X62594775Y-131126665D01*
X62595658Y-131126111D01*
X62595755Y-131126265D01*
X62657283Y-131101145D01*
X62669912Y-131100500D01*
X67699902Y-131100500D01*
X67766941Y-131120185D01*
X67787583Y-131136819D01*
X67831284Y-131180520D01*
X67831286Y-131180521D01*
X67831290Y-131180524D01*
X67968209Y-131259573D01*
X67968216Y-131259577D01*
X68120943Y-131300501D01*
X68120945Y-131300501D01*
X68286654Y-131300501D01*
X68286670Y-131300500D01*
X72917588Y-131300500D01*
X72984627Y-131320185D01*
X72994903Y-131327555D01*
X72997736Y-131329814D01*
X72997738Y-131329816D01*
X73150478Y-131425789D01*
X73320745Y-131485368D01*
X73320750Y-131485369D01*
X73499996Y-131505565D01*
X73500000Y-131505565D01*
X73500004Y-131505565D01*
X73679249Y-131485369D01*
X73679252Y-131485368D01*
X73679255Y-131485368D01*
X73849522Y-131425789D01*
X74002262Y-131329816D01*
X74129816Y-131202262D01*
X74225789Y-131049522D01*
X74258458Y-130956160D01*
X74299180Y-130899383D01*
X74364133Y-130873636D01*
X74432694Y-130887092D01*
X74483097Y-130935479D01*
X74499500Y-130997114D01*
X74499500Y-149375500D01*
X74479815Y-149442539D01*
X74427011Y-149488294D01*
X74375500Y-149499500D01*
X71383706Y-149499500D01*
X71316667Y-149479815D01*
X71270912Y-149427011D01*
X71260968Y-149357853D01*
X71277979Y-149310710D01*
X71399184Y-149112920D01*
X71493482Y-148885264D01*
X71493481Y-148885264D01*
X71493483Y-148885262D01*
X71551007Y-148645655D01*
X71570341Y-148400000D01*
X71551007Y-148154345D01*
X71493483Y-147914738D01*
X71454074Y-147819596D01*
X71399184Y-147687079D01*
X71270436Y-147476981D01*
X71270435Y-147476979D01*
X71234280Y-147434648D01*
X71110399Y-147289601D01*
X70986284Y-147183597D01*
X70923020Y-147129564D01*
X70923018Y-147129563D01*
X70712920Y-147000815D01*
X70485264Y-146906517D01*
X70245658Y-146848993D01*
X70000000Y-146829659D01*
X69754341Y-146848993D01*
X69514735Y-146906517D01*
X69287079Y-147000815D01*
X69076981Y-147129563D01*
X69076979Y-147129564D01*
X68889601Y-147289601D01*
X68729564Y-147476979D01*
X68729563Y-147476981D01*
X68600815Y-147687079D01*
X68506517Y-147914735D01*
X68448993Y-148154341D01*
X68429659Y-148400000D01*
X68448993Y-148645658D01*
X68506517Y-148885264D01*
X68600815Y-149112920D01*
X68722021Y-149310710D01*
X68740266Y-149378156D01*
X68719150Y-149444759D01*
X68665378Y-149489372D01*
X68616294Y-149499500D01*
X63157143Y-149499500D01*
X63090104Y-149479815D01*
X63044349Y-149427011D01*
X63034405Y-149357853D01*
X63063430Y-149294297D01*
X63104736Y-149263119D01*
X63177830Y-149229035D01*
X63371401Y-149093495D01*
X63538495Y-148926401D01*
X63674035Y-148732830D01*
X63773903Y-148518663D01*
X63835063Y-148290408D01*
X63855659Y-148055000D01*
X63835063Y-147819592D01*
X63773903Y-147591337D01*
X63674035Y-147377171D01*
X63538495Y-147183599D01*
X63538494Y-147183597D01*
X63371402Y-147016506D01*
X63371396Y-147016501D01*
X63185842Y-146886575D01*
X63142217Y-146831998D01*
X63135023Y-146762500D01*
X63166546Y-146700145D01*
X63185842Y-146683425D01*
X63208026Y-146667891D01*
X63371401Y-146553495D01*
X63538495Y-146386401D01*
X63674035Y-146192830D01*
X63773903Y-145978663D01*
X63835063Y-145750408D01*
X63855659Y-145515000D01*
X63835063Y-145279592D01*
X63773903Y-145051337D01*
X63674035Y-144837171D01*
X63629001Y-144772856D01*
X63538496Y-144643600D01*
X63524515Y-144629619D01*
X63416567Y-144521671D01*
X63383084Y-144460351D01*
X63388068Y-144390659D01*
X63429939Y-144334725D01*
X63460915Y-144317810D01*
X63592331Y-144268796D01*
X63707546Y-144182546D01*
X63793796Y-144067331D01*
X63844091Y-143932483D01*
X63850500Y-143872873D01*
X63850500Y-143443225D01*
X68495307Y-143443225D01*
X68509507Y-143689474D01*
X68509507Y-143689479D01*
X68563731Y-143930092D01*
X68564702Y-143932483D01*
X68619459Y-144067335D01*
X68656533Y-144158636D01*
X68785412Y-144368947D01*
X68804220Y-144390659D01*
X68946908Y-144555382D01*
X69136687Y-144712939D01*
X69136690Y-144712941D01*
X69136696Y-144712945D01*
X69349650Y-144837385D01*
X69580072Y-144925375D01*
X69580075Y-144925375D01*
X69580079Y-144925377D01*
X69821785Y-144974553D01*
X70068278Y-144983592D01*
X70312936Y-144952250D01*
X70549191Y-144881370D01*
X70770697Y-144772856D01*
X70971505Y-144629621D01*
X71146223Y-144455512D01*
X71290158Y-144255205D01*
X71399445Y-144034079D01*
X71471149Y-143798074D01*
X71503344Y-143553526D01*
X71505141Y-143480000D01*
X71484930Y-143234171D01*
X71424841Y-142994945D01*
X71326486Y-142768744D01*
X71192508Y-142561645D01*
X71026504Y-142379210D01*
X70832932Y-142226336D01*
X70616991Y-142107130D01*
X70616982Y-142107126D01*
X70384491Y-142024796D01*
X70384471Y-142024791D01*
X70141644Y-141981538D01*
X70141652Y-141981538D01*
X69900496Y-141978592D01*
X69895007Y-141978525D01*
X69895006Y-141978525D01*
X69895005Y-141978525D01*
X69895004Y-141978525D01*
X69651190Y-142015834D01*
X69651180Y-142015837D01*
X69416732Y-142092466D01*
X69197951Y-142206356D01*
X69197948Y-142206358D01*
X69000698Y-142354456D01*
X68830289Y-142532779D01*
X68830279Y-142532792D01*
X68691287Y-142736547D01*
X68691285Y-142736552D01*
X68587439Y-142960268D01*
X68587436Y-142960276D01*
X68521520Y-143197960D01*
X68521519Y-143197967D01*
X68495307Y-143443225D01*
X63850500Y-143443225D01*
X63850499Y-142077128D01*
X63845299Y-142028757D01*
X63844091Y-142017516D01*
X63793797Y-141882671D01*
X63793793Y-141882664D01*
X63707547Y-141767455D01*
X63707544Y-141767452D01*
X63592335Y-141681206D01*
X63592328Y-141681202D01*
X63457482Y-141630908D01*
X63457483Y-141630908D01*
X63397883Y-141624501D01*
X63397881Y-141624500D01*
X63397873Y-141624500D01*
X63397864Y-141624500D01*
X61602129Y-141624500D01*
X61602123Y-141624501D01*
X61542516Y-141630908D01*
X61407671Y-141681202D01*
X61407664Y-141681206D01*
X61292455Y-141767452D01*
X61292452Y-141767455D01*
X61206206Y-141882664D01*
X61206202Y-141882671D01*
X61155908Y-142017517D01*
X61149501Y-142077116D01*
X61149501Y-142077123D01*
X61149500Y-142077135D01*
X61149500Y-143872870D01*
X61149501Y-143872876D01*
X61155908Y-143932483D01*
X61206202Y-144067328D01*
X61206206Y-144067335D01*
X61292452Y-144182544D01*
X61292455Y-144182547D01*
X61407664Y-144268793D01*
X61407671Y-144268797D01*
X61539081Y-144317810D01*
X61595015Y-144359681D01*
X61619432Y-144425145D01*
X61604580Y-144493418D01*
X61583430Y-144521673D01*
X61461503Y-144643600D01*
X61325965Y-144837169D01*
X61325964Y-144837171D01*
X61226098Y-145051335D01*
X61226094Y-145051344D01*
X61164938Y-145279586D01*
X61164936Y-145279596D01*
X61144341Y-145514999D01*
X61144341Y-145515000D01*
X61164936Y-145750403D01*
X61164938Y-145750413D01*
X61226094Y-145978655D01*
X61226096Y-145978659D01*
X61226097Y-145978663D01*
X61325965Y-146192830D01*
X61325967Y-146192834D01*
X61461501Y-146386395D01*
X61461506Y-146386402D01*
X61628597Y-146553493D01*
X61628603Y-146553498D01*
X61814158Y-146683425D01*
X61857783Y-146738002D01*
X61864977Y-146807500D01*
X61833454Y-146869855D01*
X61814158Y-146886575D01*
X61628597Y-147016505D01*
X61461505Y-147183597D01*
X61325965Y-147377169D01*
X61325964Y-147377171D01*
X61226098Y-147591335D01*
X61226094Y-147591344D01*
X61164938Y-147819586D01*
X61164936Y-147819596D01*
X61144341Y-148054999D01*
X61144341Y-148055000D01*
X61164936Y-148290403D01*
X61164938Y-148290413D01*
X61226094Y-148518655D01*
X61226096Y-148518659D01*
X61226097Y-148518663D01*
X61285315Y-148645655D01*
X61325965Y-148732830D01*
X61325967Y-148732834D01*
X61432699Y-148885262D01*
X61461505Y-148926401D01*
X61628599Y-149093495D01*
X61656341Y-149112920D01*
X61822165Y-149229032D01*
X61822167Y-149229033D01*
X61822170Y-149229035D01*
X61895263Y-149263118D01*
X61947701Y-149309290D01*
X61966853Y-149376484D01*
X61946637Y-149443365D01*
X61893472Y-149488699D01*
X61842857Y-149499500D01*
X56383706Y-149499500D01*
X56316667Y-149479815D01*
X56270912Y-149427011D01*
X56260968Y-149357853D01*
X56277979Y-149310710D01*
X56399184Y-149112920D01*
X56493482Y-148885264D01*
X56493481Y-148885264D01*
X56493483Y-148885262D01*
X56551007Y-148645655D01*
X56570341Y-148400000D01*
X56551007Y-148154345D01*
X56493483Y-147914738D01*
X56454074Y-147819596D01*
X56399184Y-147687079D01*
X56270436Y-147476981D01*
X56270435Y-147476979D01*
X56234280Y-147434648D01*
X56110399Y-147289601D01*
X55986284Y-147183597D01*
X55923020Y-147129564D01*
X55923018Y-147129563D01*
X55712920Y-147000815D01*
X55485264Y-146906517D01*
X55245658Y-146848993D01*
X55000000Y-146829659D01*
X54754341Y-146848993D01*
X54514735Y-146906517D01*
X54287079Y-147000815D01*
X54076981Y-147129563D01*
X54076979Y-147129564D01*
X53889601Y-147289601D01*
X53729564Y-147476979D01*
X53729563Y-147476981D01*
X53600815Y-147687079D01*
X53506517Y-147914735D01*
X53448993Y-148154341D01*
X53429659Y-148400000D01*
X53448993Y-148645658D01*
X53506517Y-148885264D01*
X53600815Y-149112920D01*
X53722021Y-149310710D01*
X53740266Y-149378156D01*
X53719150Y-149444759D01*
X53665378Y-149489372D01*
X53616294Y-149499500D01*
X50624500Y-149499500D01*
X50557461Y-149479815D01*
X50511706Y-149427011D01*
X50500500Y-149375500D01*
X50500500Y-143443225D01*
X53495307Y-143443225D01*
X53509507Y-143689474D01*
X53509507Y-143689479D01*
X53563731Y-143930092D01*
X53564702Y-143932483D01*
X53619459Y-144067335D01*
X53656533Y-144158636D01*
X53785412Y-144368947D01*
X53804220Y-144390659D01*
X53946908Y-144555382D01*
X54136687Y-144712939D01*
X54136690Y-144712941D01*
X54136696Y-144712945D01*
X54349650Y-144837385D01*
X54580072Y-144925375D01*
X54580075Y-144925375D01*
X54580079Y-144925377D01*
X54821785Y-144974553D01*
X55068278Y-144983592D01*
X55312936Y-144952250D01*
X55549191Y-144881370D01*
X55770697Y-144772856D01*
X55971505Y-144629621D01*
X56146223Y-144455512D01*
X56290158Y-144255205D01*
X56399445Y-144034079D01*
X56471149Y-143798074D01*
X56503344Y-143553526D01*
X56505141Y-143480000D01*
X56484930Y-143234171D01*
X56424841Y-142994945D01*
X56326486Y-142768744D01*
X56192508Y-142561645D01*
X56026504Y-142379210D01*
X55832932Y-142226336D01*
X55616991Y-142107130D01*
X55616982Y-142107126D01*
X55384491Y-142024796D01*
X55384471Y-142024791D01*
X55141644Y-141981538D01*
X55141652Y-141981538D01*
X54900496Y-141978592D01*
X54895007Y-141978525D01*
X54895006Y-141978525D01*
X54895005Y-141978525D01*
X54895004Y-141978525D01*
X54651190Y-142015834D01*
X54651180Y-142015837D01*
X54416732Y-142092466D01*
X54197951Y-142206356D01*
X54197948Y-142206358D01*
X54000698Y-142354456D01*
X53830289Y-142532779D01*
X53830279Y-142532792D01*
X53691287Y-142736547D01*
X53691285Y-142736552D01*
X53587439Y-142960268D01*
X53587436Y-142960276D01*
X53521520Y-143197960D01*
X53521519Y-143197967D01*
X53495307Y-143443225D01*
X50500500Y-143443225D01*
X50500500Y-140100000D01*
X53429659Y-140100000D01*
X53448993Y-140345658D01*
X53506517Y-140585264D01*
X53600815Y-140812920D01*
X53729563Y-141023018D01*
X53729564Y-141023020D01*
X53729567Y-141023023D01*
X53889601Y-141210399D01*
X54034648Y-141334280D01*
X54076979Y-141370435D01*
X54076981Y-141370436D01*
X54287079Y-141499184D01*
X54514735Y-141593482D01*
X54514736Y-141593482D01*
X54514738Y-141593483D01*
X54754345Y-141651007D01*
X55000000Y-141670341D01*
X55245655Y-141651007D01*
X55485262Y-141593483D01*
X55712920Y-141499184D01*
X55923023Y-141370433D01*
X56110399Y-141210399D01*
X56270433Y-141023023D01*
X56399184Y-140812920D01*
X56493483Y-140585262D01*
X56551007Y-140345655D01*
X56570341Y-140100000D01*
X56551007Y-139854345D01*
X56493483Y-139614738D01*
X56399184Y-139387080D01*
X56399184Y-139387079D01*
X56270436Y-139176981D01*
X56270435Y-139176979D01*
X56234280Y-139134648D01*
X56110399Y-138989601D01*
X55986516Y-138883795D01*
X55923020Y-138829564D01*
X55923018Y-138829563D01*
X55712919Y-138700815D01*
X55712920Y-138700815D01*
X55598838Y-138653561D01*
X55544435Y-138609720D01*
X55522370Y-138543426D01*
X55539649Y-138475726D01*
X55590787Y-138428116D01*
X55646291Y-138415000D01*
X56012828Y-138415000D01*
X56012844Y-138414999D01*
X56072372Y-138408598D01*
X56072379Y-138408596D01*
X56207086Y-138358354D01*
X56207093Y-138358350D01*
X56322187Y-138272190D01*
X56322190Y-138272187D01*
X56408350Y-138157093D01*
X56408354Y-138157086D01*
X56458596Y-138022379D01*
X56458598Y-138022372D01*
X56464999Y-137962844D01*
X56465000Y-137962827D01*
X56465000Y-137250000D01*
X55556706Y-137250000D01*
X55586558Y-137177931D01*
X55610000Y-137060080D01*
X55610000Y-136939920D01*
X55586558Y-136822069D01*
X55556706Y-136750000D01*
X56465000Y-136750000D01*
X56465000Y-136235006D01*
X61094700Y-136235006D01*
X61113864Y-136466297D01*
X61113866Y-136466308D01*
X61170842Y-136691300D01*
X61264075Y-136903848D01*
X61391016Y-137098147D01*
X61391019Y-137098151D01*
X61391021Y-137098153D01*
X61485803Y-137201114D01*
X61516724Y-137263767D01*
X61508864Y-137333193D01*
X61464716Y-137387348D01*
X61437906Y-137401277D01*
X61357669Y-137431203D01*
X61357664Y-137431206D01*
X61242455Y-137517452D01*
X61242452Y-137517455D01*
X61156206Y-137632664D01*
X61156202Y-137632671D01*
X61105908Y-137767517D01*
X61099501Y-137827116D01*
X61099501Y-137827123D01*
X61099500Y-137827135D01*
X61099500Y-139722870D01*
X61099501Y-139722876D01*
X61105908Y-139782483D01*
X61156202Y-139917328D01*
X61156206Y-139917335D01*
X61242452Y-140032544D01*
X61242455Y-140032547D01*
X61357664Y-140118793D01*
X61357671Y-140118797D01*
X61492517Y-140169091D01*
X61492516Y-140169091D01*
X61499444Y-140169835D01*
X61552127Y-140175500D01*
X63447872Y-140175499D01*
X63507483Y-140169091D01*
X63642331Y-140118796D01*
X63667439Y-140100000D01*
X68429659Y-140100000D01*
X68448993Y-140345658D01*
X68506517Y-140585264D01*
X68600815Y-140812920D01*
X68729563Y-141023018D01*
X68729564Y-141023020D01*
X68729567Y-141023023D01*
X68889601Y-141210399D01*
X69034648Y-141334280D01*
X69076979Y-141370435D01*
X69076981Y-141370436D01*
X69287079Y-141499184D01*
X69514735Y-141593482D01*
X69514736Y-141593482D01*
X69514738Y-141593483D01*
X69754345Y-141651007D01*
X70000000Y-141670341D01*
X70245655Y-141651007D01*
X70485262Y-141593483D01*
X70712920Y-141499184D01*
X70923023Y-141370433D01*
X71110399Y-141210399D01*
X71270433Y-141023023D01*
X71399184Y-140812920D01*
X71493483Y-140585262D01*
X71551007Y-140345655D01*
X71570341Y-140100000D01*
X71551007Y-139854345D01*
X71493483Y-139614738D01*
X71399184Y-139387080D01*
X71399184Y-139387079D01*
X71270436Y-139176981D01*
X71270435Y-139176979D01*
X71234280Y-139134648D01*
X71110399Y-138989601D01*
X70986516Y-138883795D01*
X70923020Y-138829564D01*
X70923018Y-138829563D01*
X70712919Y-138700815D01*
X70712920Y-138700815D01*
X70598838Y-138653561D01*
X70544435Y-138609720D01*
X70522370Y-138543426D01*
X70539649Y-138475726D01*
X70590787Y-138428116D01*
X70646291Y-138415000D01*
X71012828Y-138415000D01*
X71012844Y-138414999D01*
X71072372Y-138408598D01*
X71072379Y-138408596D01*
X71207086Y-138358354D01*
X71207093Y-138358350D01*
X71322187Y-138272190D01*
X71322190Y-138272187D01*
X71408350Y-138157093D01*
X71408354Y-138157086D01*
X71458596Y-138022379D01*
X71458598Y-138022372D01*
X71464999Y-137962844D01*
X71465000Y-137962827D01*
X71465000Y-137250000D01*
X70556706Y-137250000D01*
X70586558Y-137177931D01*
X70610000Y-137060080D01*
X70610000Y-136939920D01*
X70586558Y-136822069D01*
X70556706Y-136750000D01*
X71465000Y-136750000D01*
X71465000Y-136037172D01*
X71464999Y-136037155D01*
X71458598Y-135977627D01*
X71458596Y-135977620D01*
X71408354Y-135842913D01*
X71408350Y-135842906D01*
X71322190Y-135727812D01*
X71322187Y-135727809D01*
X71207093Y-135641649D01*
X71207086Y-135641645D01*
X71072379Y-135591403D01*
X71072372Y-135591401D01*
X71012844Y-135585000D01*
X70250000Y-135585000D01*
X70250000Y-136443293D01*
X70177931Y-136413442D01*
X70060080Y-136390000D01*
X69939920Y-136390000D01*
X69822069Y-136413442D01*
X69750000Y-136443293D01*
X69750000Y-135585000D01*
X68987155Y-135585000D01*
X68927627Y-135591401D01*
X68927620Y-135591403D01*
X68792913Y-135641645D01*
X68792906Y-135641649D01*
X68677812Y-135727809D01*
X68677809Y-135727812D01*
X68591649Y-135842906D01*
X68591645Y-135842913D01*
X68541403Y-135977620D01*
X68541401Y-135977627D01*
X68535000Y-136037155D01*
X68535000Y-136750000D01*
X69443294Y-136750000D01*
X69413442Y-136822069D01*
X69390000Y-136939920D01*
X69390000Y-137060080D01*
X69413442Y-137177931D01*
X69443294Y-137250000D01*
X68535000Y-137250000D01*
X68535000Y-137962844D01*
X68541401Y-138022372D01*
X68541403Y-138022379D01*
X68591645Y-138157086D01*
X68591649Y-138157093D01*
X68677809Y-138272187D01*
X68677812Y-138272190D01*
X68792906Y-138358350D01*
X68792913Y-138358354D01*
X68927620Y-138408596D01*
X68927627Y-138408598D01*
X68987155Y-138414999D01*
X68987172Y-138415000D01*
X69353709Y-138415000D01*
X69420748Y-138434685D01*
X69466503Y-138487489D01*
X69476447Y-138556647D01*
X69447422Y-138620203D01*
X69401162Y-138653561D01*
X69287079Y-138700815D01*
X69076981Y-138829563D01*
X69076979Y-138829564D01*
X68889601Y-138989601D01*
X68729564Y-139176979D01*
X68729563Y-139176981D01*
X68600815Y-139387079D01*
X68506517Y-139614735D01*
X68448993Y-139854341D01*
X68429659Y-140100000D01*
X63667439Y-140100000D01*
X63757546Y-140032546D01*
X63843796Y-139917331D01*
X63894091Y-139782483D01*
X63900500Y-139722873D01*
X63900499Y-137827128D01*
X63894091Y-137767517D01*
X63843796Y-137632669D01*
X63843795Y-137632668D01*
X63843793Y-137632664D01*
X63757547Y-137517455D01*
X63757544Y-137517452D01*
X63642335Y-137431206D01*
X63642328Y-137431202D01*
X63562094Y-137401277D01*
X63506160Y-137359406D01*
X63481743Y-137293941D01*
X63496595Y-137225668D01*
X63514190Y-137201121D01*
X63608979Y-137098153D01*
X63735924Y-136903849D01*
X63829157Y-136691300D01*
X63886134Y-136466305D01*
X63886704Y-136459425D01*
X63905300Y-136235006D01*
X63905300Y-136234993D01*
X63886135Y-136003702D01*
X63886133Y-136003691D01*
X63829157Y-135778699D01*
X63735924Y-135566151D01*
X63608983Y-135371852D01*
X63608980Y-135371849D01*
X63608979Y-135371847D01*
X63451784Y-135201087D01*
X63451779Y-135201083D01*
X63451777Y-135201081D01*
X63268634Y-135058535D01*
X63268628Y-135058531D01*
X63064504Y-134948064D01*
X63064495Y-134948061D01*
X62844984Y-134872702D01*
X62673282Y-134844050D01*
X62616049Y-134834500D01*
X62383951Y-134834500D01*
X62338164Y-134842140D01*
X62155015Y-134872702D01*
X61935504Y-134948061D01*
X61935495Y-134948064D01*
X61731371Y-135058531D01*
X61731365Y-135058535D01*
X61548222Y-135201081D01*
X61548219Y-135201084D01*
X61391016Y-135371852D01*
X61264075Y-135566151D01*
X61170842Y-135778699D01*
X61113866Y-136003691D01*
X61113864Y-136003702D01*
X61094700Y-136234993D01*
X61094700Y-136235006D01*
X56465000Y-136235006D01*
X56465000Y-136037172D01*
X56464999Y-136037155D01*
X56458598Y-135977627D01*
X56458596Y-135977620D01*
X56408354Y-135842913D01*
X56408350Y-135842906D01*
X56322190Y-135727812D01*
X56322187Y-135727809D01*
X56207093Y-135641649D01*
X56207086Y-135641645D01*
X56072379Y-135591403D01*
X56072372Y-135591401D01*
X56012844Y-135585000D01*
X55250000Y-135585000D01*
X55250000Y-136443293D01*
X55177931Y-136413442D01*
X55060080Y-136390000D01*
X54939920Y-136390000D01*
X54822069Y-136413442D01*
X54750000Y-136443293D01*
X54750000Y-135585000D01*
X53987155Y-135585000D01*
X53927627Y-135591401D01*
X53927620Y-135591403D01*
X53792913Y-135641645D01*
X53792906Y-135641649D01*
X53677812Y-135727809D01*
X53677809Y-135727812D01*
X53591649Y-135842906D01*
X53591645Y-135842913D01*
X53541403Y-135977620D01*
X53541401Y-135977627D01*
X53535000Y-136037155D01*
X53535000Y-136750000D01*
X54443294Y-136750000D01*
X54413442Y-136822069D01*
X54390000Y-136939920D01*
X54390000Y-137060080D01*
X54413442Y-137177931D01*
X54443294Y-137250000D01*
X53535000Y-137250000D01*
X53535000Y-137962844D01*
X53541401Y-138022372D01*
X53541403Y-138022379D01*
X53591645Y-138157086D01*
X53591649Y-138157093D01*
X53677809Y-138272187D01*
X53677812Y-138272190D01*
X53792906Y-138358350D01*
X53792913Y-138358354D01*
X53927620Y-138408596D01*
X53927627Y-138408598D01*
X53987155Y-138414999D01*
X53987172Y-138415000D01*
X54353709Y-138415000D01*
X54420748Y-138434685D01*
X54466503Y-138487489D01*
X54476447Y-138556647D01*
X54447422Y-138620203D01*
X54401162Y-138653561D01*
X54287079Y-138700815D01*
X54076981Y-138829563D01*
X54076979Y-138829564D01*
X53889601Y-138989601D01*
X53729564Y-139176979D01*
X53729563Y-139176981D01*
X53600815Y-139387079D01*
X53506517Y-139614735D01*
X53448993Y-139854341D01*
X53429659Y-140100000D01*
X50500500Y-140100000D01*
X50500500Y-133600000D01*
X53429659Y-133600000D01*
X53448993Y-133845658D01*
X53506517Y-134085264D01*
X53600815Y-134312920D01*
X53729563Y-134523018D01*
X53729564Y-134523020D01*
X53729567Y-134523023D01*
X53889601Y-134710399D01*
X54034648Y-134834280D01*
X54076979Y-134870435D01*
X54076981Y-134870436D01*
X54287079Y-134999184D01*
X54514735Y-135093482D01*
X54514736Y-135093482D01*
X54514738Y-135093483D01*
X54754345Y-135151007D01*
X55000000Y-135170341D01*
X55245655Y-135151007D01*
X55485262Y-135093483D01*
X55712920Y-134999184D01*
X55923023Y-134870433D01*
X56110399Y-134710399D01*
X56270433Y-134523023D01*
X56399184Y-134312920D01*
X56493483Y-134085262D01*
X56551007Y-133845655D01*
X56570341Y-133600000D01*
X68429659Y-133600000D01*
X68448993Y-133845658D01*
X68506517Y-134085264D01*
X68600815Y-134312920D01*
X68729563Y-134523018D01*
X68729564Y-134523020D01*
X68729567Y-134523023D01*
X68889601Y-134710399D01*
X69034648Y-134834280D01*
X69076979Y-134870435D01*
X69076981Y-134870436D01*
X69287079Y-134999184D01*
X69514735Y-135093482D01*
X69514736Y-135093482D01*
X69514738Y-135093483D01*
X69754345Y-135151007D01*
X70000000Y-135170341D01*
X70245655Y-135151007D01*
X70485262Y-135093483D01*
X70712920Y-134999184D01*
X70923023Y-134870433D01*
X71110399Y-134710399D01*
X71270433Y-134523023D01*
X71399184Y-134312920D01*
X71493483Y-134085262D01*
X71551007Y-133845655D01*
X71570341Y-133600000D01*
X71551007Y-133354345D01*
X71493483Y-133114738D01*
X71399184Y-132887080D01*
X71399184Y-132887079D01*
X71270436Y-132676981D01*
X71270435Y-132676979D01*
X71234280Y-132634648D01*
X71110399Y-132489601D01*
X70986516Y-132383795D01*
X70923020Y-132329564D01*
X70923018Y-132329563D01*
X70712920Y-132200815D01*
X70485264Y-132106517D01*
X70245658Y-132048993D01*
X70000000Y-132029659D01*
X69754341Y-132048993D01*
X69514735Y-132106517D01*
X69287079Y-132200815D01*
X69076981Y-132329563D01*
X69076979Y-132329564D01*
X68889601Y-132489601D01*
X68729564Y-132676979D01*
X68729563Y-132676981D01*
X68600815Y-132887079D01*
X68506517Y-133114735D01*
X68448993Y-133354341D01*
X68429659Y-133600000D01*
X56570341Y-133600000D01*
X56551007Y-133354345D01*
X56493483Y-133114738D01*
X56399184Y-132887080D01*
X56399184Y-132887079D01*
X56270436Y-132676981D01*
X56270435Y-132676979D01*
X56234280Y-132634648D01*
X56110399Y-132489601D01*
X55986516Y-132383795D01*
X55923020Y-132329564D01*
X55923018Y-132329563D01*
X55712920Y-132200815D01*
X55485264Y-132106517D01*
X55245658Y-132048993D01*
X55000000Y-132029659D01*
X54754341Y-132048993D01*
X54514735Y-132106517D01*
X54287079Y-132200815D01*
X54076981Y-132329563D01*
X54076979Y-132329564D01*
X53889601Y-132489601D01*
X53729564Y-132676979D01*
X53729563Y-132676981D01*
X53600815Y-132887079D01*
X53506517Y-133114735D01*
X53448993Y-133354341D01*
X53429659Y-133600000D01*
X50500500Y-133600000D01*
X50500500Y-128643225D01*
X53495307Y-128643225D01*
X53509507Y-128889474D01*
X53509507Y-128889479D01*
X53563731Y-129130092D01*
X53656533Y-129358636D01*
X53785412Y-129568947D01*
X53860393Y-129655507D01*
X53946908Y-129755382D01*
X54136687Y-129912939D01*
X54136690Y-129912941D01*
X54136696Y-129912945D01*
X54349650Y-130037385D01*
X54580072Y-130125375D01*
X54580075Y-130125375D01*
X54580079Y-130125377D01*
X54821785Y-130174553D01*
X55068278Y-130183592D01*
X55312936Y-130152250D01*
X55549191Y-130081370D01*
X55770697Y-129972856D01*
X55971505Y-129829621D01*
X56146223Y-129655512D01*
X56290158Y-129455205D01*
X56399445Y-129234079D01*
X56471149Y-128998074D01*
X56503344Y-128753526D01*
X56505141Y-128680000D01*
X56484930Y-128434171D01*
X56424841Y-128194945D01*
X56326486Y-127968744D01*
X56192508Y-127761645D01*
X56026504Y-127579210D01*
X55832932Y-127426336D01*
X55616991Y-127307130D01*
X55616982Y-127307126D01*
X55384491Y-127224796D01*
X55384471Y-127224791D01*
X55141644Y-127181538D01*
X55141652Y-127181538D01*
X54900496Y-127178592D01*
X54895007Y-127178525D01*
X54895006Y-127178525D01*
X54895005Y-127178525D01*
X54895004Y-127178525D01*
X54651190Y-127215834D01*
X54651180Y-127215837D01*
X54416732Y-127292466D01*
X54197951Y-127406356D01*
X54197948Y-127406358D01*
X54000698Y-127554456D01*
X53830289Y-127732779D01*
X53830279Y-127732792D01*
X53691287Y-127936547D01*
X53691285Y-127936552D01*
X53587439Y-128160268D01*
X53587436Y-128160276D01*
X53521520Y-128397960D01*
X53521519Y-128397967D01*
X53495307Y-128643225D01*
X50500500Y-128643225D01*
X50500500Y-116710575D01*
X50520185Y-116643536D01*
X50572989Y-116597781D01*
X50638382Y-116587355D01*
X50707667Y-116595161D01*
X50772081Y-116622227D01*
X50781465Y-116630700D01*
X52563181Y-118412416D01*
X52596666Y-118473739D01*
X52599500Y-118500097D01*
X52599500Y-119713330D01*
X52599499Y-119713348D01*
X52599499Y-119879054D01*
X52599498Y-119879054D01*
X52599499Y-119879057D01*
X52640423Y-120031785D01*
X52662737Y-120070433D01*
X52697869Y-120131284D01*
X52719479Y-120168715D01*
X52838349Y-120287585D01*
X52838355Y-120287590D01*
X53415139Y-120864374D01*
X53415149Y-120864385D01*
X53419479Y-120868715D01*
X53419480Y-120868716D01*
X53531284Y-120980520D01*
X53531286Y-120980521D01*
X53535848Y-120985083D01*
X53569333Y-121046406D01*
X53564349Y-121116097D01*
X53541403Y-121177617D01*
X53541401Y-121177627D01*
X53535000Y-121237155D01*
X53535000Y-121950000D01*
X54443294Y-121950000D01*
X54413442Y-122022069D01*
X54390000Y-122139920D01*
X54390000Y-122260080D01*
X54413442Y-122377931D01*
X54443294Y-122450000D01*
X53535000Y-122450000D01*
X53535000Y-123162844D01*
X53541401Y-123222372D01*
X53541403Y-123222379D01*
X53591645Y-123357086D01*
X53591649Y-123357093D01*
X53677809Y-123472187D01*
X53677812Y-123472190D01*
X53792906Y-123558350D01*
X53792913Y-123558354D01*
X53927620Y-123608596D01*
X53927627Y-123608598D01*
X53987155Y-123614999D01*
X53987172Y-123615000D01*
X54353709Y-123615000D01*
X54420748Y-123634685D01*
X54466503Y-123687489D01*
X54476447Y-123756647D01*
X54447422Y-123820203D01*
X54401162Y-123853561D01*
X54287079Y-123900815D01*
X54076981Y-124029563D01*
X54076979Y-124029564D01*
X53889601Y-124189601D01*
X53729564Y-124376979D01*
X53729563Y-124376981D01*
X53600815Y-124587079D01*
X53506517Y-124814735D01*
X53448993Y-125054341D01*
X53429659Y-125300000D01*
X53448993Y-125545658D01*
X53506517Y-125785264D01*
X53600815Y-126012920D01*
X53729563Y-126223018D01*
X53729564Y-126223020D01*
X53731929Y-126225789D01*
X53889601Y-126410399D01*
X54034648Y-126534280D01*
X54076979Y-126570435D01*
X54076981Y-126570436D01*
X54287079Y-126699184D01*
X54514735Y-126793482D01*
X54514736Y-126793482D01*
X54514738Y-126793483D01*
X54754345Y-126851007D01*
X55000000Y-126870341D01*
X55245655Y-126851007D01*
X55485262Y-126793483D01*
X55712920Y-126699184D01*
X55923023Y-126570433D01*
X56110399Y-126410399D01*
X56270433Y-126223023D01*
X56399184Y-126012920D01*
X56493483Y-125785262D01*
X56508395Y-125723148D01*
X56543183Y-125662558D01*
X56605209Y-125630393D01*
X56674778Y-125636867D01*
X56716649Y-125664414D01*
X56916609Y-125864374D01*
X56916619Y-125864385D01*
X56920949Y-125868715D01*
X56920950Y-125868716D01*
X57032754Y-125980520D01*
X57088874Y-126012920D01*
X57119565Y-126030639D01*
X57119567Y-126030641D01*
X57157621Y-126052611D01*
X57169685Y-126059577D01*
X57322413Y-126100501D01*
X57322416Y-126100501D01*
X57488123Y-126100501D01*
X57488139Y-126100500D01*
X65917588Y-126100500D01*
X65984627Y-126120185D01*
X65994903Y-126127555D01*
X65997736Y-126129814D01*
X65997738Y-126129816D01*
X66150478Y-126225789D01*
X66320745Y-126285368D01*
X66320750Y-126285369D01*
X66499996Y-126305565D01*
X66500000Y-126305565D01*
X66500004Y-126305565D01*
X66679249Y-126285369D01*
X66679252Y-126285368D01*
X66679255Y-126285368D01*
X66849522Y-126225789D01*
X67002262Y-126129816D01*
X67129816Y-126002262D01*
X67225789Y-125849522D01*
X67285368Y-125679255D01*
X67287040Y-125664414D01*
X67305565Y-125500003D01*
X67305565Y-125499996D01*
X67285369Y-125320750D01*
X67285368Y-125320745D01*
X67225788Y-125150476D01*
X67186582Y-125088080D01*
X67129816Y-124997738D01*
X67002262Y-124870184D01*
X66991117Y-124863181D01*
X66849523Y-124774211D01*
X66679254Y-124714631D01*
X66679249Y-124714630D01*
X66500004Y-124694435D01*
X66499996Y-124694435D01*
X66320750Y-124714630D01*
X66320745Y-124714631D01*
X66150476Y-124774211D01*
X65997736Y-124870185D01*
X65994903Y-124872445D01*
X65992724Y-124873334D01*
X65991842Y-124873889D01*
X65991744Y-124873734D01*
X65930217Y-124898855D01*
X65917588Y-124899500D01*
X57701567Y-124899500D01*
X57634528Y-124879815D01*
X57613886Y-124863181D01*
X57231435Y-124480730D01*
X57197950Y-124419407D01*
X57195898Y-124406951D01*
X57186103Y-124320010D01*
X57126524Y-124149743D01*
X57030551Y-123997003D01*
X56902997Y-123869449D01*
X56750258Y-123773476D01*
X56579989Y-123713896D01*
X56579984Y-123713895D01*
X56400739Y-123693700D01*
X56398846Y-123693700D01*
X56397667Y-123693353D01*
X56393816Y-123692920D01*
X56393892Y-123692245D01*
X56331807Y-123674015D01*
X56286052Y-123621211D01*
X56276108Y-123552053D01*
X56305133Y-123488497D01*
X56315992Y-123478386D01*
X56322188Y-123472190D01*
X56347225Y-123438745D01*
X56403158Y-123396873D01*
X56460376Y-123389834D01*
X56599996Y-123405565D01*
X56600000Y-123405565D01*
X56600004Y-123405565D01*
X56779249Y-123385369D01*
X56779252Y-123385368D01*
X56779255Y-123385368D01*
X56949522Y-123325789D01*
X57102262Y-123229816D01*
X57229816Y-123102262D01*
X57325789Y-122949522D01*
X57385368Y-122779255D01*
X57405565Y-122600000D01*
X57393052Y-122488944D01*
X57385369Y-122420750D01*
X57385368Y-122420745D01*
X57325788Y-122250476D01*
X57292645Y-122197730D01*
X57229816Y-122097738D01*
X57229814Y-122097736D01*
X57229813Y-122097734D01*
X57227550Y-122094896D01*
X57226659Y-122092715D01*
X57226111Y-122091842D01*
X57226264Y-122091745D01*
X57201144Y-122030209D01*
X57200500Y-122017587D01*
X57200500Y-121389059D01*
X57200501Y-121389046D01*
X57200501Y-121220945D01*
X57200501Y-121220943D01*
X57159577Y-121068215D01*
X57108946Y-120980520D01*
X57080520Y-120931284D01*
X56968716Y-120819480D01*
X56968715Y-120819479D01*
X56964385Y-120815149D01*
X56964374Y-120815139D01*
X56287590Y-120138355D01*
X56287588Y-120138352D01*
X56168066Y-120018830D01*
X56134581Y-119957507D01*
X56139565Y-119887815D01*
X56161455Y-119850619D01*
X56270433Y-119723023D01*
X56313785Y-119652277D01*
X56370512Y-119559710D01*
X56422324Y-119512835D01*
X56476239Y-119500500D01*
X57513331Y-119500500D01*
X57513347Y-119500501D01*
X57520943Y-119500501D01*
X57679054Y-119500501D01*
X57679057Y-119500501D01*
X57831785Y-119459577D01*
X57881904Y-119430639D01*
X57968716Y-119380520D01*
X58080520Y-119268716D01*
X58080520Y-119268714D01*
X58090728Y-119258507D01*
X58090730Y-119258504D01*
X58518535Y-118830698D01*
X58579856Y-118797215D01*
X58592311Y-118795163D01*
X58679255Y-118785368D01*
X58849522Y-118725789D01*
X59002262Y-118629816D01*
X59129816Y-118502262D01*
X59131235Y-118500003D01*
X60694435Y-118500003D01*
X60714630Y-118679249D01*
X60714631Y-118679254D01*
X60774211Y-118849523D01*
X60870184Y-119002262D01*
X60997738Y-119129816D01*
X61150478Y-119225789D01*
X61320442Y-119285262D01*
X61320745Y-119285368D01*
X61320750Y-119285369D01*
X61499996Y-119305565D01*
X61500000Y-119305565D01*
X61500004Y-119305565D01*
X61679249Y-119285369D01*
X61679252Y-119285368D01*
X61679255Y-119285368D01*
X61849522Y-119225789D01*
X62002262Y-119129816D01*
X62129816Y-119002262D01*
X62225789Y-118849522D01*
X62283867Y-118683545D01*
X62324589Y-118626769D01*
X62389542Y-118601022D01*
X62400909Y-118600500D01*
X64417588Y-118600500D01*
X64484627Y-118620185D01*
X64494903Y-118627555D01*
X64497736Y-118629814D01*
X64497738Y-118629816D01*
X64650478Y-118725789D01*
X64820742Y-118785367D01*
X64820745Y-118785368D01*
X64820750Y-118785369D01*
X64999996Y-118805565D01*
X65000000Y-118805565D01*
X65000004Y-118805565D01*
X65179249Y-118785369D01*
X65179252Y-118785368D01*
X65179255Y-118785368D01*
X65349522Y-118725789D01*
X65502262Y-118629816D01*
X65629816Y-118502262D01*
X65725789Y-118349522D01*
X65785368Y-118179255D01*
X65785369Y-118179249D01*
X65805565Y-118000003D01*
X65805565Y-117999996D01*
X65785369Y-117820750D01*
X65785368Y-117820745D01*
X65743110Y-117699980D01*
X65725789Y-117650478D01*
X65629816Y-117497738D01*
X65502262Y-117370184D01*
X65400937Y-117306517D01*
X65349523Y-117274211D01*
X65179254Y-117214631D01*
X65179249Y-117214630D01*
X65000004Y-117194435D01*
X64999996Y-117194435D01*
X64820750Y-117214630D01*
X64820745Y-117214631D01*
X64650476Y-117274211D01*
X64497736Y-117370185D01*
X64494903Y-117372445D01*
X64492724Y-117373334D01*
X64491842Y-117373889D01*
X64491744Y-117373734D01*
X64430217Y-117398855D01*
X64417588Y-117399500D01*
X62086670Y-117399500D01*
X62086654Y-117399499D01*
X62079058Y-117399499D01*
X61920943Y-117399499D01*
X61844579Y-117419961D01*
X61768214Y-117440423D01*
X61768209Y-117440426D01*
X61631290Y-117519475D01*
X61631286Y-117519478D01*
X61481465Y-117669299D01*
X61420142Y-117702783D01*
X61407668Y-117704837D01*
X61320750Y-117714630D01*
X61150478Y-117774210D01*
X60997737Y-117870184D01*
X60870184Y-117997737D01*
X60774211Y-118150476D01*
X60714631Y-118320745D01*
X60714630Y-118320750D01*
X60694435Y-118499996D01*
X60694435Y-118500003D01*
X59131235Y-118500003D01*
X59225789Y-118349522D01*
X59285368Y-118179255D01*
X59285369Y-118179249D01*
X59305565Y-118000003D01*
X59305565Y-117999996D01*
X59285369Y-117820750D01*
X59285368Y-117820745D01*
X59243110Y-117699980D01*
X59225789Y-117650478D01*
X59129816Y-117497738D01*
X59002262Y-117370184D01*
X58900937Y-117306517D01*
X58849523Y-117274211D01*
X58679254Y-117214631D01*
X58679249Y-117214630D01*
X58500004Y-117194435D01*
X58499996Y-117194435D01*
X58320750Y-117214630D01*
X58320745Y-117214631D01*
X58150476Y-117274211D01*
X57997737Y-117370184D01*
X57870184Y-117497737D01*
X57774210Y-117650478D01*
X57714630Y-117820750D01*
X57704837Y-117907668D01*
X57677770Y-117972082D01*
X57669298Y-117981465D01*
X57387582Y-118263182D01*
X57326262Y-118296666D01*
X57299903Y-118299500D01*
X56570025Y-118299500D01*
X56502986Y-118279815D01*
X56457231Y-118227011D01*
X56455464Y-118222952D01*
X56399186Y-118087083D01*
X56399184Y-118087080D01*
X56270436Y-117876981D01*
X56270435Y-117876979D01*
X56222406Y-117820745D01*
X56110399Y-117689601D01*
X55986516Y-117583795D01*
X55923020Y-117529564D01*
X55923018Y-117529563D01*
X55712920Y-117400815D01*
X55485264Y-117306517D01*
X55245658Y-117248993D01*
X55000000Y-117229659D01*
X54754341Y-117248993D01*
X54514735Y-117306517D01*
X54287079Y-117400815D01*
X54076981Y-117529563D01*
X54076979Y-117529564D01*
X53889601Y-117689601D01*
X53815140Y-117776783D01*
X53756633Y-117814976D01*
X53686765Y-117815474D01*
X53633169Y-117783932D01*
X53564397Y-117715160D01*
X53564374Y-117715139D01*
X51630700Y-115781465D01*
X51597215Y-115720142D01*
X51595163Y-115707686D01*
X51585368Y-115620745D01*
X51525789Y-115450478D01*
X51429816Y-115297738D01*
X51302262Y-115170184D01*
X51299120Y-115168210D01*
X51149523Y-115074211D01*
X50979254Y-115014631D01*
X50979249Y-115014630D01*
X50800004Y-114994435D01*
X50799996Y-114994435D01*
X50638383Y-115012644D01*
X50569561Y-115000589D01*
X50518182Y-114953240D01*
X50500500Y-114889424D01*
X50500500Y-113843225D01*
X53495307Y-113843225D01*
X53509507Y-114089474D01*
X53509507Y-114089479D01*
X53563731Y-114330092D01*
X53656533Y-114558636D01*
X53785412Y-114768947D01*
X53860393Y-114855507D01*
X53946908Y-114955382D01*
X54136687Y-115112939D01*
X54136690Y-115112941D01*
X54136696Y-115112945D01*
X54349650Y-115237385D01*
X54580072Y-115325375D01*
X54580075Y-115325375D01*
X54580079Y-115325377D01*
X54821785Y-115374553D01*
X55068278Y-115383592D01*
X55312936Y-115352250D01*
X55549191Y-115281370D01*
X55770697Y-115172856D01*
X55971505Y-115029621D01*
X56146223Y-114855512D01*
X56290158Y-114655205D01*
X56399445Y-114434079D01*
X56471149Y-114198074D01*
X56503344Y-113953526D01*
X56505141Y-113880000D01*
X56484930Y-113634171D01*
X56424841Y-113394945D01*
X56326486Y-113168744D01*
X56192508Y-112961645D01*
X56026504Y-112779210D01*
X55943098Y-112713340D01*
X55832935Y-112626338D01*
X55832932Y-112626336D01*
X55616991Y-112507130D01*
X55616982Y-112507126D01*
X55384491Y-112424796D01*
X55384471Y-112424791D01*
X55141644Y-112381538D01*
X55141652Y-112381538D01*
X54900496Y-112378592D01*
X54895007Y-112378525D01*
X54895006Y-112378525D01*
X54895005Y-112378525D01*
X54895004Y-112378525D01*
X54651190Y-112415834D01*
X54651180Y-112415837D01*
X54416732Y-112492466D01*
X54197951Y-112606356D01*
X54197948Y-112606358D01*
X54000698Y-112754456D01*
X53830289Y-112932779D01*
X53830279Y-112932792D01*
X53691287Y-113136547D01*
X53691285Y-113136552D01*
X53587439Y-113360268D01*
X53587436Y-113360276D01*
X53521520Y-113597960D01*
X53521519Y-113597967D01*
X53495307Y-113843225D01*
X50500500Y-113843225D01*
X50500500Y-106610576D01*
X50520185Y-106543537D01*
X50572989Y-106497782D01*
X50638383Y-106487356D01*
X50799996Y-106505565D01*
X50800000Y-106505565D01*
X50800004Y-106505565D01*
X50979249Y-106485369D01*
X50979252Y-106485368D01*
X50979255Y-106485368D01*
X51149522Y-106425789D01*
X51302262Y-106329816D01*
X51302267Y-106329810D01*
X51305097Y-106327555D01*
X51307275Y-106326665D01*
X51308158Y-106326111D01*
X51308255Y-106326265D01*
X51369783Y-106301145D01*
X51382412Y-106300500D01*
X53411647Y-106300500D01*
X53478686Y-106320185D01*
X53524441Y-106372989D01*
X53534299Y-106433799D01*
X53535178Y-106433847D01*
X53535000Y-106437172D01*
X53535000Y-107150000D01*
X54443294Y-107150000D01*
X54413442Y-107222069D01*
X54390000Y-107339920D01*
X54390000Y-107460080D01*
X54413442Y-107577931D01*
X54443294Y-107650000D01*
X53535000Y-107650000D01*
X53535000Y-108362844D01*
X53541401Y-108422372D01*
X53541403Y-108422379D01*
X53591645Y-108557086D01*
X53591649Y-108557093D01*
X53677809Y-108672187D01*
X53677812Y-108672190D01*
X53792906Y-108758350D01*
X53792913Y-108758354D01*
X53927620Y-108808596D01*
X53927627Y-108808598D01*
X53987155Y-108814999D01*
X53987172Y-108815000D01*
X54353709Y-108815000D01*
X54420748Y-108834685D01*
X54466503Y-108887489D01*
X54476447Y-108956647D01*
X54447422Y-109020203D01*
X54401162Y-109053561D01*
X54287079Y-109100815D01*
X54076981Y-109229563D01*
X54076979Y-109229564D01*
X53889601Y-109389601D01*
X53729564Y-109576979D01*
X53729563Y-109576981D01*
X53600815Y-109787079D01*
X53506517Y-110014735D01*
X53448993Y-110254341D01*
X53429659Y-110500000D01*
X53448993Y-110745658D01*
X53506517Y-110985264D01*
X53600815Y-111212920D01*
X53729563Y-111423018D01*
X53729564Y-111423020D01*
X53729567Y-111423023D01*
X53889601Y-111610399D01*
X54034648Y-111734280D01*
X54076979Y-111770435D01*
X54076981Y-111770436D01*
X54287079Y-111899184D01*
X54514735Y-111993482D01*
X54514736Y-111993482D01*
X54514738Y-111993483D01*
X54754345Y-112051007D01*
X55000000Y-112070341D01*
X55245655Y-112051007D01*
X55485262Y-111993483D01*
X55712920Y-111899184D01*
X55923023Y-111770433D01*
X56110399Y-111610399D01*
X56270433Y-111423023D01*
X56399184Y-111212920D01*
X56493483Y-110985262D01*
X56551007Y-110745655D01*
X56570341Y-110500000D01*
X56551007Y-110254345D01*
X56493483Y-110014738D01*
X56399184Y-109787080D01*
X56399184Y-109787079D01*
X56270436Y-109576981D01*
X56270435Y-109576979D01*
X56234280Y-109534648D01*
X56110399Y-109389601D01*
X55986516Y-109283795D01*
X55923020Y-109229564D01*
X55923018Y-109229563D01*
X55712919Y-109100815D01*
X55712920Y-109100815D01*
X55598838Y-109053561D01*
X55544435Y-109009720D01*
X55522370Y-108943426D01*
X55539649Y-108875726D01*
X55590787Y-108828116D01*
X55646291Y-108815000D01*
X56012828Y-108815000D01*
X56012844Y-108814999D01*
X56072372Y-108808598D01*
X56072379Y-108808596D01*
X56207086Y-108758354D01*
X56207093Y-108758350D01*
X56322187Y-108672190D01*
X56322190Y-108672187D01*
X56408350Y-108557093D01*
X56408354Y-108557086D01*
X56458596Y-108422379D01*
X56458598Y-108422372D01*
X56464999Y-108362844D01*
X56465000Y-108362827D01*
X56465000Y-107650000D01*
X55556706Y-107650000D01*
X55586558Y-107577931D01*
X55610000Y-107460080D01*
X55610000Y-107339920D01*
X55586558Y-107222069D01*
X55556706Y-107150000D01*
X56465000Y-107150000D01*
X56465000Y-106437172D01*
X56464822Y-106433847D01*
X56465774Y-106433796D01*
X56477476Y-106368982D01*
X56525092Y-106317851D01*
X56588353Y-106300500D01*
X57074506Y-106300500D01*
X57140477Y-106319506D01*
X57150474Y-106325787D01*
X57150475Y-106325787D01*
X57150478Y-106325789D01*
X57320745Y-106385368D01*
X57320750Y-106385369D01*
X57499996Y-106405565D01*
X57500000Y-106405565D01*
X57500004Y-106405565D01*
X57679249Y-106385369D01*
X57679252Y-106385368D01*
X57679255Y-106385368D01*
X57849522Y-106325789D01*
X58002262Y-106229816D01*
X58129816Y-106102262D01*
X58225789Y-105949522D01*
X58285368Y-105779255D01*
X58302652Y-105625851D01*
X58329718Y-105561438D01*
X58387313Y-105521883D01*
X58457150Y-105519745D01*
X58466135Y-105522454D01*
X58655015Y-105587297D01*
X58655017Y-105587297D01*
X58655019Y-105587298D01*
X58883951Y-105625500D01*
X58883952Y-105625500D01*
X59116048Y-105625500D01*
X59116049Y-105625500D01*
X59344981Y-105587298D01*
X59564503Y-105511936D01*
X59768626Y-105401470D01*
X59951784Y-105258913D01*
X60108979Y-105088153D01*
X60114427Y-105079815D01*
X60138780Y-105042539D01*
X60235924Y-104893849D01*
X60329157Y-104681300D01*
X60386134Y-104456305D01*
X60405300Y-104225000D01*
X60405300Y-104224993D01*
X60386135Y-103993702D01*
X60386133Y-103993691D01*
X60329157Y-103768699D01*
X60235924Y-103556151D01*
X60108983Y-103361852D01*
X60108980Y-103361849D01*
X60108979Y-103361847D01*
X59951784Y-103191087D01*
X59951779Y-103191083D01*
X59951777Y-103191081D01*
X59768634Y-103048535D01*
X59768628Y-103048531D01*
X59564504Y-102938064D01*
X59564495Y-102938061D01*
X59344984Y-102862702D01*
X59157404Y-102831401D01*
X59116049Y-102824500D01*
X58883951Y-102824500D01*
X58842596Y-102831401D01*
X58655015Y-102862702D01*
X58435504Y-102938061D01*
X58435495Y-102938064D01*
X58231371Y-103048531D01*
X58231365Y-103048535D01*
X58048222Y-103191081D01*
X58048219Y-103191084D01*
X58048216Y-103191086D01*
X58048216Y-103191087D01*
X57992544Y-103251564D01*
X57891015Y-103361854D01*
X57853808Y-103418804D01*
X57800662Y-103464161D01*
X57731430Y-103473584D01*
X57668095Y-103444082D01*
X57646192Y-103418804D01*
X57608984Y-103361854D01*
X57608982Y-103361852D01*
X57608979Y-103361847D01*
X57451784Y-103191087D01*
X57451779Y-103191083D01*
X57451777Y-103191081D01*
X57268634Y-103048535D01*
X57268623Y-103048528D01*
X57165481Y-102992709D01*
X57115891Y-102943489D01*
X57100500Y-102883655D01*
X57100500Y-101276580D01*
X57120185Y-101209541D01*
X57153374Y-101175007D01*
X57339139Y-101044935D01*
X57500047Y-100884027D01*
X57630568Y-100697622D01*
X57726739Y-100491384D01*
X57785635Y-100271580D01*
X57805468Y-100044888D01*
X57785635Y-99818196D01*
X57726739Y-99598392D01*
X57630568Y-99392154D01*
X57630567Y-99392152D01*
X57621589Y-99379330D01*
X57599262Y-99313123D01*
X57616273Y-99245356D01*
X57648855Y-99208939D01*
X57657546Y-99202434D01*
X57743796Y-99087219D01*
X57794091Y-98952371D01*
X57800500Y-98892761D01*
X57800499Y-97197016D01*
X57794091Y-97137405D01*
X57782732Y-97106951D01*
X59439500Y-97106951D01*
X59451358Y-97197015D01*
X59471334Y-97348744D01*
X59531747Y-97574211D01*
X59534456Y-97584320D01*
X59534459Y-97584330D01*
X59627786Y-97809640D01*
X59627791Y-97809651D01*
X59749727Y-98020848D01*
X59749738Y-98020864D01*
X59898199Y-98214343D01*
X59898205Y-98214350D01*
X60070649Y-98386794D01*
X60070655Y-98386799D01*
X60264144Y-98535268D01*
X60264151Y-98535272D01*
X60475348Y-98657208D01*
X60475353Y-98657210D01*
X60475356Y-98657212D01*
X60700679Y-98750544D01*
X60936256Y-98813666D01*
X61166415Y-98843967D01*
X61178040Y-98845498D01*
X61178056Y-98845500D01*
X61178063Y-98845500D01*
X61421937Y-98845500D01*
X61421944Y-98845500D01*
X61663744Y-98813666D01*
X61899321Y-98750544D01*
X62095997Y-98669077D01*
X62165464Y-98661609D01*
X62227943Y-98692884D01*
X62263596Y-98752972D01*
X62261103Y-98822798D01*
X62241824Y-98859125D01*
X62149738Y-98979134D01*
X62149727Y-98979151D01*
X62027791Y-99190348D01*
X62027786Y-99190359D01*
X61934459Y-99415669D01*
X61934456Y-99415679D01*
X61871335Y-99651253D01*
X61871333Y-99651264D01*
X61839500Y-99893048D01*
X61839500Y-100656951D01*
X61844855Y-100697622D01*
X61871334Y-100898744D01*
X61934456Y-101134320D01*
X61934459Y-101134330D01*
X62027786Y-101359640D01*
X62027791Y-101359651D01*
X62149727Y-101570848D01*
X62149738Y-101570864D01*
X62298199Y-101764343D01*
X62298205Y-101764350D01*
X62470649Y-101936794D01*
X62470656Y-101936800D01*
X62608431Y-102042518D01*
X62664144Y-102085268D01*
X62664151Y-102085272D01*
X62875348Y-102207208D01*
X62875353Y-102207210D01*
X62875356Y-102207212D01*
X63100679Y-102300544D01*
X63336256Y-102363666D01*
X63578056Y-102395500D01*
X63578063Y-102395500D01*
X63821937Y-102395500D01*
X63821944Y-102395500D01*
X64063744Y-102363666D01*
X64299321Y-102300544D01*
X64524644Y-102207212D01*
X64735856Y-102085268D01*
X64929345Y-101936799D01*
X65101799Y-101764345D01*
X65250268Y-101570856D01*
X65372212Y-101359644D01*
X65465544Y-101134321D01*
X65528666Y-100898744D01*
X65560500Y-100656944D01*
X65560500Y-99893056D01*
X65528666Y-99651256D01*
X65465544Y-99415679D01*
X65372212Y-99190356D01*
X65372210Y-99190353D01*
X65372208Y-99190348D01*
X65250272Y-98979151D01*
X65250268Y-98979144D01*
X65190417Y-98901145D01*
X65101800Y-98785656D01*
X65101794Y-98785649D01*
X64929350Y-98613205D01*
X64929343Y-98613199D01*
X64735864Y-98464738D01*
X64735862Y-98464736D01*
X64735856Y-98464732D01*
X64735851Y-98464729D01*
X64735848Y-98464727D01*
X64524651Y-98342791D01*
X64524640Y-98342786D01*
X64421353Y-98300003D01*
X65694435Y-98300003D01*
X65714630Y-98479249D01*
X65714631Y-98479254D01*
X65774211Y-98649523D01*
X65870184Y-98802262D01*
X65997738Y-98929816D01*
X66150478Y-99025789D01*
X66209267Y-99046360D01*
X66320745Y-99085368D01*
X66320750Y-99085369D01*
X66499996Y-99105565D01*
X66500000Y-99105565D01*
X66500004Y-99105565D01*
X66679249Y-99085369D01*
X66679252Y-99085368D01*
X66679255Y-99085368D01*
X66849522Y-99025789D01*
X67002262Y-98929816D01*
X67002267Y-98929810D01*
X67005097Y-98927555D01*
X67007275Y-98926665D01*
X67008158Y-98926111D01*
X67008255Y-98926265D01*
X67069783Y-98901145D01*
X67082412Y-98900500D01*
X68515307Y-98900500D01*
X68582346Y-98920185D01*
X68595415Y-98930716D01*
X68595579Y-98930512D01*
X68601021Y-98934852D01*
X68601022Y-98934853D01*
X68628902Y-98952371D01*
X68745745Y-99025789D01*
X68753762Y-99030826D01*
X68909634Y-99085368D01*
X68924029Y-99090405D01*
X68924034Y-99090406D01*
X69103280Y-99110602D01*
X69103284Y-99110602D01*
X69103288Y-99110602D01*
X69282533Y-99090406D01*
X69282536Y-99090405D01*
X69282539Y-99090405D01*
X69452806Y-99030826D01*
X69605546Y-98934853D01*
X69733100Y-98807299D01*
X69829073Y-98654559D01*
X69888652Y-98484292D01*
X69889220Y-98479254D01*
X69908849Y-98305040D01*
X69908849Y-98305033D01*
X69888653Y-98125787D01*
X69888652Y-98125782D01*
X69854226Y-98027399D01*
X69829073Y-97955515D01*
X69733100Y-97802775D01*
X69605546Y-97675221D01*
X69512094Y-97616501D01*
X69452807Y-97579248D01*
X69282538Y-97519668D01*
X69282533Y-97519667D01*
X69103288Y-97499472D01*
X69103280Y-97499472D01*
X68924034Y-97519667D01*
X68924029Y-97519668D01*
X68753760Y-97579248D01*
X68625194Y-97660032D01*
X68609039Y-97670184D01*
X68595126Y-97678926D01*
X68593799Y-97676814D01*
X68539820Y-97698855D01*
X68527188Y-97699500D01*
X67082412Y-97699500D01*
X67015373Y-97679815D01*
X67005097Y-97672445D01*
X67002263Y-97670185D01*
X67002262Y-97670184D01*
X66902748Y-97607655D01*
X66849523Y-97574211D01*
X66679254Y-97514631D01*
X66679249Y-97514630D01*
X66500004Y-97494435D01*
X66499996Y-97494435D01*
X66320750Y-97514630D01*
X66320745Y-97514631D01*
X66150476Y-97574211D01*
X65997737Y-97670184D01*
X65870184Y-97797737D01*
X65774211Y-97950476D01*
X65714631Y-98120745D01*
X65714630Y-98120750D01*
X65694435Y-98299996D01*
X65694435Y-98300003D01*
X64421353Y-98300003D01*
X64299330Y-98249459D01*
X64299323Y-98249457D01*
X64299321Y-98249456D01*
X64063744Y-98186334D01*
X64023333Y-98181013D01*
X63821951Y-98154500D01*
X63821944Y-98154500D01*
X63578056Y-98154500D01*
X63578048Y-98154500D01*
X63347896Y-98184801D01*
X63336256Y-98186334D01*
X63231698Y-98214350D01*
X63100679Y-98249456D01*
X63100669Y-98249459D01*
X62904004Y-98330921D01*
X62834534Y-98338390D01*
X62772055Y-98307115D01*
X62736403Y-98247026D01*
X62738897Y-98177201D01*
X62758175Y-98140874D01*
X62769752Y-98125787D01*
X62850268Y-98020856D01*
X62972212Y-97809644D01*
X63065544Y-97584321D01*
X63128666Y-97348744D01*
X63160500Y-97106944D01*
X63160500Y-96343056D01*
X63128666Y-96101256D01*
X63065544Y-95865679D01*
X62972212Y-95640356D01*
X62972210Y-95640353D01*
X62972208Y-95640348D01*
X62850272Y-95429151D01*
X62850268Y-95429144D01*
X62701799Y-95235655D01*
X62701794Y-95235649D01*
X62529350Y-95063205D01*
X62529343Y-95063199D01*
X62335864Y-94914738D01*
X62335862Y-94914736D01*
X62335856Y-94914732D01*
X62335851Y-94914729D01*
X62335848Y-94914727D01*
X62124651Y-94792791D01*
X62124640Y-94792786D01*
X61899330Y-94699459D01*
X61899323Y-94699457D01*
X61899321Y-94699456D01*
X61663744Y-94636334D01*
X61623333Y-94631013D01*
X61421951Y-94604500D01*
X61421944Y-94604500D01*
X61178056Y-94604500D01*
X61178048Y-94604500D01*
X60947896Y-94634801D01*
X60936256Y-94636334D01*
X60700679Y-94699456D01*
X60700669Y-94699459D01*
X60475359Y-94792786D01*
X60475348Y-94792791D01*
X60264151Y-94914727D01*
X60264135Y-94914738D01*
X60070656Y-95063199D01*
X60070649Y-95063205D01*
X59898205Y-95235649D01*
X59898199Y-95235656D01*
X59749738Y-95429135D01*
X59749727Y-95429151D01*
X59627791Y-95640348D01*
X59627786Y-95640359D01*
X59534459Y-95865669D01*
X59534456Y-95865679D01*
X59471335Y-96101253D01*
X59471333Y-96101264D01*
X59439500Y-96343048D01*
X59439500Y-97106951D01*
X57782732Y-97106951D01*
X57743797Y-97002559D01*
X57743793Y-97002552D01*
X57657547Y-96887343D01*
X57657544Y-96887340D01*
X57542335Y-96801094D01*
X57542328Y-96801090D01*
X57407482Y-96750796D01*
X57407483Y-96750796D01*
X57347883Y-96744389D01*
X57347881Y-96744388D01*
X57347873Y-96744388D01*
X57347864Y-96744388D01*
X55652129Y-96744388D01*
X55652123Y-96744389D01*
X55592516Y-96750796D01*
X55457671Y-96801090D01*
X55457664Y-96801094D01*
X55342455Y-96887340D01*
X55342452Y-96887343D01*
X55256206Y-97002552D01*
X55256202Y-97002559D01*
X55205908Y-97137405D01*
X55199501Y-97197004D01*
X55199501Y-97197011D01*
X55199500Y-97197023D01*
X55199500Y-98892758D01*
X55199501Y-98892764D01*
X55205908Y-98952371D01*
X55256202Y-99087216D01*
X55256206Y-99087223D01*
X55342452Y-99202432D01*
X55342453Y-99202433D01*
X55342454Y-99202434D01*
X55351142Y-99208938D01*
X55351145Y-99208940D01*
X55393017Y-99264873D01*
X55398001Y-99334565D01*
X55378415Y-99379323D01*
X55369434Y-99392150D01*
X55369431Y-99392155D01*
X55273261Y-99598390D01*
X55273258Y-99598399D01*
X55214366Y-99818190D01*
X55214364Y-99818201D01*
X55194532Y-100044886D01*
X55194532Y-100044889D01*
X55214364Y-100271574D01*
X55214366Y-100271585D01*
X55273258Y-100491376D01*
X55273261Y-100491385D01*
X55369431Y-100697620D01*
X55369432Y-100697622D01*
X55499954Y-100884029D01*
X55660858Y-101044933D01*
X55660861Y-101044935D01*
X55846624Y-101175006D01*
X55890248Y-101229581D01*
X55899500Y-101276580D01*
X55899500Y-102883655D01*
X55879815Y-102950694D01*
X55834519Y-102992709D01*
X55731376Y-103048528D01*
X55731372Y-103048530D01*
X55554023Y-103186567D01*
X55489029Y-103212209D01*
X55420489Y-103198642D01*
X55370164Y-103150174D01*
X55361679Y-103132045D01*
X55343355Y-103082915D01*
X55343350Y-103082906D01*
X55257190Y-102967812D01*
X55257187Y-102967809D01*
X55142093Y-102881649D01*
X55142086Y-102881645D01*
X55007379Y-102831403D01*
X55007372Y-102831401D01*
X54947844Y-102825000D01*
X54250000Y-102825000D01*
X54250000Y-103791988D01*
X54192993Y-103759075D01*
X54065826Y-103725000D01*
X53934174Y-103725000D01*
X53807007Y-103759075D01*
X53750000Y-103791988D01*
X53750000Y-102825000D01*
X53052155Y-102825000D01*
X52992627Y-102831401D01*
X52992620Y-102831403D01*
X52857913Y-102881645D01*
X52857906Y-102881649D01*
X52742812Y-102967809D01*
X52742809Y-102967812D01*
X52656649Y-103082906D01*
X52656645Y-103082913D01*
X52606403Y-103217620D01*
X52606401Y-103217627D01*
X52600000Y-103277155D01*
X52600000Y-103975000D01*
X53566988Y-103975000D01*
X53534075Y-104032007D01*
X53500000Y-104159174D01*
X53500000Y-104290826D01*
X53534075Y-104417993D01*
X53566988Y-104475000D01*
X52600000Y-104475000D01*
X52600000Y-104975500D01*
X52580315Y-105042539D01*
X52527511Y-105088294D01*
X52476000Y-105099500D01*
X51382412Y-105099500D01*
X51315373Y-105079815D01*
X51305097Y-105072445D01*
X51302263Y-105070185D01*
X51302262Y-105070184D01*
X51245496Y-105034515D01*
X51149523Y-104974211D01*
X50979254Y-104914631D01*
X50979249Y-104914630D01*
X50800004Y-104894435D01*
X50799996Y-104894435D01*
X50638383Y-104912644D01*
X50569561Y-104900589D01*
X50518182Y-104853240D01*
X50500500Y-104789424D01*
X50500500Y-98655562D01*
X50520185Y-98588523D01*
X50572989Y-98542768D01*
X50642147Y-98532824D01*
X50686497Y-98548173D01*
X50875356Y-98657212D01*
X51100679Y-98750544D01*
X51336256Y-98813666D01*
X51566415Y-98843967D01*
X51578040Y-98845498D01*
X51578056Y-98845500D01*
X51578063Y-98845500D01*
X51821937Y-98845500D01*
X51821944Y-98845500D01*
X52063744Y-98813666D01*
X52299321Y-98750544D01*
X52524644Y-98657212D01*
X52735856Y-98535268D01*
X52929345Y-98386799D01*
X53101799Y-98214345D01*
X53250268Y-98020856D01*
X53372212Y-97809644D01*
X53465544Y-97584321D01*
X53528666Y-97348744D01*
X53560500Y-97106944D01*
X53560500Y-96343056D01*
X53528666Y-96101256D01*
X53465544Y-95865679D01*
X53372212Y-95640356D01*
X53372210Y-95640353D01*
X53372208Y-95640348D01*
X53250272Y-95429151D01*
X53250268Y-95429144D01*
X53101799Y-95235655D01*
X53101794Y-95235649D01*
X52929350Y-95063205D01*
X52929343Y-95063199D01*
X52735864Y-94914738D01*
X52735862Y-94914736D01*
X52735856Y-94914732D01*
X52735851Y-94914729D01*
X52735848Y-94914727D01*
X52524651Y-94792791D01*
X52524640Y-94792786D01*
X52299330Y-94699459D01*
X52299323Y-94699457D01*
X52299321Y-94699456D01*
X52063744Y-94636334D01*
X52023333Y-94631013D01*
X51821951Y-94604500D01*
X51821944Y-94604500D01*
X51578056Y-94604500D01*
X51578048Y-94604500D01*
X51347896Y-94634801D01*
X51336256Y-94636334D01*
X51100679Y-94699456D01*
X51100669Y-94699459D01*
X50875359Y-94792786D01*
X50875348Y-94792791D01*
X50686500Y-94901824D01*
X50618600Y-94918297D01*
X50552573Y-94895445D01*
X50509382Y-94840523D01*
X50500500Y-94794437D01*
X50500500Y-91200003D01*
X51494435Y-91200003D01*
X51514630Y-91379249D01*
X51514631Y-91379254D01*
X51574211Y-91549523D01*
X51665556Y-91694896D01*
X51670184Y-91702262D01*
X51797738Y-91829816D01*
X51888080Y-91886582D01*
X51928300Y-91911854D01*
X51950478Y-91925789D01*
X52073408Y-91968804D01*
X52120745Y-91985368D01*
X52120750Y-91985369D01*
X52299996Y-92005565D01*
X52300000Y-92005565D01*
X52300004Y-92005565D01*
X52479249Y-91985369D01*
X52479252Y-91985368D01*
X52479255Y-91985368D01*
X52649522Y-91925789D01*
X52802262Y-91829816D01*
X52802267Y-91829810D01*
X52805097Y-91827555D01*
X52807275Y-91826665D01*
X52808158Y-91826111D01*
X52808255Y-91826265D01*
X52869783Y-91801145D01*
X52882412Y-91800500D01*
X56938331Y-91800500D01*
X56938347Y-91800501D01*
X56945943Y-91800501D01*
X57104054Y-91800501D01*
X57104057Y-91800501D01*
X57256785Y-91759577D01*
X57306904Y-91730639D01*
X57393716Y-91680520D01*
X57505520Y-91568716D01*
X57505520Y-91568714D01*
X57515728Y-91558507D01*
X57515729Y-91558504D01*
X58475161Y-90599073D01*
X58536482Y-90565590D01*
X58603102Y-90569474D01*
X58633349Y-90579858D01*
X58655018Y-90587298D01*
X58769485Y-90606399D01*
X58883951Y-90625500D01*
X58883952Y-90625500D01*
X59116048Y-90625500D01*
X59116049Y-90625500D01*
X59344981Y-90587298D01*
X59564503Y-90511936D01*
X59768626Y-90401470D01*
X59951784Y-90258913D01*
X60108979Y-90088153D01*
X60235924Y-89893849D01*
X60329157Y-89681300D01*
X60386134Y-89456305D01*
X60405300Y-89225000D01*
X60405300Y-89224993D01*
X60386135Y-88993702D01*
X60386133Y-88993691D01*
X60329157Y-88768699D01*
X60235924Y-88556151D01*
X60108983Y-88361852D01*
X60108980Y-88361849D01*
X60108979Y-88361847D01*
X59951784Y-88191087D01*
X59951779Y-88191083D01*
X59951777Y-88191081D01*
X59768634Y-88048535D01*
X59768628Y-88048531D01*
X59564504Y-87938064D01*
X59564495Y-87938061D01*
X59344984Y-87862702D01*
X59154450Y-87830908D01*
X59116049Y-87824500D01*
X58883951Y-87824500D01*
X58845550Y-87830908D01*
X58655015Y-87862702D01*
X58435504Y-87938061D01*
X58435495Y-87938064D01*
X58231371Y-88048531D01*
X58231365Y-88048535D01*
X58048222Y-88191081D01*
X58048219Y-88191084D01*
X58048216Y-88191086D01*
X58048216Y-88191087D01*
X57900500Y-88351551D01*
X57891015Y-88361854D01*
X57853808Y-88418804D01*
X57800662Y-88464161D01*
X57731430Y-88473584D01*
X57668095Y-88444082D01*
X57646192Y-88418804D01*
X57608984Y-88361854D01*
X57608982Y-88361852D01*
X57608979Y-88361847D01*
X57451784Y-88191087D01*
X57451779Y-88191083D01*
X57451777Y-88191081D01*
X57268634Y-88048535D01*
X57268628Y-88048531D01*
X57064504Y-87938064D01*
X57064495Y-87938061D01*
X56844984Y-87862702D01*
X56654450Y-87830908D01*
X56616049Y-87824500D01*
X56383951Y-87824500D01*
X56345550Y-87830908D01*
X56155015Y-87862702D01*
X55935504Y-87938061D01*
X55935495Y-87938064D01*
X55731372Y-88048531D01*
X55554436Y-88186245D01*
X55489442Y-88211887D01*
X55420902Y-88198320D01*
X55370577Y-88149852D01*
X55362092Y-88131723D01*
X55343798Y-88082673D01*
X55343793Y-88082664D01*
X55257547Y-87967455D01*
X55257544Y-87967452D01*
X55142335Y-87881206D01*
X55142328Y-87881202D01*
X55007482Y-87830908D01*
X55007483Y-87830908D01*
X54947883Y-87824501D01*
X54947881Y-87824500D01*
X54947873Y-87824500D01*
X54947864Y-87824500D01*
X53052129Y-87824500D01*
X53052123Y-87824501D01*
X52992516Y-87830908D01*
X52857671Y-87881202D01*
X52857664Y-87881206D01*
X52742455Y-87967452D01*
X52742452Y-87967455D01*
X52656206Y-88082664D01*
X52656202Y-88082671D01*
X52605908Y-88217517D01*
X52599501Y-88277116D01*
X52599500Y-88277135D01*
X52599500Y-90172870D01*
X52599501Y-90172876D01*
X52605909Y-90232486D01*
X52611831Y-90248365D01*
X52616813Y-90318057D01*
X52583326Y-90379379D01*
X52522001Y-90412861D01*
X52481765Y-90414914D01*
X52300004Y-90394435D01*
X52299996Y-90394435D01*
X52120750Y-90414630D01*
X52120745Y-90414631D01*
X51950476Y-90474211D01*
X51797737Y-90570184D01*
X51670184Y-90697737D01*
X51574211Y-90850476D01*
X51514631Y-91020745D01*
X51514630Y-91020750D01*
X51494435Y-91199996D01*
X51494435Y-91200003D01*
X50500500Y-91200003D01*
X50500500Y-84540001D01*
X55274838Y-84540001D01*
X55293450Y-84752741D01*
X55293452Y-84752752D01*
X55348721Y-84959022D01*
X55348723Y-84959026D01*
X55348724Y-84959030D01*
X55367874Y-85000097D01*
X55438977Y-85152578D01*
X55561472Y-85327521D01*
X55712478Y-85478527D01*
X55712481Y-85478529D01*
X55887419Y-85601021D01*
X55887421Y-85601022D01*
X55887420Y-85601022D01*
X55951936Y-85631106D01*
X56080970Y-85691276D01*
X56287253Y-85746549D01*
X56439215Y-85759844D01*
X56499998Y-85765162D01*
X56500000Y-85765162D01*
X56500002Y-85765162D01*
X56553186Y-85760508D01*
X56712747Y-85746549D01*
X56919030Y-85691276D01*
X57112581Y-85601021D01*
X57287519Y-85478529D01*
X57438529Y-85327519D01*
X57561021Y-85152581D01*
X57651276Y-84959030D01*
X57706549Y-84752747D01*
X57725162Y-84540000D01*
X57723428Y-84520185D01*
X57706549Y-84327258D01*
X57706549Y-84327253D01*
X57651276Y-84120970D01*
X57561021Y-83927419D01*
X57438529Y-83752481D01*
X57438527Y-83752478D01*
X57287521Y-83601472D01*
X57112578Y-83478977D01*
X57112579Y-83478977D01*
X56983547Y-83418809D01*
X56919030Y-83388724D01*
X56919023Y-83388722D01*
X56913936Y-83386870D01*
X56914709Y-83384746D01*
X56863305Y-83353424D01*
X56832766Y-83290581D01*
X56841050Y-83221204D01*
X56885528Y-83167320D01*
X56914315Y-83154172D01*
X56913936Y-83153130D01*
X56919013Y-83151280D01*
X56919030Y-83151276D01*
X57112581Y-83061021D01*
X57287519Y-82938529D01*
X57438529Y-82787519D01*
X57561021Y-82612581D01*
X57651276Y-82419030D01*
X57706549Y-82212747D01*
X57715805Y-82106951D01*
X59439500Y-82106951D01*
X59453429Y-82212747D01*
X59471334Y-82348744D01*
X59525132Y-82549522D01*
X59534456Y-82584320D01*
X59534459Y-82584330D01*
X59627786Y-82809640D01*
X59627791Y-82809651D01*
X59749727Y-83020848D01*
X59749738Y-83020864D01*
X59898199Y-83214343D01*
X59898205Y-83214350D01*
X60070649Y-83386794D01*
X60070656Y-83386800D01*
X60190784Y-83478977D01*
X60264144Y-83535268D01*
X60264151Y-83535272D01*
X60475348Y-83657208D01*
X60475353Y-83657210D01*
X60475356Y-83657212D01*
X60584116Y-83702262D01*
X60671802Y-83738583D01*
X60700679Y-83750544D01*
X60936256Y-83813666D01*
X61178056Y-83845500D01*
X61178063Y-83845500D01*
X61421937Y-83845500D01*
X61421944Y-83845500D01*
X61663744Y-83813666D01*
X61899321Y-83750544D01*
X62124644Y-83657212D01*
X62335856Y-83535268D01*
X62529345Y-83386799D01*
X62701799Y-83214345D01*
X62850268Y-83020856D01*
X62972212Y-82809644D01*
X63065544Y-82584321D01*
X63128666Y-82348744D01*
X63160500Y-82106944D01*
X63160500Y-81343056D01*
X63128666Y-81101256D01*
X63065544Y-80865679D01*
X63058521Y-80848725D01*
X62972213Y-80640359D01*
X62972208Y-80640348D01*
X62850272Y-80429151D01*
X62850268Y-80429144D01*
X62701799Y-80235655D01*
X62701794Y-80235649D01*
X62529350Y-80063205D01*
X62529343Y-80063199D01*
X62335864Y-79914738D01*
X62335862Y-79914736D01*
X62335856Y-79914732D01*
X62335851Y-79914729D01*
X62335848Y-79914727D01*
X62124651Y-79792791D01*
X62124640Y-79792786D01*
X61899330Y-79699459D01*
X61899323Y-79699457D01*
X61899321Y-79699456D01*
X61663744Y-79636334D01*
X61623333Y-79631013D01*
X61421951Y-79604500D01*
X61421944Y-79604500D01*
X61178056Y-79604500D01*
X61178048Y-79604500D01*
X60947896Y-79634801D01*
X60936256Y-79636334D01*
X60800677Y-79672662D01*
X60700679Y-79699456D01*
X60700669Y-79699459D01*
X60475359Y-79792786D01*
X60475348Y-79792791D01*
X60264151Y-79914727D01*
X60264135Y-79914738D01*
X60070656Y-80063199D01*
X60070649Y-80063205D01*
X59898205Y-80235649D01*
X59898199Y-80235656D01*
X59749738Y-80429135D01*
X59749727Y-80429151D01*
X59627791Y-80640348D01*
X59627786Y-80640359D01*
X59534459Y-80865669D01*
X59534456Y-80865679D01*
X59471335Y-81101253D01*
X59471333Y-81101264D01*
X59439500Y-81343048D01*
X59439500Y-82106951D01*
X57715805Y-82106951D01*
X57725162Y-82000000D01*
X57706549Y-81787253D01*
X57651276Y-81580970D01*
X57563491Y-81392715D01*
X57561022Y-81387421D01*
X57438527Y-81212478D01*
X57287521Y-81061472D01*
X57112578Y-80938977D01*
X57112579Y-80938977D01*
X56983547Y-80878809D01*
X56919030Y-80848724D01*
X56919023Y-80848722D01*
X56913936Y-80846870D01*
X56914606Y-80845028D01*
X56862293Y-80813114D01*
X56831789Y-80750255D01*
X56840111Y-80680883D01*
X56884617Y-80627022D01*
X56914097Y-80613574D01*
X56913764Y-80612658D01*
X56918864Y-80610801D01*
X57112325Y-80520589D01*
X57168030Y-80481583D01*
X56546448Y-79860000D01*
X56552661Y-79860000D01*
X56654394Y-79832741D01*
X56745606Y-79780080D01*
X56820080Y-79705606D01*
X56872741Y-79614394D01*
X56900000Y-79512661D01*
X56900000Y-79506446D01*
X57521583Y-80128029D01*
X57560589Y-80072325D01*
X57650801Y-79878864D01*
X57650805Y-79878853D01*
X57706054Y-79672662D01*
X57706055Y-79672654D01*
X57724660Y-79460002D01*
X57724660Y-79459997D01*
X57706055Y-79247345D01*
X57706054Y-79247337D01*
X57650805Y-79041146D01*
X57650802Y-79041140D01*
X57560586Y-78847669D01*
X57560582Y-78847663D01*
X57521584Y-78791968D01*
X56900000Y-79413552D01*
X56900000Y-79407339D01*
X56872741Y-79305606D01*
X56820080Y-79214394D01*
X56745606Y-79139920D01*
X56654394Y-79087259D01*
X56552661Y-79060000D01*
X56546447Y-79060000D01*
X57168030Y-78438415D01*
X57112329Y-78399413D01*
X56918859Y-78309197D01*
X56918853Y-78309194D01*
X56712662Y-78253945D01*
X56712654Y-78253944D01*
X56500002Y-78235340D01*
X56499998Y-78235340D01*
X56287345Y-78253944D01*
X56287337Y-78253945D01*
X56081146Y-78309194D01*
X56081140Y-78309197D01*
X55887671Y-78399412D01*
X55887669Y-78399413D01*
X55831969Y-78438415D01*
X55831968Y-78438415D01*
X56453554Y-79060000D01*
X56447339Y-79060000D01*
X56345606Y-79087259D01*
X56254394Y-79139920D01*
X56179920Y-79214394D01*
X56127259Y-79305606D01*
X56100000Y-79407339D01*
X56100000Y-79413553D01*
X55478415Y-78791968D01*
X55478415Y-78791969D01*
X55439413Y-78847669D01*
X55439412Y-78847671D01*
X55349197Y-79041140D01*
X55349194Y-79041146D01*
X55293945Y-79247337D01*
X55293944Y-79247345D01*
X55275340Y-79459997D01*
X55275340Y-79460002D01*
X55293944Y-79672654D01*
X55293945Y-79672662D01*
X55349194Y-79878853D01*
X55349197Y-79878859D01*
X55439413Y-80072329D01*
X55478415Y-80128030D01*
X56100000Y-79506445D01*
X56100000Y-79512661D01*
X56127259Y-79614394D01*
X56179920Y-79705606D01*
X56254394Y-79780080D01*
X56345606Y-79832741D01*
X56447339Y-79860000D01*
X56453553Y-79860000D01*
X55831968Y-80481584D01*
X55887663Y-80520582D01*
X55887669Y-80520586D01*
X56081140Y-80610802D01*
X56086236Y-80612658D01*
X56085542Y-80614563D01*
X56137647Y-80646302D01*
X56168196Y-80709139D01*
X56159922Y-80778518D01*
X56115454Y-80832409D01*
X56085744Y-80845991D01*
X56086064Y-80846870D01*
X56080972Y-80848723D01*
X56080970Y-80848724D01*
X56080968Y-80848725D01*
X55887421Y-80938977D01*
X55712478Y-81061472D01*
X55561472Y-81212478D01*
X55438977Y-81387421D01*
X55348725Y-81580968D01*
X55348721Y-81580977D01*
X55293452Y-81787247D01*
X55293450Y-81787258D01*
X55274838Y-81999998D01*
X55274838Y-82000001D01*
X55293450Y-82212741D01*
X55293452Y-82212752D01*
X55348721Y-82419022D01*
X55348723Y-82419026D01*
X55348724Y-82419030D01*
X55391171Y-82510058D01*
X55438977Y-82612578D01*
X55561472Y-82787521D01*
X55712478Y-82938527D01*
X55712481Y-82938529D01*
X55887419Y-83061021D01*
X55887421Y-83061022D01*
X55887420Y-83061022D01*
X55951936Y-83091106D01*
X56080970Y-83151276D01*
X56080983Y-83151279D01*
X56086064Y-83153130D01*
X56085292Y-83155250D01*
X56136710Y-83186594D01*
X56167237Y-83249442D01*
X56158939Y-83318817D01*
X56114452Y-83372693D01*
X56085685Y-83385830D01*
X56086064Y-83386870D01*
X56080972Y-83388723D01*
X56080970Y-83388724D01*
X56080968Y-83388725D01*
X55887421Y-83478977D01*
X55712478Y-83601472D01*
X55561472Y-83752478D01*
X55438977Y-83927421D01*
X55348725Y-84120968D01*
X55348721Y-84120977D01*
X55293452Y-84327247D01*
X55293450Y-84327258D01*
X55274838Y-84539998D01*
X55274838Y-84540001D01*
X50500500Y-84540001D01*
X50500500Y-83655562D01*
X50520185Y-83588523D01*
X50572989Y-83542768D01*
X50642147Y-83532824D01*
X50686497Y-83548173D01*
X50875356Y-83657212D01*
X50984116Y-83702262D01*
X51071802Y-83738583D01*
X51100679Y-83750544D01*
X51336256Y-83813666D01*
X51578056Y-83845500D01*
X51578063Y-83845500D01*
X51821937Y-83845500D01*
X51821944Y-83845500D01*
X52063744Y-83813666D01*
X52299321Y-83750544D01*
X52524644Y-83657212D01*
X52735856Y-83535268D01*
X52929345Y-83386799D01*
X53101799Y-83214345D01*
X53250268Y-83020856D01*
X53372212Y-82809644D01*
X53465544Y-82584321D01*
X53528666Y-82348744D01*
X53560500Y-82106944D01*
X53560500Y-81343056D01*
X53528666Y-81101256D01*
X53465544Y-80865679D01*
X53458521Y-80848725D01*
X53372213Y-80640359D01*
X53372208Y-80640348D01*
X53250272Y-80429151D01*
X53250268Y-80429144D01*
X53101799Y-80235655D01*
X53101794Y-80235649D01*
X52929350Y-80063205D01*
X52929343Y-80063199D01*
X52735864Y-79914738D01*
X52735862Y-79914736D01*
X52735856Y-79914732D01*
X52735851Y-79914729D01*
X52735848Y-79914727D01*
X52524651Y-79792791D01*
X52524640Y-79792786D01*
X52299330Y-79699459D01*
X52299323Y-79699457D01*
X52299321Y-79699456D01*
X52063744Y-79636334D01*
X52023333Y-79631013D01*
X51821951Y-79604500D01*
X51821944Y-79604500D01*
X51578056Y-79604500D01*
X51578048Y-79604500D01*
X51347896Y-79634801D01*
X51336256Y-79636334D01*
X51200677Y-79672662D01*
X51100679Y-79699456D01*
X51100669Y-79699459D01*
X50875359Y-79792786D01*
X50875348Y-79792791D01*
X50686500Y-79901824D01*
X50618600Y-79918297D01*
X50552573Y-79895445D01*
X50509382Y-79840523D01*
X50500500Y-79794437D01*
X50500500Y-61500003D01*
X61194435Y-61500003D01*
X61214630Y-61679249D01*
X61214631Y-61679254D01*
X61274211Y-61849523D01*
X61297764Y-61887007D01*
X61370184Y-62002262D01*
X61497738Y-62129816D01*
X61588080Y-62186582D01*
X61643903Y-62221658D01*
X61650478Y-62225789D01*
X61721098Y-62250500D01*
X61820745Y-62285368D01*
X61820750Y-62285369D01*
X61999996Y-62305565D01*
X62000000Y-62305565D01*
X62000004Y-62305565D01*
X62179249Y-62285369D01*
X62179252Y-62285368D01*
X62179255Y-62285368D01*
X62259017Y-62257457D01*
X62299972Y-62250500D01*
X66673920Y-62250500D01*
X66771462Y-62231096D01*
X66818913Y-62221658D01*
X66955495Y-62165084D01*
X67008277Y-62129816D01*
X67078416Y-62082952D01*
X67593177Y-61568191D01*
X67642411Y-61494504D01*
X67675309Y-61445270D01*
X67703569Y-61377045D01*
X67747410Y-61322642D01*
X67813704Y-61300577D01*
X67818130Y-61300498D01*
X67858096Y-61300498D01*
X67858097Y-61300498D01*
X67917708Y-61294090D01*
X68052556Y-61243795D01*
X68167771Y-61157545D01*
X68254021Y-61042330D01*
X68304316Y-60907482D01*
X68310725Y-60847872D01*
X68310724Y-59152127D01*
X68304316Y-59092516D01*
X68298347Y-59076513D01*
X68254022Y-58957670D01*
X68254018Y-58957663D01*
X68167772Y-58842454D01*
X68167769Y-58842451D01*
X68052560Y-58756205D01*
X68052553Y-58756201D01*
X67917707Y-58705907D01*
X67917708Y-58705907D01*
X67858108Y-58699500D01*
X67858106Y-58699499D01*
X67858098Y-58699499D01*
X67858089Y-58699499D01*
X66162354Y-58699499D01*
X66162348Y-58699500D01*
X66102741Y-58705907D01*
X65967896Y-58756201D01*
X65967889Y-58756205D01*
X65852682Y-58842450D01*
X65852677Y-58842455D01*
X65845870Y-58851548D01*
X65789935Y-58893417D01*
X65720243Y-58898399D01*
X65675485Y-58878811D01*
X65662710Y-58869867D01*
X65662706Y-58869864D01*
X65456551Y-58773733D01*
X65456542Y-58773729D01*
X65236835Y-58714859D01*
X65236824Y-58714857D01*
X65010227Y-58695033D01*
X65010223Y-58695033D01*
X64783625Y-58714857D01*
X64783614Y-58714859D01*
X64563907Y-58773729D01*
X64563898Y-58773733D01*
X64357741Y-58869865D01*
X64357737Y-58869867D01*
X64284751Y-58920972D01*
X64284751Y-58920973D01*
X64963777Y-59599999D01*
X64957564Y-59599999D01*
X64855831Y-59627258D01*
X64764619Y-59679919D01*
X64690145Y-59754393D01*
X64637484Y-59845605D01*
X64610225Y-59947338D01*
X64610225Y-59953551D01*
X63931199Y-59274525D01*
X63931198Y-59274525D01*
X63880093Y-59347511D01*
X63880091Y-59347515D01*
X63783959Y-59553672D01*
X63783955Y-59553681D01*
X63725085Y-59773388D01*
X63725083Y-59773399D01*
X63705259Y-59999996D01*
X63705259Y-60000001D01*
X63725083Y-60226598D01*
X63725085Y-60226609D01*
X63783955Y-60446316D01*
X63783958Y-60446325D01*
X63843073Y-60573095D01*
X63853565Y-60642172D01*
X63825045Y-60705956D01*
X63766569Y-60744196D01*
X63730691Y-60749500D01*
X62299972Y-60749500D01*
X62259017Y-60742542D01*
X62179254Y-60714631D01*
X62179249Y-60714630D01*
X62000004Y-60694435D01*
X61999996Y-60694435D01*
X61820750Y-60714630D01*
X61820745Y-60714631D01*
X61650476Y-60774211D01*
X61497737Y-60870184D01*
X61370184Y-60997737D01*
X61274211Y-61150476D01*
X61214631Y-61320745D01*
X61214630Y-61320750D01*
X61194435Y-61499996D01*
X61194435Y-61500003D01*
X50500500Y-61500003D01*
X50500500Y-57601007D01*
X50889500Y-57601007D01*
X50928907Y-57799119D01*
X50928909Y-57799127D01*
X51006212Y-57985754D01*
X51060204Y-58066558D01*
X51081081Y-58133235D01*
X51062596Y-58200615D01*
X51060204Y-58204337D01*
X51006655Y-58284479D01*
X51006654Y-58284481D01*
X50929390Y-58471016D01*
X50929387Y-58471025D01*
X50919647Y-58520000D01*
X51774134Y-58520000D01*
X51798326Y-58522383D01*
X51801123Y-58522939D01*
X51813995Y-58525499D01*
X51813996Y-58525500D01*
X51813997Y-58525500D01*
X51854170Y-58525500D01*
X51839925Y-58539745D01*
X51790556Y-58625255D01*
X51765000Y-58720630D01*
X51765000Y-58819370D01*
X51790556Y-58914745D01*
X51839925Y-59000255D01*
X51859670Y-59020000D01*
X50919647Y-59020000D01*
X50929387Y-59068974D01*
X50929390Y-59068983D01*
X51006652Y-59255513D01*
X51006659Y-59255526D01*
X51118829Y-59423399D01*
X51118832Y-59423403D01*
X51261596Y-59566167D01*
X51261600Y-59566170D01*
X51429473Y-59678340D01*
X51429486Y-59678347D01*
X51616016Y-59755609D01*
X51616025Y-59755612D01*
X51814041Y-59794999D01*
X51814045Y-59795000D01*
X51890000Y-59795000D01*
X51890000Y-59050330D01*
X51909745Y-59070075D01*
X51995255Y-59119444D01*
X52090630Y-59145000D01*
X52189370Y-59145000D01*
X52284745Y-59119444D01*
X52370255Y-59070075D01*
X52390000Y-59050330D01*
X52390000Y-59795000D01*
X52465955Y-59795000D01*
X52465958Y-59794999D01*
X52663974Y-59755612D01*
X52663983Y-59755609D01*
X52850513Y-59678347D01*
X52850526Y-59678340D01*
X53018399Y-59566170D01*
X53018403Y-59566167D01*
X53161167Y-59423403D01*
X53161170Y-59423399D01*
X53273340Y-59255526D01*
X53273347Y-59255513D01*
X53350609Y-59068983D01*
X53350612Y-59068974D01*
X53360353Y-59020000D01*
X52420330Y-59020000D01*
X52440075Y-59000255D01*
X52489444Y-58914745D01*
X52515000Y-58819370D01*
X52515000Y-58720630D01*
X52489444Y-58625255D01*
X52440075Y-58539745D01*
X52425830Y-58525500D01*
X52466004Y-58525500D01*
X52466004Y-58525499D01*
X52479473Y-58522820D01*
X52481674Y-58522383D01*
X52505866Y-58520000D01*
X53360353Y-58520000D01*
X53350612Y-58471025D01*
X53350609Y-58471016D01*
X53273347Y-58284486D01*
X53273343Y-58284479D01*
X53219795Y-58204340D01*
X53198917Y-58137662D01*
X53217401Y-58070282D01*
X53219733Y-58066652D01*
X53273786Y-57985756D01*
X53351091Y-57799127D01*
X53390500Y-57601003D01*
X53390500Y-57398997D01*
X53351091Y-57200873D01*
X53317673Y-57120198D01*
X53310205Y-57050730D01*
X53329964Y-57005340D01*
X53329547Y-57005112D01*
X53332095Y-57000444D01*
X53332972Y-56998431D01*
X53333796Y-56997331D01*
X53384091Y-56862483D01*
X53390500Y-56802873D01*
X53390499Y-55657128D01*
X53384091Y-55597517D01*
X53367239Y-55552335D01*
X53333797Y-55462671D01*
X53333793Y-55462664D01*
X53247547Y-55347455D01*
X53247544Y-55347452D01*
X53132335Y-55261206D01*
X53132328Y-55261202D01*
X52997482Y-55210908D01*
X52997483Y-55210908D01*
X52937883Y-55204501D01*
X52937881Y-55204500D01*
X52937873Y-55204500D01*
X52937864Y-55204500D01*
X51342129Y-55204500D01*
X51342123Y-55204501D01*
X51282516Y-55210908D01*
X51147671Y-55261202D01*
X51147664Y-55261206D01*
X51032455Y-55347452D01*
X51032452Y-55347455D01*
X50946206Y-55462664D01*
X50946202Y-55462671D01*
X50895908Y-55597517D01*
X50890282Y-55649853D01*
X50889501Y-55657123D01*
X50889500Y-55657135D01*
X50889500Y-56802870D01*
X50889501Y-56802876D01*
X50895908Y-56862483D01*
X50946202Y-56997328D01*
X50946203Y-56997330D01*
X50946204Y-56997331D01*
X50947028Y-56998432D01*
X50947509Y-56999721D01*
X50950454Y-57005114D01*
X50949678Y-57005537D01*
X50971448Y-57063895D01*
X50962325Y-57120198D01*
X50928910Y-57200868D01*
X50928907Y-57200880D01*
X50889500Y-57398992D01*
X50889500Y-57601007D01*
X50500500Y-57601007D01*
X50500500Y-53904880D01*
X50520185Y-53837841D01*
X50572989Y-53792086D01*
X50642147Y-53782142D01*
X50667835Y-53788699D01*
X50682291Y-53794091D01*
X50689219Y-53794835D01*
X50741902Y-53800500D01*
X52437647Y-53800499D01*
X52497258Y-53794091D01*
X52632106Y-53743796D01*
X52747321Y-53657546D01*
X52754125Y-53648455D01*
X52810055Y-53606584D01*
X52879746Y-53601597D01*
X52924515Y-53621188D01*
X52937287Y-53630130D01*
X52937293Y-53630134D01*
X53143448Y-53726265D01*
X53143457Y-53726269D01*
X53363164Y-53785139D01*
X53363175Y-53785141D01*
X53589773Y-53804966D01*
X53589777Y-53804966D01*
X53816374Y-53785141D01*
X53816385Y-53785139D01*
X54036092Y-53726269D01*
X54036106Y-53726264D01*
X54242253Y-53630136D01*
X54315246Y-53579024D01*
X53636222Y-52900000D01*
X53642436Y-52900000D01*
X53744169Y-52872741D01*
X53835381Y-52820080D01*
X53909855Y-52745606D01*
X53962516Y-52654394D01*
X53989775Y-52552661D01*
X53989775Y-52546447D01*
X54668799Y-53225471D01*
X54719911Y-53152478D01*
X54786702Y-53009244D01*
X54832874Y-52956804D01*
X54900067Y-52937652D01*
X54942419Y-52945467D01*
X54977619Y-52958596D01*
X54977627Y-52958598D01*
X55037155Y-52964999D01*
X55037172Y-52965000D01*
X55750000Y-52965000D01*
X55750000Y-52056706D01*
X55822069Y-52086558D01*
X55939920Y-52110000D01*
X56060080Y-52110000D01*
X56177931Y-52086558D01*
X56250000Y-52056706D01*
X56250000Y-52965000D01*
X56962828Y-52965000D01*
X56962844Y-52964999D01*
X57022372Y-52958598D01*
X57022379Y-52958596D01*
X57157086Y-52908354D01*
X57157093Y-52908350D01*
X57272187Y-52822190D01*
X57272190Y-52822187D01*
X57358350Y-52707093D01*
X57358354Y-52707086D01*
X57408596Y-52572379D01*
X57408598Y-52572372D01*
X57414999Y-52512844D01*
X57415000Y-52512827D01*
X57415000Y-52146290D01*
X57434685Y-52079251D01*
X57487489Y-52033496D01*
X57556647Y-52023552D01*
X57620203Y-52052577D01*
X57653561Y-52098837D01*
X57700815Y-52212920D01*
X57829563Y-52423018D01*
X57829564Y-52423020D01*
X57883795Y-52486516D01*
X57989601Y-52610399D01*
X58111590Y-52714587D01*
X58176979Y-52770435D01*
X58176981Y-52770436D01*
X58387079Y-52899184D01*
X58614735Y-52993482D01*
X58614736Y-52993482D01*
X58614738Y-52993483D01*
X58854345Y-53051007D01*
X59100000Y-53070341D01*
X59345655Y-53051007D01*
X59585262Y-52993483D01*
X59812920Y-52899184D01*
X60023023Y-52770433D01*
X60210399Y-52610399D01*
X60370433Y-52423023D01*
X60499184Y-52212920D01*
X60593483Y-51985262D01*
X60651007Y-51745655D01*
X60670341Y-51500000D01*
X60651007Y-51254345D01*
X60593483Y-51014738D01*
X60570572Y-50959425D01*
X60499186Y-50787084D01*
X60463780Y-50729307D01*
X60439257Y-50689288D01*
X60421014Y-50621844D01*
X60442131Y-50555241D01*
X60495903Y-50510628D01*
X60544986Y-50500500D01*
X61108196Y-50500500D01*
X61175235Y-50520185D01*
G37*
%TD.AperFunction*%
%TA.AperFunction,Conductor*%
G36*
X72809075Y-61887007D02*
G01*
X72775000Y-62014174D01*
X72775000Y-62145826D01*
X72809075Y-62272993D01*
X72841988Y-62330000D01*
X71168012Y-62330000D01*
X71200925Y-62272993D01*
X71235000Y-62145826D01*
X71235000Y-62014174D01*
X71200925Y-61887007D01*
X71168012Y-61830000D01*
X72841988Y-61830000D01*
X72809075Y-61887007D01*
G37*
%TD.AperFunction*%
%TA.AperFunction,Conductor*%
G36*
X70985000Y-61646988D02*
G01*
X70927993Y-61614075D01*
X70800826Y-61580000D01*
X70669174Y-61580000D01*
X70542007Y-61614075D01*
X70485000Y-61646988D01*
X70485000Y-59973012D01*
X70542007Y-60005925D01*
X70669174Y-60040000D01*
X70800826Y-60040000D01*
X70927993Y-60005925D01*
X70985000Y-59973012D01*
X70985000Y-61646988D01*
G37*
%TD.AperFunction*%
%TA.AperFunction,Conductor*%
G36*
X73525000Y-61646988D02*
G01*
X73467993Y-61614075D01*
X73340826Y-61580000D01*
X73209174Y-61580000D01*
X73082007Y-61614075D01*
X73025000Y-61646988D01*
X73025000Y-59973012D01*
X73082007Y-60005925D01*
X73209174Y-60040000D01*
X73340826Y-60040000D01*
X73467993Y-60005925D01*
X73525000Y-59973012D01*
X73525000Y-61646988D01*
G37*
%TD.AperFunction*%
%TA.AperFunction,Conductor*%
G36*
X72809075Y-59347007D02*
G01*
X72775000Y-59474174D01*
X72775000Y-59605826D01*
X72809075Y-59732993D01*
X72841988Y-59790000D01*
X71168012Y-59790000D01*
X71200925Y-59732993D01*
X71235000Y-59605826D01*
X71235000Y-59474174D01*
X71200925Y-59347007D01*
X71168012Y-59290000D01*
X72841988Y-59290000D01*
X72809075Y-59347007D01*
G37*
%TD.AperFunction*%
%TA.AperFunction,Conductor*%
G36*
X70985000Y-59106988D02*
G01*
X70927993Y-59074075D01*
X70800826Y-59040000D01*
X70669174Y-59040000D01*
X70542007Y-59074075D01*
X70485000Y-59106988D01*
X70485000Y-57433012D01*
X70542007Y-57465925D01*
X70669174Y-57500000D01*
X70800826Y-57500000D01*
X70927993Y-57465925D01*
X70985000Y-57433012D01*
X70985000Y-59106988D01*
G37*
%TD.AperFunction*%
%TA.AperFunction,Conductor*%
G36*
X73525000Y-59106988D02*
G01*
X73467993Y-59074075D01*
X73340826Y-59040000D01*
X73209174Y-59040000D01*
X73082007Y-59074075D01*
X73025000Y-59106988D01*
X73025000Y-57433012D01*
X73082007Y-57465925D01*
X73209174Y-57500000D01*
X73340826Y-57500000D01*
X73467993Y-57465925D01*
X73525000Y-57433012D01*
X73525000Y-59106988D01*
G37*
%TD.AperFunction*%
%TA.AperFunction,Conductor*%
G36*
X72809075Y-56807007D02*
G01*
X72775000Y-56934174D01*
X72775000Y-57065826D01*
X72809075Y-57192993D01*
X72841988Y-57250000D01*
X71168012Y-57250000D01*
X71200925Y-57192993D01*
X71235000Y-57065826D01*
X71235000Y-56934174D01*
X71200925Y-56807007D01*
X71168012Y-56750000D01*
X72841988Y-56750000D01*
X72809075Y-56807007D01*
G37*
%TD.AperFunction*%
%TA.AperFunction,Conductor*%
G36*
X54528039Y-50520185D02*
G01*
X54573794Y-50572989D01*
X54585000Y-50624500D01*
X54585000Y-51371655D01*
X54565315Y-51438694D01*
X54512511Y-51484449D01*
X54443353Y-51494393D01*
X54389876Y-51473230D01*
X54242257Y-51369866D01*
X54036101Y-51273734D01*
X54036092Y-51273730D01*
X53816385Y-51214860D01*
X53816374Y-51214858D01*
X53589777Y-51195034D01*
X53589773Y-51195034D01*
X53363175Y-51214858D01*
X53363164Y-51214860D01*
X53143457Y-51273730D01*
X53143448Y-51273734D01*
X52937287Y-51369868D01*
X52937282Y-51369871D01*
X52924511Y-51378813D01*
X52858304Y-51401138D01*
X52790538Y-51384124D01*
X52754127Y-51351546D01*
X52747321Y-51342454D01*
X52747319Y-51342453D01*
X52747319Y-51342452D01*
X52632110Y-51256206D01*
X52632103Y-51256202D01*
X52497257Y-51205908D01*
X52497258Y-51205908D01*
X52437658Y-51199501D01*
X52437656Y-51199500D01*
X52437648Y-51199500D01*
X52437639Y-51199500D01*
X50741904Y-51199500D01*
X50741898Y-51199501D01*
X50682290Y-51205909D01*
X50667830Y-51211302D01*
X50598138Y-51216284D01*
X50536816Y-51182798D01*
X50503333Y-51121473D01*
X50500500Y-51095119D01*
X50500500Y-50624500D01*
X50520185Y-50557461D01*
X50572989Y-50511706D01*
X50624500Y-50500500D01*
X54461000Y-50500500D01*
X54528039Y-50520185D01*
G37*
%TD.AperFunction*%
%TD*%
D28*
X50000000Y-50000000D02*
X75000000Y-50000000D01*
X75000000Y-150000000D01*
X50000000Y-150000000D01*
X50000000Y-50000000D01*
M02*
