%TF.GenerationSoftware,KiCad,Pcbnew,8.0.0*%
%TF.CreationDate,2024-08-29T00:26:00-07:00*%
%TF.ProjectId,veils_clone,7665696c-735f-4636-9c6f-6e652e6b6963,rev?*%
%TF.SameCoordinates,Original*%
%TF.FileFunction,Copper,L2,Inr*%
%TF.FilePolarity,Positive*%
%FSLAX46Y46*%
G04 Gerber Fmt 4.6, Leading zero omitted, Abs format (unit mm)*
G04 Created by KiCad (PCBNEW 8.0.0) date 2024-08-29 00:26:00*
%MOMM*%
%LPD*%
G01*
G04 APERTURE LIST*
%TA.AperFunction,ComponentPad*%
%ADD10R,1.750000X1.750000*%
%TD*%
%TA.AperFunction,ComponentPad*%
%ADD11C,1.750000*%
%TD*%
%TA.AperFunction,ComponentPad*%
%ADD12O,2.500000X3.300000*%
%TD*%
%TA.AperFunction,ComponentPad*%
%ADD13R,1.800000X1.800000*%
%TD*%
%TA.AperFunction,ComponentPad*%
%ADD14C,1.800000*%
%TD*%
%TA.AperFunction,ComponentPad*%
%ADD15C,2.130000*%
%TD*%
%TA.AperFunction,ComponentPad*%
%ADD16C,1.500000*%
%TD*%
%TA.AperFunction,ComponentPad*%
%ADD17R,1.930000X1.830000*%
%TD*%
%TA.AperFunction,ComponentPad*%
%ADD18C,4.400000*%
%TD*%
%TA.AperFunction,ComponentPad*%
%ADD19R,1.600000X1.600000*%
%TD*%
%TA.AperFunction,ComponentPad*%
%ADD20C,1.600000*%
%TD*%
%TA.AperFunction,ViaPad*%
%ADD21C,0.500000*%
%TD*%
%TA.AperFunction,Conductor*%
%ADD22C,0.200000*%
%TD*%
G04 APERTURE END LIST*
D10*
%TO.N,Net-(U5B--)*%
%TO.C,RV8*%
X97580000Y-76900000D03*
D11*
%TO.N,Net-(R52-Pad2)*%
X100080000Y-76900000D03*
%TO.N,GND*%
X97580000Y-106900000D03*
%TO.N,N/C*%
X95080000Y-76900000D03*
%TO.N,Net-(D5-K)*%
X92580000Y-106900000D03*
%TO.N,Net-(D5-A)*%
X92580000Y-76900000D03*
%TD*%
D12*
%TO.N,*%
%TO.C,RV3*%
X66850000Y-51725000D03*
X75650000Y-51725000D03*
D13*
%TO.N,Net-(R10-Pad2)*%
X68750000Y-58725000D03*
D14*
%TO.N,Net-(U7B-CVB)*%
X71250000Y-58725000D03*
%TO.N,Net-(U7A-CVA)*%
X73750000Y-58725000D03*
%TD*%
D15*
%TO.N,Net-(J3-PadT)*%
%TO.C,J3*%
X71250000Y-140350000D03*
%TO.N,Net-(J3-PadTN)*%
X71250000Y-148650000D03*
%TD*%
D16*
%TO.N,GND*%
%TO.C,REF\u002A\u002A*%
X102500000Y-148750000D03*
%TD*%
D12*
%TO.N,*%
%TO.C,RV12*%
X104325000Y-51725000D03*
X113125000Y-51725000D03*
D13*
%TO.N,Net-(R81-Pad2)*%
X106225000Y-58725000D03*
D14*
%TO.N,Net-(U8D-CVD)*%
X108725000Y-58725000D03*
%TO.N,Net-(U8C-CVC)*%
X111225000Y-58725000D03*
%TD*%
D17*
%TO.N,GND*%
%TO.C,J2*%
X71250000Y-122750000D03*
D15*
%TO.N,Net-(J2-PadT)*%
X71250000Y-111350000D03*
%TO.N,Net-(J2-PadTN)*%
X71250000Y-119650000D03*
%TD*%
D12*
%TO.N,*%
%TO.C,RV9*%
X91850000Y-51725000D03*
X100650000Y-51725000D03*
D13*
%TO.N,Net-(R57-Pad2)*%
X93750000Y-58725000D03*
D14*
%TO.N,Net-(U8B-CVB)*%
X96250000Y-58725000D03*
%TO.N,Net-(U8A-CVA)*%
X98750000Y-58725000D03*
%TD*%
D13*
%TO.N,Net-(D4-KA)*%
%TO.C,D4*%
X81275000Y-137250000D03*
D14*
%TO.N,Net-(D4-AK)*%
X78735000Y-137250000D03*
%TD*%
D15*
%TO.N,Net-(J6-PadT)*%
%TO.C,J6*%
X83750000Y-140350000D03*
%TO.N,Net-(J6-PadTN)*%
X83750000Y-148650000D03*
%TD*%
D12*
%TO.N,*%
%TO.C,RV7*%
X91850000Y-65475000D03*
X100650000Y-65475000D03*
D13*
%TO.N,GND*%
X93750000Y-72475000D03*
D14*
%TO.N,Net-(C13-Pad1)*%
X96250000Y-72475000D03*
%TO.N,+10V_REF*%
X98750000Y-72475000D03*
%TD*%
D12*
%TO.N,*%
%TO.C,RV1*%
X66850000Y-65475000D03*
X75650000Y-65475000D03*
D13*
%TO.N,GND*%
X68750000Y-72475000D03*
D14*
%TO.N,Net-(C1-Pad1)*%
X71250000Y-72475000D03*
%TO.N,+10V_REF*%
X73750000Y-72475000D03*
%TD*%
D15*
%TO.N,Net-(J9-PadT)*%
%TO.C,J9*%
X96250000Y-140350000D03*
%TO.N,Net-(J9-PadTN)*%
X96250000Y-148650000D03*
%TD*%
D17*
%TO.N,GND*%
%TO.C,J10*%
X108750000Y-137250000D03*
D15*
%TO.N,Net-(J10-PadT)*%
X108750000Y-125850000D03*
%TO.N,GND*%
X108750000Y-134150000D03*
%TD*%
D12*
%TO.N,*%
%TO.C,RV4*%
X79350000Y-65475000D03*
X88150000Y-65475000D03*
D13*
%TO.N,GND*%
X81250000Y-72475000D03*
D14*
%TO.N,Net-(C7-Pad1)*%
X83750000Y-72475000D03*
%TO.N,+10V_REF*%
X86250000Y-72475000D03*
%TD*%
D12*
%TO.N,*%
%TO.C,RV6*%
X79350000Y-51725000D03*
X88150000Y-51725000D03*
D13*
%TO.N,Net-(R33-Pad2)*%
X81250000Y-58725000D03*
D14*
%TO.N,Net-(U7D-CVD)*%
X83750000Y-58725000D03*
%TO.N,Net-(U7C-CVC)*%
X86250000Y-58725000D03*
%TD*%
D15*
%TO.N,Net-(J12-PadT)*%
%TO.C,J12*%
X108750000Y-140350000D03*
%TO.N,unconnected-(J12-PadTN)*%
X108750000Y-148650000D03*
%TD*%
D17*
%TO.N,GND*%
%TO.C,J4*%
X83750000Y-137250000D03*
D15*
%TO.N,Net-(J4-PadT)*%
X83750000Y-125850000D03*
%TO.N,GND*%
X83750000Y-134150000D03*
%TD*%
D17*
%TO.N,GND*%
%TO.C,J8*%
X96250000Y-122750000D03*
D15*
%TO.N,Net-(J8-PadT)*%
X96250000Y-111350000D03*
%TO.N,Net-(J8-PadTN)*%
X96250000Y-119650000D03*
%TD*%
D18*
%TO.N,N/C*%
%TO.C,REF\u002A\u002A*%
X102500000Y-58725000D03*
%TD*%
D10*
%TO.N,Net-(U6B--)*%
%TO.C,RV11*%
X110080000Y-76900000D03*
D11*
%TO.N,Net-(R76-Pad2)*%
X112580000Y-76900000D03*
%TO.N,GND*%
X110080000Y-106900000D03*
%TO.N,N/C*%
X107580000Y-76900000D03*
%TO.N,Net-(D7-K)*%
X105080000Y-106900000D03*
%TO.N,Net-(D7-A)*%
X105080000Y-76900000D03*
%TD*%
D17*
%TO.N,GND*%
%TO.C,J1*%
X71250000Y-137250000D03*
D15*
%TO.N,Net-(J1-PadT)*%
X71250000Y-125850000D03*
%TO.N,GND*%
X71250000Y-134150000D03*
%TD*%
D13*
%TO.N,Net-(D8-KA)*%
%TO.C,D8*%
X106050000Y-137250000D03*
D14*
%TO.N,Net-(D8-AK)*%
X103510000Y-137250000D03*
%TD*%
D13*
%TO.N,Net-(D6-KA)*%
%TO.C,D6*%
X93550000Y-137250000D03*
D14*
%TO.N,Net-(D6-AK)*%
X91010000Y-137250000D03*
%TD*%
D17*
%TO.N,GND*%
%TO.C,J5*%
X83750000Y-122750000D03*
D15*
%TO.N,Net-(J5-PadT)*%
X83750000Y-111350000D03*
%TO.N,Net-(J5-PadTN)*%
X83750000Y-119650000D03*
%TD*%
D17*
%TO.N,GND*%
%TO.C,J11*%
X108750000Y-122750000D03*
D15*
%TO.N,Net-(J11-PadT)*%
X108750000Y-111350000D03*
%TO.N,Net-(J11-PadTN)*%
X108750000Y-119650000D03*
%TD*%
D12*
%TO.N,*%
%TO.C,RV10*%
X104325000Y-65475000D03*
X113125000Y-65475000D03*
D13*
%TO.N,GND*%
X106225000Y-72475000D03*
D14*
%TO.N,Net-(C19-Pad1)*%
X108725000Y-72475000D03*
%TO.N,+10V_REF*%
X111225000Y-72475000D03*
%TD*%
D17*
%TO.N,GND*%
%TO.C,J7*%
X96250000Y-137250000D03*
D15*
%TO.N,Net-(J7-PadT)*%
X96250000Y-125850000D03*
%TO.N,GND*%
X96250000Y-134150000D03*
%TD*%
D18*
%TO.N,N/C*%
%TO.C,REF\u002A\u002A*%
X77500000Y-58725000D03*
%TD*%
D13*
%TO.N,Net-(D2-KA)*%
%TO.C,D2*%
X68775000Y-137250000D03*
D14*
%TO.N,Net-(D2-AK)*%
X66235000Y-137250000D03*
%TD*%
D10*
%TO.N,Net-(U4B--)*%
%TO.C,RV5*%
X85080000Y-76900000D03*
D11*
%TO.N,Net-(R28-Pad2)*%
X87580000Y-76900000D03*
%TO.N,GND*%
X85080000Y-106900000D03*
%TO.N,N/C*%
X82580000Y-76900000D03*
%TO.N,Net-(D3-K)*%
X80080000Y-106900000D03*
%TO.N,Net-(D3-A)*%
X80080000Y-76900000D03*
%TD*%
D16*
%TO.N,GND*%
%TO.C,REF\u002A\u002A*%
X77500000Y-148750000D03*
%TD*%
%TO.N,GND*%
%TO.C,REF\u002A\u002A*%
X90000000Y-148750000D03*
%TD*%
D10*
%TO.N,Net-(U2B--)*%
%TO.C,RV2*%
X72580000Y-76900000D03*
D11*
%TO.N,Net-(R5-Pad2)*%
X75080000Y-76900000D03*
%TO.N,GND*%
X72580000Y-106900000D03*
%TO.N,N/C*%
X70080000Y-76900000D03*
%TO.N,Net-(D1-K)*%
X67580000Y-106900000D03*
%TO.N,Net-(D1-A)*%
X67580000Y-76900000D03*
%TD*%
D19*
%TO.N,+12V*%
%TO.C,C42*%
X102455112Y-111250000D03*
D20*
%TO.N,GND*%
X102455112Y-113250000D03*
%TD*%
D19*
%TO.N,GND*%
%TO.C,C41*%
X102500000Y-134705113D03*
D20*
%TO.N,-12V*%
X102500000Y-132705113D03*
%TD*%
D21*
%TO.N,GND*%
X84700000Y-88000000D03*
X69900000Y-98000000D03*
X69800000Y-144000000D03*
X110350000Y-143000000D03*
X84700000Y-84300000D03*
X75950000Y-139200000D03*
X75900000Y-143750000D03*
X87300000Y-88500000D03*
X70300000Y-62400000D03*
X104100000Y-103200000D03*
X69100000Y-82200000D03*
X100800000Y-83900000D03*
X98500000Y-87700000D03*
X81500000Y-140250000D03*
X109900000Y-103000000D03*
X107600000Y-62300000D03*
X90500000Y-128200000D03*
X87200000Y-95400000D03*
X82800000Y-62300000D03*
X100900000Y-101800000D03*
X102500000Y-120200000D03*
X92450000Y-144850000D03*
X113200000Y-94500000D03*
X84700000Y-103000000D03*
X99950000Y-140250000D03*
X95200000Y-82500000D03*
X100850000Y-143850000D03*
X106450000Y-140250000D03*
X99500000Y-130700000D03*
X95100000Y-101800000D03*
X100800000Y-82600000D03*
X89200000Y-128200000D03*
X99400000Y-114800000D03*
X75500000Y-82600000D03*
X104150000Y-145150000D03*
X67450000Y-144600000D03*
X104100000Y-101900000D03*
X110000000Y-84000000D03*
X110000000Y-97500000D03*
X75600000Y-103100000D03*
X75600000Y-101900000D03*
X102500000Y-122800000D03*
X84700000Y-97500000D03*
X113200000Y-89200000D03*
X110000000Y-87800000D03*
X78900000Y-101900000D03*
X95300000Y-98700000D03*
X85500000Y-142750000D03*
X94650000Y-144250000D03*
X78800000Y-83800000D03*
X78800000Y-82600000D03*
X104200000Y-83900000D03*
X102500000Y-125300000D03*
X78900000Y-103100000D03*
X95100000Y-62200000D03*
X73300000Y-87800000D03*
X104200000Y-82600000D03*
X69850000Y-101500000D03*
X75500000Y-83800000D03*
X100900000Y-103200000D03*
X79150000Y-145000000D03*
%TO.N,Net-(C1-Pad1)*%
X71300000Y-91100000D03*
%TO.N,Net-(C6-Pad2)*%
X67000000Y-112850000D03*
X68300000Y-83200000D03*
%TO.N,Net-(C7-Pad1)*%
X87500000Y-87500000D03*
%TO.N,Net-(U5C--)*%
X69414949Y-80406040D03*
X106150000Y-79100000D03*
%TO.N,Net-(C13-Pad1)*%
X94250000Y-91700000D03*
%TO.N,Net-(U8A-CVA)*%
X103692598Y-85232076D03*
X103400000Y-80500000D03*
%TO.N,Net-(C18-Pad2)*%
X92300000Y-139700000D03*
X92500000Y-84150000D03*
%TO.N,Net-(C19-Pad1)*%
X112950000Y-92800000D03*
X111300000Y-86800000D03*
%TO.N,Net-(D1-A)*%
X72600000Y-139500000D03*
X67700000Y-109000000D03*
%TO.N,Net-(D2-KA)*%
X74650000Y-147050000D03*
X73900000Y-141300000D03*
%TO.N,Net-(D3-A)*%
X75350000Y-109000000D03*
X85700000Y-146000000D03*
%TO.N,Net-(D5-A)*%
X97300000Y-141650000D03*
X92900000Y-114200000D03*
X88700000Y-109700000D03*
%TO.N,Net-(D7-A)*%
X112500000Y-143800000D03*
X108100000Y-109000000D03*
%TO.N,Net-(J3-PadTN)*%
X66300000Y-79600000D03*
%TO.N,/CH1/OUT*%
X74800000Y-107200000D03*
X75512499Y-81800031D03*
%TO.N,+10V_REF*%
X88100000Y-118700000D03*
X84459544Y-129114090D03*
X112850000Y-118700000D03*
X75100000Y-118700000D03*
X91700000Y-118700000D03*
%TO.N,-2V5_REF*%
X88850000Y-144500000D03*
X110000000Y-92700000D03*
X67450000Y-143350000D03*
X95000000Y-93300000D03*
X94100000Y-128087941D03*
X69850000Y-90250000D03*
X110000000Y-96000000D03*
X110350000Y-144450000D03*
X92450000Y-143550000D03*
X84700000Y-96000000D03*
X69850000Y-93250000D03*
X84700000Y-92800000D03*
X95000000Y-90300000D03*
%TO.N,Net-(U6B--)*%
X113050000Y-90100000D03*
X107425000Y-91800000D03*
X106600000Y-103800000D03*
%TO.N,Net-(U3D--)*%
X112350000Y-91950000D03*
X113350000Y-145200000D03*
X106687500Y-145787500D03*
%TO.N,/CH3/OUT*%
X100700000Y-80500000D03*
X101500000Y-107250000D03*
%TO.N,Net-(U8B-CVB)*%
X102050000Y-80500000D03*
X101493590Y-90593590D03*
%TO.N,Net-(U2B--)*%
X76350000Y-85000000D03*
X77700000Y-84500000D03*
%TO.N,Net-(U7A-CVA)*%
X78600000Y-80400000D03*
X78550000Y-85150000D03*
%TO.N,Net-(U2C--)*%
X75600000Y-84800000D03*
X76800000Y-82200000D03*
%TO.N,Net-(U7C-CVC)*%
X81005000Y-90595000D03*
X90900000Y-91300000D03*
X83000000Y-106600000D03*
X87000000Y-143600000D03*
%TO.N,Net-(U4B--)*%
X81200000Y-93135000D03*
X88600000Y-92000000D03*
X78000000Y-101200000D03*
%TO.N,Net-(U4C--)*%
X83800000Y-106000000D03*
X76350735Y-107150735D03*
%TO.N,Net-(U5B--)*%
X101300000Y-75000000D03*
X103850000Y-84550000D03*
X101900000Y-84800000D03*
%TO.N,+12V*%
X98437500Y-144487500D03*
X82200000Y-98400000D03*
X75800000Y-97900000D03*
X108200000Y-102300000D03*
X73375000Y-144375000D03*
X85500000Y-131800000D03*
X101100000Y-97900000D03*
X83000000Y-83500000D03*
X107500000Y-98400000D03*
X108200000Y-83300000D03*
X83000000Y-102300000D03*
%TO.N,-12V*%
X71500000Y-83250000D03*
X82000000Y-142750000D03*
X97500000Y-100800000D03*
X71500000Y-102200000D03*
X96800000Y-83200000D03*
X82275000Y-87100000D03*
X107750000Y-142050000D03*
X107500000Y-86800000D03*
%TO.N,Net-(J9-PadTN)*%
X98500000Y-80150000D03*
%TO.N,Net-(U7A-INA)*%
X78600000Y-107800000D03*
X77050000Y-110200000D03*
%TO.N,Net-(R5-Pad2)*%
X75000000Y-110000000D03*
%TO.N,Net-(U1B--)*%
X69900000Y-142500000D03*
X71400000Y-94800000D03*
%TO.N,Net-(U1A-+)*%
X76500000Y-145050000D03*
X68250000Y-86950000D03*
%TO.N,Net-(U7C-INC)*%
X86675000Y-91225000D03*
X81200000Y-89325000D03*
%TO.N,Net-(R40-Pad1)*%
X82450000Y-128550000D03*
X77800000Y-145200000D03*
%TO.N,Net-(R52-Pad2)*%
X98900000Y-109000000D03*
%TO.N,Net-(R64-Pad1)*%
X97700000Y-118000000D03*
X98300000Y-140500000D03*
%TO.N,Net-(U3A-+)*%
X93500000Y-86850000D03*
X101550000Y-144700000D03*
%TO.N,Net-(U8C-INC)*%
X111300000Y-87950000D03*
X112750000Y-124800000D03*
X106500000Y-89250000D03*
%TO.N,Net-(R76-Pad2)*%
X112750000Y-110000000D03*
%TO.N,Net-(R88-Pad1)*%
X101700000Y-109700000D03*
X101700000Y-139400000D03*
%TO.N,Net-(U3C-+)*%
X99750000Y-138800000D03*
X99100000Y-108100000D03*
%TO.N,Net-(U7B-CVB)*%
X77600000Y-80400000D03*
X73600000Y-90600000D03*
%TO.N,Net-(U7D-CVD)*%
X81200000Y-94400000D03*
X90200000Y-93800000D03*
%TD*%
D22*
%TO.N,Net-(C1-Pad1)*%
X69000000Y-83000000D02*
X68300000Y-82300000D01*
X69000000Y-90700000D02*
X69000000Y-83000000D01*
X68905000Y-74820000D02*
X71250000Y-72475000D01*
X68300000Y-82300000D02*
X68300000Y-80805000D01*
X68300000Y-80805000D02*
X68905000Y-80200000D01*
X68905000Y-80200000D02*
X68905000Y-74820000D01*
X69400000Y-91100000D02*
X69000000Y-90700000D01*
X71300000Y-91100000D02*
X69400000Y-91100000D01*
%TO.N,Net-(C7-Pad1)*%
X86300000Y-86300000D02*
X87500000Y-87500000D01*
X86300000Y-75025000D02*
X86300000Y-86300000D01*
X83750000Y-72475000D02*
X86300000Y-75025000D01*
%TO.N,Net-(C13-Pad1)*%
X96255000Y-72480000D02*
X96255000Y-81545000D01*
X96255000Y-81545000D02*
X96000000Y-81800000D01*
X94900000Y-91700000D02*
X94250000Y-91700000D01*
X96000000Y-81800000D02*
X96000000Y-90600000D01*
X96250000Y-72475000D02*
X96255000Y-72480000D01*
X96000000Y-90600000D02*
X94900000Y-91700000D01*
%TO.N,Net-(U8A-CVA)*%
X103300000Y-84839478D02*
X103692598Y-85232076D01*
X103400000Y-80500000D02*
X103300000Y-80600000D01*
X103300000Y-80600000D02*
X103300000Y-84839478D01*
%TO.N,Net-(D1-A)*%
X69400000Y-110700000D02*
X69400000Y-128800000D01*
X69400000Y-128800000D02*
X72615000Y-132015000D01*
X72615000Y-139485000D02*
X72600000Y-139500000D01*
X72615000Y-132015000D02*
X72615000Y-139485000D01*
X67700000Y-109000000D02*
X69400000Y-110700000D01*
%TO.N,Net-(D3-A)*%
X80100000Y-141627818D02*
X84472182Y-146000000D01*
X80080000Y-104270000D02*
X75350000Y-109000000D01*
X80100000Y-141500000D02*
X80100000Y-141627818D01*
X75350000Y-109000000D02*
X76200000Y-109850000D01*
X76200000Y-137600000D02*
X80100000Y-141500000D01*
X76200000Y-109850000D02*
X76200000Y-137600000D01*
X84472182Y-146000000D02*
X85700000Y-146000000D01*
X80080000Y-76900000D02*
X80080000Y-104270000D01*
%TO.N,Net-(D5-A)*%
X94500000Y-115800000D02*
X92900000Y-114200000D01*
X97615000Y-141335000D02*
X97615000Y-130715000D01*
X94500000Y-115900000D02*
X94500000Y-115800000D01*
X97300000Y-141650000D02*
X97615000Y-141335000D01*
X94500000Y-127600000D02*
X94500000Y-115900000D01*
X94500000Y-127600000D02*
X97615000Y-130715000D01*
%TO.N,Net-(D7-A)*%
X112500000Y-134600000D02*
X112500000Y-143800000D01*
X106800000Y-110300000D02*
X106800000Y-128900000D01*
X108100000Y-109000000D02*
X106800000Y-110300000D01*
X106800000Y-128900000D02*
X112500000Y-134600000D01*
%TO.N,/CH1/OUT*%
X74900000Y-86500000D02*
X75000000Y-86600000D01*
X75512499Y-81800031D02*
X75451440Y-81800031D01*
X74800000Y-106000000D02*
X74800000Y-107200000D01*
X75451440Y-81800031D02*
X74900000Y-82351471D01*
X74900000Y-82351471D02*
X74900000Y-86500000D01*
X75000000Y-105800000D02*
X74800000Y-106000000D01*
X75000000Y-86600000D02*
X75000000Y-105800000D01*
%TO.N,-2V5_REF*%
X67450000Y-143350000D02*
X69300000Y-145200000D01*
X109000000Y-143100000D02*
X110350000Y-144450000D01*
X92450000Y-143550000D02*
X99650000Y-143550000D01*
X81500000Y-146900000D02*
X86450000Y-146900000D01*
X74225000Y-146025000D02*
X80625000Y-146025000D01*
X73400000Y-145200000D02*
X74225000Y-146025000D01*
X100100000Y-143100000D02*
X109000000Y-143100000D01*
X99650000Y-143550000D02*
X100100000Y-143100000D01*
X80625000Y-146025000D02*
X81500000Y-146900000D01*
X86450000Y-146900000D02*
X88850000Y-144500000D01*
X69300000Y-145200000D02*
X73400000Y-145200000D01*
%TO.N,Net-(U6B--)*%
X107425000Y-91800000D02*
X106600000Y-92625000D01*
X107425000Y-91800000D02*
X111350000Y-91800000D01*
X111350000Y-91800000D02*
X113050000Y-90100000D01*
X106600000Y-92625000D02*
X106600000Y-103800000D01*
%TO.N,Net-(U3D--)*%
X109600000Y-145200000D02*
X113350000Y-145200000D01*
X106687500Y-145787500D02*
X109012500Y-145787500D01*
X109012500Y-145787500D02*
X109600000Y-145200000D01*
%TO.N,/CH3/OUT*%
X100550000Y-90750000D02*
X100800000Y-90500000D01*
X101500000Y-107250000D02*
X101500000Y-100500000D01*
X100800000Y-90500000D02*
X100800000Y-85700000D01*
X101500000Y-100500000D02*
X100550000Y-99550000D01*
X100800000Y-85700000D02*
X100250000Y-85150000D01*
X100250000Y-85150000D02*
X100250000Y-81450000D01*
X100550000Y-99550000D02*
X100550000Y-90750000D01*
X100700000Y-81000000D02*
X100700000Y-80500000D01*
X100250000Y-81450000D02*
X100700000Y-81000000D01*
%TO.N,Net-(U8B-CVB)*%
X101493590Y-90593590D02*
X102500000Y-89587180D01*
X102500000Y-80950000D02*
X102050000Y-80500000D01*
X102500000Y-89587180D02*
X102500000Y-80950000D01*
%TO.N,Net-(U2B--)*%
X77700000Y-84500000D02*
X76850000Y-84500000D01*
X76850000Y-84500000D02*
X76350000Y-85000000D01*
%TO.N,Net-(U7A-CVA)*%
X78550000Y-84350000D02*
X78200000Y-84000000D01*
X78200000Y-80800000D02*
X78600000Y-80400000D01*
X78550000Y-85150000D02*
X78550000Y-84350000D01*
X78200000Y-84000000D02*
X78200000Y-80800000D01*
%TO.N,Net-(U2C--)*%
X76800000Y-83600000D02*
X75600000Y-84800000D01*
X76800000Y-82200000D02*
X76800000Y-83600000D01*
%TO.N,Net-(U7C-CVC)*%
X90900000Y-91300000D02*
X88100000Y-91300000D01*
X86200000Y-91800000D02*
X84995000Y-90595000D01*
X88100000Y-91300000D02*
X87600000Y-91800000D01*
X84995000Y-90595000D02*
X81005000Y-90595000D01*
X87600000Y-91800000D02*
X86200000Y-91800000D01*
%TO.N,Net-(U4B--)*%
X88600000Y-92000000D02*
X88000000Y-92600000D01*
X88000000Y-92600000D02*
X85700000Y-92600000D01*
X85700000Y-92600000D02*
X85350000Y-92250000D01*
X82085000Y-92250000D02*
X81200000Y-93135000D01*
X85350000Y-92250000D02*
X82085000Y-92250000D01*
%TO.N,Net-(U5B--)*%
X101600000Y-84500000D02*
X101600000Y-81200000D01*
X101300000Y-80900000D02*
X101300000Y-75000000D01*
X101900000Y-84800000D02*
X101600000Y-84500000D01*
X101600000Y-81200000D02*
X101300000Y-80900000D01*
%TO.N,Net-(J9-PadTN)*%
X92100000Y-115627818D02*
X93872182Y-117400000D01*
X92100000Y-112600000D02*
X92100000Y-115627818D01*
X97500000Y-98600000D02*
X93872182Y-102227818D01*
X93872182Y-110827818D02*
X92100000Y-112600000D01*
X91500000Y-144677818D02*
X95472182Y-148650000D01*
X92300000Y-138600000D02*
X93300000Y-139600000D01*
X93300000Y-139600000D02*
X93300000Y-141800000D01*
X93872182Y-102227818D02*
X93872182Y-110827818D01*
X95472182Y-148650000D02*
X96250000Y-148650000D01*
X97500000Y-81150000D02*
X97500000Y-98600000D01*
X92300000Y-128200000D02*
X92300000Y-138600000D01*
X93872182Y-117400000D02*
X93872182Y-126627818D01*
X98500000Y-80150000D02*
X97500000Y-81150000D01*
X93300000Y-141800000D02*
X91500000Y-143600000D01*
X91500000Y-143600000D02*
X91500000Y-144677818D01*
X93872182Y-126627818D02*
X92300000Y-128200000D01*
%TO.N,Net-(U7A-INA)*%
X78600000Y-108650000D02*
X78600000Y-107800000D01*
X77050000Y-110200000D02*
X78600000Y-108650000D01*
%TO.N,Net-(R5-Pad2)*%
X73000000Y-89775000D02*
X73900000Y-88875000D01*
X73775000Y-92200000D02*
X73000000Y-91425000D01*
X73900000Y-80100000D02*
X75080000Y-78920000D01*
X73000000Y-91425000D02*
X73000000Y-89775000D01*
X75080000Y-78920000D02*
X75080000Y-76900000D01*
X75000000Y-110000000D02*
X73775000Y-108775000D01*
X73775000Y-108775000D02*
X73775000Y-92200000D01*
X73900000Y-88875000D02*
X73900000Y-80100000D01*
%TO.N,Net-(U1B--)*%
X71900000Y-142500000D02*
X73200000Y-141200000D01*
X70950000Y-107750000D02*
X73200000Y-110000000D01*
X70950000Y-95250000D02*
X71400000Y-94800000D01*
X73200000Y-141200000D02*
X73200000Y-110000000D01*
X70950000Y-107750000D02*
X70950000Y-95250000D01*
X69900000Y-142500000D02*
X71900000Y-142500000D01*
%TO.N,Net-(U7C-INC)*%
X86675000Y-91225000D02*
X84775000Y-89325000D01*
X84775000Y-89325000D02*
X81200000Y-89325000D01*
%TO.N,Net-(R52-Pad2)*%
X100080000Y-86100000D02*
X100080000Y-108120000D01*
X99500000Y-85520000D02*
X100080000Y-86100000D01*
X100080000Y-76900000D02*
X100080000Y-80320000D01*
X99500000Y-80900000D02*
X99500000Y-85520000D01*
X100080000Y-80320000D02*
X99500000Y-80900000D01*
X100080000Y-108120000D02*
X99200000Y-109000000D01*
X99200000Y-109000000D02*
X98900000Y-109000000D01*
%TO.N,Net-(U8C-INC)*%
X110000000Y-89250000D02*
X111300000Y-87950000D01*
X106500000Y-89250000D02*
X110000000Y-89250000D01*
%TO.N,Net-(U7B-CVB)*%
X76800000Y-81200000D02*
X75000000Y-81200000D01*
X77600000Y-80400000D02*
X76800000Y-81200000D01*
X74400000Y-81800000D02*
X74400000Y-90400000D01*
X74400000Y-90400000D02*
X74200000Y-90600000D01*
X74200000Y-90600000D02*
X73600000Y-90600000D01*
X75000000Y-81200000D02*
X74400000Y-81800000D01*
%TO.N,Net-(U7D-CVD)*%
X81800000Y-93800000D02*
X81200000Y-94400000D01*
X90200000Y-93800000D02*
X81800000Y-93800000D01*
%TD*%
M02*
