%TF.GenerationSoftware,KiCad,Pcbnew,8.0.0*%
%TF.CreationDate,2024-08-29T00:26:00-07:00*%
%TF.ProjectId,veils_clone,7665696c-735f-4636-9c6f-6e652e6b6963,rev?*%
%TF.SameCoordinates,Original*%
%TF.FileFunction,Copper,L4,Bot*%
%TF.FilePolarity,Positive*%
%FSLAX46Y46*%
G04 Gerber Fmt 4.6, Leading zero omitted, Abs format (unit mm)*
G04 Created by KiCad (PCBNEW 8.0.0) date 2024-08-29 00:26:00*
%MOMM*%
%LPD*%
G01*
G04 APERTURE LIST*
G04 Aperture macros list*
%AMRoundRect*
0 Rectangle with rounded corners*
0 $1 Rounding radius*
0 $2 $3 $4 $5 $6 $7 $8 $9 X,Y pos of 4 corners*
0 Add a 4 corners polygon primitive as box body*
4,1,4,$2,$3,$4,$5,$6,$7,$8,$9,$2,$3,0*
0 Add four circle primitives for the rounded corners*
1,1,$1+$1,$2,$3*
1,1,$1+$1,$4,$5*
1,1,$1+$1,$6,$7*
1,1,$1+$1,$8,$9*
0 Add four rect primitives between the rounded corners*
20,1,$1+$1,$2,$3,$4,$5,0*
20,1,$1+$1,$4,$5,$6,$7,0*
20,1,$1+$1,$6,$7,$8,$9,0*
20,1,$1+$1,$8,$9,$2,$3,0*%
G04 Aperture macros list end*
%TA.AperFunction,ComponentPad*%
%ADD10R,1.750000X1.750000*%
%TD*%
%TA.AperFunction,ComponentPad*%
%ADD11C,1.750000*%
%TD*%
%TA.AperFunction,ComponentPad*%
%ADD12O,2.500000X3.300000*%
%TD*%
%TA.AperFunction,ComponentPad*%
%ADD13R,1.800000X1.800000*%
%TD*%
%TA.AperFunction,ComponentPad*%
%ADD14C,1.800000*%
%TD*%
%TA.AperFunction,ComponentPad*%
%ADD15C,2.130000*%
%TD*%
%TA.AperFunction,ComponentPad*%
%ADD16C,1.500000*%
%TD*%
%TA.AperFunction,ComponentPad*%
%ADD17R,1.930000X1.830000*%
%TD*%
%TA.AperFunction,ComponentPad*%
%ADD18C,4.400000*%
%TD*%
%TA.AperFunction,SMDPad,CuDef*%
%ADD19RoundRect,0.200000X-0.200000X-0.275000X0.200000X-0.275000X0.200000X0.275000X-0.200000X0.275000X0*%
%TD*%
%TA.AperFunction,SMDPad,CuDef*%
%ADD20RoundRect,0.225000X-0.225000X-0.250000X0.225000X-0.250000X0.225000X0.250000X-0.225000X0.250000X0*%
%TD*%
%TA.AperFunction,SMDPad,CuDef*%
%ADD21RoundRect,0.200000X-0.275000X0.200000X-0.275000X-0.200000X0.275000X-0.200000X0.275000X0.200000X0*%
%TD*%
%TA.AperFunction,SMDPad,CuDef*%
%ADD22RoundRect,0.150000X-0.150000X0.587500X-0.150000X-0.587500X0.150000X-0.587500X0.150000X0.587500X0*%
%TD*%
%TA.AperFunction,SMDPad,CuDef*%
%ADD23RoundRect,0.200000X0.200000X0.275000X-0.200000X0.275000X-0.200000X-0.275000X0.200000X-0.275000X0*%
%TD*%
%TA.AperFunction,SMDPad,CuDef*%
%ADD24RoundRect,0.225000X0.225000X0.250000X-0.225000X0.250000X-0.225000X-0.250000X0.225000X-0.250000X0*%
%TD*%
%TA.AperFunction,ComponentPad*%
%ADD25R,1.600000X1.600000*%
%TD*%
%TA.AperFunction,ComponentPad*%
%ADD26C,1.600000*%
%TD*%
%TA.AperFunction,SMDPad,CuDef*%
%ADD27RoundRect,0.225000X-0.250000X0.225000X-0.250000X-0.225000X0.250000X-0.225000X0.250000X0.225000X0*%
%TD*%
%TA.AperFunction,SMDPad,CuDef*%
%ADD28RoundRect,0.112500X-0.187500X-0.112500X0.187500X-0.112500X0.187500X0.112500X-0.187500X0.112500X0*%
%TD*%
%TA.AperFunction,SMDPad,CuDef*%
%ADD29RoundRect,0.100000X0.637500X0.100000X-0.637500X0.100000X-0.637500X-0.100000X0.637500X-0.100000X0*%
%TD*%
%TA.AperFunction,SMDPad,CuDef*%
%ADD30RoundRect,0.112500X0.187500X0.112500X-0.187500X0.112500X-0.187500X-0.112500X0.187500X-0.112500X0*%
%TD*%
%TA.AperFunction,SMDPad,CuDef*%
%ADD31RoundRect,0.150000X-0.825000X-0.150000X0.825000X-0.150000X0.825000X0.150000X-0.825000X0.150000X0*%
%TD*%
%TA.AperFunction,SMDPad,CuDef*%
%ADD32RoundRect,0.100000X-0.637500X-0.100000X0.637500X-0.100000X0.637500X0.100000X-0.637500X0.100000X0*%
%TD*%
%TA.AperFunction,SMDPad,CuDef*%
%ADD33R,3.150000X1.000000*%
%TD*%
%TA.AperFunction,SMDPad,CuDef*%
%ADD34RoundRect,0.200000X0.275000X-0.200000X0.275000X0.200000X-0.275000X0.200000X-0.275000X-0.200000X0*%
%TD*%
%TA.AperFunction,SMDPad,CuDef*%
%ADD35RoundRect,0.225000X0.250000X-0.225000X0.250000X0.225000X-0.250000X0.225000X-0.250000X-0.225000X0*%
%TD*%
%TA.AperFunction,ViaPad*%
%ADD36C,0.500000*%
%TD*%
%TA.AperFunction,Conductor*%
%ADD37C,0.200000*%
%TD*%
%TA.AperFunction,Conductor*%
%ADD38C,0.500000*%
%TD*%
%TA.AperFunction,Conductor*%
%ADD39C,0.300000*%
%TD*%
G04 APERTURE END LIST*
D10*
%TO.P,RV8,1,1*%
%TO.N,Net-(U5B--)*%
X97580000Y-76900000D03*
D11*
%TO.P,RV8,2,2*%
%TO.N,Net-(R52-Pad2)*%
X100080000Y-76900000D03*
%TO.P,RV8,3,3*%
%TO.N,GND*%
X97580000Y-106900000D03*
%TO.P,RV8,4*%
%TO.N,N/C*%
X95080000Y-76900000D03*
%TO.P,RV8,A,A*%
%TO.N,Net-(D5-K)*%
X92580000Y-106900000D03*
%TO.P,RV8,K,K*%
%TO.N,Net-(D5-A)*%
X92580000Y-76900000D03*
%TD*%
D12*
%TO.P,RV3,*%
%TO.N,*%
X66850000Y-51725000D03*
X75650000Y-51725000D03*
D13*
%TO.P,RV3,1,1*%
%TO.N,Net-(R10-Pad2)*%
X68750000Y-58725000D03*
D14*
%TO.P,RV3,2,2*%
%TO.N,Net-(U7B-CVB)*%
X71250000Y-58725000D03*
%TO.P,RV3,3,3*%
%TO.N,Net-(U7A-CVA)*%
X73750000Y-58725000D03*
%TD*%
D15*
%TO.P,J3,T*%
%TO.N,Net-(J3-PadT)*%
X71250000Y-140350000D03*
%TO.P,J3,TN*%
%TO.N,Net-(J3-PadTN)*%
X71250000Y-148650000D03*
%TD*%
D16*
%TO.P,REF\u002A\u002A,1*%
%TO.N,GND*%
X102500000Y-148750000D03*
%TD*%
D12*
%TO.P,RV12,*%
%TO.N,*%
X104325000Y-51725000D03*
X113125000Y-51725000D03*
D13*
%TO.P,RV12,1,1*%
%TO.N,Net-(R81-Pad2)*%
X106225000Y-58725000D03*
D14*
%TO.P,RV12,2,2*%
%TO.N,Net-(U8D-CVD)*%
X108725000Y-58725000D03*
%TO.P,RV12,3,3*%
%TO.N,Net-(U8C-CVC)*%
X111225000Y-58725000D03*
%TD*%
D17*
%TO.P,J2,S*%
%TO.N,GND*%
X71250000Y-122750000D03*
D15*
%TO.P,J2,T*%
%TO.N,Net-(J2-PadT)*%
X71250000Y-111350000D03*
%TO.P,J2,TN*%
%TO.N,Net-(J2-PadTN)*%
X71250000Y-119650000D03*
%TD*%
D12*
%TO.P,RV9,*%
%TO.N,*%
X91850000Y-51725000D03*
X100650000Y-51725000D03*
D13*
%TO.P,RV9,1,1*%
%TO.N,Net-(R57-Pad2)*%
X93750000Y-58725000D03*
D14*
%TO.P,RV9,2,2*%
%TO.N,Net-(U8B-CVB)*%
X96250000Y-58725000D03*
%TO.P,RV9,3,3*%
%TO.N,Net-(U8A-CVA)*%
X98750000Y-58725000D03*
%TD*%
D13*
%TO.P,D4,1,KA*%
%TO.N,Net-(D4-KA)*%
X81275000Y-137250000D03*
D14*
%TO.P,D4,2,AK*%
%TO.N,Net-(D4-AK)*%
X78735000Y-137250000D03*
%TD*%
D15*
%TO.P,J6,T*%
%TO.N,Net-(J6-PadT)*%
X83750000Y-140350000D03*
%TO.P,J6,TN*%
%TO.N,Net-(J6-PadTN)*%
X83750000Y-148650000D03*
%TD*%
D12*
%TO.P,RV7,*%
%TO.N,*%
X91850000Y-65475000D03*
X100650000Y-65475000D03*
D13*
%TO.P,RV7,1,1*%
%TO.N,GND*%
X93750000Y-72475000D03*
D14*
%TO.P,RV7,2,2*%
%TO.N,Net-(C13-Pad1)*%
X96250000Y-72475000D03*
%TO.P,RV7,3,3*%
%TO.N,+10V_REF*%
X98750000Y-72475000D03*
%TD*%
D12*
%TO.P,RV1,*%
%TO.N,*%
X66850000Y-65475000D03*
X75650000Y-65475000D03*
D13*
%TO.P,RV1,1,1*%
%TO.N,GND*%
X68750000Y-72475000D03*
D14*
%TO.P,RV1,2,2*%
%TO.N,Net-(C1-Pad1)*%
X71250000Y-72475000D03*
%TO.P,RV1,3,3*%
%TO.N,+10V_REF*%
X73750000Y-72475000D03*
%TD*%
D15*
%TO.P,J9,T*%
%TO.N,Net-(J9-PadT)*%
X96250000Y-140350000D03*
%TO.P,J9,TN*%
%TO.N,Net-(J9-PadTN)*%
X96250000Y-148650000D03*
%TD*%
D17*
%TO.P,J10,S*%
%TO.N,GND*%
X108750000Y-137250000D03*
D15*
%TO.P,J10,T*%
%TO.N,Net-(J10-PadT)*%
X108750000Y-125850000D03*
%TO.P,J10,TN*%
%TO.N,GND*%
X108750000Y-134150000D03*
%TD*%
D12*
%TO.P,RV4,*%
%TO.N,*%
X79350000Y-65475000D03*
X88150000Y-65475000D03*
D13*
%TO.P,RV4,1,1*%
%TO.N,GND*%
X81250000Y-72475000D03*
D14*
%TO.P,RV4,2,2*%
%TO.N,Net-(C7-Pad1)*%
X83750000Y-72475000D03*
%TO.P,RV4,3,3*%
%TO.N,+10V_REF*%
X86250000Y-72475000D03*
%TD*%
D12*
%TO.P,RV6,*%
%TO.N,*%
X79350000Y-51725000D03*
X88150000Y-51725000D03*
D13*
%TO.P,RV6,1,1*%
%TO.N,Net-(R33-Pad2)*%
X81250000Y-58725000D03*
D14*
%TO.P,RV6,2,2*%
%TO.N,Net-(U7D-CVD)*%
X83750000Y-58725000D03*
%TO.P,RV6,3,3*%
%TO.N,Net-(U7C-CVC)*%
X86250000Y-58725000D03*
%TD*%
D15*
%TO.P,J12,T*%
%TO.N,Net-(J12-PadT)*%
X108750000Y-140350000D03*
%TO.P,J12,TN*%
%TO.N,unconnected-(J12-PadTN)*%
X108750000Y-148650000D03*
%TD*%
D17*
%TO.P,J4,S*%
%TO.N,GND*%
X83750000Y-137250000D03*
D15*
%TO.P,J4,T*%
%TO.N,Net-(J4-PadT)*%
X83750000Y-125850000D03*
%TO.P,J4,TN*%
%TO.N,GND*%
X83750000Y-134150000D03*
%TD*%
D17*
%TO.P,J8,S*%
%TO.N,GND*%
X96250000Y-122750000D03*
D15*
%TO.P,J8,T*%
%TO.N,Net-(J8-PadT)*%
X96250000Y-111350000D03*
%TO.P,J8,TN*%
%TO.N,Net-(J8-PadTN)*%
X96250000Y-119650000D03*
%TD*%
D18*
%TO.P,REF\u002A\u002A,1*%
%TO.N,N/C*%
X102500000Y-58725000D03*
%TD*%
D10*
%TO.P,RV11,1,1*%
%TO.N,Net-(U6B--)*%
X110080000Y-76900000D03*
D11*
%TO.P,RV11,2,2*%
%TO.N,Net-(R76-Pad2)*%
X112580000Y-76900000D03*
%TO.P,RV11,3,3*%
%TO.N,GND*%
X110080000Y-106900000D03*
%TO.P,RV11,4*%
%TO.N,N/C*%
X107580000Y-76900000D03*
%TO.P,RV11,A,A*%
%TO.N,Net-(D7-K)*%
X105080000Y-106900000D03*
%TO.P,RV11,K,K*%
%TO.N,Net-(D7-A)*%
X105080000Y-76900000D03*
%TD*%
D17*
%TO.P,J1,S*%
%TO.N,GND*%
X71250000Y-137250000D03*
D15*
%TO.P,J1,T*%
%TO.N,Net-(J1-PadT)*%
X71250000Y-125850000D03*
%TO.P,J1,TN*%
%TO.N,GND*%
X71250000Y-134150000D03*
%TD*%
D13*
%TO.P,D8,1,KA*%
%TO.N,Net-(D8-KA)*%
X106050000Y-137250000D03*
D14*
%TO.P,D8,2,AK*%
%TO.N,Net-(D8-AK)*%
X103510000Y-137250000D03*
%TD*%
D13*
%TO.P,D6,1,KA*%
%TO.N,Net-(D6-KA)*%
X93550000Y-137250000D03*
D14*
%TO.P,D6,2,AK*%
%TO.N,Net-(D6-AK)*%
X91010000Y-137250000D03*
%TD*%
D17*
%TO.P,J5,S*%
%TO.N,GND*%
X83750000Y-122750000D03*
D15*
%TO.P,J5,T*%
%TO.N,Net-(J5-PadT)*%
X83750000Y-111350000D03*
%TO.P,J5,TN*%
%TO.N,Net-(J5-PadTN)*%
X83750000Y-119650000D03*
%TD*%
D17*
%TO.P,J11,S*%
%TO.N,GND*%
X108750000Y-122750000D03*
D15*
%TO.P,J11,T*%
%TO.N,Net-(J11-PadT)*%
X108750000Y-111350000D03*
%TO.P,J11,TN*%
%TO.N,Net-(J11-PadTN)*%
X108750000Y-119650000D03*
%TD*%
D12*
%TO.P,RV10,*%
%TO.N,*%
X104325000Y-65475000D03*
X113125000Y-65475000D03*
D13*
%TO.P,RV10,1,1*%
%TO.N,GND*%
X106225000Y-72475000D03*
D14*
%TO.P,RV10,2,2*%
%TO.N,Net-(C19-Pad1)*%
X108725000Y-72475000D03*
%TO.P,RV10,3,3*%
%TO.N,+10V_REF*%
X111225000Y-72475000D03*
%TD*%
D17*
%TO.P,J7,S*%
%TO.N,GND*%
X96250000Y-137250000D03*
D15*
%TO.P,J7,T*%
%TO.N,Net-(J7-PadT)*%
X96250000Y-125850000D03*
%TO.P,J7,TN*%
%TO.N,GND*%
X96250000Y-134150000D03*
%TD*%
D18*
%TO.P,REF\u002A\u002A,1*%
%TO.N,N/C*%
X77500000Y-58725000D03*
%TD*%
D13*
%TO.P,D2,1,KA*%
%TO.N,Net-(D2-KA)*%
X68775000Y-137250000D03*
D14*
%TO.P,D2,2,AK*%
%TO.N,Net-(D2-AK)*%
X66235000Y-137250000D03*
%TD*%
D10*
%TO.P,RV5,1,1*%
%TO.N,Net-(U4B--)*%
X85080000Y-76900000D03*
D11*
%TO.P,RV5,2,2*%
%TO.N,Net-(R28-Pad2)*%
X87580000Y-76900000D03*
%TO.P,RV5,3,3*%
%TO.N,GND*%
X85080000Y-106900000D03*
%TO.P,RV5,4*%
%TO.N,N/C*%
X82580000Y-76900000D03*
%TO.P,RV5,A,A*%
%TO.N,Net-(D3-K)*%
X80080000Y-106900000D03*
%TO.P,RV5,K,K*%
%TO.N,Net-(D3-A)*%
X80080000Y-76900000D03*
%TD*%
D16*
%TO.P,REF\u002A\u002A,1*%
%TO.N,GND*%
X77500000Y-148750000D03*
%TD*%
%TO.P,REF\u002A\u002A,1*%
%TO.N,GND*%
X90000000Y-148750000D03*
%TD*%
D10*
%TO.P,RV2,1,1*%
%TO.N,Net-(U2B--)*%
X72580000Y-76900000D03*
D11*
%TO.P,RV2,2,2*%
%TO.N,Net-(R5-Pad2)*%
X75080000Y-76900000D03*
%TO.P,RV2,3,3*%
%TO.N,GND*%
X72580000Y-106900000D03*
%TO.P,RV2,4*%
%TO.N,N/C*%
X70080000Y-76900000D03*
%TO.P,RV2,A,A*%
%TO.N,Net-(D1-K)*%
X67580000Y-106900000D03*
%TO.P,RV2,K,K*%
%TO.N,Net-(D1-A)*%
X67580000Y-76900000D03*
%TD*%
D19*
%TO.P,R37,1*%
%TO.N,/CH1/OUT*%
X74700000Y-106250000D03*
%TO.P,R37,2*%
%TO.N,Net-(U4C--)*%
X76350000Y-106250000D03*
%TD*%
D20*
%TO.P,C20,1*%
%TO.N,Net-(C20-Pad1)*%
X110725000Y-94500000D03*
%TO.P,C20,2*%
%TO.N,GND*%
X112275000Y-94500000D03*
%TD*%
D19*
%TO.P,R68,1*%
%TO.N,Net-(C18-Pad2)*%
X92425000Y-140850000D03*
%TO.P,R68,2*%
%TO.N,Net-(J9-PadT)*%
X94075000Y-140850000D03*
%TD*%
D21*
%TO.P,R94,1*%
%TO.N,+10V_REF*%
X84500000Y-130175000D03*
%TO.P,R94,2*%
%TO.N,+12V*%
X84500000Y-131825000D03*
%TD*%
D22*
%TO.P,U10,1,K*%
%TO.N,+10V_REF*%
X86387500Y-130475000D03*
%TO.P,U10,2,A*%
%TO.N,GND*%
X88287500Y-130475000D03*
%TO.P,U10,3*%
%TO.N,N/C*%
X87337500Y-132350000D03*
%TD*%
D23*
%TO.P,R26,1*%
%TO.N,Net-(C8-Pad1)*%
X83825000Y-94500000D03*
%TO.P,R26,2*%
%TO.N,Net-(U7D-IND)*%
X82175000Y-94500000D03*
%TD*%
%TO.P,R44,1*%
%TO.N,Net-(C12-Pad2)*%
X87825000Y-140500000D03*
%TO.P,R44,2*%
%TO.N,Net-(J6-PadT)*%
X86175000Y-140500000D03*
%TD*%
%TO.P,R25,1*%
%TO.N,-2V5_REF*%
X83825000Y-96000000D03*
%TO.P,R25,2*%
%TO.N,Net-(U7D-IND)*%
X82175000Y-96000000D03*
%TD*%
%TO.P,R43,1*%
%TO.N,Net-(C12-Pad2)*%
X69075000Y-104500000D03*
%TO.P,R43,2*%
%TO.N,Net-(U1C-+)*%
X67425000Y-104500000D03*
%TD*%
D20*
%TO.P,C36,1*%
%TO.N,GND*%
X95975000Y-82500000D03*
%TO.P,C36,2*%
%TO.N,-12V*%
X97525000Y-82500000D03*
%TD*%
D24*
%TO.P,C39,1*%
%TO.N,GND*%
X109025000Y-87750000D03*
%TO.P,C39,2*%
%TO.N,-12V*%
X107475000Y-87750000D03*
%TD*%
%TO.P,C3,1*%
%TO.N,Net-(C3-Pad1)*%
X72275000Y-98000000D03*
%TO.P,C3,2*%
%TO.N,GND*%
X70725000Y-98000000D03*
%TD*%
D20*
%TO.P,C38,1*%
%TO.N,+12V*%
X107475000Y-97500000D03*
%TO.P,C38,2*%
%TO.N,GND*%
X109025000Y-97500000D03*
%TD*%
D19*
%TO.P,R32,1*%
%TO.N,Net-(U4A--)*%
X82175000Y-100000000D03*
%TO.P,R32,2*%
%TO.N,Net-(C11-Pad2)*%
X83825000Y-100000000D03*
%TD*%
D23*
%TO.P,R89,1*%
%TO.N,GND*%
X105575000Y-140250000D03*
%TO.P,R89,2*%
%TO.N,Net-(D8-AK)*%
X103925000Y-140250000D03*
%TD*%
%TO.P,R29,1*%
%TO.N,Net-(C7-Pad1)*%
X83825000Y-91250000D03*
%TO.P,R29,2*%
%TO.N,Net-(U4B--)*%
X82175000Y-91250000D03*
%TD*%
D19*
%TO.P,R49,1*%
%TO.N,-2V5_REF*%
X95925000Y-90250000D03*
%TO.P,R49,2*%
%TO.N,Net-(U8B-INB)*%
X97575000Y-90250000D03*
%TD*%
D23*
%TO.P,R64,1*%
%TO.N,Net-(R64-Pad1)*%
X94325000Y-109000000D03*
%TO.P,R64,2*%
%TO.N,Net-(D5-K)*%
X92675000Y-109000000D03*
%TD*%
D25*
%TO.P,C42,1*%
%TO.N,+12V*%
X102455112Y-111250000D03*
D26*
%TO.P,C42,2*%
%TO.N,GND*%
X102455112Y-113250000D03*
%TD*%
D23*
%TO.P,R10,1*%
%TO.N,GND*%
X70325000Y-61250000D03*
%TO.P,R10,2*%
%TO.N,Net-(R10-Pad2)*%
X68675000Y-61250000D03*
%TD*%
%TO.P,R41,1*%
%TO.N,GND*%
X80575000Y-140250000D03*
%TO.P,R41,2*%
%TO.N,Net-(D4-AK)*%
X78925000Y-140250000D03*
%TD*%
D19*
%TO.P,R8,1*%
%TO.N,-2V5_REF*%
X70675000Y-93250000D03*
%TO.P,R8,2*%
%TO.N,Net-(U2B--)*%
X72325000Y-93250000D03*
%TD*%
D27*
%TO.P,C44,1*%
%TO.N,GND*%
X98500000Y-130725000D03*
%TO.P,C44,2*%
%TO.N,-12V*%
X98500000Y-132275000D03*
%TD*%
D23*
%TO.P,R91,1*%
%TO.N,Net-(C24-Pad2)*%
X94325000Y-104750000D03*
%TO.P,R91,2*%
%TO.N,Net-(U3C-+)*%
X92675000Y-104750000D03*
%TD*%
D19*
%TO.P,R27,1*%
%TO.N,Net-(J4-PadT)*%
X86675000Y-126000000D03*
%TO.P,R27,2*%
%TO.N,Net-(U7C-INC)*%
X88325000Y-126000000D03*
%TD*%
%TO.P,R71,1*%
%TO.N,Net-(U5D--)*%
X95925000Y-80750000D03*
%TO.P,R71,2*%
%TO.N,/CH3/OUT*%
X97575000Y-80750000D03*
%TD*%
D21*
%TO.P,R61,1*%
%TO.N,/CH2/OUT*%
X68450000Y-99225000D03*
%TO.P,R61,2*%
%TO.N,Net-(U5C--)*%
X68450000Y-100875000D03*
%TD*%
D19*
%TO.P,R14,1*%
%TO.N,Net-(U1B--)*%
X70675000Y-142400000D03*
%TO.P,R14,2*%
%TO.N,Net-(D1-A)*%
X72325000Y-142400000D03*
%TD*%
D23*
%TO.P,R78,1*%
%TO.N,Net-(C21-Pad1)*%
X109075000Y-89250000D03*
%TO.P,R78,2*%
%TO.N,Net-(U8C-INC)*%
X107425000Y-89250000D03*
%TD*%
D19*
%TO.P,R82,1*%
%TO.N,Net-(U8C-CVC)*%
X110675000Y-91000000D03*
%TO.P,R82,2*%
%TO.N,Net-(U3D--)*%
X112325000Y-91000000D03*
%TD*%
%TO.P,R55,1*%
%TO.N,-2V5_REF*%
X95925000Y-93250000D03*
%TO.P,R55,2*%
%TO.N,Net-(U5B--)*%
X97575000Y-93250000D03*
%TD*%
D28*
%TO.P,D1,1,K*%
%TO.N,Net-(D1-K)*%
X66495000Y-109000000D03*
%TO.P,D1,2,A*%
%TO.N,Net-(D1-A)*%
X68595000Y-109000000D03*
%TD*%
D29*
%TO.P,U4,1*%
%TO.N,Net-(C11-Pad2)*%
X80112500Y-100550000D03*
%TO.P,U4,2,-*%
%TO.N,Net-(U4A--)*%
X80112500Y-101200000D03*
%TO.P,U4,3,+*%
%TO.N,GND*%
X80112500Y-101850000D03*
%TO.P,U4,4,V+*%
%TO.N,+12V*%
X80112500Y-102500000D03*
%TO.P,U4,5,+*%
%TO.N,GND*%
X80112500Y-103150000D03*
%TO.P,U4,6,-*%
%TO.N,Net-(U4B--)*%
X80112500Y-103800000D03*
%TO.P,U4,7*%
%TO.N,Net-(U7C-CVC)*%
X80112500Y-104450000D03*
%TO.P,U4,8*%
%TO.N,Net-(C12-Pad2)*%
X74387500Y-104450000D03*
%TO.P,U4,9,-*%
%TO.N,Net-(U4C--)*%
X74387500Y-103800000D03*
%TO.P,U4,10,+*%
%TO.N,GND*%
X74387500Y-103150000D03*
%TO.P,U4,11,V-*%
%TO.N,-12V*%
X74387500Y-102500000D03*
%TO.P,U4,12,+*%
%TO.N,GND*%
X74387500Y-101850000D03*
%TO.P,U4,13,-*%
%TO.N,Net-(U4D--)*%
X74387500Y-101200000D03*
%TO.P,U4,14*%
%TO.N,/CH2/OUT*%
X74387500Y-100550000D03*
%TD*%
D23*
%TO.P,R87,1*%
%TO.N,Net-(U6C--)*%
X97575000Y-104750000D03*
%TO.P,R87,2*%
%TO.N,Net-(C24-Pad2)*%
X95925000Y-104750000D03*
%TD*%
D19*
%TO.P,R96,1*%
%TO.N,Net-(U8E-MODE)*%
X99425000Y-98750000D03*
%TO.P,R96,2*%
%TO.N,+12V*%
X101075000Y-98750000D03*
%TD*%
D20*
%TO.P,C45,1*%
%TO.N,+10V_REF*%
X86725000Y-128250000D03*
%TO.P,C45,2*%
%TO.N,GND*%
X88275000Y-128250000D03*
%TD*%
D24*
%TO.P,C6,1*%
%TO.N,Net-(U2C--)*%
X72275000Y-85500000D03*
%TO.P,C6,2*%
%TO.N,Net-(C6-Pad2)*%
X70725000Y-85500000D03*
%TD*%
D30*
%TO.P,D5,1,K*%
%TO.N,Net-(D5-K)*%
X90800000Y-109000000D03*
%TO.P,D5,2,A*%
%TO.N,Net-(D5-A)*%
X88700000Y-109000000D03*
%TD*%
D23*
%TO.P,R60,1*%
%TO.N,Net-(C17-Pad2)*%
X109075000Y-79350000D03*
%TO.P,R60,2*%
%TO.N,Net-(U5C--)*%
X107425000Y-79350000D03*
%TD*%
D19*
%TO.P,R3,1*%
%TO.N,Net-(C2-Pad1)*%
X70675000Y-88750000D03*
%TO.P,R3,2*%
%TO.N,Net-(U7B-INB)*%
X72325000Y-88750000D03*
%TD*%
%TO.P,R9,1*%
%TO.N,Net-(U2A--)*%
X82175000Y-82750000D03*
%TO.P,R9,2*%
%TO.N,Net-(C5-Pad2)*%
X83825000Y-82750000D03*
%TD*%
D24*
%TO.P,C33,1*%
%TO.N,+12V*%
X97275000Y-144250000D03*
%TO.P,C33,2*%
%TO.N,GND*%
X95725000Y-144250000D03*
%TD*%
D19*
%TO.P,R28,1*%
%TO.N,Net-(J5-PadT)*%
X86425000Y-111250000D03*
%TO.P,R28,2*%
%TO.N,Net-(R28-Pad2)*%
X88075000Y-111250000D03*
%TD*%
D23*
%TO.P,R1,1*%
%TO.N,+10V_REF*%
X75075000Y-119750000D03*
%TO.P,R1,2*%
%TO.N,Net-(J2-PadTN)*%
X73425000Y-119750000D03*
%TD*%
%TO.P,R16,1*%
%TO.N,Net-(R16-Pad1)*%
X68325000Y-111000000D03*
%TO.P,R16,2*%
%TO.N,Net-(D1-K)*%
X66675000Y-111000000D03*
%TD*%
D24*
%TO.P,C1,1*%
%TO.N,Net-(C1-Pad1)*%
X71275000Y-70250000D03*
%TO.P,C1,2*%
%TO.N,GND*%
X69725000Y-70250000D03*
%TD*%
D20*
%TO.P,C46,1*%
%TO.N,GND*%
X91475000Y-128250000D03*
%TO.P,C46,2*%
%TO.N,-2V5_REF*%
X93025000Y-128250000D03*
%TD*%
D23*
%TO.P,R83,1*%
%TO.N,-2V5_REF*%
X109325000Y-144500000D03*
%TO.P,R83,2*%
%TO.N,Net-(U3D--)*%
X107675000Y-144500000D03*
%TD*%
D19*
%TO.P,R56,1*%
%TO.N,Net-(U5A--)*%
X107425000Y-81000000D03*
%TO.P,R56,2*%
%TO.N,Net-(C17-Pad2)*%
X109075000Y-81000000D03*
%TD*%
D24*
%TO.P,C4,1*%
%TO.N,Net-(U2B--)*%
X83775000Y-85900000D03*
%TO.P,C4,2*%
%TO.N,Net-(U7A-CVA)*%
X82225000Y-85900000D03*
%TD*%
D31*
%TO.P,U7,1,MODE*%
%TO.N,Net-(U7E-MODE)*%
X74775000Y-96945000D03*
%TO.P,U7,2,INA*%
%TO.N,Net-(U7A-INA)*%
X74775000Y-95675000D03*
%TO.P,U7,3,CVA*%
%TO.N,Net-(U7A-CVA)*%
X74775000Y-94405000D03*
%TO.P,U7,4,OUTA*%
%TO.N,Net-(U2A--)*%
X74775000Y-93135000D03*
%TO.P,U7,5,OUTB*%
%TO.N,Net-(U2B--)*%
X74775000Y-91865000D03*
%TO.P,U7,6,CVB*%
%TO.N,Net-(U7B-CVB)*%
X74775000Y-90595000D03*
%TO.P,U7,7,INB*%
%TO.N,Net-(U7B-INB)*%
X74775000Y-89325000D03*
%TO.P,U7,8,GND*%
%TO.N,GND*%
X74775000Y-88055000D03*
%TO.P,U7,9,V-*%
%TO.N,-12V*%
X79725000Y-88055000D03*
%TO.P,U7,10,INC*%
%TO.N,Net-(U7C-INC)*%
X79725000Y-89325000D03*
%TO.P,U7,11,CVC*%
%TO.N,Net-(U7C-CVC)*%
X79725000Y-90595000D03*
%TO.P,U7,12,OUTC*%
%TO.N,Net-(U4A--)*%
X79725000Y-91865000D03*
%TO.P,U7,13,OUTD*%
%TO.N,Net-(U4B--)*%
X79725000Y-93135000D03*
%TO.P,U7,14,CVD*%
%TO.N,Net-(U7D-CVD)*%
X79725000Y-94405000D03*
%TO.P,U7,15,IND*%
%TO.N,Net-(U7D-IND)*%
X79725000Y-95675000D03*
%TO.P,U7,16,V+*%
%TO.N,+12V*%
X79725000Y-96945000D03*
%TD*%
D23*
%TO.P,R35,1*%
%TO.N,-2V5_REF*%
X87825000Y-144500000D03*
%TO.P,R35,2*%
%TO.N,Net-(U1D--)*%
X86175000Y-144500000D03*
%TD*%
D19*
%TO.P,R84,1*%
%TO.N,Net-(C23-Pad2)*%
X110925000Y-100000000D03*
%TO.P,R84,2*%
%TO.N,Net-(U6C--)*%
X112575000Y-100000000D03*
%TD*%
%TO.P,R36,1*%
%TO.N,Net-(C11-Pad2)*%
X85675000Y-100000000D03*
%TO.P,R36,2*%
%TO.N,Net-(U4C--)*%
X87325000Y-100000000D03*
%TD*%
D20*
%TO.P,C29,1*%
%TO.N,GND*%
X70725000Y-101500000D03*
%TO.P,C29,2*%
%TO.N,-12V*%
X72275000Y-101500000D03*
%TD*%
D23*
%TO.P,R92,1*%
%TO.N,Net-(C24-Pad2)*%
X112575000Y-140500000D03*
%TO.P,R92,2*%
%TO.N,Net-(J12-PadT)*%
X110925000Y-140500000D03*
%TD*%
D19*
%TO.P,R53,1*%
%TO.N,Net-(C13-Pad1)*%
X95925000Y-91750000D03*
%TO.P,R53,2*%
%TO.N,Net-(U5B--)*%
X97575000Y-91750000D03*
%TD*%
D22*
%TO.P,U9,1,K*%
%TO.N,GND*%
X91387500Y-130475000D03*
%TO.P,U9,2,A*%
%TO.N,-2V5_REF*%
X93287500Y-130475000D03*
%TO.P,U9,3*%
%TO.N,N/C*%
X92337500Y-132350000D03*
%TD*%
D23*
%TO.P,R7,1*%
%TO.N,Net-(C3-Pad1)*%
X72325000Y-96500000D03*
%TO.P,R7,2*%
%TO.N,Net-(U7A-INA)*%
X70675000Y-96500000D03*
%TD*%
D19*
%TO.P,R50,1*%
%TO.N,Net-(C14-Pad1)*%
X95925000Y-88750000D03*
%TO.P,R50,2*%
%TO.N,Net-(U8B-INB)*%
X97575000Y-88750000D03*
%TD*%
D20*
%TO.P,C11,1*%
%TO.N,Net-(U4A--)*%
X82225000Y-101500000D03*
%TO.P,C11,2*%
%TO.N,Net-(C11-Pad2)*%
X83775000Y-101500000D03*
%TD*%
D23*
%TO.P,R22,1*%
%TO.N,Net-(J3-PadTN)*%
X72325000Y-79450000D03*
%TO.P,R22,2*%
%TO.N,Net-(U2D--)*%
X70675000Y-79450000D03*
%TD*%
D28*
%TO.P,D7,1,K*%
%TO.N,Net-(D7-K)*%
X104950000Y-109000000D03*
%TO.P,D7,2,A*%
%TO.N,Net-(D7-A)*%
X107050000Y-109000000D03*
%TD*%
D24*
%TO.P,C26,1*%
%TO.N,GND*%
X84525000Y-142750000D03*
%TO.P,C26,2*%
%TO.N,-12V*%
X82975000Y-142750000D03*
%TD*%
%TO.P,C13,1*%
%TO.N,Net-(C13-Pad1)*%
X95775000Y-70250000D03*
%TO.P,C13,2*%
%TO.N,GND*%
X94225000Y-70250000D03*
%TD*%
D19*
%TO.P,R76,1*%
%TO.N,Net-(J11-PadT)*%
X111175000Y-111000000D03*
%TO.P,R76,2*%
%TO.N,Net-(R76-Pad2)*%
X112825000Y-111000000D03*
%TD*%
D24*
%TO.P,C25,1*%
%TO.N,+12V*%
X72275000Y-144000000D03*
%TO.P,C25,2*%
%TO.N,GND*%
X70725000Y-144000000D03*
%TD*%
D23*
%TO.P,R58,1*%
%TO.N,Net-(U8A-CVA)*%
X97575000Y-94750000D03*
%TO.P,R58,2*%
%TO.N,Net-(U3B--)*%
X95925000Y-94750000D03*
%TD*%
D19*
%TO.P,R66,1*%
%TO.N,GND*%
X95675000Y-145750000D03*
%TO.P,R66,2*%
%TO.N,Net-(U3A-+)*%
X97325000Y-145750000D03*
%TD*%
%TO.P,R47,1*%
%TO.N,Net-(U4D--)*%
X70675000Y-99750000D03*
%TO.P,R47,2*%
%TO.N,/CH2/OUT*%
X72325000Y-99750000D03*
%TD*%
D23*
%TO.P,R51,1*%
%TO.N,Net-(J7-PadT)*%
X93075000Y-126000000D03*
%TO.P,R51,2*%
%TO.N,Net-(U8A-INA)*%
X91425000Y-126000000D03*
%TD*%
%TO.P,R54,1*%
%TO.N,Net-(C15-Pad1)*%
X97575000Y-96500000D03*
%TO.P,R54,2*%
%TO.N,Net-(U8A-INA)*%
X95925000Y-96500000D03*
%TD*%
%TO.P,R31,1*%
%TO.N,-2V5_REF*%
X83825000Y-92750000D03*
%TO.P,R31,2*%
%TO.N,Net-(U4B--)*%
X82175000Y-92750000D03*
%TD*%
D20*
%TO.P,C8,1*%
%TO.N,Net-(C8-Pad1)*%
X85725000Y-94500000D03*
%TO.P,C8,2*%
%TO.N,GND*%
X87275000Y-94500000D03*
%TD*%
%TO.P,C10,1*%
%TO.N,Net-(U4B--)*%
X82225000Y-104500000D03*
%TO.P,C10,2*%
%TO.N,Net-(U7C-CVC)*%
X83775000Y-104500000D03*
%TD*%
D21*
%TO.P,R19,1*%
%TO.N,Net-(C6-Pad2)*%
X68250000Y-84175000D03*
%TO.P,R19,2*%
%TO.N,Net-(U1A-+)*%
X68250000Y-85825000D03*
%TD*%
D19*
%TO.P,R6,1*%
%TO.N,Net-(C1-Pad1)*%
X70675000Y-91750000D03*
%TO.P,R6,2*%
%TO.N,Net-(U2B--)*%
X72325000Y-91750000D03*
%TD*%
D20*
%TO.P,C5,1*%
%TO.N,Net-(U2A--)*%
X82225000Y-81250000D03*
%TO.P,C5,2*%
%TO.N,Net-(C5-Pad2)*%
X83775000Y-81250000D03*
%TD*%
D19*
%TO.P,R65,1*%
%TO.N,GND*%
X92425000Y-145750000D03*
%TO.P,R65,2*%
%TO.N,Net-(D6-AK)*%
X94075000Y-145750000D03*
%TD*%
D23*
%TO.P,R77,1*%
%TO.N,Net-(C19-Pad1)*%
X109075000Y-91000000D03*
%TO.P,R77,2*%
%TO.N,Net-(U6B--)*%
X107425000Y-91000000D03*
%TD*%
D31*
%TO.P,U8,1,MODE*%
%TO.N,Net-(U8E-MODE)*%
X100025000Y-96945000D03*
%TO.P,U8,2,INA*%
%TO.N,Net-(U8A-INA)*%
X100025000Y-95675000D03*
%TO.P,U8,3,CVA*%
%TO.N,Net-(U8A-CVA)*%
X100025000Y-94405000D03*
%TO.P,U8,4,OUTA*%
%TO.N,Net-(U5A--)*%
X100025000Y-93135000D03*
%TO.P,U8,5,OUTB*%
%TO.N,Net-(U5B--)*%
X100025000Y-91865000D03*
%TO.P,U8,6,CVB*%
%TO.N,Net-(U8B-CVB)*%
X100025000Y-90595000D03*
%TO.P,U8,7,INB*%
%TO.N,Net-(U8B-INB)*%
X100025000Y-89325000D03*
%TO.P,U8,8,GND*%
%TO.N,GND*%
X100025000Y-88055000D03*
%TO.P,U8,9,V-*%
%TO.N,-12V*%
X104975000Y-88055000D03*
%TO.P,U8,10,INC*%
%TO.N,Net-(U8C-INC)*%
X104975000Y-89325000D03*
%TO.P,U8,11,CVC*%
%TO.N,Net-(U8C-CVC)*%
X104975000Y-90595000D03*
%TO.P,U8,12,OUTC*%
%TO.N,Net-(U6A--)*%
X104975000Y-91865000D03*
%TO.P,U8,13,OUTD*%
%TO.N,Net-(U6B--)*%
X104975000Y-93135000D03*
%TO.P,U8,14,CVD*%
%TO.N,Net-(U8D-CVD)*%
X104975000Y-94405000D03*
%TO.P,U8,15,IND*%
%TO.N,Net-(U8D-IND)*%
X104975000Y-95675000D03*
%TO.P,U8,16,V+*%
%TO.N,+12V*%
X104975000Y-96945000D03*
%TD*%
D32*
%TO.P,U1,1*%
%TO.N,Net-(D2-KA)*%
X74637500Y-146325000D03*
%TO.P,U1,2,-*%
%TO.N,Net-(D2-AK)*%
X74637500Y-145675000D03*
%TO.P,U1,3,+*%
%TO.N,Net-(U1A-+)*%
X74637500Y-145025000D03*
%TO.P,U1,4,V+*%
%TO.N,+12V*%
X74637500Y-144375000D03*
%TO.P,U1,5,+*%
%TO.N,GND*%
X74637500Y-143725000D03*
%TO.P,U1,6,-*%
%TO.N,Net-(U1B--)*%
X74637500Y-143075000D03*
%TO.P,U1,7*%
%TO.N,Net-(R16-Pad1)*%
X74637500Y-142425000D03*
%TO.P,U1,8*%
%TO.N,Net-(D4-KA)*%
X80362500Y-142425000D03*
%TO.P,U1,9,-*%
%TO.N,Net-(D4-AK)*%
X80362500Y-143075000D03*
%TO.P,U1,10,+*%
%TO.N,Net-(U1C-+)*%
X80362500Y-143725000D03*
%TO.P,U1,11,V-*%
%TO.N,-12V*%
X80362500Y-144375000D03*
%TO.P,U1,12,+*%
%TO.N,GND*%
X80362500Y-145025000D03*
%TO.P,U1,13,-*%
%TO.N,Net-(U1D--)*%
X80362500Y-145675000D03*
%TO.P,U1,14*%
%TO.N,Net-(R40-Pad1)*%
X80362500Y-146325000D03*
%TD*%
D19*
%TO.P,R48,1*%
%TO.N,+10V_REF*%
X91675000Y-119750000D03*
%TO.P,R48,2*%
%TO.N,Net-(J8-PadTN)*%
X93325000Y-119750000D03*
%TD*%
D20*
%TO.P,C27,1*%
%TO.N,+12V*%
X82225000Y-84250000D03*
%TO.P,C27,2*%
%TO.N,GND*%
X83775000Y-84250000D03*
%TD*%
D19*
%TO.P,R38,1*%
%TO.N,Net-(U1D--)*%
X82925000Y-146000000D03*
%TO.P,R38,2*%
%TO.N,Net-(D3-A)*%
X84575000Y-146000000D03*
%TD*%
%TO.P,R17,1*%
%TO.N,GND*%
X67425000Y-145500000D03*
%TO.P,R17,2*%
%TO.N,Net-(D2-AK)*%
X69075000Y-145500000D03*
%TD*%
D24*
%TO.P,C19,1*%
%TO.N,Net-(C19-Pad1)*%
X108275000Y-70250000D03*
%TO.P,C19,2*%
%TO.N,GND*%
X106725000Y-70250000D03*
%TD*%
%TO.P,C32,1*%
%TO.N,GND*%
X83775000Y-88000000D03*
%TO.P,C32,2*%
%TO.N,-12V*%
X82225000Y-88000000D03*
%TD*%
D20*
%TO.P,C31,1*%
%TO.N,+12V*%
X82225000Y-97500000D03*
%TO.P,C31,2*%
%TO.N,GND*%
X83775000Y-97500000D03*
%TD*%
D23*
%TO.P,R63,1*%
%TO.N,Net-(U5C--)*%
X97575000Y-85500000D03*
%TO.P,R63,2*%
%TO.N,Net-(C18-Pad2)*%
X95925000Y-85500000D03*
%TD*%
D20*
%TO.P,C40,1*%
%TO.N,+12V*%
X107475000Y-103000000D03*
%TO.P,C40,2*%
%TO.N,GND*%
X109025000Y-103000000D03*
%TD*%
D19*
%TO.P,R4,1*%
%TO.N,Net-(J1-PadT)*%
X73350000Y-125750000D03*
%TO.P,R4,2*%
%TO.N,Net-(U7A-INA)*%
X75000000Y-125750000D03*
%TD*%
D29*
%TO.P,U6,1*%
%TO.N,Net-(C23-Pad2)*%
X105362500Y-100550000D03*
%TO.P,U6,2,-*%
%TO.N,Net-(U6A--)*%
X105362500Y-101200000D03*
%TO.P,U6,3,+*%
%TO.N,GND*%
X105362500Y-101850000D03*
%TO.P,U6,4,V+*%
%TO.N,+12V*%
X105362500Y-102500000D03*
%TO.P,U6,5,+*%
%TO.N,GND*%
X105362500Y-103150000D03*
%TO.P,U6,6,-*%
%TO.N,Net-(U6B--)*%
X105362500Y-103800000D03*
%TO.P,U6,7*%
%TO.N,Net-(U8C-CVC)*%
X105362500Y-104450000D03*
%TO.P,U6,8*%
%TO.N,Net-(C24-Pad2)*%
X99637500Y-104450000D03*
%TO.P,U6,9,-*%
%TO.N,Net-(U6C--)*%
X99637500Y-103800000D03*
%TO.P,U6,10,+*%
%TO.N,GND*%
X99637500Y-103150000D03*
%TO.P,U6,11,V-*%
%TO.N,-12V*%
X99637500Y-102500000D03*
%TO.P,U6,12,+*%
%TO.N,GND*%
X99637500Y-101850000D03*
%TO.P,U6,13,-*%
%TO.N,Net-(U6D--)*%
X99637500Y-101200000D03*
%TO.P,U6,14*%
X99637500Y-100550000D03*
%TD*%
D20*
%TO.P,C2,1*%
%TO.N,Net-(C2-Pad1)*%
X70725000Y-87250000D03*
%TO.P,C2,2*%
%TO.N,GND*%
X72275000Y-87250000D03*
%TD*%
D21*
%TO.P,R67,1*%
%TO.N,Net-(C18-Pad2)*%
X93500000Y-84175000D03*
%TO.P,R67,2*%
%TO.N,Net-(U3A-+)*%
X93500000Y-85825000D03*
%TD*%
D23*
%TO.P,R34,1*%
%TO.N,Net-(U7C-CVC)*%
X84575000Y-144500000D03*
%TO.P,R34,2*%
%TO.N,Net-(U1D--)*%
X82925000Y-144500000D03*
%TD*%
D19*
%TO.P,R80,1*%
%TO.N,Net-(U6A--)*%
X107425000Y-100000000D03*
%TO.P,R80,2*%
%TO.N,Net-(C23-Pad2)*%
X109075000Y-100000000D03*
%TD*%
D23*
%TO.P,R81,1*%
%TO.N,GND*%
X107575000Y-61250000D03*
%TO.P,R81,2*%
%TO.N,Net-(R81-Pad2)*%
X105925000Y-61250000D03*
%TD*%
D29*
%TO.P,U5,1*%
%TO.N,Net-(C17-Pad2)*%
X105362500Y-81300000D03*
%TO.P,U5,2,-*%
%TO.N,Net-(U5A--)*%
X105362500Y-81950000D03*
%TO.P,U5,3,+*%
%TO.N,GND*%
X105362500Y-82600000D03*
%TO.P,U5,4,V+*%
%TO.N,+12V*%
X105362500Y-83250000D03*
%TO.P,U5,5,+*%
%TO.N,GND*%
X105362500Y-83900000D03*
%TO.P,U5,6,-*%
%TO.N,Net-(U5B--)*%
X105362500Y-84550000D03*
%TO.P,U5,7*%
%TO.N,Net-(U8A-CVA)*%
X105362500Y-85200000D03*
%TO.P,U5,8*%
%TO.N,Net-(C18-Pad2)*%
X99637500Y-85200000D03*
%TO.P,U5,9,-*%
%TO.N,Net-(U5C--)*%
X99637500Y-84550000D03*
%TO.P,U5,10,+*%
%TO.N,GND*%
X99637500Y-83900000D03*
%TO.P,U5,11,V-*%
%TO.N,-12V*%
X99637500Y-83250000D03*
%TO.P,U5,12,+*%
%TO.N,GND*%
X99637500Y-82600000D03*
%TO.P,U5,13,-*%
%TO.N,Net-(U5D--)*%
X99637500Y-81950000D03*
%TO.P,U5,14*%
%TO.N,/CH3/OUT*%
X99637500Y-81300000D03*
%TD*%
D24*
%TO.P,C18,1*%
%TO.N,Net-(U5C--)*%
X97525000Y-84000000D03*
%TO.P,C18,2*%
%TO.N,Net-(C18-Pad2)*%
X95975000Y-84000000D03*
%TD*%
D19*
%TO.P,R90,1*%
%TO.N,GND*%
X100925000Y-140250000D03*
%TO.P,R90,2*%
%TO.N,Net-(U3C-+)*%
X102575000Y-140250000D03*
%TD*%
%TO.P,R85,1*%
%TO.N,/CH3/OUT*%
X99525000Y-106250000D03*
%TO.P,R85,2*%
%TO.N,Net-(U6C--)*%
X101175000Y-106250000D03*
%TD*%
D24*
%TO.P,C16,1*%
%TO.N,Net-(U5B--)*%
X109025000Y-85650000D03*
%TO.P,C16,2*%
%TO.N,Net-(U8A-CVA)*%
X107475000Y-85650000D03*
%TD*%
D19*
%TO.P,R52,1*%
%TO.N,Net-(J8-PadT)*%
X96425000Y-109000000D03*
%TO.P,R52,2*%
%TO.N,Net-(R52-Pad2)*%
X98075000Y-109000000D03*
%TD*%
%TO.P,R18,1*%
%TO.N,GND*%
X70675000Y-145500000D03*
%TO.P,R18,2*%
%TO.N,Net-(U1A-+)*%
X72325000Y-145500000D03*
%TD*%
%TO.P,R75,1*%
%TO.N,Net-(J10-PadT)*%
X111175000Y-126000000D03*
%TO.P,R75,2*%
%TO.N,Net-(U8C-INC)*%
X112825000Y-126000000D03*
%TD*%
D33*
%TO.P,J13,1,Pin_1*%
%TO.N,Net-(J13-Pin_1)*%
X100000000Y-127830000D03*
%TO.P,J13,2,Pin_2*%
X105050000Y-127830000D03*
%TO.P,J13,3,Pin_3*%
%TO.N,GND*%
X100000000Y-125290000D03*
%TO.P,J13,4,Pin_4*%
X105050000Y-125290000D03*
%TO.P,J13,5,Pin_5*%
X100000000Y-122750000D03*
%TO.P,J13,6,Pin_6*%
X105050000Y-122750000D03*
%TO.P,J13,7,Pin_7*%
X100000000Y-120210000D03*
%TO.P,J13,8,Pin_8*%
X105050000Y-120210000D03*
%TO.P,J13,9,Pin_9*%
%TO.N,Net-(J13-Pin_10)*%
X100000000Y-117670000D03*
%TO.P,J13,10,Pin_10*%
X105050000Y-117670000D03*
%TD*%
D19*
%TO.P,R62,1*%
%TO.N,Net-(U3B--)*%
X95675000Y-142550000D03*
%TO.P,R62,2*%
%TO.N,Net-(D5-A)*%
X97325000Y-142550000D03*
%TD*%
D20*
%TO.P,C17,1*%
%TO.N,Net-(U5A--)*%
X107475000Y-82500000D03*
%TO.P,C17,2*%
%TO.N,Net-(C17-Pad2)*%
X109025000Y-82500000D03*
%TD*%
D19*
%TO.P,R5,1*%
%TO.N,Net-(J2-PadT)*%
X73425000Y-111000000D03*
%TO.P,R5,2*%
%TO.N,Net-(R5-Pad2)*%
X75075000Y-111000000D03*
%TD*%
%TO.P,R21,1*%
%TO.N,Net-(D1-A)*%
X67425000Y-74750000D03*
%TO.P,R21,2*%
%TO.N,GND*%
X69075000Y-74750000D03*
%TD*%
D23*
%TO.P,R40,1*%
%TO.N,Net-(R40-Pad1)*%
X81825000Y-109000000D03*
%TO.P,R40,2*%
%TO.N,Net-(D3-K)*%
X80175000Y-109000000D03*
%TD*%
D24*
%TO.P,C34,1*%
%TO.N,GND*%
X109275000Y-143000000D03*
%TO.P,C34,2*%
%TO.N,-12V*%
X107725000Y-143000000D03*
%TD*%
%TO.P,C12,1*%
%TO.N,Net-(U4C--)*%
X72275000Y-103000000D03*
%TO.P,C12,2*%
%TO.N,Net-(C12-Pad2)*%
X70725000Y-103000000D03*
%TD*%
D19*
%TO.P,R23,1*%
%TO.N,Net-(U2D--)*%
X70675000Y-80900000D03*
%TO.P,R23,2*%
%TO.N,/CH1/OUT*%
X72325000Y-80900000D03*
%TD*%
D27*
%TO.P,C43,1*%
%TO.N,+12V*%
X98500000Y-113225000D03*
%TO.P,C43,2*%
%TO.N,GND*%
X98500000Y-114775000D03*
%TD*%
D23*
%TO.P,R39,1*%
%TO.N,Net-(U4C--)*%
X72325000Y-104500000D03*
%TO.P,R39,2*%
%TO.N,Net-(C12-Pad2)*%
X70675000Y-104500000D03*
%TD*%
%TO.P,R70,1*%
%TO.N,Net-(J9-PadTN)*%
X97575000Y-79250000D03*
%TO.P,R70,2*%
%TO.N,Net-(U5D--)*%
X95925000Y-79250000D03*
%TD*%
D19*
%TO.P,R88,1*%
%TO.N,Net-(R88-Pad1)*%
X101675000Y-108750000D03*
%TO.P,R88,2*%
%TO.N,Net-(D7-K)*%
X103325000Y-108750000D03*
%TD*%
D20*
%TO.P,C9,1*%
%TO.N,Net-(C9-Pad1)*%
X85725000Y-89500000D03*
%TO.P,C9,2*%
%TO.N,GND*%
X87275000Y-89500000D03*
%TD*%
D23*
%TO.P,R11,1*%
%TO.N,Net-(U7A-CVA)*%
X72325000Y-94750000D03*
%TO.P,R11,2*%
%TO.N,Net-(U1B--)*%
X70675000Y-94750000D03*
%TD*%
D24*
%TO.P,C24,1*%
%TO.N,Net-(U6C--)*%
X97525000Y-103250000D03*
%TO.P,C24,2*%
%TO.N,Net-(C24-Pad2)*%
X95975000Y-103250000D03*
%TD*%
D19*
%TO.P,R93,1*%
%TO.N,Net-(D7-A)*%
X104925000Y-74750000D03*
%TO.P,R93,2*%
%TO.N,GND*%
X106575000Y-74750000D03*
%TD*%
%TO.P,R97,1*%
%TO.N,Net-(U7E-MODE)*%
X74175000Y-98750000D03*
%TO.P,R97,2*%
%TO.N,+12V*%
X75825000Y-98750000D03*
%TD*%
D20*
%TO.P,C35,1*%
%TO.N,+12V*%
X107475000Y-84000000D03*
%TO.P,C35,2*%
%TO.N,GND*%
X109025000Y-84000000D03*
%TD*%
D29*
%TO.P,U2,1*%
%TO.N,Net-(C5-Pad2)*%
X80000000Y-81250000D03*
%TO.P,U2,2,-*%
%TO.N,Net-(U2A--)*%
X80000000Y-81900000D03*
%TO.P,U2,3,+*%
%TO.N,GND*%
X80000000Y-82550000D03*
%TO.P,U2,4,V+*%
%TO.N,+12V*%
X80000000Y-83200000D03*
%TO.P,U2,5,+*%
%TO.N,GND*%
X80000000Y-83850000D03*
%TO.P,U2,6,-*%
%TO.N,Net-(U2B--)*%
X80000000Y-84500000D03*
%TO.P,U2,7*%
%TO.N,Net-(U7A-CVA)*%
X80000000Y-85150000D03*
%TO.P,U2,8*%
%TO.N,Net-(C6-Pad2)*%
X74275000Y-85150000D03*
%TO.P,U2,9,-*%
%TO.N,Net-(U2C--)*%
X74275000Y-84500000D03*
%TO.P,U2,10,+*%
%TO.N,GND*%
X74275000Y-83850000D03*
%TO.P,U2,11,V-*%
%TO.N,-12V*%
X74275000Y-83200000D03*
%TO.P,U2,12,+*%
%TO.N,GND*%
X74275000Y-82550000D03*
%TO.P,U2,13,-*%
%TO.N,Net-(U2D--)*%
X74275000Y-81900000D03*
%TO.P,U2,14*%
%TO.N,/CH1/OUT*%
X74275000Y-81250000D03*
%TD*%
D25*
%TO.P,C41,1*%
%TO.N,GND*%
X102500000Y-134705113D03*
D26*
%TO.P,C41,2*%
%TO.N,-12V*%
X102500000Y-132705113D03*
%TD*%
D20*
%TO.P,C23,1*%
%TO.N,Net-(U6A--)*%
X107475000Y-101500000D03*
%TO.P,C23,2*%
%TO.N,Net-(C23-Pad2)*%
X109025000Y-101500000D03*
%TD*%
%TO.P,C22,1*%
%TO.N,Net-(U6B--)*%
X107475000Y-104500000D03*
%TO.P,C22,2*%
%TO.N,Net-(U8C-CVC)*%
X109025000Y-104500000D03*
%TD*%
D32*
%TO.P,U3,1*%
%TO.N,Net-(D6-KA)*%
X99650000Y-146437500D03*
%TO.P,U3,2,-*%
%TO.N,Net-(D6-AK)*%
X99650000Y-145787500D03*
%TO.P,U3,3,+*%
%TO.N,Net-(U3A-+)*%
X99650000Y-145137500D03*
%TO.P,U3,4,V+*%
%TO.N,+12V*%
X99650000Y-144487500D03*
%TO.P,U3,5,+*%
%TO.N,GND*%
X99650000Y-143837500D03*
%TO.P,U3,6,-*%
%TO.N,Net-(U3B--)*%
X99650000Y-143187500D03*
%TO.P,U3,7*%
%TO.N,Net-(R64-Pad1)*%
X99650000Y-142537500D03*
%TO.P,U3,8*%
%TO.N,Net-(D8-KA)*%
X105375000Y-142537500D03*
%TO.P,U3,9,-*%
%TO.N,Net-(D8-AK)*%
X105375000Y-143187500D03*
%TO.P,U3,10,+*%
%TO.N,Net-(U3C-+)*%
X105375000Y-143837500D03*
%TO.P,U3,11,V-*%
%TO.N,-12V*%
X105375000Y-144487500D03*
%TO.P,U3,12,+*%
%TO.N,GND*%
X105375000Y-145137500D03*
%TO.P,U3,13,-*%
%TO.N,Net-(U3D--)*%
X105375000Y-145787500D03*
%TO.P,U3,14*%
%TO.N,Net-(R88-Pad1)*%
X105375000Y-146437500D03*
%TD*%
D19*
%TO.P,R12,1*%
%TO.N,-2V5_REF*%
X67425000Y-142400000D03*
%TO.P,R12,2*%
%TO.N,Net-(U1B--)*%
X69075000Y-142400000D03*
%TD*%
D20*
%TO.P,C14,1*%
%TO.N,Net-(C14-Pad1)*%
X95975000Y-87250000D03*
%TO.P,C14,2*%
%TO.N,GND*%
X97525000Y-87250000D03*
%TD*%
D24*
%TO.P,C15,1*%
%TO.N,Net-(C15-Pad1)*%
X97525000Y-98000000D03*
%TO.P,C15,2*%
%TO.N,GND*%
X95975000Y-98000000D03*
%TD*%
D23*
%TO.P,R73,1*%
%TO.N,-2V5_REF*%
X109075000Y-96000000D03*
%TO.P,R73,2*%
%TO.N,Net-(U8D-IND)*%
X107425000Y-96000000D03*
%TD*%
D20*
%TO.P,C30,1*%
%TO.N,+12V*%
X82225000Y-103000000D03*
%TO.P,C30,2*%
%TO.N,GND*%
X83775000Y-103000000D03*
%TD*%
D23*
%TO.P,R72,1*%
%TO.N,+10V_REF*%
X112825000Y-119750000D03*
%TO.P,R72,2*%
%TO.N,Net-(J11-PadTN)*%
X111175000Y-119750000D03*
%TD*%
D19*
%TO.P,R42,1*%
%TO.N,GND*%
X75925000Y-140250000D03*
%TO.P,R42,2*%
%TO.N,Net-(U1C-+)*%
X77575000Y-140250000D03*
%TD*%
D23*
%TO.P,R15,1*%
%TO.N,Net-(U2C--)*%
X72325000Y-84000000D03*
%TO.P,R15,2*%
%TO.N,Net-(C6-Pad2)*%
X70675000Y-84000000D03*
%TD*%
D34*
%TO.P,R95,1*%
%TO.N,-12V*%
X95250000Y-131825000D03*
%TO.P,R95,2*%
%TO.N,-2V5_REF*%
X95250000Y-130175000D03*
%TD*%
D19*
%TO.P,R59,1*%
%TO.N,-2V5_REF*%
X92425000Y-142550000D03*
%TO.P,R59,2*%
%TO.N,Net-(U3B--)*%
X94075000Y-142550000D03*
%TD*%
D20*
%TO.P,C37,1*%
%TO.N,GND*%
X95975000Y-101750000D03*
%TO.P,C37,2*%
%TO.N,-12V*%
X97525000Y-101750000D03*
%TD*%
D19*
%TO.P,R69,1*%
%TO.N,Net-(D5-A)*%
X92425000Y-74750000D03*
%TO.P,R69,2*%
%TO.N,GND*%
X94075000Y-74750000D03*
%TD*%
D20*
%TO.P,C21,1*%
%TO.N,Net-(C21-Pad1)*%
X110725000Y-89250000D03*
%TO.P,C21,2*%
%TO.N,GND*%
X112275000Y-89250000D03*
%TD*%
D23*
%TO.P,R24,1*%
%TO.N,+10V_REF*%
X88075000Y-119750000D03*
%TO.P,R24,2*%
%TO.N,Net-(J5-PadTN)*%
X86425000Y-119750000D03*
%TD*%
D35*
%TO.P,FB1,1*%
%TO.N,Net-(J13-Pin_10)*%
X106250000Y-114775000D03*
%TO.P,FB1,2*%
%TO.N,+12V*%
X106250000Y-113225000D03*
%TD*%
D24*
%TO.P,C7,1*%
%TO.N,Net-(C7-Pad1)*%
X83775000Y-70250000D03*
%TO.P,C7,2*%
%TO.N,GND*%
X82225000Y-70250000D03*
%TD*%
D30*
%TO.P,D3,1,K*%
%TO.N,Net-(D3-K)*%
X78550000Y-109000000D03*
%TO.P,D3,2,A*%
%TO.N,Net-(D3-A)*%
X76450000Y-109000000D03*
%TD*%
D19*
%TO.P,R86,1*%
%TO.N,Net-(U3D--)*%
X107675000Y-146000000D03*
%TO.P,R86,2*%
%TO.N,Net-(D7-A)*%
X109325000Y-146000000D03*
%TD*%
%TO.P,R46,1*%
%TO.N,Net-(J6-PadTN)*%
X86175000Y-148250000D03*
%TO.P,R46,2*%
%TO.N,Net-(U4D--)*%
X87825000Y-148250000D03*
%TD*%
D23*
%TO.P,R30,1*%
%TO.N,Net-(C9-Pad1)*%
X83825000Y-89500000D03*
%TO.P,R30,2*%
%TO.N,Net-(U7C-INC)*%
X82175000Y-89500000D03*
%TD*%
%TO.P,R13,1*%
%TO.N,Net-(C5-Pad2)*%
X83825000Y-79600000D03*
%TO.P,R13,2*%
%TO.N,Net-(U2C--)*%
X82175000Y-79600000D03*
%TD*%
%TO.P,R79,1*%
%TO.N,-2V5_REF*%
X109075000Y-92750000D03*
%TO.P,R79,2*%
%TO.N,Net-(U6B--)*%
X107425000Y-92750000D03*
%TD*%
%TO.P,R74,1*%
%TO.N,Net-(C20-Pad1)*%
X109075000Y-94500000D03*
%TO.P,R74,2*%
%TO.N,Net-(U8D-IND)*%
X107425000Y-94500000D03*
%TD*%
D27*
%TO.P,FB2,1*%
%TO.N,Net-(J13-Pin_1)*%
X106500000Y-130725000D03*
%TO.P,FB2,2*%
%TO.N,-12V*%
X106500000Y-132275000D03*
%TD*%
D19*
%TO.P,R2,1*%
%TO.N,-2V5_REF*%
X70675000Y-90250000D03*
%TO.P,R2,2*%
%TO.N,Net-(U7B-INB)*%
X72325000Y-90250000D03*
%TD*%
D20*
%TO.P,C28,1*%
%TO.N,GND*%
X70725000Y-82500000D03*
%TO.P,C28,2*%
%TO.N,-12V*%
X72275000Y-82500000D03*
%TD*%
D23*
%TO.P,R57,1*%
%TO.N,GND*%
X95075000Y-61250000D03*
%TO.P,R57,2*%
%TO.N,Net-(R57-Pad2)*%
X93425000Y-61250000D03*
%TD*%
%TO.P,R33,1*%
%TO.N,GND*%
X82825000Y-61250000D03*
%TO.P,R33,2*%
%TO.N,Net-(R33-Pad2)*%
X81175000Y-61250000D03*
%TD*%
D19*
%TO.P,R20,1*%
%TO.N,Net-(C6-Pad2)*%
X67425000Y-140250000D03*
%TO.P,R20,2*%
%TO.N,Net-(J3-PadT)*%
X69075000Y-140250000D03*
%TD*%
%TO.P,R45,1*%
%TO.N,Net-(D3-A)*%
X79925000Y-74750000D03*
%TO.P,R45,2*%
%TO.N,GND*%
X81575000Y-74750000D03*
%TD*%
D36*
%TO.N,GND*%
X84700000Y-88000000D03*
X69900000Y-98000000D03*
X69800000Y-144000000D03*
X110350000Y-143000000D03*
X84700000Y-84300000D03*
X75950000Y-139200000D03*
X75900000Y-143750000D03*
X87300000Y-88500000D03*
X70300000Y-62400000D03*
X104100000Y-103200000D03*
X69100000Y-82200000D03*
X100800000Y-83900000D03*
X98500000Y-87700000D03*
X81500000Y-140250000D03*
X109900000Y-103000000D03*
X107600000Y-62300000D03*
X90500000Y-128200000D03*
X87200000Y-95400000D03*
X82800000Y-62300000D03*
X100900000Y-101800000D03*
X102500000Y-120200000D03*
X92450000Y-144850000D03*
X113200000Y-94500000D03*
X84700000Y-103000000D03*
X99950000Y-140250000D03*
X95200000Y-82500000D03*
X100850000Y-143850000D03*
X106450000Y-140250000D03*
X99500000Y-130700000D03*
X95100000Y-101800000D03*
X100800000Y-82600000D03*
X89200000Y-128200000D03*
X99400000Y-114800000D03*
X75500000Y-82600000D03*
X104150000Y-145150000D03*
X67450000Y-144600000D03*
X104100000Y-101900000D03*
X110000000Y-84000000D03*
X110000000Y-97500000D03*
X75600000Y-103100000D03*
X75600000Y-101900000D03*
X102500000Y-122800000D03*
X84700000Y-97500000D03*
X113200000Y-89200000D03*
X110000000Y-87800000D03*
X78900000Y-101900000D03*
X95300000Y-98700000D03*
X85500000Y-142750000D03*
X94650000Y-144250000D03*
X78800000Y-83800000D03*
X78800000Y-82600000D03*
X104200000Y-83900000D03*
X102500000Y-125300000D03*
X78900000Y-103100000D03*
X95100000Y-62200000D03*
X73300000Y-87800000D03*
X104200000Y-82600000D03*
X69850000Y-101500000D03*
X75500000Y-83800000D03*
X100900000Y-103200000D03*
X79150000Y-145000000D03*
%TO.N,Net-(C1-Pad1)*%
X71300000Y-91100000D03*
%TO.N,Net-(C6-Pad2)*%
X67000000Y-112850000D03*
X68300000Y-83200000D03*
%TO.N,Net-(C7-Pad1)*%
X87500000Y-87500000D03*
%TO.N,Net-(U5C--)*%
X69414949Y-80406040D03*
X106150000Y-79100000D03*
%TO.N,Net-(C13-Pad1)*%
X94250000Y-91700000D03*
%TO.N,Net-(U8A-CVA)*%
X103692598Y-85232076D03*
X103400000Y-80500000D03*
%TO.N,Net-(C18-Pad2)*%
X92300000Y-139700000D03*
X92500000Y-84150000D03*
%TO.N,Net-(C19-Pad1)*%
X112950000Y-92800000D03*
X111300000Y-86800000D03*
%TO.N,Net-(D1-A)*%
X72600000Y-139500000D03*
X67700000Y-109000000D03*
%TO.N,Net-(D2-KA)*%
X74650000Y-147050000D03*
X73900000Y-141300000D03*
%TO.N,Net-(D3-A)*%
X75350000Y-109000000D03*
X85700000Y-146000000D03*
%TO.N,Net-(D5-A)*%
X97300000Y-141650000D03*
X92900000Y-114200000D03*
X88700000Y-109700000D03*
%TO.N,Net-(D7-A)*%
X112500000Y-143800000D03*
X108100000Y-109000000D03*
%TO.N,Net-(J3-PadTN)*%
X66300000Y-79600000D03*
%TO.N,/CH1/OUT*%
X74800000Y-107200000D03*
X75512499Y-81800031D03*
%TO.N,+10V_REF*%
X88100000Y-118700000D03*
X84459544Y-129114090D03*
X112850000Y-118700000D03*
X75100000Y-118700000D03*
X91700000Y-118700000D03*
%TO.N,-2V5_REF*%
X88850000Y-144500000D03*
X110000000Y-92700000D03*
X67450000Y-143350000D03*
X95000000Y-93300000D03*
X94100000Y-128087941D03*
X69850000Y-90250000D03*
X110000000Y-96000000D03*
X110350000Y-144450000D03*
X92450000Y-143550000D03*
X84700000Y-96000000D03*
X69850000Y-93250000D03*
X84700000Y-92800000D03*
X95000000Y-90300000D03*
%TO.N,Net-(U6B--)*%
X113050000Y-90100000D03*
X107425000Y-91800000D03*
X106600000Y-103800000D03*
%TO.N,Net-(U3D--)*%
X112350000Y-91950000D03*
X113350000Y-145200000D03*
X106687500Y-145787500D03*
%TO.N,/CH3/OUT*%
X100700000Y-80500000D03*
X101500000Y-107250000D03*
%TO.N,Net-(U8B-CVB)*%
X102050000Y-80500000D03*
X101493590Y-90593590D03*
%TO.N,Net-(U2B--)*%
X76350000Y-85000000D03*
X77700000Y-84500000D03*
%TO.N,Net-(U7A-CVA)*%
X78600000Y-80400000D03*
X78550000Y-85150000D03*
%TO.N,Net-(U2C--)*%
X75600000Y-84800000D03*
X76800000Y-82200000D03*
%TO.N,Net-(U7C-CVC)*%
X81005000Y-90595000D03*
X90900000Y-91300000D03*
X83000000Y-106600000D03*
X87000000Y-143600000D03*
%TO.N,Net-(U4B--)*%
X81200000Y-93135000D03*
X88600000Y-92000000D03*
X78000000Y-101200000D03*
%TO.N,Net-(U4C--)*%
X83800000Y-106000000D03*
X76350735Y-107150735D03*
%TO.N,Net-(U5B--)*%
X101300000Y-75000000D03*
X103850000Y-84550000D03*
X101900000Y-84800000D03*
%TO.N,+12V*%
X98437500Y-144487500D03*
X82200000Y-98400000D03*
X75800000Y-97900000D03*
X108200000Y-102300000D03*
X73375000Y-144375000D03*
X85500000Y-131800000D03*
X101100000Y-97900000D03*
X83000000Y-83500000D03*
X107500000Y-98400000D03*
X108200000Y-83300000D03*
X83000000Y-102300000D03*
%TO.N,-12V*%
X71500000Y-83250000D03*
X82000000Y-142750000D03*
X97500000Y-100800000D03*
X71500000Y-102200000D03*
X96800000Y-83200000D03*
X82275000Y-87100000D03*
X107750000Y-142050000D03*
X107500000Y-86800000D03*
%TO.N,Net-(J9-PadTN)*%
X98500000Y-80150000D03*
%TO.N,Net-(U7A-INA)*%
X78600000Y-107800000D03*
X77050000Y-110200000D03*
%TO.N,Net-(R5-Pad2)*%
X75000000Y-110000000D03*
%TO.N,Net-(U1B--)*%
X69900000Y-142500000D03*
X71400000Y-94800000D03*
%TO.N,Net-(U1A-+)*%
X76500000Y-145050000D03*
X68250000Y-86950000D03*
%TO.N,Net-(U7C-INC)*%
X86675000Y-91225000D03*
X81200000Y-89325000D03*
%TO.N,Net-(R40-Pad1)*%
X82450000Y-128550000D03*
X77800000Y-145200000D03*
%TO.N,Net-(R52-Pad2)*%
X98900000Y-109000000D03*
%TO.N,Net-(R64-Pad1)*%
X97700000Y-118000000D03*
X98300000Y-140500000D03*
%TO.N,Net-(U3A-+)*%
X93500000Y-86850000D03*
X101550000Y-144700000D03*
%TO.N,Net-(U8C-INC)*%
X111300000Y-87950000D03*
X112750000Y-124800000D03*
X106500000Y-89250000D03*
%TO.N,Net-(R76-Pad2)*%
X112750000Y-110000000D03*
%TO.N,Net-(R88-Pad1)*%
X101700000Y-109700000D03*
X101700000Y-139400000D03*
%TO.N,Net-(U3C-+)*%
X99750000Y-138800000D03*
X99100000Y-108100000D03*
%TO.N,Net-(U7B-CVB)*%
X77600000Y-80400000D03*
X73600000Y-90600000D03*
%TO.N,Net-(U7D-CVD)*%
X81200000Y-94400000D03*
X90200000Y-93800000D03*
%TD*%
D37*
%TO.N,Net-(C17-Pad2)*%
X109075000Y-81000000D02*
X109075000Y-79350000D01*
D38*
%TO.N,GND*%
X91475000Y-128250000D02*
X90550000Y-128250000D01*
D37*
X67425000Y-144625000D02*
X67450000Y-144600000D01*
X100850000Y-101850000D02*
X100900000Y-101800000D01*
X78950000Y-101850000D02*
X78900000Y-101900000D01*
D39*
X83775000Y-88000000D02*
X84700000Y-88000000D01*
D37*
X80112500Y-103150000D02*
X78950000Y-103150000D01*
X104150000Y-103150000D02*
X104100000Y-103200000D01*
X105375000Y-145137500D02*
X104162500Y-145137500D01*
X70675000Y-144050000D02*
X70725000Y-144000000D01*
X100850000Y-103150000D02*
X100900000Y-103200000D01*
X82225000Y-70250000D02*
X82225000Y-70875000D01*
D38*
X105050000Y-122750000D02*
X102550000Y-122750000D01*
D39*
X109025000Y-84000000D02*
X110000000Y-84000000D01*
X84650000Y-84250000D02*
X84700000Y-84300000D01*
D37*
X100025000Y-88055000D02*
X98855000Y-88055000D01*
D39*
X109025000Y-87750000D02*
X109950000Y-87750000D01*
D37*
X80000000Y-83850000D02*
X78850000Y-83850000D01*
X99650000Y-143837500D02*
X100837500Y-143837500D01*
X75550000Y-103150000D02*
X75600000Y-103100000D01*
X74387500Y-103150000D02*
X75550000Y-103150000D01*
X106725000Y-71975000D02*
X106225000Y-72475000D01*
D38*
X88287500Y-128262500D02*
X88275000Y-128250000D01*
D37*
X98855000Y-88055000D02*
X98500000Y-87700000D01*
X74275000Y-83850000D02*
X75450000Y-83850000D01*
X75925000Y-139225000D02*
X75950000Y-139200000D01*
D39*
X109025000Y-97500000D02*
X110000000Y-97500000D01*
X87275000Y-89500000D02*
X87275000Y-88525000D01*
X69400000Y-82500000D02*
X69100000Y-82200000D01*
D37*
X81900000Y-71200000D02*
X81900000Y-71825000D01*
X81900000Y-71825000D02*
X81250000Y-72475000D01*
X100925000Y-140250000D02*
X99950000Y-140250000D01*
D39*
X109950000Y-87750000D02*
X110000000Y-87800000D01*
D37*
X75875000Y-143725000D02*
X75900000Y-143750000D01*
D39*
X95975000Y-101750000D02*
X95150000Y-101750000D01*
D37*
X78950000Y-103150000D02*
X78900000Y-103100000D01*
D38*
X100000000Y-125290000D02*
X102490000Y-125290000D01*
D37*
X104150000Y-101850000D02*
X104100000Y-101900000D01*
X94225000Y-70250000D02*
X94225000Y-72000000D01*
X99637500Y-101850000D02*
X100850000Y-101850000D01*
X78850000Y-82550000D02*
X78800000Y-82600000D01*
X106575000Y-72825000D02*
X106225000Y-72475000D01*
X95725000Y-144250000D02*
X94650000Y-144250000D01*
X94075000Y-72800000D02*
X93750000Y-72475000D01*
X74275000Y-82550000D02*
X75450000Y-82550000D01*
X97525000Y-87250000D02*
X98050000Y-87250000D01*
X75450000Y-83850000D02*
X75500000Y-83800000D01*
D38*
X90550000Y-128250000D02*
X90500000Y-128200000D01*
D37*
X78850000Y-83850000D02*
X78800000Y-83800000D01*
D38*
X99375000Y-114775000D02*
X99400000Y-114800000D01*
D37*
X70675000Y-145500000D02*
X70675000Y-144050000D01*
X94075000Y-74750000D02*
X94075000Y-72800000D01*
X105575000Y-140250000D02*
X106450000Y-140250000D01*
D38*
X105050000Y-125290000D02*
X102510000Y-125290000D01*
D39*
X83775000Y-103000000D02*
X84700000Y-103000000D01*
D37*
X107575000Y-61250000D02*
X107575000Y-62275000D01*
X80362500Y-145025000D02*
X79175000Y-145025000D01*
D38*
X100000000Y-120210000D02*
X102490000Y-120210000D01*
D39*
X72275000Y-87250000D02*
X72750000Y-87250000D01*
D37*
X105362500Y-83900000D02*
X104200000Y-83900000D01*
D38*
X105050000Y-120210000D02*
X102510000Y-120210000D01*
D39*
X73555000Y-88055000D02*
X73300000Y-87800000D01*
D37*
X68750000Y-71850000D02*
X68750000Y-72475000D01*
D39*
X87275000Y-94500000D02*
X87275000Y-95325000D01*
D37*
X75550000Y-101850000D02*
X75600000Y-101900000D01*
X69075000Y-72800000D02*
X68750000Y-72475000D01*
D39*
X87275000Y-88525000D02*
X87300000Y-88500000D01*
X87275000Y-95325000D02*
X87200000Y-95400000D01*
D37*
X98050000Y-87250000D02*
X98500000Y-87700000D01*
X70325000Y-62375000D02*
X70300000Y-62400000D01*
X75925000Y-140250000D02*
X75925000Y-139225000D01*
X74637500Y-143725000D02*
X75875000Y-143725000D01*
D39*
X112275000Y-94500000D02*
X113200000Y-94500000D01*
D37*
X82825000Y-62275000D02*
X82800000Y-62300000D01*
X95975000Y-98000000D02*
X95975000Y-98025000D01*
X75450000Y-82550000D02*
X75500000Y-82600000D01*
D38*
X98500000Y-130725000D02*
X99475000Y-130725000D01*
D37*
X70325000Y-61250000D02*
X70325000Y-62375000D01*
D38*
X102550000Y-122750000D02*
X102500000Y-122800000D01*
D39*
X112275000Y-89250000D02*
X113150000Y-89250000D01*
D37*
X107575000Y-62275000D02*
X107600000Y-62300000D01*
X81575000Y-74750000D02*
X81575000Y-72800000D01*
X80000000Y-82550000D02*
X78850000Y-82550000D01*
X74387500Y-101850000D02*
X75550000Y-101850000D01*
X105362500Y-82600000D02*
X104200000Y-82600000D01*
X70725000Y-101500000D02*
X69850000Y-101500000D01*
D39*
X70725000Y-82500000D02*
X69400000Y-82500000D01*
D38*
X102490000Y-125290000D02*
X102500000Y-125300000D01*
X102490000Y-120210000D02*
X102500000Y-120200000D01*
D37*
X95675000Y-145750000D02*
X95675000Y-144300000D01*
X80112500Y-101850000D02*
X78950000Y-101850000D01*
D39*
X74775000Y-88055000D02*
X73555000Y-88055000D01*
D38*
X100000000Y-122750000D02*
X102450000Y-122750000D01*
D39*
X83775000Y-84250000D02*
X84650000Y-84250000D01*
D37*
X95075000Y-61250000D02*
X95075000Y-62175000D01*
X95975000Y-82500000D02*
X95200000Y-82500000D01*
D38*
X91387500Y-128337500D02*
X91475000Y-128250000D01*
D37*
X99637500Y-103150000D02*
X100850000Y-103150000D01*
X99637500Y-82600000D02*
X100800000Y-82600000D01*
D38*
X102450000Y-122750000D02*
X102500000Y-122800000D01*
D37*
X95675000Y-144300000D02*
X95725000Y-144250000D01*
X69725000Y-70875000D02*
X68750000Y-71850000D01*
X92425000Y-145750000D02*
X92425000Y-144875000D01*
D38*
X102510000Y-120210000D02*
X102500000Y-120200000D01*
D37*
X70725000Y-144000000D02*
X69800000Y-144000000D01*
X94225000Y-72000000D02*
X93750000Y-72475000D01*
X106725000Y-70250000D02*
X106725000Y-71975000D01*
X67425000Y-145500000D02*
X67425000Y-144625000D01*
X109275000Y-143000000D02*
X110350000Y-143000000D01*
X69075000Y-74750000D02*
X69075000Y-72800000D01*
D38*
X88275000Y-128250000D02*
X89150000Y-128250000D01*
D37*
X82225000Y-70875000D02*
X81900000Y-71200000D01*
X95975000Y-98025000D02*
X95300000Y-98700000D01*
X104162500Y-145137500D02*
X104150000Y-145150000D01*
D38*
X91387500Y-130475000D02*
X91387500Y-128337500D01*
X102510000Y-125290000D02*
X102500000Y-125300000D01*
D39*
X95150000Y-101750000D02*
X95100000Y-101800000D01*
D37*
X92425000Y-144875000D02*
X92450000Y-144850000D01*
X81575000Y-72800000D02*
X81250000Y-72475000D01*
D39*
X113150000Y-89250000D02*
X113200000Y-89200000D01*
X109025000Y-103000000D02*
X109900000Y-103000000D01*
D37*
X82825000Y-61250000D02*
X82825000Y-62275000D01*
X69725000Y-70250000D02*
X69725000Y-70875000D01*
X95075000Y-62175000D02*
X95100000Y-62200000D01*
X106575000Y-74750000D02*
X106575000Y-72825000D01*
X105362500Y-101850000D02*
X104150000Y-101850000D01*
D38*
X89150000Y-128250000D02*
X89200000Y-128200000D01*
D37*
X80575000Y-140250000D02*
X81500000Y-140250000D01*
X70725000Y-98000000D02*
X69900000Y-98000000D01*
D38*
X88287500Y-130475000D02*
X88287500Y-128262500D01*
D37*
X105362500Y-103150000D02*
X104150000Y-103150000D01*
D38*
X99475000Y-130725000D02*
X99500000Y-130700000D01*
D37*
X99637500Y-83900000D02*
X100800000Y-83900000D01*
D39*
X72750000Y-87250000D02*
X73300000Y-87800000D01*
D37*
X100837500Y-143837500D02*
X100850000Y-143850000D01*
X84525000Y-142750000D02*
X85500000Y-142750000D01*
D39*
X83775000Y-97500000D02*
X84700000Y-97500000D01*
D38*
X98500000Y-114775000D02*
X99375000Y-114775000D01*
D37*
X79175000Y-145025000D02*
X79150000Y-145000000D01*
%TO.N,Net-(C1-Pad1)*%
X71250000Y-72475000D02*
X71250000Y-70275000D01*
X70675000Y-91750000D02*
X70675000Y-91725000D01*
X70675000Y-91725000D02*
X71300000Y-91100000D01*
X71250000Y-70275000D02*
X71275000Y-70250000D01*
%TO.N,Net-(C2-Pad1)*%
X70675000Y-87300000D02*
X70725000Y-87250000D01*
X70675000Y-88750000D02*
X70675000Y-87300000D01*
%TO.N,Net-(C3-Pad1)*%
X72275000Y-98000000D02*
X72275000Y-96550000D01*
X72275000Y-96550000D02*
X72325000Y-96500000D01*
%TO.N,Net-(C5-Pad2)*%
X81675000Y-80425000D02*
X82950000Y-80425000D01*
D39*
X83775000Y-82700000D02*
X83825000Y-82750000D01*
D37*
X80850000Y-81250000D02*
X81675000Y-80425000D01*
D39*
X83775000Y-79650000D02*
X83825000Y-79600000D01*
D37*
X83775000Y-81250000D02*
X83775000Y-82700000D01*
X83775000Y-81250000D02*
X83775000Y-79650000D01*
X80000000Y-81250000D02*
X80850000Y-81250000D01*
X82950000Y-80425000D02*
X83775000Y-81250000D01*
%TO.N,Net-(C6-Pad2)*%
X73125000Y-86300000D02*
X71525000Y-86300000D01*
X67435000Y-113285000D02*
X67000000Y-112850000D01*
X68250000Y-83250000D02*
X68300000Y-83200000D01*
X70675000Y-85450000D02*
X70725000Y-85500000D01*
X68250000Y-84175000D02*
X68250000Y-83250000D01*
X67425000Y-140250000D02*
X67435000Y-140240000D01*
X74275000Y-85150000D02*
X73125000Y-86300000D01*
X70675000Y-84000000D02*
X70675000Y-85450000D01*
X70675000Y-84000000D02*
X68425000Y-84000000D01*
X67435000Y-140240000D02*
X67435000Y-113285000D01*
X68425000Y-84000000D02*
X68250000Y-84175000D01*
X71525000Y-86300000D02*
X70725000Y-85500000D01*
%TO.N,Net-(C7-Pad1)*%
X83775000Y-70250000D02*
X83775000Y-72450000D01*
X86000000Y-90600000D02*
X85350000Y-91250000D01*
X85350000Y-91250000D02*
X83825000Y-91250000D01*
X88100000Y-90200000D02*
X87700000Y-90600000D01*
X88100000Y-88100000D02*
X88100000Y-90200000D01*
X87500000Y-87500000D02*
X88100000Y-88100000D01*
X87700000Y-90600000D02*
X86000000Y-90600000D01*
X83775000Y-72450000D02*
X83750000Y-72475000D01*
D39*
%TO.N,Net-(C8-Pad1)*%
X83825000Y-94500000D02*
X85725000Y-94500000D01*
%TO.N,Net-(C9-Pad1)*%
X83825000Y-89500000D02*
X85725000Y-89500000D01*
D37*
%TO.N,Net-(C11-Pad2)*%
X82925000Y-99100000D02*
X83825000Y-100000000D01*
X81800000Y-99100000D02*
X82925000Y-99100000D01*
X80850000Y-100550000D02*
X81300000Y-100100000D01*
X83825000Y-100000000D02*
X85675000Y-100000000D01*
X83775000Y-101500000D02*
X83775000Y-100050000D01*
X81300000Y-99600000D02*
X81800000Y-99100000D01*
X81300000Y-100100000D02*
X81300000Y-99600000D01*
X80112500Y-100550000D02*
X80850000Y-100550000D01*
X83775000Y-100050000D02*
X83825000Y-100000000D01*
%TO.N,Net-(U5C--)*%
X107425000Y-79350000D02*
X106400000Y-79350000D01*
X105600000Y-79350000D02*
X107425000Y-79350000D01*
X69414949Y-80406040D02*
X69393960Y-80406040D01*
X97525000Y-84000000D02*
X98100000Y-84000000D01*
X101500000Y-84100000D02*
X101500000Y-82915685D01*
X103065685Y-81350000D02*
X103600000Y-81350000D01*
X97525000Y-84000000D02*
X97525000Y-85450000D01*
X98650000Y-84550000D02*
X99637500Y-84550000D01*
X69393960Y-80406040D02*
X66850000Y-82950000D01*
X66850000Y-82950000D02*
X66850000Y-99275000D01*
X98100000Y-84000000D02*
X98650000Y-84550000D01*
X101500000Y-82915685D02*
X103065685Y-81350000D01*
X97525000Y-85450000D02*
X97575000Y-85500000D01*
X106400000Y-79350000D02*
X106150000Y-79100000D01*
X101050000Y-84550000D02*
X101500000Y-84100000D01*
X99637500Y-84550000D02*
X101050000Y-84550000D01*
X66850000Y-99275000D02*
X68450000Y-100875000D01*
X103600000Y-81350000D02*
X105600000Y-79350000D01*
%TO.N,Net-(C12-Pad2)*%
X77750000Y-110000000D02*
X77750000Y-126450000D01*
X76800000Y-108000000D02*
X77200000Y-108400000D01*
X77750000Y-126450000D02*
X81225000Y-129925000D01*
X75400000Y-104600000D02*
X75400000Y-107400000D01*
X69075000Y-104500000D02*
X70675000Y-104500000D01*
X71525000Y-105350000D02*
X70675000Y-104500000D01*
X85300000Y-135650000D02*
X87825000Y-138175000D01*
X70675000Y-104500000D02*
X70675000Y-103050000D01*
X82300000Y-135650000D02*
X85300000Y-135650000D01*
X77200000Y-108400000D02*
X77200000Y-109450000D01*
X87825000Y-138175000D02*
X87825000Y-140500000D01*
X81225000Y-134575000D02*
X82300000Y-135650000D01*
X70675000Y-103050000D02*
X70725000Y-103000000D01*
X81225000Y-129925000D02*
X81225000Y-134575000D01*
X74387500Y-104450000D02*
X73487500Y-105350000D01*
X74387500Y-104450000D02*
X75250000Y-104450000D01*
X73487500Y-105350000D02*
X71525000Y-105350000D01*
X77200000Y-109450000D02*
X77750000Y-110000000D01*
X76000000Y-108000000D02*
X76800000Y-108000000D01*
X75400000Y-107400000D02*
X76000000Y-108000000D01*
X75250000Y-104450000D02*
X75400000Y-104600000D01*
%TO.N,Net-(C13-Pad1)*%
X96100000Y-71300000D02*
X96250000Y-71450000D01*
X95775000Y-70775000D02*
X96100000Y-71100000D01*
X95875000Y-91700000D02*
X95925000Y-91750000D01*
X94250000Y-91700000D02*
X95875000Y-91700000D01*
X96250000Y-71450000D02*
X96250000Y-72475000D01*
X96100000Y-71100000D02*
X96100000Y-71300000D01*
X95775000Y-70250000D02*
X95775000Y-70775000D01*
%TO.N,Net-(C14-Pad1)*%
X95925000Y-88750000D02*
X95925000Y-87300000D01*
X95925000Y-87300000D02*
X95975000Y-87250000D01*
%TO.N,Net-(C15-Pad1)*%
X97575000Y-97950000D02*
X97525000Y-98000000D01*
X97575000Y-96500000D02*
X97575000Y-97950000D01*
%TO.N,Net-(U8A-CVA)*%
X106350000Y-85200000D02*
X106800000Y-85650000D01*
X98795000Y-94405000D02*
X98450000Y-94750000D01*
X103400000Y-71200000D02*
X103400000Y-80500000D01*
X103200000Y-90450000D02*
X103692598Y-89957402D01*
X103700000Y-85200000D02*
X105362500Y-85200000D01*
X105362500Y-85200000D02*
X106350000Y-85200000D01*
X101345000Y-94405000D02*
X102900000Y-92850000D01*
X100025000Y-94405000D02*
X101345000Y-94405000D01*
X103200000Y-91533629D02*
X103200000Y-90450000D01*
X102900000Y-92850000D02*
X102900000Y-91833629D01*
X98750000Y-58725000D02*
X98750000Y-66550000D01*
X98450000Y-94750000D02*
X97575000Y-94750000D01*
X100025000Y-94405000D02*
X98795000Y-94405000D01*
X98750000Y-66550000D02*
X103400000Y-71200000D01*
X102900000Y-91833629D02*
X103200000Y-91533629D01*
X103692598Y-89957402D02*
X103692598Y-85232076D01*
X106800000Y-85650000D02*
X107475000Y-85650000D01*
%TO.N,Net-(C17-Pad2)*%
X109075000Y-81000000D02*
X109075000Y-82450000D01*
X106200000Y-81300000D02*
X106600000Y-80900000D01*
X108300000Y-80225000D02*
X109075000Y-81000000D01*
X106600000Y-80900000D02*
X106600000Y-80637352D01*
X107012352Y-80225000D02*
X108300000Y-80225000D01*
X109075000Y-82450000D02*
X109025000Y-82500000D01*
X106600000Y-80637352D02*
X107012352Y-80225000D01*
X105362500Y-81300000D02*
X106200000Y-81300000D01*
%TO.N,Net-(C18-Pad2)*%
X98537500Y-86300000D02*
X96725000Y-86300000D01*
X92500000Y-84150000D02*
X93475000Y-84150000D01*
X92300000Y-139700000D02*
X92300000Y-140725000D01*
X95975000Y-84000000D02*
X95975000Y-85450000D01*
X96725000Y-86300000D02*
X95925000Y-85500000D01*
X95975000Y-85450000D02*
X95925000Y-85500000D01*
X93475000Y-84150000D02*
X93500000Y-84175000D01*
X95975000Y-84000000D02*
X93675000Y-84000000D01*
X93675000Y-84000000D02*
X93500000Y-84175000D01*
X92300000Y-140725000D02*
X92425000Y-140850000D01*
X99637500Y-85200000D02*
X98537500Y-86300000D01*
%TO.N,Net-(C19-Pad1)*%
X108275000Y-70775000D02*
X108725000Y-71225000D01*
X109075000Y-91000000D02*
X109200000Y-91000000D01*
X108725000Y-71225000D02*
X108725000Y-72475000D01*
X111000000Y-92800000D02*
X112950000Y-92800000D01*
X111300000Y-75050000D02*
X111300000Y-86800000D01*
X108275000Y-70250000D02*
X108275000Y-70775000D01*
X108725000Y-72475000D02*
X111300000Y-75050000D01*
X109200000Y-91000000D02*
X111000000Y-92800000D01*
%TO.N,Net-(C20-Pad1)*%
X109075000Y-94500000D02*
X110725000Y-94500000D01*
%TO.N,Net-(C21-Pad1)*%
X110725000Y-89250000D02*
X109075000Y-89250000D01*
%TO.N,Net-(C23-Pad2)*%
X109075000Y-100000000D02*
X110925000Y-100000000D01*
X108275000Y-99200000D02*
X109075000Y-100000000D01*
X106600000Y-99500000D02*
X106900000Y-99200000D01*
X109075000Y-100000000D02*
X109075000Y-101450000D01*
X105362500Y-100550000D02*
X106350000Y-100550000D01*
X109075000Y-101450000D02*
X109025000Y-101500000D01*
X106600000Y-100300000D02*
X106600000Y-99500000D01*
X106350000Y-100550000D02*
X106600000Y-100300000D01*
X106900000Y-99200000D02*
X108275000Y-99200000D01*
%TO.N,Net-(C24-Pad2)*%
X112850000Y-108400000D02*
X113850000Y-109400000D01*
X98041701Y-105700000D02*
X98800000Y-106458299D01*
X104100000Y-105900000D02*
X104200000Y-105900000D01*
X103800000Y-106200000D02*
X104300000Y-105700000D01*
X99637500Y-104450000D02*
X98700000Y-104450000D01*
X113850000Y-131100000D02*
X113850000Y-109400000D01*
X102200000Y-107800000D02*
X103800000Y-106200000D01*
X98100000Y-105700000D02*
X97800000Y-105700000D01*
X96875000Y-105700000D02*
X95925000Y-104750000D01*
X106300000Y-106400000D02*
X106900000Y-106400000D01*
X97800000Y-105700000D02*
X98041701Y-105700000D01*
X98700000Y-104450000D02*
X98500000Y-104650000D01*
X106900000Y-106400000D02*
X108900000Y-108400000D01*
X112575000Y-132375000D02*
X113850000Y-131100000D01*
X112575000Y-140500000D02*
X112575000Y-132375000D01*
X94325000Y-104750000D02*
X95925000Y-104750000D01*
X98800000Y-106458299D02*
X98800000Y-107000000D01*
X103800000Y-106200000D02*
X104100000Y-105900000D01*
X98500000Y-105300000D02*
X98100000Y-105700000D01*
X98500000Y-104650000D02*
X98500000Y-105300000D01*
X99600000Y-107800000D02*
X102200000Y-107800000D01*
X95975000Y-103250000D02*
X95975000Y-104700000D01*
X108900000Y-108400000D02*
X112850000Y-108400000D01*
X98800000Y-107000000D02*
X99600000Y-107800000D01*
X104300000Y-105700000D02*
X105600000Y-105700000D01*
X97800000Y-105700000D02*
X96875000Y-105700000D01*
X95975000Y-104700000D02*
X95925000Y-104750000D01*
X105600000Y-105700000D02*
X106300000Y-106400000D01*
%TO.N,Net-(D1-K)*%
X66600000Y-110150000D02*
X66675000Y-110225000D01*
X66495000Y-109000000D02*
X66495000Y-109845000D01*
X66495000Y-107985000D02*
X67580000Y-106900000D01*
X66495000Y-109000000D02*
X66495000Y-107985000D01*
X66675000Y-110225000D02*
X66675000Y-111000000D01*
X66495000Y-109845000D02*
X66600000Y-109950000D01*
X66600000Y-109950000D02*
X66600000Y-110150000D01*
%TO.N,Net-(D1-A)*%
X67425000Y-76745000D02*
X67580000Y-76900000D01*
X72325000Y-142400000D02*
X72325000Y-141575000D01*
X72615000Y-139515000D02*
X72600000Y-139500000D01*
X68595000Y-109000000D02*
X67700000Y-109000000D01*
X72325000Y-141575000D02*
X72600000Y-141300000D01*
X72600000Y-141300000D02*
X72615000Y-141285000D01*
X67425000Y-74750000D02*
X67425000Y-76745000D01*
X72615000Y-141285000D02*
X72615000Y-139515000D01*
%TO.N,Net-(D2-AK)*%
X69075000Y-145625000D02*
X69900000Y-146450000D01*
X74637500Y-145675000D02*
X73775000Y-145675000D01*
X66650000Y-144000000D02*
X67700000Y-144000000D01*
X69075000Y-145375000D02*
X69075000Y-145500000D01*
X72800000Y-146450000D02*
X69900000Y-146450000D01*
X73150000Y-146300000D02*
X72950000Y-146300000D01*
X69075000Y-145500000D02*
X69075000Y-145625000D01*
X73775000Y-145675000D02*
X73150000Y-146300000D01*
X66235000Y-143585000D02*
X66650000Y-144000000D01*
X67700000Y-144000000D02*
X69075000Y-145375000D01*
X72950000Y-146300000D02*
X72800000Y-146450000D01*
X66235000Y-137250000D02*
X66235000Y-143585000D01*
%TO.N,Net-(D2-KA)*%
X72900000Y-138900000D02*
X69300000Y-138900000D01*
X73900000Y-141300000D02*
X73900000Y-139900000D01*
X74637500Y-147037500D02*
X74650000Y-147050000D01*
X69300000Y-138900000D02*
X68775000Y-138375000D01*
X68775000Y-138375000D02*
X68775000Y-137250000D01*
X73900000Y-139900000D02*
X72900000Y-138900000D01*
X74637500Y-146325000D02*
X74637500Y-147037500D01*
%TO.N,Net-(D3-K)*%
X80080000Y-107930000D02*
X80080000Y-106900000D01*
X80175000Y-109000000D02*
X80175000Y-108025000D01*
X78550000Y-109000000D02*
X80175000Y-109000000D01*
X80175000Y-108025000D02*
X80080000Y-107930000D01*
%TO.N,Net-(D3-A)*%
X79925000Y-74750000D02*
X79925000Y-76745000D01*
X85700000Y-146000000D02*
X84575000Y-146000000D01*
X76450000Y-109000000D02*
X75350000Y-109000000D01*
X79925000Y-76745000D02*
X80080000Y-76900000D01*
%TO.N,Net-(D4-AK)*%
X80362500Y-143075000D02*
X79225000Y-143075000D01*
X78925000Y-140250000D02*
X78925000Y-137440000D01*
X78925000Y-137440000D02*
X78735000Y-137250000D01*
X78850000Y-142700000D02*
X78925000Y-142625000D01*
X79225000Y-143075000D02*
X78850000Y-142700000D01*
X78925000Y-142625000D02*
X78925000Y-140250000D01*
%TO.N,Net-(D4-KA)*%
X81275000Y-138025000D02*
X81275000Y-137250000D01*
X80362500Y-142425000D02*
X79750000Y-141812500D01*
X79750000Y-141812500D02*
X79750000Y-139550000D01*
X79750000Y-139550000D02*
X81275000Y-138025000D01*
%TO.N,Net-(D5-A)*%
X90975000Y-92400000D02*
X90975000Y-100625000D01*
X97300000Y-141650000D02*
X97300000Y-142525000D01*
X91000000Y-92400000D02*
X90975000Y-92400000D01*
X89000000Y-102600000D02*
X89000000Y-108434314D01*
X91600000Y-91800000D02*
X91000000Y-92400000D01*
X92425000Y-76745000D02*
X92580000Y-76900000D01*
X88700000Y-109700000D02*
X88700000Y-109000000D01*
X92580000Y-76900000D02*
X91600000Y-77880000D01*
X97300000Y-142525000D02*
X97325000Y-142550000D01*
X92425000Y-74750000D02*
X92425000Y-76745000D01*
X89000000Y-108434314D02*
X88700000Y-108734314D01*
X90975000Y-100625000D02*
X89000000Y-102600000D01*
X88700000Y-108734314D02*
X88700000Y-109000000D01*
X91600000Y-77880000D02*
X91600000Y-91800000D01*
%TO.N,Net-(D5-K)*%
X92675000Y-106995000D02*
X92580000Y-106900000D01*
X92675000Y-109000000D02*
X92675000Y-106995000D01*
X90800000Y-109000000D02*
X92675000Y-109000000D01*
%TO.N,Net-(D6-AK)*%
X94075000Y-144825000D02*
X94075000Y-145750000D01*
X98050000Y-146650000D02*
X98912501Y-145787500D01*
X91750000Y-144200000D02*
X93450000Y-144200000D01*
X94950000Y-146650000D02*
X98050000Y-146650000D01*
X94075000Y-145775000D02*
X94950000Y-146650000D01*
X91010000Y-137250000D02*
X91010000Y-143460000D01*
X98912501Y-145787500D02*
X99650000Y-145787500D01*
X93450000Y-144200000D02*
X94075000Y-144825000D01*
X94075000Y-145750000D02*
X94075000Y-145775000D01*
X91010000Y-143460000D02*
X91750000Y-144200000D01*
%TO.N,Net-(D6-KA)*%
X100637500Y-146437500D02*
X99650000Y-146437500D01*
X93550000Y-137250000D02*
X93550000Y-138550000D01*
X102100000Y-145250000D02*
X100900000Y-146450000D01*
X93550000Y-138550000D02*
X93850000Y-138850000D01*
X100900000Y-146450000D02*
X100650000Y-146450000D01*
X93850000Y-138850000D02*
X97650000Y-138850000D01*
X97650000Y-138850000D02*
X102100000Y-143300000D01*
X102100000Y-143300000D02*
X102100000Y-145250000D01*
X100650000Y-146450000D02*
X100637500Y-146437500D01*
%TO.N,Net-(D7-K)*%
X104950000Y-107030000D02*
X105080000Y-106900000D01*
X103325000Y-109000000D02*
X104950000Y-109000000D01*
X104950000Y-109000000D02*
X104950000Y-107030000D01*
%TO.N,Net-(D7-A)*%
X108100000Y-109000000D02*
X107050000Y-109000000D01*
X104925000Y-76745000D02*
X105080000Y-76900000D01*
X110750000Y-146000000D02*
X112500000Y-144250000D01*
X104925000Y-74750000D02*
X104925000Y-76745000D01*
X109325000Y-146000000D02*
X110750000Y-146000000D01*
X112500000Y-144250000D02*
X112500000Y-143800000D01*
%TO.N,Net-(D8-AK)*%
X103925000Y-140250000D02*
X103925000Y-139225000D01*
X105375000Y-143187500D02*
X104487500Y-143187500D01*
X104487500Y-143187500D02*
X103925000Y-142625000D01*
X103510000Y-138810000D02*
X103510000Y-137250000D01*
X103925000Y-139225000D02*
X103510000Y-138810000D01*
X103925000Y-142625000D02*
X103925000Y-140250000D01*
%TO.N,Net-(D8-KA)*%
X106050000Y-138750000D02*
X106050000Y-137250000D01*
X107100000Y-141850000D02*
X107100000Y-139800000D01*
X106412500Y-142537500D02*
X107100000Y-141850000D01*
X105375000Y-142537500D02*
X106412500Y-142537500D01*
X107100000Y-139800000D02*
X106050000Y-138750000D01*
%TO.N,Net-(J1-PadT)*%
X71350000Y-125750000D02*
X71250000Y-125850000D01*
X73350000Y-125750000D02*
X71350000Y-125750000D01*
%TO.N,Net-(J2-PadT)*%
X73425000Y-111000000D02*
X72800000Y-111000000D01*
X72800000Y-111000000D02*
X72450000Y-111350000D01*
X72450000Y-111350000D02*
X71250000Y-111350000D01*
%TO.N,Net-(J2-PadTN)*%
X73425000Y-119750000D02*
X71350000Y-119750000D01*
X71350000Y-119750000D02*
X71250000Y-119650000D01*
%TO.N,Net-(J3-PadT)*%
X71150000Y-140250000D02*
X71250000Y-140350000D01*
X69075000Y-140250000D02*
X71150000Y-140250000D01*
%TO.N,Net-(J3-PadTN)*%
X71900000Y-78350000D02*
X67550000Y-78350000D01*
X72325000Y-79450000D02*
X72325000Y-78775000D01*
X72325000Y-78775000D02*
X71900000Y-78350000D01*
X67550000Y-78350000D02*
X66300000Y-79600000D01*
%TO.N,Net-(J4-PadT)*%
X83900000Y-126000000D02*
X83750000Y-125850000D01*
X86675000Y-126000000D02*
X83900000Y-126000000D01*
%TO.N,Net-(J5-PadT)*%
X86425000Y-111250000D02*
X83850000Y-111250000D01*
X83850000Y-111250000D02*
X83750000Y-111350000D01*
%TO.N,Net-(J5-PadTN)*%
X83850000Y-119750000D02*
X83750000Y-119650000D01*
X86425000Y-119750000D02*
X83850000Y-119750000D01*
%TO.N,Net-(J6-PadT)*%
X83900000Y-140500000D02*
X83750000Y-140350000D01*
X86175000Y-140500000D02*
X83900000Y-140500000D01*
%TO.N,Net-(J6-PadTN)*%
X85300000Y-148250000D02*
X86175000Y-148250000D01*
X83750000Y-148650000D02*
X84900000Y-148650000D01*
X84900000Y-148650000D02*
X85300000Y-148250000D01*
%TO.N,Net-(J7-PadT)*%
X93075000Y-126000000D02*
X96100000Y-126000000D01*
X96100000Y-126000000D02*
X96250000Y-125850000D01*
%TO.N,Net-(J8-PadT)*%
X96425000Y-111175000D02*
X96250000Y-111350000D01*
X96425000Y-109000000D02*
X96425000Y-111175000D01*
%TO.N,Net-(J8-PadTN)*%
X96150000Y-119750000D02*
X96250000Y-119650000D01*
X93325000Y-119750000D02*
X96150000Y-119750000D01*
%TO.N,Net-(J9-PadT)*%
X95300000Y-140350000D02*
X96250000Y-140350000D01*
X94800000Y-140850000D02*
X95300000Y-140350000D01*
X94075000Y-140850000D02*
X94800000Y-140850000D01*
%TO.N,Net-(J10-PadT)*%
X111175000Y-126000000D02*
X108900000Y-126000000D01*
X108900000Y-126000000D02*
X108750000Y-125850000D01*
%TO.N,Net-(J11-PadT)*%
X111175000Y-111000000D02*
X109100000Y-111000000D01*
X109100000Y-111000000D02*
X108750000Y-111350000D01*
%TO.N,Net-(J11-PadTN)*%
X111175000Y-119750000D02*
X108850000Y-119750000D01*
X108850000Y-119750000D02*
X108750000Y-119650000D01*
%TO.N,Net-(J12-PadT)*%
X108900000Y-140500000D02*
X108750000Y-140350000D01*
X110925000Y-140500000D02*
X108900000Y-140500000D01*
%TO.N,Net-(U5D--)*%
X95925000Y-80750000D02*
X96775000Y-81600000D01*
X98450000Y-81950000D02*
X99637500Y-81950000D01*
X95925000Y-80750000D02*
X95925000Y-79250000D01*
X96775000Y-81600000D02*
X98100000Y-81600000D01*
X98100000Y-81600000D02*
X98450000Y-81950000D01*
%TO.N,/CH1/OUT*%
X73300000Y-81250000D02*
X72950000Y-80900000D01*
X74275000Y-81250000D02*
X74962468Y-81250000D01*
X74700000Y-106250000D02*
X74700000Y-107100000D01*
X74962468Y-81250000D02*
X75512499Y-81800031D01*
X74275000Y-81250000D02*
X73300000Y-81250000D01*
X72950000Y-80900000D02*
X72325000Y-80900000D01*
X74700000Y-107100000D02*
X74800000Y-107200000D01*
D38*
%TO.N,+10V_REF*%
X84500000Y-129154546D02*
X84459544Y-129114090D01*
D37*
X91675000Y-119750000D02*
X91675000Y-118725000D01*
D38*
X86387500Y-129212500D02*
X86387500Y-130475000D01*
D37*
X91675000Y-118725000D02*
X91700000Y-118700000D01*
D38*
X84500000Y-130175000D02*
X84500000Y-129154546D01*
D37*
X112250000Y-118100000D02*
X112850000Y-118700000D01*
D38*
X86725000Y-128875000D02*
X86387500Y-129212500D01*
D37*
X94200000Y-118700000D02*
X94615000Y-118285000D01*
X88075000Y-119750000D02*
X88075000Y-118725000D01*
X97572182Y-118900000D02*
X107100000Y-118900000D01*
D38*
X86725000Y-128250000D02*
X86725000Y-128875000D01*
X85575000Y-130175000D02*
X84500000Y-130175000D01*
D39*
X112850000Y-118700000D02*
X112850000Y-119725000D01*
D37*
X94615000Y-118285000D02*
X96957182Y-118285000D01*
X88075000Y-118725000D02*
X88100000Y-118700000D01*
X96957182Y-118285000D02*
X97572182Y-118900000D01*
X107900000Y-118100000D02*
X112250000Y-118100000D01*
X75075000Y-118725000D02*
X75100000Y-118700000D01*
X91700000Y-118700000D02*
X94200000Y-118700000D01*
X107100000Y-118900000D02*
X107900000Y-118100000D01*
D38*
X86387500Y-130475000D02*
X85875000Y-130475000D01*
D37*
X75075000Y-119750000D02*
X75075000Y-118725000D01*
D39*
X112850000Y-119725000D02*
X112825000Y-119750000D01*
D38*
X85875000Y-130475000D02*
X85575000Y-130175000D01*
%TO.N,-2V5_REF*%
X95250000Y-130175000D02*
X94425000Y-130175000D01*
D37*
X109075000Y-96000000D02*
X110000000Y-96000000D01*
X109325000Y-144500000D02*
X110300000Y-144500000D01*
X95925000Y-93250000D02*
X95050000Y-93250000D01*
X110300000Y-144500000D02*
X110350000Y-144450000D01*
X92425000Y-143525000D02*
X92450000Y-143550000D01*
D39*
X84650000Y-92750000D02*
X84700000Y-92800000D01*
D38*
X93287500Y-129112500D02*
X93287500Y-130475000D01*
X93025000Y-128250000D02*
X93025000Y-128825000D01*
D37*
X95050000Y-90250000D02*
X95000000Y-90300000D01*
D38*
X94125000Y-130475000D02*
X93287500Y-130475000D01*
X93187059Y-128087941D02*
X93025000Y-128250000D01*
X94425000Y-130175000D02*
X94125000Y-130475000D01*
X94100000Y-128087941D02*
X93187059Y-128087941D01*
D37*
X67425000Y-143325000D02*
X67450000Y-143350000D01*
X109950000Y-92750000D02*
X110000000Y-92700000D01*
X109075000Y-92750000D02*
X109950000Y-92750000D01*
X92425000Y-142550000D02*
X92425000Y-143525000D01*
D38*
X88850000Y-144500000D02*
X87825000Y-144500000D01*
D37*
X70675000Y-90250000D02*
X69850000Y-90250000D01*
X95925000Y-90250000D02*
X95050000Y-90250000D01*
X67425000Y-142500000D02*
X67425000Y-143325000D01*
X95050000Y-93250000D02*
X95000000Y-93300000D01*
D38*
X93300000Y-129100000D02*
X93287500Y-129112500D01*
X93025000Y-128825000D02*
X93300000Y-129100000D01*
D39*
X83825000Y-96000000D02*
X84700000Y-96000000D01*
X83825000Y-92750000D02*
X84650000Y-92750000D01*
D37*
X70675000Y-93250000D02*
X69850000Y-93250000D01*
%TO.N,Net-(U6B--)*%
X107475000Y-104500000D02*
X107300000Y-104500000D01*
X107425000Y-91800000D02*
X107425000Y-91000000D01*
X104975000Y-93135000D02*
X106265000Y-93135000D01*
X107300000Y-104500000D02*
X106600000Y-103800000D01*
X106600000Y-103800000D02*
X105362500Y-103800000D01*
X106650000Y-92750000D02*
X107425000Y-92750000D01*
X106265000Y-93135000D02*
X106650000Y-92750000D01*
X107425000Y-92750000D02*
X107425000Y-91800000D01*
%TO.N,Net-(U3D--)*%
X107675000Y-146000000D02*
X107675000Y-144500000D01*
X107675000Y-146000000D02*
X106900000Y-146000000D01*
X112325000Y-91000000D02*
X112325000Y-91925000D01*
X112325000Y-91925000D02*
X112350000Y-91950000D01*
X106900000Y-146000000D02*
X106687500Y-145787500D01*
X106687500Y-145787500D02*
X105375000Y-145787500D01*
%TO.N,/CH2/OUT*%
X71475000Y-98900000D02*
X70250000Y-98900000D01*
X73200000Y-100200000D02*
X73550000Y-100550000D01*
X72325000Y-99750000D02*
X72950000Y-99750000D01*
X70250000Y-98900000D02*
X69925000Y-99225000D01*
X73550000Y-100550000D02*
X74387500Y-100550000D01*
X73200000Y-100000000D02*
X73200000Y-100200000D01*
X72950000Y-99750000D02*
X73200000Y-100000000D01*
X69925000Y-99225000D02*
X68450000Y-99225000D01*
X72325000Y-99750000D02*
X71475000Y-98900000D01*
%TO.N,Net-(U8B-INB)*%
X97575000Y-90250000D02*
X97575000Y-88750000D01*
X98925000Y-89325000D02*
X98350000Y-88750000D01*
X100025000Y-89325000D02*
X98925000Y-89325000D01*
X98350000Y-88750000D02*
X97575000Y-88750000D01*
%TO.N,Net-(U8A-INA)*%
X90800000Y-111034314D02*
X90800000Y-124450000D01*
X93400000Y-97950000D02*
X93400000Y-102700000D01*
X93400000Y-102700000D02*
X90200000Y-105900000D01*
X96750000Y-95675000D02*
X95925000Y-96500000D01*
X90800000Y-124450000D02*
X91425000Y-125075000D01*
X95925000Y-96500000D02*
X94850000Y-96500000D01*
X90200000Y-105900000D02*
X90200000Y-110434314D01*
X94850000Y-96500000D02*
X93400000Y-97950000D01*
X100025000Y-95675000D02*
X96750000Y-95675000D01*
X91425000Y-125075000D02*
X91425000Y-126000000D01*
X90200000Y-110434314D02*
X90800000Y-111034314D01*
%TO.N,/CH3/OUT*%
X100700000Y-81100000D02*
X100700000Y-80500000D01*
X99637500Y-81300000D02*
X98700000Y-81300000D01*
X101500000Y-107250000D02*
X100525000Y-107250000D01*
X98150000Y-80750000D02*
X97575000Y-80750000D01*
X98700000Y-81300000D02*
X98150000Y-80750000D01*
X100500000Y-81300000D02*
X100700000Y-81100000D01*
X100525000Y-107250000D02*
X99525000Y-106250000D01*
X99637500Y-81300000D02*
X100500000Y-81300000D01*
%TO.N,Net-(U8B-CVB)*%
X100025000Y-90595000D02*
X101492180Y-90595000D01*
X101492180Y-90595000D02*
X101493590Y-90593590D01*
X102050000Y-71300000D02*
X102050000Y-80500000D01*
X96250000Y-58725000D02*
X96250000Y-65500000D01*
X96250000Y-65500000D02*
X102050000Y-71300000D01*
%TO.N,Net-(U2B--)*%
X76350000Y-82950000D02*
X76200000Y-82800000D01*
X81050000Y-84500000D02*
X81600000Y-85050000D01*
X80000000Y-84500000D02*
X81050000Y-84500000D01*
X72440000Y-91865000D02*
X72325000Y-91750000D01*
X77700000Y-84500000D02*
X80000000Y-84500000D01*
X72325000Y-93250000D02*
X72325000Y-91750000D01*
X76350000Y-91550000D02*
X76035000Y-91865000D01*
X82925000Y-85050000D02*
X83775000Y-85900000D01*
X74775000Y-91865000D02*
X72440000Y-91865000D01*
X76200000Y-80520000D02*
X72580000Y-76900000D01*
X76350000Y-85000000D02*
X76350000Y-82950000D01*
X81600000Y-85050000D02*
X82925000Y-85050000D01*
X76200000Y-82800000D02*
X76200000Y-80520000D01*
X76350000Y-85000000D02*
X76350000Y-91550000D01*
X76035000Y-91865000D02*
X74775000Y-91865000D01*
%TO.N,Net-(U7A-CVA)*%
X73750000Y-66650000D02*
X78450000Y-71350000D01*
X77800000Y-85900000D02*
X78550000Y-85150000D01*
X80000000Y-85150000D02*
X80950000Y-85150000D01*
X77550000Y-90550000D02*
X77800000Y-90300000D01*
X74775000Y-94405000D02*
X73645000Y-94405000D01*
X77550000Y-93400000D02*
X77550000Y-90550000D01*
X73645000Y-94405000D02*
X73300000Y-94750000D01*
X73750000Y-58725000D02*
X73750000Y-66650000D01*
X73300000Y-94750000D02*
X72325000Y-94750000D01*
X74775000Y-94405000D02*
X76545000Y-94405000D01*
X81700000Y-85900000D02*
X82225000Y-85900000D01*
X78550000Y-85150000D02*
X80000000Y-85150000D01*
X77800000Y-90300000D02*
X77800000Y-85900000D01*
X78450000Y-80250000D02*
X78600000Y-80400000D01*
X76545000Y-94405000D02*
X77550000Y-93400000D01*
X78450000Y-71350000D02*
X78450000Y-80250000D01*
X80950000Y-85150000D02*
X81700000Y-85900000D01*
%TO.N,Net-(U2A--)*%
X76265000Y-93135000D02*
X77100000Y-92300000D01*
X81325000Y-81900000D02*
X82175000Y-82750000D01*
D39*
X82225000Y-82700000D02*
X82175000Y-82750000D01*
D37*
X77100000Y-82875000D02*
X78075000Y-81900000D01*
X80000000Y-81900000D02*
X81325000Y-81900000D01*
X78075000Y-81900000D02*
X80000000Y-81900000D01*
X77100000Y-92300000D02*
X77100000Y-82875000D01*
D39*
X82225000Y-81250000D02*
X82225000Y-82700000D01*
D37*
X74775000Y-93135000D02*
X76265000Y-93135000D01*
%TO.N,Net-(U2C--)*%
X80248529Y-79600000D02*
X78848529Y-81000000D01*
X75300000Y-84500000D02*
X75600000Y-84800000D01*
X78800000Y-81000000D02*
X78000000Y-81000000D01*
X78000000Y-81000000D02*
X76800000Y-82200000D01*
X74275000Y-84500000D02*
X75300000Y-84500000D01*
X74275000Y-84500000D02*
X73275000Y-84500000D01*
X78848529Y-81000000D02*
X78800000Y-81000000D01*
X73275000Y-84500000D02*
X72275000Y-85500000D01*
X72325000Y-85450000D02*
X72275000Y-85500000D01*
X72325000Y-84000000D02*
X72325000Y-85450000D01*
X82175000Y-79600000D02*
X80248529Y-79600000D01*
%TO.N,Net-(U7C-CVC)*%
X80750000Y-104450000D02*
X81600000Y-105300000D01*
X80112500Y-104450000D02*
X78600000Y-104450000D01*
X86800000Y-145400000D02*
X87000000Y-145200000D01*
X80112500Y-104450000D02*
X80750000Y-104450000D01*
X82975000Y-105300000D02*
X82975000Y-105425000D01*
X78505000Y-90595000D02*
X79725000Y-90595000D01*
X78000000Y-91100000D02*
X78505000Y-90595000D01*
X78000000Y-93750000D02*
X78000000Y-91100000D01*
X87000000Y-145200000D02*
X87000000Y-143600000D01*
X84575000Y-144575000D02*
X85400000Y-145400000D01*
X81600000Y-105300000D02*
X82975000Y-105300000D01*
X84575000Y-144500000D02*
X84575000Y-144575000D01*
X86250000Y-66500000D02*
X86250000Y-58725000D01*
X90900000Y-71150000D02*
X86250000Y-66500000D01*
X85400000Y-145400000D02*
X86800000Y-145400000D01*
X82975000Y-105425000D02*
X83000000Y-105450000D01*
X90900000Y-91300000D02*
X90900000Y-71150000D01*
X82975000Y-105300000D02*
X83775000Y-104500000D01*
X77400000Y-94350000D02*
X78000000Y-93750000D01*
X78600000Y-104450000D02*
X77400000Y-103250000D01*
X77400000Y-103250000D02*
X77400000Y-94350000D01*
X81005000Y-90595000D02*
X79725000Y-90595000D01*
X83000000Y-105450000D02*
X83000000Y-106600000D01*
D39*
%TO.N,Net-(U4B--)*%
X81585000Y-92750000D02*
X81200000Y-93135000D01*
X79725000Y-93135000D02*
X81200000Y-93135000D01*
D37*
X80112500Y-103800000D02*
X81525000Y-103800000D01*
X81525000Y-103800000D02*
X82225000Y-104500000D01*
X78000000Y-103000000D02*
X78000000Y-101200000D01*
X88650000Y-91950000D02*
X88650000Y-80470000D01*
X78800000Y-103800000D02*
X78000000Y-103000000D01*
X88650000Y-80470000D02*
X85080000Y-76900000D01*
X88600000Y-92000000D02*
X88650000Y-91950000D01*
X80112500Y-103800000D02*
X78800000Y-103800000D01*
D39*
X82175000Y-92750000D02*
X82175000Y-91250000D01*
X82175000Y-92750000D02*
X81585000Y-92750000D01*
D37*
%TO.N,Net-(U4A--)*%
X82175000Y-100000000D02*
X82175000Y-101450000D01*
X81300000Y-101500000D02*
X82225000Y-101500000D01*
X78000000Y-94450000D02*
X78000000Y-100300000D01*
X79725000Y-91865000D02*
X78635000Y-91865000D01*
X78000000Y-100300000D02*
X78900000Y-101200000D01*
X78635000Y-91865000D02*
X78450000Y-92050000D01*
X78450000Y-94000000D02*
X78000000Y-94450000D01*
X80112500Y-101200000D02*
X81000000Y-101200000D01*
X78450000Y-92050000D02*
X78450000Y-94000000D01*
X82175000Y-101450000D02*
X82225000Y-101500000D01*
X78900000Y-101200000D02*
X80112500Y-101200000D01*
X81000000Y-101200000D02*
X81300000Y-101500000D01*
%TO.N,Net-(U4C--)*%
X83800000Y-105900000D02*
X83800000Y-106000000D01*
X85450000Y-102000000D02*
X85450000Y-104250000D01*
X76350735Y-107150735D02*
X76350735Y-106250735D01*
X76350000Y-104550000D02*
X76350000Y-106250000D01*
X73025000Y-103800000D02*
X72325000Y-104500000D01*
X76350735Y-106250735D02*
X76350000Y-106250000D01*
X75600000Y-103800000D02*
X76350000Y-104550000D01*
X74387500Y-103800000D02*
X73025000Y-103800000D01*
X85450000Y-102000000D02*
X87325000Y-100125000D01*
X72275000Y-104450000D02*
X72325000Y-104500000D01*
X87325000Y-100125000D02*
X87325000Y-100000000D01*
X74387500Y-103800000D02*
X75600000Y-103800000D01*
X83800000Y-105900000D02*
X85450000Y-104250000D01*
X72275000Y-103000000D02*
X72275000Y-104450000D01*
%TO.N,Net-(U5B--)*%
X106600000Y-84550000D02*
X106900000Y-84850000D01*
X103850000Y-84550000D02*
X105362500Y-84550000D01*
X106900000Y-84850000D02*
X108225000Y-84850000D01*
X97575000Y-93250000D02*
X97575000Y-91750000D01*
X97690000Y-91865000D02*
X97575000Y-91750000D01*
X100025000Y-91865000D02*
X97690000Y-91865000D01*
X101900000Y-84800000D02*
X102200000Y-85100000D01*
X97600000Y-76900000D02*
X99500000Y-75000000D01*
X102200000Y-91100000D02*
X101435000Y-91865000D01*
X97580000Y-76900000D02*
X97600000Y-76900000D01*
X101435000Y-91865000D02*
X100025000Y-91865000D01*
X105362500Y-84550000D02*
X106600000Y-84550000D01*
X99500000Y-75000000D02*
X101300000Y-75000000D01*
X102200000Y-85100000D02*
X102200000Y-91100000D01*
X108225000Y-84850000D02*
X109025000Y-85650000D01*
D39*
%TO.N,Net-(U5A--)*%
X107475000Y-81050000D02*
X107425000Y-81000000D01*
D37*
X107475000Y-82500000D02*
X107475000Y-81050000D01*
X103950000Y-81950000D02*
X105362500Y-81950000D01*
X106925000Y-81950000D02*
X107475000Y-82500000D01*
X102800000Y-83100000D02*
X103950000Y-81950000D01*
X100025000Y-93135000D02*
X100999999Y-93135000D01*
X102800000Y-91334999D02*
X102800000Y-83100000D01*
X105362500Y-81950000D02*
X106925000Y-81950000D01*
X100999999Y-93135000D02*
X102800000Y-91334999D01*
%TO.N,Net-(U8C-CVC)*%
X106500000Y-90200000D02*
X109875000Y-90200000D01*
X102500000Y-93815686D02*
X103300000Y-93015686D01*
X103250000Y-104450000D02*
X102500000Y-103700000D01*
X108225000Y-105300000D02*
X109025000Y-104500000D01*
X104975000Y-90595000D02*
X106105000Y-90595000D01*
X102500000Y-103700000D02*
X102500000Y-93815686D01*
X111800000Y-102175000D02*
X109475000Y-104500000D01*
X107000000Y-105300000D02*
X108225000Y-105300000D01*
X111225000Y-58725000D02*
X111225000Y-67625000D01*
X103955000Y-90595000D02*
X104975000Y-90595000D01*
X114400000Y-70800000D02*
X114400000Y-95200000D01*
X105362500Y-104450000D02*
X103250000Y-104450000D01*
X103300000Y-93015686D02*
X103300000Y-91999315D01*
X106150000Y-104450000D02*
X107000000Y-105300000D01*
X114400000Y-95200000D02*
X111800000Y-97800000D01*
X103600000Y-90950000D02*
X103955000Y-90595000D01*
X103600000Y-91699315D02*
X103600000Y-90950000D01*
X111800000Y-97800000D02*
X111800000Y-102175000D01*
X109475000Y-104500000D02*
X109025000Y-104500000D01*
X103300000Y-91999315D02*
X103600000Y-91699315D01*
X106105000Y-90595000D02*
X106500000Y-90200000D01*
X111225000Y-67625000D02*
X114400000Y-70800000D01*
X105362500Y-104450000D02*
X106150000Y-104450000D01*
X109875000Y-90200000D02*
X110675000Y-91000000D01*
%TO.N,Net-(U6A--)*%
X103000000Y-93950000D02*
X103700000Y-93250000D01*
X104000001Y-91865000D02*
X104975000Y-91865000D01*
X107425000Y-101450000D02*
X107475000Y-101500000D01*
X105362500Y-101200000D02*
X106300000Y-101200000D01*
X103700000Y-93250000D02*
X103700000Y-92165001D01*
X103700000Y-92165001D02*
X104000001Y-91865000D01*
X106300000Y-101200000D02*
X106600000Y-101500000D01*
X105362500Y-101200000D02*
X103750000Y-101200000D01*
X103750000Y-101200000D02*
X103000000Y-100450000D01*
X107425000Y-100000000D02*
X107425000Y-101450000D01*
X106600000Y-101500000D02*
X107475000Y-101500000D01*
X103000000Y-100450000D02*
X103000000Y-93950000D01*
%TO.N,Net-(U6C--)*%
X103800000Y-105100000D02*
X105950000Y-105100000D01*
X97525000Y-104700000D02*
X97575000Y-104750000D01*
X101175000Y-106250000D02*
X102650000Y-106250000D01*
X112575000Y-102325000D02*
X112575000Y-100000000D01*
X105950000Y-105100000D02*
X106750000Y-105900000D01*
X109000000Y-105900000D02*
X112575000Y-102325000D01*
X99637500Y-103800000D02*
X98600000Y-103800000D01*
X102650000Y-106250000D02*
X103800000Y-105100000D01*
X99637500Y-103800000D02*
X100800000Y-103800000D01*
X101150000Y-104350000D02*
X101175000Y-104375000D01*
X101150000Y-104150000D02*
X101150000Y-104350000D01*
X100800000Y-103800000D02*
X101150000Y-104150000D01*
X98050000Y-103250000D02*
X97525000Y-103250000D01*
X106750000Y-105900000D02*
X109000000Y-105900000D01*
X101175000Y-104375000D02*
X101175000Y-106250000D01*
X98600000Y-103800000D02*
X98050000Y-103250000D01*
X97525000Y-103250000D02*
X97525000Y-104700000D01*
%TO.N,+12V*%
X73000000Y-144000000D02*
X73375000Y-144375000D01*
D39*
X107500000Y-103000000D02*
X108200000Y-102300000D01*
X106145000Y-96945000D02*
X106700000Y-97500000D01*
D37*
X99650000Y-144487500D02*
X98437500Y-144487500D01*
X101075000Y-97925000D02*
X101100000Y-97900000D01*
D39*
X106900000Y-84000000D02*
X107475000Y-84000000D01*
X107475000Y-97500000D02*
X107475000Y-98375000D01*
X82250000Y-84250000D02*
X83000000Y-83500000D01*
X81175000Y-83200000D02*
X82225000Y-84250000D01*
X106700000Y-103000000D02*
X107475000Y-103000000D01*
X75825000Y-98750000D02*
X75825000Y-97925000D01*
X82300000Y-103000000D02*
X83000000Y-102300000D01*
X82225000Y-98375000D02*
X82200000Y-98400000D01*
D37*
X101075000Y-98750000D02*
X101075000Y-97925000D01*
D39*
X81500000Y-103000000D02*
X82225000Y-103000000D01*
D38*
X84500000Y-131825000D02*
X85475000Y-131825000D01*
D39*
X105362500Y-102500000D02*
X106200000Y-102500000D01*
X75825000Y-97925000D02*
X75800000Y-97900000D01*
X107475000Y-84000000D02*
X107500000Y-84000000D01*
X82225000Y-84250000D02*
X82250000Y-84250000D01*
X107500000Y-84000000D02*
X108200000Y-83300000D01*
D37*
X98200000Y-144250000D02*
X97275000Y-144250000D01*
D39*
X79725000Y-96945000D02*
X80945000Y-96945000D01*
D37*
X74637500Y-144375000D02*
X73375000Y-144375000D01*
X98437500Y-144487500D02*
X98200000Y-144250000D01*
D39*
X82225000Y-97500000D02*
X82225000Y-98375000D01*
X107475000Y-103000000D02*
X107500000Y-103000000D01*
D37*
X72275000Y-144000000D02*
X73000000Y-144000000D01*
D39*
X107475000Y-98375000D02*
X107500000Y-98400000D01*
X82225000Y-103000000D02*
X82300000Y-103000000D01*
D38*
X105250000Y-111250000D02*
X106250000Y-112250000D01*
X106250000Y-112250000D02*
X106250000Y-113225000D01*
D39*
X106150000Y-83250000D02*
X106900000Y-84000000D01*
D38*
X85475000Y-131825000D02*
X85500000Y-131800000D01*
D39*
X105362500Y-83250000D02*
X106150000Y-83250000D01*
X80945000Y-96945000D02*
X81500000Y-97500000D01*
X80000000Y-83200000D02*
X81175000Y-83200000D01*
D38*
X98500000Y-112100000D02*
X99350000Y-111250000D01*
D39*
X106200000Y-102500000D02*
X106700000Y-103000000D01*
D38*
X99350000Y-111250000D02*
X105250000Y-111250000D01*
D39*
X106700000Y-97500000D02*
X107475000Y-97500000D01*
X104975000Y-96945000D02*
X106145000Y-96945000D01*
X81500000Y-97500000D02*
X82225000Y-97500000D01*
X80112500Y-102500000D02*
X81000000Y-102500000D01*
D38*
X98500000Y-113225000D02*
X98500000Y-112100000D01*
D39*
X81000000Y-102500000D02*
X81500000Y-103000000D01*
D37*
%TO.N,-12V*%
X107725000Y-143000000D02*
X107725000Y-142075000D01*
D39*
X71525000Y-83250000D02*
X72275000Y-82500000D01*
X99637500Y-102500000D02*
X98800000Y-102500000D01*
D38*
X100125000Y-132275000D02*
X98500000Y-132275000D01*
D39*
X97900000Y-82500000D02*
X97525000Y-82500000D01*
X97525000Y-101750000D02*
X97525000Y-100825000D01*
D38*
X104844887Y-132705113D02*
X100555113Y-132705113D01*
D39*
X72200000Y-101500000D02*
X71500000Y-102200000D01*
X107475000Y-87750000D02*
X107475000Y-86825000D01*
D38*
X106500000Y-132275000D02*
X105275000Y-132275000D01*
D39*
X106950000Y-87750000D02*
X107475000Y-87750000D01*
X82225000Y-87150000D02*
X82225000Y-88000000D01*
D38*
X96975000Y-132275000D02*
X98500000Y-132275000D01*
D39*
X104975000Y-88055000D02*
X106345000Y-88055000D01*
D37*
X107725000Y-142075000D02*
X107750000Y-142050000D01*
D38*
X100555113Y-132705113D02*
X100125000Y-132275000D01*
D39*
X98050000Y-101750000D02*
X97525000Y-101750000D01*
X82170000Y-88055000D02*
X82225000Y-88000000D01*
D38*
X96525000Y-131825000D02*
X96975000Y-132275000D01*
D39*
X98650000Y-83250000D02*
X97900000Y-82500000D01*
X97525000Y-100825000D02*
X97500000Y-100800000D01*
D37*
X106237500Y-144487500D02*
X107725000Y-143000000D01*
D39*
X106345000Y-88055000D02*
X106600000Y-87800000D01*
D37*
X105375000Y-144487500D02*
X106237500Y-144487500D01*
D39*
X73275000Y-102500000D02*
X72275000Y-101500000D01*
X74275000Y-83200000D02*
X73500000Y-83200000D01*
X73500000Y-83200000D02*
X72800000Y-82500000D01*
X79725000Y-88055000D02*
X82170000Y-88055000D01*
X72275000Y-101500000D02*
X72200000Y-101500000D01*
X106600000Y-87800000D02*
X106900000Y-87800000D01*
D37*
X81275000Y-144375000D02*
X82900000Y-142750000D01*
D38*
X105275000Y-132275000D02*
X104844887Y-132705113D01*
D37*
X82900000Y-142750000D02*
X82975000Y-142750000D01*
D39*
X71500000Y-83250000D02*
X71525000Y-83250000D01*
D37*
X82975000Y-142750000D02*
X82000000Y-142750000D01*
D39*
X107475000Y-86825000D02*
X107500000Y-86800000D01*
D38*
X95250000Y-131825000D02*
X96525000Y-131825000D01*
D39*
X97500000Y-82500000D02*
X96800000Y-83200000D01*
X72800000Y-82500000D02*
X72275000Y-82500000D01*
X106900000Y-87800000D02*
X106950000Y-87750000D01*
X74387500Y-102500000D02*
X73275000Y-102500000D01*
X98800000Y-102500000D02*
X98050000Y-101750000D01*
D37*
X80362500Y-144375000D02*
X81275000Y-144375000D01*
D39*
X82275000Y-87100000D02*
X82225000Y-87150000D01*
X97525000Y-82500000D02*
X97500000Y-82500000D01*
X99637500Y-83250000D02*
X98650000Y-83250000D01*
D38*
%TO.N,Net-(J13-Pin_10)*%
X106250000Y-115850000D02*
X105050000Y-117050000D01*
X100000000Y-117670000D02*
X105050000Y-117670000D01*
X106250000Y-114775000D02*
X106250000Y-115850000D01*
X105050000Y-117050000D02*
X105050000Y-117670000D01*
%TO.N,Net-(J13-Pin_1)*%
X100000000Y-127830000D02*
X105050000Y-127830000D01*
X106500000Y-130725000D02*
X106500000Y-130170000D01*
X105050000Y-128720000D02*
X105050000Y-127830000D01*
X106500000Y-130170000D02*
X105050000Y-128720000D01*
D37*
%TO.N,Net-(J9-PadTN)*%
X97600000Y-79250000D02*
X98500000Y-80150000D01*
X97575000Y-79250000D02*
X97600000Y-79250000D01*
%TO.N,Net-(U7B-INB)*%
X72325000Y-88750000D02*
X72950000Y-88750000D01*
X72950000Y-88750000D02*
X73450000Y-89250000D01*
X73600000Y-89250000D02*
X73675000Y-89325000D01*
X72325000Y-90250000D02*
X72325000Y-88750000D01*
X73450000Y-89250000D02*
X73600000Y-89250000D01*
X73675000Y-89325000D02*
X74775000Y-89325000D01*
%TO.N,Net-(U7A-INA)*%
X71500000Y-95675000D02*
X70675000Y-96500000D01*
X78600000Y-105250000D02*
X78600000Y-107800000D01*
X74775000Y-95675000D02*
X71500000Y-95675000D01*
X77050000Y-123700000D02*
X77050000Y-110200000D01*
X75000000Y-125750000D02*
X77050000Y-123700000D01*
X76750000Y-103400000D02*
X78600000Y-105250000D01*
X74775000Y-95675000D02*
X76075000Y-95675000D01*
X76750000Y-96350000D02*
X76750000Y-103400000D01*
X76075000Y-95675000D02*
X76750000Y-96350000D01*
%TO.N,Net-(R5-Pad2)*%
X75075000Y-111000000D02*
X75075000Y-110075000D01*
X75075000Y-110075000D02*
X75000000Y-110000000D01*
%TO.N,Net-(R10-Pad2)*%
X68675000Y-58800000D02*
X68750000Y-58725000D01*
X68675000Y-61250000D02*
X68675000Y-58800000D01*
%TO.N,Net-(U1B--)*%
X73375000Y-143075000D02*
X74637500Y-143075000D01*
X71600000Y-143200000D02*
X73250000Y-143200000D01*
X70800000Y-142400000D02*
X71600000Y-143200000D01*
X70675000Y-142400000D02*
X70800000Y-142400000D01*
X73250000Y-143200000D02*
X73375000Y-143075000D01*
X69075000Y-142500000D02*
X70675000Y-142500000D01*
X71400000Y-94800000D02*
X70725000Y-94800000D01*
X70725000Y-94800000D02*
X70675000Y-94750000D01*
%TO.N,Net-(R16-Pad1)*%
X74612500Y-135512500D02*
X68400000Y-129300000D01*
X68325000Y-125725000D02*
X68325000Y-111000000D01*
X68400000Y-125800000D02*
X68325000Y-125725000D01*
X74637500Y-142425000D02*
X74612500Y-142400000D01*
X68400000Y-129300000D02*
X68400000Y-125800000D01*
X74612500Y-142400000D02*
X74612500Y-135512500D01*
%TO.N,Net-(U1A-+)*%
X76500000Y-145050000D02*
X74662500Y-145050000D01*
X74637500Y-145025000D02*
X73475000Y-145025000D01*
X73000000Y-145500000D02*
X72325000Y-145500000D01*
X74662500Y-145050000D02*
X74637500Y-145025000D01*
X73475000Y-145025000D02*
X73000000Y-145500000D01*
X68250000Y-85825000D02*
X68250000Y-86950000D01*
%TO.N,Net-(U2D--)*%
X74275000Y-81900000D02*
X73100000Y-81900000D01*
X70675000Y-79450000D02*
X70675000Y-80900000D01*
X72900000Y-81700000D02*
X71475000Y-81700000D01*
X71475000Y-81700000D02*
X70675000Y-80900000D01*
X73100000Y-81900000D02*
X72900000Y-81700000D01*
D39*
%TO.N,Net-(U7D-IND)*%
X81300000Y-96000000D02*
X82175000Y-96000000D01*
X80975000Y-95675000D02*
X81300000Y-96000000D01*
X79725000Y-95675000D02*
X80975000Y-95675000D01*
X82175000Y-96000000D02*
X82175000Y-94500000D01*
D37*
%TO.N,Net-(U7C-INC)*%
X88900000Y-125425000D02*
X88325000Y-126000000D01*
D39*
X82000000Y-89325000D02*
X82175000Y-89500000D01*
D37*
X88900000Y-113600000D02*
X88900000Y-125425000D01*
X88675000Y-93225000D02*
X88675000Y-100675000D01*
D39*
X79725000Y-89325000D02*
X81200000Y-89325000D01*
X81200000Y-89325000D02*
X82000000Y-89325000D01*
D37*
X88675000Y-100675000D02*
X87125000Y-102225000D01*
X87125000Y-111825000D02*
X88900000Y-113600000D01*
X87125000Y-102225000D02*
X87125000Y-111825000D01*
X86675000Y-91225000D02*
X88675000Y-93225000D01*
%TO.N,Net-(R28-Pad2)*%
X88075000Y-111250000D02*
X88075000Y-102325000D01*
X89400000Y-78720000D02*
X87580000Y-76900000D01*
X88075000Y-102325000D02*
X89400000Y-101000000D01*
X89400000Y-101000000D02*
X89400000Y-78720000D01*
%TO.N,Net-(R33-Pad2)*%
X81175000Y-61250000D02*
X81175000Y-58800000D01*
X81175000Y-58800000D02*
X81250000Y-58725000D01*
%TO.N,Net-(U1D--)*%
X83700000Y-143650000D02*
X85325000Y-143650000D01*
X82925000Y-144425000D02*
X83700000Y-143650000D01*
X80362500Y-145675000D02*
X81675000Y-145675000D01*
X82000000Y-146000000D02*
X82925000Y-146000000D01*
X85325000Y-143650000D02*
X86175000Y-144500000D01*
X82925000Y-144500000D02*
X82925000Y-144425000D01*
X82925000Y-144500000D02*
X82925000Y-146000000D01*
X81675000Y-145675000D02*
X82000000Y-146000000D01*
%TO.N,Net-(R40-Pad1)*%
X81825000Y-109000000D02*
X81825000Y-127925000D01*
X78925000Y-146325000D02*
X77800000Y-145200000D01*
X81825000Y-127925000D02*
X82450000Y-128550000D01*
X78925000Y-146325000D02*
X80362500Y-146325000D01*
%TO.N,Net-(U1C-+)*%
X69200000Y-129000000D02*
X69200000Y-112650000D01*
X69600000Y-106600000D02*
X69525000Y-106600000D01*
X69450000Y-112200000D02*
X69600000Y-112050000D01*
X69600000Y-112050000D02*
X69600000Y-106600000D01*
X75550000Y-137400000D02*
X75550000Y-135350000D01*
X69450000Y-112400000D02*
X69450000Y-112200000D01*
X77575000Y-142675000D02*
X78625000Y-143725000D01*
X69525000Y-106600000D02*
X67425000Y-104500000D01*
X69200000Y-112650000D02*
X69450000Y-112400000D01*
X78625000Y-143725000D02*
X80362500Y-143725000D01*
X77575000Y-140250000D02*
X77575000Y-142675000D01*
X77575000Y-139425000D02*
X75550000Y-137400000D01*
X75550000Y-135350000D02*
X69200000Y-129000000D01*
X77575000Y-140250000D02*
X77575000Y-139425000D01*
%TO.N,Net-(U4D--)*%
X81900000Y-129250000D02*
X78700000Y-126050000D01*
X85435000Y-132785000D02*
X86000000Y-133350000D01*
X85350000Y-132700000D02*
X82750000Y-132700000D01*
X76200000Y-101600000D02*
X75800000Y-101200000D01*
X88750000Y-142600000D02*
X88750000Y-136100000D01*
X78700000Y-110100000D02*
X77800000Y-109200000D01*
X87825000Y-147075000D02*
X89600000Y-145300000D01*
X73450000Y-101200000D02*
X74387500Y-101200000D01*
X71625000Y-100700000D02*
X72950000Y-100700000D01*
X87825000Y-148250000D02*
X87825000Y-147075000D01*
X78700000Y-126050000D02*
X78700000Y-110100000D01*
X85435000Y-132785000D02*
X85350000Y-132700000D01*
X81900000Y-131850000D02*
X81900000Y-129250000D01*
X89600000Y-145300000D02*
X89600000Y-143450000D01*
X86825000Y-134175000D02*
X85435000Y-132785000D01*
X75800000Y-101200000D02*
X74387500Y-101200000D01*
X77800000Y-109200000D02*
X77800000Y-105200000D01*
X72950000Y-100700000D02*
X73450000Y-101200000D01*
X89600000Y-143450000D02*
X88750000Y-142600000D01*
X82750000Y-132700000D02*
X81900000Y-131850000D01*
X77800000Y-105200000D02*
X76200000Y-103600000D01*
X88750000Y-136100000D02*
X86825000Y-134175000D01*
X86825000Y-134175000D02*
X86000000Y-133350000D01*
X70675000Y-99750000D02*
X71625000Y-100700000D01*
X76200000Y-103600000D02*
X76200000Y-101600000D01*
%TO.N,Net-(R52-Pad2)*%
X98900000Y-109000000D02*
X98075000Y-109000000D01*
%TO.N,Net-(R57-Pad2)*%
X93425000Y-59050000D02*
X93750000Y-58725000D01*
X93425000Y-61250000D02*
X93425000Y-59050000D01*
%TO.N,Net-(U3B--)*%
X95925000Y-94750000D02*
X94550000Y-94750000D01*
X98150000Y-143400000D02*
X98362500Y-143187500D01*
X94075000Y-142550000D02*
X95675000Y-142550000D01*
X89900000Y-133100000D02*
X92300000Y-135500000D01*
X93300000Y-139600000D02*
X93300000Y-141700000D01*
X89600000Y-105500000D02*
X89600000Y-110900000D01*
X96525000Y-143400000D02*
X98150000Y-143400000D01*
X92500000Y-96800000D02*
X92500000Y-102600000D01*
X92300000Y-135500000D02*
X92300000Y-138600000D01*
X98362500Y-143187500D02*
X99650000Y-143187500D01*
X95675000Y-142550000D02*
X96525000Y-143400000D01*
X92300000Y-138600000D02*
X93300000Y-139600000D01*
X89600000Y-110900000D02*
X89900000Y-111200000D01*
X94550000Y-94750000D02*
X92500000Y-96800000D01*
X89900000Y-111200000D02*
X89900000Y-133100000D01*
X93300000Y-141700000D02*
X94075000Y-142475000D01*
X94075000Y-142475000D02*
X94075000Y-142550000D01*
X92500000Y-102600000D02*
X89600000Y-105500000D01*
%TO.N,Net-(R64-Pad1)*%
X94325000Y-111925000D02*
X94325000Y-109000000D01*
X97700000Y-115300000D02*
X94325000Y-111925000D01*
X99650000Y-141850000D02*
X99600000Y-141800000D01*
X97700000Y-118000000D02*
X97700000Y-115300000D01*
X99650000Y-142537500D02*
X99650000Y-141850000D01*
X98300000Y-140500000D02*
X99600000Y-141800000D01*
%TO.N,Net-(U3A-+)*%
X98462500Y-145137500D02*
X99650000Y-145137500D01*
X101550000Y-144700000D02*
X101112500Y-145137500D01*
X101112500Y-145137500D02*
X99650000Y-145137500D01*
X97325000Y-145750000D02*
X97850000Y-145750000D01*
X97850000Y-145750000D02*
X98462500Y-145137500D01*
X93500000Y-85825000D02*
X93500000Y-86850000D01*
%TO.N,Net-(U8D-IND)*%
X106275000Y-95675000D02*
X106600000Y-96000000D01*
X106600000Y-96000000D02*
X107425000Y-96000000D01*
X107425000Y-94500000D02*
X107425000Y-96000000D01*
X104975000Y-95675000D02*
X106275000Y-95675000D01*
%TO.N,Net-(U8C-INC)*%
X107425000Y-89250000D02*
X105050000Y-89250000D01*
X112825000Y-124875000D02*
X112750000Y-124800000D01*
X112825000Y-126000000D02*
X112825000Y-124875000D01*
X105050000Y-89250000D02*
X104975000Y-89325000D01*
%TO.N,Net-(R76-Pad2)*%
X112750000Y-110000000D02*
X112750000Y-110925000D01*
X112750000Y-110925000D02*
X112825000Y-111000000D01*
%TO.N,Net-(R81-Pad2)*%
X105925000Y-59025000D02*
X106225000Y-58725000D01*
X105925000Y-61250000D02*
X105925000Y-59025000D01*
%TO.N,Net-(R88-Pad1)*%
X102900000Y-143200000D02*
X101700000Y-142000000D01*
X101700000Y-142000000D02*
X101700000Y-139400000D01*
X101700000Y-109700000D02*
X101700000Y-108775000D01*
X105375000Y-146437500D02*
X103837500Y-146437500D01*
X101700000Y-108775000D02*
X101675000Y-108750000D01*
X102900000Y-145500000D02*
X102900000Y-143200000D01*
X102900000Y-145500000D02*
X103837500Y-146437500D01*
%TO.N,Net-(U3C-+)*%
X99750000Y-138800000D02*
X101900000Y-138800000D01*
X95450000Y-108100000D02*
X92675000Y-105325000D01*
X104237500Y-143837500D02*
X102575000Y-142175000D01*
X105375000Y-143837500D02*
X104237500Y-143837500D01*
X101900000Y-138800000D02*
X102575000Y-139475000D01*
X99100000Y-108100000D02*
X95450000Y-108100000D01*
X102575000Y-139475000D02*
X102575000Y-140250000D01*
X102575000Y-142175000D02*
X102575000Y-140250000D01*
X92675000Y-105325000D02*
X92675000Y-104750000D01*
%TO.N,Net-(U7B-CVB)*%
X71250000Y-58725000D02*
X71250000Y-65850000D01*
X71250000Y-65850000D02*
X77600000Y-72200000D01*
X77600000Y-72200000D02*
X77600000Y-80400000D01*
%TO.N,Net-(U7D-CVD)*%
X85050000Y-67050000D02*
X85050000Y-60025000D01*
X90200000Y-72200000D02*
X85050000Y-67050000D01*
X85050000Y-60025000D02*
X83750000Y-58725000D01*
X81195000Y-94405000D02*
X81200000Y-94400000D01*
X79725000Y-94405000D02*
X81195000Y-94405000D01*
X90200000Y-93800000D02*
X90200000Y-72200000D01*
%TO.N,Net-(U8D-CVD)*%
X113800000Y-90900000D02*
X113500000Y-91200000D01*
X113500000Y-91200000D02*
X113500000Y-93200000D01*
X106332352Y-94405000D02*
X104975000Y-94405000D01*
X108725000Y-66325000D02*
X113355000Y-70955000D01*
X113500000Y-93200000D02*
X113100000Y-93600000D01*
X108725000Y-58725000D02*
X108725000Y-66325000D01*
X113355000Y-70955000D02*
X113355000Y-75555000D01*
X107137352Y-93600000D02*
X106332352Y-94405000D01*
X113100000Y-93600000D02*
X107137352Y-93600000D01*
X113800000Y-76000000D02*
X113800000Y-90900000D01*
X113355000Y-75555000D02*
X113800000Y-76000000D01*
%TO.N,Net-(U6D--)*%
X99637500Y-100550000D02*
X99637500Y-101200000D01*
%TO.N,Net-(U8E-MODE)*%
X99425000Y-98750000D02*
X99425000Y-98175000D01*
X100025000Y-97575000D02*
X100025000Y-96945000D01*
X99425000Y-98175000D02*
X100025000Y-97575000D01*
%TO.N,Net-(U7E-MODE)*%
X74775000Y-97525000D02*
X74775000Y-96945000D01*
X74175000Y-98750000D02*
X74175000Y-98125000D01*
X74175000Y-98125000D02*
X74775000Y-97525000D01*
%TD*%
M02*
