%TF.GenerationSoftware,KiCad,Pcbnew,8.0.0*%
%TF.CreationDate,2024-08-29T00:26:00-07:00*%
%TF.ProjectId,veils_clone,7665696c-735f-4636-9c6f-6e652e6b6963,rev?*%
%TF.SameCoordinates,Original*%
%TF.FileFunction,Legend,Top*%
%TF.FilePolarity,Positive*%
%FSLAX46Y46*%
G04 Gerber Fmt 4.6, Leading zero omitted, Abs format (unit mm)*
G04 Created by KiCad (PCBNEW 8.0.0) date 2024-08-29 00:26:00*
%MOMM*%
%LPD*%
G01*
G04 APERTURE LIST*
%ADD10C,0.100000*%
%ADD11C,0.150000*%
%ADD12C,0.120000*%
G04 APERTURE END LIST*
D10*
X96372580Y-91304761D02*
X96848771Y-90971428D01*
X96372580Y-90733333D02*
X97372580Y-90733333D01*
X97372580Y-90733333D02*
X97372580Y-91114285D01*
X97372580Y-91114285D02*
X97324961Y-91209523D01*
X97324961Y-91209523D02*
X97277342Y-91257142D01*
X97277342Y-91257142D02*
X97182104Y-91304761D01*
X97182104Y-91304761D02*
X97039247Y-91304761D01*
X97039247Y-91304761D02*
X96944009Y-91257142D01*
X96944009Y-91257142D02*
X96896390Y-91209523D01*
X96896390Y-91209523D02*
X96848771Y-91114285D01*
X96848771Y-91114285D02*
X96848771Y-90733333D01*
X97372580Y-91590476D02*
X96372580Y-91923809D01*
X96372580Y-91923809D02*
X97372580Y-92257142D01*
X96944009Y-92733333D02*
X96991628Y-92638095D01*
X96991628Y-92638095D02*
X97039247Y-92590476D01*
X97039247Y-92590476D02*
X97134485Y-92542857D01*
X97134485Y-92542857D02*
X97182104Y-92542857D01*
X97182104Y-92542857D02*
X97277342Y-92590476D01*
X97277342Y-92590476D02*
X97324961Y-92638095D01*
X97324961Y-92638095D02*
X97372580Y-92733333D01*
X97372580Y-92733333D02*
X97372580Y-92923809D01*
X97372580Y-92923809D02*
X97324961Y-93019047D01*
X97324961Y-93019047D02*
X97277342Y-93066666D01*
X97277342Y-93066666D02*
X97182104Y-93114285D01*
X97182104Y-93114285D02*
X97134485Y-93114285D01*
X97134485Y-93114285D02*
X97039247Y-93066666D01*
X97039247Y-93066666D02*
X96991628Y-93019047D01*
X96991628Y-93019047D02*
X96944009Y-92923809D01*
X96944009Y-92923809D02*
X96944009Y-92733333D01*
X96944009Y-92733333D02*
X96896390Y-92638095D01*
X96896390Y-92638095D02*
X96848771Y-92590476D01*
X96848771Y-92590476D02*
X96753533Y-92542857D01*
X96753533Y-92542857D02*
X96563057Y-92542857D01*
X96563057Y-92542857D02*
X96467819Y-92590476D01*
X96467819Y-92590476D02*
X96420200Y-92638095D01*
X96420200Y-92638095D02*
X96372580Y-92733333D01*
X96372580Y-92733333D02*
X96372580Y-92923809D01*
X96372580Y-92923809D02*
X96420200Y-93019047D01*
X96420200Y-93019047D02*
X96467819Y-93066666D01*
X96467819Y-93066666D02*
X96563057Y-93114285D01*
X96563057Y-93114285D02*
X96753533Y-93114285D01*
X96753533Y-93114285D02*
X96848771Y-93066666D01*
X96848771Y-93066666D02*
X96896390Y-93019047D01*
X96896390Y-93019047D02*
X96944009Y-92923809D01*
D11*
X71879819Y-52395238D02*
X71403628Y-52728571D01*
X71879819Y-52966666D02*
X70879819Y-52966666D01*
X70879819Y-52966666D02*
X70879819Y-52585714D01*
X70879819Y-52585714D02*
X70927438Y-52490476D01*
X70927438Y-52490476D02*
X70975057Y-52442857D01*
X70975057Y-52442857D02*
X71070295Y-52395238D01*
X71070295Y-52395238D02*
X71213152Y-52395238D01*
X71213152Y-52395238D02*
X71308390Y-52442857D01*
X71308390Y-52442857D02*
X71356009Y-52490476D01*
X71356009Y-52490476D02*
X71403628Y-52585714D01*
X71403628Y-52585714D02*
X71403628Y-52966666D01*
X70879819Y-52109523D02*
X71879819Y-51776190D01*
X71879819Y-51776190D02*
X70879819Y-51442857D01*
X70879819Y-51204761D02*
X70879819Y-50585714D01*
X70879819Y-50585714D02*
X71260771Y-50919047D01*
X71260771Y-50919047D02*
X71260771Y-50776190D01*
X71260771Y-50776190D02*
X71308390Y-50680952D01*
X71308390Y-50680952D02*
X71356009Y-50633333D01*
X71356009Y-50633333D02*
X71451247Y-50585714D01*
X71451247Y-50585714D02*
X71689342Y-50585714D01*
X71689342Y-50585714D02*
X71784580Y-50633333D01*
X71784580Y-50633333D02*
X71832200Y-50680952D01*
X71832200Y-50680952D02*
X71879819Y-50776190D01*
X71879819Y-50776190D02*
X71879819Y-51061904D01*
X71879819Y-51061904D02*
X71832200Y-51157142D01*
X71832200Y-51157142D02*
X71784580Y-51204761D01*
X74946666Y-137954819D02*
X74946666Y-138669104D01*
X74946666Y-138669104D02*
X74899047Y-138811961D01*
X74899047Y-138811961D02*
X74803809Y-138907200D01*
X74803809Y-138907200D02*
X74660952Y-138954819D01*
X74660952Y-138954819D02*
X74565714Y-138954819D01*
X75327619Y-137954819D02*
X75946666Y-137954819D01*
X75946666Y-137954819D02*
X75613333Y-138335771D01*
X75613333Y-138335771D02*
X75756190Y-138335771D01*
X75756190Y-138335771D02*
X75851428Y-138383390D01*
X75851428Y-138383390D02*
X75899047Y-138431009D01*
X75899047Y-138431009D02*
X75946666Y-138526247D01*
X75946666Y-138526247D02*
X75946666Y-138764342D01*
X75946666Y-138764342D02*
X75899047Y-138859580D01*
X75899047Y-138859580D02*
X75851428Y-138907200D01*
X75851428Y-138907200D02*
X75756190Y-138954819D01*
X75756190Y-138954819D02*
X75470476Y-138954819D01*
X75470476Y-138954819D02*
X75375238Y-138907200D01*
X75375238Y-138907200D02*
X75327619Y-138859580D01*
X109354819Y-52871428D02*
X108878628Y-53204761D01*
X109354819Y-53442856D02*
X108354819Y-53442856D01*
X108354819Y-53442856D02*
X108354819Y-53061904D01*
X108354819Y-53061904D02*
X108402438Y-52966666D01*
X108402438Y-52966666D02*
X108450057Y-52919047D01*
X108450057Y-52919047D02*
X108545295Y-52871428D01*
X108545295Y-52871428D02*
X108688152Y-52871428D01*
X108688152Y-52871428D02*
X108783390Y-52919047D01*
X108783390Y-52919047D02*
X108831009Y-52966666D01*
X108831009Y-52966666D02*
X108878628Y-53061904D01*
X108878628Y-53061904D02*
X108878628Y-53442856D01*
X108354819Y-52585713D02*
X109354819Y-52252380D01*
X109354819Y-52252380D02*
X108354819Y-51919047D01*
X109354819Y-51061904D02*
X109354819Y-51633332D01*
X109354819Y-51347618D02*
X108354819Y-51347618D01*
X108354819Y-51347618D02*
X108497676Y-51442856D01*
X108497676Y-51442856D02*
X108592914Y-51538094D01*
X108592914Y-51538094D02*
X108640533Y-51633332D01*
X108450057Y-50680951D02*
X108402438Y-50633332D01*
X108402438Y-50633332D02*
X108354819Y-50538094D01*
X108354819Y-50538094D02*
X108354819Y-50299999D01*
X108354819Y-50299999D02*
X108402438Y-50204761D01*
X108402438Y-50204761D02*
X108450057Y-50157142D01*
X108450057Y-50157142D02*
X108545295Y-50109523D01*
X108545295Y-50109523D02*
X108640533Y-50109523D01*
X108640533Y-50109523D02*
X108783390Y-50157142D01*
X108783390Y-50157142D02*
X109354819Y-50728570D01*
X109354819Y-50728570D02*
X109354819Y-50109523D01*
X74946666Y-121124819D02*
X74946666Y-121839104D01*
X74946666Y-121839104D02*
X74899047Y-121981961D01*
X74899047Y-121981961D02*
X74803809Y-122077200D01*
X74803809Y-122077200D02*
X74660952Y-122124819D01*
X74660952Y-122124819D02*
X74565714Y-122124819D01*
X75375238Y-121220057D02*
X75422857Y-121172438D01*
X75422857Y-121172438D02*
X75518095Y-121124819D01*
X75518095Y-121124819D02*
X75756190Y-121124819D01*
X75756190Y-121124819D02*
X75851428Y-121172438D01*
X75851428Y-121172438D02*
X75899047Y-121220057D01*
X75899047Y-121220057D02*
X75946666Y-121315295D01*
X75946666Y-121315295D02*
X75946666Y-121410533D01*
X75946666Y-121410533D02*
X75899047Y-121553390D01*
X75899047Y-121553390D02*
X75327619Y-122124819D01*
X75327619Y-122124819D02*
X75946666Y-122124819D01*
X96879819Y-52395238D02*
X96403628Y-52728571D01*
X96879819Y-52966666D02*
X95879819Y-52966666D01*
X95879819Y-52966666D02*
X95879819Y-52585714D01*
X95879819Y-52585714D02*
X95927438Y-52490476D01*
X95927438Y-52490476D02*
X95975057Y-52442857D01*
X95975057Y-52442857D02*
X96070295Y-52395238D01*
X96070295Y-52395238D02*
X96213152Y-52395238D01*
X96213152Y-52395238D02*
X96308390Y-52442857D01*
X96308390Y-52442857D02*
X96356009Y-52490476D01*
X96356009Y-52490476D02*
X96403628Y-52585714D01*
X96403628Y-52585714D02*
X96403628Y-52966666D01*
X95879819Y-52109523D02*
X96879819Y-51776190D01*
X96879819Y-51776190D02*
X95879819Y-51442857D01*
X96879819Y-51061904D02*
X96879819Y-50871428D01*
X96879819Y-50871428D02*
X96832200Y-50776190D01*
X96832200Y-50776190D02*
X96784580Y-50728571D01*
X96784580Y-50728571D02*
X96641723Y-50633333D01*
X96641723Y-50633333D02*
X96451247Y-50585714D01*
X96451247Y-50585714D02*
X96070295Y-50585714D01*
X96070295Y-50585714D02*
X95975057Y-50633333D01*
X95975057Y-50633333D02*
X95927438Y-50680952D01*
X95927438Y-50680952D02*
X95879819Y-50776190D01*
X95879819Y-50776190D02*
X95879819Y-50966666D01*
X95879819Y-50966666D02*
X95927438Y-51061904D01*
X95927438Y-51061904D02*
X95975057Y-51109523D01*
X95975057Y-51109523D02*
X96070295Y-51157142D01*
X96070295Y-51157142D02*
X96308390Y-51157142D01*
X96308390Y-51157142D02*
X96403628Y-51109523D01*
X96403628Y-51109523D02*
X96451247Y-51061904D01*
X96451247Y-51061904D02*
X96498866Y-50966666D01*
X96498866Y-50966666D02*
X96498866Y-50776190D01*
X96498866Y-50776190D02*
X96451247Y-50680952D01*
X96451247Y-50680952D02*
X96403628Y-50633333D01*
X96403628Y-50633333D02*
X96308390Y-50585714D01*
X77361905Y-140154819D02*
X77361905Y-139154819D01*
X77361905Y-139154819D02*
X77600000Y-139154819D01*
X77600000Y-139154819D02*
X77742857Y-139202438D01*
X77742857Y-139202438D02*
X77838095Y-139297676D01*
X77838095Y-139297676D02*
X77885714Y-139392914D01*
X77885714Y-139392914D02*
X77933333Y-139583390D01*
X77933333Y-139583390D02*
X77933333Y-139726247D01*
X77933333Y-139726247D02*
X77885714Y-139916723D01*
X77885714Y-139916723D02*
X77838095Y-140011961D01*
X77838095Y-140011961D02*
X77742857Y-140107200D01*
X77742857Y-140107200D02*
X77600000Y-140154819D01*
X77600000Y-140154819D02*
X77361905Y-140154819D01*
X78790476Y-139488152D02*
X78790476Y-140154819D01*
X78552381Y-139107200D02*
X78314286Y-139821485D01*
X78314286Y-139821485D02*
X78933333Y-139821485D01*
X87266666Y-137954819D02*
X87266666Y-138669104D01*
X87266666Y-138669104D02*
X87219047Y-138811961D01*
X87219047Y-138811961D02*
X87123809Y-138907200D01*
X87123809Y-138907200D02*
X86980952Y-138954819D01*
X86980952Y-138954819D02*
X86885714Y-138954819D01*
X88171428Y-137954819D02*
X87980952Y-137954819D01*
X87980952Y-137954819D02*
X87885714Y-138002438D01*
X87885714Y-138002438D02*
X87838095Y-138050057D01*
X87838095Y-138050057D02*
X87742857Y-138192914D01*
X87742857Y-138192914D02*
X87695238Y-138383390D01*
X87695238Y-138383390D02*
X87695238Y-138764342D01*
X87695238Y-138764342D02*
X87742857Y-138859580D01*
X87742857Y-138859580D02*
X87790476Y-138907200D01*
X87790476Y-138907200D02*
X87885714Y-138954819D01*
X87885714Y-138954819D02*
X88076190Y-138954819D01*
X88076190Y-138954819D02*
X88171428Y-138907200D01*
X88171428Y-138907200D02*
X88219047Y-138859580D01*
X88219047Y-138859580D02*
X88266666Y-138764342D01*
X88266666Y-138764342D02*
X88266666Y-138526247D01*
X88266666Y-138526247D02*
X88219047Y-138431009D01*
X88219047Y-138431009D02*
X88171428Y-138383390D01*
X88171428Y-138383390D02*
X88076190Y-138335771D01*
X88076190Y-138335771D02*
X87885714Y-138335771D01*
X87885714Y-138335771D02*
X87790476Y-138383390D01*
X87790476Y-138383390D02*
X87742857Y-138431009D01*
X87742857Y-138431009D02*
X87695238Y-138526247D01*
X96879819Y-65995238D02*
X96403628Y-66328571D01*
X96879819Y-66566666D02*
X95879819Y-66566666D01*
X95879819Y-66566666D02*
X95879819Y-66185714D01*
X95879819Y-66185714D02*
X95927438Y-66090476D01*
X95927438Y-66090476D02*
X95975057Y-66042857D01*
X95975057Y-66042857D02*
X96070295Y-65995238D01*
X96070295Y-65995238D02*
X96213152Y-65995238D01*
X96213152Y-65995238D02*
X96308390Y-66042857D01*
X96308390Y-66042857D02*
X96356009Y-66090476D01*
X96356009Y-66090476D02*
X96403628Y-66185714D01*
X96403628Y-66185714D02*
X96403628Y-66566666D01*
X95879819Y-65709523D02*
X96879819Y-65376190D01*
X96879819Y-65376190D02*
X95879819Y-65042857D01*
X95879819Y-64804761D02*
X95879819Y-64138095D01*
X95879819Y-64138095D02*
X96879819Y-64566666D01*
X71879819Y-65995238D02*
X71403628Y-66328571D01*
X71879819Y-66566666D02*
X70879819Y-66566666D01*
X70879819Y-66566666D02*
X70879819Y-66185714D01*
X70879819Y-66185714D02*
X70927438Y-66090476D01*
X70927438Y-66090476D02*
X70975057Y-66042857D01*
X70975057Y-66042857D02*
X71070295Y-65995238D01*
X71070295Y-65995238D02*
X71213152Y-65995238D01*
X71213152Y-65995238D02*
X71308390Y-66042857D01*
X71308390Y-66042857D02*
X71356009Y-66090476D01*
X71356009Y-66090476D02*
X71403628Y-66185714D01*
X71403628Y-66185714D02*
X71403628Y-66566666D01*
X70879819Y-65709523D02*
X71879819Y-65376190D01*
X71879819Y-65376190D02*
X70879819Y-65042857D01*
X71879819Y-64185714D02*
X71879819Y-64757142D01*
X71879819Y-64471428D02*
X70879819Y-64471428D01*
X70879819Y-64471428D02*
X71022676Y-64566666D01*
X71022676Y-64566666D02*
X71117914Y-64661904D01*
X71117914Y-64661904D02*
X71165533Y-64757142D01*
X99766666Y-137954819D02*
X99766666Y-138669104D01*
X99766666Y-138669104D02*
X99719047Y-138811961D01*
X99719047Y-138811961D02*
X99623809Y-138907200D01*
X99623809Y-138907200D02*
X99480952Y-138954819D01*
X99480952Y-138954819D02*
X99385714Y-138954819D01*
X100290476Y-138954819D02*
X100480952Y-138954819D01*
X100480952Y-138954819D02*
X100576190Y-138907200D01*
X100576190Y-138907200D02*
X100623809Y-138859580D01*
X100623809Y-138859580D02*
X100719047Y-138716723D01*
X100719047Y-138716723D02*
X100766666Y-138526247D01*
X100766666Y-138526247D02*
X100766666Y-138145295D01*
X100766666Y-138145295D02*
X100719047Y-138050057D01*
X100719047Y-138050057D02*
X100671428Y-138002438D01*
X100671428Y-138002438D02*
X100576190Y-137954819D01*
X100576190Y-137954819D02*
X100385714Y-137954819D01*
X100385714Y-137954819D02*
X100290476Y-138002438D01*
X100290476Y-138002438D02*
X100242857Y-138050057D01*
X100242857Y-138050057D02*
X100195238Y-138145295D01*
X100195238Y-138145295D02*
X100195238Y-138383390D01*
X100195238Y-138383390D02*
X100242857Y-138478628D01*
X100242857Y-138478628D02*
X100290476Y-138526247D01*
X100290476Y-138526247D02*
X100385714Y-138573866D01*
X100385714Y-138573866D02*
X100576190Y-138573866D01*
X100576190Y-138573866D02*
X100671428Y-138526247D01*
X100671428Y-138526247D02*
X100719047Y-138478628D01*
X100719047Y-138478628D02*
X100766666Y-138383390D01*
X111970476Y-135624819D02*
X111970476Y-136339104D01*
X111970476Y-136339104D02*
X111922857Y-136481961D01*
X111922857Y-136481961D02*
X111827619Y-136577200D01*
X111827619Y-136577200D02*
X111684762Y-136624819D01*
X111684762Y-136624819D02*
X111589524Y-136624819D01*
X112970476Y-136624819D02*
X112399048Y-136624819D01*
X112684762Y-136624819D02*
X112684762Y-135624819D01*
X112684762Y-135624819D02*
X112589524Y-135767676D01*
X112589524Y-135767676D02*
X112494286Y-135862914D01*
X112494286Y-135862914D02*
X112399048Y-135910533D01*
X113589524Y-135624819D02*
X113684762Y-135624819D01*
X113684762Y-135624819D02*
X113780000Y-135672438D01*
X113780000Y-135672438D02*
X113827619Y-135720057D01*
X113827619Y-135720057D02*
X113875238Y-135815295D01*
X113875238Y-135815295D02*
X113922857Y-136005771D01*
X113922857Y-136005771D02*
X113922857Y-136243866D01*
X113922857Y-136243866D02*
X113875238Y-136434342D01*
X113875238Y-136434342D02*
X113827619Y-136529580D01*
X113827619Y-136529580D02*
X113780000Y-136577200D01*
X113780000Y-136577200D02*
X113684762Y-136624819D01*
X113684762Y-136624819D02*
X113589524Y-136624819D01*
X113589524Y-136624819D02*
X113494286Y-136577200D01*
X113494286Y-136577200D02*
X113446667Y-136529580D01*
X113446667Y-136529580D02*
X113399048Y-136434342D01*
X113399048Y-136434342D02*
X113351429Y-136243866D01*
X113351429Y-136243866D02*
X113351429Y-136005771D01*
X113351429Y-136005771D02*
X113399048Y-135815295D01*
X113399048Y-135815295D02*
X113446667Y-135720057D01*
X113446667Y-135720057D02*
X113494286Y-135672438D01*
X113494286Y-135672438D02*
X113589524Y-135624819D01*
X84379819Y-65995238D02*
X83903628Y-66328571D01*
X84379819Y-66566666D02*
X83379819Y-66566666D01*
X83379819Y-66566666D02*
X83379819Y-66185714D01*
X83379819Y-66185714D02*
X83427438Y-66090476D01*
X83427438Y-66090476D02*
X83475057Y-66042857D01*
X83475057Y-66042857D02*
X83570295Y-65995238D01*
X83570295Y-65995238D02*
X83713152Y-65995238D01*
X83713152Y-65995238D02*
X83808390Y-66042857D01*
X83808390Y-66042857D02*
X83856009Y-66090476D01*
X83856009Y-66090476D02*
X83903628Y-66185714D01*
X83903628Y-66185714D02*
X83903628Y-66566666D01*
X83379819Y-65709523D02*
X84379819Y-65376190D01*
X84379819Y-65376190D02*
X83379819Y-65042857D01*
X83713152Y-64280952D02*
X84379819Y-64280952D01*
X83332200Y-64519047D02*
X84046485Y-64757142D01*
X84046485Y-64757142D02*
X84046485Y-64138095D01*
X84379819Y-52395238D02*
X83903628Y-52728571D01*
X84379819Y-52966666D02*
X83379819Y-52966666D01*
X83379819Y-52966666D02*
X83379819Y-52585714D01*
X83379819Y-52585714D02*
X83427438Y-52490476D01*
X83427438Y-52490476D02*
X83475057Y-52442857D01*
X83475057Y-52442857D02*
X83570295Y-52395238D01*
X83570295Y-52395238D02*
X83713152Y-52395238D01*
X83713152Y-52395238D02*
X83808390Y-52442857D01*
X83808390Y-52442857D02*
X83856009Y-52490476D01*
X83856009Y-52490476D02*
X83903628Y-52585714D01*
X83903628Y-52585714D02*
X83903628Y-52966666D01*
X83379819Y-52109523D02*
X84379819Y-51776190D01*
X84379819Y-51776190D02*
X83379819Y-51442857D01*
X83379819Y-50680952D02*
X83379819Y-50871428D01*
X83379819Y-50871428D02*
X83427438Y-50966666D01*
X83427438Y-50966666D02*
X83475057Y-51014285D01*
X83475057Y-51014285D02*
X83617914Y-51109523D01*
X83617914Y-51109523D02*
X83808390Y-51157142D01*
X83808390Y-51157142D02*
X84189342Y-51157142D01*
X84189342Y-51157142D02*
X84284580Y-51109523D01*
X84284580Y-51109523D02*
X84332200Y-51061904D01*
X84332200Y-51061904D02*
X84379819Y-50966666D01*
X84379819Y-50966666D02*
X84379819Y-50776190D01*
X84379819Y-50776190D02*
X84332200Y-50680952D01*
X84332200Y-50680952D02*
X84284580Y-50633333D01*
X84284580Y-50633333D02*
X84189342Y-50585714D01*
X84189342Y-50585714D02*
X83951247Y-50585714D01*
X83951247Y-50585714D02*
X83856009Y-50633333D01*
X83856009Y-50633333D02*
X83808390Y-50680952D01*
X83808390Y-50680952D02*
X83760771Y-50776190D01*
X83760771Y-50776190D02*
X83760771Y-50966666D01*
X83760771Y-50966666D02*
X83808390Y-51061904D01*
X83808390Y-51061904D02*
X83856009Y-51109523D01*
X83856009Y-51109523D02*
X83951247Y-51157142D01*
X111790476Y-137954819D02*
X111790476Y-138669104D01*
X111790476Y-138669104D02*
X111742857Y-138811961D01*
X111742857Y-138811961D02*
X111647619Y-138907200D01*
X111647619Y-138907200D02*
X111504762Y-138954819D01*
X111504762Y-138954819D02*
X111409524Y-138954819D01*
X112790476Y-138954819D02*
X112219048Y-138954819D01*
X112504762Y-138954819D02*
X112504762Y-137954819D01*
X112504762Y-137954819D02*
X112409524Y-138097676D01*
X112409524Y-138097676D02*
X112314286Y-138192914D01*
X112314286Y-138192914D02*
X112219048Y-138240533D01*
X113171429Y-138050057D02*
X113219048Y-138002438D01*
X113219048Y-138002438D02*
X113314286Y-137954819D01*
X113314286Y-137954819D02*
X113552381Y-137954819D01*
X113552381Y-137954819D02*
X113647619Y-138002438D01*
X113647619Y-138002438D02*
X113695238Y-138050057D01*
X113695238Y-138050057D02*
X113742857Y-138145295D01*
X113742857Y-138145295D02*
X113742857Y-138240533D01*
X113742857Y-138240533D02*
X113695238Y-138383390D01*
X113695238Y-138383390D02*
X113123810Y-138954819D01*
X113123810Y-138954819D02*
X113742857Y-138954819D01*
X87446666Y-135624819D02*
X87446666Y-136339104D01*
X87446666Y-136339104D02*
X87399047Y-136481961D01*
X87399047Y-136481961D02*
X87303809Y-136577200D01*
X87303809Y-136577200D02*
X87160952Y-136624819D01*
X87160952Y-136624819D02*
X87065714Y-136624819D01*
X88351428Y-135958152D02*
X88351428Y-136624819D01*
X88113333Y-135577200D02*
X87875238Y-136291485D01*
X87875238Y-136291485D02*
X88494285Y-136291485D01*
X99946666Y-121124819D02*
X99946666Y-121839104D01*
X99946666Y-121839104D02*
X99899047Y-121981961D01*
X99899047Y-121981961D02*
X99803809Y-122077200D01*
X99803809Y-122077200D02*
X99660952Y-122124819D01*
X99660952Y-122124819D02*
X99565714Y-122124819D01*
X100565714Y-121553390D02*
X100470476Y-121505771D01*
X100470476Y-121505771D02*
X100422857Y-121458152D01*
X100422857Y-121458152D02*
X100375238Y-121362914D01*
X100375238Y-121362914D02*
X100375238Y-121315295D01*
X100375238Y-121315295D02*
X100422857Y-121220057D01*
X100422857Y-121220057D02*
X100470476Y-121172438D01*
X100470476Y-121172438D02*
X100565714Y-121124819D01*
X100565714Y-121124819D02*
X100756190Y-121124819D01*
X100756190Y-121124819D02*
X100851428Y-121172438D01*
X100851428Y-121172438D02*
X100899047Y-121220057D01*
X100899047Y-121220057D02*
X100946666Y-121315295D01*
X100946666Y-121315295D02*
X100946666Y-121362914D01*
X100946666Y-121362914D02*
X100899047Y-121458152D01*
X100899047Y-121458152D02*
X100851428Y-121505771D01*
X100851428Y-121505771D02*
X100756190Y-121553390D01*
X100756190Y-121553390D02*
X100565714Y-121553390D01*
X100565714Y-121553390D02*
X100470476Y-121601009D01*
X100470476Y-121601009D02*
X100422857Y-121648628D01*
X100422857Y-121648628D02*
X100375238Y-121743866D01*
X100375238Y-121743866D02*
X100375238Y-121934342D01*
X100375238Y-121934342D02*
X100422857Y-122029580D01*
X100422857Y-122029580D02*
X100470476Y-122077200D01*
X100470476Y-122077200D02*
X100565714Y-122124819D01*
X100565714Y-122124819D02*
X100756190Y-122124819D01*
X100756190Y-122124819D02*
X100851428Y-122077200D01*
X100851428Y-122077200D02*
X100899047Y-122029580D01*
X100899047Y-122029580D02*
X100946666Y-121934342D01*
X100946666Y-121934342D02*
X100946666Y-121743866D01*
X100946666Y-121743866D02*
X100899047Y-121648628D01*
X100899047Y-121648628D02*
X100851428Y-121601009D01*
X100851428Y-121601009D02*
X100756190Y-121553390D01*
D10*
X108872580Y-90828571D02*
X109348771Y-90495238D01*
X108872580Y-90257143D02*
X109872580Y-90257143D01*
X109872580Y-90257143D02*
X109872580Y-90638095D01*
X109872580Y-90638095D02*
X109824961Y-90733333D01*
X109824961Y-90733333D02*
X109777342Y-90780952D01*
X109777342Y-90780952D02*
X109682104Y-90828571D01*
X109682104Y-90828571D02*
X109539247Y-90828571D01*
X109539247Y-90828571D02*
X109444009Y-90780952D01*
X109444009Y-90780952D02*
X109396390Y-90733333D01*
X109396390Y-90733333D02*
X109348771Y-90638095D01*
X109348771Y-90638095D02*
X109348771Y-90257143D01*
X109872580Y-91114286D02*
X108872580Y-91447619D01*
X108872580Y-91447619D02*
X109872580Y-91780952D01*
X108872580Y-92638095D02*
X108872580Y-92066667D01*
X108872580Y-92352381D02*
X109872580Y-92352381D01*
X109872580Y-92352381D02*
X109729723Y-92257143D01*
X109729723Y-92257143D02*
X109634485Y-92161905D01*
X109634485Y-92161905D02*
X109586866Y-92066667D01*
X108872580Y-93590476D02*
X108872580Y-93019048D01*
X108872580Y-93304762D02*
X109872580Y-93304762D01*
X109872580Y-93304762D02*
X109729723Y-93209524D01*
X109729723Y-93209524D02*
X109634485Y-93114286D01*
X109634485Y-93114286D02*
X109586866Y-93019048D01*
D11*
X74946666Y-135624819D02*
X74946666Y-136339104D01*
X74946666Y-136339104D02*
X74899047Y-136481961D01*
X74899047Y-136481961D02*
X74803809Y-136577200D01*
X74803809Y-136577200D02*
X74660952Y-136624819D01*
X74660952Y-136624819D02*
X74565714Y-136624819D01*
X75946666Y-136624819D02*
X75375238Y-136624819D01*
X75660952Y-136624819D02*
X75660952Y-135624819D01*
X75660952Y-135624819D02*
X75565714Y-135767676D01*
X75565714Y-135767676D02*
X75470476Y-135862914D01*
X75470476Y-135862914D02*
X75375238Y-135910533D01*
X102461905Y-140254819D02*
X102461905Y-139254819D01*
X102461905Y-139254819D02*
X102700000Y-139254819D01*
X102700000Y-139254819D02*
X102842857Y-139302438D01*
X102842857Y-139302438D02*
X102938095Y-139397676D01*
X102938095Y-139397676D02*
X102985714Y-139492914D01*
X102985714Y-139492914D02*
X103033333Y-139683390D01*
X103033333Y-139683390D02*
X103033333Y-139826247D01*
X103033333Y-139826247D02*
X102985714Y-140016723D01*
X102985714Y-140016723D02*
X102938095Y-140111961D01*
X102938095Y-140111961D02*
X102842857Y-140207200D01*
X102842857Y-140207200D02*
X102700000Y-140254819D01*
X102700000Y-140254819D02*
X102461905Y-140254819D01*
X103604762Y-139683390D02*
X103509524Y-139635771D01*
X103509524Y-139635771D02*
X103461905Y-139588152D01*
X103461905Y-139588152D02*
X103414286Y-139492914D01*
X103414286Y-139492914D02*
X103414286Y-139445295D01*
X103414286Y-139445295D02*
X103461905Y-139350057D01*
X103461905Y-139350057D02*
X103509524Y-139302438D01*
X103509524Y-139302438D02*
X103604762Y-139254819D01*
X103604762Y-139254819D02*
X103795238Y-139254819D01*
X103795238Y-139254819D02*
X103890476Y-139302438D01*
X103890476Y-139302438D02*
X103938095Y-139350057D01*
X103938095Y-139350057D02*
X103985714Y-139445295D01*
X103985714Y-139445295D02*
X103985714Y-139492914D01*
X103985714Y-139492914D02*
X103938095Y-139588152D01*
X103938095Y-139588152D02*
X103890476Y-139635771D01*
X103890476Y-139635771D02*
X103795238Y-139683390D01*
X103795238Y-139683390D02*
X103604762Y-139683390D01*
X103604762Y-139683390D02*
X103509524Y-139731009D01*
X103509524Y-139731009D02*
X103461905Y-139778628D01*
X103461905Y-139778628D02*
X103414286Y-139873866D01*
X103414286Y-139873866D02*
X103414286Y-140064342D01*
X103414286Y-140064342D02*
X103461905Y-140159580D01*
X103461905Y-140159580D02*
X103509524Y-140207200D01*
X103509524Y-140207200D02*
X103604762Y-140254819D01*
X103604762Y-140254819D02*
X103795238Y-140254819D01*
X103795238Y-140254819D02*
X103890476Y-140207200D01*
X103890476Y-140207200D02*
X103938095Y-140159580D01*
X103938095Y-140159580D02*
X103985714Y-140064342D01*
X103985714Y-140064342D02*
X103985714Y-139873866D01*
X103985714Y-139873866D02*
X103938095Y-139778628D01*
X103938095Y-139778628D02*
X103890476Y-139731009D01*
X103890476Y-139731009D02*
X103795238Y-139683390D01*
X89861905Y-140254819D02*
X89861905Y-139254819D01*
X89861905Y-139254819D02*
X90100000Y-139254819D01*
X90100000Y-139254819D02*
X90242857Y-139302438D01*
X90242857Y-139302438D02*
X90338095Y-139397676D01*
X90338095Y-139397676D02*
X90385714Y-139492914D01*
X90385714Y-139492914D02*
X90433333Y-139683390D01*
X90433333Y-139683390D02*
X90433333Y-139826247D01*
X90433333Y-139826247D02*
X90385714Y-140016723D01*
X90385714Y-140016723D02*
X90338095Y-140111961D01*
X90338095Y-140111961D02*
X90242857Y-140207200D01*
X90242857Y-140207200D02*
X90100000Y-140254819D01*
X90100000Y-140254819D02*
X89861905Y-140254819D01*
X91290476Y-139254819D02*
X91100000Y-139254819D01*
X91100000Y-139254819D02*
X91004762Y-139302438D01*
X91004762Y-139302438D02*
X90957143Y-139350057D01*
X90957143Y-139350057D02*
X90861905Y-139492914D01*
X90861905Y-139492914D02*
X90814286Y-139683390D01*
X90814286Y-139683390D02*
X90814286Y-140064342D01*
X90814286Y-140064342D02*
X90861905Y-140159580D01*
X90861905Y-140159580D02*
X90909524Y-140207200D01*
X90909524Y-140207200D02*
X91004762Y-140254819D01*
X91004762Y-140254819D02*
X91195238Y-140254819D01*
X91195238Y-140254819D02*
X91290476Y-140207200D01*
X91290476Y-140207200D02*
X91338095Y-140159580D01*
X91338095Y-140159580D02*
X91385714Y-140064342D01*
X91385714Y-140064342D02*
X91385714Y-139826247D01*
X91385714Y-139826247D02*
X91338095Y-139731009D01*
X91338095Y-139731009D02*
X91290476Y-139683390D01*
X91290476Y-139683390D02*
X91195238Y-139635771D01*
X91195238Y-139635771D02*
X91004762Y-139635771D01*
X91004762Y-139635771D02*
X90909524Y-139683390D01*
X90909524Y-139683390D02*
X90861905Y-139731009D01*
X90861905Y-139731009D02*
X90814286Y-139826247D01*
X87446666Y-121124819D02*
X87446666Y-121839104D01*
X87446666Y-121839104D02*
X87399047Y-121981961D01*
X87399047Y-121981961D02*
X87303809Y-122077200D01*
X87303809Y-122077200D02*
X87160952Y-122124819D01*
X87160952Y-122124819D02*
X87065714Y-122124819D01*
X88399047Y-121124819D02*
X87922857Y-121124819D01*
X87922857Y-121124819D02*
X87875238Y-121601009D01*
X87875238Y-121601009D02*
X87922857Y-121553390D01*
X87922857Y-121553390D02*
X88018095Y-121505771D01*
X88018095Y-121505771D02*
X88256190Y-121505771D01*
X88256190Y-121505771D02*
X88351428Y-121553390D01*
X88351428Y-121553390D02*
X88399047Y-121601009D01*
X88399047Y-121601009D02*
X88446666Y-121696247D01*
X88446666Y-121696247D02*
X88446666Y-121934342D01*
X88446666Y-121934342D02*
X88399047Y-122029580D01*
X88399047Y-122029580D02*
X88351428Y-122077200D01*
X88351428Y-122077200D02*
X88256190Y-122124819D01*
X88256190Y-122124819D02*
X88018095Y-122124819D01*
X88018095Y-122124819D02*
X87922857Y-122077200D01*
X87922857Y-122077200D02*
X87875238Y-122029580D01*
X111970476Y-121124819D02*
X111970476Y-121839104D01*
X111970476Y-121839104D02*
X111922857Y-121981961D01*
X111922857Y-121981961D02*
X111827619Y-122077200D01*
X111827619Y-122077200D02*
X111684762Y-122124819D01*
X111684762Y-122124819D02*
X111589524Y-122124819D01*
X112970476Y-122124819D02*
X112399048Y-122124819D01*
X112684762Y-122124819D02*
X112684762Y-121124819D01*
X112684762Y-121124819D02*
X112589524Y-121267676D01*
X112589524Y-121267676D02*
X112494286Y-121362914D01*
X112494286Y-121362914D02*
X112399048Y-121410533D01*
X113922857Y-122124819D02*
X113351429Y-122124819D01*
X113637143Y-122124819D02*
X113637143Y-121124819D01*
X113637143Y-121124819D02*
X113541905Y-121267676D01*
X113541905Y-121267676D02*
X113446667Y-121362914D01*
X113446667Y-121362914D02*
X113351429Y-121410533D01*
X109354819Y-66471428D02*
X108878628Y-66804761D01*
X109354819Y-67042856D02*
X108354819Y-67042856D01*
X108354819Y-67042856D02*
X108354819Y-66661904D01*
X108354819Y-66661904D02*
X108402438Y-66566666D01*
X108402438Y-66566666D02*
X108450057Y-66519047D01*
X108450057Y-66519047D02*
X108545295Y-66471428D01*
X108545295Y-66471428D02*
X108688152Y-66471428D01*
X108688152Y-66471428D02*
X108783390Y-66519047D01*
X108783390Y-66519047D02*
X108831009Y-66566666D01*
X108831009Y-66566666D02*
X108878628Y-66661904D01*
X108878628Y-66661904D02*
X108878628Y-67042856D01*
X108354819Y-66185713D02*
X109354819Y-65852380D01*
X109354819Y-65852380D02*
X108354819Y-65519047D01*
X109354819Y-64661904D02*
X109354819Y-65233332D01*
X109354819Y-64947618D02*
X108354819Y-64947618D01*
X108354819Y-64947618D02*
X108497676Y-65042856D01*
X108497676Y-65042856D02*
X108592914Y-65138094D01*
X108592914Y-65138094D02*
X108640533Y-65233332D01*
X108354819Y-64042856D02*
X108354819Y-63947618D01*
X108354819Y-63947618D02*
X108402438Y-63852380D01*
X108402438Y-63852380D02*
X108450057Y-63804761D01*
X108450057Y-63804761D02*
X108545295Y-63757142D01*
X108545295Y-63757142D02*
X108735771Y-63709523D01*
X108735771Y-63709523D02*
X108973866Y-63709523D01*
X108973866Y-63709523D02*
X109164342Y-63757142D01*
X109164342Y-63757142D02*
X109259580Y-63804761D01*
X109259580Y-63804761D02*
X109307200Y-63852380D01*
X109307200Y-63852380D02*
X109354819Y-63947618D01*
X109354819Y-63947618D02*
X109354819Y-64042856D01*
X109354819Y-64042856D02*
X109307200Y-64138094D01*
X109307200Y-64138094D02*
X109259580Y-64185713D01*
X109259580Y-64185713D02*
X109164342Y-64233332D01*
X109164342Y-64233332D02*
X108973866Y-64280951D01*
X108973866Y-64280951D02*
X108735771Y-64280951D01*
X108735771Y-64280951D02*
X108545295Y-64233332D01*
X108545295Y-64233332D02*
X108450057Y-64185713D01*
X108450057Y-64185713D02*
X108402438Y-64138094D01*
X108402438Y-64138094D02*
X108354819Y-64042856D01*
X99946666Y-135624819D02*
X99946666Y-136339104D01*
X99946666Y-136339104D02*
X99899047Y-136481961D01*
X99899047Y-136481961D02*
X99803809Y-136577200D01*
X99803809Y-136577200D02*
X99660952Y-136624819D01*
X99660952Y-136624819D02*
X99565714Y-136624819D01*
X100327619Y-135624819D02*
X100994285Y-135624819D01*
X100994285Y-135624819D02*
X100565714Y-136624819D01*
X65261905Y-140054819D02*
X65261905Y-139054819D01*
X65261905Y-139054819D02*
X65500000Y-139054819D01*
X65500000Y-139054819D02*
X65642857Y-139102438D01*
X65642857Y-139102438D02*
X65738095Y-139197676D01*
X65738095Y-139197676D02*
X65785714Y-139292914D01*
X65785714Y-139292914D02*
X65833333Y-139483390D01*
X65833333Y-139483390D02*
X65833333Y-139626247D01*
X65833333Y-139626247D02*
X65785714Y-139816723D01*
X65785714Y-139816723D02*
X65738095Y-139911961D01*
X65738095Y-139911961D02*
X65642857Y-140007200D01*
X65642857Y-140007200D02*
X65500000Y-140054819D01*
X65500000Y-140054819D02*
X65261905Y-140054819D01*
X66214286Y-139150057D02*
X66261905Y-139102438D01*
X66261905Y-139102438D02*
X66357143Y-139054819D01*
X66357143Y-139054819D02*
X66595238Y-139054819D01*
X66595238Y-139054819D02*
X66690476Y-139102438D01*
X66690476Y-139102438D02*
X66738095Y-139150057D01*
X66738095Y-139150057D02*
X66785714Y-139245295D01*
X66785714Y-139245295D02*
X66785714Y-139340533D01*
X66785714Y-139340533D02*
X66738095Y-139483390D01*
X66738095Y-139483390D02*
X66166667Y-140054819D01*
X66166667Y-140054819D02*
X66785714Y-140054819D01*
D10*
X83872580Y-91304761D02*
X84348771Y-90971428D01*
X83872580Y-90733333D02*
X84872580Y-90733333D01*
X84872580Y-90733333D02*
X84872580Y-91114285D01*
X84872580Y-91114285D02*
X84824961Y-91209523D01*
X84824961Y-91209523D02*
X84777342Y-91257142D01*
X84777342Y-91257142D02*
X84682104Y-91304761D01*
X84682104Y-91304761D02*
X84539247Y-91304761D01*
X84539247Y-91304761D02*
X84444009Y-91257142D01*
X84444009Y-91257142D02*
X84396390Y-91209523D01*
X84396390Y-91209523D02*
X84348771Y-91114285D01*
X84348771Y-91114285D02*
X84348771Y-90733333D01*
X84872580Y-91590476D02*
X83872580Y-91923809D01*
X83872580Y-91923809D02*
X84872580Y-92257142D01*
X84872580Y-93066666D02*
X84872580Y-92590476D01*
X84872580Y-92590476D02*
X84396390Y-92542857D01*
X84396390Y-92542857D02*
X84444009Y-92590476D01*
X84444009Y-92590476D02*
X84491628Y-92685714D01*
X84491628Y-92685714D02*
X84491628Y-92923809D01*
X84491628Y-92923809D02*
X84444009Y-93019047D01*
X84444009Y-93019047D02*
X84396390Y-93066666D01*
X84396390Y-93066666D02*
X84301152Y-93114285D01*
X84301152Y-93114285D02*
X84063057Y-93114285D01*
X84063057Y-93114285D02*
X83967819Y-93066666D01*
X83967819Y-93066666D02*
X83920200Y-93019047D01*
X83920200Y-93019047D02*
X83872580Y-92923809D01*
X83872580Y-92923809D02*
X83872580Y-92685714D01*
X83872580Y-92685714D02*
X83920200Y-92590476D01*
X83920200Y-92590476D02*
X83967819Y-92542857D01*
X71372580Y-91304761D02*
X71848771Y-90971428D01*
X71372580Y-90733333D02*
X72372580Y-90733333D01*
X72372580Y-90733333D02*
X72372580Y-91114285D01*
X72372580Y-91114285D02*
X72324961Y-91209523D01*
X72324961Y-91209523D02*
X72277342Y-91257142D01*
X72277342Y-91257142D02*
X72182104Y-91304761D01*
X72182104Y-91304761D02*
X72039247Y-91304761D01*
X72039247Y-91304761D02*
X71944009Y-91257142D01*
X71944009Y-91257142D02*
X71896390Y-91209523D01*
X71896390Y-91209523D02*
X71848771Y-91114285D01*
X71848771Y-91114285D02*
X71848771Y-90733333D01*
X72372580Y-91590476D02*
X71372580Y-91923809D01*
X71372580Y-91923809D02*
X72372580Y-92257142D01*
X72277342Y-92542857D02*
X72324961Y-92590476D01*
X72324961Y-92590476D02*
X72372580Y-92685714D01*
X72372580Y-92685714D02*
X72372580Y-92923809D01*
X72372580Y-92923809D02*
X72324961Y-93019047D01*
X72324961Y-93019047D02*
X72277342Y-93066666D01*
X72277342Y-93066666D02*
X72182104Y-93114285D01*
X72182104Y-93114285D02*
X72086866Y-93114285D01*
X72086866Y-93114285D02*
X71944009Y-93066666D01*
X71944009Y-93066666D02*
X71372580Y-92495238D01*
X71372580Y-92495238D02*
X71372580Y-93114285D01*
D12*
%TO.C,RV8*%
X91630000Y-74140000D02*
X91630000Y-75900000D01*
X91630000Y-77900000D02*
X91630000Y-105900000D01*
X91630000Y-107960000D02*
X91630000Y-109380000D01*
X96250000Y-81900000D02*
X95500000Y-82650000D01*
X96250000Y-81900000D02*
X96250000Y-101900000D01*
X96250000Y-101900000D02*
X95500000Y-101150000D01*
X97000000Y-82650000D02*
X96250000Y-81900000D01*
X97000000Y-101150000D02*
X96250000Y-101900000D01*
X97080000Y-73250000D02*
X97580000Y-73750000D01*
X97580000Y-73750000D02*
X98080000Y-73250000D01*
X97750000Y-101900000D02*
X94750000Y-101900000D01*
X97830000Y-81900000D02*
X94830000Y-81900000D01*
X98080000Y-73250000D02*
X97080000Y-73250000D01*
X100870000Y-74140000D02*
X91630000Y-74140000D01*
X100870000Y-74140000D02*
X100870000Y-75900000D01*
X100870000Y-77900000D02*
X100870000Y-109300000D01*
X100870000Y-109380000D02*
X91630000Y-109380000D01*
%TO.C,RV3*%
X66370000Y-57845000D02*
X66370000Y-53525000D01*
X66380000Y-49925000D02*
X66380000Y-46255000D01*
X67560000Y-57845000D02*
X66380000Y-57845000D01*
X70460000Y-57845000D02*
X69930000Y-57845000D01*
X72910000Y-57845000D02*
X72080000Y-57845000D01*
X76120000Y-46255000D02*
X66380000Y-46255000D01*
X76120000Y-49925000D02*
X76120000Y-46255000D01*
X76120000Y-57845000D02*
X74630000Y-57845000D01*
X76120000Y-57845000D02*
X76120000Y-53525000D01*
%TO.C,J3*%
X66750000Y-139270000D02*
X70450000Y-139270000D01*
X66750000Y-149770000D02*
X66750000Y-139270000D01*
X66750000Y-149770000D02*
X70530000Y-149770000D01*
X71970000Y-149770000D02*
X75750000Y-149770000D01*
X72050000Y-139270000D02*
X75750000Y-139270000D01*
X75750000Y-149770000D02*
X75750000Y-139270000D01*
X73050000Y-145270000D02*
G75*
G02*
X69450000Y-145270000I-1800000J0D01*
G01*
X69450000Y-145270000D02*
G75*
G02*
X73050000Y-145270000I1800000J0D01*
G01*
%TO.C,REF\u002A\u002A*%
X103450000Y-148750000D02*
G75*
G02*
X101550000Y-148750000I-950000J0D01*
G01*
X101550000Y-148750000D02*
G75*
G02*
X103450000Y-148750000I950000J0D01*
G01*
%TO.C,RV12*%
X103845000Y-57845000D02*
X103845000Y-53525000D01*
X103855000Y-49925000D02*
X103855000Y-46255000D01*
X105035000Y-57845000D02*
X103855000Y-57845000D01*
X107935000Y-57845000D02*
X107405000Y-57845000D01*
X110385000Y-57845000D02*
X109555000Y-57845000D01*
X113595000Y-46255000D02*
X103855000Y-46255000D01*
X113595000Y-49925000D02*
X113595000Y-46255000D01*
X113595000Y-57845000D02*
X112105000Y-57845000D01*
X113595000Y-57845000D02*
X113595000Y-53525000D01*
%TO.C,J2*%
X66750000Y-110270000D02*
X70450000Y-110270000D01*
X66750000Y-120770000D02*
X66750000Y-110270000D01*
X66750000Y-120770000D02*
X70530000Y-120770000D01*
X71970000Y-120770000D02*
X75750000Y-120770000D01*
X72050000Y-110270000D02*
X75750000Y-110270000D01*
X72480000Y-123920000D02*
X71620000Y-123920000D01*
X72480000Y-123920000D02*
X72480000Y-123120000D01*
X75750000Y-120770000D02*
X75750000Y-110270000D01*
X73050000Y-116270000D02*
G75*
G02*
X69450000Y-116270000I-1800000J0D01*
G01*
X69450000Y-116270000D02*
G75*
G02*
X73050000Y-116270000I1800000J0D01*
G01*
%TO.C,RV9*%
X91370000Y-57845000D02*
X91370000Y-53525000D01*
X91380000Y-49925000D02*
X91380000Y-46255000D01*
X92560000Y-57845000D02*
X91380000Y-57845000D01*
X95460000Y-57845000D02*
X94930000Y-57845000D01*
X97910000Y-57845000D02*
X97080000Y-57845000D01*
X101120000Y-46255000D02*
X91380000Y-46255000D01*
X101120000Y-49925000D02*
X101120000Y-46255000D01*
X101120000Y-57845000D02*
X99630000Y-57845000D01*
X101120000Y-57845000D02*
X101120000Y-53525000D01*
%TO.C,D4*%
X81565000Y-136170000D02*
X81565000Y-136014000D01*
X81565000Y-138486000D02*
X81565000Y-138330000D01*
X78332666Y-136171392D02*
G75*
G02*
X81564999Y-136014485I1672334J-1078608D01*
G01*
X78963871Y-136170164D02*
G75*
G02*
X81045960Y-136170001I1041129J-1079836D01*
G01*
X81045960Y-138329999D02*
G75*
G02*
X78963871Y-138329836I-1040960J1079999D01*
G01*
X81564999Y-138485515D02*
G75*
G02*
X78332666Y-138328608I-1559999J1235515D01*
G01*
%TO.C,J6*%
X79250000Y-139270000D02*
X82950000Y-139270000D01*
X79250000Y-149770000D02*
X79250000Y-139270000D01*
X79250000Y-149770000D02*
X83030000Y-149770000D01*
X84470000Y-149770000D02*
X88250000Y-149770000D01*
X84550000Y-139270000D02*
X88250000Y-139270000D01*
X88250000Y-149770000D02*
X88250000Y-139270000D01*
X85550000Y-145270000D02*
G75*
G02*
X81950000Y-145270000I-1800000J0D01*
G01*
X81950000Y-145270000D02*
G75*
G02*
X85550000Y-145270000I1800000J0D01*
G01*
%TO.C,RV7*%
X91370000Y-71595000D02*
X91370000Y-67275000D01*
X91380000Y-63675000D02*
X91380000Y-60005000D01*
X92560000Y-71595000D02*
X91380000Y-71595000D01*
X95460000Y-71595000D02*
X94930000Y-71595000D01*
X97910000Y-71595000D02*
X97080000Y-71595000D01*
X101120000Y-60005000D02*
X91380000Y-60005000D01*
X101120000Y-63675000D02*
X101120000Y-60005000D01*
X101120000Y-71595000D02*
X99630000Y-71595000D01*
X101120000Y-71595000D02*
X101120000Y-67275000D01*
%TO.C,RV1*%
X66370000Y-71595000D02*
X66370000Y-67275000D01*
X66380000Y-63675000D02*
X66380000Y-60005000D01*
X67560000Y-71595000D02*
X66380000Y-71595000D01*
X70460000Y-71595000D02*
X69930000Y-71595000D01*
X72910000Y-71595000D02*
X72080000Y-71595000D01*
X76120000Y-60005000D02*
X66380000Y-60005000D01*
X76120000Y-63675000D02*
X76120000Y-60005000D01*
X76120000Y-71595000D02*
X74630000Y-71595000D01*
X76120000Y-71595000D02*
X76120000Y-67275000D01*
%TO.C,J9*%
X91750000Y-139270000D02*
X95450000Y-139270000D01*
X91750000Y-149770000D02*
X91750000Y-139270000D01*
X91750000Y-149770000D02*
X95530000Y-149770000D01*
X96970000Y-149770000D02*
X100750000Y-149770000D01*
X97050000Y-139270000D02*
X100750000Y-139270000D01*
X100750000Y-149770000D02*
X100750000Y-139270000D01*
X98050000Y-145270000D02*
G75*
G02*
X94450000Y-145270000I-1800000J0D01*
G01*
X94450000Y-145270000D02*
G75*
G02*
X98050000Y-145270000I1800000J0D01*
G01*
%TO.C,J10*%
X104250000Y-124770000D02*
X107950000Y-124770000D01*
X104250000Y-135270000D02*
X104250000Y-124770000D01*
X104250000Y-135270000D02*
X108030000Y-135270000D01*
X109470000Y-135270000D02*
X113250000Y-135270000D01*
X109550000Y-124770000D02*
X113250000Y-124770000D01*
X109980000Y-138420000D02*
X109120000Y-138420000D01*
X109980000Y-138420000D02*
X109980000Y-137620000D01*
X113250000Y-135270000D02*
X113250000Y-124770000D01*
X110550000Y-130770000D02*
G75*
G02*
X106950000Y-130770000I-1800000J0D01*
G01*
X106950000Y-130770000D02*
G75*
G02*
X110550000Y-130770000I1800000J0D01*
G01*
%TO.C,RV4*%
X78870000Y-71595000D02*
X78870000Y-67275000D01*
X78880000Y-63675000D02*
X78880000Y-60005000D01*
X80060000Y-71595000D02*
X78880000Y-71595000D01*
X82960000Y-71595000D02*
X82430000Y-71595000D01*
X85410000Y-71595000D02*
X84580000Y-71595000D01*
X88620000Y-60005000D02*
X78880000Y-60005000D01*
X88620000Y-63675000D02*
X88620000Y-60005000D01*
X88620000Y-71595000D02*
X87130000Y-71595000D01*
X88620000Y-71595000D02*
X88620000Y-67275000D01*
%TO.C,RV6*%
X78870000Y-57845000D02*
X78870000Y-53525000D01*
X78880000Y-49925000D02*
X78880000Y-46255000D01*
X80060000Y-57845000D02*
X78880000Y-57845000D01*
X82960000Y-57845000D02*
X82430000Y-57845000D01*
X85410000Y-57845000D02*
X84580000Y-57845000D01*
X88620000Y-46255000D02*
X78880000Y-46255000D01*
X88620000Y-49925000D02*
X88620000Y-46255000D01*
X88620000Y-57845000D02*
X87130000Y-57845000D01*
X88620000Y-57845000D02*
X88620000Y-53525000D01*
%TO.C,J12*%
X104250000Y-139270000D02*
X107950000Y-139270000D01*
X104250000Y-149770000D02*
X104250000Y-139270000D01*
X104250000Y-149770000D02*
X108030000Y-149770000D01*
X109470000Y-149770000D02*
X113250000Y-149770000D01*
X109550000Y-139270000D02*
X113250000Y-139270000D01*
X113250000Y-149770000D02*
X113250000Y-139270000D01*
X110550000Y-145270000D02*
G75*
G02*
X106950000Y-145270000I-1800000J0D01*
G01*
X106950000Y-145270000D02*
G75*
G02*
X110550000Y-145270000I1800000J0D01*
G01*
%TO.C,J4*%
X79250000Y-124770000D02*
X82950000Y-124770000D01*
X79250000Y-135270000D02*
X79250000Y-124770000D01*
X79250000Y-135270000D02*
X83030000Y-135270000D01*
X84470000Y-135270000D02*
X88250000Y-135270000D01*
X84550000Y-124770000D02*
X88250000Y-124770000D01*
X84980000Y-138420000D02*
X84120000Y-138420000D01*
X84980000Y-138420000D02*
X84980000Y-137620000D01*
X88250000Y-135270000D02*
X88250000Y-124770000D01*
X85550000Y-130770000D02*
G75*
G02*
X81950000Y-130770000I-1800000J0D01*
G01*
X81950000Y-130770000D02*
G75*
G02*
X85550000Y-130770000I1800000J0D01*
G01*
%TO.C,J8*%
X91750000Y-110270000D02*
X95450000Y-110270000D01*
X91750000Y-120770000D02*
X91750000Y-110270000D01*
X91750000Y-120770000D02*
X95530000Y-120770000D01*
X96970000Y-120770000D02*
X100750000Y-120770000D01*
X97050000Y-110270000D02*
X100750000Y-110270000D01*
X97480000Y-123920000D02*
X96620000Y-123920000D01*
X97480000Y-123920000D02*
X97480000Y-123120000D01*
X100750000Y-120770000D02*
X100750000Y-110270000D01*
X98050000Y-116270000D02*
G75*
G02*
X94450000Y-116270000I-1800000J0D01*
G01*
X94450000Y-116270000D02*
G75*
G02*
X98050000Y-116270000I1800000J0D01*
G01*
%TO.C,RV11*%
X104130000Y-74140000D02*
X104130000Y-75900000D01*
X104130000Y-77900000D02*
X104130000Y-105900000D01*
X104130000Y-107960000D02*
X104130000Y-109380000D01*
X108750000Y-81900000D02*
X108000000Y-82650000D01*
X108750000Y-81900000D02*
X108750000Y-101900000D01*
X108750000Y-101900000D02*
X108000000Y-101150000D01*
X109500000Y-82650000D02*
X108750000Y-81900000D01*
X109500000Y-101150000D02*
X108750000Y-101900000D01*
X109580000Y-73250000D02*
X110080000Y-73750000D01*
X110080000Y-73750000D02*
X110580000Y-73250000D01*
X110250000Y-101900000D02*
X107250000Y-101900000D01*
X110330000Y-81900000D02*
X107330000Y-81900000D01*
X110580000Y-73250000D02*
X109580000Y-73250000D01*
X113370000Y-74140000D02*
X104130000Y-74140000D01*
X113370000Y-74140000D02*
X113370000Y-75900000D01*
X113370000Y-77900000D02*
X113370000Y-109300000D01*
X113370000Y-109380000D02*
X104130000Y-109380000D01*
%TO.C,J1*%
X66750000Y-124770000D02*
X70450000Y-124770000D01*
X66750000Y-135270000D02*
X66750000Y-124770000D01*
X66750000Y-135270000D02*
X70530000Y-135270000D01*
X71970000Y-135270000D02*
X75750000Y-135270000D01*
X72050000Y-124770000D02*
X75750000Y-124770000D01*
X72480000Y-138420000D02*
X71620000Y-138420000D01*
X72480000Y-138420000D02*
X72480000Y-137620000D01*
X75750000Y-135270000D02*
X75750000Y-124770000D01*
X73050000Y-130770000D02*
G75*
G02*
X69450000Y-130770000I-1800000J0D01*
G01*
X69450000Y-130770000D02*
G75*
G02*
X73050000Y-130770000I1800000J0D01*
G01*
%TO.C,D8*%
X106340000Y-136170000D02*
X106340000Y-136014000D01*
X106340000Y-138486000D02*
X106340000Y-138330000D01*
X103107666Y-136171392D02*
G75*
G02*
X106339999Y-136014485I1672334J-1078608D01*
G01*
X103738871Y-136170164D02*
G75*
G02*
X105820960Y-136170001I1041129J-1079836D01*
G01*
X105820960Y-138329999D02*
G75*
G02*
X103738871Y-138329836I-1040960J1079999D01*
G01*
X106339999Y-138485515D02*
G75*
G02*
X103107666Y-138328608I-1559999J1235515D01*
G01*
%TO.C,D6*%
X93840000Y-136170000D02*
X93840000Y-136014000D01*
X93840000Y-138486000D02*
X93840000Y-138330000D01*
X90607666Y-136171392D02*
G75*
G02*
X93839999Y-136014485I1672334J-1078608D01*
G01*
X91238871Y-136170164D02*
G75*
G02*
X93320960Y-136170001I1041129J-1079836D01*
G01*
X93320960Y-138329999D02*
G75*
G02*
X91238871Y-138329836I-1040960J1079999D01*
G01*
X93839999Y-138485515D02*
G75*
G02*
X90607666Y-138328608I-1559999J1235515D01*
G01*
%TO.C,J5*%
X79250000Y-110270000D02*
X82950000Y-110270000D01*
X79250000Y-120770000D02*
X79250000Y-110270000D01*
X79250000Y-120770000D02*
X83030000Y-120770000D01*
X84470000Y-120770000D02*
X88250000Y-120770000D01*
X84550000Y-110270000D02*
X88250000Y-110270000D01*
X84980000Y-123920000D02*
X84120000Y-123920000D01*
X84980000Y-123920000D02*
X84980000Y-123120000D01*
X88250000Y-120770000D02*
X88250000Y-110270000D01*
X85550000Y-116270000D02*
G75*
G02*
X81950000Y-116270000I-1800000J0D01*
G01*
X81950000Y-116270000D02*
G75*
G02*
X85550000Y-116270000I1800000J0D01*
G01*
%TO.C,J11*%
X104250000Y-110270000D02*
X107950000Y-110270000D01*
X104250000Y-120770000D02*
X104250000Y-110270000D01*
X104250000Y-120770000D02*
X108030000Y-120770000D01*
X109470000Y-120770000D02*
X113250000Y-120770000D01*
X109550000Y-110270000D02*
X113250000Y-110270000D01*
X109980000Y-123920000D02*
X109120000Y-123920000D01*
X109980000Y-123920000D02*
X109980000Y-123120000D01*
X113250000Y-120770000D02*
X113250000Y-110270000D01*
X110550000Y-116270000D02*
G75*
G02*
X106950000Y-116270000I-1800000J0D01*
G01*
X106950000Y-116270000D02*
G75*
G02*
X110550000Y-116270000I1800000J0D01*
G01*
%TO.C,RV10*%
X103845000Y-71595000D02*
X103845000Y-67275000D01*
X103855000Y-63675000D02*
X103855000Y-60005000D01*
X105035000Y-71595000D02*
X103855000Y-71595000D01*
X107935000Y-71595000D02*
X107405000Y-71595000D01*
X110385000Y-71595000D02*
X109555000Y-71595000D01*
X113595000Y-60005000D02*
X103855000Y-60005000D01*
X113595000Y-63675000D02*
X113595000Y-60005000D01*
X113595000Y-71595000D02*
X112105000Y-71595000D01*
X113595000Y-71595000D02*
X113595000Y-67275000D01*
%TO.C,J7*%
X91750000Y-124770000D02*
X95450000Y-124770000D01*
X91750000Y-135270000D02*
X91750000Y-124770000D01*
X91750000Y-135270000D02*
X95530000Y-135270000D01*
X96970000Y-135270000D02*
X100750000Y-135270000D01*
X97050000Y-124770000D02*
X100750000Y-124770000D01*
X97480000Y-138420000D02*
X96620000Y-138420000D01*
X97480000Y-138420000D02*
X97480000Y-137620000D01*
X100750000Y-135270000D02*
X100750000Y-124770000D01*
X98050000Y-130770000D02*
G75*
G02*
X94450000Y-130770000I-1800000J0D01*
G01*
X94450000Y-130770000D02*
G75*
G02*
X98050000Y-130770000I1800000J0D01*
G01*
%TO.C,D2*%
X69065000Y-136170000D02*
X69065000Y-136014000D01*
X69065000Y-138486000D02*
X69065000Y-138330000D01*
X65832666Y-136171392D02*
G75*
G02*
X69064999Y-136014485I1672334J-1078608D01*
G01*
X66463871Y-136170164D02*
G75*
G02*
X68545960Y-136170001I1041129J-1079836D01*
G01*
X68545960Y-138329999D02*
G75*
G02*
X66463871Y-138329836I-1040960J1079999D01*
G01*
X69064999Y-138485515D02*
G75*
G02*
X65832666Y-138328608I-1559999J1235515D01*
G01*
%TO.C,RV5*%
X79130000Y-74140000D02*
X79130000Y-75900000D01*
X79130000Y-77900000D02*
X79130000Y-105900000D01*
X79130000Y-107960000D02*
X79130000Y-109380000D01*
X83750000Y-81900000D02*
X83000000Y-82650000D01*
X83750000Y-81900000D02*
X83750000Y-101900000D01*
X83750000Y-101900000D02*
X83000000Y-101150000D01*
X84500000Y-82650000D02*
X83750000Y-81900000D01*
X84500000Y-101150000D02*
X83750000Y-101900000D01*
X84580000Y-73250000D02*
X85080000Y-73750000D01*
X85080000Y-73750000D02*
X85580000Y-73250000D01*
X85250000Y-101900000D02*
X82250000Y-101900000D01*
X85330000Y-81900000D02*
X82330000Y-81900000D01*
X85580000Y-73250000D02*
X84580000Y-73250000D01*
X88370000Y-74140000D02*
X79130000Y-74140000D01*
X88370000Y-74140000D02*
X88370000Y-75900000D01*
X88370000Y-77900000D02*
X88370000Y-109300000D01*
X88370000Y-109380000D02*
X79130000Y-109380000D01*
%TO.C,REF\u002A\u002A*%
X78450000Y-148750000D02*
G75*
G02*
X76550000Y-148750000I-950000J0D01*
G01*
X76550000Y-148750000D02*
G75*
G02*
X78450000Y-148750000I950000J0D01*
G01*
X90950000Y-148750000D02*
G75*
G02*
X89050000Y-148750000I-950000J0D01*
G01*
X89050000Y-148750000D02*
G75*
G02*
X90950000Y-148750000I950000J0D01*
G01*
%TO.C,RV2*%
X66630000Y-74140000D02*
X66630000Y-75900000D01*
X66630000Y-77900000D02*
X66630000Y-105900000D01*
X66630000Y-107960000D02*
X66630000Y-109380000D01*
X71250000Y-81900000D02*
X70500000Y-82650000D01*
X71250000Y-81900000D02*
X71250000Y-101900000D01*
X71250000Y-101900000D02*
X70500000Y-101150000D01*
X72000000Y-82650000D02*
X71250000Y-81900000D01*
X72000000Y-101150000D02*
X71250000Y-101900000D01*
X72080000Y-73250000D02*
X72580000Y-73750000D01*
X72580000Y-73750000D02*
X73080000Y-73250000D01*
X72750000Y-101900000D02*
X69750000Y-101900000D01*
X72830000Y-81900000D02*
X69830000Y-81900000D01*
X73080000Y-73250000D02*
X72080000Y-73250000D01*
X75870000Y-74140000D02*
X66630000Y-74140000D01*
X75870000Y-74140000D02*
X75870000Y-75900000D01*
X75870000Y-77900000D02*
X75870000Y-109300000D01*
X75870000Y-109380000D02*
X66630000Y-109380000D01*
%TD*%
M02*
