M48
; DRILL file {KiCad 8.0.0} date 2024-08-29T00:26:03-0700
; FORMAT={-:-/ absolute / inch / decimal}
; #@! TF.CreationDate,2024-08-29T00:26:03-07:00
; #@! TF.GenerationSoftware,Kicad,Pcbnew,8.0.0
; #@! TF.FileFunction,Plated,1,4,PTH
FMAT,2
INCH
; #@! TA.AperFunction,Plated,PTH,ViaDrill
T1C0.0098
; #@! TA.AperFunction,Plated,PTH,ComponentDrill
T2C0.0276
; #@! TA.AperFunction,Plated,PTH,ComponentDrill
T3C0.0315
; #@! TA.AperFunction,Plated,PTH,ComponentDrill
T4C0.0354
; #@! TA.AperFunction,Plated,PTH,ComponentDrill
T5C0.0394
; #@! TA.AperFunction,Plated,PTH,ComponentDrill
T6C0.0472
; #@! TA.AperFunction,Plated,PTH,ComponentDrill
T7C0.0480
; #@! TA.AperFunction,Plated,PTH,ComponentDrill
T8C0.0551
; #@! TA.AperFunction,Plated,PTH,ComponentDrill
T9C0.0559
; #@! TA.AperFunction,Plated,PTH,ComponentDrill
T10C0.0563
; #@! TA.AperFunction,Plated,PTH,ComponentDrill
T11C0.0866
%
G90
G05
T1
X2.6102Y-3.1339
X2.6378Y-4.4429
X2.6555Y-5.6437
X2.6555Y-5.6929
X2.6654Y-4.2913
X2.687Y-3.4232
X2.689Y-3.2756
X2.7205Y-3.2362
X2.7329Y-3.1656
X2.748Y-5.6693
X2.75Y-3.5531
X2.75Y-3.6713
X2.75Y-3.9961
X2.752Y-3.8583
X2.752Y-5.6102
X2.7677Y-2.4567
X2.8071Y-3.5866
X2.811Y-3.7323
X2.815Y-3.2776
X2.815Y-4.0236
X2.8583Y-5.4921
X2.8858Y-3.4567
X2.8888Y-5.6841
X2.8976Y-3.5669
X2.9094Y-5.563
X2.939Y-5.7894
X2.9449Y-4.2205
X2.9528Y-4.3307
X2.9567Y-4.6732
X2.9665Y-4.2913
X2.9724Y-3.252
X2.9724Y-3.2992
X2.9729Y-3.2205
X2.9764Y-3.3386
X2.9764Y-4.0118
X2.9764Y-4.0591
X2.9843Y-3.8543
X2.9882Y-5.6594
X2.9902Y-5.4803
X3.0059Y-3.3465
X3.0059Y-4.2185
X3.0118Y-5.7106
X3.0236Y-3.2362
X3.0335Y-4.3386
X3.0551Y-3.1654
X3.0591Y-3.3268
X3.063Y-5.7165
X3.0709Y-3.9843
X3.0925Y-3.3524
X3.0945Y-3.1654
X3.0945Y-4.2441
X3.1024Y-3.252
X3.1024Y-3.2992
X3.1063Y-4.0118
X3.1063Y-4.0591
X3.1161Y-5.7087
X3.1892Y-3.5667
X3.1969Y-3.5167
X3.1969Y-3.6667
X3.1969Y-3.7165
X3.2087Y-5.5217
X3.2283Y-5.6201
X3.2362Y-3.874
X3.2392Y-3.4291
X3.2461Y-5.061
X3.2598Y-2.4528
X3.2677Y-3.2874
X3.2677Y-4.0276
X3.2677Y-4.1969
X3.2992Y-4.1732
X3.3252Y-5.0832
X3.3346Y-3.3189
X3.3346Y-3.4646
X3.3346Y-3.6535
X3.3346Y-3.7795
X3.3346Y-3.8386
X3.3346Y-4.0551
X3.3661Y-5.189
X3.3661Y-5.6201
X3.374Y-5.748
X3.4124Y-3.5915
X3.4252Y-5.6535
X3.4331Y-3.7559
X3.437Y-3.4843
X3.4449Y-3.4449
X3.4685Y-4.6732
X3.4882Y-3.622
X3.4921Y-4.3189
X3.498Y-5.689
X3.5118Y-5.0472
X3.5512Y-3.6929
X3.563Y-5.0472
X3.5787Y-3.5945
X3.6102Y-4.6732
X3.6339Y-5.5
X3.6398Y-5.6516
X3.6398Y-5.7028
X3.6417Y-3.313
X3.6575Y-4.4961
X3.6811Y-3.4193
X3.7047Y-5.0428
X3.7106Y-3.6102
X3.7264Y-5.6791
X3.7402Y-3.5551
X3.7402Y-3.6732
X3.7441Y-2.4488
X3.7441Y-4.0079
X3.748Y-3.248
X3.752Y-3.8858
X3.811Y-3.2756
X3.8307Y-5.5768
X3.8386Y-3.9685
X3.8465Y-4.6457
X3.8701Y-5.5315
X3.8755Y-5.6885
X3.878Y-3.1555
X3.878Y-3.4528
X3.8937Y-4.2913
X3.9016Y-4.2559
X3.9134Y-4.5197
X3.9173Y-5.1457
X3.9272Y-5.4646
X3.935Y-5.5217
X3.9646Y-3.1693
X3.9685Y-3.252
X3.9685Y-3.3031
X3.9705Y-5.6634
X3.9724Y-4.0079
X3.9724Y-4.063
X3.9803Y-3.8543
X3.9882Y-2.9528
X3.9958Y-3.5667
X3.9961Y-4.2224
X3.998Y-5.6969
X4.0039Y-4.3189
X4.0039Y-5.4882
X4.0118Y-3.3386
X4.0177Y-3.1693
X4.0354Y-4.7323
X4.0354Y-4.8346
X4.0354Y-4.9331
X4.0709Y-3.1693
X4.0824Y-3.3556
X4.0886Y-3.3287
X4.0984Y-4.0118
X4.0984Y-4.063
X4.1004Y-5.7146
X4.1024Y-3.252
X4.1024Y-3.3031
X4.1791Y-3.1142
X4.1909Y-5.5217
X4.1929Y-3.5138
X4.1969Y-4.0866
X4.2003Y-5.7397
X4.2293Y-3.6142
X4.2323Y-3.4173
X4.2323Y-3.874
X4.2362Y-2.4528
X4.2421Y-5.5925
X4.2559Y-4.2913
X4.2598Y-3.2795
X4.2598Y-4.0276
X4.3268Y-4.0551
X4.3307Y-3.3071
X4.3307Y-3.4567
X4.3307Y-3.6496
X4.3307Y-3.7795
X4.3307Y-3.8386
X4.3445Y-5.6299
X4.3445Y-5.687
X4.3819Y-3.4173
X4.3819Y-3.4626
X4.4232Y-3.6201
X4.4291Y-5.6614
X4.439Y-4.3307
X4.439Y-4.9134
X4.4429Y-4.6732
X4.4469Y-3.6535
X4.4508Y-3.5472
X4.4567Y-3.5118
X4.4567Y-3.7205
X4.4626Y-5.7165
T2
X3.0512Y-5.8563
X3.5433Y-5.8563
X4.0354Y-5.8563
T3
X4.0337Y-4.3799
X4.0337Y-4.4587
X4.0354Y-5.2246
X4.0354Y-5.3034
T4
X2.6077Y-5.4035
X2.7077Y-5.4035
X3.0998Y-5.4035
X3.1998Y-5.4035
X3.5831Y-5.4035
X3.6831Y-5.4035
X4.0752Y-5.4035
X4.1752Y-5.4035
T5
X2.7067Y-2.312
X2.7067Y-2.8533
X2.8051Y-2.312
X2.8051Y-2.8533
X2.9035Y-2.312
X2.9035Y-2.8533
X3.1988Y-2.312
X3.1988Y-2.8533
X3.2972Y-2.312
X3.2972Y-2.8533
X3.3957Y-2.312
X3.3957Y-2.8533
X3.6909Y-2.312
X3.6909Y-2.8533
X3.7894Y-2.312
X3.7894Y-2.8533
X3.8878Y-2.312
X3.8878Y-2.8533
X4.1821Y-2.312
X4.1821Y-2.8533
X4.2805Y-2.312
X4.2805Y-2.8533
X4.3789Y-2.312
X4.3789Y-2.8533
T6
X2.6606Y-3.0276
X2.6606Y-4.2087
X2.7591Y-3.0276
X2.8575Y-3.0276
X2.8575Y-4.2087
X2.9559Y-3.0276
X3.1528Y-3.0276
X3.1528Y-4.2087
X3.2512Y-3.0276
X3.3496Y-3.0276
X3.3496Y-4.2087
X3.448Y-3.0276
X3.6449Y-3.0276
X3.6449Y-4.2087
X3.7433Y-3.0276
X3.8417Y-3.0276
X3.8417Y-4.2087
X3.9402Y-3.0276
X4.137Y-3.0276
X4.137Y-4.2087
X4.2354Y-3.0276
X4.3339Y-3.0276
X4.3339Y-4.2087
X4.4323Y-3.0276
T7
X2.8051Y-4.8327
X2.8051Y-5.4035
X3.2972Y-4.8327
X3.2972Y-5.4035
X3.7894Y-4.8327
X3.7894Y-5.4035
X4.2815Y-4.8327
X4.2815Y-5.4035
T9
X2.8051Y-4.7106
X2.8051Y-5.2815
X2.8051Y-5.8524
X3.2972Y-4.7106
X3.2972Y-5.2815
X3.2972Y-5.8524
X3.7894Y-4.7106
X3.7894Y-5.2815
X3.7894Y-5.8524
X4.2815Y-4.7106
X4.2815Y-5.2815
X4.2815Y-5.8524
T10
X2.8051Y-4.3839
X2.8051Y-4.9547
X2.8051Y-5.5256
X3.2972Y-4.3839
X3.2972Y-4.9547
X3.2972Y-5.5256
X3.7894Y-4.3839
X3.7894Y-4.9547
X3.7894Y-5.5256
X4.2815Y-4.3839
X4.2815Y-4.9547
X4.2815Y-5.5256
T11
X3.0512Y-2.312
X4.0354Y-2.312
T8
G00X2.6319Y-2.0502
M15
G01X2.6319Y-2.0226
M16
G05
G00X2.6319Y-2.5915
M15
G01X2.6319Y-2.564
M16
G05
G00X2.9783Y-2.0502
M15
G01X2.9783Y-2.0226
M16
G05
G00X2.9783Y-2.5915
M15
G01X2.9783Y-2.564
M16
G05
G00X3.124Y-2.0502
M15
G01X3.124Y-2.0226
M16
G05
G00X3.124Y-2.5915
M15
G01X3.124Y-2.564
M16
G05
G00X3.4705Y-2.0502
M15
G01X3.4705Y-2.0226
M16
G05
G00X3.4705Y-2.5915
M15
G01X3.4705Y-2.564
M16
G05
G00X3.6161Y-2.0502
M15
G01X3.6161Y-2.0226
M16
G05
G00X3.6161Y-2.5915
M15
G01X3.6161Y-2.564
M16
G05
G00X3.9626Y-2.0502
M15
G01X3.9626Y-2.0226
M16
G05
G00X3.9626Y-2.5915
M15
G01X3.9626Y-2.564
M16
G05
G00X4.1073Y-2.0502
M15
G01X4.1073Y-2.0226
M16
G05
G00X4.1073Y-2.5915
M15
G01X4.1073Y-2.564
M16
G05
G00X4.4537Y-2.0502
M15
G01X4.4537Y-2.0226
M16
G05
G00X4.4537Y-2.5915
M15
G01X4.4537Y-2.564
M16
G05
M30
