%TF.GenerationSoftware,KiCad,Pcbnew,8.0.0*%
%TF.CreationDate,2024-08-29T00:26:00-07:00*%
%TF.ProjectId,veils_clone,7665696c-735f-4636-9c6f-6e652e6b6963,rev?*%
%TF.SameCoordinates,Original*%
%TF.FileFunction,Soldermask,Bot*%
%TF.FilePolarity,Negative*%
%FSLAX46Y46*%
G04 Gerber Fmt 4.6, Leading zero omitted, Abs format (unit mm)*
G04 Created by KiCad (PCBNEW 8.0.0) date 2024-08-29 00:26:00*
%MOMM*%
%LPD*%
G01*
G04 APERTURE LIST*
G04 Aperture macros list*
%AMRoundRect*
0 Rectangle with rounded corners*
0 $1 Rounding radius*
0 $2 $3 $4 $5 $6 $7 $8 $9 X,Y pos of 4 corners*
0 Add a 4 corners polygon primitive as box body*
4,1,4,$2,$3,$4,$5,$6,$7,$8,$9,$2,$3,0*
0 Add four circle primitives for the rounded corners*
1,1,$1+$1,$2,$3*
1,1,$1+$1,$4,$5*
1,1,$1+$1,$6,$7*
1,1,$1+$1,$8,$9*
0 Add four rect primitives between the rounded corners*
20,1,$1+$1,$2,$3,$4,$5,0*
20,1,$1+$1,$4,$5,$6,$7,0*
20,1,$1+$1,$6,$7,$8,$9,0*
20,1,$1+$1,$8,$9,$2,$3,0*%
G04 Aperture macros list end*
%ADD10R,1.750000X1.750000*%
%ADD11C,1.750000*%
%ADD12O,2.500000X3.300000*%
%ADD13R,1.800000X1.800000*%
%ADD14C,1.800000*%
%ADD15C,2.130000*%
%ADD16C,1.500000*%
%ADD17R,1.930000X1.830000*%
%ADD18C,4.400000*%
%ADD19RoundRect,0.200000X-0.200000X-0.275000X0.200000X-0.275000X0.200000X0.275000X-0.200000X0.275000X0*%
%ADD20RoundRect,0.225000X-0.225000X-0.250000X0.225000X-0.250000X0.225000X0.250000X-0.225000X0.250000X0*%
%ADD21RoundRect,0.200000X-0.275000X0.200000X-0.275000X-0.200000X0.275000X-0.200000X0.275000X0.200000X0*%
%ADD22RoundRect,0.150000X-0.150000X0.587500X-0.150000X-0.587500X0.150000X-0.587500X0.150000X0.587500X0*%
%ADD23RoundRect,0.200000X0.200000X0.275000X-0.200000X0.275000X-0.200000X-0.275000X0.200000X-0.275000X0*%
%ADD24RoundRect,0.225000X0.225000X0.250000X-0.225000X0.250000X-0.225000X-0.250000X0.225000X-0.250000X0*%
%ADD25R,1.600000X1.600000*%
%ADD26C,1.600000*%
%ADD27RoundRect,0.225000X-0.250000X0.225000X-0.250000X-0.225000X0.250000X-0.225000X0.250000X0.225000X0*%
%ADD28RoundRect,0.112500X-0.187500X-0.112500X0.187500X-0.112500X0.187500X0.112500X-0.187500X0.112500X0*%
%ADD29RoundRect,0.100000X0.637500X0.100000X-0.637500X0.100000X-0.637500X-0.100000X0.637500X-0.100000X0*%
%ADD30RoundRect,0.112500X0.187500X0.112500X-0.187500X0.112500X-0.187500X-0.112500X0.187500X-0.112500X0*%
%ADD31RoundRect,0.150000X-0.825000X-0.150000X0.825000X-0.150000X0.825000X0.150000X-0.825000X0.150000X0*%
%ADD32RoundRect,0.100000X-0.637500X-0.100000X0.637500X-0.100000X0.637500X0.100000X-0.637500X0.100000X0*%
%ADD33R,3.150000X1.000000*%
%ADD34RoundRect,0.200000X0.275000X-0.200000X0.275000X0.200000X-0.275000X0.200000X-0.275000X-0.200000X0*%
%ADD35RoundRect,0.225000X0.250000X-0.225000X0.250000X0.225000X-0.250000X0.225000X-0.250000X-0.225000X0*%
G04 APERTURE END LIST*
D10*
%TO.C,RV8*%
X97580000Y-76900000D03*
D11*
X100080000Y-76900000D03*
X97580000Y-106900000D03*
X95080000Y-76900000D03*
X92580000Y-106900000D03*
X92580000Y-76900000D03*
%TD*%
D12*
%TO.C,RV3*%
X66850000Y-51725000D03*
X75650000Y-51725000D03*
D13*
X68750000Y-58725000D03*
D14*
X71250000Y-58725000D03*
X73750000Y-58725000D03*
%TD*%
D15*
%TO.C,J3*%
X71250000Y-140350000D03*
X71250000Y-148650000D03*
%TD*%
D16*
%TO.C,REF\u002A\u002A*%
X102500000Y-148750000D03*
%TD*%
D12*
%TO.C,RV12*%
X104325000Y-51725000D03*
X113125000Y-51725000D03*
D13*
X106225000Y-58725000D03*
D14*
X108725000Y-58725000D03*
X111225000Y-58725000D03*
%TD*%
D17*
%TO.C,J2*%
X71250000Y-122750000D03*
D15*
X71250000Y-111350000D03*
X71250000Y-119650000D03*
%TD*%
D12*
%TO.C,RV9*%
X91850000Y-51725000D03*
X100650000Y-51725000D03*
D13*
X93750000Y-58725000D03*
D14*
X96250000Y-58725000D03*
X98750000Y-58725000D03*
%TD*%
D13*
%TO.C,D4*%
X81275000Y-137250000D03*
D14*
X78735000Y-137250000D03*
%TD*%
D15*
%TO.C,J6*%
X83750000Y-140350000D03*
X83750000Y-148650000D03*
%TD*%
D12*
%TO.C,RV7*%
X91850000Y-65475000D03*
X100650000Y-65475000D03*
D13*
X93750000Y-72475000D03*
D14*
X96250000Y-72475000D03*
X98750000Y-72475000D03*
%TD*%
D12*
%TO.C,RV1*%
X66850000Y-65475000D03*
X75650000Y-65475000D03*
D13*
X68750000Y-72475000D03*
D14*
X71250000Y-72475000D03*
X73750000Y-72475000D03*
%TD*%
D15*
%TO.C,J9*%
X96250000Y-140350000D03*
X96250000Y-148650000D03*
%TD*%
D17*
%TO.C,J10*%
X108750000Y-137250000D03*
D15*
X108750000Y-125850000D03*
X108750000Y-134150000D03*
%TD*%
D12*
%TO.C,RV4*%
X79350000Y-65475000D03*
X88150000Y-65475000D03*
D13*
X81250000Y-72475000D03*
D14*
X83750000Y-72475000D03*
X86250000Y-72475000D03*
%TD*%
D12*
%TO.C,RV6*%
X79350000Y-51725000D03*
X88150000Y-51725000D03*
D13*
X81250000Y-58725000D03*
D14*
X83750000Y-58725000D03*
X86250000Y-58725000D03*
%TD*%
D15*
%TO.C,J12*%
X108750000Y-140350000D03*
X108750000Y-148650000D03*
%TD*%
D17*
%TO.C,J4*%
X83750000Y-137250000D03*
D15*
X83750000Y-125850000D03*
X83750000Y-134150000D03*
%TD*%
D17*
%TO.C,J8*%
X96250000Y-122750000D03*
D15*
X96250000Y-111350000D03*
X96250000Y-119650000D03*
%TD*%
D18*
%TO.C,REF\u002A\u002A*%
X102500000Y-58725000D03*
%TD*%
D10*
%TO.C,RV11*%
X110080000Y-76900000D03*
D11*
X112580000Y-76900000D03*
X110080000Y-106900000D03*
X107580000Y-76900000D03*
X105080000Y-106900000D03*
X105080000Y-76900000D03*
%TD*%
D17*
%TO.C,J1*%
X71250000Y-137250000D03*
D15*
X71250000Y-125850000D03*
X71250000Y-134150000D03*
%TD*%
D13*
%TO.C,D8*%
X106050000Y-137250000D03*
D14*
X103510000Y-137250000D03*
%TD*%
D13*
%TO.C,D6*%
X93550000Y-137250000D03*
D14*
X91010000Y-137250000D03*
%TD*%
D17*
%TO.C,J5*%
X83750000Y-122750000D03*
D15*
X83750000Y-111350000D03*
X83750000Y-119650000D03*
%TD*%
D17*
%TO.C,J11*%
X108750000Y-122750000D03*
D15*
X108750000Y-111350000D03*
X108750000Y-119650000D03*
%TD*%
D12*
%TO.C,RV10*%
X104325000Y-65475000D03*
X113125000Y-65475000D03*
D13*
X106225000Y-72475000D03*
D14*
X108725000Y-72475000D03*
X111225000Y-72475000D03*
%TD*%
D17*
%TO.C,J7*%
X96250000Y-137250000D03*
D15*
X96250000Y-125850000D03*
X96250000Y-134150000D03*
%TD*%
D18*
%TO.C,REF\u002A\u002A*%
X77500000Y-58725000D03*
%TD*%
D13*
%TO.C,D2*%
X68775000Y-137250000D03*
D14*
X66235000Y-137250000D03*
%TD*%
D10*
%TO.C,RV5*%
X85080000Y-76900000D03*
D11*
X87580000Y-76900000D03*
X85080000Y-106900000D03*
X82580000Y-76900000D03*
X80080000Y-106900000D03*
X80080000Y-76900000D03*
%TD*%
D16*
%TO.C,REF\u002A\u002A*%
X77500000Y-148750000D03*
%TD*%
%TO.C,REF\u002A\u002A*%
X90000000Y-148750000D03*
%TD*%
D10*
%TO.C,RV2*%
X72580000Y-76900000D03*
D11*
X75080000Y-76900000D03*
X72580000Y-106900000D03*
X70080000Y-76900000D03*
X67580000Y-106900000D03*
X67580000Y-76900000D03*
%TD*%
D19*
%TO.C,R37*%
X74700000Y-106250000D03*
X76350000Y-106250000D03*
%TD*%
D20*
%TO.C,C20*%
X110725000Y-94500000D03*
X112275000Y-94500000D03*
%TD*%
D19*
%TO.C,R68*%
X92425000Y-140850000D03*
X94075000Y-140850000D03*
%TD*%
D21*
%TO.C,R94*%
X84500000Y-130175000D03*
X84500000Y-131825000D03*
%TD*%
D22*
%TO.C,U10*%
X86387500Y-130475000D03*
X88287500Y-130475000D03*
X87337500Y-132350000D03*
%TD*%
D23*
%TO.C,R26*%
X83825000Y-94500000D03*
X82175000Y-94500000D03*
%TD*%
%TO.C,R44*%
X87825000Y-140500000D03*
X86175000Y-140500000D03*
%TD*%
%TO.C,R25*%
X83825000Y-96000000D03*
X82175000Y-96000000D03*
%TD*%
%TO.C,R43*%
X69075000Y-104500000D03*
X67425000Y-104500000D03*
%TD*%
D20*
%TO.C,C36*%
X95975000Y-82500000D03*
X97525000Y-82500000D03*
%TD*%
D24*
%TO.C,C39*%
X109025000Y-87750000D03*
X107475000Y-87750000D03*
%TD*%
%TO.C,C3*%
X72275000Y-98000000D03*
X70725000Y-98000000D03*
%TD*%
D20*
%TO.C,C38*%
X107475000Y-97500000D03*
X109025000Y-97500000D03*
%TD*%
D19*
%TO.C,R32*%
X82175000Y-100000000D03*
X83825000Y-100000000D03*
%TD*%
D23*
%TO.C,R89*%
X105575000Y-140250000D03*
X103925000Y-140250000D03*
%TD*%
%TO.C,R29*%
X83825000Y-91250000D03*
X82175000Y-91250000D03*
%TD*%
D19*
%TO.C,R49*%
X95925000Y-90250000D03*
X97575000Y-90250000D03*
%TD*%
D23*
%TO.C,R64*%
X94325000Y-109000000D03*
X92675000Y-109000000D03*
%TD*%
D25*
%TO.C,C42*%
X102455112Y-111250000D03*
D26*
X102455112Y-113250000D03*
%TD*%
D23*
%TO.C,R10*%
X70325000Y-61250000D03*
X68675000Y-61250000D03*
%TD*%
%TO.C,R41*%
X80575000Y-140250000D03*
X78925000Y-140250000D03*
%TD*%
D19*
%TO.C,R8*%
X70675000Y-93250000D03*
X72325000Y-93250000D03*
%TD*%
D27*
%TO.C,C44*%
X98500000Y-130725000D03*
X98500000Y-132275000D03*
%TD*%
D23*
%TO.C,R91*%
X94325000Y-104750000D03*
X92675000Y-104750000D03*
%TD*%
D19*
%TO.C,R27*%
X86675000Y-126000000D03*
X88325000Y-126000000D03*
%TD*%
%TO.C,R71*%
X95925000Y-80750000D03*
X97575000Y-80750000D03*
%TD*%
D21*
%TO.C,R61*%
X68450000Y-99225000D03*
X68450000Y-100875000D03*
%TD*%
D19*
%TO.C,R14*%
X70675000Y-142400000D03*
X72325000Y-142400000D03*
%TD*%
D23*
%TO.C,R78*%
X109075000Y-89250000D03*
X107425000Y-89250000D03*
%TD*%
D19*
%TO.C,R82*%
X110675000Y-91000000D03*
X112325000Y-91000000D03*
%TD*%
%TO.C,R55*%
X95925000Y-93250000D03*
X97575000Y-93250000D03*
%TD*%
D28*
%TO.C,D1*%
X66495000Y-109000000D03*
X68595000Y-109000000D03*
%TD*%
D29*
%TO.C,U4*%
X80112500Y-100550000D03*
X80112500Y-101200000D03*
X80112500Y-101850000D03*
X80112500Y-102500000D03*
X80112500Y-103150000D03*
X80112500Y-103800000D03*
X80112500Y-104450000D03*
X74387500Y-104450000D03*
X74387500Y-103800000D03*
X74387500Y-103150000D03*
X74387500Y-102500000D03*
X74387500Y-101850000D03*
X74387500Y-101200000D03*
X74387500Y-100550000D03*
%TD*%
D23*
%TO.C,R87*%
X97575000Y-104750000D03*
X95925000Y-104750000D03*
%TD*%
D19*
%TO.C,R96*%
X99425000Y-98750000D03*
X101075000Y-98750000D03*
%TD*%
D20*
%TO.C,C45*%
X86725000Y-128250000D03*
X88275000Y-128250000D03*
%TD*%
D24*
%TO.C,C6*%
X72275000Y-85500000D03*
X70725000Y-85500000D03*
%TD*%
D30*
%TO.C,D5*%
X90800000Y-109000000D03*
X88700000Y-109000000D03*
%TD*%
D23*
%TO.C,R60*%
X109075000Y-79350000D03*
X107425000Y-79350000D03*
%TD*%
D19*
%TO.C,R3*%
X70675000Y-88750000D03*
X72325000Y-88750000D03*
%TD*%
%TO.C,R9*%
X82175000Y-82750000D03*
X83825000Y-82750000D03*
%TD*%
D24*
%TO.C,C33*%
X97275000Y-144250000D03*
X95725000Y-144250000D03*
%TD*%
D19*
%TO.C,R28*%
X86425000Y-111250000D03*
X88075000Y-111250000D03*
%TD*%
D23*
%TO.C,R1*%
X75075000Y-119750000D03*
X73425000Y-119750000D03*
%TD*%
%TO.C,R16*%
X68325000Y-111000000D03*
X66675000Y-111000000D03*
%TD*%
D24*
%TO.C,C1*%
X71275000Y-70250000D03*
X69725000Y-70250000D03*
%TD*%
D20*
%TO.C,C46*%
X91475000Y-128250000D03*
X93025000Y-128250000D03*
%TD*%
D23*
%TO.C,R83*%
X109325000Y-144500000D03*
X107675000Y-144500000D03*
%TD*%
D19*
%TO.C,R56*%
X107425000Y-81000000D03*
X109075000Y-81000000D03*
%TD*%
D24*
%TO.C,C4*%
X83775000Y-85900000D03*
X82225000Y-85900000D03*
%TD*%
D31*
%TO.C,U7*%
X74775000Y-96945000D03*
X74775000Y-95675000D03*
X74775000Y-94405000D03*
X74775000Y-93135000D03*
X74775000Y-91865000D03*
X74775000Y-90595000D03*
X74775000Y-89325000D03*
X74775000Y-88055000D03*
X79725000Y-88055000D03*
X79725000Y-89325000D03*
X79725000Y-90595000D03*
X79725000Y-91865000D03*
X79725000Y-93135000D03*
X79725000Y-94405000D03*
X79725000Y-95675000D03*
X79725000Y-96945000D03*
%TD*%
D23*
%TO.C,R35*%
X87825000Y-144500000D03*
X86175000Y-144500000D03*
%TD*%
D19*
%TO.C,R84*%
X110925000Y-100000000D03*
X112575000Y-100000000D03*
%TD*%
%TO.C,R36*%
X85675000Y-100000000D03*
X87325000Y-100000000D03*
%TD*%
D20*
%TO.C,C29*%
X70725000Y-101500000D03*
X72275000Y-101500000D03*
%TD*%
D23*
%TO.C,R92*%
X112575000Y-140500000D03*
X110925000Y-140500000D03*
%TD*%
D19*
%TO.C,R53*%
X95925000Y-91750000D03*
X97575000Y-91750000D03*
%TD*%
D22*
%TO.C,U9*%
X91387500Y-130475000D03*
X93287500Y-130475000D03*
X92337500Y-132350000D03*
%TD*%
D23*
%TO.C,R7*%
X72325000Y-96500000D03*
X70675000Y-96500000D03*
%TD*%
D19*
%TO.C,R50*%
X95925000Y-88750000D03*
X97575000Y-88750000D03*
%TD*%
D20*
%TO.C,C11*%
X82225000Y-101500000D03*
X83775000Y-101500000D03*
%TD*%
D23*
%TO.C,R22*%
X72325000Y-79450000D03*
X70675000Y-79450000D03*
%TD*%
D28*
%TO.C,D7*%
X104950000Y-109000000D03*
X107050000Y-109000000D03*
%TD*%
D24*
%TO.C,C26*%
X84525000Y-142750000D03*
X82975000Y-142750000D03*
%TD*%
%TO.C,C13*%
X95775000Y-70250000D03*
X94225000Y-70250000D03*
%TD*%
D19*
%TO.C,R76*%
X111175000Y-111000000D03*
X112825000Y-111000000D03*
%TD*%
D24*
%TO.C,C25*%
X72275000Y-144000000D03*
X70725000Y-144000000D03*
%TD*%
D23*
%TO.C,R58*%
X97575000Y-94750000D03*
X95925000Y-94750000D03*
%TD*%
D19*
%TO.C,R66*%
X95675000Y-145750000D03*
X97325000Y-145750000D03*
%TD*%
%TO.C,R47*%
X70675000Y-99750000D03*
X72325000Y-99750000D03*
%TD*%
D23*
%TO.C,R51*%
X93075000Y-126000000D03*
X91425000Y-126000000D03*
%TD*%
%TO.C,R54*%
X97575000Y-96500000D03*
X95925000Y-96500000D03*
%TD*%
%TO.C,R31*%
X83825000Y-92750000D03*
X82175000Y-92750000D03*
%TD*%
D20*
%TO.C,C8*%
X85725000Y-94500000D03*
X87275000Y-94500000D03*
%TD*%
%TO.C,C10*%
X82225000Y-104500000D03*
X83775000Y-104500000D03*
%TD*%
D21*
%TO.C,R19*%
X68250000Y-84175000D03*
X68250000Y-85825000D03*
%TD*%
D19*
%TO.C,R6*%
X70675000Y-91750000D03*
X72325000Y-91750000D03*
%TD*%
D20*
%TO.C,C5*%
X82225000Y-81250000D03*
X83775000Y-81250000D03*
%TD*%
D19*
%TO.C,R65*%
X92425000Y-145750000D03*
X94075000Y-145750000D03*
%TD*%
D23*
%TO.C,R77*%
X109075000Y-91000000D03*
X107425000Y-91000000D03*
%TD*%
D31*
%TO.C,U8*%
X100025000Y-96945000D03*
X100025000Y-95675000D03*
X100025000Y-94405000D03*
X100025000Y-93135000D03*
X100025000Y-91865000D03*
X100025000Y-90595000D03*
X100025000Y-89325000D03*
X100025000Y-88055000D03*
X104975000Y-88055000D03*
X104975000Y-89325000D03*
X104975000Y-90595000D03*
X104975000Y-91865000D03*
X104975000Y-93135000D03*
X104975000Y-94405000D03*
X104975000Y-95675000D03*
X104975000Y-96945000D03*
%TD*%
D32*
%TO.C,U1*%
X74637500Y-146325000D03*
X74637500Y-145675000D03*
X74637500Y-145025000D03*
X74637500Y-144375000D03*
X74637500Y-143725000D03*
X74637500Y-143075000D03*
X74637500Y-142425000D03*
X80362500Y-142425000D03*
X80362500Y-143075000D03*
X80362500Y-143725000D03*
X80362500Y-144375000D03*
X80362500Y-145025000D03*
X80362500Y-145675000D03*
X80362500Y-146325000D03*
%TD*%
D19*
%TO.C,R48*%
X91675000Y-119750000D03*
X93325000Y-119750000D03*
%TD*%
D20*
%TO.C,C27*%
X82225000Y-84250000D03*
X83775000Y-84250000D03*
%TD*%
D19*
%TO.C,R38*%
X82925000Y-146000000D03*
X84575000Y-146000000D03*
%TD*%
%TO.C,R17*%
X67425000Y-145500000D03*
X69075000Y-145500000D03*
%TD*%
D24*
%TO.C,C19*%
X108275000Y-70250000D03*
X106725000Y-70250000D03*
%TD*%
%TO.C,C32*%
X83775000Y-88000000D03*
X82225000Y-88000000D03*
%TD*%
D20*
%TO.C,C31*%
X82225000Y-97500000D03*
X83775000Y-97500000D03*
%TD*%
D23*
%TO.C,R63*%
X97575000Y-85500000D03*
X95925000Y-85500000D03*
%TD*%
D20*
%TO.C,C40*%
X107475000Y-103000000D03*
X109025000Y-103000000D03*
%TD*%
D19*
%TO.C,R4*%
X73350000Y-125750000D03*
X75000000Y-125750000D03*
%TD*%
D29*
%TO.C,U6*%
X105362500Y-100550000D03*
X105362500Y-101200000D03*
X105362500Y-101850000D03*
X105362500Y-102500000D03*
X105362500Y-103150000D03*
X105362500Y-103800000D03*
X105362500Y-104450000D03*
X99637500Y-104450000D03*
X99637500Y-103800000D03*
X99637500Y-103150000D03*
X99637500Y-102500000D03*
X99637500Y-101850000D03*
X99637500Y-101200000D03*
X99637500Y-100550000D03*
%TD*%
D20*
%TO.C,C2*%
X70725000Y-87250000D03*
X72275000Y-87250000D03*
%TD*%
D21*
%TO.C,R67*%
X93500000Y-84175000D03*
X93500000Y-85825000D03*
%TD*%
D23*
%TO.C,R34*%
X84575000Y-144500000D03*
X82925000Y-144500000D03*
%TD*%
D19*
%TO.C,R80*%
X107425000Y-100000000D03*
X109075000Y-100000000D03*
%TD*%
D23*
%TO.C,R81*%
X107575000Y-61250000D03*
X105925000Y-61250000D03*
%TD*%
D29*
%TO.C,U5*%
X105362500Y-81300000D03*
X105362500Y-81950000D03*
X105362500Y-82600000D03*
X105362500Y-83250000D03*
X105362500Y-83900000D03*
X105362500Y-84550000D03*
X105362500Y-85200000D03*
X99637500Y-85200000D03*
X99637500Y-84550000D03*
X99637500Y-83900000D03*
X99637500Y-83250000D03*
X99637500Y-82600000D03*
X99637500Y-81950000D03*
X99637500Y-81300000D03*
%TD*%
D24*
%TO.C,C18*%
X97525000Y-84000000D03*
X95975000Y-84000000D03*
%TD*%
D19*
%TO.C,R90*%
X100925000Y-140250000D03*
X102575000Y-140250000D03*
%TD*%
%TO.C,R85*%
X99525000Y-106250000D03*
X101175000Y-106250000D03*
%TD*%
D24*
%TO.C,C16*%
X109025000Y-85650000D03*
X107475000Y-85650000D03*
%TD*%
D19*
%TO.C,R52*%
X96425000Y-109000000D03*
X98075000Y-109000000D03*
%TD*%
%TO.C,R18*%
X70675000Y-145500000D03*
X72325000Y-145500000D03*
%TD*%
%TO.C,R75*%
X111175000Y-126000000D03*
X112825000Y-126000000D03*
%TD*%
D33*
%TO.C,J13*%
X100000000Y-127830000D03*
X105050000Y-127830000D03*
X100000000Y-125290000D03*
X105050000Y-125290000D03*
X100000000Y-122750000D03*
X105050000Y-122750000D03*
X100000000Y-120210000D03*
X105050000Y-120210000D03*
X100000000Y-117670000D03*
X105050000Y-117670000D03*
%TD*%
D19*
%TO.C,R62*%
X95675000Y-142550000D03*
X97325000Y-142550000D03*
%TD*%
D20*
%TO.C,C17*%
X107475000Y-82500000D03*
X109025000Y-82500000D03*
%TD*%
D19*
%TO.C,R5*%
X73425000Y-111000000D03*
X75075000Y-111000000D03*
%TD*%
%TO.C,R21*%
X67425000Y-74750000D03*
X69075000Y-74750000D03*
%TD*%
D23*
%TO.C,R40*%
X81825000Y-109000000D03*
X80175000Y-109000000D03*
%TD*%
D24*
%TO.C,C34*%
X109275000Y-143000000D03*
X107725000Y-143000000D03*
%TD*%
%TO.C,C12*%
X72275000Y-103000000D03*
X70725000Y-103000000D03*
%TD*%
D19*
%TO.C,R23*%
X70675000Y-80900000D03*
X72325000Y-80900000D03*
%TD*%
D27*
%TO.C,C43*%
X98500000Y-113225000D03*
X98500000Y-114775000D03*
%TD*%
D23*
%TO.C,R39*%
X72325000Y-104500000D03*
X70675000Y-104500000D03*
%TD*%
%TO.C,R70*%
X97575000Y-79250000D03*
X95925000Y-79250000D03*
%TD*%
D19*
%TO.C,R88*%
X101675000Y-108750000D03*
X103325000Y-108750000D03*
%TD*%
D20*
%TO.C,C9*%
X85725000Y-89500000D03*
X87275000Y-89500000D03*
%TD*%
D23*
%TO.C,R11*%
X72325000Y-94750000D03*
X70675000Y-94750000D03*
%TD*%
D24*
%TO.C,C24*%
X97525000Y-103250000D03*
X95975000Y-103250000D03*
%TD*%
D19*
%TO.C,R93*%
X104925000Y-74750000D03*
X106575000Y-74750000D03*
%TD*%
%TO.C,R97*%
X74175000Y-98750000D03*
X75825000Y-98750000D03*
%TD*%
D20*
%TO.C,C35*%
X107475000Y-84000000D03*
X109025000Y-84000000D03*
%TD*%
D29*
%TO.C,U2*%
X80000000Y-81250000D03*
X80000000Y-81900000D03*
X80000000Y-82550000D03*
X80000000Y-83200000D03*
X80000000Y-83850000D03*
X80000000Y-84500000D03*
X80000000Y-85150000D03*
X74275000Y-85150000D03*
X74275000Y-84500000D03*
X74275000Y-83850000D03*
X74275000Y-83200000D03*
X74275000Y-82550000D03*
X74275000Y-81900000D03*
X74275000Y-81250000D03*
%TD*%
D25*
%TO.C,C41*%
X102500000Y-134705113D03*
D26*
X102500000Y-132705113D03*
%TD*%
D20*
%TO.C,C23*%
X107475000Y-101500000D03*
X109025000Y-101500000D03*
%TD*%
%TO.C,C22*%
X107475000Y-104500000D03*
X109025000Y-104500000D03*
%TD*%
D32*
%TO.C,U3*%
X99650000Y-146437500D03*
X99650000Y-145787500D03*
X99650000Y-145137500D03*
X99650000Y-144487500D03*
X99650000Y-143837500D03*
X99650000Y-143187500D03*
X99650000Y-142537500D03*
X105375000Y-142537500D03*
X105375000Y-143187500D03*
X105375000Y-143837500D03*
X105375000Y-144487500D03*
X105375000Y-145137500D03*
X105375000Y-145787500D03*
X105375000Y-146437500D03*
%TD*%
D19*
%TO.C,R12*%
X67425000Y-142400000D03*
X69075000Y-142400000D03*
%TD*%
D20*
%TO.C,C14*%
X95975000Y-87250000D03*
X97525000Y-87250000D03*
%TD*%
D24*
%TO.C,C15*%
X97525000Y-98000000D03*
X95975000Y-98000000D03*
%TD*%
D23*
%TO.C,R73*%
X109075000Y-96000000D03*
X107425000Y-96000000D03*
%TD*%
D20*
%TO.C,C30*%
X82225000Y-103000000D03*
X83775000Y-103000000D03*
%TD*%
D23*
%TO.C,R72*%
X112825000Y-119750000D03*
X111175000Y-119750000D03*
%TD*%
D19*
%TO.C,R42*%
X75925000Y-140250000D03*
X77575000Y-140250000D03*
%TD*%
D23*
%TO.C,R15*%
X72325000Y-84000000D03*
X70675000Y-84000000D03*
%TD*%
D34*
%TO.C,R95*%
X95250000Y-131825000D03*
X95250000Y-130175000D03*
%TD*%
D19*
%TO.C,R59*%
X92425000Y-142550000D03*
X94075000Y-142550000D03*
%TD*%
D20*
%TO.C,C37*%
X95975000Y-101750000D03*
X97525000Y-101750000D03*
%TD*%
D19*
%TO.C,R69*%
X92425000Y-74750000D03*
X94075000Y-74750000D03*
%TD*%
D20*
%TO.C,C21*%
X110725000Y-89250000D03*
X112275000Y-89250000D03*
%TD*%
D23*
%TO.C,R24*%
X88075000Y-119750000D03*
X86425000Y-119750000D03*
%TD*%
D35*
%TO.C,FB1*%
X106250000Y-114775000D03*
X106250000Y-113225000D03*
%TD*%
D24*
%TO.C,C7*%
X83775000Y-70250000D03*
X82225000Y-70250000D03*
%TD*%
D30*
%TO.C,D3*%
X78550000Y-109000000D03*
X76450000Y-109000000D03*
%TD*%
D19*
%TO.C,R86*%
X107675000Y-146000000D03*
X109325000Y-146000000D03*
%TD*%
%TO.C,R46*%
X86175000Y-148250000D03*
X87825000Y-148250000D03*
%TD*%
D23*
%TO.C,R30*%
X83825000Y-89500000D03*
X82175000Y-89500000D03*
%TD*%
%TO.C,R13*%
X83825000Y-79600000D03*
X82175000Y-79600000D03*
%TD*%
%TO.C,R79*%
X109075000Y-92750000D03*
X107425000Y-92750000D03*
%TD*%
%TO.C,R74*%
X109075000Y-94500000D03*
X107425000Y-94500000D03*
%TD*%
D27*
%TO.C,FB2*%
X106500000Y-130725000D03*
X106500000Y-132275000D03*
%TD*%
D19*
%TO.C,R2*%
X70675000Y-90250000D03*
X72325000Y-90250000D03*
%TD*%
D20*
%TO.C,C28*%
X70725000Y-82500000D03*
X72275000Y-82500000D03*
%TD*%
D23*
%TO.C,R57*%
X95075000Y-61250000D03*
X93425000Y-61250000D03*
%TD*%
%TO.C,R33*%
X82825000Y-61250000D03*
X81175000Y-61250000D03*
%TD*%
D19*
%TO.C,R20*%
X67425000Y-140250000D03*
X69075000Y-140250000D03*
%TD*%
%TO.C,R45*%
X79925000Y-74750000D03*
X81575000Y-74750000D03*
%TD*%
M02*
